<svg width="1038" height="404" viewBox="0 0 1038 404" fill="none" xmlns="http://www.w3.org/2000/svg">
<mask id="path-1-outside-1_118_1269" maskUnits="userSpaceOnUse" x="0" y="328" width="865" height="76" fill="black">
<rect fill="white" y="328" width="865" height="76"/>
<path d="M4 328H861V400H4V328Z"/>
</mask>
<path d="M4 328H861V400H4V328Z" fill="#4675D0"/>
<path d="M861 400V404H865V400H861ZM4 400H0V404H4V400ZM857 328V400H865V328H857ZM861 396H4V404H861V396ZM8 400V328H0V400H8Z" fill="#474747" mask="url(#path-1-outside-1_118_1269)"/>
<path d="M29.0893 342.4L30.4693 358.18C30.5093 358.56 30.5393 358.99 30.5593 359.47C30.5793 359.95 30.5993 360.4 30.6193 360.82C30.6393 361.32 30.6593 361.83 30.6793 362.35H31.0093C31.0493 361.83 31.0993 361.32 31.1593 360.82C31.1993 360.4 31.2493 359.95 31.3093 359.47C31.3693 358.99 31.4193 358.56 31.4593 358.18L33.5593 342.4H36.5593L38.5393 358.18C38.5793 358.54 38.6293 358.96 38.6893 359.44C38.7493 359.92 38.7993 360.38 38.8393 360.82C38.8993 361.32 38.9593 361.83 39.0193 362.35H39.3493C39.3693 361.83 39.3893 361.32 39.4093 360.82C39.4293 360.4 39.4493 359.95 39.4693 359.47C39.4893 358.99 39.5193 358.56 39.5593 358.18L40.9693 342.4H43.2793L41.0293 364H37.3693L35.4793 348.13C35.4193 347.55 35.3693 347.02 35.3293 346.54C35.3093 346.04 35.2893 345.62 35.2693 345.28C35.2693 344.86 35.2693 344.48 35.2693 344.14H34.8793C34.8793 344.48 34.8793 344.86 34.8793 345.28C34.8593 345.62 34.8293 346.04 34.7893 346.54C34.7693 347.02 34.7193 347.55 34.6393 348.13L32.5993 364H28.9393L26.7793 342.4H29.0893ZM45.9076 359.2C45.9076 358.42 46.0376 357.72 46.2976 357.1C46.5776 356.46 46.9676 355.92 47.4676 355.48C47.9876 355.04 48.6076 354.7 49.3276 354.46C50.0476 354.22 50.8576 354.1 51.7576 354.1H56.6776V352.75C56.6776 351.73 56.3376 350.94 55.6576 350.38C54.9976 349.8 54.0376 349.51 52.7776 349.51C51.8576 349.51 51.0676 349.68 50.4076 350.02C49.7676 350.36 49.3376 350.83 49.1176 351.43H46.4176C46.6976 350.13 47.4076 349.1 48.5476 348.34C49.7076 347.58 51.1376 347.2 52.8376 347.2C54.8776 347.2 56.4776 347.68 57.6376 348.64C58.7976 349.58 59.3776 350.9 59.3776 352.6V364H56.9176V360.85H56.6776C56.4176 361.91 55.8076 362.75 54.8476 363.37C53.8876 363.99 52.7176 364.3 51.3376 364.3C49.6776 364.3 48.3576 363.84 47.3776 362.92C46.3976 362 45.9076 360.76 45.9076 359.2ZM51.9376 362.08C52.6176 362.08 53.2476 361.99 53.8276 361.81C54.4076 361.63 54.9076 361.38 55.3276 361.06C55.7476 360.72 56.0776 360.33 56.3176 359.89C56.5576 359.45 56.6776 358.97 56.6776 358.45V356.2H51.8176C50.8176 356.2 50.0276 356.46 49.4476 356.98C48.8876 357.5 48.6076 358.22 48.6076 359.14C48.6076 360.06 48.8976 360.78 49.4776 361.3C50.0576 361.82 50.8776 362.08 51.9376 362.08ZM63.8059 347.5H68.6059V342.4H71.3059V347.5H77.7559V349.96H71.3059V359.74C71.3059 360.3 71.4759 360.74 71.8159 361.06C72.1759 361.38 72.6559 361.54 73.2559 361.54H77.4559V364H73.2559C71.8359 364 70.7059 363.61 69.8659 362.83C69.0259 362.05 68.6059 361.02 68.6059 359.74V349.96H63.8059V347.5ZM88.9941 364.3C86.9341 364.3 85.3141 363.74 84.1341 362.62C82.9741 361.5 82.3941 359.96 82.3941 358V353.5C82.3941 351.54 82.9741 350 84.1341 348.88C85.3141 347.76 86.9341 347.2 88.9941 347.2C91.0541 347.2 92.6641 347.76 93.8241 348.88C95.0041 350 95.5941 351.54 95.5941 353.5V356.53H85.0941V357.85C85.0941 359.11 85.4341 360.1 86.1141 360.82C86.8141 361.54 87.7741 361.9 88.9941 361.9C89.8941 361.9 90.6741 361.76 91.3341 361.48C91.9941 361.2 92.4841 360.79 92.8041 360.25H95.5041C95.1641 361.51 94.4041 362.5 93.2241 363.22C92.0641 363.94 90.6541 364.3 88.9941 364.3ZM92.8941 354.28V353.5C92.8941 352.26 92.5541 351.3 91.8741 350.62C91.1941 349.94 90.2341 349.6 88.9941 349.6C87.7541 349.6 86.7941 349.94 86.1141 350.62C85.4341 351.3 85.0941 352.26 85.0941 353.5V354.28H92.8941ZM101.342 347.5H103.892V350.35H104.132C104.392 349.37 104.932 348.6 105.752 348.04C106.572 347.48 107.582 347.2 108.782 347.2C110.522 347.2 111.882 347.75 112.862 348.85C113.862 349.93 114.362 351.42 114.362 353.32V354.25H111.662V353.65C111.662 352.35 111.332 351.35 110.672 350.65C110.032 349.93 109.112 349.57 107.912 349.57C106.732 349.57 105.792 349.94 105.092 350.68C104.392 351.4 104.042 352.39 104.042 353.65V364H101.342V347.5Z" fill="#F2F2F2"/>
<path d="M84.063 398.234L85 402H851H857.525L852.121 398.344C823.367 378.889 801.35 345.102 783.077 304.939C764.819 264.807 750.42 218.593 736.74 174.518L736.335 173.214C722.828 129.695 709.974 88.2799 694.768 57.3037C679.486 26.1738 661.4 4.6842 637.063 3.14677C614.161 1.70002 598.427 1.40465 585.584 5.44156C572.581 9.52872 562.763 17.9686 551.393 33.3092C547.812 38.1408 545.194 45.4013 543.126 53.6875C541.044 62.0256 539.465 71.6403 538.078 81.3419C537.454 85.7056 536.872 90.0571 536.302 94.3278C535.594 99.6262 534.902 104.8 534.167 109.72C532.843 118.576 531.415 126.304 529.598 131.88C519.259 163.612 499.042 198.756 477.834 225.964C467.233 239.563 456.433 251.118 446.556 259.251C441.618 263.317 436.949 266.496 432.685 268.651C428.405 270.814 424.648 271.886 421.5 271.886C387.553 271.886 371.863 247.555 354.923 221.284C354.434 220.525 353.943 219.764 353.451 219.002C336.102 192.141 316.986 164.289 274.764 164.289C257.338 164.289 242.822 176.379 229.47 194.366C216.554 211.765 204.341 235.218 191.367 260.13C190.889 261.048 190.41 261.969 189.929 262.891C176.38 288.898 161.913 316.382 144.788 340.581C127.662 364.781 107.974 385.553 84.063 398.234Z" fill="#F2F2F2" stroke="#474747" stroke-width="4"/>
<mask id="mask0_118_1269" style="mask-type:alpha" maskUnits="userSpaceOnUse" x="85" y="4" width="766" height="397">
<path d="M274.764 166.289C209.091 166.289 182.196 348.454 85 400H851C734.133 320.929 729.435 10.9861 636.937 5.14279C591.01 2.24152 575.5 4.14292 553 34.5001C539.659 52.5 538.994 109.5 531.5 132.5C510.647 196.5 450.117 273.886 421.5 273.886C349.113 273.886 356.856 166.289 274.764 166.289Z" fill="#F2F2F2"/>
</mask>
<g mask="url(#mask0_118_1269)">
<rect x="66" y="-7" width="801" height="407" fill="url(#paint0_linear_118_1269)"/>
<g filter="url(#filter0_f_118_1269)">
<rect x="525" y="63" width="45" height="8" fill="#FFF6DE" fill-opacity="0.4"/>
</g>
<g filter="url(#filter1_f_118_1269)">
<rect x="516" y="103" width="45" height="8" fill="#FFF6DE" fill-opacity="0.4"/>
</g>
<g opacity="0.6" filter="url(#filter2_f_118_1269)">
<rect x="532" y="83" width="53" height="10" fill="#FFF6DE"/>
</g>
</g>
<circle cx="758" cy="378" r="9" fill="#F2F2F2"/>
<rect x="757" y="375" width="144" height="5" fill="#474747" stroke="#F2F2F2" stroke-width="2"/>
<circle cx="758" cy="378" r="7" fill="#474747"/>
<path d="M909.25 389V367.4H912.61L915.25 374.72C915.35 374.94 915.44 375.2 915.52 375.5C915.6 375.78 915.67 376.04 915.73 376.28C915.81 376.58 915.89 376.87 915.97 377.15H916.15C916.23 376.87 916.31 376.58 916.39 376.28C916.47 376.04 916.55 375.78 916.63 375.5C916.73 375.2 916.82 374.94 916.9 374.72L919.39 367.4H922.75V389H920.26V373.85C920.26 373.53 920.26 373.17 920.26 372.77C920.28 372.37 920.31 371.98 920.35 371.6C920.37 371.16 920.39 370.72 920.41 370.28H920.23C920.11 370.7 919.99 371.11 919.87 371.51C919.77 371.87 919.65 372.26 919.51 372.68C919.39 373.1 919.27 373.49 919.15 373.85L917.29 379.4H914.77L912.91 373.85C912.79 373.47 912.66 373.07 912.52 372.65C912.38 372.23 912.26 371.84 912.16 371.48C912.04 371.06 911.92 370.65 911.8 370.25H911.65C911.67 370.69 911.69 371.13 911.71 371.57C911.71 371.93 911.71 372.32 911.71 372.74C911.73 373.14 911.74 373.51 911.74 373.85V389H909.25ZM927.688 372.5H930.388V383.18C930.388 385.68 931.578 386.93 933.958 386.93C936.378 386.93 937.588 385.68 937.588 383.18V372.5H940.288V383.18C940.288 385.14 939.738 386.65 938.638 387.71C937.558 388.77 935.998 389.3 933.958 389.3C931.958 389.3 930.408 388.77 929.308 387.71C928.228 386.63 927.688 385.12 927.688 383.18V372.5ZM945.377 378.65C945.377 377.65 945.507 376.75 945.767 375.95C946.047 375.15 946.427 374.48 946.907 373.94C947.387 373.38 947.967 372.95 948.647 372.65C949.327 372.35 950.087 372.2 950.927 372.2C952.147 372.2 953.157 372.48 953.957 373.04C954.757 373.58 955.287 374.35 955.547 375.35H955.787C955.767 375.01 955.747 374.67 955.727 374.33C955.687 374.03 955.657 373.72 955.637 373.4C955.637 373.06 955.637 372.76 955.637 372.5V367.1H958.337V389H955.787V386.15H955.547C955.287 387.15 954.757 387.93 953.957 388.49C953.157 389.03 952.147 389.3 950.927 389.3C950.087 389.3 949.327 389.15 948.647 388.85C947.967 388.55 947.387 388.13 946.907 387.59C946.427 387.03 946.047 386.35 945.767 385.55C945.507 384.75 945.377 383.85 945.377 382.85V378.65ZM951.947 386.96C953.067 386.96 953.957 386.59 954.617 385.85C955.297 385.11 955.637 384.11 955.637 382.85V378.65C955.637 377.39 955.297 376.39 954.617 375.65C953.957 374.91 953.067 374.54 951.947 374.54C950.727 374.54 949.777 374.9 949.097 375.62C948.417 376.34 948.077 377.35 948.077 378.65V382.85C948.077 384.11 948.417 385.11 949.097 385.85C949.797 386.59 950.747 386.96 951.947 386.96Z" fill="black"/>
<circle cx="734" cy="328" r="9" fill="#F2F2F2"/>
<rect x="733" y="325" width="151" height="5" fill="#474747" stroke="#F2F2F2" stroke-width="2"/>
<circle cx="734" cy="328" r="7" fill="#474747"/>
<path d="M899 339.3C898.02 339.3 897.11 339.17 896.27 338.91C895.43 338.63 894.7 338.24 894.08 337.74C893.48 337.22 893 336.6 892.64 335.88C892.3 335.16 892.12 334.35 892.1 333.45H894.95C894.95 333.97 895.05 334.44 895.25 334.86C895.47 335.28 895.77 335.64 896.15 335.94C896.53 336.24 896.97 336.48 897.47 336.66C897.97 336.82 898.5 336.9 899.06 336.9C900.32 336.9 901.32 336.61 902.06 336.03C902.8 335.43 903.17 334.62 903.17 333.6C903.17 332.74 902.9 331.98 902.36 331.32C901.82 330.64 901.04 330.11 900.02 329.73L897.74 328.89C894.4 327.67 892.73 325.65 892.73 322.83C892.73 321.03 893.3 319.63 894.44 318.63C895.58 317.61 897.15 317.1 899.15 317.1C900.09 317.1 900.95 317.23 901.73 317.49C902.51 317.75 903.18 318.13 903.74 318.63C904.32 319.13 904.77 319.74 905.09 320.46C905.43 321.16 905.61 321.95 905.63 322.83H902.78C902.78 322.33 902.68 321.88 902.48 321.48C902.28 321.06 902.01 320.71 901.67 320.43C901.35 320.13 900.97 319.9 900.53 319.74C900.09 319.58 899.62 319.5 899.12 319.5C897.98 319.5 897.08 319.77 896.42 320.31C895.78 320.85 895.46 321.58 895.46 322.5C895.46 323.4 895.7 324.15 896.18 324.75C896.68 325.33 897.48 325.82 898.58 326.22L900.98 327.09C902.58 327.67 903.8 328.51 904.64 329.61C905.48 330.71 905.9 332.01 905.9 333.51C905.9 335.31 905.28 336.73 904.04 337.77C902.82 338.79 901.14 339.3 899 339.3ZM909.878 334.2C909.878 333.42 910.008 332.72 910.268 332.1C910.548 331.46 910.938 330.92 911.438 330.48C911.958 330.04 912.578 329.7 913.298 329.46C914.018 329.22 914.828 329.1 915.728 329.1H920.648V327.75C920.648 326.73 920.308 325.94 919.628 325.38C918.968 324.8 918.008 324.51 916.748 324.51C915.828 324.51 915.038 324.68 914.378 325.02C913.738 325.36 913.308 325.83 913.088 326.43H910.388C910.668 325.13 911.378 324.1 912.518 323.34C913.678 322.58 915.108 322.2 916.808 322.2C918.848 322.2 920.448 322.68 921.608 323.64C922.768 324.58 923.348 325.9 923.348 327.6V339H920.888V335.85H920.648C920.388 336.91 919.778 337.75 918.818 338.37C917.858 338.99 916.688 339.3 915.308 339.3C913.648 339.3 912.328 338.84 911.348 337.92C910.368 337 909.878 335.76 909.878 334.2ZM915.908 337.08C916.588 337.08 917.218 336.99 917.798 336.81C918.378 336.63 918.878 336.38 919.298 336.06C919.718 335.72 920.048 335.33 920.288 334.89C920.528 334.45 920.648 333.97 920.648 333.45V331.2H915.788C914.788 331.2 913.998 331.46 913.418 331.98C912.858 332.5 912.578 333.22 912.578 334.14C912.578 335.06 912.868 335.78 913.448 336.3C914.028 336.82 914.848 337.08 915.908 337.08ZM928.617 339V322.5H931.167V325.35H931.407C931.667 324.35 932.187 323.58 932.967 323.04C933.767 322.48 934.757 322.2 935.937 322.2C936.757 322.2 937.497 322.34 938.157 322.62C938.837 322.9 939.407 323.3 939.867 323.82C940.347 324.32 940.717 324.93 940.977 325.65C941.237 326.35 941.367 327.14 941.367 328.02V339H938.667V328.47C938.667 327.21 938.347 326.23 937.707 325.53C937.067 324.83 936.177 324.48 935.037 324.48C933.897 324.48 932.987 324.86 932.307 325.62C931.647 326.36 931.317 327.37 931.317 328.65V339H928.617ZM946.365 328.65C946.365 327.65 946.495 326.75 946.755 325.95C947.035 325.15 947.415 324.48 947.895 323.94C948.375 323.38 948.955 322.95 949.635 322.65C950.315 322.35 951.075 322.2 951.915 322.2C953.135 322.2 954.145 322.48 954.945 323.04C955.745 323.58 956.275 324.35 956.535 325.35H956.775C956.755 325.01 956.735 324.67 956.715 324.33C956.675 324.03 956.645 323.72 956.625 323.4C956.625 323.06 956.625 322.76 956.625 322.5V317.1H959.325V339H956.775V336.15H956.535C956.275 337.15 955.745 337.93 954.945 338.49C954.145 339.03 953.135 339.3 951.915 339.3C951.075 339.3 950.315 339.15 949.635 338.85C948.955 338.55 948.375 338.13 947.895 337.59C947.415 337.03 947.035 336.35 946.755 335.55C946.495 334.75 946.365 333.85 946.365 332.85V328.65ZM952.935 336.96C954.055 336.96 954.945 336.59 955.605 335.85C956.285 335.11 956.625 334.11 956.625 332.85V328.65C956.625 327.39 956.285 326.39 955.605 325.65C954.945 324.91 954.055 324.54 952.935 324.54C951.715 324.54 950.765 324.9 950.085 325.62C949.405 326.34 949.065 327.35 949.065 328.65V332.85C949.065 334.11 949.405 335.11 950.085 335.85C950.785 336.59 951.735 336.96 952.935 336.96Z" fill="black"/>
<circle cx="715" cy="272" r="9" fill="#F2F2F2"/>
<rect x="714" y="269" width="151" height="5" fill="#474747" stroke="#F2F2F2" stroke-width="2"/>
<circle cx="715" cy="272" r="7" fill="#474747"/>
<path d="M879.52 271.9H886.6V276.85C886.6 277.83 886.44 278.72 886.12 279.52C885.82 280.32 885.38 281 884.8 281.56C884.24 282.12 883.55 282.55 882.73 282.85C881.93 283.15 881.02 283.3 880 283.3C879 283.3 878.09 283.15 877.27 282.85C876.45 282.55 875.75 282.12 875.17 281.56C874.61 281 874.17 280.32 873.85 279.52C873.55 278.72 873.4 277.83 873.4 276.85V267.55C873.4 266.59 873.56 265.71 873.88 264.91C874.2 264.11 874.64 263.43 875.2 262.87C875.78 262.31 876.48 261.88 877.3 261.58C878.12 261.26 879.02 261.1 880 261.1C881.82 261.1 883.31 261.56 884.47 262.48C885.63 263.4 886.39 264.74 886.75 266.5H883.99C883.79 265.56 883.34 264.83 882.64 264.31C881.94 263.77 881.06 263.5 880 263.5C878.8 263.5 877.85 263.86 877.15 264.58C876.45 265.3 876.1 266.29 876.1 267.55V276.85C876.1 278.11 876.45 279.1 877.15 279.82C877.85 280.54 878.8 280.9 880 280.9C881.2 280.9 882.15 280.54 882.85 279.82C883.55 279.1 883.9 278.11 883.9 276.85V274.3H879.52V271.9ZM892.348 266.5H894.898V269.35H895.138C895.398 268.37 895.938 267.6 896.758 267.04C897.578 266.48 898.588 266.2 899.788 266.2C901.528 266.2 902.888 266.75 903.868 267.85C904.868 268.93 905.368 270.42 905.368 272.32V273.25H902.668V272.65C902.668 271.35 902.338 270.35 901.678 269.65C901.038 268.93 900.118 268.57 898.918 268.57C897.738 268.57 896.798 268.94 896.098 269.68C895.398 270.4 895.048 271.39 895.048 272.65V283H892.348V266.5ZM908.867 278.2C908.867 277.42 908.997 276.72 909.257 276.1C909.537 275.46 909.927 274.92 910.427 274.48C910.947 274.04 911.567 273.7 912.287 273.46C913.007 273.22 913.817 273.1 914.717 273.1H919.637V271.75C919.637 270.73 919.297 269.94 918.617 269.38C917.957 268.8 916.997 268.51 915.737 268.51C914.817 268.51 914.027 268.68 913.367 269.02C912.727 269.36 912.297 269.83 912.077 270.43H909.377C909.657 269.13 910.367 268.1 911.507 267.34C912.667 266.58 914.097 266.2 915.797 266.2C917.837 266.2 919.437 266.68 920.597 267.64C921.757 268.58 922.337 269.9 922.337 271.6V283H919.877V279.85H919.637C919.377 280.91 918.767 281.75 917.807 282.37C916.847 282.99 915.677 283.3 914.297 283.3C912.637 283.3 911.317 282.84 910.337 281.92C909.357 281 908.867 279.76 908.867 278.2ZM914.897 281.08C915.577 281.08 916.207 280.99 916.787 280.81C917.367 280.63 917.867 280.38 918.287 280.06C918.707 279.72 919.037 279.33 919.277 278.89C919.517 278.45 919.637 277.97 919.637 277.45V275.2H914.777C913.777 275.2 912.987 275.46 912.407 275.98C911.847 276.5 911.567 277.22 911.567 278.14C911.567 279.06 911.857 279.78 912.437 280.3C913.017 280.82 913.837 281.08 914.897 281.08ZM933.515 283.3C931.775 283.3 930.335 282.91 929.195 282.13C928.075 281.33 927.435 280.27 927.275 278.95H930.125C930.245 279.53 930.615 280 931.235 280.36C931.855 280.72 932.615 280.9 933.515 280.9H934.355C935.435 280.9 936.275 280.68 936.875 280.24C937.475 279.78 937.775 279.17 937.775 278.41C937.775 277.11 936.855 276.32 935.015 276.04L932.525 275.68C930.905 275.44 929.695 274.93 928.895 274.15C928.095 273.37 927.695 272.28 927.695 270.88C927.695 269.4 928.215 268.25 929.255 267.43C930.315 266.61 931.785 266.2 933.665 266.2H934.505C935.305 266.2 936.045 266.3 936.725 266.5C937.405 266.7 938.005 266.99 938.525 267.37C939.045 267.73 939.465 268.17 939.785 268.69C940.125 269.19 940.345 269.75 940.445 270.37H937.595C937.475 269.85 937.135 269.43 936.575 269.11C936.015 268.77 935.325 268.6 934.505 268.6H933.665C932.645 268.6 931.845 268.8 931.265 269.2C930.705 269.6 930.425 270.2 930.425 271C930.425 271.64 930.615 272.13 930.995 272.47C931.395 272.79 932.035 273.01 932.915 273.13L935.405 273.49C937.185 273.75 938.475 274.27 939.275 275.05C940.095 275.83 940.505 276.94 940.505 278.38C940.505 279.92 939.965 281.13 938.885 282.01C937.825 282.87 936.315 283.3 934.355 283.3H933.515ZM951.503 283.3C949.763 283.3 948.323 282.91 947.183 282.13C946.063 281.33 945.423 280.27 945.263 278.95H948.113C948.233 279.53 948.603 280 949.223 280.36C949.843 280.72 950.603 280.9 951.503 280.9H952.343C953.423 280.9 954.263 280.68 954.863 280.24C955.463 279.78 955.763 279.17 955.763 278.41C955.763 277.11 954.843 276.32 953.003 276.04L950.513 275.68C948.893 275.44 947.683 274.93 946.883 274.15C946.083 273.37 945.683 272.28 945.683 270.88C945.683 269.4 946.203 268.25 947.243 267.43C948.303 266.61 949.773 266.2 951.653 266.2H952.493C953.293 266.2 954.033 266.3 954.713 266.5C955.393 266.7 955.993 266.99 956.513 267.37C957.033 267.73 957.453 268.17 957.773 268.69C958.113 269.19 958.333 269.75 958.433 270.37H955.583C955.463 269.85 955.123 269.43 954.563 269.11C954.003 268.77 953.313 268.6 952.493 268.6H951.653C950.633 268.6 949.833 268.8 949.253 269.2C948.693 269.6 948.413 270.2 948.413 271C948.413 271.64 948.603 272.13 948.983 272.47C949.383 272.79 950.023 273.01 950.903 273.13L953.393 273.49C955.173 273.75 956.463 274.27 957.263 275.05C958.083 275.83 958.493 276.94 958.493 278.38C958.493 279.92 957.953 281.13 956.873 282.01C955.813 282.87 954.303 283.3 952.343 283.3H951.503Z" fill="black"/>
<circle cx="684" cy="175" r="9" fill="#F2F2F2"/>
<rect x="683" y="172" width="198" height="5" fill="#474747" stroke="#F2F2F2" stroke-width="2"/>
<circle cx="684" cy="175" r="7" fill="#474747"/>
<path d="M896.6 164.4C897.58 164.4 898.47 164.55 899.27 164.85C900.07 165.15 900.75 165.58 901.31 166.14C901.89 166.7 902.33 167.37 902.63 168.15C902.95 168.91 903.11 169.76 903.11 170.7C903.11 172.2 902.72 173.48 901.94 174.54C901.18 175.58 900.14 176.3 898.82 176.7L903.41 186H900.23L896.03 177H892.4V186H889.7V164.4H896.6ZM892.4 174.6H896.6C897.74 174.6 898.64 174.25 899.3 173.55C899.98 172.83 900.32 171.88 900.32 170.7C900.32 169.52 899.98 168.58 899.3 167.88C898.62 167.16 897.72 166.8 896.6 166.8H892.4V174.6ZM910.088 179.85C910.088 181.11 910.428 182.1 911.108 182.82C911.808 183.54 912.768 183.9 913.988 183.9C915.188 183.9 916.138 183.54 916.838 182.82C917.538 182.1 917.888 181.11 917.888 179.85V175.65C917.888 174.39 917.538 173.4 916.838 172.68C916.138 171.96 915.188 171.6 913.988 171.6C912.788 171.6 911.838 171.96 911.138 172.68C910.438 173.4 910.088 174.39 910.088 175.65V179.85ZM907.388 175.65C907.388 174.65 907.538 173.76 907.838 172.98C908.158 172.18 908.598 171.5 909.158 170.94C909.738 170.38 910.428 169.95 911.228 169.65C912.048 169.35 912.968 169.2 913.988 169.2C916.028 169.2 917.638 169.77 918.818 170.91C919.998 172.05 920.588 173.62 920.588 175.62V179.85C920.588 180.85 920.438 181.75 920.138 182.55C919.838 183.35 919.398 184.03 918.818 184.59C918.258 185.13 917.568 185.55 916.748 185.85C915.928 186.15 915.008 186.3 913.988 186.3C912.968 186.3 912.048 186.15 911.228 185.85C910.428 185.55 909.738 185.12 909.158 184.56C908.598 184 908.158 183.32 907.838 182.52C907.538 181.72 907.388 180.83 907.388 179.85V175.65ZM932.217 186.3C931.197 186.3 930.277 186.15 929.457 185.85C928.657 185.55 927.967 185.12 927.387 184.56C926.827 184 926.387 183.32 926.067 182.52C925.767 181.72 925.617 180.83 925.617 179.85V175.65C925.617 174.67 925.767 173.78 926.067 172.98C926.387 172.18 926.827 171.5 927.387 170.94C927.967 170.38 928.657 169.95 929.457 169.65C930.277 169.35 931.197 169.2 932.217 169.2C934.037 169.2 935.527 169.7 936.687 170.7C937.867 171.68 938.577 173.03 938.817 174.75H936.117C935.977 173.79 935.547 173.03 934.827 172.47C934.127 171.89 933.257 171.6 932.217 171.6C931.017 171.6 930.067 171.96 929.367 172.68C928.667 173.4 928.317 174.39 928.317 175.65V179.85C928.317 181.11 928.657 182.1 929.337 182.82C930.037 183.54 930.997 183.9 932.217 183.9C933.257 183.9 934.127 183.62 934.827 183.06C935.547 182.48 935.977 181.71 936.117 180.75H938.817C938.557 182.49 937.837 183.85 936.657 184.83C935.497 185.81 934.017 186.3 932.217 186.3ZM946.455 164.1V176.4H949.695L954.735 169.5H957.825L951.975 177.48L957.915 186H954.765L949.725 178.8H946.455V186H943.755V164.1H946.455Z" fill="black"/>
<circle cx="558" cy="74" r="9" fill="#F2F2F2"/>
<rect x="557" y="71" width="189" height="5" fill="#474747" stroke="#F2F2F2" stroke-width="2"/>
<circle cx="558" cy="74" r="7" fill="#474747"/>
<path d="M761 66.3C760.02 66.3 759.11 66.17 758.27 65.91C757.43 65.63 756.7 65.24 756.08 64.74C755.48 64.22 755 63.6 754.64 62.88C754.3 62.16 754.12 61.35 754.1 60.45H756.95C756.95 60.97 757.05 61.44 757.25 61.86C757.47 62.28 757.77 62.64 758.15 62.94C758.53 63.24 758.97 63.48 759.47 63.66C759.97 63.82 760.5 63.9 761.06 63.9C762.32 63.9 763.32 63.61 764.06 63.03C764.8 62.43 765.17 61.62 765.17 60.6C765.17 59.74 764.9 58.98 764.36 58.32C763.82 57.64 763.04 57.11 762.02 56.73L759.74 55.89C756.4 54.67 754.73 52.65 754.73 49.83C754.73 48.03 755.3 46.63 756.44 45.63C757.58 44.61 759.15 44.1 761.15 44.1C762.09 44.1 762.95 44.23 763.73 44.49C764.51 44.75 765.18 45.13 765.74 45.63C766.32 46.13 766.77 46.74 767.09 47.46C767.43 48.16 767.61 48.95 767.63 49.83H764.78C764.78 49.33 764.68 48.88 764.48 48.48C764.28 48.06 764.01 47.71 763.67 47.43C763.35 47.13 762.97 46.9 762.53 46.74C762.09 46.58 761.62 46.5 761.12 46.5C759.98 46.5 759.08 46.77 758.42 47.31C757.78 47.85 757.46 48.58 757.46 49.5C757.46 50.4 757.7 51.15 758.18 51.75C758.68 52.33 759.48 52.82 760.58 53.22L762.98 54.09C764.58 54.67 765.8 55.51 766.64 56.61C767.48 57.71 767.9 59.01 767.9 60.51C767.9 62.31 767.28 63.73 766.04 64.77C764.82 65.79 763.14 66.3 761 66.3ZM771.788 49.5H776.588V44.4H779.288V49.5H785.738V51.96H779.288V61.74C779.288 62.3 779.458 62.74 779.798 63.06C780.158 63.38 780.638 63.54 781.238 63.54H785.438V66H781.238C779.818 66 778.688 65.61 777.848 64.83C777.008 64.05 776.588 63.02 776.588 61.74V51.96H771.788V49.5ZM791.337 49.5H793.887V52.35H794.127C794.387 51.37 794.927 50.6 795.747 50.04C796.567 49.48 797.577 49.2 798.777 49.2C800.517 49.2 801.877 49.75 802.857 50.85C803.857 51.93 804.357 53.42 804.357 55.32V56.25H801.657V55.65C801.657 54.35 801.327 53.35 800.667 52.65C800.027 51.93 799.107 51.57 797.907 51.57C796.727 51.57 795.787 51.94 795.087 52.68C794.387 53.4 794.037 54.39 794.037 55.65V66H791.337V49.5ZM808.815 66V63.54H814.815V51.96H809.565V49.5H817.515V63.54H822.465V66H808.815ZM815.415 43.05H816.015C816.595 43.05 817.065 43.22 817.425 43.56C817.785 43.9 817.965 44.34 817.965 44.88C817.965 45.42 817.785 45.85 817.425 46.17C817.065 46.49 816.595 46.65 816.015 46.65H815.415C814.835 46.65 814.365 46.5 814.005 46.2C813.645 45.88 813.465 45.44 813.465 44.88C813.465 44.34 813.645 43.9 814.005 43.56C814.365 43.22 814.835 43.05 815.415 43.05ZM829.143 49.5V52.35H829.383C829.643 51.35 830.173 50.58 830.973 50.04C831.773 49.48 832.783 49.2 834.003 49.2C834.843 49.2 835.603 49.35 836.283 49.65C836.963 49.95 837.543 50.38 838.023 50.94C838.503 51.48 838.873 52.15 839.133 52.95C839.413 53.75 839.553 54.65 839.553 55.65V59.85C839.553 60.85 839.413 61.75 839.133 62.55C838.873 63.35 838.503 64.03 838.023 64.59C837.543 65.13 836.963 65.55 836.283 65.85C835.603 66.15 834.843 66.3 834.003 66.3C832.783 66.3 831.773 66.03 830.973 65.49C830.173 64.93 829.643 64.15 829.383 63.15H829.143C829.163 63.49 829.193 63.83 829.233 64.17C829.253 64.47 829.263 64.78 829.263 65.1C829.283 65.42 829.293 65.72 829.293 66V70.95H826.593V49.5H829.143ZM829.293 59.85C829.293 61.11 829.623 62.11 830.283 62.85C830.963 63.59 831.863 63.96 832.983 63.96C834.183 63.96 835.123 63.59 835.803 62.85C836.503 62.11 836.853 61.11 836.853 59.85V55.65C836.853 54.35 836.513 53.34 835.833 52.62C835.153 51.9 834.203 51.54 832.983 51.54C831.863 51.54 830.963 51.91 830.283 52.65C829.623 53.39 829.293 54.39 829.293 55.65V59.85ZM850.941 66.3C848.881 66.3 847.261 65.74 846.081 64.62C844.921 63.5 844.341 61.96 844.341 60V55.5C844.341 53.54 844.921 52 846.081 50.88C847.261 49.76 848.881 49.2 850.941 49.2C853.001 49.2 854.611 49.76 855.771 50.88C856.951 52 857.541 53.54 857.541 55.5V58.53H847.041V59.85C847.041 61.11 847.381 62.1 848.061 62.82C848.761 63.54 849.721 63.9 850.941 63.9C851.841 63.9 852.621 63.76 853.281 63.48C853.941 63.2 854.431 62.79 854.751 62.25H857.451C857.111 63.51 856.351 64.5 855.171 65.22C854.011 65.94 852.601 66.3 850.941 66.3ZM854.841 56.28V55.5C854.841 54.26 854.501 53.3 853.821 52.62C853.141 51.94 852.181 51.6 850.941 51.6C849.701 51.6 848.741 51.94 848.061 52.62C847.381 53.3 847.041 54.26 847.041 55.5V56.28H854.841ZM862.33 55.65C862.33 54.65 862.46 53.75 862.72 52.95C863 52.15 863.38 51.48 863.86 50.94C864.34 50.38 864.92 49.95 865.6 49.65C866.28 49.35 867.04 49.2 867.88 49.2C869.1 49.2 870.11 49.48 870.91 50.04C871.71 50.58 872.24 51.35 872.5 52.35H872.74C872.72 52.01 872.7 51.67 872.68 51.33C872.64 51.03 872.61 50.72 872.59 50.4C872.59 50.06 872.59 49.76 872.59 49.5V44.1H875.29V66H872.74V63.15H872.5C872.24 64.15 871.71 64.93 870.91 65.49C870.11 66.03 869.1 66.3 867.88 66.3C867.04 66.3 866.28 66.15 865.6 65.85C864.92 65.55 864.34 65.13 863.86 64.59C863.38 64.03 863 63.35 862.72 62.55C862.46 61.75 862.33 60.85 862.33 59.85V55.65ZM868.9 63.96C870.02 63.96 870.91 63.59 871.57 62.85C872.25 62.11 872.59 61.11 872.59 59.85V55.65C872.59 54.39 872.25 53.39 871.57 52.65C870.91 51.91 870.02 51.54 868.9 51.54C867.68 51.54 866.73 51.9 866.05 52.62C865.37 53.34 865.03 54.35 865.03 55.65V59.85C865.03 61.11 865.37 62.11 866.05 62.85C866.75 63.59 867.7 63.96 868.9 63.96ZM897.706 49.5H902.506V44.4H905.206V49.5H911.656V51.96H905.206V61.74C905.206 62.3 905.376 62.74 905.716 63.06C906.076 63.38 906.556 63.54 907.156 63.54H911.356V66H907.156C905.736 66 904.606 65.61 903.766 64.83C902.926 64.05 902.506 63.02 902.506 61.74V51.96H897.706V49.5ZM922.895 66.3C920.835 66.3 919.215 65.74 918.035 64.62C916.875 63.5 916.295 61.96 916.295 60V55.5C916.295 53.54 916.875 52 918.035 50.88C919.215 49.76 920.835 49.2 922.895 49.2C924.955 49.2 926.565 49.76 927.725 50.88C928.905 52 929.495 53.54 929.495 55.5V58.53H918.995V59.85C918.995 61.11 919.335 62.1 920.015 62.82C920.715 63.54 921.675 63.9 922.895 63.9C923.795 63.9 924.575 63.76 925.235 63.48C925.895 63.2 926.385 62.79 926.705 62.25H929.405C929.065 63.51 928.305 64.5 927.125 65.22C925.965 65.94 924.555 66.3 922.895 66.3ZM926.795 56.28V55.5C926.795 54.26 926.455 53.3 925.775 52.62C925.095 51.94 924.135 51.6 922.895 51.6C921.655 51.6 920.695 51.94 920.015 52.62C919.335 53.3 918.995 54.26 918.995 55.5V56.28H926.795ZM933.323 66L939.293 57.54L933.683 49.5H936.923L940.373 54.75C940.473 54.89 940.553 55.03 940.613 55.17C940.673 55.29 940.723 55.4 940.763 55.5C940.803 55.6 940.833 55.7 940.853 55.8H940.973C940.993 55.7 941.023 55.6 941.063 55.5C941.103 55.4 941.153 55.29 941.213 55.17C941.273 55.03 941.353 54.89 941.453 54.75L944.903 49.5H948.113L942.503 57.51L948.443 66H945.203L941.513 60.42C941.433 60.28 941.353 60.15 941.273 60.03C941.213 59.89 941.153 59.76 941.093 59.64C941.033 59.5 940.983 59.37 940.943 59.25H940.823C940.783 59.39 940.733 59.52 940.673 59.64C940.613 59.76 940.553 59.89 940.493 60.03C940.433 60.17 940.353 60.3 940.253 60.42L936.533 66H933.323ZM951.671 49.5H956.471V44.4H959.171V49.5H965.621V51.96H959.171V61.74C959.171 62.3 959.341 62.74 959.681 63.06C960.041 63.38 960.521 63.54 961.121 63.54H965.321V66H961.121C959.701 66 958.571 65.61 957.731 64.83C956.891 64.05 956.471 63.02 956.471 61.74V51.96H951.671V49.5ZM970.559 49.5H973.259V60.18C973.259 62.68 974.449 63.93 976.829 63.93C979.249 63.93 980.459 62.68 980.459 60.18V49.5H983.159V60.18C983.159 62.14 982.609 63.65 981.509 64.71C980.429 65.77 978.869 66.3 976.829 66.3C974.829 66.3 973.279 65.77 972.179 64.71C971.099 63.63 970.559 62.12 970.559 60.18V49.5ZM989.208 49.5H991.758V52.35H991.998C992.258 51.37 992.798 50.6 993.618 50.04C994.438 49.48 995.448 49.2 996.648 49.2C998.388 49.2 999.748 49.75 1000.73 50.85C1001.73 51.93 1002.23 53.42 1002.23 55.32V56.25H999.528V55.65C999.528 54.35 999.198 53.35 998.538 52.65C997.898 51.93 996.978 51.57 995.778 51.57C994.598 51.57 993.658 51.94 992.958 52.68C992.258 53.4 991.908 54.39 991.908 55.65V66H989.208V49.5ZM1012.84 66.3C1010.78 66.3 1009.16 65.74 1007.98 64.62C1006.82 63.5 1006.24 61.96 1006.24 60V55.5C1006.24 53.54 1006.82 52 1007.98 50.88C1009.16 49.76 1010.78 49.2 1012.84 49.2C1014.9 49.2 1016.51 49.76 1017.67 50.88C1018.85 52 1019.44 53.54 1019.44 55.5V58.53H1008.94V59.85C1008.94 61.11 1009.28 62.1 1009.96 62.82C1010.66 63.54 1011.62 63.9 1012.84 63.9C1013.74 63.9 1014.52 63.76 1015.18 63.48C1015.84 63.2 1016.33 62.79 1016.65 62.25H1019.35C1019.01 63.51 1018.25 64.5 1017.07 65.22C1015.91 65.94 1014.5 66.3 1012.84 66.3ZM1016.74 56.28V55.5C1016.74 54.26 1016.4 53.3 1015.72 52.62C1015.04 51.94 1014.08 51.6 1012.84 51.6C1011.6 51.6 1010.64 51.94 1009.96 52.62C1009.28 53.3 1008.94 54.26 1008.94 55.5V56.28H1016.74ZM757.1 96.85C757.1 98.11 757.44 99.1 758.12 99.82C758.82 100.54 759.78 100.9 761 100.9C762.2 100.9 763.15 100.54 763.85 99.82C764.55 99.1 764.9 98.11 764.9 96.85V92.65C764.9 91.39 764.55 90.4 763.85 89.68C763.15 88.96 762.2 88.6 761 88.6C759.8 88.6 758.85 88.96 758.15 89.68C757.45 90.4 757.1 91.39 757.1 92.65V96.85ZM754.4 92.65C754.4 91.65 754.55 90.76 754.85 89.98C755.17 89.18 755.61 88.5 756.17 87.94C756.75 87.38 757.44 86.95 758.24 86.65C759.06 86.35 759.98 86.2 761 86.2C763.04 86.2 764.65 86.77 765.83 87.91C767.01 89.05 767.6 90.62 767.6 92.62V96.85C767.6 97.85 767.45 98.75 767.15 99.55C766.85 100.35 766.41 101.03 765.83 101.59C765.27 102.13 764.58 102.55 763.76 102.85C762.94 103.15 762.02 103.3 761 103.3C759.98 103.3 759.06 103.15 758.24 102.85C757.44 102.55 756.75 102.12 756.17 101.56C755.61 101 755.17 100.32 754.85 99.52C754.55 98.72 754.4 97.83 754.4 96.85V92.65ZM772.628 103V86.5H775.178V89.35H775.418C775.678 88.35 776.198 87.58 776.978 87.04C777.778 86.48 778.768 86.2 779.948 86.2C780.768 86.2 781.508 86.34 782.168 86.62C782.848 86.9 783.418 87.3 783.878 87.82C784.358 88.32 784.728 88.93 784.988 89.65C785.248 90.35 785.378 91.14 785.378 92.02V103H782.678V92.47C782.678 91.21 782.358 90.23 781.718 89.53C781.078 88.83 780.188 88.48 779.048 88.48C777.908 88.48 776.998 88.86 776.318 89.62C775.658 90.36 775.328 91.37 775.328 92.65V103H772.628ZM814.515 103.3C812.775 103.3 811.335 102.91 810.195 102.13C809.075 101.33 808.435 100.27 808.275 98.95H811.125C811.245 99.53 811.615 100 812.235 100.36C812.855 100.72 813.615 100.9 814.515 100.9H815.355C816.435 100.9 817.275 100.68 817.875 100.24C818.475 99.78 818.775 99.17 818.775 98.41C818.775 97.11 817.855 96.32 816.015 96.04L813.525 95.68C811.905 95.44 810.695 94.93 809.895 94.15C809.095 93.37 808.695 92.28 808.695 90.88C808.695 89.4 809.215 88.25 810.255 87.43C811.315 86.61 812.785 86.2 814.665 86.2H815.505C816.305 86.2 817.045 86.3 817.725 86.5C818.405 86.7 819.005 86.99 819.525 87.37C820.045 87.73 820.465 88.17 820.785 88.69C821.125 89.19 821.345 89.75 821.445 90.37H818.595C818.475 89.85 818.135 89.43 817.575 89.11C817.015 88.77 816.325 88.6 815.505 88.6H814.665C813.645 88.6 812.845 88.8 812.265 89.2C811.705 89.6 811.425 90.2 811.425 91C811.425 91.64 811.615 92.13 811.995 92.47C812.395 92.79 813.035 93.01 813.915 93.13L816.405 93.49C818.185 93.75 819.475 94.27 820.275 95.05C821.095 95.83 821.505 96.94 821.505 98.38C821.505 99.92 820.965 101.13 819.885 102.01C818.825 102.87 817.315 103.3 815.355 103.3H814.515ZM825.753 86.5H830.553V81.4H833.253V86.5H839.703V88.96H833.253V98.74C833.253 99.3 833.423 99.74 833.763 100.06C834.123 100.38 834.603 100.54 835.203 100.54H839.403V103H835.203C833.783 103 832.653 102.61 831.813 101.83C830.973 101.05 830.553 100.02 830.553 98.74V88.96H825.753V86.5ZM850.941 103.3C848.881 103.3 847.261 102.74 846.081 101.62C844.921 100.5 844.341 98.96 844.341 97V92.5C844.341 90.54 844.921 89 846.081 87.88C847.261 86.76 848.881 86.2 850.941 86.2C853.001 86.2 854.611 86.76 855.771 87.88C856.951 89 857.541 90.54 857.541 92.5V95.53H847.041V96.85C847.041 98.11 847.381 99.1 848.061 99.82C848.761 100.54 849.721 100.9 850.941 100.9C851.841 100.9 852.621 100.76 853.281 100.48C853.941 100.2 854.431 99.79 854.751 99.25H857.451C857.111 100.51 856.351 101.5 855.171 102.22C854.011 102.94 852.601 103.3 850.941 103.3ZM854.841 93.28V92.5C854.841 91.26 854.501 90.3 853.821 89.62C853.141 88.94 852.181 88.6 850.941 88.6C849.701 88.6 848.741 88.94 848.061 89.62C847.381 90.3 847.041 91.26 847.041 92.5V93.28H854.841ZM868.93 103.3C866.87 103.3 865.25 102.74 864.07 101.62C862.91 100.5 862.33 98.96 862.33 97V92.5C862.33 90.54 862.91 89 864.07 87.88C865.25 86.76 866.87 86.2 868.93 86.2C870.99 86.2 872.6 86.76 873.76 87.88C874.94 89 875.53 90.54 875.53 92.5V95.53H865.03V96.85C865.03 98.11 865.37 99.1 866.05 99.82C866.75 100.54 867.71 100.9 868.93 100.9C869.83 100.9 870.61 100.76 871.27 100.48C871.93 100.2 872.42 99.79 872.74 99.25H875.44C875.1 100.51 874.34 101.5 873.16 102.22C872 102.94 870.59 103.3 868.93 103.3ZM872.83 93.28V92.5C872.83 91.26 872.49 90.3 871.81 89.62C871.13 88.94 870.17 88.6 868.93 88.6C867.69 88.6 866.73 88.94 866.05 89.62C865.37 90.3 865.03 91.26 865.03 92.5V93.28H872.83ZM883.108 86.5V89.35H883.348C883.608 88.35 884.138 87.58 884.938 87.04C885.738 86.48 886.748 86.2 887.968 86.2C888.808 86.2 889.568 86.35 890.248 86.65C890.928 86.95 891.508 87.38 891.988 87.94C892.468 88.48 892.838 89.15 893.098 89.95C893.378 90.75 893.518 91.65 893.518 92.65V96.85C893.518 97.85 893.378 98.75 893.098 99.55C892.838 100.35 892.468 101.03 891.988 101.59C891.508 102.13 890.928 102.55 890.248 102.85C889.568 103.15 888.808 103.3 887.968 103.3C886.748 103.3 885.738 103.03 884.938 102.49C884.138 101.93 883.608 101.15 883.348 100.15H883.108C883.128 100.49 883.158 100.83 883.198 101.17C883.218 101.47 883.228 101.78 883.228 102.1C883.248 102.42 883.258 102.72 883.258 103V107.95H880.558V86.5H883.108ZM883.258 96.85C883.258 98.11 883.588 99.11 884.248 99.85C884.928 100.59 885.828 100.96 886.948 100.96C888.148 100.96 889.088 100.59 889.768 99.85C890.468 99.11 890.818 98.11 890.818 96.85V92.65C890.818 91.35 890.478 90.34 889.798 89.62C889.118 88.9 888.168 88.54 886.948 88.54C885.828 88.54 884.928 88.91 884.248 89.65C883.588 90.39 883.258 91.39 883.258 92.65V96.85ZM917.255 86.5H919.805V89.35H920.045C920.305 88.37 920.845 87.6 921.665 87.04C922.485 86.48 923.495 86.2 924.695 86.2C926.435 86.2 927.795 86.75 928.775 87.85C929.775 88.93 930.275 90.42 930.275 92.32V93.25H927.575V92.65C927.575 91.35 927.245 90.35 926.585 89.65C925.945 88.93 925.025 88.57 923.825 88.57C922.645 88.57 921.705 88.94 921.005 89.68C920.305 90.4 919.955 91.39 919.955 92.65V103H917.255V86.5ZM940.883 103.3C938.823 103.3 937.203 102.74 936.023 101.62C934.863 100.5 934.283 98.96 934.283 97V92.5C934.283 90.54 934.863 89 936.023 87.88C937.203 86.76 938.823 86.2 940.883 86.2C942.943 86.2 944.553 86.76 945.713 87.88C946.893 89 947.483 90.54 947.483 92.5V95.53H936.983V96.85C936.983 98.11 937.323 99.1 938.003 99.82C938.703 100.54 939.663 100.9 940.883 100.9C941.783 100.9 942.563 100.76 943.223 100.48C943.883 100.2 944.373 99.79 944.693 99.25H947.393C947.053 100.51 946.293 101.5 945.113 102.22C943.953 102.94 942.543 103.3 940.883 103.3ZM944.783 93.28V92.5C944.783 91.26 944.443 90.3 943.763 89.62C943.083 88.94 942.123 88.6 940.883 88.6C939.643 88.6 938.683 88.94 938.003 89.62C937.323 90.3 936.983 91.26 936.983 92.5V93.28H944.783ZM952.061 92.5C952.061 91.54 952.191 90.67 952.451 89.89C952.711 89.11 953.081 88.45 953.561 87.91C954.061 87.37 954.661 86.95 955.361 86.65C956.061 86.35 956.841 86.2 957.701 86.2C958.901 86.2 959.921 86.49 960.761 87.07C961.601 87.63 962.171 88.44 962.471 89.5H962.681V86.5H965.231V101.8C965.231 103.74 964.661 105.25 963.521 106.33C962.381 107.41 960.781 107.95 958.721 107.95H954.671V105.49H958.721C959.921 105.49 960.851 105.17 961.511 104.53C962.191 103.89 962.531 102.98 962.531 101.8V101.2L962.651 98.2H962.471C962.171 99.26 961.601 100.08 960.761 100.66C959.921 101.22 958.901 101.5 957.701 101.5C956.841 101.5 956.061 101.35 955.361 101.05C954.681 100.75 954.091 100.33 953.591 99.79C953.111 99.25 952.731 98.59 952.451 97.81C952.191 97.03 952.061 96.16 952.061 95.2V92.5ZM954.821 95.2C954.821 96.44 955.161 97.41 955.841 98.11C956.541 98.81 957.491 99.16 958.691 99.16C959.891 99.16 960.831 98.81 961.511 98.11C962.191 97.41 962.531 96.44 962.531 95.2V92.5C962.531 91.26 962.191 90.29 961.511 89.59C960.831 88.89 959.891 88.54 958.691 88.54C957.491 88.54 956.541 88.89 955.841 89.59C955.161 90.29 954.821 91.26 954.821 92.5V95.2ZM970.709 103V100.54H976.709V88.96H971.459V86.5H979.409V100.54H984.359V103H970.709ZM977.309 80.05H977.909C978.489 80.05 978.959 80.22 979.319 80.56C979.679 80.9 979.859 81.34 979.859 81.88C979.859 82.42 979.679 82.85 979.319 83.17C978.959 83.49 978.489 83.65 977.909 83.65H977.309C976.729 83.65 976.259 83.5 975.899 83.2C975.539 82.88 975.359 82.44 975.359 81.88C975.359 81.34 975.539 80.9 975.899 80.56C976.259 80.22 976.729 80.05 977.309 80.05ZM990.948 96.85C990.948 98.11 991.288 99.1 991.968 99.82C992.668 100.54 993.628 100.9 994.848 100.9C996.048 100.9 996.998 100.54 997.698 99.82C998.398 99.1 998.748 98.11 998.748 96.85V92.65C998.748 91.39 998.398 90.4 997.698 89.68C996.998 88.96 996.048 88.6 994.848 88.6C993.648 88.6 992.698 88.96 991.998 89.68C991.298 90.4 990.948 91.39 990.948 92.65V96.85ZM988.248 92.65C988.248 91.65 988.398 90.76 988.698 89.98C989.018 89.18 989.458 88.5 990.018 87.94C990.598 87.38 991.288 86.95 992.088 86.65C992.908 86.35 993.828 86.2 994.848 86.2C996.888 86.2 998.498 86.77 999.678 87.91C1000.86 89.05 1001.45 90.62 1001.45 92.62V96.85C1001.45 97.85 1001.3 98.75 1001 99.55C1000.7 100.35 1000.26 101.03 999.678 101.59C999.118 102.13 998.428 102.55 997.608 102.85C996.788 103.15 995.868 103.3 994.848 103.3C993.828 103.3 992.908 103.15 992.088 102.85C991.288 102.55 990.598 102.12 990.018 101.56C989.458 101 989.018 100.32 988.698 99.52C988.398 98.72 988.248 97.83 988.248 96.85V92.65ZM1006.48 103V86.5H1009.03V89.35H1009.27C1009.53 88.35 1010.05 87.58 1010.83 87.04C1011.63 86.48 1012.62 86.2 1013.8 86.2C1014.62 86.2 1015.36 86.34 1016.02 86.62C1016.7 86.9 1017.27 87.3 1017.73 87.82C1018.21 88.32 1018.58 88.93 1018.84 89.65C1019.1 90.35 1019.23 91.14 1019.23 92.02V103H1016.53V92.47C1016.53 91.21 1016.21 90.23 1015.57 89.53C1014.93 88.83 1014.04 88.48 1012.9 88.48C1011.76 88.48 1010.85 88.86 1010.17 89.62C1009.51 90.36 1009.18 91.37 1009.18 92.65V103H1006.48ZM1030.37 103.3C1028.63 103.3 1027.19 102.91 1026.05 102.13C1024.93 101.33 1024.29 100.27 1024.13 98.95H1026.98C1027.1 99.53 1027.47 100 1028.09 100.36C1028.71 100.72 1029.47 100.9 1030.37 100.9H1031.21C1032.29 100.9 1033.13 100.68 1033.73 100.24C1034.33 99.78 1034.63 99.17 1034.63 98.41C1034.63 97.11 1033.71 96.32 1031.87 96.04L1029.38 95.68C1027.76 95.44 1026.55 94.93 1025.75 94.15C1024.95 93.37 1024.55 92.28 1024.55 90.88C1024.55 89.4 1025.07 88.25 1026.11 87.43C1027.17 86.61 1028.64 86.2 1030.52 86.2H1031.36C1032.16 86.2 1032.9 86.3 1033.58 86.5C1034.26 86.7 1034.86 86.99 1035.38 87.37C1035.9 87.73 1036.32 88.17 1036.64 88.69C1036.98 89.19 1037.2 89.75 1037.3 90.37H1034.45C1034.33 89.85 1033.99 89.43 1033.43 89.11C1032.87 88.77 1032.18 88.6 1031.36 88.6H1030.52C1029.5 88.6 1028.7 88.8 1028.12 89.2C1027.56 89.6 1027.28 90.2 1027.28 91C1027.28 91.64 1027.47 92.13 1027.85 92.47C1028.25 92.79 1028.89 93.01 1029.77 93.13L1032.26 93.49C1034.04 93.75 1035.33 94.27 1036.13 95.05C1036.95 95.83 1037.36 96.94 1037.36 98.38C1037.36 99.92 1036.82 101.13 1035.74 102.01C1034.68 102.87 1033.17 103.3 1031.21 103.3H1030.37Z" fill="black"/>
<defs>
<filter id="filter0_f_118_1269" x="517" y="55" width="61" height="24" filterUnits="userSpaceOnUse" color-interpolation-filters="sRGB">
<feFlood flood-opacity="0" result="BackgroundImageFix"/>
<feBlend mode="normal" in="SourceGraphic" in2="BackgroundImageFix" result="shape"/>
<feGaussianBlur stdDeviation="4" result="effect1_foregroundBlur_118_1269"/>
</filter>
<filter id="filter1_f_118_1269" x="508" y="95" width="61" height="24" filterUnits="userSpaceOnUse" color-interpolation-filters="sRGB">
<feFlood flood-opacity="0" result="BackgroundImageFix"/>
<feBlend mode="normal" in="SourceGraphic" in2="BackgroundImageFix" result="shape"/>
<feGaussianBlur stdDeviation="4" result="effect1_foregroundBlur_118_1269"/>
</filter>
<filter id="filter2_f_118_1269" x="524" y="75" width="69" height="26" filterUnits="userSpaceOnUse" color-interpolation-filters="sRGB">
<feFlood flood-opacity="0" result="BackgroundImageFix"/>
<feBlend mode="normal" in="SourceGraphic" in2="BackgroundImageFix" result="shape"/>
<feGaussianBlur stdDeviation="4" result="effect1_foregroundBlur_118_1269"/>
</filter>
<linearGradient id="paint0_linear_118_1269" x1="514" y1="-7" x2="514" y2="400" gradientUnits="userSpaceOnUse">
<stop offset="0.505945" stop-color="#694F0A"/>
<stop offset="0.623182" stop-color="#56CC52"/>
<stop offset="0.819453" stop-color="#F6D379"/>
<stop offset="1" stop-color="#6D4545"/>
</linearGradient>
</defs>
</svg>
