<svg width="1380" height="481" viewBox="0 0 1380 481" fill="none" xmlns="http://www.w3.org/2000/svg">
<line x1="769.196" y1="245.01" x2="1063.2" y2="274.01" stroke="#474747" stroke-width="4" stroke-dasharray="6 6"/>
<path d="M715 339.567C736 316.234 792.2 269.567 849 269.567C920 269.567 959 313.067 1021.5 315.567C1084 318.067 1129 42.0671 1229 47.0671C1309 51.0671 1361.33 243.734 1377.5 339.567" stroke="#33CE26" stroke-width="4" stroke-dasharray="8 8"/>
<line x1="58.9777" y1="247.702" x2="72.9777" y2="340.702" stroke="#4675D0" stroke-width="4" stroke-dasharray="6 6"/>
<line x1="188.999" y1="259.931" x2="191.999" y2="346.931" stroke="#4675D0" stroke-width="4" stroke-dasharray="6 6"/>
<path d="M72.238 251.884L150.937 258.769" stroke="#4675D0" stroke-width="6"/>
<path d="M149.841 248.352C149.908 247.589 150.774 247.181 151.405 247.616L169.369 260.011C170.008 260.452 169.923 261.42 169.218 261.743L149.374 270.83C148.677 271.149 147.895 270.598 147.962 269.834L149.841 248.352Z" fill="#4675D0"/>
<path d="M201.679 266.214L249.496 270.398" stroke="#4675D0" stroke-width="6"/>
<path d="M248.4 259.981C248.467 259.217 249.333 258.81 249.964 259.245L267.928 271.64C268.566 272.081 268.482 273.049 267.776 273.372L247.933 282.459C247.236 282.778 246.453 282.226 246.52 281.463L248.4 259.981Z" fill="#4675D0"/>
<path d="M296.133 276.954L362.878 282.794" stroke="#4675D0" stroke-width="6"/>
<path d="M361.782 272.377C361.849 271.613 362.715 271.205 363.346 271.641L381.31 284.035C381.949 284.476 381.864 285.445 381.158 285.768L361.315 294.854C360.618 295.174 359.836 294.622 359.903 293.858L361.782 272.377Z" fill="#4675D0"/>
<circle cx="59" cy="247" r="14" fill="#F2F2F2" stroke="#474747" stroke-width="6"/>
<path d="M14.2152 192.1C16.0952 192.1 17.6052 192.62 18.7452 193.66C19.9052 194.68 20.5952 196.11 20.8152 197.95H18.1152C17.9952 196.87 17.5852 196.03 16.8852 195.43C16.2052 194.81 15.3152 194.5 14.2152 194.5C13.0152 194.5 12.0652 194.86 11.3652 195.58C10.6652 196.3 10.3152 197.29 10.3152 198.55V207.85C10.3152 209.11 10.6552 210.1 11.3352 210.82C12.0352 211.54 12.9952 211.9 14.2152 211.9C15.3152 211.9 16.2052 211.6 16.8852 211C17.5852 210.38 17.9952 209.53 18.1152 208.45H20.8152C20.5952 210.29 19.9052 211.73 18.7452 212.77C17.6052 213.79 16.0952 214.3 14.2152 214.3C13.1952 214.3 12.2752 214.15 11.4552 213.85C10.6552 213.55 9.96516 213.12 9.38516 212.56C8.82516 212 8.38516 211.32 8.06516 210.52C7.76516 209.72 7.61516 208.83 7.61516 207.85V198.55C7.61516 197.57 7.76516 196.68 8.06516 195.88C8.38516 195.08 8.82516 194.4 9.38516 193.84C9.96516 193.28 10.6552 192.85 11.4552 192.55C12.2752 192.25 13.1952 192.1 14.2152 192.1ZM24.9134 209.2C24.9134 208.42 25.0434 207.72 25.3034 207.1C25.5834 206.46 25.9734 205.92 26.4734 205.48C26.9934 205.04 27.6134 204.7 28.3334 204.46C29.0534 204.22 29.8634 204.1 30.7634 204.1H35.6834V202.75C35.6834 201.73 35.3434 200.94 34.6634 200.38C34.0034 199.8 33.0434 199.51 31.7834 199.51C30.8634 199.51 30.0734 199.68 29.4134 200.02C28.7734 200.36 28.3434 200.83 28.1234 201.43H25.4234C25.7034 200.13 26.4134 199.1 27.5534 198.34C28.7134 197.58 30.1434 197.2 31.8434 197.2C33.8834 197.2 35.4834 197.68 36.6434 198.64C37.8034 199.58 38.3834 200.9 38.3834 202.6V214H35.9234V210.85H35.6834C35.4234 211.91 34.8134 212.75 33.8534 213.37C32.8934 213.99 31.7234 214.3 30.3434 214.3C28.6834 214.3 27.3634 213.84 26.3834 212.92C25.4034 212 24.9134 210.76 24.9134 209.2ZM30.9434 212.08C31.6234 212.08 32.2534 211.99 32.8334 211.81C33.4134 211.63 33.9134 211.38 34.3334 211.06C34.7534 210.72 35.0834 210.33 35.3234 209.89C35.5634 209.45 35.6834 208.97 35.6834 208.45V206.2H30.8234C29.8234 206.2 29.0334 206.46 28.4534 206.98C27.8934 207.5 27.6134 208.22 27.6134 209.14C27.6134 210.06 27.9034 210.78 28.4834 211.3C29.0634 211.82 29.8834 212.08 30.9434 212.08ZM42.8717 197.5H45.0017V199.93H45.2117C45.2917 199.05 45.5717 198.38 46.0517 197.92C46.5317 197.44 47.1717 197.2 47.9717 197.2C48.7717 197.2 49.4317 197.44 49.9517 197.92C50.4717 198.38 50.8317 199.05 51.0317 199.93H51.1817C51.2617 199.05 51.5417 198.38 52.0217 197.92C52.5017 197.44 53.1417 197.2 53.9417 197.2C54.9617 197.2 55.7517 197.58 56.3117 198.34C56.8717 199.08 57.1517 200.11 57.1517 201.43V214H54.8117V201.43C54.8117 200.73 54.6517 200.2 54.3317 199.84C54.0317 199.46 53.5917 199.27 53.0117 199.27C51.7917 199.27 51.1817 200.04 51.1817 201.58V214H48.8417V201.43C48.8417 200.85 48.7017 200.35 48.4217 199.93C48.1617 199.49 47.7017 199.27 47.0417 199.27C46.4417 199.27 45.9717 199.49 45.6317 199.93C45.3517 200.33 45.2117 200.88 45.2117 201.58V214H42.8717V197.5ZM68 214.3C65.94 214.3 64.32 213.74 63.14 212.62C61.98 211.5 61.4 209.96 61.4 208V203.5C61.4 201.54 61.98 200 63.14 198.88C64.32 197.76 65.94 197.2 68 197.2C70.06 197.2 71.67 197.76 72.83 198.88C74.01 200 74.6 201.54 74.6 203.5V206.53H64.1V207.85C64.1 209.11 64.44 210.1 65.12 210.82C65.82 211.54 66.78 211.9 68 211.9C68.9 211.9 69.68 211.76 70.34 211.48C71 211.2 71.49 210.79 71.81 210.25H74.51C74.17 211.51 73.41 212.5 72.23 213.22C71.07 213.94 69.66 214.3 68 214.3ZM71.9 204.28V203.5C71.9 202.26 71.56 201.3 70.88 200.62C70.2 199.94 69.24 199.6 68 199.6C66.76 199.6 65.8 199.94 65.12 200.62C64.44 201.3 64.1 202.26 64.1 203.5V204.28H71.9ZM80.3483 197.5H82.8983V200.35H83.1383C83.3983 199.37 83.9383 198.6 84.7583 198.04C85.5783 197.48 86.5883 197.2 87.7883 197.2C89.5283 197.2 90.8883 197.75 91.8683 198.85C92.8683 199.93 93.3683 201.42 93.3683 203.32V204.25H90.6683V203.65C90.6683 202.35 90.3383 201.35 89.6783 200.65C89.0383 199.93 88.1183 199.57 86.9183 199.57C85.7383 199.57 84.7983 199.94 84.0983 200.68C83.3983 201.4 83.0483 202.39 83.0483 203.65V214H80.3483V197.5ZM96.8666 209.2C96.8666 208.42 96.9966 207.72 97.2566 207.1C97.5366 206.46 97.9266 205.92 98.4266 205.48C98.9466 205.04 99.5666 204.7 100.287 204.46C101.007 204.22 101.817 204.1 102.717 204.1H107.637V202.75C107.637 201.73 107.297 200.94 106.617 200.38C105.957 199.8 104.997 199.51 103.737 199.51C102.817 199.51 102.027 199.68 101.367 200.02C100.727 200.36 100.297 200.83 100.077 201.43H97.3766C97.6566 200.13 98.3666 199.1 99.5066 198.34C100.667 197.58 102.097 197.2 103.797 197.2C105.837 197.2 107.437 197.68 108.597 198.64C109.757 199.58 110.337 200.9 110.337 202.6V214H107.877V210.85H107.637C107.377 211.91 106.767 212.75 105.807 213.37C104.847 213.99 103.677 214.3 102.297 214.3C100.637 214.3 99.3166 213.84 98.3366 212.92C97.3566 212 96.8666 210.76 96.8666 209.2ZM102.897 212.08C103.577 212.08 104.207 211.99 104.787 211.81C105.367 211.63 105.867 211.38 106.287 211.06C106.707 210.72 107.037 210.33 107.277 209.89C107.517 209.45 107.637 208.97 107.637 208.45V206.2H102.777C101.777 206.2 100.987 206.46 100.407 206.98C99.8466 207.5 99.5666 208.22 99.5666 209.14C99.5666 210.06 99.8566 210.78 100.437 211.3C101.017 211.82 101.837 212.08 102.897 212.08Z" fill="black"/>
<circle cx="769" cy="247" r="14" fill="#F2F2F2" stroke="#474747" stroke-width="6"/>
<path d="M724.215 192.1C726.095 192.1 727.605 192.62 728.745 193.66C729.905 194.68 730.595 196.11 730.815 197.95H728.115C727.995 196.87 727.585 196.03 726.885 195.43C726.205 194.81 725.315 194.5 724.215 194.5C723.015 194.5 722.065 194.86 721.365 195.58C720.665 196.3 720.315 197.29 720.315 198.55V207.85C720.315 209.11 720.655 210.1 721.335 210.82C722.035 211.54 722.995 211.9 724.215 211.9C725.315 211.9 726.205 211.6 726.885 211C727.585 210.38 727.995 209.53 728.115 208.45H730.815C730.595 210.29 729.905 211.73 728.745 212.77C727.605 213.79 726.095 214.3 724.215 214.3C723.195 214.3 722.275 214.15 721.455 213.85C720.655 213.55 719.965 213.12 719.385 212.56C718.825 212 718.385 211.32 718.065 210.52C717.765 209.72 717.615 208.83 717.615 207.85V198.55C717.615 197.57 717.765 196.68 718.065 195.88C718.385 195.08 718.825 194.4 719.385 193.84C719.965 193.28 720.655 192.85 721.455 192.55C722.275 192.25 723.195 192.1 724.215 192.1ZM734.913 209.2C734.913 208.42 735.043 207.72 735.303 207.1C735.583 206.46 735.973 205.92 736.473 205.48C736.993 205.04 737.613 204.7 738.333 204.46C739.053 204.22 739.863 204.1 740.763 204.1H745.683V202.75C745.683 201.73 745.343 200.94 744.663 200.38C744.003 199.8 743.043 199.51 741.783 199.51C740.863 199.51 740.073 199.68 739.413 200.02C738.773 200.36 738.343 200.83 738.123 201.43H735.423C735.703 200.13 736.413 199.1 737.553 198.34C738.713 197.58 740.143 197.2 741.843 197.2C743.883 197.2 745.483 197.68 746.643 198.64C747.803 199.58 748.383 200.9 748.383 202.6V214H745.923V210.85H745.683C745.423 211.91 744.813 212.75 743.853 213.37C742.893 213.99 741.723 214.3 740.343 214.3C738.683 214.3 737.363 213.84 736.383 212.92C735.403 212 734.913 210.76 734.913 209.2ZM740.943 212.08C741.623 212.08 742.253 211.99 742.833 211.81C743.413 211.63 743.913 211.38 744.333 211.06C744.753 210.72 745.083 210.33 745.323 209.89C745.563 209.45 745.683 208.97 745.683 208.45V206.2H740.823C739.823 206.2 739.033 206.46 738.453 206.98C737.893 207.5 737.613 208.22 737.613 209.14C737.613 210.06 737.903 210.78 738.483 211.3C739.063 211.82 739.883 212.08 740.943 212.08ZM752.872 197.5H755.002V199.93H755.212C755.292 199.05 755.572 198.38 756.052 197.92C756.532 197.44 757.172 197.2 757.972 197.2C758.772 197.2 759.432 197.44 759.952 197.92C760.472 198.38 760.832 199.05 761.032 199.93H761.182C761.262 199.05 761.542 198.38 762.022 197.92C762.502 197.44 763.142 197.2 763.942 197.2C764.962 197.2 765.752 197.58 766.312 198.34C766.872 199.08 767.152 200.11 767.152 201.43V214H764.812V201.43C764.812 200.73 764.652 200.2 764.332 199.84C764.032 199.46 763.592 199.27 763.012 199.27C761.792 199.27 761.182 200.04 761.182 201.58V214H758.842V201.43C758.842 200.85 758.702 200.35 758.422 199.93C758.162 199.49 757.702 199.27 757.042 199.27C756.442 199.27 755.972 199.49 755.632 199.93C755.352 200.33 755.212 200.88 755.212 201.58V214H752.872V197.5ZM778 214.3C775.94 214.3 774.32 213.74 773.14 212.62C771.98 211.5 771.4 209.96 771.4 208V203.5C771.4 201.54 771.98 200 773.14 198.88C774.32 197.76 775.94 197.2 778 197.2C780.06 197.2 781.67 197.76 782.83 198.88C784.01 200 784.6 201.54 784.6 203.5V206.53H774.1V207.85C774.1 209.11 774.44 210.1 775.12 210.82C775.82 211.54 776.78 211.9 778 211.9C778.9 211.9 779.68 211.76 780.34 211.48C781 211.2 781.49 210.79 781.81 210.25H784.51C784.17 211.51 783.41 212.5 782.23 213.22C781.07 213.94 779.66 214.3 778 214.3ZM781.9 204.28V203.5C781.9 202.26 781.56 201.3 780.88 200.62C780.2 199.94 779.24 199.6 778 199.6C776.76 199.6 775.8 199.94 775.12 200.62C774.44 201.3 774.1 202.26 774.1 203.5V204.28H781.9ZM790.348 197.5H792.898V200.35H793.138C793.398 199.37 793.938 198.6 794.758 198.04C795.578 197.48 796.588 197.2 797.788 197.2C799.528 197.2 800.888 197.75 801.868 198.85C802.868 199.93 803.368 201.42 803.368 203.32V204.25H800.668V203.65C800.668 202.35 800.338 201.35 799.678 200.65C799.038 199.93 798.118 199.57 796.918 199.57C795.738 199.57 794.798 199.94 794.098 200.68C793.398 201.4 793.048 202.39 793.048 203.65V214H790.348V197.5ZM806.867 209.2C806.867 208.42 806.997 207.72 807.257 207.1C807.537 206.46 807.927 205.92 808.427 205.48C808.947 205.04 809.567 204.7 810.287 204.46C811.007 204.22 811.817 204.1 812.717 204.1H817.637V202.75C817.637 201.73 817.297 200.94 816.617 200.38C815.957 199.8 814.997 199.51 813.737 199.51C812.817 199.51 812.027 199.68 811.367 200.02C810.727 200.36 810.297 200.83 810.077 201.43H807.377C807.657 200.13 808.367 199.1 809.507 198.34C810.667 197.58 812.097 197.2 813.797 197.2C815.837 197.2 817.437 197.68 818.597 198.64C819.757 199.58 820.337 200.9 820.337 202.6V214H817.877V210.85H817.637C817.377 211.91 816.767 212.75 815.807 213.37C814.847 213.99 813.677 214.3 812.297 214.3C810.637 214.3 809.317 213.84 808.337 212.92C807.357 212 806.867 210.76 806.867 209.2ZM812.897 212.08C813.577 212.08 814.207 211.99 814.787 211.81C815.367 211.63 815.867 211.38 816.287 211.06C816.707 210.72 817.037 210.33 817.277 209.89C817.517 209.45 817.637 208.97 817.637 208.45V206.2H812.777C811.777 206.2 810.987 206.46 810.407 206.98C809.847 207.5 809.567 208.22 809.567 209.14C809.567 210.06 809.857 210.78 810.437 211.3C811.017 211.82 811.837 212.08 812.897 212.08Z" fill="black"/>
<circle cx="189" cy="263" r="14" fill="#F2F2F2" stroke="#474747" stroke-width="6"/>
<path d="M181.002 208.4C181.982 208.4 182.872 208.55 183.672 208.85C184.472 209.15 185.152 209.58 185.712 210.14C186.292 210.7 186.732 211.37 187.032 212.15C187.352 212.91 187.512 213.76 187.512 214.7C187.512 215.64 187.352 216.5 187.032 217.28C186.712 218.04 186.262 218.7 185.682 219.26C185.122 219.82 184.442 220.25 183.642 220.55C182.842 220.85 181.962 221 181.002 221H176.412V230H173.712V208.4H181.002ZM176.412 210.8V218.6H181.002C182.122 218.6 183.022 218.25 183.702 217.55C184.382 216.83 184.722 215.88 184.722 214.7C184.722 213.52 184.382 212.58 183.702 211.88C183.022 211.16 182.122 210.8 181.002 210.8H176.412ZM191.7 227.6H197.49V212.45C197.49 212.29 197.49 212.11 197.49 211.91C197.51 211.69 197.52 211.49 197.52 211.31C197.52 211.13 197.52 210.98 197.52 210.86C197.54 210.72 197.55 210.65 197.55 210.65H197.49C197.35 210.77 197.21 210.88 197.07 210.98C196.95 211.08 196.82 211.18 196.68 211.28C196.56 211.38 196.44 211.47 196.32 211.55L192.09 214.43V211.7L196.74 208.4H200.19V227.6H205.05V230H191.7V227.6Z" fill="black"/>
<circle cx="287.315" cy="274.77" r="14" fill="#F2F2F2" stroke="#474747" stroke-width="6"/>
<path d="M279.317 220.17C280.297 220.17 281.187 220.32 281.987 220.62C282.787 220.92 283.467 221.35 284.027 221.91C284.607 222.47 285.047 223.14 285.347 223.92C285.667 224.68 285.827 225.53 285.827 226.47C285.827 227.41 285.667 228.27 285.347 229.05C285.027 229.81 284.577 230.47 283.997 231.03C283.437 231.59 282.757 232.02 281.957 232.32C281.157 232.62 280.277 232.77 279.317 232.77H274.727V241.77H272.027V220.17H279.317ZM274.727 222.57V230.37H279.317C280.437 230.37 281.337 230.02 282.017 229.32C282.697 228.6 283.037 227.65 283.037 226.47C283.037 225.29 282.697 224.35 282.017 223.65C281.337 222.93 280.437 222.57 279.317 222.57H274.727ZM302.705 225.87C302.705 227.49 302.255 229.06 301.355 230.58C300.475 232.08 299.065 233.67 297.125 235.35L293.495 238.5C293.395 238.58 293.285 238.66 293.165 238.74C293.045 238.82 292.925 238.9 292.805 238.98C292.645 239.08 292.495 239.17 292.355 239.25V239.37C292.675 239.35 292.985 239.34 293.285 239.34C293.565 239.32 293.845 239.31 294.125 239.31C294.425 239.31 294.695 239.31 294.935 239.31H302.915V241.77H289.415V238.77L295.115 233.88C295.975 233.14 296.705 232.44 297.305 231.78C297.925 231.12 298.425 230.47 298.805 229.83C299.185 229.19 299.465 228.55 299.645 227.91C299.825 227.27 299.915 226.6 299.915 225.9C299.915 224.78 299.575 223.9 298.895 223.26C298.235 222.6 297.335 222.27 296.195 222.27C294.935 222.27 293.925 222.6 293.165 223.26C292.425 223.92 292.055 224.79 292.055 225.87H289.265C289.305 224.97 289.495 224.15 289.835 223.41C290.175 222.67 290.645 222.04 291.245 221.52C291.865 221 292.585 220.6 293.405 220.32C294.245 220.02 295.175 219.87 296.195 219.87C297.195 219.87 298.095 220.01 298.895 220.29C299.695 220.57 300.375 220.97 300.935 221.49C301.495 222.01 301.925 222.64 302.225 223.38C302.545 224.12 302.705 224.95 302.705 225.87Z" fill="black"/>
<ellipse cx="132.5" cy="361.5" rx="18.5" ry="44.5" fill="#33CE26"/>
<ellipse cx="842.5" cy="361.5" rx="18.5" ry="44.5" fill="#33CE26"/>
<ellipse cx="192.5" cy="369.5" rx="18.5" ry="44.5" fill="#33CE26"/>
<ellipse cx="902.5" cy="369.5" rx="18.5" ry="44.5" fill="#33CE26"/>
<ellipse cx="72.5" cy="380.5" rx="18.5" ry="44.5" fill="#33CE26"/>
<ellipse cx="782.5" cy="380.5" rx="18.5" ry="44.5" fill="#33CE26"/>
<ellipse cx="255.5" cy="406.5" rx="18.5" ry="44.5" fill="#33CE26"/>
<ellipse cx="965.5" cy="406.5" rx="18.5" ry="44.5" fill="#33CE26"/>
<ellipse cx="343.5" cy="406.5" rx="18.5" ry="44.5" fill="#33CE26"/>
<ellipse cx="1053.5" cy="406.5" rx="18.5" ry="44.5" fill="#33CE26"/>
<ellipse cx="400.5" cy="296.5" rx="18.5" ry="44.5" fill="#33CE26"/>
<ellipse cx="1110.5" cy="296.5" rx="18.5" ry="44.5" fill="#33CE26"/>
<ellipse cx="441.5" cy="195.5" rx="18.5" ry="44.5" fill="#33CE26"/>
<ellipse cx="1151.5" cy="195.5" rx="18.5" ry="44.5" fill="#33CE26"/>
<ellipse cx="512.5" cy="141.5" rx="18.5" ry="44.5" fill="#33CE26"/>
<ellipse cx="1222.5" cy="141.5" rx="18.5" ry="44.5" fill="#33CE26"/>
<ellipse cx="560.5" cy="159.5" rx="18.5" ry="44.5" fill="#33CE26"/>
<ellipse cx="1270.5" cy="159.5" rx="18.5" ry="44.5" fill="#33CE26"/>
<ellipse cx="602.5" cy="217.5" rx="18.5" ry="44.5" fill="#33CE26"/>
<ellipse cx="1312.5" cy="217.5" rx="18.5" ry="44.5" fill="#33CE26"/>
<ellipse cx="634.5" cy="296.5" rx="18.5" ry="44.5" fill="#33CE26"/>
<ellipse cx="1344.5" cy="296.5" rx="18.5" ry="44.5" fill="#33CE26"/>
<path d="M139 408.567C82.2 408.567 26 455.234 5 478.567H667.5C651.333 382.734 599 190.067 519 186.067C419 181.067 374 457.067 311.5 454.567C249 452.067 210 408.567 139 408.567Z" fill="#F2F2F2" stroke="#474747" stroke-width="4"/>
<path d="M849 408.567C792.2 408.567 736 455.234 715 478.567H1377.5C1361.33 382.734 1309 190.067 1229 186.067C1129 181.067 1084 457.067 1021.5 454.567C959 452.067 920 408.567 849 408.567Z" fill="#F2F2F2" stroke="#474747" stroke-width="4"/>
<path d="M1063 276V173" stroke="black" stroke-width="2" stroke-linecap="round"/>
<path d="M1078.37 277.012L1088.33 277.883" stroke="#4675D0" stroke-width="6"/>
<path d="M1087.24 267.467C1087.3 266.703 1088.17 266.295 1088.8 266.731L1106.77 279.125C1107.4 279.566 1107.32 280.534 1106.61 280.858L1086.77 289.944C1086.07 290.264 1085.29 289.712 1085.36 288.948L1087.24 267.467Z" fill="#4675D0"/>
<circle cx="1063" cy="275" r="14" fill="#F2F2F2" stroke="#474747" stroke-width="6"/>
<path d="M876.696 124.63V107.77H871.926V105.4H884.226V107.77H879.456V124.63H884.226V127H871.926V124.63H876.696ZM889.704 127V110.5H892.254V113.35H892.494C892.754 112.35 893.274 111.58 894.054 111.04C894.854 110.48 895.844 110.2 897.024 110.2C897.844 110.2 898.584 110.34 899.244 110.62C899.924 110.9 900.494 111.3 900.954 111.82C901.434 112.32 901.804 112.93 902.064 113.65C902.324 114.35 902.454 115.14 902.454 116.02V127H899.754V116.47C899.754 115.21 899.434 114.23 898.794 113.53C898.154 112.83 897.264 112.48 896.124 112.48C894.984 112.48 894.074 112.86 893.394 113.62C892.734 114.36 892.404 115.37 892.404 116.65V127H889.704ZM906.853 110.5H911.653V105.4H914.353V110.5H920.803V112.96H914.353V122.74C914.353 123.3 914.523 123.74 914.863 124.06C915.223 124.38 915.703 124.54 916.303 124.54H920.503V127H916.303C914.883 127 913.753 126.61 912.913 125.83C912.073 125.05 911.653 124.02 911.653 122.74V112.96H906.853V110.5ZM932.041 127.3C929.981 127.3 928.361 126.74 927.181 125.62C926.021 124.5 925.441 122.96 925.441 121V116.5C925.441 114.54 926.021 113 927.181 111.88C928.361 110.76 929.981 110.2 932.041 110.2C934.101 110.2 935.711 110.76 936.871 111.88C938.051 113 938.641 114.54 938.641 116.5V119.53H928.141V120.85C928.141 122.11 928.481 123.1 929.161 123.82C929.861 124.54 930.821 124.9 932.041 124.9C932.941 124.9 933.721 124.76 934.381 124.48C935.041 124.2 935.531 123.79 935.851 123.25H938.551C938.211 124.51 937.451 125.5 936.271 126.22C935.111 126.94 933.701 127.3 932.041 127.3ZM935.941 117.28V116.5C935.941 115.26 935.601 114.3 934.921 113.62C934.241 112.94 933.281 112.6 932.041 112.6C930.801 112.6 929.841 112.94 929.161 113.62C928.481 114.3 928.141 115.26 928.141 116.5V117.28H935.941ZM944.389 110.5H946.939V113.35H947.179C947.439 112.37 947.979 111.6 948.799 111.04C949.619 110.48 950.629 110.2 951.829 110.2C953.569 110.2 954.929 110.75 955.909 111.85C956.909 112.93 957.409 114.42 957.409 116.32V117.25H954.709V116.65C954.709 115.35 954.379 114.35 953.719 113.65C953.079 112.93 952.159 112.57 950.959 112.57C949.779 112.57 948.839 112.94 948.139 113.68C947.439 114.4 947.089 115.39 947.089 116.65V127H944.389V110.5ZM967.568 127.3C965.828 127.3 964.388 126.91 963.248 126.13C962.128 125.33 961.488 124.27 961.328 122.95H964.178C964.298 123.53 964.668 124 965.288 124.36C965.908 124.72 966.668 124.9 967.568 124.9H968.408C969.488 124.9 970.328 124.68 970.928 124.24C971.528 123.78 971.828 123.17 971.828 122.41C971.828 121.11 970.908 120.32 969.068 120.04L966.578 119.68C964.958 119.44 963.748 118.93 962.948 118.15C962.148 117.37 961.748 116.28 961.748 114.88C961.748 113.4 962.268 112.25 963.308 111.43C964.368 110.61 965.838 110.2 967.718 110.2H968.558C969.358 110.2 970.098 110.3 970.778 110.5C971.458 110.7 972.058 110.99 972.578 111.37C973.098 111.73 973.518 112.17 973.838 112.69C974.178 113.19 974.398 113.75 974.498 114.37H971.648C971.528 113.85 971.188 113.43 970.628 113.11C970.068 112.77 969.378 112.6 968.558 112.6H967.718C966.698 112.6 965.898 112.8 965.318 113.2C964.758 113.6 964.478 114.2 964.478 115C964.478 115.64 964.668 116.13 965.048 116.47C965.448 116.79 966.088 117.01 966.968 117.13L969.458 117.49C971.238 117.75 972.528 118.27 973.328 119.05C974.148 119.83 974.558 120.94 974.558 122.38C974.558 123.92 974.018 125.13 972.938 126.01C971.878 126.87 970.368 127.3 968.408 127.3H967.568ZM986.006 127.3C983.946 127.3 982.326 126.74 981.146 125.62C979.986 124.5 979.406 122.96 979.406 121V116.5C979.406 114.54 979.986 113 981.146 111.88C982.326 110.76 983.946 110.2 986.006 110.2C988.066 110.2 989.676 110.76 990.836 111.88C992.016 113 992.606 114.54 992.606 116.5V119.53H982.106V120.85C982.106 122.11 982.446 123.1 983.126 123.82C983.826 124.54 984.786 124.9 986.006 124.9C986.906 124.9 987.686 124.76 988.346 124.48C989.006 124.2 989.496 123.79 989.816 123.25H992.516C992.176 124.51 991.416 125.5 990.236 126.22C989.076 126.94 987.666 127.3 986.006 127.3ZM989.906 117.28V116.5C989.906 115.26 989.566 114.3 988.886 113.62C988.206 112.94 987.246 112.6 986.006 112.6C984.766 112.6 983.806 112.94 983.126 113.62C982.446 114.3 982.106 115.26 982.106 116.5V117.28H989.906ZM1004.23 127.3C1003.21 127.3 1002.29 127.15 1001.47 126.85C1000.67 126.55 999.984 126.12 999.404 125.56C998.844 125 998.404 124.32 998.084 123.52C997.784 122.72 997.634 121.83 997.634 120.85V116.65C997.634 115.67 997.784 114.78 998.084 113.98C998.404 113.18 998.844 112.5 999.404 111.94C999.984 111.38 1000.67 110.95 1001.47 110.65C1002.29 110.35 1003.21 110.2 1004.23 110.2C1006.05 110.2 1007.54 110.7 1008.7 111.7C1009.88 112.68 1010.59 114.03 1010.83 115.75H1008.13C1007.99 114.79 1007.56 114.03 1006.84 113.47C1006.14 112.89 1005.27 112.6 1004.23 112.6C1003.03 112.6 1002.08 112.96 1001.38 113.68C1000.68 114.4 1000.33 115.39 1000.33 116.65V120.85C1000.33 122.11 1000.67 123.1 1001.35 123.82C1002.05 124.54 1003.01 124.9 1004.23 124.9C1005.27 124.9 1006.14 124.62 1006.84 124.06C1007.56 123.48 1007.99 122.71 1008.13 121.75H1010.83C1010.57 123.49 1009.85 124.85 1008.67 125.83C1007.51 126.81 1006.03 127.3 1004.23 127.3ZM1014.78 110.5H1019.58V105.4H1022.28V110.5H1028.73V112.96H1022.28V122.74C1022.28 123.3 1022.45 123.74 1022.79 124.06C1023.15 124.38 1023.63 124.54 1024.23 124.54H1028.43V127H1024.23C1022.81 127 1021.68 126.61 1020.84 125.83C1020 125.05 1019.58 124.02 1019.58 122.74V112.96H1014.78V110.5ZM1033.82 127V124.54H1039.82V112.96H1034.57V110.5H1042.52V124.54H1047.47V127H1033.82ZM1040.42 104.05H1041.02C1041.6 104.05 1042.07 104.22 1042.43 104.56C1042.79 104.9 1042.97 105.34 1042.97 105.88C1042.97 106.42 1042.79 106.85 1042.43 107.17C1042.07 107.49 1041.6 107.65 1041.02 107.65H1040.42C1039.84 107.65 1039.37 107.5 1039.01 107.2C1038.65 106.88 1038.47 106.44 1038.47 105.88C1038.47 105.34 1038.65 104.9 1039.01 104.56C1039.37 104.22 1039.84 104.05 1040.42 104.05ZM1054.06 120.85C1054.06 122.11 1054.4 123.1 1055.08 123.82C1055.78 124.54 1056.74 124.9 1057.96 124.9C1059.16 124.9 1060.11 124.54 1060.81 123.82C1061.51 123.1 1061.86 122.11 1061.86 120.85V116.65C1061.86 115.39 1061.51 114.4 1060.81 113.68C1060.11 112.96 1059.16 112.6 1057.96 112.6C1056.76 112.6 1055.81 112.96 1055.11 113.68C1054.41 114.4 1054.06 115.39 1054.06 116.65V120.85ZM1051.36 116.65C1051.36 115.65 1051.51 114.76 1051.81 113.98C1052.13 113.18 1052.57 112.5 1053.13 111.94C1053.71 111.38 1054.4 110.95 1055.2 110.65C1056.02 110.35 1056.94 110.2 1057.96 110.2C1060 110.2 1061.61 110.77 1062.79 111.91C1063.97 113.05 1064.56 114.62 1064.56 116.62V120.85C1064.56 121.85 1064.41 122.75 1064.11 123.55C1063.81 124.35 1063.37 125.03 1062.79 125.59C1062.23 126.13 1061.54 126.55 1060.72 126.85C1059.9 127.15 1058.98 127.3 1057.96 127.3C1056.94 127.3 1056.02 127.15 1055.2 126.85C1054.4 126.55 1053.71 126.12 1053.13 125.56C1052.57 125 1052.13 124.32 1051.81 123.52C1051.51 122.72 1051.36 121.83 1051.36 120.85V116.65ZM1069.59 127V110.5H1072.14V113.35H1072.38C1072.64 112.35 1073.16 111.58 1073.94 111.04C1074.74 110.48 1075.73 110.2 1076.91 110.2C1077.73 110.2 1078.47 110.34 1079.13 110.62C1079.81 110.9 1080.38 111.3 1080.84 111.82C1081.32 112.32 1081.69 112.93 1081.95 113.65C1082.21 114.35 1082.34 115.14 1082.34 116.02V127H1079.64V116.47C1079.64 115.21 1079.32 114.23 1078.68 113.53C1078.04 112.83 1077.15 112.48 1076.01 112.48C1074.87 112.48 1073.96 112.86 1073.28 113.62C1072.62 114.36 1072.29 115.37 1072.29 116.65V127H1069.59ZM887.964 147.5H890.214L891.654 158.81C891.694 159.11 891.734 159.47 891.774 159.89C891.814 160.31 891.854 160.72 891.894 161.12C891.954 161.6 892.004 162.08 892.044 162.56H892.344C892.404 162.06 892.464 161.58 892.524 161.12C892.584 160.72 892.644 160.31 892.704 159.89C892.764 159.45 892.814 159.09 892.854 158.81L894.564 147.5H897.534L899.214 158.81C899.254 159.11 899.304 159.48 899.364 159.92C899.424 160.34 899.484 160.75 899.544 161.15C899.604 161.61 899.664 162.08 899.724 162.56H900.054C900.114 162.08 900.174 161.6 900.234 161.12C900.274 160.72 900.314 160.31 900.354 159.89C900.414 159.47 900.464 159.11 900.504 158.81L901.974 147.5H904.164L901.824 164H898.164L896.424 152.33C896.384 151.99 896.344 151.64 896.304 151.28C896.284 150.9 896.264 150.55 896.244 150.23C896.224 149.87 896.214 149.51 896.214 149.15H895.914C895.894 149.51 895.874 149.87 895.854 150.23C895.834 150.55 895.804 150.9 895.764 151.28C895.744 151.64 895.704 151.99 895.644 152.33L893.844 164H890.274L887.964 147.5ZM907.903 164V161.54H913.903V149.96H908.653V147.5H916.603V161.54H921.553V164H907.903ZM914.503 141.05H915.103C915.683 141.05 916.153 141.22 916.513 141.56C916.873 141.9 917.053 142.34 917.053 142.88C917.053 143.42 916.873 143.85 916.513 144.17C916.153 144.49 915.683 144.65 915.103 144.65H914.503C913.923 144.65 913.453 144.5 913.093 144.2C912.733 143.88 912.553 143.44 912.553 142.88C912.553 142.34 912.733 141.9 913.093 141.56C913.453 141.22 913.923 141.05 914.503 141.05ZM924.841 147.5H929.641V142.4H932.341V147.5H938.791V149.96H932.341V159.74C932.341 160.3 932.511 160.74 932.851 161.06C933.211 161.38 933.691 161.54 934.291 161.54H938.491V164H934.291C932.871 164 931.741 163.61 930.901 162.83C930.061 162.05 929.641 161.02 929.641 159.74V149.96H924.841V147.5ZM943.669 142.1H946.369V147.5C946.369 147.78 946.359 148.09 946.339 148.43C946.339 148.75 946.329 149.05 946.309 149.33C946.269 149.67 946.239 150.01 946.219 150.35H946.459C946.719 149.35 947.239 148.58 948.019 148.04C948.819 147.48 949.809 147.2 950.989 147.2C951.809 147.2 952.549 147.34 953.209 147.62C953.889 147.9 954.459 148.3 954.919 148.82C955.399 149.32 955.769 149.93 956.029 150.65C956.289 151.35 956.419 152.14 956.419 153.02V164H953.719V153.47C953.719 152.21 953.399 151.23 952.759 150.53C952.119 149.83 951.229 149.48 950.089 149.48C948.949 149.48 948.039 149.86 947.359 150.62C946.699 151.36 946.369 152.37 946.369 153.65V164H943.669V142.1ZM986.186 142.1C988.066 142.1 989.576 142.62 990.716 143.66C991.876 144.68 992.566 146.11 992.786 147.95H990.086C989.966 146.87 989.556 146.03 988.856 145.43C988.176 144.81 987.286 144.5 986.186 144.5C984.986 144.5 984.036 144.86 983.336 145.58C982.636 146.3 982.286 147.29 982.286 148.55V157.85C982.286 159.11 982.626 160.1 983.306 160.82C984.006 161.54 984.966 161.9 986.186 161.9C987.286 161.9 988.176 161.6 988.856 161C989.556 160.38 989.966 159.53 990.086 158.45H992.786C992.566 160.29 991.876 161.73 990.716 162.77C989.576 163.79 988.066 164.3 986.186 164.3C985.166 164.3 984.246 164.15 983.426 163.85C982.626 163.55 981.936 163.12 981.356 162.56C980.796 162 980.356 161.32 980.036 160.52C979.736 159.72 979.586 158.83 979.586 157.85V148.55C979.586 147.57 979.736 146.68 980.036 145.88C980.356 145.08 980.796 144.4 981.356 143.84C981.936 143.28 982.626 142.85 983.426 142.55C984.246 142.25 985.166 142.1 986.186 142.1ZM996.884 159.2C996.884 158.42 997.014 157.72 997.274 157.1C997.554 156.46 997.944 155.92 998.444 155.48C998.964 155.04 999.584 154.7 1000.3 154.46C1001.02 154.22 1001.83 154.1 1002.73 154.1H1007.65V152.75C1007.65 151.73 1007.31 150.94 1006.63 150.38C1005.97 149.8 1005.01 149.51 1003.75 149.51C1002.83 149.51 1002.04 149.68 1001.38 150.02C1000.74 150.36 1000.31 150.83 1000.09 151.43H997.394C997.674 150.13 998.384 149.1 999.524 148.34C1000.68 147.58 1002.11 147.2 1003.81 147.2C1005.85 147.2 1007.45 147.68 1008.61 148.64C1009.77 149.58 1010.35 150.9 1010.35 152.6V164H1007.89V160.85H1007.65C1007.39 161.91 1006.78 162.75 1005.82 163.37C1004.86 163.99 1003.69 164.3 1002.31 164.3C1000.65 164.3 999.334 163.84 998.354 162.92C997.374 162 996.884 160.76 996.884 159.2ZM1002.91 162.08C1003.59 162.08 1004.22 161.99 1004.8 161.81C1005.38 161.63 1005.88 161.38 1006.3 161.06C1006.72 160.72 1007.05 160.33 1007.29 159.89C1007.53 159.45 1007.65 158.97 1007.65 158.45V156.2H1002.79C1001.79 156.2 1001 156.46 1000.42 156.98C999.864 157.5 999.584 158.22 999.584 159.14C999.584 160.06 999.874 160.78 1000.45 161.3C1001.03 161.82 1001.85 162.08 1002.91 162.08ZM1015.62 164V147.5H1018.17V150.35H1018.41C1018.67 149.35 1019.19 148.58 1019.97 148.04C1020.77 147.48 1021.76 147.2 1022.94 147.2C1023.76 147.2 1024.5 147.34 1025.16 147.62C1025.84 147.9 1026.41 148.3 1026.87 148.82C1027.35 149.32 1027.72 149.93 1027.98 150.65C1028.24 151.35 1028.37 152.14 1028.37 153.02V164H1025.67V153.47C1025.67 152.21 1025.35 151.23 1024.71 150.53C1024.07 149.83 1023.18 149.48 1022.04 149.48C1020.9 149.48 1019.99 149.86 1019.31 150.62C1018.65 151.36 1018.32 152.37 1018.32 153.65V164H1015.62ZM1036.07 157.85C1036.07 159.11 1036.41 160.1 1037.09 160.82C1037.79 161.54 1038.75 161.9 1039.97 161.9C1041.17 161.9 1042.12 161.54 1042.82 160.82C1043.52 160.1 1043.87 159.11 1043.87 157.85V153.65C1043.87 152.39 1043.52 151.4 1042.82 150.68C1042.12 149.96 1041.17 149.6 1039.97 149.6C1038.77 149.6 1037.82 149.96 1037.12 150.68C1036.42 151.4 1036.07 152.39 1036.07 153.65V157.85ZM1033.37 153.65C1033.37 152.65 1033.52 151.76 1033.82 150.98C1034.14 150.18 1034.58 149.5 1035.14 148.94C1035.72 148.38 1036.41 147.95 1037.21 147.65C1038.03 147.35 1038.95 147.2 1039.97 147.2C1042.01 147.2 1043.62 147.77 1044.8 148.91C1045.98 150.05 1046.57 151.62 1046.57 153.62V157.85C1046.57 158.85 1046.42 159.75 1046.12 160.55C1045.82 161.35 1045.38 162.03 1044.8 162.59C1044.24 163.13 1043.55 163.55 1042.73 163.85C1041.91 164.15 1040.99 164.3 1039.97 164.3C1038.95 164.3 1038.03 164.15 1037.21 163.85C1036.41 163.55 1035.72 163.12 1035.14 162.56C1034.58 162 1034.14 161.32 1033.82 160.52C1033.52 159.72 1033.37 158.83 1033.37 157.85V153.65ZM1054.15 147.5V150.35H1054.39C1054.65 149.35 1055.18 148.58 1055.98 148.04C1056.78 147.48 1057.79 147.2 1059.01 147.2C1059.85 147.2 1060.61 147.35 1061.29 147.65C1061.97 147.95 1062.55 148.38 1063.03 148.94C1063.51 149.48 1063.88 150.15 1064.14 150.95C1064.42 151.75 1064.56 152.65 1064.56 153.65V157.85C1064.56 158.85 1064.42 159.75 1064.14 160.55C1063.88 161.35 1063.51 162.03 1063.03 162.59C1062.55 163.13 1061.97 163.55 1061.29 163.85C1060.61 164.15 1059.85 164.3 1059.01 164.3C1057.79 164.3 1056.78 164.03 1055.98 163.49C1055.18 162.93 1054.65 162.15 1054.39 161.15H1054.15C1054.17 161.49 1054.2 161.83 1054.24 162.17C1054.26 162.47 1054.27 162.78 1054.27 163.1C1054.29 163.42 1054.3 163.72 1054.3 164V168.95H1051.6V147.5H1054.15ZM1054.3 157.85C1054.3 159.11 1054.63 160.11 1055.29 160.85C1055.97 161.59 1056.87 161.96 1057.99 161.96C1059.19 161.96 1060.13 161.59 1060.81 160.85C1061.51 160.11 1061.86 159.11 1061.86 157.85V153.65C1061.86 152.35 1061.52 151.34 1060.84 150.62C1060.16 149.9 1059.21 149.54 1057.99 149.54C1056.87 149.54 1055.97 149.91 1055.29 150.65C1054.63 151.39 1054.3 152.39 1054.3 153.65V157.85ZM1071.45 147.5L1075.23 156.98C1075.41 157.44 1075.55 157.87 1075.65 158.27C1075.77 158.67 1075.86 159.02 1075.92 159.32C1076 159.7 1076.05 160.04 1076.07 160.34H1076.28C1076.3 160.04 1076.35 159.71 1076.43 159.35C1076.49 159.03 1076.57 158.67 1076.67 158.27C1076.77 157.87 1076.9 157.44 1077.06 156.98L1080.54 147.5H1083.45L1075.44 168.95H1072.56L1074.84 162.8L1068.45 147.5H1071.45Z" fill="black"/>
<path d="M1179.22 8.1C1181.1 8.1 1182.61 8.62 1183.75 9.66C1184.91 10.68 1185.6 12.11 1185.82 13.95H1183.12C1183 12.87 1182.59 12.03 1181.89 11.43C1181.21 10.81 1180.32 10.5 1179.22 10.5C1178.02 10.5 1177.07 10.86 1176.37 11.58C1175.67 12.3 1175.32 13.29 1175.32 14.55V23.85C1175.32 25.11 1175.66 26.1 1176.34 26.82C1177.04 27.54 1178 27.9 1179.22 27.9C1180.32 27.9 1181.21 27.6 1181.89 27C1182.59 26.38 1183 25.53 1183.12 24.45H1185.82C1185.6 26.29 1184.91 27.73 1183.75 28.77C1182.61 29.79 1181.1 30.3 1179.22 30.3C1178.2 30.3 1177.28 30.15 1176.46 29.85C1175.66 29.55 1174.97 29.12 1174.39 28.56C1173.83 28 1173.39 27.32 1173.07 26.52C1172.77 25.72 1172.62 24.83 1172.62 23.85V14.55C1172.62 13.57 1172.77 12.68 1173.07 11.88C1173.39 11.08 1173.83 10.4 1174.39 9.84C1174.97 9.28 1175.66 8.85 1176.46 8.55C1177.28 8.25 1178.2 8.1 1179.22 8.1ZM1189.91 25.2C1189.91 24.42 1190.04 23.72 1190.3 23.1C1190.58 22.46 1190.97 21.92 1191.47 21.48C1191.99 21.04 1192.61 20.7 1193.33 20.46C1194.05 20.22 1194.86 20.1 1195.76 20.1H1200.68V18.75C1200.68 17.73 1200.34 16.94 1199.66 16.38C1199 15.8 1198.04 15.51 1196.78 15.51C1195.86 15.51 1195.07 15.68 1194.41 16.02C1193.77 16.36 1193.34 16.83 1193.12 17.43H1190.42C1190.7 16.13 1191.41 15.1 1192.55 14.34C1193.71 13.58 1195.14 13.2 1196.84 13.2C1198.88 13.2 1200.48 13.68 1201.64 14.64C1202.8 15.58 1203.38 16.9 1203.38 18.6V30H1200.92V26.85H1200.68C1200.42 27.91 1199.81 28.75 1198.85 29.37C1197.89 29.99 1196.72 30.3 1195.34 30.3C1193.68 30.3 1192.36 29.84 1191.38 28.92C1190.4 28 1189.91 26.76 1189.91 25.2ZM1195.94 28.08C1196.62 28.08 1197.25 27.99 1197.83 27.81C1198.41 27.63 1198.91 27.38 1199.33 27.06C1199.75 26.72 1200.08 26.33 1200.32 25.89C1200.56 25.45 1200.68 24.97 1200.68 24.45V22.2H1195.82C1194.82 22.2 1194.03 22.46 1193.45 22.98C1192.89 23.5 1192.61 24.22 1192.61 25.14C1192.61 26.06 1192.9 26.78 1193.48 27.3C1194.06 27.82 1194.88 28.08 1195.94 28.08ZM1208.65 30V13.5H1211.2V16.35H1211.44C1211.7 15.35 1212.22 14.58 1213 14.04C1213.8 13.48 1214.79 13.2 1215.97 13.2C1216.79 13.2 1217.53 13.34 1218.19 13.62C1218.87 13.9 1219.44 14.3 1219.9 14.82C1220.38 15.32 1220.75 15.93 1221.01 16.65C1221.27 17.35 1221.4 18.14 1221.4 19.02V30H1218.7V19.47C1218.7 18.21 1218.38 17.23 1217.74 16.53C1217.1 15.83 1216.21 15.48 1215.07 15.48C1213.93 15.48 1213.02 15.86 1212.34 16.62C1211.68 17.36 1211.35 18.37 1211.35 19.65V30H1208.65ZM1229.1 23.85C1229.1 25.11 1229.44 26.1 1230.12 26.82C1230.82 27.54 1231.78 27.9 1233 27.9C1234.2 27.9 1235.15 27.54 1235.85 26.82C1236.55 26.1 1236.9 25.11 1236.9 23.85V19.65C1236.9 18.39 1236.55 17.4 1235.85 16.68C1235.15 15.96 1234.2 15.6 1233 15.6C1231.8 15.6 1230.85 15.96 1230.15 16.68C1229.45 17.4 1229.1 18.39 1229.1 19.65V23.85ZM1226.4 19.65C1226.4 18.65 1226.55 17.76 1226.85 16.98C1227.17 16.18 1227.61 15.5 1228.17 14.94C1228.75 14.38 1229.44 13.95 1230.24 13.65C1231.06 13.35 1231.98 13.2 1233 13.2C1235.04 13.2 1236.65 13.77 1237.83 14.91C1239.01 16.05 1239.6 17.62 1239.6 19.62V23.85C1239.6 24.85 1239.45 25.75 1239.15 26.55C1238.85 27.35 1238.41 28.03 1237.83 28.59C1237.27 29.13 1236.58 29.55 1235.76 29.85C1234.94 30.15 1234.02 30.3 1233 30.3C1231.98 30.3 1231.06 30.15 1230.24 29.85C1229.44 29.55 1228.75 29.12 1228.17 28.56C1227.61 28 1227.17 27.32 1226.85 26.52C1226.55 25.72 1226.4 24.83 1226.4 23.85V19.65ZM1247.18 13.5V16.35H1247.42C1247.68 15.35 1248.21 14.58 1249.01 14.04C1249.81 13.48 1250.82 13.2 1252.04 13.2C1252.88 13.2 1253.64 13.35 1254.32 13.65C1255 13.95 1255.58 14.38 1256.06 14.94C1256.54 15.48 1256.91 16.15 1257.17 16.95C1257.45 17.75 1257.59 18.65 1257.59 19.65V23.85C1257.59 24.85 1257.45 25.75 1257.17 26.55C1256.91 27.35 1256.54 28.03 1256.06 28.59C1255.58 29.13 1255 29.55 1254.32 29.85C1253.64 30.15 1252.88 30.3 1252.04 30.3C1250.82 30.3 1249.81 30.03 1249.01 29.49C1248.21 28.93 1247.68 28.15 1247.42 27.15H1247.18C1247.2 27.49 1247.23 27.83 1247.27 28.17C1247.29 28.47 1247.3 28.78 1247.3 29.1C1247.32 29.42 1247.33 29.72 1247.33 30V34.95H1244.63V13.5H1247.18ZM1247.33 23.85C1247.33 25.11 1247.66 26.11 1248.32 26.85C1249 27.59 1249.9 27.96 1251.02 27.96C1252.22 27.96 1253.16 27.59 1253.84 26.85C1254.54 26.11 1254.89 25.11 1254.89 23.85V19.65C1254.89 18.35 1254.55 17.34 1253.87 16.62C1253.19 15.9 1252.24 15.54 1251.02 15.54C1249.9 15.54 1249 15.91 1248.32 16.65C1247.66 17.39 1247.33 18.39 1247.33 19.65V23.85ZM1264.48 13.5L1268.26 22.98C1268.44 23.44 1268.58 23.87 1268.68 24.27C1268.8 24.67 1268.89 25.02 1268.95 25.32C1269.03 25.7 1269.08 26.04 1269.1 26.34H1269.31C1269.33 26.04 1269.38 25.71 1269.46 25.35C1269.52 25.03 1269.6 24.67 1269.7 24.27C1269.8 23.87 1269.93 23.44 1270.09 22.98L1273.57 13.5H1276.48L1268.47 34.95H1265.59L1267.87 28.8L1261.48 13.5H1264.48Z" fill="#33CE26"/>
</svg>
