<svg width="2038" height="400" viewBox="0 0 2038 400" fill="none" xmlns="http://www.w3.org/2000/svg">
<path d="M15.3734 94.4H30.6734V96.77H24.4034V116H21.6434V96.77H15.3734V94.4ZM35.3717 99.5H37.9217V102.35H38.1617C38.4217 101.37 38.9617 100.6 39.7817 100.04C40.6017 99.48 41.6117 99.2 42.8117 99.2C44.5517 99.2 45.9117 99.75 46.8917 100.85C47.8917 101.93 48.3917 103.42 48.3917 105.32V106.25H45.6917V105.65C45.6917 104.35 45.3617 103.35 44.7017 102.65C44.0617 101.93 43.1417 101.57 41.9417 101.57C40.7617 101.57 39.8217 101.94 39.1217 102.68C38.4217 103.4 38.0717 104.39 38.0717 105.65V116H35.3717V99.5ZM59 116.3C56.94 116.3 55.32 115.74 54.14 114.62C52.98 113.5 52.4 111.96 52.4 110V105.5C52.4 103.54 52.98 102 54.14 100.88C55.32 99.76 56.94 99.2 59 99.2C61.06 99.2 62.67 99.76 63.83 100.88C65.01 102 65.6 103.54 65.6 105.5V108.53H55.1V109.85C55.1 111.11 55.44 112.1 56.12 112.82C56.82 113.54 57.78 113.9 59 113.9C59.9 113.9 60.68 113.76 61.34 113.48C62 113.2 62.49 112.79 62.81 112.25H65.51C65.17 113.51 64.41 114.5 63.23 115.22C62.07 115.94 60.66 116.3 59 116.3ZM62.9 106.28V105.5C62.9 104.26 62.56 103.3 61.88 102.62C61.2 101.94 60.24 101.6 59 101.6C57.76 101.6 56.8 101.94 56.12 102.62C55.44 103.3 55.1 104.26 55.1 105.5V106.28H62.9ZM76.9883 116.3C74.9283 116.3 73.3083 115.74 72.1283 114.62C70.9683 113.5 70.3883 111.96 70.3883 110V105.5C70.3883 103.54 70.9683 102 72.1283 100.88C73.3083 99.76 74.9283 99.2 76.9883 99.2C79.0483 99.2 80.6583 99.76 81.8183 100.88C82.9983 102 83.5883 103.54 83.5883 105.5V108.53H73.0883V109.85C73.0883 111.11 73.4283 112.1 74.1083 112.82C74.8083 113.54 75.7683 113.9 76.9883 113.9C77.8883 113.9 78.6683 113.76 79.3283 113.48C79.9883 113.2 80.4783 112.79 80.7983 112.25H83.4983C83.1583 113.51 82.3983 114.5 81.2183 115.22C80.0583 115.94 78.6483 116.3 76.9883 116.3ZM80.8883 106.28V105.5C80.8883 104.26 80.5483 103.3 79.8683 102.62C79.1883 101.94 78.2283 101.6 76.9883 101.6C75.7483 101.6 74.7883 101.94 74.1083 102.62C73.4283 103.3 73.0883 104.26 73.0883 105.5V106.28H80.8883Z" fill="black"/>
<circle cx="50" cy="196" r="50" fill="#33CE26"/>
<path d="M100 200H326" stroke="#474747" stroke-width="6"/>
<path d="M324 189.718C324 188.952 324.827 188.47 325.494 188.849L344.47 199.631C345.144 200.014 345.144 200.986 344.47 201.369L325.494 212.151C324.827 212.53 324 212.048 324 211.282V189.718Z" fill="#474747"/>
<path d="M746 200H972" stroke="#474747" stroke-width="6"/>
<path d="M970 189.718C970 188.952 970.827 188.47 971.494 188.849L990.47 199.631C991.144 200.014 991.144 200.986 990.47 201.369L971.494 212.151C970.827 212.53 970 212.048 970 211.282V189.718Z" fill="#474747"/>
<path d="M1392 200H1618" stroke="#474747" stroke-width="6"/>
<path d="M1616 189.718C1616 188.952 1616.83 188.47 1617.49 188.849L1636.47 199.631C1637.14 200.014 1637.14 200.986 1636.47 201.369L1617.49 212.151C1616.83 212.53 1616 212.048 1616 211.282V189.718Z" fill="#474747"/>
<rect x="113" y="157" width="200" height="86" rx="12" fill="#F2F2F2" stroke="#474747" stroke-width="4"/>
<path d="M167.705 188.6C168.965 188.6 169.975 188.22 170.735 187.46C171.515 186.68 171.905 185.66 171.905 184.4V175.97C171.905 174.71 171.515 173.7 170.735 172.94C169.975 172.18 168.965 171.8 167.705 171.8H164.375V188.6H167.705ZM161.675 191V169.4H167.705C168.745 169.4 169.685 169.56 170.525 169.88C171.385 170.2 172.115 170.65 172.715 171.23C173.335 171.79 173.805 172.48 174.125 173.3C174.465 174.1 174.635 174.99 174.635 175.97V184.4C174.635 185.38 174.465 186.28 174.125 187.1C173.805 187.92 173.335 188.62 172.715 189.2C172.115 189.76 171.385 190.2 170.525 190.52C169.685 190.84 168.745 191 167.705 191H161.675ZM182.123 184.85C182.123 186.11 182.463 187.1 183.143 187.82C183.843 188.54 184.803 188.9 186.023 188.9C187.223 188.9 188.173 188.54 188.873 187.82C189.573 187.1 189.923 186.11 189.923 184.85V180.65C189.923 179.39 189.573 178.4 188.873 177.68C188.173 176.96 187.223 176.6 186.023 176.6C184.823 176.6 183.873 176.96 183.173 177.68C182.473 178.4 182.123 179.39 182.123 180.65V184.85ZM179.423 180.65C179.423 179.65 179.573 178.76 179.873 177.98C180.193 177.18 180.633 176.5 181.193 175.94C181.773 175.38 182.463 174.95 183.263 174.65C184.083 174.35 185.003 174.2 186.023 174.2C188.063 174.2 189.673 174.77 190.853 175.91C192.033 177.05 192.623 178.62 192.623 180.62V184.85C192.623 185.85 192.473 186.75 192.173 187.55C191.873 188.35 191.433 189.03 190.853 189.59C190.293 190.13 189.603 190.55 188.783 190.85C187.963 191.15 187.043 191.3 186.023 191.3C185.003 191.3 184.083 191.15 183.263 190.85C182.463 190.55 181.773 190.12 181.193 189.56C180.633 189 180.193 188.32 179.873 187.52C179.573 186.72 179.423 185.83 179.423 184.85V180.65ZM196.872 174.5H199.002V176.93H199.212C199.292 176.05 199.572 175.38 200.052 174.92C200.532 174.44 201.172 174.2 201.972 174.2C202.772 174.2 203.432 174.44 203.952 174.92C204.472 175.38 204.832 176.05 205.032 176.93H205.182C205.262 176.05 205.542 175.38 206.022 174.92C206.502 174.44 207.142 174.2 207.942 174.2C208.962 174.2 209.752 174.58 210.312 175.34C210.872 176.08 211.152 177.11 211.152 178.43V191H208.812V178.43C208.812 177.73 208.652 177.2 208.332 176.84C208.032 176.46 207.592 176.27 207.012 176.27C205.792 176.27 205.182 177.04 205.182 178.58V191H202.842V178.43C202.842 177.85 202.702 177.35 202.422 176.93C202.162 176.49 201.702 176.27 201.042 176.27C200.442 176.27 199.972 176.49 199.632 176.93C199.352 177.33 199.212 177.88 199.212 178.58V191H196.872V174.5ZM214.89 186.2C214.89 185.42 215.02 184.72 215.28 184.1C215.56 183.46 215.95 182.92 216.45 182.48C216.97 182.04 217.59 181.7 218.31 181.46C219.03 181.22 219.84 181.1 220.74 181.1H225.66V179.75C225.66 178.73 225.32 177.94 224.64 177.38C223.98 176.8 223.02 176.51 221.76 176.51C220.84 176.51 220.05 176.68 219.39 177.02C218.75 177.36 218.32 177.83 218.1 178.43H215.4C215.68 177.13 216.39 176.1 217.53 175.34C218.69 174.58 220.12 174.2 221.82 174.2C223.86 174.2 225.46 174.68 226.62 175.64C227.78 176.58 228.36 177.9 228.36 179.6V191H225.9V187.85H225.66C225.4 188.91 224.79 189.75 223.83 190.37C222.87 190.99 221.7 191.3 220.32 191.3C218.66 191.3 217.34 190.84 216.36 189.92C215.38 189 214.89 187.76 214.89 186.2ZM220.92 189.08C221.6 189.08 222.23 188.99 222.81 188.81C223.39 188.63 223.89 188.38 224.31 188.06C224.73 187.72 225.06 187.33 225.3 186.89C225.54 186.45 225.66 185.97 225.66 185.45V183.2H220.8C219.8 183.2 219.01 183.46 218.43 183.98C217.87 184.5 217.59 185.22 217.59 186.14C217.59 187.06 217.88 187.78 218.46 188.3C219.04 188.82 219.86 189.08 220.92 189.08ZM233.838 191V188.54H239.838V176.96H234.588V174.5H242.538V188.54H247.488V191H233.838ZM240.438 168.05H241.038C241.618 168.05 242.088 168.22 242.448 168.56C242.808 168.9 242.988 169.34 242.988 169.88C242.988 170.42 242.808 170.85 242.448 171.17C242.088 171.49 241.618 171.65 241.038 171.65H240.438C239.858 171.65 239.388 171.5 239.028 171.2C238.668 170.88 238.488 170.44 238.488 169.88C238.488 169.34 238.668 168.9 239.028 168.56C239.388 168.22 239.858 168.05 240.438 168.05ZM251.617 191V174.5H254.167V177.35H254.407C254.667 176.35 255.187 175.58 255.967 175.04C256.767 174.48 257.757 174.2 258.937 174.2C259.757 174.2 260.497 174.34 261.157 174.62C261.837 174.9 262.407 175.3 262.867 175.82C263.347 176.32 263.717 176.93 263.977 177.65C264.237 178.35 264.367 179.14 264.367 180.02V191H261.667V180.47C261.667 179.21 261.347 178.23 260.707 177.53C260.067 176.83 259.177 176.48 258.037 176.48C256.897 176.48 255.987 176.86 255.307 177.62C254.647 178.36 254.317 179.37 254.317 180.65V191H251.617ZM132.659 206.4C133.639 206.4 134.529 206.55 135.329 206.85C136.129 207.15 136.809 207.58 137.369 208.14C137.949 208.7 138.389 209.37 138.689 210.15C139.009 210.91 139.169 211.76 139.169 212.7C139.169 214.2 138.779 215.48 137.999 216.54C137.239 217.58 136.199 218.3 134.879 218.7L139.469 228H136.289L132.089 219H128.459V228H125.759V206.4H132.659ZM128.459 216.6H132.659C133.799 216.6 134.699 216.25 135.359 215.55C136.039 214.83 136.379 213.88 136.379 212.7C136.379 211.52 136.039 210.58 135.359 209.88C134.679 209.16 133.779 208.8 132.659 208.8H128.459V216.6ZM150.047 228.3C147.987 228.3 146.367 227.74 145.187 226.62C144.027 225.5 143.447 223.96 143.447 222V217.5C143.447 215.54 144.027 214 145.187 212.88C146.367 211.76 147.987 211.2 150.047 211.2C152.107 211.2 153.717 211.76 154.877 212.88C156.057 214 156.647 215.54 156.647 217.5V220.53H146.147V221.85C146.147 223.11 146.487 224.1 147.167 224.82C147.867 225.54 148.827 225.9 150.047 225.9C150.947 225.9 151.727 225.76 152.387 225.48C153.047 225.2 153.537 224.79 153.857 224.25H156.557C156.217 225.51 155.457 226.5 154.277 227.22C153.117 227.94 151.707 228.3 150.047 228.3ZM153.947 218.28V217.5C153.947 216.26 153.607 215.3 152.927 214.62C152.247 213.94 151.287 213.6 150.047 213.6C148.807 213.6 147.847 213.94 147.167 214.62C146.487 215.3 146.147 216.26 146.147 217.5V218.28H153.947ZM164.225 211.5V214.35H164.465C164.725 213.35 165.255 212.58 166.055 212.04C166.855 211.48 167.865 211.2 169.085 211.2C169.925 211.2 170.685 211.35 171.365 211.65C172.045 211.95 172.625 212.38 173.105 212.94C173.585 213.48 173.955 214.15 174.215 214.95C174.495 215.75 174.635 216.65 174.635 217.65V221.85C174.635 222.85 174.495 223.75 174.215 224.55C173.955 225.35 173.585 226.03 173.105 226.59C172.625 227.13 172.045 227.55 171.365 227.85C170.685 228.15 169.925 228.3 169.085 228.3C167.865 228.3 166.855 228.03 166.055 227.49C165.255 226.93 164.725 226.15 164.465 225.15H164.225C164.245 225.49 164.275 225.83 164.315 226.17C164.335 226.47 164.345 226.78 164.345 227.1C164.365 227.42 164.375 227.72 164.375 228V232.95H161.675V211.5H164.225ZM164.375 221.85C164.375 223.11 164.705 224.11 165.365 224.85C166.045 225.59 166.945 225.96 168.065 225.96C169.265 225.96 170.205 225.59 170.885 224.85C171.585 224.11 171.935 223.11 171.935 221.85V217.65C171.935 216.35 171.595 215.34 170.915 214.62C170.235 213.9 169.285 213.54 168.065 213.54C166.945 213.54 166.045 213.91 165.365 214.65C164.705 215.39 164.375 216.39 164.375 217.65V221.85ZM186.023 228.3C183.963 228.3 182.343 227.74 181.163 226.62C180.003 225.5 179.423 223.96 179.423 222V217.5C179.423 215.54 180.003 214 181.163 212.88C182.343 211.76 183.963 211.2 186.023 211.2C188.083 211.2 189.693 211.76 190.853 212.88C192.033 214 192.623 215.54 192.623 217.5V220.53H182.123V221.85C182.123 223.11 182.463 224.1 183.143 224.82C183.843 225.54 184.803 225.9 186.023 225.9C186.923 225.9 187.703 225.76 188.363 225.48C189.023 225.2 189.513 224.79 189.833 224.25H192.533C192.193 225.51 191.433 226.5 190.253 227.22C189.093 227.94 187.683 228.3 186.023 228.3ZM189.923 218.28V217.5C189.923 216.26 189.583 215.3 188.903 214.62C188.223 213.94 187.263 213.6 186.023 213.6C184.783 213.6 183.823 213.94 183.143 214.62C182.463 215.3 182.123 216.26 182.123 217.5V218.28H189.923ZM196.812 211.5H201.612V206.4H204.312V211.5H210.762V213.96H204.312V223.74C204.312 224.3 204.482 224.74 204.822 225.06C205.182 225.38 205.662 225.54 206.262 225.54H210.462V228H206.262C204.842 228 203.712 227.61 202.872 226.83C202.032 226.05 201.612 225.02 201.612 223.74V213.96H196.812V211.5ZM215.85 228V225.54H221.85V213.96H216.6V211.5H224.55V225.54H229.5V228H215.85ZM222.45 205.05H223.05C223.63 205.05 224.1 205.22 224.46 205.56C224.82 205.9 225 206.34 225 206.88C225 207.42 224.82 207.85 224.46 208.17C224.1 208.49 223.63 208.65 223.05 208.65H222.45C221.87 208.65 221.4 208.5 221.04 208.2C220.68 207.88 220.5 207.44 220.5 206.88C220.5 206.34 220.68 205.9 221.04 205.56C221.4 205.22 221.87 205.05 222.45 205.05ZM232.788 211.5H237.588V206.4H240.288V211.5H246.738V213.96H240.288V223.74C240.288 224.3 240.458 224.74 240.798 225.06C241.158 225.38 241.638 225.54 242.238 225.54H246.438V228H242.238C240.818 228 239.688 227.61 238.848 226.83C238.008 226.05 237.588 225.02 237.588 223.74V213.96H232.788V211.5ZM251.827 228V225.54H257.827V213.96H252.577V211.5H260.527V225.54H265.477V228H251.827ZM258.427 205.05H259.027C259.607 205.05 260.077 205.22 260.437 205.56C260.797 205.9 260.977 206.34 260.977 206.88C260.977 207.42 260.797 207.85 260.437 208.17C260.077 208.49 259.607 208.65 259.027 208.65H258.427C257.847 208.65 257.377 208.5 257.017 208.2C256.657 207.88 256.477 207.44 256.477 206.88C256.477 206.34 256.657 205.9 257.017 205.56C257.377 205.22 257.847 205.05 258.427 205.05ZM272.065 221.85C272.065 223.11 272.405 224.1 273.085 224.82C273.785 225.54 274.745 225.9 275.965 225.9C277.165 225.9 278.115 225.54 278.815 224.82C279.515 224.1 279.865 223.11 279.865 221.85V217.65C279.865 216.39 279.515 215.4 278.815 214.68C278.115 213.96 277.165 213.6 275.965 213.6C274.765 213.6 273.815 213.96 273.115 214.68C272.415 215.4 272.065 216.39 272.065 217.65V221.85ZM269.365 217.65C269.365 216.65 269.515 215.76 269.815 214.98C270.135 214.18 270.575 213.5 271.135 212.94C271.715 212.38 272.405 211.95 273.205 211.65C274.025 211.35 274.945 211.2 275.965 211.2C278.005 211.2 279.615 211.77 280.795 212.91C281.975 214.05 282.565 215.62 282.565 217.62V221.85C282.565 222.85 282.415 223.75 282.115 224.55C281.815 225.35 281.375 226.03 280.795 226.59C280.235 227.13 279.545 227.55 278.725 227.85C277.905 228.15 276.985 228.3 275.965 228.3C274.945 228.3 274.025 228.15 273.205 227.85C272.405 227.55 271.715 227.12 271.135 226.56C270.575 226 270.135 225.32 269.815 224.52C269.515 223.72 269.365 222.83 269.365 221.85V217.65ZM287.593 228V211.5H290.143V214.35H290.383C290.643 213.35 291.163 212.58 291.943 212.04C292.743 211.48 293.733 211.2 294.913 211.2C295.733 211.2 296.473 211.34 297.133 211.62C297.813 211.9 298.383 212.3 298.843 212.82C299.323 213.32 299.693 213.93 299.953 214.65C300.213 215.35 300.343 216.14 300.343 217.02V228H297.643V217.47C297.643 216.21 297.323 215.23 296.683 214.53C296.043 213.83 295.153 213.48 294.013 213.48C292.873 213.48 291.963 213.86 291.283 214.62C290.623 215.36 290.293 216.37 290.293 217.65V228H287.593Z" fill="#474747"/>
<rect x="759" y="157" width="200" height="86" rx="12" fill="#F2F2F2" stroke="#474747" stroke-width="4"/>
<path d="M778.659 169.4C779.639 169.4 780.529 169.55 781.329 169.85C782.129 170.15 782.809 170.58 783.369 171.14C783.949 171.7 784.389 172.37 784.689 173.15C785.009 173.91 785.169 174.76 785.169 175.7C785.169 177.2 784.779 178.48 783.999 179.54C783.239 180.58 782.199 181.3 780.879 181.7L785.469 191H782.289L778.089 182H774.459V191H771.759V169.4H778.659ZM774.459 179.6H778.659C779.799 179.6 780.699 179.25 781.359 178.55C782.039 177.83 782.379 176.88 782.379 175.7C782.379 174.52 782.039 173.58 781.359 172.88C780.679 172.16 779.779 171.8 778.659 171.8H774.459V179.6ZM788.937 186.2C788.937 185.42 789.067 184.72 789.327 184.1C789.607 183.46 789.997 182.92 790.497 182.48C791.017 182.04 791.637 181.7 792.357 181.46C793.077 181.22 793.887 181.1 794.787 181.1H799.707V179.75C799.707 178.73 799.367 177.94 798.687 177.38C798.027 176.8 797.067 176.51 795.807 176.51C794.887 176.51 794.097 176.68 793.437 177.02C792.797 177.36 792.367 177.83 792.147 178.43H789.447C789.727 177.13 790.437 176.1 791.577 175.34C792.737 174.58 794.167 174.2 795.867 174.2C797.907 174.2 799.507 174.68 800.667 175.64C801.827 176.58 802.407 177.9 802.407 179.6V191H799.947V187.85H799.707C799.447 188.91 798.837 189.75 797.877 190.37C796.917 190.99 795.747 191.3 794.367 191.3C792.707 191.3 791.387 190.84 790.407 189.92C789.427 189 788.937 187.76 788.937 186.2ZM794.967 189.08C795.647 189.08 796.277 188.99 796.857 188.81C797.437 188.63 797.937 188.38 798.357 188.06C798.777 187.72 799.107 187.33 799.347 186.89C799.587 186.45 799.707 185.97 799.707 185.45V183.2H794.847C793.847 183.2 793.057 183.46 792.477 183.98C791.917 184.5 791.637 185.22 791.637 186.14C791.637 187.06 791.927 187.78 792.507 188.3C793.087 188.82 793.907 189.08 794.967 189.08ZM807.675 191V174.5H810.225V177.35H810.465C810.725 176.35 811.245 175.58 812.025 175.04C812.825 174.48 813.815 174.2 814.995 174.2C815.815 174.2 816.555 174.34 817.215 174.62C817.895 174.9 818.465 175.3 818.925 175.82C819.405 176.32 819.775 176.93 820.035 177.65C820.295 178.35 820.425 179.14 820.425 180.02V191H817.725V180.47C817.725 179.21 817.405 178.23 816.765 177.53C816.125 176.83 815.235 176.48 814.095 176.48C812.955 176.48 812.045 176.86 811.365 177.62C810.705 178.36 810.375 179.37 810.375 180.65V191H807.675ZM825.423 180.65C825.423 179.65 825.553 178.75 825.813 177.95C826.093 177.15 826.473 176.48 826.953 175.94C827.433 175.38 828.013 174.95 828.693 174.65C829.373 174.35 830.133 174.2 830.973 174.2C832.193 174.2 833.203 174.48 834.003 175.04C834.803 175.58 835.333 176.35 835.593 177.35H835.833C835.813 177.01 835.793 176.67 835.773 176.33C835.733 176.03 835.703 175.72 835.683 175.4C835.683 175.06 835.683 174.76 835.683 174.5V169.1H838.383V191H835.833V188.15H835.593C835.333 189.15 834.803 189.93 834.003 190.49C833.203 191.03 832.193 191.3 830.973 191.3C830.133 191.3 829.373 191.15 828.693 190.85C828.013 190.55 827.433 190.13 826.953 189.59C826.473 189.03 826.093 188.35 825.813 187.55C825.553 186.75 825.423 185.85 825.423 184.85V180.65ZM831.993 188.96C833.113 188.96 834.003 188.59 834.663 187.85C835.343 187.11 835.683 186.11 835.683 184.85V180.65C835.683 179.39 835.343 178.39 834.663 177.65C834.003 176.91 833.113 176.54 831.993 176.54C830.773 176.54 829.823 176.9 829.143 177.62C828.463 178.34 828.123 179.35 828.123 180.65V184.85C828.123 186.11 828.463 187.11 829.143 187.85C829.843 188.59 830.793 188.96 831.993 188.96ZM846.112 184.85C846.112 186.11 846.452 187.1 847.132 187.82C847.832 188.54 848.792 188.9 850.012 188.9C851.212 188.9 852.162 188.54 852.862 187.82C853.562 187.1 853.912 186.11 853.912 184.85V180.65C853.912 179.39 853.562 178.4 852.862 177.68C852.162 176.96 851.212 176.6 850.012 176.6C848.812 176.6 847.862 176.96 847.162 177.68C846.462 178.4 846.112 179.39 846.112 180.65V184.85ZM843.412 180.65C843.412 179.65 843.562 178.76 843.862 177.98C844.182 177.18 844.622 176.5 845.182 175.94C845.762 175.38 846.452 174.95 847.252 174.65C848.072 174.35 848.992 174.2 850.012 174.2C852.052 174.2 853.662 174.77 854.842 175.91C856.022 177.05 856.612 178.62 856.612 180.62V184.85C856.612 185.85 856.462 186.75 856.162 187.55C855.862 188.35 855.422 189.03 854.842 189.59C854.282 190.13 853.592 190.55 852.772 190.85C851.952 191.15 851.032 191.3 850.012 191.3C848.992 191.3 848.072 191.15 847.252 190.85C846.452 190.55 845.762 190.12 845.182 189.56C844.622 189 844.182 188.32 843.862 187.52C843.562 186.72 843.412 185.83 843.412 184.85V180.65ZM860.86 174.5H862.99V176.93H863.2C863.28 176.05 863.56 175.38 864.04 174.92C864.52 174.44 865.16 174.2 865.96 174.2C866.76 174.2 867.42 174.44 867.94 174.92C868.46 175.38 868.82 176.05 869.02 176.93H869.17C869.25 176.05 869.53 175.38 870.01 174.92C870.49 174.44 871.13 174.2 871.93 174.2C872.95 174.2 873.74 174.58 874.3 175.34C874.86 176.08 875.14 177.11 875.14 178.43V191H872.8V178.43C872.8 177.73 872.64 177.2 872.32 176.84C872.02 176.46 871.58 176.27 871 176.27C869.78 176.27 869.17 177.04 869.17 178.58V191H866.83V178.43C866.83 177.85 866.69 177.35 866.41 176.93C866.15 176.49 865.69 176.27 865.03 176.27C864.43 176.27 863.96 176.49 863.62 176.93C863.34 177.33 863.2 177.88 863.2 178.58V191H860.86V174.5ZM879.838 191V188.54H885.838V176.96H880.588V174.5H888.538V188.54H893.488V191H879.838ZM886.438 168.05H887.038C887.618 168.05 888.088 168.22 888.448 168.56C888.808 168.9 888.988 169.34 888.988 169.88C888.988 170.42 888.808 170.85 888.448 171.17C888.088 171.49 887.618 171.65 887.038 171.65H886.438C885.858 171.65 885.388 171.5 885.028 171.2C884.668 170.88 884.488 170.44 884.488 169.88C884.488 169.34 884.668 168.9 885.028 168.56C885.388 168.22 885.858 168.05 886.438 168.05ZM897.617 174.5H910.247V177.53L900.077 188.72C900.297 188.7 900.537 188.68 900.797 188.66C901.017 188.64 901.257 188.63 901.517 188.63C901.777 188.61 902.047 188.6 902.327 188.6H910.577V191H897.377V188L907.607 176.81C907.367 176.83 907.107 176.84 906.827 176.84C906.607 176.86 906.347 176.88 906.047 176.9C905.767 176.9 905.487 176.9 905.207 176.9H897.617V174.5ZM921.965 191.3C919.905 191.3 918.285 190.74 917.105 189.62C915.945 188.5 915.365 186.96 915.365 185V180.5C915.365 178.54 915.945 177 917.105 175.88C918.285 174.76 919.905 174.2 921.965 174.2C924.025 174.2 925.635 174.76 926.795 175.88C927.975 177 928.565 178.54 928.565 180.5V183.53H918.065V184.85C918.065 186.11 918.405 187.1 919.085 187.82C919.785 188.54 920.745 188.9 921.965 188.9C922.865 188.9 923.645 188.76 924.305 188.48C924.965 188.2 925.455 187.79 925.775 187.25H928.475C928.135 188.51 927.375 189.5 926.195 190.22C925.035 190.94 923.625 191.3 921.965 191.3ZM925.865 181.28V180.5C925.865 179.26 925.525 178.3 924.845 177.62C924.165 176.94 923.205 176.6 921.965 176.6C920.725 176.6 919.765 176.94 919.085 177.62C918.405 178.3 918.065 179.26 918.065 180.5V181.28H925.865ZM933.353 180.65C933.353 179.65 933.483 178.75 933.743 177.95C934.023 177.15 934.403 176.48 934.883 175.94C935.363 175.38 935.943 174.95 936.623 174.65C937.303 174.35 938.063 174.2 938.903 174.2C940.123 174.2 941.133 174.48 941.933 175.04C942.733 175.58 943.263 176.35 943.523 177.35H943.763C943.743 177.01 943.723 176.67 943.703 176.33C943.663 176.03 943.633 175.72 943.613 175.4C943.613 175.06 943.613 174.76 943.613 174.5V169.1H946.313V191H943.763V188.15H943.523C943.263 189.15 942.733 189.93 941.933 190.49C941.133 191.03 940.123 191.3 938.903 191.3C938.063 191.3 937.303 191.15 936.623 190.85C935.943 190.55 935.363 190.13 934.883 189.59C934.403 189.03 934.023 188.35 933.743 187.55C933.483 186.75 933.353 185.85 933.353 184.85V180.65ZM939.923 188.96C941.043 188.96 941.933 188.59 942.593 187.85C943.273 187.11 943.613 186.11 943.613 184.85V180.65C943.613 179.39 943.273 178.39 942.593 177.65C941.933 176.91 941.043 176.54 939.923 176.54C938.703 176.54 937.753 176.9 937.073 177.62C936.393 178.34 936.053 179.35 936.053 180.65V184.85C936.053 186.11 936.393 187.11 937.073 187.85C937.773 188.59 938.723 188.96 939.923 188.96ZM777.729 225.6C778.989 225.6 779.999 225.22 780.759 224.46C781.539 223.68 781.929 222.66 781.929 221.4V212.97C781.929 211.71 781.539 210.7 780.759 209.94C779.999 209.18 778.989 208.8 777.729 208.8H774.399V225.6H777.729ZM771.699 228V206.4H777.729C778.769 206.4 779.709 206.56 780.549 206.88C781.409 207.2 782.139 207.65 782.739 208.23C783.359 208.79 783.829 209.48 784.149 210.3C784.489 211.1 784.659 211.99 784.659 212.97V221.4C784.659 222.38 784.489 223.28 784.149 224.1C783.829 224.92 783.359 225.62 782.739 226.2C782.139 226.76 781.409 227.2 780.549 227.52C779.709 227.84 778.769 228 777.729 228H771.699ZM789.897 228V225.54H795.897V213.96H790.647V211.5H798.597V225.54H803.547V228H789.897ZM796.497 205.05H797.097C797.677 205.05 798.147 205.22 798.507 205.56C798.867 205.9 799.047 206.34 799.047 206.88C799.047 207.42 798.867 207.85 798.507 208.17C798.147 208.49 797.677 208.65 797.097 208.65H796.497C795.917 208.65 795.447 208.5 795.087 208.2C794.727 207.88 794.547 207.44 794.547 206.88C794.547 206.34 794.727 205.9 795.087 205.56C795.447 205.22 795.917 205.05 796.497 205.05ZM806.895 211.5H809.025V213.93H809.235C809.315 213.05 809.595 212.38 810.075 211.92C810.555 211.44 811.195 211.2 811.995 211.2C812.795 211.2 813.455 211.44 813.975 211.92C814.495 212.38 814.855 213.05 815.055 213.93H815.205C815.285 213.05 815.565 212.38 816.045 211.92C816.525 211.44 817.165 211.2 817.965 211.2C818.985 211.2 819.775 211.58 820.335 212.34C820.895 213.08 821.175 214.11 821.175 215.43V228H818.835V215.43C818.835 214.73 818.675 214.2 818.355 213.84C818.055 213.46 817.615 213.27 817.035 213.27C815.815 213.27 815.205 214.04 815.205 215.58V228H812.865V215.43C812.865 214.85 812.725 214.35 812.445 213.93C812.185 213.49 811.725 213.27 811.065 213.27C810.465 213.27 809.995 213.49 809.655 213.93C809.375 214.33 809.235 214.88 809.235 215.58V228H806.895V211.5ZM832.023 228.3C829.963 228.3 828.343 227.74 827.163 226.62C826.003 225.5 825.423 223.96 825.423 222V217.5C825.423 215.54 826.003 214 827.163 212.88C828.343 211.76 829.963 211.2 832.023 211.2C834.083 211.2 835.693 211.76 836.853 212.88C838.033 214 838.623 215.54 838.623 217.5V220.53H828.123V221.85C828.123 223.11 828.463 224.1 829.143 224.82C829.843 225.54 830.803 225.9 832.023 225.9C832.923 225.9 833.703 225.76 834.363 225.48C835.023 225.2 835.513 224.79 835.833 224.25H838.533C838.193 225.51 837.433 226.5 836.253 227.22C835.093 227.94 833.683 228.3 832.023 228.3ZM835.923 218.28V217.5C835.923 216.26 835.583 215.3 834.903 214.62C834.223 213.94 833.263 213.6 832.023 213.6C830.783 213.6 829.823 213.94 829.143 214.62C828.463 215.3 828.123 216.26 828.123 217.5V218.28H835.923ZM843.652 228V211.5H846.202V214.35H846.442C846.702 213.35 847.222 212.58 848.002 212.04C848.802 211.48 849.792 211.2 850.972 211.2C851.792 211.2 852.532 211.34 853.192 211.62C853.872 211.9 854.442 212.3 854.902 212.82C855.382 213.32 855.752 213.93 856.012 214.65C856.272 215.35 856.402 216.14 856.402 217.02V228H853.702V217.47C853.702 216.21 853.382 215.23 852.742 214.53C852.102 213.83 851.212 213.48 850.072 213.48C848.932 213.48 848.022 213.86 847.342 214.62C846.682 215.36 846.352 216.37 846.352 217.65V228H843.652ZM867.55 228.3C865.81 228.3 864.37 227.91 863.23 227.13C862.11 226.33 861.47 225.27 861.31 223.95H864.16C864.28 224.53 864.65 225 865.27 225.36C865.89 225.72 866.65 225.9 867.55 225.9H868.39C869.47 225.9 870.31 225.68 870.91 225.24C871.51 224.78 871.81 224.17 871.81 223.41C871.81 222.11 870.89 221.32 869.05 221.04L866.56 220.68C864.94 220.44 863.73 219.93 862.93 219.15C862.13 218.37 861.73 217.28 861.73 215.88C861.73 214.4 862.25 213.25 863.29 212.43C864.35 211.61 865.82 211.2 867.7 211.2H868.54C869.34 211.2 870.08 211.3 870.76 211.5C871.44 211.7 872.04 211.99 872.56 212.37C873.08 212.73 873.5 213.17 873.82 213.69C874.16 214.19 874.38 214.75 874.48 215.37H871.63C871.51 214.85 871.17 214.43 870.61 214.11C870.05 213.77 869.36 213.6 868.54 213.6H867.7C866.68 213.6 865.88 213.8 865.3 214.2C864.74 214.6 864.46 215.2 864.46 216C864.46 216.64 864.65 217.13 865.03 217.47C865.43 217.79 866.07 218.01 866.95 218.13L869.44 218.49C871.22 218.75 872.51 219.27 873.31 220.05C874.13 220.83 874.54 221.94 874.54 223.38C874.54 224.92 874 226.13 872.92 227.01C871.86 227.87 870.35 228.3 868.39 228.3H867.55ZM879.838 228V225.54H885.838V213.96H880.588V211.5H888.538V225.54H893.488V228H879.838ZM886.438 205.05H887.038C887.618 205.05 888.088 205.22 888.448 205.56C888.808 205.9 888.988 206.34 888.988 206.88C888.988 207.42 888.808 207.85 888.448 208.17C888.088 208.49 887.618 208.65 887.038 208.65H886.438C885.858 208.65 885.388 208.5 885.028 208.2C884.668 207.88 884.488 207.44 884.488 206.88C884.488 206.34 884.668 205.9 885.028 205.56C885.388 205.22 885.858 205.05 886.438 205.05ZM900.077 221.85C900.077 223.11 900.417 224.1 901.097 224.82C901.797 225.54 902.757 225.9 903.977 225.9C905.177 225.9 906.127 225.54 906.827 224.82C907.527 224.1 907.877 223.11 907.877 221.85V217.65C907.877 216.39 907.527 215.4 906.827 214.68C906.127 213.96 905.177 213.6 903.977 213.6C902.777 213.6 901.827 213.96 901.127 214.68C900.427 215.4 900.077 216.39 900.077 217.65V221.85ZM897.377 217.65C897.377 216.65 897.527 215.76 897.827 214.98C898.147 214.18 898.587 213.5 899.147 212.94C899.727 212.38 900.417 211.95 901.217 211.65C902.037 211.35 902.957 211.2 903.977 211.2C906.017 211.2 907.627 211.77 908.807 212.91C909.987 214.05 910.577 215.62 910.577 217.62V221.85C910.577 222.85 910.427 223.75 910.127 224.55C909.827 225.35 909.387 226.03 908.807 226.59C908.247 227.13 907.557 227.55 906.737 227.85C905.917 228.15 904.997 228.3 903.977 228.3C902.957 228.3 902.037 228.15 901.217 227.85C900.417 227.55 899.727 227.12 899.147 226.56C898.587 226 898.147 225.32 897.827 224.52C897.527 223.72 897.377 222.83 897.377 221.85V217.65ZM915.605 228V211.5H918.155V214.35H918.395C918.655 213.35 919.175 212.58 919.955 212.04C920.755 211.48 921.745 211.2 922.925 211.2C923.745 211.2 924.485 211.34 925.145 211.62C925.825 211.9 926.395 212.3 926.855 212.82C927.335 213.32 927.705 213.93 927.965 214.65C928.225 215.35 928.355 216.14 928.355 217.02V228H925.655V217.47C925.655 216.21 925.335 215.23 924.695 214.53C924.055 213.83 923.165 213.48 922.025 213.48C920.885 213.48 919.975 213.86 919.295 214.62C918.635 215.36 918.305 216.37 918.305 217.65V228H915.605ZM939.503 228.3C937.763 228.3 936.323 227.91 935.183 227.13C934.063 226.33 933.423 225.27 933.263 223.95H936.113C936.233 224.53 936.603 225 937.223 225.36C937.843 225.72 938.603 225.9 939.503 225.9H940.343C941.423 225.9 942.263 225.68 942.863 225.24C943.463 224.78 943.763 224.17 943.763 223.41C943.763 222.11 942.843 221.32 941.003 221.04L938.513 220.68C936.893 220.44 935.683 219.93 934.883 219.15C934.083 218.37 933.683 217.28 933.683 215.88C933.683 214.4 934.203 213.25 935.243 212.43C936.303 211.61 937.773 211.2 939.653 211.2H940.493C941.293 211.2 942.033 211.3 942.713 211.5C943.393 211.7 943.993 211.99 944.513 212.37C945.033 212.73 945.453 213.17 945.773 213.69C946.113 214.19 946.333 214.75 946.433 215.37H943.583C943.463 214.85 943.123 214.43 942.563 214.11C942.003 213.77 941.313 213.6 940.493 213.6H939.653C938.633 213.6 937.833 213.8 937.253 214.2C936.693 214.6 936.413 215.2 936.413 216C936.413 216.64 936.603 217.13 936.983 217.47C937.383 217.79 938.023 218.01 938.903 218.13L941.393 218.49C943.173 218.75 944.463 219.27 945.263 220.05C946.083 220.83 946.493 221.94 946.493 223.38C946.493 224.92 945.953 226.13 944.873 227.01C943.813 227.87 942.303 228.3 940.343 228.3H939.503Z" fill="#474747"/>
<rect x="1405" y="157" width="200" height="86" rx="12" fill="#F2F2F2" stroke="#474747" stroke-width="4"/>
<path d="M1424.66 169.4C1425.64 169.4 1426.53 169.55 1427.33 169.85C1428.13 170.15 1428.81 170.58 1429.37 171.14C1429.95 171.7 1430.39 172.37 1430.69 173.15C1431.01 173.91 1431.17 174.76 1431.17 175.7C1431.17 177.2 1430.78 178.48 1430 179.54C1429.24 180.58 1428.2 181.3 1426.88 181.7L1431.47 191H1428.29L1424.09 182H1420.46V191H1417.76V169.4H1424.66ZM1420.46 179.6H1424.66C1425.8 179.6 1426.7 179.25 1427.36 178.55C1428.04 177.83 1428.38 176.88 1428.38 175.7C1428.38 174.52 1428.04 173.58 1427.36 172.88C1426.68 172.16 1425.78 171.8 1424.66 171.8H1420.46V179.6ZM1434.94 186.2C1434.94 185.42 1435.07 184.72 1435.33 184.1C1435.61 183.46 1436 182.92 1436.5 182.48C1437.02 182.04 1437.64 181.7 1438.36 181.46C1439.08 181.22 1439.89 181.1 1440.79 181.1H1445.71V179.75C1445.71 178.73 1445.37 177.94 1444.69 177.38C1444.03 176.8 1443.07 176.51 1441.81 176.51C1440.89 176.51 1440.1 176.68 1439.44 177.02C1438.8 177.36 1438.37 177.83 1438.15 178.43H1435.45C1435.73 177.13 1436.44 176.1 1437.58 175.34C1438.74 174.58 1440.17 174.2 1441.87 174.2C1443.91 174.2 1445.51 174.68 1446.67 175.64C1447.83 176.58 1448.41 177.9 1448.41 179.6V191H1445.95V187.85H1445.71C1445.45 188.91 1444.84 189.75 1443.88 190.37C1442.92 190.99 1441.75 191.3 1440.37 191.3C1438.71 191.3 1437.39 190.84 1436.41 189.92C1435.43 189 1434.94 187.76 1434.94 186.2ZM1440.97 189.08C1441.65 189.08 1442.28 188.99 1442.86 188.81C1443.44 188.63 1443.94 188.38 1444.36 188.06C1444.78 187.72 1445.11 187.33 1445.35 186.89C1445.59 186.45 1445.71 185.97 1445.71 185.45V183.2H1440.85C1439.85 183.2 1439.06 183.46 1438.48 183.98C1437.92 184.5 1437.64 185.22 1437.64 186.14C1437.64 187.06 1437.93 187.78 1438.51 188.3C1439.09 188.82 1439.91 189.08 1440.97 189.08ZM1453.68 191V174.5H1456.23V177.35H1456.47C1456.73 176.35 1457.25 175.58 1458.03 175.04C1458.83 174.48 1459.82 174.2 1461 174.2C1461.82 174.2 1462.56 174.34 1463.22 174.62C1463.9 174.9 1464.47 175.3 1464.93 175.82C1465.41 176.32 1465.78 176.93 1466.04 177.65C1466.3 178.35 1466.43 179.14 1466.43 180.02V191H1463.73V180.47C1463.73 179.21 1463.41 178.23 1462.77 177.53C1462.13 176.83 1461.24 176.48 1460.1 176.48C1458.96 176.48 1458.05 176.86 1457.37 177.62C1456.71 178.36 1456.38 179.37 1456.38 180.65V191H1453.68ZM1471.42 180.65C1471.42 179.65 1471.55 178.75 1471.81 177.95C1472.09 177.15 1472.47 176.48 1472.95 175.94C1473.43 175.38 1474.01 174.95 1474.69 174.65C1475.37 174.35 1476.13 174.2 1476.97 174.2C1478.19 174.2 1479.2 174.48 1480 175.04C1480.8 175.58 1481.33 176.35 1481.59 177.35H1481.83C1481.81 177.01 1481.79 176.67 1481.77 176.33C1481.73 176.03 1481.7 175.72 1481.68 175.4C1481.68 175.06 1481.68 174.76 1481.68 174.5V169.1H1484.38V191H1481.83V188.15H1481.59C1481.33 189.15 1480.8 189.93 1480 190.49C1479.2 191.03 1478.19 191.3 1476.97 191.3C1476.13 191.3 1475.37 191.15 1474.69 190.85C1474.01 190.55 1473.43 190.13 1472.95 189.59C1472.47 189.03 1472.09 188.35 1471.81 187.55C1471.55 186.75 1471.42 185.85 1471.42 184.85V180.65ZM1477.99 188.96C1479.11 188.96 1480 188.59 1480.66 187.85C1481.34 187.11 1481.68 186.11 1481.68 184.85V180.65C1481.68 179.39 1481.34 178.39 1480.66 177.65C1480 176.91 1479.11 176.54 1477.99 176.54C1476.77 176.54 1475.82 176.9 1475.14 177.62C1474.46 178.34 1474.12 179.35 1474.12 180.65V184.85C1474.12 186.11 1474.46 187.11 1475.14 187.85C1475.84 188.59 1476.79 188.96 1477.99 188.96ZM1492.11 184.85C1492.11 186.11 1492.45 187.1 1493.13 187.82C1493.83 188.54 1494.79 188.9 1496.01 188.9C1497.21 188.9 1498.16 188.54 1498.86 187.82C1499.56 187.1 1499.91 186.11 1499.91 184.85V180.65C1499.91 179.39 1499.56 178.4 1498.86 177.68C1498.16 176.96 1497.21 176.6 1496.01 176.6C1494.81 176.6 1493.86 176.96 1493.16 177.68C1492.46 178.4 1492.11 179.39 1492.11 180.65V184.85ZM1489.41 180.65C1489.41 179.65 1489.56 178.76 1489.86 177.98C1490.18 177.18 1490.62 176.5 1491.18 175.94C1491.76 175.38 1492.45 174.95 1493.25 174.65C1494.07 174.35 1494.99 174.2 1496.01 174.2C1498.05 174.2 1499.66 174.77 1500.84 175.91C1502.02 177.05 1502.61 178.62 1502.61 180.62V184.85C1502.61 185.85 1502.46 186.75 1502.16 187.55C1501.86 188.35 1501.42 189.03 1500.84 189.59C1500.28 190.13 1499.59 190.55 1498.77 190.85C1497.95 191.15 1497.03 191.3 1496.01 191.3C1494.99 191.3 1494.07 191.15 1493.25 190.85C1492.45 190.55 1491.76 190.12 1491.18 189.56C1490.62 189 1490.18 188.32 1489.86 187.52C1489.56 186.72 1489.41 185.83 1489.41 184.85V180.65ZM1506.86 174.5H1508.99V176.93H1509.2C1509.28 176.05 1509.56 175.38 1510.04 174.92C1510.52 174.44 1511.16 174.2 1511.96 174.2C1512.76 174.2 1513.42 174.44 1513.94 174.92C1514.46 175.38 1514.82 176.05 1515.02 176.93H1515.17C1515.25 176.05 1515.53 175.38 1516.01 174.92C1516.49 174.44 1517.13 174.2 1517.93 174.2C1518.95 174.2 1519.74 174.58 1520.3 175.34C1520.86 176.08 1521.14 177.11 1521.14 178.43V191H1518.8V178.43C1518.8 177.73 1518.64 177.2 1518.32 176.84C1518.02 176.46 1517.58 176.27 1517 176.27C1515.78 176.27 1515.17 177.04 1515.17 178.58V191H1512.83V178.43C1512.83 177.85 1512.69 177.35 1512.41 176.93C1512.15 176.49 1511.69 176.27 1511.03 176.27C1510.43 176.27 1509.96 176.49 1509.62 176.93C1509.34 177.33 1509.2 177.88 1509.2 178.58V191H1506.86V174.5ZM1525.84 191V188.54H1531.84V176.96H1526.59V174.5H1534.54V188.54H1539.49V191H1525.84ZM1532.44 168.05H1533.04C1533.62 168.05 1534.09 168.22 1534.45 168.56C1534.81 168.9 1534.99 169.34 1534.99 169.88C1534.99 170.42 1534.81 170.85 1534.45 171.17C1534.09 171.49 1533.62 171.65 1533.04 171.65H1532.44C1531.86 171.65 1531.39 171.5 1531.03 171.2C1530.67 170.88 1530.49 170.44 1530.49 169.88C1530.49 169.34 1530.67 168.9 1531.03 168.56C1531.39 168.22 1531.86 168.05 1532.44 168.05ZM1543.62 174.5H1556.25V177.53L1546.08 188.72C1546.3 188.7 1546.54 188.68 1546.8 188.66C1547.02 188.64 1547.26 188.63 1547.52 188.63C1547.78 188.61 1548.05 188.6 1548.33 188.6H1556.58V191H1543.38V188L1553.61 176.81C1553.37 176.83 1553.11 176.84 1552.83 176.84C1552.61 176.86 1552.35 176.88 1552.05 176.9C1551.77 176.9 1551.49 176.9 1551.21 176.9H1543.62V174.5ZM1567.96 191.3C1565.9 191.3 1564.28 190.74 1563.1 189.62C1561.94 188.5 1561.36 186.96 1561.36 185V180.5C1561.36 178.54 1561.94 177 1563.1 175.88C1564.28 174.76 1565.9 174.2 1567.96 174.2C1570.02 174.2 1571.63 174.76 1572.79 175.88C1573.97 177 1574.56 178.54 1574.56 180.5V183.53H1564.06V184.85C1564.06 186.11 1564.4 187.1 1565.08 187.82C1565.78 188.54 1566.74 188.9 1567.96 188.9C1568.86 188.9 1569.64 188.76 1570.3 188.48C1570.96 188.2 1571.45 187.79 1571.77 187.25H1574.47C1574.13 188.51 1573.37 189.5 1572.19 190.22C1571.03 190.94 1569.62 191.3 1567.96 191.3ZM1571.86 181.28V180.5C1571.86 179.26 1571.52 178.3 1570.84 177.62C1570.16 176.94 1569.2 176.6 1567.96 176.6C1566.72 176.6 1565.76 176.94 1565.08 177.62C1564.4 178.3 1564.06 179.26 1564.06 180.5V181.28H1571.86ZM1579.35 180.65C1579.35 179.65 1579.48 178.75 1579.74 177.95C1580.02 177.15 1580.4 176.48 1580.88 175.94C1581.36 175.38 1581.94 174.95 1582.62 174.65C1583.3 174.35 1584.06 174.2 1584.9 174.2C1586.12 174.2 1587.13 174.48 1587.93 175.04C1588.73 175.58 1589.26 176.35 1589.52 177.35H1589.76C1589.74 177.01 1589.72 176.67 1589.7 176.33C1589.66 176.03 1589.63 175.72 1589.61 175.4C1589.61 175.06 1589.61 174.76 1589.61 174.5V169.1H1592.31V191H1589.76V188.15H1589.52C1589.26 189.15 1588.73 189.93 1587.93 190.49C1587.13 191.03 1586.12 191.3 1584.9 191.3C1584.06 191.3 1583.3 191.15 1582.62 190.85C1581.94 190.55 1581.36 190.13 1580.88 189.59C1580.4 189.03 1580.02 188.35 1579.74 187.55C1579.48 186.75 1579.35 185.85 1579.35 184.85V180.65ZM1585.92 188.96C1587.04 188.96 1587.93 188.59 1588.59 187.85C1589.27 187.11 1589.61 186.11 1589.61 184.85V180.65C1589.61 179.39 1589.27 178.39 1588.59 177.65C1587.93 176.91 1587.04 176.54 1585.92 176.54C1584.7 176.54 1583.75 176.9 1583.07 177.62C1582.39 178.34 1582.05 179.35 1582.05 180.65V184.85C1582.05 186.11 1582.39 187.11 1583.07 187.85C1583.77 188.59 1584.72 188.96 1585.92 188.96ZM1456.14 221.85C1456.14 223.09 1456.49 224.08 1457.19 224.82C1457.89 225.54 1458.84 225.9 1460.04 225.9C1461.24 225.9 1462.19 225.54 1462.89 224.82C1463.59 224.08 1463.94 223.09 1463.94 221.85V212.55C1463.94 211.31 1463.59 210.33 1462.89 209.61C1462.19 208.87 1461.24 208.5 1460.04 208.5C1458.84 208.5 1457.89 208.87 1457.19 209.61C1456.49 210.33 1456.14 211.31 1456.14 212.55V221.85ZM1453.44 212.55C1453.44 211.57 1453.59 210.68 1453.89 209.88C1454.21 209.08 1454.65 208.4 1455.21 207.84C1455.79 207.28 1456.48 206.85 1457.28 206.55C1458.1 206.25 1459.02 206.1 1460.04 206.1C1461.06 206.1 1461.97 206.25 1462.77 206.55C1463.59 206.85 1464.28 207.28 1464.84 207.84C1465.42 208.4 1465.86 209.08 1466.16 209.88C1466.48 210.68 1466.64 211.57 1466.64 212.55V221.85C1466.64 222.83 1466.48 223.72 1466.16 224.52C1465.86 225.3 1465.42 225.97 1464.84 226.53C1464.28 227.09 1463.59 227.53 1462.77 227.85C1461.95 228.15 1461.04 228.3 1460.04 228.3C1459.02 228.3 1458.1 228.15 1457.28 227.85C1456.48 227.55 1455.79 227.12 1455.21 226.56C1454.65 226 1454.21 225.32 1453.89 224.52C1453.59 223.72 1453.44 222.83 1453.44 221.85V212.55ZM1470.82 215.61V213.15H1475.62V210.3C1475.62 208.98 1476.03 207.95 1476.85 207.21C1477.67 206.47 1478.8 206.1 1480.24 206.1H1485.07V208.56H1480.24C1478.96 208.56 1478.32 209.14 1478.32 210.3V213.15H1485.07V215.61H1478.32V228H1475.62V215.61H1470.82ZM1488.81 215.61V213.15H1493.61V210.3C1493.61 208.98 1494.02 207.95 1494.84 207.21C1495.66 206.47 1496.79 206.1 1498.23 206.1H1503.06V208.56H1498.23C1496.95 208.56 1496.31 209.14 1496.31 210.3V213.15H1503.06V215.61H1496.31V228H1493.61V215.61H1488.81ZM1513.55 228.3C1511.81 228.3 1510.37 227.91 1509.23 227.13C1508.11 226.33 1507.47 225.27 1507.31 223.95H1510.16C1510.28 224.53 1510.65 225 1511.27 225.36C1511.89 225.72 1512.65 225.9 1513.55 225.9H1514.39C1515.47 225.9 1516.31 225.68 1516.91 225.24C1517.51 224.78 1517.81 224.17 1517.81 223.41C1517.81 222.11 1516.89 221.32 1515.05 221.04L1512.56 220.68C1510.94 220.44 1509.73 219.93 1508.93 219.15C1508.13 218.37 1507.73 217.28 1507.73 215.88C1507.73 214.4 1508.25 213.25 1509.29 212.43C1510.35 211.61 1511.82 211.2 1513.7 211.2H1514.54C1515.34 211.2 1516.08 211.3 1516.76 211.5C1517.44 211.7 1518.04 211.99 1518.56 212.37C1519.08 212.73 1519.5 213.17 1519.82 213.69C1520.16 214.19 1520.38 214.75 1520.48 215.37H1517.63C1517.51 214.85 1517.17 214.43 1516.61 214.11C1516.05 213.77 1515.36 213.6 1514.54 213.6H1513.7C1512.68 213.6 1511.88 213.8 1511.3 214.2C1510.74 214.6 1510.46 215.2 1510.46 216C1510.46 216.64 1510.65 217.13 1511.03 217.47C1511.43 217.79 1512.07 218.01 1512.95 218.13L1515.44 218.49C1517.22 218.75 1518.51 219.27 1519.31 220.05C1520.13 220.83 1520.54 221.94 1520.54 223.38C1520.54 224.92 1520 226.13 1518.92 227.01C1517.86 227.87 1516.35 228.3 1514.39 228.3H1513.55ZM1531.99 228.3C1529.93 228.3 1528.31 227.74 1527.13 226.62C1525.97 225.5 1525.39 223.96 1525.39 222V217.5C1525.39 215.54 1525.97 214 1527.13 212.88C1528.31 211.76 1529.93 211.2 1531.99 211.2C1534.05 211.2 1535.66 211.76 1536.82 212.88C1538 214 1538.59 215.54 1538.59 217.5V220.53H1528.09V221.85C1528.09 223.11 1528.43 224.1 1529.11 224.82C1529.81 225.54 1530.77 225.9 1531.99 225.9C1532.89 225.9 1533.67 225.76 1534.33 225.48C1534.99 225.2 1535.48 224.79 1535.8 224.25H1538.5C1538.16 225.51 1537.4 226.5 1536.22 227.22C1535.06 227.94 1533.65 228.3 1531.99 228.3ZM1535.89 218.28V217.5C1535.89 216.26 1535.55 215.3 1534.87 214.62C1534.19 213.94 1533.23 213.6 1531.99 213.6C1530.75 213.6 1529.79 213.94 1529.11 214.62C1528.43 215.3 1528.09 216.26 1528.09 217.5V218.28H1535.89ZM1542.78 211.5H1547.58V206.4H1550.28V211.5H1556.73V213.96H1550.28V223.74C1550.28 224.3 1550.45 224.74 1550.79 225.06C1551.15 225.38 1551.63 225.54 1552.23 225.54H1556.43V228H1552.23C1550.81 228 1549.68 227.61 1548.84 226.83C1548 226.05 1547.58 225.02 1547.58 223.74V213.96H1542.78V211.5Z" fill="#474747"/>
<mask id="mask0_118_1268" style="mask-type:alpha" maskUnits="userSpaceOnUse" x="346" y="0" width="400" height="400">
<rect x="346" width="400" height="400" fill="url(#paint0_radial_118_1268)"/>
</mask>
<g mask="url(#mask0_118_1268)">
<rect x="346" width="100" height="100" fill="#F2F2F2" stroke="#474747" stroke-width="2"/>
<circle cx="396" cy="50.0002" r="27.6316" fill="#33CE26"/>
<rect x="446" width="100" height="100" fill="#F2F2F2" stroke="#474747" stroke-width="2"/>
<circle cx="496" cy="50.0002" r="27.6316" fill="#33CE26"/>
<rect x="546" width="100" height="100" fill="#F2F2F2" stroke="#474747" stroke-width="2"/>
<circle cx="596" cy="50.0002" r="27.6316" fill="#33CE26"/>
<rect x="646" width="100" height="100" fill="#F2F2F2" stroke="#474747" stroke-width="2"/>
<circle cx="696" cy="50.0002" r="27.6316" fill="#33CE26"/>
<rect x="346" y="100" width="100" height="100" fill="#F2F2F2" stroke="#474747" stroke-width="2"/>
<circle cx="396" cy="150" r="27.6316" fill="#33CE26"/>
<rect x="446" y="100" width="100" height="100" fill="#F2F2F2" stroke="#474747" stroke-width="2"/>
<circle cx="496" cy="150" r="27.6316" fill="#33CE26"/>
<rect x="546" y="100" width="100" height="100" fill="#F2F2F2" stroke="#474747" stroke-width="2"/>
<circle cx="596" cy="150" r="27.6316" fill="#33CE26"/>
<rect x="646" y="100" width="100" height="100" fill="#F2F2F2" stroke="#474747" stroke-width="2"/>
<circle cx="696" cy="150" r="27.6316" fill="#33CE26"/>
<rect x="346" y="200" width="100" height="100" fill="#F2F2F2" stroke="#474747" stroke-width="2"/>
<circle cx="396" cy="250" r="27.6316" fill="#33CE26"/>
<rect x="446" y="200" width="100" height="100" fill="#F2F2F2" stroke="#474747" stroke-width="2"/>
<circle cx="496" cy="250" r="27.6316" fill="#33CE26"/>
<rect x="546" y="200" width="100" height="100" fill="#F2F2F2" stroke="#474747" stroke-width="2"/>
<circle cx="596" cy="250" r="27.6316" fill="#33CE26"/>
<rect x="646" y="200" width="100" height="100" fill="#F2F2F2" stroke="#474747" stroke-width="2"/>
<circle cx="696" cy="250" r="27.6316" fill="#33CE26"/>
<rect x="346" y="300" width="100" height="100" fill="#F2F2F2" stroke="#474747" stroke-width="2"/>
<circle cx="396" cy="350" r="27.6316" fill="#33CE26"/>
<rect x="446" y="300" width="100" height="100" fill="#F2F2F2" stroke="#474747" stroke-width="2"/>
<circle cx="496" cy="350" r="27.6316" fill="#33CE26"/>
<rect x="546" y="300" width="100" height="100" fill="#F2F2F2" stroke="#474747" stroke-width="2"/>
<circle cx="596" cy="350" r="27.6316" fill="#33CE26"/>
<rect x="646" y="300" width="100" height="100" fill="#F2F2F2" stroke="#474747" stroke-width="2"/>
<circle cx="696" cy="350" r="27.6316" fill="#33CE26"/>
</g>
<mask id="mask1_118_1268" style="mask-type:alpha" maskUnits="userSpaceOnUse" x="992" y="0" width="400" height="400">
<rect x="992" width="400" height="400" fill="url(#paint1_radial_118_1268)"/>
</mask>
<g mask="url(#mask1_118_1268)">
<rect x="992" width="100" height="100" fill="#F2F2F2" stroke="#474747" stroke-width="2"/>
<circle cx="1042" cy="50.0002" r="27.6316" fill="#33CE26"/>
<rect x="1092" width="100" height="100" fill="#F2F2F2" stroke="#474747" stroke-width="2"/>
<circle cx="1142" cy="50" r="37" fill="#33CE26"/>
<rect x="1192" width="100" height="100" fill="#F2F2F2" stroke="#474747" stroke-width="2"/>
<circle cx="1242" cy="50.0002" r="27.6316" fill="#33CE26"/>
<rect x="1292" width="100" height="100" fill="#F2F2F2" stroke="#474747" stroke-width="2"/>
<circle cx="1342" cy="50.0002" r="27.6316" fill="#33CE26"/>
<rect x="992" y="100" width="100" height="100" fill="#F2F2F2" stroke="#474747" stroke-width="2"/>
<circle cx="1042" cy="150" r="34" fill="#33CE26"/>
<rect x="1092" y="100" width="100" height="100" fill="#F2F2F2" stroke="#474747" stroke-width="2"/>
<circle cx="1142" cy="150" r="27.6316" fill="#33CE26"/>
<rect x="1192" y="100" width="100" height="100" fill="#F2F2F2" stroke="#474747" stroke-width="2"/>
<circle cx="1242" cy="150" r="21" fill="#33CE26"/>
<rect x="1292" y="100" width="100" height="100" fill="#F2F2F2" stroke="#474747" stroke-width="2"/>
<circle cx="1342" cy="150" r="27.6316" fill="#33CE26"/>
<rect x="992" y="200" width="100" height="100" fill="#F2F2F2" stroke="#474747" stroke-width="2"/>
<circle cx="1042" cy="250" r="27.6316" fill="#33CE26"/>
<rect x="1092" y="200" width="100" height="100" fill="#F2F2F2" stroke="#474747" stroke-width="2"/>
<circle cx="1142" cy="250" r="18" fill="#33CE26"/>
<rect x="1192" y="200" width="100" height="100" fill="#F2F2F2" stroke="#474747" stroke-width="2"/>
<circle cx="1242" cy="250" r="27.6316" fill="#33CE26"/>
<rect x="1292" y="200" width="100" height="100" fill="#F2F2F2" stroke="#474747" stroke-width="2"/>
<circle cx="1342" cy="250" r="19" fill="#33CE26"/>
<rect x="992" y="300" width="100" height="100" fill="#F2F2F2" stroke="#474747" stroke-width="2"/>
<circle cx="1042" cy="350" r="27.6316" fill="#33CE26"/>
<rect x="1092" y="300" width="100" height="100" fill="#F2F2F2" stroke="#474747" stroke-width="2"/>
<circle cx="1142" cy="350" r="27.6316" fill="#33CE26"/>
<rect x="1192" y="300" width="100" height="100" fill="#F2F2F2" stroke="#474747" stroke-width="2"/>
<circle cx="1242" cy="350" r="36" fill="#33CE26"/>
<rect x="1292" y="300" width="100" height="100" fill="#F2F2F2" stroke="#474747" stroke-width="2"/>
<circle cx="1342" cy="350" r="27.6316" fill="#33CE26"/>
</g>
<mask id="mask2_118_1268" style="mask-type:alpha" maskUnits="userSpaceOnUse" x="1638" y="0" width="400" height="400">
<rect x="1638" width="400" height="400" fill="url(#paint2_radial_118_1268)"/>
</mask>
<g mask="url(#mask2_118_1268)">
<rect x="1638" width="100" height="100" fill="#F2F2F2" stroke="#474747" stroke-width="2"/>
<circle cx="1688" cy="50.0002" r="27.6316" fill="#33CE26"/>
<rect x="1738" width="100" height="100" fill="#F2F2F2" stroke="#474747" stroke-width="2"/>
<circle cx="1788" cy="63" r="37" fill="#33CE26"/>
<rect x="1838" width="100" height="100" fill="#F2F2F2" stroke="#474747" stroke-width="2"/>
<circle cx="1865.63" cy="34.6316" r="27.6316" fill="#33CE26"/>
<rect x="1938" width="100" height="100" fill="#F2F2F2" stroke="#474747" stroke-width="2"/>
<circle cx="1987.63" cy="61.6316" r="27.6316" fill="#33CE26"/>
<rect x="1638" y="100" width="100" height="100" fill="#F2F2F2" stroke="#474747" stroke-width="2"/>
<circle cx="1661" cy="158" r="34" fill="#33CE26"/>
<rect x="1738" y="100" width="100" height="100" fill="#F2F2F2" stroke="#474747" stroke-width="2"/>
<circle cx="1810.63" cy="172.632" r="27.6316" fill="#33CE26"/>
<rect x="1838" y="100" width="100" height="100" fill="#F2F2F2" stroke="#474747" stroke-width="2"/>
<circle cx="1859" cy="150" r="21" fill="#33CE26"/>
<rect x="1938" y="100" width="100" height="100" fill="#F2F2F2" stroke="#474747" stroke-width="2"/>
<circle cx="1993.63" cy="155.632" r="27.6316" fill="#33CE26"/>
<rect x="1638" y="200" width="100" height="100" fill="#F2F2F2" stroke="#474747" stroke-width="2"/>
<circle cx="1665.63" cy="267.632" r="27.6316" fill="#33CE26"/>
<rect x="1738" y="200" width="100" height="100" fill="#F2F2F2" stroke="#474747" stroke-width="2"/>
<circle cx="1788" cy="250" r="18" fill="#33CE26"/>
<rect x="1838" y="200" width="100" height="100" fill="#F2F2F2" stroke="#474747" stroke-width="2"/>
<circle cx="1893.63" cy="237.632" r="27.6316" fill="#33CE26"/>
<rect x="1938" y="200" width="100" height="100" fill="#F2F2F2" stroke="#474747" stroke-width="2"/>
<circle cx="1981" cy="262" r="19" fill="#33CE26"/>
<rect x="1638" y="300" width="100" height="100" fill="#F2F2F2" stroke="#474747" stroke-width="2"/>
<circle cx="1694.63" cy="345.632" r="27.6316" fill="#33CE26"/>
<rect x="1738" y="300" width="100" height="100" fill="#F2F2F2" stroke="#474747" stroke-width="2"/>
<circle cx="1773.63" cy="361.632" r="27.6316" fill="#33CE26"/>
<rect x="1838" y="300" width="100" height="100" fill="#F2F2F2" stroke="#474747" stroke-width="2"/>
<circle cx="1881" cy="336" r="36" fill="#33CE26"/>
<rect x="1938" y="300" width="100" height="100" fill="#F2F2F2" stroke="#474747" stroke-width="2"/>
<circle cx="1988" cy="350" r="27.6316" fill="#33CE26"/>
</g>
<defs>
<radialGradient id="paint0_radial_118_1268" cx="0" cy="0" r="1" gradientUnits="userSpaceOnUse" gradientTransform="translate(546 200) rotate(90) scale(200)">
<stop stop-color="#D9D9D9"/>
<stop offset="0.861613" stop-color="#CCCCCC" stop-opacity="0.88"/>
<stop offset="1" stop-color="#737373" stop-opacity="0"/>
</radialGradient>
<radialGradient id="paint1_radial_118_1268" cx="0" cy="0" r="1" gradientUnits="userSpaceOnUse" gradientTransform="translate(1192 200) rotate(90) scale(200)">
<stop stop-color="#D9D9D9"/>
<stop offset="0.861613" stop-color="#CCCCCC" stop-opacity="0.88"/>
<stop offset="1" stop-color="#737373" stop-opacity="0"/>
</radialGradient>
<radialGradient id="paint2_radial_118_1268" cx="0" cy="0" r="1" gradientUnits="userSpaceOnUse" gradientTransform="translate(1838 200) rotate(90) scale(200)">
<stop stop-color="#D9D9D9"/>
<stop offset="0.861613" stop-color="#CCCCCC" stop-opacity="0.88"/>
<stop offset="1" stop-color="#737373" stop-opacity="0"/>
</radialGradient>
</defs>
</svg>
