<svg width="1626" height="368" viewBox="0 0 1626 368" fill="none" xmlns="http://www.w3.org/2000/svg">
<path d="M228 295.567C171.2 295.567 115 342.234 94 365.567H756.5C740.333 269.734 688 77.0671 608 73.0671C508 68.0671 463 344.067 400.5 341.567C338 339.067 299 295.567 228 295.567Z" fill="#F2F2F2" stroke="#474747" stroke-width="4"/>
<path d="M1114 272.012C1057.2 272.012 982 340.246 961 363.579H1623.5C1607.33 267.746 1555 75.079 1475 71.079C1375 66.079 1350 300 1287.5 297.5C1258.48 296.34 1256 193.012 1213.5 183.512C1171.95 174.224 1143.5 272.012 1114 272.012Z" fill="#F2F2F2" stroke="#474747" stroke-width="4"/>
<path d="M65.2383 175.451L215.664 188.612" stroke="#4675D0" stroke-width="6"/>
<path d="M214.567 178.195C214.634 177.431 215.5 177.024 216.132 177.459L234.095 189.854C234.734 190.294 234.649 191.263 233.944 191.586L214.101 200.673C213.403 200.992 212.621 200.44 212.688 199.676L214.567 178.195Z" fill="#4675D0"/>
<path d="M932.238 173.451L1082.66 186.612" stroke="#4675D0" stroke-width="6"/>
<path d="M1081.57 176.195C1081.63 175.431 1082.5 175.024 1083.13 175.459L1101.1 187.854C1101.73 188.294 1101.65 189.263 1100.94 189.586L1081.1 198.673C1080.4 198.992 1079.62 198.44 1079.69 197.676L1081.57 176.195Z" fill="#4675D0"/>
<path d="M441.694 209.577L592.12 222.738" stroke="#4675D0" stroke-width="6"/>
<path d="M591.023 212.321C591.09 211.557 591.956 211.15 592.588 211.585L610.551 223.98C611.19 224.42 611.105 225.389 610.4 225.712L590.557 234.799C589.86 235.118 589.077 234.566 589.144 233.802L591.023 212.321Z" fill="#4675D0"/>
<path d="M1308.69 207.577L1459.12 220.738" stroke="#4675D0" stroke-width="6"/>
<path d="M1458.02 210.321C1458.09 209.557 1458.96 209.15 1459.59 209.585L1477.55 221.98C1478.19 222.42 1478.11 223.389 1477.4 223.712L1457.56 232.799C1456.86 233.118 1456.08 232.566 1456.14 231.802L1458.02 210.321Z" fill="#4675D0"/>
<path d="M253.466 192.514L403.892 205.675" stroke="#4675D0" stroke-width="6"/>
<path d="M402.795 195.258C402.862 194.494 403.728 194.087 404.36 194.522L422.323 206.917C422.962 207.357 422.877 208.326 422.172 208.649L402.329 217.736C401.632 218.055 400.849 217.503 400.916 216.739L402.795 195.258Z" fill="#4675D0"/>
<path d="M1120.47 190.514L1270.89 203.675" stroke="#4675D0" stroke-width="6"/>
<path d="M1269.8 193.258C1269.86 192.494 1270.73 192.087 1271.36 192.522L1289.32 204.917C1289.96 205.357 1289.88 206.326 1289.17 206.649L1269.33 215.736C1268.63 216.055 1267.85 215.503 1267.92 214.739L1269.8 193.258Z" fill="#4675D0"/>
<circle cx="52" cy="170.567" r="14" fill="#F2F2F2" stroke="#474747" stroke-width="6"/>
<path d="M7.21516 115.667C9.09516 115.667 10.6052 116.187 11.7452 117.227C12.9052 118.247 13.5952 119.677 13.8152 121.517H11.1152C10.9952 120.437 10.5852 119.597 9.88516 118.997C9.20516 118.377 8.31516 118.067 7.21516 118.067C6.01516 118.067 5.06516 118.427 4.36516 119.147C3.66516 119.867 3.31516 120.857 3.31516 122.117V131.417C3.31516 132.677 3.65516 133.667 4.33516 134.387C5.03516 135.107 5.99516 135.467 7.21516 135.467C8.31516 135.467 9.20516 135.167 9.88516 134.567C10.5852 133.947 10.9952 133.097 11.1152 132.017H13.8152C13.5952 133.857 12.9052 135.297 11.7452 136.337C10.6052 137.357 9.09516 137.867 7.21516 137.867C6.19516 137.867 5.27516 137.717 4.45516 137.417C3.65516 137.117 2.96516 136.687 2.38516 136.127C1.82516 135.567 1.38516 134.887 1.06516 134.087C0.765156 133.287 0.615156 132.397 0.615156 131.417V122.117C0.615156 121.137 0.765156 120.247 1.06516 119.447C1.38516 118.647 1.82516 117.967 2.38516 117.407C2.96516 116.847 3.65516 116.417 4.45516 116.117C5.27516 115.817 6.19516 115.667 7.21516 115.667ZM17.9134 132.767C17.9134 131.987 18.0434 131.287 18.3034 130.667C18.5834 130.027 18.9734 129.487 19.4734 129.047C19.9934 128.607 20.6134 128.267 21.3334 128.027C22.0534 127.787 22.8634 127.667 23.7634 127.667H28.6834V126.317C28.6834 125.297 28.3434 124.507 27.6634 123.947C27.0034 123.367 26.0434 123.077 24.7834 123.077C23.8634 123.077 23.0734 123.247 22.4134 123.587C21.7734 123.927 21.3434 124.397 21.1234 124.997H18.4234C18.7034 123.697 19.4134 122.667 20.5534 121.907C21.7134 121.147 23.1434 120.767 24.8434 120.767C26.8834 120.767 28.4834 121.247 29.6434 122.207C30.8034 123.147 31.3834 124.467 31.3834 126.167V137.567H28.9234V134.417H28.6834C28.4234 135.477 27.8134 136.317 26.8534 136.937C25.8934 137.557 24.7234 137.867 23.3434 137.867C21.6834 137.867 20.3634 137.407 19.3834 136.487C18.4034 135.567 17.9134 134.327 17.9134 132.767ZM23.9434 135.647C24.6234 135.647 25.2534 135.557 25.8334 135.377C26.4134 135.197 26.9134 134.947 27.3334 134.627C27.7534 134.287 28.0834 133.897 28.3234 133.457C28.5634 133.017 28.6834 132.537 28.6834 132.017V129.767H23.8234C22.8234 129.767 22.0334 130.027 21.4534 130.547C20.8934 131.067 20.6134 131.787 20.6134 132.707C20.6134 133.627 20.9034 134.347 21.4834 134.867C22.0634 135.387 22.8834 135.647 23.9434 135.647ZM35.8717 121.067H38.0017V123.497H38.2117C38.2917 122.617 38.5717 121.947 39.0517 121.487C39.5317 121.007 40.1717 120.767 40.9717 120.767C41.7717 120.767 42.4317 121.007 42.9517 121.487C43.4717 121.947 43.8317 122.617 44.0317 123.497H44.1817C44.2617 122.617 44.5417 121.947 45.0217 121.487C45.5017 121.007 46.1417 120.767 46.9417 120.767C47.9617 120.767 48.7517 121.147 49.3117 121.907C49.8717 122.647 50.1517 123.677 50.1517 124.997V137.567H47.8117V124.997C47.8117 124.297 47.6517 123.767 47.3317 123.407C47.0317 123.027 46.5917 122.837 46.0117 122.837C44.7917 122.837 44.1817 123.607 44.1817 125.147V137.567H41.8417V124.997C41.8417 124.417 41.7017 123.917 41.4217 123.497C41.1617 123.057 40.7017 122.837 40.0417 122.837C39.4417 122.837 38.9717 123.057 38.6317 123.497C38.3517 123.897 38.2117 124.447 38.2117 125.147V137.567H35.8717V121.067ZM61 137.867C58.94 137.867 57.32 137.307 56.14 136.187C54.98 135.067 54.4 133.527 54.4 131.567V127.067C54.4 125.107 54.98 123.567 56.14 122.447C57.32 121.327 58.94 120.767 61 120.767C63.06 120.767 64.67 121.327 65.83 122.447C67.01 123.567 67.6 125.107 67.6 127.067V130.097H57.1V131.417C57.1 132.677 57.44 133.667 58.12 134.387C58.82 135.107 59.78 135.467 61 135.467C61.9 135.467 62.68 135.327 63.34 135.047C64 134.767 64.49 134.357 64.81 133.817H67.51C67.17 135.077 66.41 136.067 65.23 136.787C64.07 137.507 62.66 137.867 61 137.867ZM64.9 127.847V127.067C64.9 125.827 64.56 124.867 63.88 124.187C63.2 123.507 62.24 123.167 61 123.167C59.76 123.167 58.8 123.507 58.12 124.187C57.44 124.867 57.1 125.827 57.1 127.067V127.847H64.9ZM73.3483 121.067H75.8983V123.917H76.1383C76.3983 122.937 76.9383 122.167 77.7583 121.607C78.5783 121.047 79.5883 120.767 80.7883 120.767C82.5283 120.767 83.8883 121.317 84.8683 122.417C85.8683 123.497 86.3683 124.987 86.3683 126.887V127.817H83.6683V127.217C83.6683 125.917 83.3383 124.917 82.6783 124.217C82.0383 123.497 81.1183 123.137 79.9183 123.137C78.7383 123.137 77.7983 123.507 77.0983 124.247C76.3983 124.967 76.0483 125.957 76.0483 127.217V137.567H73.3483V121.067ZM89.8666 132.767C89.8666 131.987 89.9966 131.287 90.2566 130.667C90.5366 130.027 90.9266 129.487 91.4266 129.047C91.9466 128.607 92.5666 128.267 93.2866 128.027C94.0066 127.787 94.8166 127.667 95.7166 127.667H100.637V126.317C100.637 125.297 100.297 124.507 99.6166 123.947C98.9566 123.367 97.9966 123.077 96.7366 123.077C95.8166 123.077 95.0266 123.247 94.3666 123.587C93.7266 123.927 93.2966 124.397 93.0766 124.997H90.3766C90.6566 123.697 91.3666 122.667 92.5066 121.907C93.6666 121.147 95.0966 120.767 96.7966 120.767C98.8366 120.767 100.437 121.247 101.597 122.207C102.757 123.147 103.337 124.467 103.337 126.167V137.567H100.877V134.417H100.637C100.377 135.477 99.7666 136.317 98.8066 136.937C97.8466 137.557 96.6766 137.867 95.2966 137.867C93.6366 137.867 92.3166 137.407 91.3366 136.487C90.3566 135.567 89.8666 134.327 89.8666 132.767ZM95.8966 135.647C96.5766 135.647 97.2066 135.557 97.7866 135.377C98.3666 135.197 98.8666 134.947 99.2866 134.627C99.7066 134.287 100.037 133.897 100.277 133.457C100.517 133.017 100.637 132.537 100.637 132.017V129.767H95.7766C94.7766 129.767 93.9866 130.027 93.4066 130.547C92.8466 131.067 92.5666 131.787 92.5666 132.707C92.5666 133.627 92.8566 134.347 93.4366 134.867C94.0166 135.387 94.8366 135.647 95.8966 135.647Z" fill="black"/>
<circle cx="919" cy="168.567" r="14" fill="#F2F2F2" stroke="#474747" stroke-width="6"/>
<path d="M874.215 113.667C876.095 113.667 877.605 114.187 878.745 115.227C879.905 116.247 880.595 117.677 880.815 119.517H878.115C877.995 118.437 877.585 117.597 876.885 116.997C876.205 116.377 875.315 116.067 874.215 116.067C873.015 116.067 872.065 116.427 871.365 117.147C870.665 117.867 870.315 118.857 870.315 120.117V129.417C870.315 130.677 870.655 131.667 871.335 132.387C872.035 133.107 872.995 133.467 874.215 133.467C875.315 133.467 876.205 133.167 876.885 132.567C877.585 131.947 877.995 131.097 878.115 130.017H880.815C880.595 131.857 879.905 133.297 878.745 134.337C877.605 135.357 876.095 135.867 874.215 135.867C873.195 135.867 872.275 135.717 871.455 135.417C870.655 135.117 869.965 134.687 869.385 134.127C868.825 133.567 868.385 132.887 868.065 132.087C867.765 131.287 867.615 130.397 867.615 129.417V120.117C867.615 119.137 867.765 118.247 868.065 117.447C868.385 116.647 868.825 115.967 869.385 115.407C869.965 114.847 870.655 114.417 871.455 114.117C872.275 113.817 873.195 113.667 874.215 113.667ZM884.913 130.767C884.913 129.987 885.043 129.287 885.303 128.667C885.583 128.027 885.973 127.487 886.473 127.047C886.993 126.607 887.613 126.267 888.333 126.027C889.053 125.787 889.863 125.667 890.763 125.667H895.683V124.317C895.683 123.297 895.343 122.507 894.663 121.947C894.003 121.367 893.043 121.077 891.783 121.077C890.863 121.077 890.073 121.247 889.413 121.587C888.773 121.927 888.343 122.397 888.123 122.997H885.423C885.703 121.697 886.413 120.667 887.553 119.907C888.713 119.147 890.143 118.767 891.843 118.767C893.883 118.767 895.483 119.247 896.643 120.207C897.803 121.147 898.383 122.467 898.383 124.167V135.567H895.923V132.417H895.683C895.423 133.477 894.813 134.317 893.853 134.937C892.893 135.557 891.723 135.867 890.343 135.867C888.683 135.867 887.363 135.407 886.383 134.487C885.403 133.567 884.913 132.327 884.913 130.767ZM890.943 133.647C891.623 133.647 892.253 133.557 892.833 133.377C893.413 133.197 893.913 132.947 894.333 132.627C894.753 132.287 895.083 131.897 895.323 131.457C895.563 131.017 895.683 130.537 895.683 130.017V127.767H890.823C889.823 127.767 889.033 128.027 888.453 128.547C887.893 129.067 887.613 129.787 887.613 130.707C887.613 131.627 887.903 132.347 888.483 132.867C889.063 133.387 889.883 133.647 890.943 133.647ZM902.872 119.067H905.002V121.497H905.212C905.292 120.617 905.572 119.947 906.052 119.487C906.532 119.007 907.172 118.767 907.972 118.767C908.772 118.767 909.432 119.007 909.952 119.487C910.472 119.947 910.832 120.617 911.032 121.497H911.182C911.262 120.617 911.542 119.947 912.022 119.487C912.502 119.007 913.142 118.767 913.942 118.767C914.962 118.767 915.752 119.147 916.312 119.907C916.872 120.647 917.152 121.677 917.152 122.997V135.567H914.812V122.997C914.812 122.297 914.652 121.767 914.332 121.407C914.032 121.027 913.592 120.837 913.012 120.837C911.792 120.837 911.182 121.607 911.182 123.147V135.567H908.842V122.997C908.842 122.417 908.702 121.917 908.422 121.497C908.162 121.057 907.702 120.837 907.042 120.837C906.442 120.837 905.972 121.057 905.632 121.497C905.352 121.897 905.212 122.447 905.212 123.147V135.567H902.872V119.067ZM928 135.867C925.94 135.867 924.32 135.307 923.14 134.187C921.98 133.067 921.4 131.527 921.4 129.567V125.067C921.4 123.107 921.98 121.567 923.14 120.447C924.32 119.327 925.94 118.767 928 118.767C930.06 118.767 931.67 119.327 932.83 120.447C934.01 121.567 934.6 123.107 934.6 125.067V128.097H924.1V129.417C924.1 130.677 924.44 131.667 925.12 132.387C925.82 133.107 926.78 133.467 928 133.467C928.9 133.467 929.68 133.327 930.34 133.047C931 132.767 931.49 132.357 931.81 131.817H934.51C934.17 133.077 933.41 134.067 932.23 134.787C931.07 135.507 929.66 135.867 928 135.867ZM931.9 125.847V125.067C931.9 123.827 931.56 122.867 930.88 122.187C930.2 121.507 929.24 121.167 928 121.167C926.76 121.167 925.8 121.507 925.12 122.187C924.44 122.867 924.1 123.827 924.1 125.067V125.847H931.9ZM940.348 119.067H942.898V121.917H943.138C943.398 120.937 943.938 120.167 944.758 119.607C945.578 119.047 946.588 118.767 947.788 118.767C949.528 118.767 950.888 119.317 951.868 120.417C952.868 121.497 953.368 122.987 953.368 124.887V125.817H950.668V125.217C950.668 123.917 950.338 122.917 949.678 122.217C949.038 121.497 948.118 121.137 946.918 121.137C945.738 121.137 944.798 121.507 944.098 122.247C943.398 122.967 943.048 123.957 943.048 125.217V135.567H940.348V119.067ZM956.867 130.767C956.867 129.987 956.997 129.287 957.257 128.667C957.537 128.027 957.927 127.487 958.427 127.047C958.947 126.607 959.567 126.267 960.287 126.027C961.007 125.787 961.817 125.667 962.717 125.667H967.637V124.317C967.637 123.297 967.297 122.507 966.617 121.947C965.957 121.367 964.997 121.077 963.737 121.077C962.817 121.077 962.027 121.247 961.367 121.587C960.727 121.927 960.297 122.397 960.077 122.997H957.377C957.657 121.697 958.367 120.667 959.507 119.907C960.667 119.147 962.097 118.767 963.797 118.767C965.837 118.767 967.437 119.247 968.597 120.207C969.757 121.147 970.337 122.467 970.337 124.167V135.567H967.877V132.417H967.637C967.377 133.477 966.767 134.317 965.807 134.937C964.847 135.557 963.677 135.867 962.297 135.867C960.637 135.867 959.317 135.407 958.337 134.487C957.357 133.567 956.867 132.327 956.867 130.767ZM962.897 133.647C963.577 133.647 964.207 133.557 964.787 133.377C965.367 133.197 965.867 132.947 966.287 132.627C966.707 132.287 967.037 131.897 967.277 131.457C967.517 131.017 967.637 130.537 967.637 130.017V127.767H962.777C961.777 127.767 960.987 128.027 960.407 128.547C959.847 129.067 959.567 129.787 959.567 130.707C959.567 131.627 959.857 132.347 960.437 132.867C961.017 133.387 961.837 133.647 962.897 133.647Z" fill="black"/>
<circle cx="253.473" cy="193.249" r="14" transform="rotate(5 253.473 193.249)" fill="#F2F2F2" stroke="#474747" stroke-width="6"/>
<circle cx="1120.47" cy="191.249" r="14" transform="rotate(5 1120.47 191.249)" fill="#F2F2F2" stroke="#474747" stroke-width="6"/>
<circle cx="441.701" cy="210.312" r="14" transform="rotate(5 441.701 210.312)" fill="#F2F2F2" stroke="#474747" stroke-width="6"/>
<circle cx="1308.7" cy="208.312" r="14" transform="rotate(5 1308.7 208.312)" fill="#F2F2F2" stroke="#474747" stroke-width="6"/>
<path d="M1118.49 30V26.73H1123.11V11.67H1118.49V8.4H1131.51V11.67H1126.89V26.73H1131.51V30H1118.49ZM1136.15 30V13.5H1139.72V16.35H1139.99C1140.17 15.35 1140.64 14.58 1141.4 14.04C1142.16 13.48 1143.14 13.2 1144.34 13.2C1146 13.2 1147.32 13.74 1148.3 14.82C1149.28 15.9 1149.77 17.36 1149.77 19.2V30H1146.02V19.65C1146.02 18.65 1145.75 17.87 1145.21 17.31C1144.67 16.73 1143.93 16.44 1142.99 16.44C1142.03 16.44 1141.27 16.74 1140.71 17.34C1140.17 17.92 1139.9 18.72 1139.9 19.74V30H1136.15ZM1153.33 13.5H1157.89V8.4H1161.64V13.5H1167.91V16.89H1161.64V24.9C1161.64 25.42 1161.79 25.84 1162.09 26.16C1162.41 26.46 1162.85 26.61 1163.41 26.61H1167.61V30H1163.14C1161.52 30 1160.24 29.54 1159.3 28.62C1158.36 27.7 1157.89 26.46 1157.89 24.9V16.89H1153.33V13.5ZM1178.96 30.3C1177.88 30.3 1176.89 30.15 1175.99 29.85C1175.11 29.53 1174.36 29.09 1173.74 28.53C1173.12 27.97 1172.64 27.29 1172.3 26.49C1171.96 25.69 1171.79 24.8 1171.79 23.82V19.65C1171.79 18.67 1171.96 17.78 1172.3 16.98C1172.64 16.18 1173.12 15.5 1173.74 14.94C1174.36 14.38 1175.11 13.95 1175.99 13.65C1176.89 13.35 1177.88 13.2 1178.96 13.2C1180.04 13.2 1181.02 13.36 1181.9 13.68C1182.78 13.98 1183.53 14.41 1184.15 14.97C1184.77 15.53 1185.25 16.21 1185.59 17.01C1185.93 17.81 1186.1 18.7 1186.1 19.68V22.68H1175.51V23.76C1175.51 24.86 1175.81 25.72 1176.41 26.34C1177.03 26.96 1177.88 27.27 1178.96 27.27C1179.78 27.27 1180.47 27.15 1181.03 26.91C1181.61 26.65 1182.02 26.28 1182.26 25.8H1185.95C1185.77 26.48 1185.47 27.1 1185.05 27.66C1184.63 28.22 1184.11 28.7 1183.49 29.1C1182.89 29.48 1182.2 29.78 1181.42 30C1180.66 30.2 1179.84 30.3 1178.96 30.3ZM1182.41 20.16V19.68C1182.41 18.58 1182.11 17.73 1181.51 17.13C1180.91 16.51 1180.06 16.2 1178.96 16.2C1177.88 16.2 1177.03 16.51 1176.41 17.13C1175.81 17.73 1175.51 18.57 1175.51 19.65V20.16H1182.41ZM1190.8 13.5H1194.34V16.35H1194.61C1194.81 15.35 1195.31 14.58 1196.11 14.04C1196.91 13.48 1197.93 13.2 1199.17 13.2C1200.95 13.2 1202.34 13.75 1203.34 14.85C1204.34 15.95 1204.84 17.47 1204.84 19.41V20.61H1200.91V19.74C1200.91 18.68 1200.62 17.86 1200.04 17.28C1199.46 16.68 1198.66 16.38 1197.64 16.38C1196.68 16.38 1195.92 16.68 1195.36 17.28C1194.82 17.88 1194.55 18.7 1194.55 19.74V30H1190.8V13.5ZM1214.31 30.3C1212.37 30.3 1210.82 29.91 1209.66 29.13C1208.52 28.33 1207.86 27.21 1207.68 25.77H1211.52C1211.64 26.29 1211.95 26.7 1212.45 27C1212.95 27.28 1213.57 27.42 1214.31 27.42H1215.51C1216.45 27.42 1217.17 27.24 1217.67 26.88C1218.19 26.5 1218.45 25.99 1218.45 25.35C1218.45 24.25 1217.6 23.58 1215.9 23.34L1213.56 23.07C1211.68 22.83 1210.29 22.31 1209.39 21.51C1208.49 20.71 1208.04 19.56 1208.04 18.06C1208.04 16.5 1208.58 15.3 1209.66 14.46C1210.76 13.62 1212.33 13.2 1214.37 13.2H1215.6C1217.42 13.2 1218.88 13.59 1219.98 14.37C1221.1 15.13 1221.76 16.2 1221.96 17.58H1218.12C1218.02 17.12 1217.74 16.76 1217.28 16.5C1216.84 16.22 1216.28 16.08 1215.6 16.08H1214.37C1212.61 16.08 1211.73 16.7 1211.73 17.94C1211.73 19 1212.47 19.62 1213.95 19.8L1216.38 20.13C1218.34 20.37 1219.79 20.91 1220.73 21.75C1221.67 22.57 1222.14 23.73 1222.14 25.23C1222.14 26.85 1221.57 28.1 1220.43 28.98C1219.29 29.86 1217.65 30.3 1215.51 30.3H1214.31ZM1232.93 30.3C1231.85 30.3 1230.86 30.15 1229.96 29.85C1229.08 29.53 1228.33 29.09 1227.71 28.53C1227.09 27.97 1226.61 27.29 1226.27 26.49C1225.93 25.69 1225.76 24.8 1225.76 23.82V19.65C1225.76 18.67 1225.93 17.78 1226.27 16.98C1226.61 16.18 1227.09 15.5 1227.71 14.94C1228.33 14.38 1229.08 13.95 1229.96 13.65C1230.86 13.35 1231.85 13.2 1232.93 13.2C1234.01 13.2 1234.99 13.36 1235.87 13.68C1236.75 13.98 1237.5 14.41 1238.12 14.97C1238.74 15.53 1239.22 16.21 1239.56 17.01C1239.9 17.81 1240.07 18.7 1240.07 19.68V22.68H1229.48V23.76C1229.48 24.86 1229.78 25.72 1230.38 26.34C1231 26.96 1231.85 27.27 1232.93 27.27C1233.75 27.27 1234.44 27.15 1235 26.91C1235.58 26.65 1235.99 26.28 1236.23 25.8H1239.92C1239.74 26.48 1239.44 27.1 1239.02 27.66C1238.6 28.22 1238.08 28.7 1237.46 29.1C1236.86 29.48 1236.17 29.78 1235.39 30C1234.63 30.2 1233.81 30.3 1232.93 30.3ZM1236.38 20.16V19.68C1236.38 18.58 1236.08 17.73 1235.48 17.13C1234.88 16.51 1234.03 16.2 1232.93 16.2C1231.85 16.2 1231 16.51 1230.38 17.13C1229.78 17.73 1229.48 18.57 1229.48 19.65V20.16H1236.38ZM1251.1 30.3C1250.02 30.3 1249.04 30.15 1248.16 29.85C1247.28 29.55 1246.53 29.12 1245.91 28.56C1245.29 28 1244.81 27.33 1244.47 26.55C1244.13 25.75 1243.96 24.86 1243.96 23.88V19.65C1243.96 18.67 1244.13 17.79 1244.47 17.01C1244.81 16.21 1245.29 15.53 1245.91 14.97C1246.53 14.41 1247.28 13.98 1248.16 13.68C1249.04 13.36 1250.02 13.2 1251.1 13.2C1252.06 13.2 1252.95 13.34 1253.77 13.62C1254.59 13.88 1255.31 14.27 1255.93 14.79C1256.55 15.29 1257.06 15.9 1257.46 16.62C1257.88 17.32 1258.16 18.12 1258.3 19.02H1254.55C1254.41 18.26 1254.03 17.65 1253.41 17.19C1252.79 16.71 1252.02 16.47 1251.1 16.47C1250.04 16.47 1249.21 16.75 1248.61 17.31C1248.01 17.87 1247.71 18.65 1247.71 19.65V23.88C1247.71 24.86 1248 25.63 1248.58 26.19C1249.18 26.75 1250.02 27.03 1251.1 27.03C1252 27.03 1252.76 26.8 1253.38 26.34C1254.02 25.86 1254.41 25.24 1254.55 24.48H1258.3C1258.16 25.38 1257.88 26.19 1257.46 26.91C1257.06 27.61 1256.54 28.22 1255.9 28.74C1255.28 29.24 1254.56 29.63 1253.74 29.91C1252.94 30.17 1252.06 30.3 1251.1 30.3ZM1261.26 13.5H1265.82V8.4H1269.57V13.5H1275.84V16.89H1269.57V24.9C1269.57 25.42 1269.72 25.84 1270.02 26.16C1270.34 26.46 1270.78 26.61 1271.34 26.61H1275.54V30H1271.07C1269.45 30 1268.17 29.54 1267.23 28.62C1266.29 27.7 1265.82 26.46 1265.82 24.9V16.89H1261.26V13.5ZM1280.38 26.58H1286.29V16.89H1281.13V13.5H1289.89V26.58H1294.66V30H1280.38V26.58ZM1285.21 9.03C1285.21 8.45 1285.4 7.98 1285.78 7.62C1286.18 7.24 1286.7 7.05 1287.34 7.05H1288.12C1288.76 7.05 1289.27 7.24 1289.65 7.62C1290.05 7.98 1290.25 8.45 1290.25 9.03C1290.25 9.63 1290.05 10.11 1289.65 10.47C1289.25 10.83 1288.73 11.01 1288.09 11.01H1287.34C1286.7 11.01 1286.18 10.83 1285.78 10.47C1285.4 10.11 1285.21 9.63 1285.21 9.03ZM1301.46 23.76C1301.46 24.76 1301.76 25.55 1302.36 26.13C1302.98 26.71 1303.82 27 1304.88 27C1305.94 27 1306.77 26.71 1307.37 26.13C1307.99 25.55 1308.3 24.76 1308.3 23.76V19.71C1308.3 18.71 1307.99 17.92 1307.37 17.34C1306.77 16.76 1305.94 16.47 1304.88 16.47C1303.84 16.47 1303.01 16.76 1302.39 17.34C1301.77 17.92 1301.46 18.71 1301.46 19.71V23.76ZM1297.71 19.71C1297.71 18.73 1297.88 17.84 1298.22 17.04C1298.56 16.24 1299.04 15.56 1299.66 15C1300.3 14.42 1301.06 13.98 1301.94 13.68C1302.82 13.36 1303.8 13.2 1304.88 13.2C1305.96 13.2 1306.94 13.36 1307.82 13.68C1308.7 13.98 1309.45 14.42 1310.07 15C1310.71 15.56 1311.2 16.24 1311.54 17.04C1311.88 17.84 1312.05 18.73 1312.05 19.71V23.76C1312.05 24.74 1311.88 25.64 1311.54 26.46C1311.2 27.26 1310.72 27.95 1310.1 28.53C1309.48 29.09 1308.72 29.53 1307.82 29.85C1306.94 30.15 1305.96 30.3 1304.88 30.3C1303.8 30.3 1302.82 30.14 1301.94 29.82C1301.06 29.5 1300.3 29.06 1299.66 28.5C1299.04 27.92 1298.56 27.23 1298.22 26.43C1297.88 25.63 1297.71 24.74 1297.71 23.76V19.71ZM1316.03 30V13.5H1319.6V16.35H1319.87C1320.05 15.35 1320.52 14.58 1321.28 14.04C1322.04 13.48 1323.02 13.2 1324.22 13.2C1325.88 13.2 1327.2 13.74 1328.18 14.82C1329.16 15.9 1329.65 17.36 1329.65 19.2V30H1325.9V19.65C1325.9 18.65 1325.63 17.87 1325.09 17.31C1324.55 16.73 1323.81 16.44 1322.87 16.44C1321.91 16.44 1321.15 16.74 1320.59 17.34C1320.05 17.92 1319.78 18.72 1319.78 19.74V30H1316.03ZM1358.7 26.55C1359.78 26.55 1360.64 26.24 1361.28 25.62C1361.92 24.98 1362.24 24.15 1362.24 23.13V15.24C1362.24 14.22 1361.92 13.4 1361.28 12.78C1360.64 12.16 1359.78 11.85 1358.7 11.85H1355.82V26.55H1358.7ZM1352.04 30V8.4H1358.7C1359.8 8.4 1360.8 8.57 1361.7 8.91C1362.6 9.23 1363.37 9.69 1364.01 10.29C1364.65 10.89 1365.14 11.61 1365.48 12.45C1365.84 13.29 1366.02 14.22 1366.02 15.24V23.13C1366.02 24.15 1365.84 25.09 1365.48 25.95C1365.14 26.79 1364.65 27.51 1364.01 28.11C1363.37 28.71 1362.6 29.18 1361.7 29.52C1360.8 29.84 1359.8 30 1358.7 30H1352.04ZM1370.33 26.58H1376.24V16.89H1371.08V13.5H1379.84V26.58H1384.61V30H1370.33V26.58ZM1375.16 9.03C1375.16 8.45 1375.35 7.98 1375.73 7.62C1376.13 7.24 1376.65 7.05 1377.29 7.05H1378.07C1378.71 7.05 1379.22 7.24 1379.6 7.62C1380 7.98 1380.2 8.45 1380.2 9.03C1380.2 9.63 1380 10.11 1379.6 10.47C1379.2 10.83 1378.68 11.01 1378.04 11.01H1377.29C1376.65 11.01 1376.13 10.83 1375.73 10.47C1375.35 10.11 1375.16 9.63 1375.16 9.03ZM1394.19 30.3C1392.25 30.3 1390.7 29.91 1389.54 29.13C1388.4 28.33 1387.74 27.21 1387.56 25.77H1391.4C1391.52 26.29 1391.83 26.7 1392.33 27C1392.83 27.28 1393.45 27.42 1394.19 27.42H1395.39C1396.33 27.42 1397.05 27.24 1397.55 26.88C1398.07 26.5 1398.33 25.99 1398.33 25.35C1398.33 24.25 1397.48 23.58 1395.78 23.34L1393.44 23.07C1391.56 22.83 1390.17 22.31 1389.27 21.51C1388.37 20.71 1387.92 19.56 1387.92 18.06C1387.92 16.5 1388.46 15.3 1389.54 14.46C1390.64 13.62 1392.21 13.2 1394.25 13.2H1395.48C1397.3 13.2 1398.76 13.59 1399.86 14.37C1400.98 15.13 1401.64 16.2 1401.84 17.58H1398C1397.9 17.12 1397.62 16.76 1397.16 16.5C1396.72 16.22 1396.16 16.08 1395.48 16.08H1394.25C1392.49 16.08 1391.61 16.7 1391.61 17.94C1391.61 19 1392.35 19.62 1393.83 19.8L1396.26 20.13C1398.22 20.37 1399.67 20.91 1400.61 21.75C1401.55 22.57 1402.02 23.73 1402.02 25.23C1402.02 26.85 1401.45 28.1 1400.31 28.98C1399.17 29.86 1397.53 30.3 1395.39 30.3H1394.19ZM1405.16 13.5H1409.72V8.4H1413.47V13.5H1419.74V16.89H1413.47V24.9C1413.47 25.42 1413.62 25.84 1413.92 26.16C1414.24 26.46 1414.68 26.61 1415.24 26.61H1419.44V30H1414.97C1413.35 30 1412.07 29.54 1411.13 28.62C1410.19 27.7 1409.72 26.46 1409.72 24.9V16.89H1405.16V13.5ZM1423.33 25.38C1423.33 24.56 1423.48 23.83 1423.78 23.19C1424.08 22.53 1424.51 21.97 1425.07 21.51C1425.63 21.05 1426.3 20.7 1427.08 20.46C1427.88 20.2 1428.77 20.07 1429.75 20.07H1433.89V18.66C1433.89 17.9 1433.6 17.3 1433.02 16.86C1432.46 16.4 1431.68 16.17 1430.68 16.17C1429.86 16.17 1429.17 16.32 1428.61 16.62C1428.05 16.92 1427.69 17.33 1427.53 17.85H1423.84C1424.1 16.41 1424.84 15.28 1426.06 14.46C1427.28 13.62 1428.82 13.2 1430.68 13.2C1431.74 13.2 1432.7 13.33 1433.56 13.59C1434.42 13.83 1435.15 14.19 1435.75 14.67C1436.35 15.13 1436.81 15.7 1437.13 16.38C1437.47 17.04 1437.64 17.78 1437.64 18.6V30H1434.1V26.76H1433.86C1433.66 27.84 1433.09 28.7 1432.15 29.34C1431.23 29.98 1430.08 30.3 1428.7 30.3C1427.06 30.3 1425.75 29.86 1424.77 28.98C1423.81 28.08 1423.33 26.88 1423.33 25.38ZM1429.99 27.36C1431.13 27.36 1432.06 27.09 1432.78 26.55C1433.52 25.99 1433.89 25.29 1433.89 24.45V22.53H1429.78C1428.94 22.53 1428.28 22.74 1427.8 23.16C1427.32 23.58 1427.08 24.17 1427.08 24.93C1427.08 25.69 1427.33 26.29 1427.83 26.73C1428.35 27.15 1429.07 27.36 1429.99 27.36ZM1441.95 30V13.5H1445.52V16.35H1445.79C1445.97 15.35 1446.44 14.58 1447.2 14.04C1447.96 13.48 1448.94 13.2 1450.14 13.2C1451.8 13.2 1453.12 13.74 1454.1 14.82C1455.08 15.9 1455.57 17.36 1455.57 19.2V30H1451.82V19.65C1451.82 18.65 1451.55 17.87 1451.01 17.31C1450.47 16.73 1449.73 16.44 1448.79 16.44C1447.83 16.44 1447.07 16.74 1446.51 17.34C1445.97 17.92 1445.7 18.72 1445.7 19.74V30H1441.95ZM1466.96 30.3C1465.88 30.3 1464.9 30.15 1464.02 29.85C1463.14 29.55 1462.39 29.12 1461.77 28.56C1461.15 28 1460.67 27.33 1460.33 26.55C1459.99 25.75 1459.82 24.86 1459.82 23.88V19.65C1459.82 18.67 1459.99 17.79 1460.33 17.01C1460.67 16.21 1461.15 15.53 1461.77 14.97C1462.39 14.41 1463.14 13.98 1464.02 13.68C1464.9 13.36 1465.88 13.2 1466.96 13.2C1467.92 13.2 1468.81 13.34 1469.63 13.62C1470.45 13.88 1471.17 14.27 1471.79 14.79C1472.41 15.29 1472.92 15.9 1473.32 16.62C1473.74 17.32 1474.02 18.12 1474.16 19.02H1470.41C1470.27 18.26 1469.89 17.65 1469.27 17.19C1468.65 16.71 1467.88 16.47 1466.96 16.47C1465.9 16.47 1465.07 16.75 1464.47 17.31C1463.87 17.87 1463.57 18.65 1463.57 19.65V23.88C1463.57 24.86 1463.86 25.63 1464.44 26.19C1465.04 26.75 1465.88 27.03 1466.96 27.03C1467.86 27.03 1468.62 26.8 1469.24 26.34C1469.88 25.86 1470.27 25.24 1470.41 24.48H1474.16C1474.02 25.38 1473.74 26.19 1473.32 26.91C1472.92 27.61 1472.4 28.22 1471.76 28.74C1471.14 29.24 1470.42 29.63 1469.6 29.91C1468.8 30.17 1467.92 30.3 1466.96 30.3ZM1484.77 30.3C1483.69 30.3 1482.7 30.15 1481.8 29.85C1480.92 29.53 1480.17 29.09 1479.55 28.53C1478.93 27.97 1478.45 27.29 1478.11 26.49C1477.77 25.69 1477.6 24.8 1477.6 23.82V19.65C1477.6 18.67 1477.77 17.78 1478.11 16.98C1478.45 16.18 1478.93 15.5 1479.55 14.94C1480.17 14.38 1480.92 13.95 1481.8 13.65C1482.7 13.35 1483.69 13.2 1484.77 13.2C1485.85 13.2 1486.83 13.36 1487.71 13.68C1488.59 13.98 1489.34 14.41 1489.96 14.97C1490.58 15.53 1491.06 16.21 1491.4 17.01C1491.74 17.81 1491.91 18.7 1491.91 19.68V22.68H1481.32V23.76C1481.32 24.86 1481.62 25.72 1482.22 26.34C1482.84 26.96 1483.69 27.27 1484.77 27.27C1485.59 27.27 1486.28 27.15 1486.84 26.91C1487.42 26.65 1487.83 26.28 1488.07 25.8H1491.76C1491.58 26.48 1491.28 27.1 1490.86 27.66C1490.44 28.22 1489.92 28.7 1489.3 29.1C1488.7 29.48 1488.01 29.78 1487.23 30C1486.47 30.2 1485.65 30.3 1484.77 30.3ZM1488.22 20.16V19.68C1488.22 18.58 1487.92 17.73 1487.32 17.13C1486.72 16.51 1485.87 16.2 1484.77 16.2C1483.69 16.2 1482.84 16.51 1482.22 17.13C1481.62 17.73 1481.32 18.57 1481.32 19.65V20.16H1488.22ZM1514.32 30V8.4H1527.61V11.7H1518.07V17.25H1526.56V20.55H1518.07V26.7H1527.61V30H1514.32ZM1532.58 13.5H1536.12V16.35H1536.39C1536.59 15.35 1537.09 14.58 1537.89 14.04C1538.69 13.48 1539.71 13.2 1540.95 13.2C1542.73 13.2 1544.12 13.75 1545.12 14.85C1546.12 15.95 1546.62 17.47 1546.62 19.41V20.61H1542.69V19.74C1542.69 18.68 1542.4 17.86 1541.82 17.28C1541.24 16.68 1540.44 16.38 1539.42 16.38C1538.46 16.38 1537.7 16.68 1537.14 17.28C1536.6 17.88 1536.33 18.7 1536.33 19.74V30H1532.58V13.5ZM1550.57 13.5H1554.11V16.35H1554.38C1554.58 15.35 1555.08 14.58 1555.88 14.04C1556.68 13.48 1557.7 13.2 1558.94 13.2C1560.72 13.2 1562.11 13.75 1563.11 14.85C1564.11 15.95 1564.61 17.47 1564.61 19.41V20.61H1560.68V19.74C1560.68 18.68 1560.39 17.86 1559.81 17.28C1559.23 16.68 1558.43 16.38 1557.41 16.38C1556.45 16.38 1555.69 16.68 1555.13 17.28C1554.59 17.88 1554.32 18.7 1554.32 19.74V30H1550.57V13.5ZM1571.29 23.76C1571.29 24.76 1571.59 25.55 1572.19 26.13C1572.81 26.71 1573.65 27 1574.71 27C1575.77 27 1576.6 26.71 1577.2 26.13C1577.82 25.55 1578.13 24.76 1578.13 23.76V19.71C1578.13 18.71 1577.82 17.92 1577.2 17.34C1576.6 16.76 1575.77 16.47 1574.71 16.47C1573.67 16.47 1572.84 16.76 1572.22 17.34C1571.6 17.92 1571.29 18.71 1571.29 19.71V23.76ZM1567.54 19.71C1567.54 18.73 1567.71 17.84 1568.05 17.04C1568.39 16.24 1568.87 15.56 1569.49 15C1570.13 14.42 1570.89 13.98 1571.77 13.68C1572.65 13.36 1573.63 13.2 1574.71 13.2C1575.79 13.2 1576.77 13.36 1577.65 13.68C1578.53 13.98 1579.28 14.42 1579.9 15C1580.54 15.56 1581.03 16.24 1581.37 17.04C1581.71 17.84 1581.88 18.73 1581.88 19.71V23.76C1581.88 24.74 1581.71 25.64 1581.37 26.46C1581.03 27.26 1580.55 27.95 1579.93 28.53C1579.31 29.09 1578.55 29.53 1577.65 29.85C1576.77 30.15 1575.79 30.3 1574.71 30.3C1573.63 30.3 1572.65 30.14 1571.77 29.82C1570.89 29.5 1570.13 29.06 1569.49 28.5C1568.87 27.92 1568.39 27.23 1568.05 26.43C1567.71 25.63 1567.54 24.74 1567.54 23.76V19.71ZM1586.55 13.5H1590.09V16.35H1590.36C1590.56 15.35 1591.06 14.58 1591.86 14.04C1592.66 13.48 1593.68 13.2 1594.92 13.2C1596.7 13.2 1598.09 13.75 1599.09 14.85C1600.09 15.95 1600.59 17.47 1600.59 19.41V20.61H1596.66V19.74C1596.66 18.68 1596.37 17.86 1595.79 17.28C1595.21 16.68 1594.41 16.38 1593.39 16.38C1592.43 16.38 1591.67 16.68 1591.11 17.28C1590.57 17.88 1590.3 18.7 1590.3 19.74V30H1586.55V13.5Z" fill="#D04646"/>
<path d="M1116 34.23L1601.7 34.23V35.58L1116 35.58V34.23Z" fill="#D04646"/>
<circle cx="629.93" cy="227.375" r="14" transform="rotate(5 629.93 227.375)" fill="#F2F2F2" stroke="#474747" stroke-width="6"/>
<circle cx="1496.93" cy="225.375" r="14" transform="rotate(5 1496.93 225.375)" fill="#F2F2F2" stroke="#474747" stroke-width="6"/>
<path d="M507.56 305.567V302.297H512.18V287.237H507.56V283.967H520.58V287.237H515.96V302.297H520.58V305.567H507.56ZM525.219 305.567V289.067H528.789V291.917H529.059C529.239 290.917 529.709 290.147 530.469 289.607C531.229 289.047 532.209 288.767 533.409 288.767C535.069 288.767 536.389 289.307 537.369 290.387C538.349 291.467 538.839 292.927 538.839 294.767V305.567H535.089V295.217C535.089 294.217 534.819 293.437 534.279 292.877C533.739 292.297 532.999 292.007 532.059 292.007C531.099 292.007 530.339 292.307 529.779 292.907C529.239 293.487 528.969 294.287 528.969 295.307V305.567H525.219ZM542.397 289.067H546.957V283.967H550.707V289.067H556.977V292.457H550.707V300.467C550.707 300.987 550.857 301.407 551.157 301.727C551.477 302.027 551.917 302.177 552.477 302.177H556.677V305.567H552.207C550.587 305.567 549.307 305.107 548.367 304.187C547.427 303.267 546.957 302.027 546.957 300.467V292.457H542.397V289.067ZM568.035 305.867C566.955 305.867 565.965 305.717 565.065 305.417C564.185 305.097 563.435 304.657 562.815 304.097C562.195 303.537 561.715 302.857 561.375 302.057C561.035 301.257 560.865 300.367 560.865 299.387V295.217C560.865 294.237 561.035 293.347 561.375 292.547C561.715 291.747 562.195 291.067 562.815 290.507C563.435 289.947 564.185 289.517 565.065 289.217C565.965 288.917 566.955 288.767 568.035 288.767C569.115 288.767 570.095 288.927 570.975 289.247C571.855 289.547 572.605 289.977 573.225 290.537C573.845 291.097 574.325 291.777 574.665 292.577C575.005 293.377 575.175 294.267 575.175 295.247V298.247H564.585V299.327C564.585 300.427 564.885 301.287 565.485 301.907C566.105 302.527 566.955 302.837 568.035 302.837C568.855 302.837 569.545 302.717 570.105 302.477C570.685 302.217 571.095 301.847 571.335 301.367H575.025C574.845 302.047 574.545 302.667 574.125 303.227C573.705 303.787 573.185 304.267 572.565 304.667C571.965 305.047 571.275 305.347 570.495 305.567C569.735 305.767 568.915 305.867 568.035 305.867ZM571.485 295.727V295.247C571.485 294.147 571.185 293.297 570.585 292.697C569.985 292.077 569.135 291.767 568.035 291.767C566.955 291.767 566.105 292.077 565.485 292.697C564.885 293.297 564.585 294.137 564.585 295.217V295.727H571.485ZM579.873 289.067H583.413V291.917H583.683C583.883 290.917 584.383 290.147 585.183 289.607C585.983 289.047 587.003 288.767 588.243 288.767C590.023 288.767 591.413 289.317 592.413 290.417C593.413 291.517 593.913 293.037 593.913 294.977V296.177H589.983V295.307C589.983 294.247 589.693 293.427 589.113 292.847C588.533 292.247 587.733 291.947 586.713 291.947C585.753 291.947 584.993 292.247 584.433 292.847C583.893 293.447 583.623 294.267 583.623 295.307V305.567H579.873V289.067ZM603.382 305.867C601.442 305.867 599.892 305.477 598.732 304.697C597.592 303.897 596.932 302.777 596.752 301.337H600.592C600.712 301.857 601.022 302.267 601.522 302.567C602.022 302.847 602.642 302.987 603.382 302.987H604.582C605.522 302.987 606.242 302.807 606.742 302.447C607.262 302.067 607.522 301.557 607.522 300.917C607.522 299.817 606.672 299.147 604.972 298.907L602.632 298.637C600.752 298.397 599.362 297.877 598.462 297.077C597.562 296.277 597.112 295.127 597.112 293.627C597.112 292.067 597.652 290.867 598.732 290.027C599.832 289.187 601.402 288.767 603.442 288.767H604.672C606.492 288.767 607.952 289.157 609.052 289.937C610.172 290.697 610.832 291.767 611.032 293.147H607.192C607.092 292.687 606.812 292.327 606.352 292.067C605.912 291.787 605.352 291.647 604.672 291.647H603.442C601.682 291.647 600.802 292.267 600.802 293.507C600.802 294.567 601.542 295.187 603.022 295.367L605.452 295.697C607.412 295.937 608.862 296.477 609.802 297.317C610.742 298.137 611.212 299.297 611.212 300.797C611.212 302.417 610.642 303.667 609.502 304.547C608.362 305.427 606.722 305.867 604.582 305.867H603.382ZM622 305.867C620.92 305.867 619.93 305.717 619.03 305.417C618.15 305.097 617.4 304.657 616.78 304.097C616.16 303.537 615.68 302.857 615.34 302.057C615 301.257 614.83 300.367 614.83 299.387V295.217C614.83 294.237 615 293.347 615.34 292.547C615.68 291.747 616.16 291.067 616.78 290.507C617.4 289.947 618.15 289.517 619.03 289.217C619.93 288.917 620.92 288.767 622 288.767C623.08 288.767 624.06 288.927 624.94 289.247C625.82 289.547 626.57 289.977 627.19 290.537C627.81 291.097 628.29 291.777 628.63 292.577C628.97 293.377 629.14 294.267 629.14 295.247V298.247H618.55V299.327C618.55 300.427 618.85 301.287 619.45 301.907C620.07 302.527 620.92 302.837 622 302.837C622.82 302.837 623.51 302.717 624.07 302.477C624.65 302.217 625.06 301.847 625.3 301.367H628.99C628.81 302.047 628.51 302.667 628.09 303.227C627.67 303.787 627.15 304.267 626.53 304.667C625.93 305.047 625.24 305.347 624.46 305.567C623.7 305.767 622.88 305.867 622 305.867ZM625.45 295.727V295.247C625.45 294.147 625.15 293.297 624.55 292.697C623.95 292.077 623.1 291.767 622 291.767C620.92 291.767 620.07 292.077 619.45 292.697C618.85 293.297 618.55 294.137 618.55 295.217V295.727H625.45ZM640.168 305.867C639.088 305.867 638.108 305.717 637.228 305.417C636.348 305.117 635.598 304.687 634.978 304.127C634.358 303.567 633.878 302.897 633.538 302.117C633.198 301.317 633.028 300.427 633.028 299.447V295.217C633.028 294.237 633.198 293.357 633.538 292.577C633.878 291.777 634.358 291.097 634.978 290.537C635.598 289.977 636.348 289.547 637.228 289.247C638.108 288.927 639.088 288.767 640.168 288.767C641.128 288.767 642.018 288.907 642.838 289.187C643.658 289.447 644.378 289.837 644.998 290.357C645.618 290.857 646.128 291.467 646.528 292.187C646.948 292.887 647.228 293.687 647.368 294.587H643.618C643.478 293.827 643.098 293.217 642.478 292.757C641.858 292.277 641.088 292.037 640.168 292.037C639.108 292.037 638.278 292.317 637.678 292.877C637.078 293.437 636.778 294.217 636.778 295.217V299.447C636.778 300.427 637.068 301.197 637.648 301.757C638.248 302.317 639.088 302.597 640.168 302.597C641.068 302.597 641.828 302.367 642.448 301.907C643.088 301.427 643.478 300.807 643.618 300.047H647.368C647.228 300.947 646.948 301.757 646.528 302.477C646.128 303.177 645.608 303.787 644.968 304.307C644.348 304.807 643.628 305.197 642.808 305.477C642.008 305.737 641.128 305.867 640.168 305.867ZM650.327 289.067H654.887V283.967H658.637V289.067H664.907V292.457H658.637V300.467C658.637 300.987 658.787 301.407 659.087 301.727C659.407 302.027 659.847 302.177 660.407 302.177H664.607V305.567H660.137C658.517 305.567 657.237 305.107 656.297 304.187C655.357 303.267 654.887 302.027 654.887 300.467V292.457H650.327V289.067ZM669.455 302.147H675.365V292.457H670.205V289.067H678.965V302.147H683.735V305.567H669.455V302.147ZM674.285 284.597C674.285 284.017 674.475 283.547 674.855 283.187C675.255 282.807 675.775 282.617 676.415 282.617H677.195C677.835 282.617 678.345 282.807 678.725 283.187C679.125 283.547 679.325 284.017 679.325 284.597C679.325 285.197 679.125 285.677 678.725 286.037C678.325 286.397 677.805 286.577 677.165 286.577H676.415C675.775 286.577 675.255 286.397 674.855 286.037C674.475 285.677 674.285 285.197 674.285 284.597ZM690.533 299.327C690.533 300.327 690.833 301.117 691.433 301.697C692.053 302.277 692.893 302.567 693.953 302.567C695.013 302.567 695.843 302.277 696.443 301.697C697.063 301.117 697.373 300.327 697.373 299.327V295.277C697.373 294.277 697.063 293.487 696.443 292.907C695.843 292.327 695.013 292.037 693.953 292.037C692.913 292.037 692.083 292.327 691.463 292.907C690.843 293.487 690.533 294.277 690.533 295.277V299.327ZM686.783 295.277C686.783 294.297 686.953 293.407 687.293 292.607C687.633 291.807 688.113 291.127 688.733 290.567C689.373 289.987 690.133 289.547 691.013 289.247C691.893 288.927 692.873 288.767 693.953 288.767C695.033 288.767 696.013 288.927 696.893 289.247C697.773 289.547 698.523 289.987 699.143 290.567C699.783 291.127 700.273 291.807 700.613 292.607C700.953 293.407 701.123 294.297 701.123 295.277V299.327C701.123 300.307 700.953 301.207 700.613 302.027C700.273 302.827 699.793 303.517 699.173 304.097C698.553 304.657 697.793 305.097 696.893 305.417C696.013 305.717 695.033 305.867 693.953 305.867C692.873 305.867 691.893 305.707 691.013 305.387C690.133 305.067 689.373 304.627 688.733 304.067C688.113 303.487 687.633 302.797 687.293 301.997C686.953 301.197 686.783 300.307 686.783 299.327V295.277ZM705.101 305.567V289.067H708.671V291.917H708.941C709.121 290.917 709.591 290.147 710.351 289.607C711.111 289.047 712.091 288.767 713.291 288.767C714.951 288.767 716.271 289.307 717.251 290.387C718.231 291.467 718.721 292.927 718.721 294.767V305.567H714.971V295.217C714.971 294.217 714.701 293.437 714.161 292.877C713.621 292.297 712.881 292.007 711.941 292.007C710.981 292.007 710.221 292.307 709.661 292.907C709.121 293.487 708.851 294.287 708.851 295.307V305.567H705.101ZM570.429 320.967H584.049V324.417H574.149V329.967H583.269V333.417H574.209V342.567H570.429V320.967ZM591.598 336.327C591.598 337.327 591.898 338.117 592.498 338.697C593.118 339.277 593.958 339.567 595.018 339.567C596.078 339.567 596.908 339.277 597.508 338.697C598.128 338.117 598.438 337.327 598.438 336.327V332.277C598.438 331.277 598.128 330.487 597.508 329.907C596.908 329.327 596.078 329.037 595.018 329.037C593.978 329.037 593.148 329.327 592.528 329.907C591.908 330.487 591.598 331.277 591.598 332.277V336.327ZM587.848 332.277C587.848 331.297 588.018 330.407 588.358 329.607C588.698 328.807 589.178 328.127 589.798 327.567C590.438 326.987 591.198 326.547 592.078 326.247C592.958 325.927 593.938 325.767 595.018 325.767C596.098 325.767 597.078 325.927 597.958 326.247C598.838 326.547 599.588 326.987 600.208 327.567C600.848 328.127 601.338 328.807 601.678 329.607C602.018 330.407 602.188 331.297 602.188 332.277V336.327C602.188 337.307 602.018 338.207 601.678 339.027C601.338 339.827 600.858 340.517 600.238 341.097C599.618 341.657 598.858 342.097 597.958 342.417C597.078 342.717 596.098 342.867 595.018 342.867C593.938 342.867 592.958 342.707 592.078 342.387C591.198 342.067 590.438 341.627 589.798 341.067C589.178 340.487 588.698 339.797 588.358 338.997C588.018 338.197 587.848 337.307 587.848 336.327V332.277ZM606.256 326.067H610.036V336.387C610.036 338.527 611.026 339.597 613.006 339.597C615.006 339.597 616.006 338.527 616.006 336.387V326.067H619.756V336.387C619.756 338.447 619.156 340.047 617.956 341.187C616.776 342.307 615.126 342.867 613.006 342.867C610.866 342.867 609.206 342.297 608.026 341.157C606.846 340.017 606.256 338.427 606.256 336.387V326.067ZM624.154 342.567V326.067H627.724V328.917H627.994C628.174 327.917 628.644 327.147 629.404 326.607C630.164 326.047 631.144 325.767 632.344 325.767C634.004 325.767 635.324 326.307 636.304 327.387C637.284 328.467 637.774 329.927 637.774 331.767V342.567H634.024V332.217C634.024 331.217 633.754 330.437 633.214 329.877C632.674 329.297 631.934 329.007 630.994 329.007C630.034 329.007 629.274 329.307 628.714 329.907C628.174 330.487 627.904 331.287 627.904 332.307V342.567H624.154ZM641.812 332.217C641.812 331.217 641.942 330.327 642.202 329.547C642.482 328.747 642.872 328.067 643.372 327.507C643.872 326.947 644.472 326.517 645.172 326.217C645.872 325.917 646.642 325.767 647.482 325.767C648.682 325.767 649.672 326.047 650.452 326.607C651.232 327.167 651.712 327.937 651.892 328.917H652.192C652.172 328.577 652.152 328.237 652.132 327.897C652.092 327.597 652.062 327.287 652.042 326.967C652.042 326.627 652.042 326.327 652.042 326.067V320.667H655.792V342.567H652.192V339.687H651.892C651.712 340.687 651.232 341.467 650.452 342.027C649.672 342.587 648.682 342.867 647.482 342.867C646.642 342.867 645.872 342.717 645.172 342.417C644.472 342.117 643.872 341.687 643.372 341.127C642.872 340.547 642.482 339.857 642.202 339.057C641.942 338.237 641.812 337.327 641.812 336.327V332.217ZM648.832 339.597C649.812 339.597 650.592 339.297 651.172 338.697C651.752 338.097 652.042 337.307 652.042 336.327V332.307C652.042 331.307 651.742 330.507 651.142 329.907C650.562 329.307 649.792 329.007 648.832 329.007C647.812 329.007 647.012 329.307 646.432 329.907C645.852 330.487 645.562 331.287 645.562 332.307V336.237C645.562 337.257 645.852 338.077 646.432 338.697C647.012 339.297 647.812 339.597 648.832 339.597Z" fill="#474747"/>
<path d="M519 275.567L519 217.567" stroke="#474747" stroke-width="2" stroke-linecap="round"/>
<path d="M1374.56 303.567V300.297H1379.18V285.237H1374.56V281.967H1387.58V285.237H1382.96V300.297H1387.58V303.567H1374.56ZM1392.22 303.567V287.067H1395.79V289.917H1396.06C1396.24 288.917 1396.71 288.147 1397.47 287.607C1398.23 287.047 1399.21 286.767 1400.41 286.767C1402.07 286.767 1403.39 287.307 1404.37 288.387C1405.35 289.467 1405.84 290.927 1405.84 292.767V303.567H1402.09V293.217C1402.09 292.217 1401.82 291.437 1401.28 290.877C1400.74 290.297 1400 290.007 1399.06 290.007C1398.1 290.007 1397.34 290.307 1396.78 290.907C1396.24 291.487 1395.97 292.287 1395.97 293.307V303.567H1392.22ZM1409.4 287.067H1413.96V281.967H1417.71V287.067H1423.98V290.457H1417.71V298.467C1417.71 298.987 1417.86 299.407 1418.16 299.727C1418.48 300.027 1418.92 300.177 1419.48 300.177H1423.68V303.567H1419.21C1417.59 303.567 1416.31 303.107 1415.37 302.187C1414.43 301.267 1413.96 300.027 1413.96 298.467V290.457H1409.4V287.067ZM1435.04 303.867C1433.96 303.867 1432.97 303.717 1432.07 303.417C1431.19 303.097 1430.44 302.657 1429.82 302.097C1429.2 301.537 1428.72 300.857 1428.38 300.057C1428.04 299.257 1427.87 298.367 1427.87 297.387V293.217C1427.87 292.237 1428.04 291.347 1428.38 290.547C1428.72 289.747 1429.2 289.067 1429.82 288.507C1430.44 287.947 1431.19 287.517 1432.07 287.217C1432.97 286.917 1433.96 286.767 1435.04 286.767C1436.12 286.767 1437.1 286.927 1437.98 287.247C1438.86 287.547 1439.61 287.977 1440.23 288.537C1440.85 289.097 1441.33 289.777 1441.67 290.577C1442.01 291.377 1442.18 292.267 1442.18 293.247V296.247H1431.59V297.327C1431.59 298.427 1431.89 299.287 1432.49 299.907C1433.11 300.527 1433.96 300.837 1435.04 300.837C1435.86 300.837 1436.55 300.717 1437.11 300.477C1437.69 300.217 1438.1 299.847 1438.34 299.367H1442.03C1441.85 300.047 1441.55 300.667 1441.13 301.227C1440.71 301.787 1440.19 302.267 1439.57 302.667C1438.97 303.047 1438.28 303.347 1437.5 303.567C1436.74 303.767 1435.92 303.867 1435.04 303.867ZM1438.49 293.727V293.247C1438.49 292.147 1438.19 291.297 1437.59 290.697C1436.99 290.077 1436.14 289.767 1435.04 289.767C1433.96 289.767 1433.11 290.077 1432.49 290.697C1431.89 291.297 1431.59 292.137 1431.59 293.217V293.727H1438.49ZM1446.87 287.067H1450.41V289.917H1450.68C1450.88 288.917 1451.38 288.147 1452.18 287.607C1452.98 287.047 1454 286.767 1455.24 286.767C1457.02 286.767 1458.41 287.317 1459.41 288.417C1460.41 289.517 1460.91 291.037 1460.91 292.977V294.177H1456.98V293.307C1456.98 292.247 1456.69 291.427 1456.11 290.847C1455.53 290.247 1454.73 289.947 1453.71 289.947C1452.75 289.947 1451.99 290.247 1451.43 290.847C1450.89 291.447 1450.62 292.267 1450.62 293.307V303.567H1446.87V287.067ZM1470.38 303.867C1468.44 303.867 1466.89 303.477 1465.73 302.697C1464.59 301.897 1463.93 300.777 1463.75 299.337H1467.59C1467.71 299.857 1468.02 300.267 1468.52 300.567C1469.02 300.847 1469.64 300.987 1470.38 300.987H1471.58C1472.52 300.987 1473.24 300.807 1473.74 300.447C1474.26 300.067 1474.52 299.557 1474.52 298.917C1474.52 297.817 1473.67 297.147 1471.97 296.907L1469.63 296.637C1467.75 296.397 1466.36 295.877 1465.46 295.077C1464.56 294.277 1464.11 293.127 1464.11 291.627C1464.11 290.067 1464.65 288.867 1465.73 288.027C1466.83 287.187 1468.4 286.767 1470.44 286.767H1471.67C1473.49 286.767 1474.95 287.157 1476.05 287.937C1477.17 288.697 1477.83 289.767 1478.03 291.147H1474.19C1474.09 290.687 1473.81 290.327 1473.35 290.067C1472.91 289.787 1472.35 289.647 1471.67 289.647H1470.44C1468.68 289.647 1467.8 290.267 1467.8 291.507C1467.8 292.567 1468.54 293.187 1470.02 293.367L1472.45 293.697C1474.41 293.937 1475.86 294.477 1476.8 295.317C1477.74 296.137 1478.21 297.297 1478.21 298.797C1478.21 300.417 1477.64 301.667 1476.5 302.547C1475.36 303.427 1473.72 303.867 1471.58 303.867H1470.38ZM1489 303.867C1487.92 303.867 1486.93 303.717 1486.03 303.417C1485.15 303.097 1484.4 302.657 1483.78 302.097C1483.16 301.537 1482.68 300.857 1482.34 300.057C1482 299.257 1481.83 298.367 1481.83 297.387V293.217C1481.83 292.237 1482 291.347 1482.34 290.547C1482.68 289.747 1483.16 289.067 1483.78 288.507C1484.4 287.947 1485.15 287.517 1486.03 287.217C1486.93 286.917 1487.92 286.767 1489 286.767C1490.08 286.767 1491.06 286.927 1491.94 287.247C1492.82 287.547 1493.57 287.977 1494.19 288.537C1494.81 289.097 1495.29 289.777 1495.63 290.577C1495.97 291.377 1496.14 292.267 1496.14 293.247V296.247H1485.55V297.327C1485.55 298.427 1485.85 299.287 1486.45 299.907C1487.07 300.527 1487.92 300.837 1489 300.837C1489.82 300.837 1490.51 300.717 1491.07 300.477C1491.65 300.217 1492.06 299.847 1492.3 299.367H1495.99C1495.81 300.047 1495.51 300.667 1495.09 301.227C1494.67 301.787 1494.15 302.267 1493.53 302.667C1492.93 303.047 1492.24 303.347 1491.46 303.567C1490.7 303.767 1489.88 303.867 1489 303.867ZM1492.45 293.727V293.247C1492.45 292.147 1492.15 291.297 1491.55 290.697C1490.95 290.077 1490.1 289.767 1489 289.767C1487.92 289.767 1487.07 290.077 1486.45 290.697C1485.85 291.297 1485.55 292.137 1485.55 293.217V293.727H1492.45ZM1507.17 303.867C1506.09 303.867 1505.11 303.717 1504.23 303.417C1503.35 303.117 1502.6 302.687 1501.98 302.127C1501.36 301.567 1500.88 300.897 1500.54 300.117C1500.2 299.317 1500.03 298.427 1500.03 297.447V293.217C1500.03 292.237 1500.2 291.357 1500.54 290.577C1500.88 289.777 1501.36 289.097 1501.98 288.537C1502.6 287.977 1503.35 287.547 1504.23 287.247C1505.11 286.927 1506.09 286.767 1507.17 286.767C1508.13 286.767 1509.02 286.907 1509.84 287.187C1510.66 287.447 1511.38 287.837 1512 288.357C1512.62 288.857 1513.13 289.467 1513.53 290.187C1513.95 290.887 1514.23 291.687 1514.37 292.587H1510.62C1510.48 291.827 1510.1 291.217 1509.48 290.757C1508.86 290.277 1508.09 290.037 1507.17 290.037C1506.11 290.037 1505.28 290.317 1504.68 290.877C1504.08 291.437 1503.78 292.217 1503.78 293.217V297.447C1503.78 298.427 1504.07 299.197 1504.65 299.757C1505.25 300.317 1506.09 300.597 1507.17 300.597C1508.07 300.597 1508.83 300.367 1509.45 299.907C1510.09 299.427 1510.48 298.807 1510.62 298.047H1514.37C1514.23 298.947 1513.95 299.757 1513.53 300.477C1513.13 301.177 1512.61 301.787 1511.97 302.307C1511.35 302.807 1510.63 303.197 1509.81 303.477C1509.01 303.737 1508.13 303.867 1507.17 303.867ZM1517.33 287.067H1521.89V281.967H1525.64V287.067H1531.91V290.457H1525.64V298.467C1525.64 298.987 1525.79 299.407 1526.09 299.727C1526.41 300.027 1526.85 300.177 1527.41 300.177H1531.61V303.567H1527.14C1525.52 303.567 1524.24 303.107 1523.3 302.187C1522.36 301.267 1521.89 300.027 1521.89 298.467V290.457H1517.33V287.067ZM1536.45 300.147H1542.36V290.457H1537.2V287.067H1545.96V300.147H1550.73V303.567H1536.45V300.147ZM1541.28 282.597C1541.28 282.017 1541.47 281.547 1541.85 281.187C1542.25 280.807 1542.77 280.617 1543.41 280.617H1544.19C1544.83 280.617 1545.34 280.807 1545.72 281.187C1546.12 281.547 1546.32 282.017 1546.32 282.597C1546.32 283.197 1546.12 283.677 1545.72 284.037C1545.32 284.397 1544.8 284.577 1544.16 284.577H1543.41C1542.77 284.577 1542.25 284.397 1541.85 284.037C1541.47 283.677 1541.28 283.197 1541.28 282.597ZM1557.53 297.327C1557.53 298.327 1557.83 299.117 1558.43 299.697C1559.05 300.277 1559.89 300.567 1560.95 300.567C1562.01 300.567 1562.84 300.277 1563.44 299.697C1564.06 299.117 1564.37 298.327 1564.37 297.327V293.277C1564.37 292.277 1564.06 291.487 1563.44 290.907C1562.84 290.327 1562.01 290.037 1560.95 290.037C1559.91 290.037 1559.08 290.327 1558.46 290.907C1557.84 291.487 1557.53 292.277 1557.53 293.277V297.327ZM1553.78 293.277C1553.78 292.297 1553.95 291.407 1554.29 290.607C1554.63 289.807 1555.11 289.127 1555.73 288.567C1556.37 287.987 1557.13 287.547 1558.01 287.247C1558.89 286.927 1559.87 286.767 1560.95 286.767C1562.03 286.767 1563.01 286.927 1563.89 287.247C1564.77 287.547 1565.52 287.987 1566.14 288.567C1566.78 289.127 1567.27 289.807 1567.61 290.607C1567.95 291.407 1568.12 292.297 1568.12 293.277V297.327C1568.12 298.307 1567.95 299.207 1567.61 300.027C1567.27 300.827 1566.79 301.517 1566.17 302.097C1565.55 302.657 1564.79 303.097 1563.89 303.417C1563.01 303.717 1562.03 303.867 1560.95 303.867C1559.87 303.867 1558.89 303.707 1558.01 303.387C1557.13 303.067 1556.37 302.627 1555.73 302.067C1555.11 301.487 1554.63 300.797 1554.29 299.997C1553.95 299.197 1553.78 298.307 1553.78 297.327V293.277ZM1572.1 303.567V287.067H1575.67V289.917H1575.94C1576.12 288.917 1576.59 288.147 1577.35 287.607C1578.11 287.047 1579.09 286.767 1580.29 286.767C1581.95 286.767 1583.27 287.307 1584.25 288.387C1585.23 289.467 1585.72 290.927 1585.72 292.767V303.567H1581.97V293.217C1581.97 292.217 1581.7 291.437 1581.16 290.877C1580.62 290.297 1579.88 290.007 1578.94 290.007C1577.98 290.007 1577.22 290.307 1576.66 290.907C1576.12 291.487 1575.85 292.287 1575.85 293.307V303.567H1572.1ZM1437.43 318.967H1451.05V322.417H1441.15V327.967H1450.27V331.417H1441.21V340.567H1437.43V318.967ZM1458.6 334.327C1458.6 335.327 1458.9 336.117 1459.5 336.697C1460.12 337.277 1460.96 337.567 1462.02 337.567C1463.08 337.567 1463.91 337.277 1464.51 336.697C1465.13 336.117 1465.44 335.327 1465.44 334.327V330.277C1465.44 329.277 1465.13 328.487 1464.51 327.907C1463.91 327.327 1463.08 327.037 1462.02 327.037C1460.98 327.037 1460.15 327.327 1459.53 327.907C1458.91 328.487 1458.6 329.277 1458.6 330.277V334.327ZM1454.85 330.277C1454.85 329.297 1455.02 328.407 1455.36 327.607C1455.7 326.807 1456.18 326.127 1456.8 325.567C1457.44 324.987 1458.2 324.547 1459.08 324.247C1459.96 323.927 1460.94 323.767 1462.02 323.767C1463.1 323.767 1464.08 323.927 1464.96 324.247C1465.84 324.547 1466.59 324.987 1467.21 325.567C1467.85 326.127 1468.34 326.807 1468.68 327.607C1469.02 328.407 1469.19 329.297 1469.19 330.277V334.327C1469.19 335.307 1469.02 336.207 1468.68 337.027C1468.34 337.827 1467.86 338.517 1467.24 339.097C1466.62 339.657 1465.86 340.097 1464.96 340.417C1464.08 340.717 1463.1 340.867 1462.02 340.867C1460.94 340.867 1459.96 340.707 1459.08 340.387C1458.2 340.067 1457.44 339.627 1456.8 339.067C1456.18 338.487 1455.7 337.797 1455.36 336.997C1455.02 336.197 1454.85 335.307 1454.85 334.327V330.277ZM1473.26 324.067H1477.04V334.387C1477.04 336.527 1478.03 337.597 1480.01 337.597C1482.01 337.597 1483.01 336.527 1483.01 334.387V324.067H1486.76V334.387C1486.76 336.447 1486.16 338.047 1484.96 339.187C1483.78 340.307 1482.13 340.867 1480.01 340.867C1477.87 340.867 1476.21 340.297 1475.03 339.157C1473.85 338.017 1473.26 336.427 1473.26 334.387V324.067ZM1491.15 340.567V324.067H1494.72V326.917H1494.99C1495.17 325.917 1495.64 325.147 1496.4 324.607C1497.16 324.047 1498.14 323.767 1499.34 323.767C1501 323.767 1502.32 324.307 1503.3 325.387C1504.28 326.467 1504.77 327.927 1504.77 329.767V340.567H1501.02V330.217C1501.02 329.217 1500.75 328.437 1500.21 327.877C1499.67 327.297 1498.93 327.007 1497.99 327.007C1497.03 327.007 1496.27 327.307 1495.71 327.907C1495.17 328.487 1494.9 329.287 1494.9 330.307V340.567H1491.15ZM1508.81 330.217C1508.81 329.217 1508.94 328.327 1509.2 327.547C1509.48 326.747 1509.87 326.067 1510.37 325.507C1510.87 324.947 1511.47 324.517 1512.17 324.217C1512.87 323.917 1513.64 323.767 1514.48 323.767C1515.68 323.767 1516.67 324.047 1517.45 324.607C1518.23 325.167 1518.71 325.937 1518.89 326.917H1519.19C1519.17 326.577 1519.15 326.237 1519.13 325.897C1519.09 325.597 1519.06 325.287 1519.04 324.967C1519.04 324.627 1519.04 324.327 1519.04 324.067V318.667H1522.79V340.567H1519.19V337.687H1518.89C1518.71 338.687 1518.23 339.467 1517.45 340.027C1516.67 340.587 1515.68 340.867 1514.48 340.867C1513.64 340.867 1512.87 340.717 1512.17 340.417C1511.47 340.117 1510.87 339.687 1510.37 339.127C1509.87 338.547 1509.48 337.857 1509.2 337.057C1508.94 336.237 1508.81 335.327 1508.81 334.327V330.217ZM1515.83 337.597C1516.81 337.597 1517.59 337.297 1518.17 336.697C1518.75 336.097 1519.04 335.307 1519.04 334.327V330.307C1519.04 329.307 1518.74 328.507 1518.14 327.907C1517.56 327.307 1516.79 327.007 1515.83 327.007C1514.81 327.007 1514.01 327.307 1513.43 327.907C1512.85 328.487 1512.56 329.287 1512.56 330.307V334.237C1512.56 335.257 1512.85 336.077 1513.43 336.697C1514.01 337.297 1514.81 337.597 1515.83 337.597Z" fill="#474747"/>
<path d="M1386 273.567L1386 215.567" stroke="#474747" stroke-width="2" stroke-linecap="round"/>
<path d="M519 216L519 150" stroke="#D04646" stroke-width="4" stroke-linecap="round"/>
<path d="M537.691 177.22C535.603 177.943 534.497 180.222 535.22 182.309C535.943 184.397 538.222 185.503 540.309 184.78L537.691 177.22ZM540.309 184.78C564.578 176.373 582.147 149.793 593.596 120.769C605.144 91.4923 611 58.3924 611 35H603C603 57.33 597.356 89.4365 586.154 117.833C574.853 146.481 558.422 170.039 537.691 177.22L540.309 184.78Z" fill="#F2F2F2"/>
<path d="M544.29 179.13C543.257 179.523 542.738 180.678 543.13 181.71C543.523 182.743 544.678 183.262 545.71 182.87L544.29 179.13ZM545.71 182.87C556.47 178.782 565.76 170.23 573.625 159.203C581.5 148.162 588.043 134.506 593.268 119.978C603.714 90.9343 609 58.1025 609 35H605C605 57.62 599.801 89.9946 589.504 118.624C584.358 132.932 577.965 146.229 570.369 156.88C562.762 167.545 554.044 175.425 544.29 179.13L545.71 182.87Z" fill="#D04646"/>
<path d="M1288.03 151.644C1287.84 152.731 1288.56 153.771 1289.64 153.968C1290.73 154.165 1291.77 153.443 1291.97 152.356L1288.03 151.644ZM1291.97 152.356C1297.11 123.962 1313.74 104.24 1329.42 86.8286C1337.22 78.1752 1344.85 70.0055 1350.5 61.7086C1356.18 53.3763 1360 44.7151 1360 35H1356C1356 43.6051 1352.63 51.4791 1347.2 59.4568C1341.74 67.4701 1334.35 75.3853 1326.45 84.1518C1310.76 101.58 1293.39 122.038 1288.03 151.644L1291.97 152.356Z" fill="#D04646"/>
<circle cx="518.31" cy="216.25" r="11.9645" transform="rotate(5 518.31 216.25)" fill="#D04646"/>
<circle cx="1385.31" cy="214.25" r="11.9645" transform="rotate(5 1385.31 214.25)" fill="#D04646"/>
<path d="M1105.71 329.36H1113.24V334.67C1113.24 335.67 1113.07 336.58 1112.73 337.4C1112.39 338.22 1111.9 338.92 1111.26 339.5C1110.64 340.08 1109.89 340.53 1109.01 340.85C1108.13 341.15 1107.15 341.3 1106.07 341.3C1104.99 341.3 1104.01 341.14 1103.13 340.82C1102.25 340.5 1101.49 340.05 1100.85 339.47C1100.23 338.89 1099.75 338.2 1099.41 337.4C1099.07 336.58 1098.9 335.67 1098.9 334.67V325.73C1098.9 324.75 1099.07 323.86 1099.41 323.06C1099.75 322.24 1100.23 321.55 1100.85 320.99C1101.49 320.41 1102.25 319.97 1103.13 319.67C1104.01 319.35 1104.99 319.19 1106.07 319.19C1108.07 319.19 1109.7 319.71 1110.96 320.75C1112.24 321.79 1113.02 323.24 1113.3 325.1H1109.52C1109.4 324.32 1109.03 323.7 1108.41 323.24C1107.79 322.78 1107.01 322.55 1106.07 322.55C1105.03 322.55 1104.2 322.84 1103.58 323.42C1102.96 323.98 1102.65 324.75 1102.65 325.73V334.67C1102.65 335.69 1102.96 336.5 1103.58 337.1C1104.2 337.7 1105.03 338 1106.07 338C1107.13 338 1107.96 337.7 1108.56 337.1C1109.18 336.5 1109.49 335.69 1109.49 334.67V332.6H1105.71V329.36ZM1117.91 324.5H1121.45V327.35H1121.72C1121.92 326.35 1122.42 325.58 1123.22 325.04C1124.02 324.48 1125.04 324.2 1126.28 324.2C1128.06 324.2 1129.45 324.75 1130.45 325.85C1131.45 326.95 1131.95 328.47 1131.95 330.41V331.61H1128.02V330.74C1128.02 329.68 1127.73 328.86 1127.15 328.28C1126.57 327.68 1125.77 327.38 1124.75 327.38C1123.79 327.38 1123.03 327.68 1122.47 328.28C1121.93 328.88 1121.66 329.7 1121.66 330.74V341H1117.91V324.5ZM1138.63 334.76C1138.63 335.76 1138.93 336.55 1139.53 337.13C1140.15 337.71 1140.99 338 1142.05 338C1143.11 338 1143.94 337.71 1144.54 337.13C1145.16 336.55 1145.47 335.76 1145.47 334.76V330.71C1145.47 329.71 1145.16 328.92 1144.54 328.34C1143.94 327.76 1143.11 327.47 1142.05 327.47C1141.01 327.47 1140.18 327.76 1139.56 328.34C1138.94 328.92 1138.63 329.71 1138.63 330.71V334.76ZM1134.88 330.71C1134.88 329.73 1135.05 328.84 1135.39 328.04C1135.73 327.24 1136.21 326.56 1136.83 326C1137.47 325.42 1138.23 324.98 1139.11 324.68C1139.99 324.36 1140.97 324.2 1142.05 324.2C1143.13 324.2 1144.11 324.36 1144.99 324.68C1145.87 324.98 1146.62 325.42 1147.24 326C1147.88 326.56 1148.37 327.24 1148.71 328.04C1149.05 328.84 1149.22 329.73 1149.22 330.71V334.76C1149.22 335.74 1149.05 336.64 1148.71 337.46C1148.37 338.26 1147.89 338.95 1147.27 339.53C1146.65 340.09 1145.89 340.53 1144.99 340.85C1144.11 341.15 1143.13 341.3 1142.05 341.3C1140.97 341.3 1139.99 341.14 1139.11 340.82C1138.23 340.5 1137.47 340.06 1136.83 339.5C1136.21 338.92 1135.73 338.23 1135.39 337.43C1135.05 336.63 1134.88 335.74 1134.88 334.76V330.71ZM1153.29 324.5H1157.07V334.82C1157.07 336.96 1158.06 338.03 1160.04 338.03C1162.04 338.03 1163.04 336.96 1163.04 334.82V324.5H1166.79V334.82C1166.79 336.88 1166.19 338.48 1164.99 339.62C1163.81 340.74 1162.16 341.3 1160.04 341.3C1157.9 341.3 1156.24 340.73 1155.06 339.59C1153.88 338.45 1153.29 336.86 1153.29 334.82V324.5ZM1171.18 341V324.5H1174.75V327.35H1175.02C1175.2 326.35 1175.67 325.58 1176.43 325.04C1177.19 324.48 1178.17 324.2 1179.37 324.2C1181.03 324.2 1182.35 324.74 1183.33 325.82C1184.31 326.9 1184.8 328.36 1184.8 330.2V341H1181.05V330.65C1181.05 329.65 1180.78 328.87 1180.24 328.31C1179.7 327.73 1178.96 327.44 1178.02 327.44C1177.06 327.44 1176.3 327.74 1175.74 328.34C1175.2 328.92 1174.93 329.72 1174.93 330.74V341H1171.18ZM1188.84 330.65C1188.84 329.65 1188.97 328.76 1189.23 327.98C1189.51 327.18 1189.9 326.5 1190.4 325.94C1190.9 325.38 1191.5 324.95 1192.2 324.65C1192.9 324.35 1193.67 324.2 1194.51 324.2C1195.71 324.2 1196.7 324.48 1197.48 325.04C1198.26 325.6 1198.74 326.37 1198.92 327.35H1199.22C1199.2 327.01 1199.18 326.67 1199.16 326.33C1199.12 326.03 1199.09 325.72 1199.07 325.4C1199.07 325.06 1199.07 324.76 1199.07 324.5V319.1H1202.82V341H1199.22V338.12H1198.92C1198.74 339.12 1198.26 339.9 1197.48 340.46C1196.7 341.02 1195.71 341.3 1194.51 341.3C1193.67 341.3 1192.9 341.15 1192.2 340.85C1191.5 340.55 1190.9 340.12 1190.4 339.56C1189.9 338.98 1189.51 338.29 1189.23 337.49C1188.97 336.67 1188.84 335.76 1188.84 334.76V330.65ZM1195.86 338.03C1196.84 338.03 1197.62 337.73 1198.2 337.13C1198.78 336.53 1199.07 335.74 1199.07 334.76V330.74C1199.07 329.74 1198.77 328.94 1198.17 328.34C1197.59 327.74 1196.82 327.44 1195.86 327.44C1194.84 327.44 1194.04 327.74 1193.46 328.34C1192.88 328.92 1192.59 329.72 1192.59 330.74V334.67C1192.59 335.69 1192.88 336.51 1193.46 337.13C1194.04 337.73 1194.84 338.03 1195.86 338.03ZM1224.16 319.4H1239.82V322.85H1233.88V341H1230.1V322.85H1224.16V319.4ZM1243.83 324.5H1247.37V327.35H1247.64C1247.84 326.35 1248.34 325.58 1249.14 325.04C1249.94 324.48 1250.96 324.2 1252.2 324.2C1253.98 324.2 1255.37 324.75 1256.37 325.85C1257.37 326.95 1257.87 328.47 1257.87 330.41V331.61H1253.94V330.74C1253.94 329.68 1253.65 328.86 1253.07 328.28C1252.49 327.68 1251.69 327.38 1250.67 327.38C1249.71 327.38 1248.95 327.68 1248.39 328.28C1247.85 328.88 1247.58 329.7 1247.58 330.74V341H1243.83V324.5ZM1261.21 324.5H1264.99V334.82C1264.99 336.96 1265.98 338.03 1267.96 338.03C1269.96 338.03 1270.96 336.96 1270.96 334.82V324.5H1274.71V334.82C1274.71 336.88 1274.11 338.48 1272.91 339.62C1271.73 340.74 1270.08 341.3 1267.96 341.3C1265.82 341.3 1264.16 340.73 1262.98 339.59C1261.8 338.45 1261.21 336.86 1261.21 334.82V324.5ZM1278.3 324.5H1282.86V319.4H1286.61V324.5H1292.88V327.89H1286.61V335.9C1286.61 336.42 1286.76 336.84 1287.06 337.16C1287.38 337.46 1287.82 337.61 1288.38 337.61H1292.58V341H1288.11C1286.49 341 1285.21 340.54 1284.27 339.62C1283.33 338.7 1282.86 337.46 1282.86 335.9V327.89H1278.3V324.5ZM1297.1 319.1H1300.85V324.5C1300.85 324.8 1300.84 325.12 1300.82 325.46C1300.8 325.78 1300.77 326.08 1300.73 326.36C1300.71 326.64 1300.69 326.88 1300.67 327.08C1300.65 327.26 1300.64 327.35 1300.64 327.35H1300.94C1301.12 326.35 1301.59 325.58 1302.35 325.04C1303.11 324.48 1304.09 324.2 1305.29 324.2C1306.95 324.2 1308.27 324.74 1309.25 325.82C1310.23 326.9 1310.72 328.36 1310.72 330.2V341H1306.97V330.65C1306.97 329.65 1306.7 328.87 1306.16 328.31C1305.62 327.73 1304.88 327.44 1303.94 327.44C1302.98 327.44 1302.22 327.74 1301.66 328.34C1301.12 328.92 1300.85 329.72 1300.85 330.74V341H1297.1V319.1Z" fill="#474747"/>
<path d="M1181 311L1181 202" stroke="#474747" stroke-width="2" stroke-linecap="round"/>
<circle cx="1181.31" cy="196.962" r="11.9645" transform="rotate(5 1181.31 196.962)" fill="#D04646"/>
<path d="M358.03 8.4V17.04H364V8.4H367.75V30H364V20.49H358.03V30H354.25V8.4H358.03ZM378.988 30.3C377.908 30.3 376.918 30.15 376.018 29.85C375.138 29.53 374.388 29.09 373.768 28.53C373.148 27.97 372.668 27.29 372.328 26.49C371.988 25.69 371.818 24.8 371.818 23.82V19.65C371.818 18.67 371.988 17.78 372.328 16.98C372.668 16.18 373.148 15.5 373.768 14.94C374.388 14.38 375.138 13.95 376.018 13.65C376.918 13.35 377.908 13.2 378.988 13.2C380.068 13.2 381.048 13.36 381.928 13.68C382.808 13.98 383.558 14.41 384.178 14.97C384.798 15.53 385.278 16.21 385.618 17.01C385.958 17.81 386.128 18.7 386.128 19.68V22.68H375.538V23.76C375.538 24.86 375.838 25.72 376.438 26.34C377.058 26.96 377.908 27.27 378.988 27.27C379.808 27.27 380.498 27.15 381.058 26.91C381.638 26.65 382.048 26.28 382.288 25.8H385.978C385.798 26.48 385.498 27.1 385.078 27.66C384.658 28.22 384.138 28.7 383.518 29.1C382.918 29.48 382.228 29.78 381.448 30C380.688 30.2 379.868 30.3 378.988 30.3ZM382.438 20.16V19.68C382.438 18.58 382.138 17.73 381.538 17.13C380.938 16.51 380.088 16.2 378.988 16.2C377.908 16.2 377.058 16.51 376.438 17.13C375.838 17.73 375.538 18.57 375.538 19.65V20.16H382.438ZM390.467 26.58H396.377V16.89H391.217V13.5H399.977V26.58H404.747V30H390.467V26.58ZM395.297 9.03C395.297 8.45 395.487 7.98 395.867 7.62C396.267 7.24 396.787 7.05 397.427 7.05H398.207C398.847 7.05 399.357 7.24 399.737 7.62C400.137 7.98 400.337 8.45 400.337 9.03C400.337 9.63 400.137 10.11 399.737 10.47C399.337 10.83 398.817 11.01 398.177 11.01H397.427C396.787 11.01 396.267 10.83 395.867 10.47C395.487 10.11 395.297 9.63 395.297 9.03ZM407.705 19.59C407.705 18.63 407.835 17.76 408.095 16.98C408.375 16.18 408.765 15.5 409.265 14.94C409.765 14.38 410.365 13.95 411.065 13.65C411.765 13.35 412.545 13.2 413.405 13.2C414.645 13.2 415.665 13.5 416.465 14.1C417.265 14.68 417.765 15.48 417.965 16.5H418.175V13.5H421.775V28.98C421.775 29.9 421.615 30.72 421.295 31.44C420.975 32.18 420.515 32.81 419.915 33.33C419.315 33.85 418.585 34.25 417.725 34.53C416.885 34.81 415.945 34.95 414.905 34.95H410.495V31.83H414.905C415.865 31.83 416.625 31.58 417.185 31.08C417.745 30.58 418.025 29.88 418.025 28.98V28.65L418.145 25.35H417.965C417.765 26.37 417.255 27.18 416.435 27.78C415.635 28.36 414.625 28.65 413.405 28.65C412.545 28.65 411.765 28.5 411.065 28.2C410.365 27.9 409.765 27.47 409.265 26.91C408.765 26.35 408.375 25.68 408.095 24.9C407.835 24.1 407.705 23.22 407.705 22.26V19.59ZM411.485 22.17C411.485 23.19 411.775 23.99 412.355 24.57C412.935 25.13 413.735 25.41 414.755 25.41C415.755 25.41 416.545 25.12 417.125 24.54C417.725 23.96 418.025 23.17 418.025 22.17V19.68C418.025 18.68 417.725 17.89 417.125 17.31C416.545 16.73 415.755 16.44 414.755 16.44C413.735 16.44 412.935 16.73 412.355 17.31C411.775 17.89 411.485 18.68 411.485 19.68V22.17ZM426.113 8.1H429.863V13.5C429.863 13.8 429.853 14.12 429.833 14.46C429.813 14.78 429.783 15.08 429.743 15.36C429.723 15.64 429.703 15.88 429.683 16.08C429.663 16.26 429.653 16.35 429.653 16.35H429.953C430.133 15.35 430.603 14.58 431.363 14.04C432.123 13.48 433.103 13.2 434.303 13.2C435.963 13.2 437.283 13.74 438.263 14.82C439.243 15.9 439.733 17.36 439.733 19.2V30H435.983V19.65C435.983 18.65 435.713 17.87 435.173 17.31C434.633 16.73 433.893 16.44 432.953 16.44C431.993 16.44 431.233 16.74 430.673 17.34C430.133 17.92 429.863 18.72 429.863 19.74V30H426.113V8.1ZM443.291 13.5H447.851V8.4H451.601V13.5H457.871V16.89H451.601V24.9C451.601 25.42 451.751 25.84 452.051 26.16C452.371 26.46 452.811 26.61 453.371 26.61H457.571V30H453.101C451.481 30 450.201 29.54 449.261 28.62C448.321 27.7 447.851 26.46 447.851 24.9V16.89H443.291V13.5ZM486.768 26.55C487.848 26.55 488.708 26.24 489.348 25.62C489.988 24.98 490.308 24.15 490.308 23.13V15.24C490.308 14.22 489.988 13.4 489.348 12.78C488.708 12.16 487.848 11.85 486.768 11.85H483.888V26.55H486.768ZM480.108 30V8.4H486.768C487.868 8.4 488.868 8.57 489.768 8.91C490.668 9.23 491.438 9.69 492.078 10.29C492.718 10.89 493.208 11.61 493.548 12.45C493.908 13.29 494.088 14.22 494.088 15.24V23.13C494.088 24.15 493.908 25.09 493.548 25.95C493.208 26.79 492.718 27.51 492.078 28.11C491.438 28.71 490.668 29.18 489.768 29.52C488.868 29.84 487.868 30 486.768 30H480.108ZM498.396 26.58H504.306V16.89H499.146V13.5H507.906V26.58H512.676V30H498.396V26.58ZM503.226 9.03C503.226 8.45 503.416 7.98 503.796 7.62C504.196 7.24 504.716 7.05 505.356 7.05H506.136C506.776 7.05 507.286 7.24 507.666 7.62C508.066 7.98 508.266 8.45 508.266 9.03C508.266 9.63 508.066 10.11 507.666 10.47C507.266 10.83 506.746 11.01 506.106 11.01H505.356C504.716 11.01 504.196 10.83 503.796 10.47C503.416 10.11 503.226 9.63 503.226 9.03ZM515.515 18.54V15.15H520.045V12.81C520.045 11.37 520.515 10.23 521.455 9.39C522.415 8.53 523.695 8.1 525.295 8.1H530.125V11.4H525.385C524.905 11.4 524.525 11.54 524.245 11.82C523.965 12.08 523.825 12.44 523.825 12.9V15.15H530.125V18.54H523.825V30H520.045V18.54H515.515ZM533.503 18.54V15.15H538.033V12.81C538.033 11.37 538.503 10.23 539.443 9.39C540.403 8.53 541.683 8.1 543.283 8.1L548.113 8.1V11.4L543.373 11.4C542.893 11.4 542.513 11.54 542.233 11.82C541.953 12.08 541.813 12.44 541.813 12.9V15.15L548.113 15.15V18.54H541.813V30H538.033V18.54H533.503ZM558.871 30.3C557.791 30.3 556.801 30.15 555.901 29.85C555.021 29.53 554.271 29.09 553.651 28.53C553.031 27.97 552.551 27.29 552.211 26.49C551.871 25.69 551.701 24.8 551.701 23.82V19.65C551.701 18.67 551.871 17.78 552.211 16.98C552.551 16.18 553.031 15.5 553.651 14.94C554.271 14.38 555.021 13.95 555.901 13.65C556.801 13.35 557.791 13.2 558.871 13.2C559.951 13.2 560.931 13.36 561.811 13.68C562.691 13.98 563.441 14.41 564.061 14.97C564.681 15.53 565.161 16.21 565.501 17.01C565.841 17.81 566.011 18.7 566.011 19.68V22.68H555.421V23.76C555.421 24.86 555.721 25.72 556.321 26.34C556.941 26.96 557.791 27.27 558.871 27.27C559.691 27.27 560.381 27.15 560.941 26.91C561.521 26.65 561.931 26.28 562.171 25.8H565.861C565.681 26.48 565.381 27.1 564.961 27.66C564.541 28.22 564.021 28.7 563.401 29.1C562.801 29.48 562.111 29.78 561.331 30C560.571 30.2 559.751 30.3 558.871 30.3ZM562.321 20.16V19.68C562.321 18.58 562.021 17.73 561.421 17.13C560.821 16.51 559.971 16.2 558.871 16.2C557.791 16.2 556.941 16.51 556.321 17.13C555.721 17.73 555.421 18.57 555.421 19.65V20.16H562.321ZM570.709 13.5H574.249V16.35H574.519C574.719 15.35 575.219 14.58 576.019 14.04C576.819 13.48 577.839 13.2 579.079 13.2C580.859 13.2 582.249 13.75 583.249 14.85C584.249 15.95 584.749 17.47 584.749 19.41V20.61H580.819V19.74C580.819 18.68 580.529 17.86 579.949 17.28C579.369 16.68 578.569 16.38 577.549 16.38C576.589 16.38 575.829 16.68 575.269 17.28C574.729 17.88 574.459 18.7 574.459 19.74V30H570.709V13.5ZM594.848 30.3C593.768 30.3 592.778 30.15 591.878 29.85C590.998 29.53 590.248 29.09 589.628 28.53C589.008 27.97 588.528 27.29 588.188 26.49C587.848 25.69 587.678 24.8 587.678 23.82V19.65C587.678 18.67 587.848 17.78 588.188 16.98C588.528 16.18 589.008 15.5 589.628 14.94C590.248 14.38 590.998 13.95 591.878 13.65C592.778 13.35 593.768 13.2 594.848 13.2C595.928 13.2 596.908 13.36 597.788 13.68C598.668 13.98 599.418 14.41 600.038 14.97C600.658 15.53 601.138 16.21 601.478 17.01C601.818 17.81 601.988 18.7 601.988 19.68V22.68H591.398V23.76C591.398 24.86 591.698 25.72 592.298 26.34C592.918 26.96 593.768 27.27 594.848 27.27C595.668 27.27 596.358 27.15 596.918 26.91C597.498 26.65 597.908 26.28 598.148 25.8H601.838C601.658 26.48 601.358 27.1 600.938 27.66C600.518 28.22 599.998 28.7 599.378 29.1C598.778 29.48 598.088 29.78 597.308 30C596.548 30.2 595.728 30.3 594.848 30.3ZM598.298 20.16V19.68C598.298 18.58 597.998 17.73 597.398 17.13C596.798 16.51 595.948 16.2 594.848 16.2C593.768 16.2 592.918 16.51 592.298 17.13C591.698 17.73 591.398 18.57 591.398 19.65V20.16H598.298ZM605.996 30V13.5H609.566V16.35H609.836C610.016 15.35 610.486 14.58 611.246 14.04C612.006 13.48 612.986 13.2 614.186 13.2C615.846 13.2 617.166 13.74 618.146 14.82C619.126 15.9 619.616 17.36 619.616 19.2V30H615.866V19.65C615.866 18.65 615.596 17.87 615.056 17.31C614.516 16.73 613.776 16.44 612.836 16.44C611.876 16.44 611.116 16.74 610.556 17.34C610.016 17.92 609.746 18.72 609.746 19.74V30H605.996ZM631.004 30.3C629.924 30.3 628.944 30.15 628.064 29.85C627.184 29.55 626.434 29.12 625.814 28.56C625.194 28 624.714 27.33 624.374 26.55C624.034 25.75 623.864 24.86 623.864 23.88V19.65C623.864 18.67 624.034 17.79 624.374 17.01C624.714 16.21 625.194 15.53 625.814 14.97C626.434 14.41 627.184 13.98 628.064 13.68C628.944 13.36 629.924 13.2 631.004 13.2C631.964 13.2 632.854 13.34 633.674 13.62C634.494 13.88 635.214 14.27 635.834 14.79C636.454 15.29 636.964 15.9 637.364 16.62C637.784 17.32 638.064 18.12 638.204 19.02H634.454C634.314 18.26 633.934 17.65 633.314 17.19C632.694 16.71 631.924 16.47 631.004 16.47C629.944 16.47 629.114 16.75 628.514 17.31C627.914 17.87 627.614 18.65 627.614 19.65V23.88C627.614 24.86 627.904 25.63 628.484 26.19C629.084 26.75 629.924 27.03 631.004 27.03C631.904 27.03 632.664 26.8 633.284 26.34C633.924 25.86 634.314 25.24 634.454 24.48H638.204C638.064 25.38 637.784 26.19 637.364 26.91C636.964 27.61 636.444 28.22 635.804 28.74C635.184 29.24 634.464 29.63 633.644 29.91C632.844 30.17 631.964 30.3 631.004 30.3ZM648.813 30.3C647.733 30.3 646.743 30.15 645.843 29.85C644.963 29.53 644.213 29.09 643.593 28.53C642.973 27.97 642.493 27.29 642.153 26.49C641.813 25.69 641.643 24.8 641.643 23.82V19.65C641.643 18.67 641.813 17.78 642.153 16.98C642.493 16.18 642.973 15.5 643.593 14.94C644.213 14.38 644.963 13.95 645.843 13.65C646.743 13.35 647.733 13.2 648.813 13.2C649.893 13.2 650.873 13.36 651.753 13.68C652.633 13.98 653.383 14.41 654.003 14.97C654.623 15.53 655.103 16.21 655.443 17.01C655.783 17.81 655.953 18.7 655.953 19.68V22.68H645.363V23.76C645.363 24.86 645.663 25.72 646.263 26.34C646.883 26.96 647.733 27.27 648.813 27.27C649.633 27.27 650.323 27.15 650.883 26.91C651.463 26.65 651.873 26.28 652.113 25.8H655.803C655.623 26.48 655.323 27.1 654.903 27.66C654.483 28.22 653.963 28.7 653.343 29.1C652.743 29.48 652.053 29.78 651.273 30C650.513 30.2 649.693 30.3 648.813 30.3ZM652.263 20.16V19.68C652.263 18.58 651.963 17.73 651.363 17.13C650.763 16.51 649.913 16.2 648.813 16.2C647.733 16.2 646.883 16.51 646.263 17.13C645.663 17.73 645.363 18.57 645.363 19.65V20.16H652.263ZM678.369 30V8.4H691.659V11.7H682.119V17.25H690.609V20.55H682.119V26.7H691.659V30H678.369ZM696.627 13.5H700.167V16.35H700.437C700.637 15.35 701.137 14.58 701.937 14.04C702.737 13.48 703.757 13.2 704.997 13.2C706.777 13.2 708.167 13.75 709.167 14.85C710.167 15.95 710.667 17.47 710.667 19.41V20.61H706.737V19.74C706.737 18.68 706.447 17.86 705.867 17.28C705.287 16.68 704.487 16.38 703.467 16.38C702.507 16.38 701.747 16.68 701.187 17.28C700.647 17.88 700.377 18.7 700.377 19.74V30H696.627V13.5ZM714.616 13.5H718.156V16.35H718.426C718.626 15.35 719.126 14.58 719.926 14.04C720.726 13.48 721.746 13.2 722.986 13.2C724.766 13.2 726.156 13.75 727.156 14.85C728.156 15.95 728.656 17.47 728.656 19.41V20.61H724.726V19.74C724.726 18.68 724.436 17.86 723.856 17.28C723.276 16.68 722.476 16.38 721.456 16.38C720.496 16.38 719.736 16.68 719.176 17.28C718.636 17.88 718.366 18.7 718.366 19.74V30H714.616V13.5ZM735.334 23.76C735.334 24.76 735.634 25.55 736.234 26.13C736.854 26.71 737.694 27 738.754 27C739.814 27 740.644 26.71 741.244 26.13C741.864 25.55 742.174 24.76 742.174 23.76V19.71C742.174 18.71 741.864 17.92 741.244 17.34C740.644 16.76 739.814 16.47 738.754 16.47C737.714 16.47 736.884 16.76 736.264 17.34C735.644 17.92 735.334 18.71 735.334 19.71V23.76ZM731.584 19.71C731.584 18.73 731.754 17.84 732.094 17.04C732.434 16.24 732.914 15.56 733.534 15C734.174 14.42 734.934 13.98 735.814 13.68C736.694 13.36 737.674 13.2 738.754 13.2C739.834 13.2 740.814 13.36 741.694 13.68C742.574 13.98 743.324 14.42 743.944 15C744.584 15.56 745.074 16.24 745.414 17.04C745.754 17.84 745.924 18.73 745.924 19.71V23.76C745.924 24.74 745.754 25.64 745.414 26.46C745.074 27.26 744.594 27.95 743.974 28.53C743.354 29.09 742.594 29.53 741.694 29.85C740.814 30.15 739.834 30.3 738.754 30.3C737.674 30.3 736.694 30.14 735.814 29.82C734.934 29.5 734.174 29.06 733.534 28.5C732.914 27.92 732.434 27.23 732.094 26.43C731.754 25.63 731.584 24.74 731.584 23.76V19.71ZM750.592 13.5H754.132V16.35H754.402C754.602 15.35 755.102 14.58 755.902 14.04C756.702 13.48 757.722 13.2 758.962 13.2C760.742 13.2 762.132 13.75 763.132 14.85C764.132 15.95 764.632 17.47 764.632 19.41V20.61H760.702V19.74C760.702 18.68 760.412 17.86 759.832 17.28C759.252 16.68 758.452 16.38 757.432 16.38C756.472 16.38 755.712 16.68 755.152 17.28C754.612 17.88 754.342 18.7 754.342 19.74V30H750.592V13.5Z" fill="#D04646"/>
<path d="M352 34.23L765.742 34.23V35.58L352 35.58V34.23Z" fill="#D04646"/>
<path d="M523.712 214L523.537 213.827L523.537 213.336C523.537 213.105 523.537 212.951 523.537 212.874C523.537 212.797 523.576 212.729 523.654 212.672C523.732 212.614 523.8 212.566 523.858 212.527C523.917 212.489 524.053 212.412 524.267 212.296C524.48 212.181 524.714 211.998 524.967 211.748C526.542 210.573 527.728 208.928 528.525 206.81C529.322 204.692 529.73 202.613 529.75 200.573C529.75 200.323 529.779 200.169 529.837 200.111C529.896 200.053 530.11 200.024 530.479 200.024L531.5 200.024L532.433 200.024C532.822 200.024 533.055 200.053 533.133 200.111C533.211 200.169 533.25 200.313 533.25 200.544C533.25 202.219 532.9 203.971 532.2 205.799C530.605 209.361 528.253 212.017 525.142 213.769L524.733 214L523.712 214Z" fill="#D04646"/>
<path d="M531.5 162.976L530.479 162.976C530.129 162.976 529.925 162.947 529.867 162.889C529.808 162.831 529.769 162.677 529.75 162.427C529.75 159.693 529.254 157.374 528.262 155.468C527.271 153.562 526.172 152.157 524.967 151.252C524.792 151.098 524.587 150.944 524.354 150.79C524.121 150.636 523.936 150.521 523.8 150.444C523.664 150.367 523.596 150.299 523.596 150.241C523.557 150.203 523.537 150.01 523.537 149.664L523.537 149.173L523.712 149L524.733 149L525.142 149.231C528.253 150.983 530.605 153.639 532.2 157.2C532.9 159.029 533.25 160.781 533.25 162.456C533.25 162.706 533.221 162.85 533.162 162.889C533.104 162.927 532.9 162.956 532.55 162.976L531.5 162.976Z" fill="#D04646"/>
<path d="M531.5 194.783C530.644 194.783 530.149 194.783 530.013 194.783C529.876 194.783 529.808 194.735 529.808 194.638C529.769 194.561 529.75 194.417 529.75 194.205C529.75 192.55 530.1 190.817 530.8 189.008C532.394 185.446 534.747 182.79 537.858 181.038L538.267 180.807L539.287 180.807L539.462 180.98L539.462 181.471L539.462 181.587C539.462 181.779 539.462 181.904 539.462 181.962C539.462 182.02 539.424 182.077 539.346 182.135C539.268 182.193 539.2 182.241 539.142 182.28C539.083 182.318 538.937 182.405 538.704 182.539C538.471 182.674 538.237 182.847 538.004 183.059C536.429 184.311 535.243 185.966 534.446 188.026C533.649 190.086 533.25 192.155 533.25 194.234C533.25 194.484 533.221 194.638 533.163 194.696C533.104 194.754 532.89 194.783 532.521 194.783L531.5 194.783Z" fill="#D04646"/>
<path d="M539.462 182.02L539.287 182.193L538.267 182.193L537.858 181.962C534.747 180.21 532.394 177.554 530.8 173.992C530.236 172.568 529.896 171.076 529.779 169.516C529.779 169.459 529.779 169.343 529.779 169.17C529.779 168.997 529.769 168.872 529.75 168.795C529.75 168.525 529.779 168.361 529.838 168.304C529.896 168.246 530.081 168.217 530.392 168.217L531.5 168.217L532.521 168.217C532.871 168.217 533.075 168.246 533.133 168.304C533.192 168.361 533.231 168.515 533.25 168.766C533.25 171.326 533.785 173.713 534.854 175.927C535.924 178.141 537.382 179.758 539.229 180.778C539.346 180.855 539.414 180.922 539.433 180.98C539.453 181.038 539.462 181.221 539.462 181.529L539.462 182.02Z" fill="#D04646"/>
<g clip-path="url(#clip0_130_628)">
<path d="M533.25 201.951L529.75 201.951L529.75 192.855L533.25 192.855L533.25 201.951Z" fill="#D04646"/>
</g>
<g clip-path="url(#clip1_130_628)">
<path d="M533.25 170.145L529.75 170.145L529.75 161.049L533.25 161.049L533.25 170.145Z" fill="#D04646"/>
</g>
<path d="M1387.08 199.114L1386.5 199.402L1384.93 199.265C1384.2 199.2 1383.7 199.157 1383.46 199.135C1383.21 199.114 1383 199.02 1382.83 198.855C1382.66 198.689 1382.52 198.545 1382.4 198.422C1382.29 198.3 1382.07 198.017 1381.74 197.574C1381.4 197.131 1380.86 196.631 1380.1 196.076C1376.61 192.723 1371.56 189.985 1364.93 187.862C1358.3 185.74 1351.72 184.374 1345.21 183.767C1344.41 183.697 1343.92 183.598 1343.75 183.47C1343.57 183.341 1343.52 182.923 1343.58 182.213L1343.75 180.253L1343.91 178.46C1343.97 177.713 1344.1 177.273 1344.3 177.14C1344.5 177.007 1344.97 176.972 1345.7 177.037C1351.05 177.505 1356.59 178.667 1362.31 180.522C1373.42 184.579 1381.51 189.84 1386.59 196.305L1387.26 197.154L1387.08 199.114Z" fill="#D04646"/>
<path d="M1225.41 169.899L1225.24 171.859C1225.18 172.532 1225.05 172.916 1224.86 173.012C1224.66 173.107 1224.16 173.139 1223.36 173.107C1214.63 172.343 1207.14 172.647 1200.88 174.018C1194.63 175.39 1189.95 177.108 1186.86 179.17C1186.34 179.463 1185.81 179.812 1185.28 180.217C1184.75 180.622 1184.35 180.945 1184.08 181.185C1183.81 181.424 1183.59 181.536 1183.4 181.52C1183.27 181.584 1182.65 181.568 1181.55 181.471L1179.98 181.334L1179.46 180.949L1179.63 178.989L1180.43 178.269C1186.55 172.784 1195.43 169.008 1207.08 166.941C1213.04 166.107 1218.69 165.925 1224.04 166.393C1224.84 166.463 1225.3 166.559 1225.41 166.682C1225.52 166.805 1225.58 167.205 1225.58 167.882L1225.41 169.899Z" fill="#D04646"/>
<path d="M1327.01 178.787C1326.86 180.43 1326.78 181.382 1326.76 181.644C1326.73 181.905 1326.57 182.022 1326.26 181.996C1326.01 182.049 1325.54 182.046 1324.87 181.987C1319.58 181.524 1314.1 180.368 1308.44 178.517C1297.33 174.46 1289.24 169.199 1284.17 162.735L1283.5 161.886L1283.67 159.925L1284.26 159.638L1285.82 159.775L1286.19 159.807C1286.81 159.861 1287.21 159.896 1287.39 159.912C1287.58 159.928 1287.75 160.019 1287.93 160.185C1288.1 160.35 1288.24 160.494 1288.35 160.617C1288.47 160.74 1288.72 161.044 1289.11 161.53C1289.5 162.016 1290.01 162.512 1290.65 163.02C1294.38 166.394 1299.47 169.135 1305.92 171.241C1312.36 173.348 1318.91 174.692 1325.55 175.273C1326.35 175.343 1326.84 175.442 1327.01 175.57C1327.18 175.698 1327.24 176.117 1327.18 176.827L1327.01 178.787Z" fill="#D04646"/>
<path d="M1287.58 159.928L1288.1 160.313L1287.93 162.273L1287.12 162.993C1281 168.478 1272.12 172.254 1260.48 174.321C1255.83 175.006 1251.01 175.243 1246.01 175.031C1245.83 175.015 1245.46 174.982 1244.9 174.934C1244.35 174.886 1243.95 174.869 1243.7 174.885C1242.84 174.81 1242.32 174.708 1242.15 174.58C1241.97 174.452 1241.91 174.089 1241.96 173.491L1242.15 171.363L1242.32 169.402C1242.38 168.73 1242.51 168.346 1242.7 168.25C1242.89 168.154 1243.39 168.123 1244.2 168.155C1252.37 168.871 1260.09 168.511 1267.34 167.076C1274.59 165.641 1280 163.292 1283.57 160.029C1283.84 159.827 1284.06 159.715 1284.25 159.694C1284.44 159.672 1285.02 159.705 1286.01 159.791L1287.58 159.928Z" fill="#D04646"/>
<g clip-path="url(#clip2_130_628)">
<path d="M1350.2 177.43L1349.61 184.152L1320.56 181.61L1321.15 174.888L1350.2 177.43Z" fill="#D04646"/>
</g>
<g clip-path="url(#clip3_130_628)">
<path d="M1248.6 168.541L1248.01 175.263L1218.96 172.721L1219.54 165.999L1248.6 168.541Z" fill="#D04646"/>
</g>
<defs>
<clipPath id="clip0_130_628">
<rect width="5.77511" height="21" fill="white" transform="matrix(-4.37114e-08 -1 -1 4.37114e-08 542 200.291)"/>
</clipPath>
<clipPath id="clip1_130_628">
<rect width="5.77511" height="21" fill="white" transform="matrix(-4.37114e-08 -1 -1 4.37114e-08 542 168.484)"/>
</clipPath>
<clipPath id="clip2_130_628">
<rect width="18.5178" height="40.4845" fill="white" transform="matrix(-0.996195 -0.0871557 -0.0871557 0.996195 1346.37 160.162)"/>
</clipPath>
<clipPath id="clip3_130_628">
<rect width="18.5178" height="40.4845" fill="white" transform="matrix(-0.996195 -0.0871557 -0.0871557 0.996195 1244.77 151.272)"/>
</clipPath>
</defs>
</svg>
