<svg width="2161" height="392" viewBox="0 0 2161 392" fill="none" xmlns="http://www.w3.org/2000/svg">
<rect opacity="0.5" x="2" y="2" width="348" height="388" rx="8" fill="#E4E4E4" stroke="#474747" stroke-width="4" stroke-dasharray="8 8"/>
<path opacity="0.5" d="M29.957 40.293C23.4922 40.293 20.2598 36.7188 20.2598 29.5703C20.2598 26.1816 21.0752 23.5596 22.7061 21.7041C24.3369 19.8389 26.6367 18.9062 29.6055 18.9062C31.041 18.9062 32.291 19.1357 33.3555 19.5947C34.4199 20.0439 35.1963 20.6885 35.6846 21.5283L33.5166 23.6816C33.0771 23.0176 32.5156 22.5049 31.832 22.1436C31.1582 21.7822 30.4258 21.6016 29.6348 21.6016C27.75 21.6016 26.2363 22.2803 25.0938 23.6377C23.9609 24.9951 23.3945 26.9238 23.3945 29.4238C23.3945 34.873 25.748 37.5977 30.4551 37.5977C31.8711 37.5977 33.2676 37.3047 34.6445 36.7188L35.3184 39.2969C33.6191 39.9609 31.832 40.293 29.957 40.293ZM38.9219 40V19.1992H45.0449C47.6523 19.1992 49.625 19.7803 50.9629 20.9424C52.3105 22.1045 52.9844 23.8184 52.9844 26.084C52.9844 28.5352 52.3105 30.3955 50.9629 31.665C49.625 32.9248 47.6523 33.5547 45.0449 33.5547H41.9688V40H38.9219ZM41.9688 30.7715H45.0449C48.2871 30.7715 49.9082 29.209 49.9082 26.084C49.9082 23.3496 48.2871 21.9824 45.0449 21.9824H41.9688V30.7715ZM62.8867 40.293C58.4336 40.293 56.207 37.9688 56.207 33.3203V19.1992H59.2539V33.3203C59.2539 34.707 59.5518 35.752 60.1475 36.4551C60.7432 37.1582 61.6758 37.5098 62.9453 37.5098C65.4062 37.5098 66.6367 36.1133 66.6367 33.3203V19.1992H69.6836V33.3203C69.6836 35.6445 69.1074 37.3877 67.9551 38.5498C66.8027 39.7119 65.1133 40.293 62.8867 40.293Z" fill="#474747"/>
<rect opacity="0.5" x="751" y="2" width="1196" height="388" rx="8" fill="#E4E4E4" stroke="#474747" stroke-width="4" stroke-dasharray="8 8"/>
<path opacity="0.5" d="M778.283 40.293C772.072 40.293 768.967 36.7188 768.967 29.5703C768.967 26.1816 769.772 23.5596 771.384 21.7041C772.995 19.8389 775.256 18.9062 778.166 18.9062C779.621 18.9062 780.896 19.1357 781.989 19.5947C783.083 20.0439 783.889 20.6836 784.406 21.5137L782.224 23.6816C781.774 23.0176 781.208 22.5049 780.524 22.1436C779.851 21.7822 779.123 21.6016 778.342 21.6016C776.369 21.6016 774.836 22.2852 773.742 23.6523C772.648 25.0098 772.102 26.9336 772.102 29.4238C772.102 34.873 774.279 37.5977 778.635 37.5977C779.094 37.5977 779.523 37.5732 779.924 37.5244C780.334 37.4756 780.715 37.4121 781.066 37.334V32.3828H776.936V29.5996H783.967V39.4141C783.557 39.541 782.834 39.7217 781.799 39.9561C780.773 40.1807 779.602 40.293 778.283 40.293ZM787.922 40V19.1992H794.045C796.652 19.1992 798.625 19.7803 799.963 20.9424C801.311 22.1045 801.984 23.8184 801.984 26.084C801.984 28.5352 801.311 30.3955 799.963 31.665C798.625 32.9248 796.652 33.5547 794.045 33.5547H790.969V40H787.922ZM790.969 30.7715H794.045C797.287 30.7715 798.908 29.209 798.908 26.084C798.908 23.3496 797.287 21.9824 794.045 21.9824H790.969V30.7715ZM811.887 40.293C807.434 40.293 805.207 37.9688 805.207 33.3203V19.1992H808.254V33.3203C808.254 34.707 808.552 35.752 809.147 36.4551C809.743 37.1582 810.676 37.5098 811.945 37.5098C814.406 37.5098 815.637 36.1133 815.637 33.3203V19.1992H818.684V33.3203C818.684 35.6445 818.107 37.3877 816.955 38.5498C815.803 39.7119 814.113 40.293 811.887 40.293ZM852.229 42.9297C849.055 42.9297 846.589 41.7627 844.831 39.4287C843.083 37.085 842.209 33.7793 842.209 29.5117C842.209 25.3027 843.083 22.0459 844.831 19.7412C846.589 17.4268 849.055 16.2695 852.229 16.2695H852.932V18.9062H852.521C850.207 18.9062 848.42 19.834 847.16 21.6895C845.91 23.5449 845.285 26.1523 845.285 29.5117C845.285 32.9297 845.91 35.5811 847.16 37.4658C848.42 39.3506 850.207 40.293 852.521 40.293H852.932V42.9297H852.229ZM858.527 40V19.1992H872.297V21.9824H861.574V29.0723H869.66V31.8555H861.574V40H858.527ZM881.203 33.3203V37.2754H885.012V40H874.641V37.2754H878.098V27.1973H875.227V24.4727H880.617L881.145 28.457H881.496C881.672 25.6055 883.098 24.1797 885.773 24.1797C887.375 24.1797 888.537 24.6387 889.26 25.5566C889.982 26.4746 890.344 27.959 890.344 30.0098H887.268C887.268 28.877 887.097 28.0615 886.755 27.5635C886.423 27.0654 885.881 26.8164 885.129 26.8164C883.811 26.8164 882.824 27.3828 882.17 28.5156C881.525 29.6387 881.203 31.2402 881.203 33.3203ZM903.029 40.1465L902.883 36.7188H902.575C902.458 37.9102 901.95 38.8037 901.052 39.3994C900.163 39.9951 898.996 40.293 897.551 40.293C895.93 40.293 894.675 39.9023 893.786 39.1211C892.897 38.3398 892.453 37.2363 892.453 35.8105C892.453 34.1699 893.063 32.9102 894.284 32.0312C895.515 31.1523 897.248 30.7129 899.484 30.7129C900.598 30.7129 901.574 30.7959 902.414 30.9619V30.2441C902.414 29.209 902.048 28.4521 901.315 27.9736C900.593 27.4854 899.514 27.2217 898.078 27.1826L894.357 27.0801L894.65 24.3262L897.785 24.3701C900.354 24.4092 902.258 24.9658 903.498 26.04C904.748 27.1045 905.373 28.6621 905.373 30.7129V37.1875L908.01 37.5098V40L903.029 40.1465ZM902.414 33.3496C901.916 33.2715 901.418 33.2275 900.92 33.2178C900.432 33.208 899.934 33.2031 899.426 33.2031C896.73 33.2031 895.383 34.0234 895.383 35.6641C895.383 36.3477 895.612 36.875 896.071 37.2461C896.54 37.6172 897.199 37.8027 898.049 37.8027C899.016 37.8027 899.821 37.6367 900.466 37.3047C901.12 36.9727 901.608 36.5479 901.931 36.0303C902.253 35.5127 902.414 34.9805 902.414 34.4336V33.3496ZM911.291 47.002L911.145 44.1602L916.125 44.0137C917.697 43.9648 918.84 43.5303 919.553 42.71C920.266 41.8896 920.627 40.6836 920.637 39.0918V37.1875H920.344C920.246 38.1641 919.831 38.9258 919.099 39.4727C918.376 40.0195 917.419 40.293 916.228 40.293C914.196 40.293 912.653 39.624 911.599 38.2861C910.554 36.9482 910.031 34.9805 910.031 32.3828C910.031 29.6875 910.554 27.6465 911.599 26.2598C912.653 24.873 914.196 24.1797 916.228 24.1797C917.438 24.1797 918.42 24.4531 919.172 25C919.924 25.5469 920.363 26.3086 920.49 27.2852H920.681L920.93 24.4727H923.742V38.623C923.742 41.3867 923.112 43.4277 921.853 44.7461C920.593 46.0645 918.586 46.7676 915.832 46.8555L911.291 47.002ZM920.637 31.709C920.637 28.4473 919.396 26.8164 916.916 26.8164C914.377 26.8164 913.107 28.6719 913.107 32.3828C913.107 35.8984 914.377 37.6562 916.916 37.6562C919.396 37.6562 920.637 36.0254 920.637 32.7637V31.709ZM939.035 40V28.1348C939.035 27.0605 938.635 26.5234 937.834 26.5234C936.818 26.5234 936.311 27.2266 936.311 28.6328V40H933.674V27.8418C933.674 26.9629 933.264 26.5234 932.443 26.5234C931.447 26.5234 930.949 27.2266 930.949 28.6328V40H927.844V24.4727H930.598L930.803 26.4062H931.037C931.154 24.9219 932.043 24.1797 933.703 24.1797C934.357 24.1797 934.899 24.3652 935.329 24.7363C935.769 25.1074 936.062 25.6641 936.208 26.4062H936.457C936.506 25.8008 936.745 25.2783 937.175 24.8389C937.614 24.3994 938.244 24.1797 939.064 24.1797C940.139 24.1797 940.92 24.4678 941.408 25.0439C941.896 25.6201 942.141 26.5527 942.141 27.8418V40H939.035ZM953.918 40.293C951.271 40.293 949.226 39.5996 947.78 38.2129C946.345 36.8164 945.627 34.8145 945.627 32.207C945.627 29.668 946.237 27.6953 947.458 26.2891C948.679 24.8828 950.402 24.1797 952.629 24.1797C954.729 24.1797 956.35 24.8145 957.492 26.084C958.645 27.3535 959.221 29.1992 959.221 31.6211C959.221 32.334 959.191 32.998 959.133 33.6133H948.645C948.918 34.9121 949.533 35.8984 950.49 36.5723C951.447 37.2363 952.707 37.5684 954.27 37.5684C954.914 37.5684 955.549 37.5342 956.174 37.4658C956.799 37.3877 957.434 37.2852 958.078 37.1582L958.459 39.8828C957.541 40.0586 956.701 40.1709 955.939 40.2197C955.178 40.2686 954.504 40.293 953.918 40.293ZM948.527 31.2402H956.408C956.408 29.8438 956.076 28.7744 955.412 28.0322C954.748 27.2803 953.83 26.9043 952.658 26.9043C951.457 26.9043 950.5 27.2803 949.787 28.0322C949.074 28.7842 948.654 29.8535 948.527 31.2402ZM973.371 40V29.8926C973.371 28.9551 973.127 28.2324 972.639 27.7246C972.15 27.2168 971.467 26.9629 970.588 26.9629C968.146 26.9629 966.926 28.3984 966.926 31.2695V40H963.82V24.4727H966.633L966.882 27.2852H967.219C967.395 25.2148 968.762 24.1797 971.32 24.1797C972.961 24.1797 974.23 24.6777 975.129 25.6738C976.027 26.6699 976.477 28.0762 976.477 29.8926V40H973.371ZM990.539 40.293C988.186 40.293 986.481 39.8047 985.427 38.8281C984.382 37.8516 983.859 36.2891 983.859 34.1406V27.1973H979.963V24.4727H983.859V19.7852H986.965V24.4727H994.025V27.1973H986.965V33.9941C986.965 35.2246 987.263 36.1182 987.858 36.6748C988.464 37.2314 989.455 37.5098 990.832 37.5098C991.32 37.5098 991.838 37.4854 992.385 37.4365C992.932 37.3779 993.557 37.3047 994.26 37.2168L994.611 39.9414C993.928 40.0586 993.259 40.1465 992.604 40.2051C991.96 40.2637 991.271 40.293 990.539 40.293ZM1022.17 40.293C1019.8 40.293 1017.74 39.9121 1015.98 39.1504L1016.36 36.1914C1017.44 36.6504 1018.47 37.002 1019.47 37.2461C1020.48 37.4805 1021.45 37.5977 1022.4 37.5977C1025.09 37.5977 1026.44 36.6309 1026.44 34.6973C1026.44 33.457 1025.81 32.5488 1024.54 31.9727L1020.93 30.332C1019.52 29.6875 1018.43 28.9111 1017.67 28.0029C1016.92 27.0947 1016.54 25.9668 1016.54 24.6191C1016.54 22.8027 1017.09 21.3965 1018.18 20.4004C1019.27 19.4043 1020.82 18.9062 1022.82 18.9062C1024.22 18.9062 1025.46 19.1113 1026.53 19.5215C1027.6 19.9316 1028.64 20.6006 1029.64 21.5283L1027.58 23.6084C1026.73 22.9053 1025.92 22.3975 1025.17 22.085C1024.43 21.7627 1023.65 21.6016 1022.84 21.6016C1021.83 21.6016 1021.05 21.8457 1020.5 22.334C1019.95 22.8125 1019.67 23.5254 1019.67 24.4727C1019.67 25.1465 1019.86 25.6982 1020.22 26.1279C1020.58 26.5479 1021.11 26.9238 1021.81 27.2559L1024.86 28.6914C1026.4 29.4141 1027.58 30.2295 1028.38 31.1377C1029.18 32.0459 1029.58 33.2129 1029.58 34.6387C1029.58 38.4082 1027.11 40.293 1022.17 40.293ZM1043.68 40V29.8926C1043.68 28.9062 1043.44 28.1494 1042.95 27.6221C1042.46 27.085 1041.78 26.8164 1040.9 26.8164C1038.46 26.8164 1037.24 28.3008 1037.24 31.2695V40H1034.13V18.0273H1037.24V27.2852H1037.53C1037.71 25.2148 1039.07 24.1797 1041.63 24.1797C1043.27 24.1797 1044.54 24.6777 1045.44 25.6738C1046.34 26.6699 1046.79 28.0762 1046.79 29.8926V40H1043.68ZM1061.23 40.1465L1061.09 36.7188H1060.78C1060.66 37.9102 1060.15 38.8037 1059.25 39.3994C1058.37 39.9951 1057.2 40.293 1055.75 40.293C1054.13 40.293 1052.88 39.9023 1051.99 39.1211C1051.1 38.3398 1050.66 37.2363 1050.66 35.8105C1050.66 34.1699 1051.27 32.9102 1052.49 32.0312C1053.72 31.1523 1055.45 30.7129 1057.69 30.7129C1058.8 30.7129 1059.78 30.7959 1060.62 30.9619V30.2441C1060.62 29.209 1060.25 28.4521 1059.52 27.9736C1058.8 27.4854 1057.72 27.2217 1056.28 27.1826L1052.56 27.0801L1052.85 24.3262L1055.99 24.3701C1058.56 24.4092 1060.46 24.9658 1061.7 26.04C1062.95 27.1045 1063.58 28.6621 1063.58 30.7129V37.1875L1066.21 37.5098V40L1061.23 40.1465ZM1060.62 33.3496C1060.12 33.2715 1059.62 33.2275 1059.12 33.2178C1058.63 33.208 1058.14 33.2031 1057.63 33.2031C1054.93 33.2031 1053.59 34.0234 1053.59 35.6641C1053.59 36.3477 1053.82 36.875 1054.27 37.2461C1054.74 37.6172 1055.4 37.8027 1056.25 37.8027C1057.22 37.8027 1058.02 37.6367 1058.67 37.3047C1059.32 36.9727 1059.81 36.5479 1060.13 36.0303C1060.46 35.5127 1060.62 34.9805 1060.62 34.4336V33.3496ZM1074.43 40.293C1072.4 40.293 1070.86 39.624 1069.8 38.2861C1068.76 36.9482 1068.23 34.9805 1068.23 32.3828C1068.23 29.6875 1068.76 27.6465 1069.8 26.2598C1070.86 24.873 1072.4 24.1797 1074.43 24.1797C1075.59 24.1797 1076.54 24.4531 1077.26 25C1077.99 25.5469 1078.42 26.3086 1078.55 27.2852H1078.84V18.0273H1081.95V40L1079.16 40.1465L1078.85 37.1875H1078.55C1078.45 38.1641 1078.03 38.9258 1077.3 39.4727C1076.58 40.0195 1075.62 40.293 1074.43 40.293ZM1078.84 32.7637V31.709C1078.84 28.4473 1077.6 26.8164 1075.12 26.8164C1072.58 26.8164 1071.31 28.6719 1071.31 32.3828C1071.31 35.8984 1072.58 37.6562 1075.12 37.6562C1077.6 37.6562 1078.84 36.0254 1078.84 32.7637ZM1094.54 40.293C1091.9 40.293 1089.85 39.5996 1088.41 38.2129C1086.97 36.8164 1086.25 34.8145 1086.25 32.207C1086.25 29.668 1086.86 27.6953 1088.08 26.2891C1089.3 24.8828 1091.03 24.1797 1093.25 24.1797C1095.35 24.1797 1096.97 24.8145 1098.12 26.084C1099.27 27.3535 1099.85 29.1992 1099.85 31.6211C1099.85 32.334 1099.82 32.998 1099.76 33.6133H1089.27C1089.54 34.9121 1090.16 35.8984 1091.12 36.5723C1092.07 37.2363 1093.33 37.5684 1094.89 37.5684C1095.54 37.5684 1096.17 37.5342 1096.8 37.4658C1097.42 37.3877 1098.06 37.2852 1098.7 37.1582L1099.08 39.8828C1098.17 40.0586 1097.33 40.1709 1096.56 40.2197C1095.8 40.2686 1095.13 40.293 1094.54 40.293ZM1089.15 31.2402H1097.03C1097.03 29.8438 1096.7 28.7744 1096.04 28.0322C1095.37 27.2803 1094.46 26.9043 1093.28 26.9043C1092.08 26.9043 1091.12 27.2803 1090.41 28.0322C1089.7 28.7842 1089.28 29.8535 1089.15 31.2402ZM1109.72 33.3203V37.2754H1113.53V40H1103.16V37.2754H1106.61V27.1973H1103.74V24.4727H1109.13L1109.66 28.457H1110.01C1110.19 25.6055 1111.61 24.1797 1114.29 24.1797C1115.89 24.1797 1117.05 24.6387 1117.78 25.5566C1118.5 26.4746 1118.86 27.959 1118.86 30.0098H1115.78C1115.78 28.877 1115.61 28.0615 1115.27 27.5635C1114.94 27.0654 1114.4 26.8164 1113.64 26.8164C1112.33 26.8164 1111.34 27.3828 1110.69 28.5156C1110.04 29.6387 1109.72 31.2402 1109.72 33.3203ZM1127.15 40.293C1125.98 40.293 1124.97 40.2588 1124.13 40.1904C1123.3 40.1221 1122.54 40.0098 1121.85 39.8535L1122.2 37.041C1123.22 37.1973 1124.13 37.3145 1124.91 37.3926C1125.7 37.4707 1126.45 37.5098 1127.15 37.5098C1128.72 37.5098 1129.86 37.3584 1130.56 37.0557C1131.28 36.7432 1131.63 36.25 1131.63 35.5762C1131.63 35.1074 1131.51 34.7607 1131.25 34.5361C1131.01 34.3018 1130.63 34.1211 1130.11 33.9941L1126.54 33.0859C1125 32.6953 1123.87 32.2119 1123.15 31.6357C1122.44 31.0596 1122.08 30.1855 1122.08 29.0137C1122.08 27.3145 1122.73 26.084 1124.03 25.3223C1125.34 24.5605 1127.44 24.1797 1130.34 24.1797C1131.77 24.1797 1133.14 24.2773 1134.45 24.4727L1134.12 27.168C1133.33 27.0898 1132.63 27.0361 1132.03 27.0068C1131.42 26.9775 1130.83 26.9629 1130.26 26.9629C1128.52 26.9629 1127.26 27.1143 1126.48 27.417C1125.7 27.71 1125.3 28.1934 1125.3 28.8672C1125.3 29.3164 1125.47 29.6436 1125.79 29.8486C1126.11 30.0439 1126.6 30.2246 1127.27 30.3906L1130.14 31.0938C1131.77 31.4844 1132.96 32.0068 1133.71 32.6611C1134.47 33.3154 1134.86 34.2676 1134.86 35.5176C1134.86 37.1875 1134.25 38.4033 1133.02 39.165C1131.8 39.917 1129.85 40.293 1127.15 40.293ZM1140.1 42.9297V40.293H1140.51C1142.82 40.293 1144.61 39.3506 1145.86 37.4658C1147.12 35.5811 1147.75 32.9297 1147.75 29.5117C1147.75 26.1523 1147.12 23.5449 1145.86 21.6895C1144.61 19.834 1142.82 18.9062 1140.51 18.9062H1140.1V16.2695H1140.8C1143.99 16.2695 1146.45 17.4268 1148.2 19.7412C1149.95 22.0459 1150.82 25.3027 1150.82 29.5117C1150.82 33.7793 1149.95 37.085 1148.2 39.4287C1146.45 41.7627 1143.99 42.9297 1140.8 42.9297H1140.1Z" fill="#474747"/>
<rect x="2010" y="176" width="151" height="84" rx="40" fill="#FFEAB4"/>
<rect x="2012" y="178" width="147" height="80" rx="38" stroke="#845A1C" stroke-opacity="0.6" stroke-width="4"/>
<path d="M2029.34 204.16H2046.54V207.36H2032.86V216.68H2045.5V219.88H2032.94V233H2029.34V204.16ZM2054 211H2057.4V214.8H2057.72C2058.07 213.493 2058.79 212.467 2059.88 211.72C2060.98 210.973 2062.32 210.6 2063.92 210.6C2066.24 210.6 2068.06 211.333 2069.36 212.8C2070.7 214.24 2071.36 216.227 2071.36 218.76V220H2067.76V219.2C2067.76 217.467 2067.32 216.133 2066.44 215.2C2065.59 214.24 2064.36 213.76 2062.76 213.76C2061.19 213.76 2059.94 214.253 2059 215.24C2058.07 216.2 2057.6 217.52 2057.6 219.2V233H2054V211ZM2076.03 226.6C2076.03 225.56 2076.2 224.627 2076.55 223.8C2076.92 222.947 2077.44 222.227 2078.11 221.64C2078.8 221.053 2079.63 220.6 2080.59 220.28C2081.55 219.96 2082.63 219.8 2083.83 219.8H2090.39V218C2090.39 216.64 2089.93 215.587 2089.03 214.84C2088.15 214.067 2086.87 213.68 2085.19 213.68C2083.96 213.68 2082.91 213.907 2082.03 214.36C2081.17 214.813 2080.6 215.44 2080.31 216.24H2076.71C2077.08 214.507 2078.03 213.133 2079.55 212.12C2081.09 211.107 2083 210.6 2085.27 210.6C2087.99 210.6 2090.12 211.24 2091.67 212.52C2093.21 213.773 2093.99 215.533 2093.99 217.8V233H2090.71V228.8H2090.39C2090.04 230.213 2089.23 231.333 2087.95 232.16C2086.67 232.987 2085.11 233.4 2083.27 233.4C2081.05 233.4 2079.29 232.787 2077.99 231.56C2076.68 230.333 2076.03 228.68 2076.03 226.6ZM2084.07 230.44C2084.97 230.44 2085.81 230.32 2086.59 230.08C2087.36 229.84 2088.03 229.507 2088.59 229.08C2089.15 228.627 2089.59 228.107 2089.91 227.52C2090.23 226.933 2090.39 226.293 2090.39 225.6V222.6H2083.91C2082.57 222.6 2081.52 222.947 2080.75 223.64C2080 224.333 2079.63 225.293 2079.63 226.52C2079.63 227.747 2080.01 228.707 2080.79 229.4C2081.56 230.093 2082.65 230.44 2084.07 230.44ZM2099.97 211H2102.81V214.24H2103.09C2103.2 213.067 2103.57 212.173 2104.21 211.56C2104.85 210.92 2105.71 210.6 2106.77 210.6C2107.84 210.6 2108.72 210.92 2109.41 211.56C2110.11 212.173 2110.59 213.067 2110.85 214.24H2111.05C2111.16 213.067 2111.53 212.173 2112.17 211.56C2112.81 210.92 2113.67 210.6 2114.73 210.6C2116.09 210.6 2117.15 211.107 2117.89 212.12C2118.64 213.107 2119.01 214.48 2119.01 216.24V233H2115.89V216.24C2115.89 215.307 2115.68 214.6 2115.25 214.12C2114.85 213.613 2114.27 213.36 2113.49 213.36C2111.87 213.36 2111.05 214.387 2111.05 216.44V233H2107.93V216.24C2107.93 215.467 2107.75 214.8 2107.37 214.24C2107.03 213.653 2106.41 213.36 2105.53 213.36C2104.73 213.36 2104.11 213.653 2103.65 214.24C2103.28 214.773 2103.09 215.507 2103.09 216.44V233H2099.97V211ZM2133.48 233.4C2130.73 233.4 2128.57 232.653 2127 231.16C2125.45 229.667 2124.68 227.613 2124.68 225V219C2124.68 216.387 2125.45 214.333 2127 212.84C2128.57 211.347 2130.73 210.6 2133.48 210.6C2136.22 210.6 2138.37 211.347 2139.92 212.84C2141.49 214.333 2142.28 216.387 2142.28 219V223.04H2128.28V224.8C2128.28 226.48 2128.73 227.8 2129.64 228.76C2130.57 229.72 2131.85 230.2 2133.48 230.2C2134.68 230.2 2135.72 230.013 2136.6 229.64C2137.48 229.267 2138.13 228.72 2138.56 228H2142.16C2141.7 229.68 2140.69 231 2139.12 231.96C2137.57 232.92 2135.69 233.4 2133.48 233.4ZM2138.68 220.04V219C2138.68 217.347 2138.22 216.067 2137.32 215.16C2136.41 214.253 2135.13 213.8 2133.48 213.8C2131.82 213.8 2130.54 214.253 2129.64 215.16C2128.73 216.067 2128.28 217.347 2128.28 219V220.04H2138.68Z" fill="black"/>
<rect x="14" y="65" width="323" height="306" rx="10" fill="#CCEAFF"/>
<rect x="16" y="67" width="319" height="302" rx="8" stroke="#1A356B" stroke-opacity="0.6" stroke-width="4"/>
<path d="M150.883 218.2H160.323V224.8C160.323 226.107 160.11 227.293 159.683 228.36C159.283 229.427 158.697 230.333 157.923 231.08C157.177 231.827 156.257 232.4 155.163 232.8C154.097 233.2 152.883 233.4 151.523 233.4C150.19 233.4 148.977 233.2 147.883 232.8C146.79 232.4 145.857 231.827 145.083 231.08C144.337 230.333 143.75 229.427 143.323 228.36C142.923 227.293 142.723 226.107 142.723 224.8V212.4C142.723 211.12 142.937 209.947 143.363 208.88C143.79 207.813 144.377 206.907 145.123 206.16C145.897 205.413 146.83 204.84 147.923 204.44C149.017 204.013 150.217 203.8 151.523 203.8C153.95 203.8 155.937 204.413 157.483 205.64C159.03 206.867 160.043 208.653 160.523 211H156.843C156.577 209.747 155.977 208.773 155.043 208.08C154.11 207.36 152.937 207 151.523 207C149.923 207 148.657 207.48 147.723 208.44C146.79 209.4 146.323 210.72 146.323 212.4V224.8C146.323 226.48 146.79 227.8 147.723 228.76C148.657 229.72 149.923 230.2 151.523 230.2C153.123 230.2 154.39 229.72 155.323 228.76C156.257 227.8 156.723 226.48 156.723 224.8V221.4H150.883V218.2ZM175.508 233.4C172.761 233.4 170.641 232.653 169.148 231.16C167.654 229.667 166.908 227.613 166.908 225V204.2H170.508V225C170.508 226.6 170.934 227.867 171.788 228.8C172.641 229.733 173.881 230.2 175.508 230.2C177.108 230.2 178.334 229.733 179.188 228.8C180.068 227.867 180.508 226.6 180.508 225V204.2H184.108V225C184.108 227.64 183.361 229.707 181.868 231.2C180.374 232.667 178.254 233.4 175.508 233.4ZM197.652 229.84V207.36H191.292V204.2H207.692V207.36H201.332V229.84H207.692V233H191.292V229.84H197.652Z" fill="black"/>
<rect x="764" y="65" width="323" height="306" rx="10" fill="#CCEAFF"/>
<rect x="766" y="67" width="319" height="302" rx="8" stroke="#1A356B" stroke-opacity="0.6" stroke-width="4"/>
<path d="M818.898 179.2C820.205 179.2 821.391 179.4 822.458 179.8C823.525 180.2 824.431 180.773 825.178 181.52C825.951 182.267 826.538 183.16 826.938 184.2C827.365 185.213 827.578 186.347 827.578 187.6C827.578 188.853 827.365 190 826.938 191.04C826.511 192.053 825.911 192.933 825.138 193.68C824.391 194.427 823.485 195 822.418 195.4C821.351 195.8 820.178 196 818.898 196H812.778V208H809.178V179.2H818.898ZM812.778 182.4V192.8H818.898C820.391 192.8 821.591 192.333 822.498 191.4C823.405 190.44 823.858 189.173 823.858 187.6C823.858 186.027 823.405 184.773 822.498 183.84C821.591 182.88 820.391 182.4 818.898 182.4H812.778ZM834.043 186H837.443V189.8H837.763C838.109 188.493 838.829 187.467 839.923 186.72C841.016 185.973 842.363 185.6 843.963 185.6C846.283 185.6 848.096 186.333 849.403 187.8C850.736 189.24 851.403 191.227 851.403 193.76V195H847.803V194.2C847.803 192.467 847.363 191.133 846.483 190.2C845.629 189.24 844.403 188.76 842.803 188.76C841.229 188.76 839.976 189.253 839.043 190.24C838.109 191.2 837.643 192.52 837.643 194.2V208H834.043V186ZM860.347 199.8C860.347 201.48 860.8 202.8 861.707 203.76C862.64 204.72 863.92 205.2 865.547 205.2C867.147 205.2 868.414 204.72 869.347 203.76C870.28 202.8 870.747 201.48 870.747 199.8V194.2C870.747 192.52 870.28 191.2 869.347 190.24C868.414 189.28 867.147 188.8 865.547 188.8C863.947 188.8 862.68 189.28 861.747 190.24C860.814 191.2 860.347 192.52 860.347 194.2V199.8ZM856.747 194.2C856.747 192.867 856.947 191.68 857.347 190.64C857.774 189.573 858.36 188.667 859.107 187.92C859.88 187.173 860.8 186.6 861.867 186.2C862.96 185.8 864.187 185.6 865.547 185.6C868.267 185.6 870.414 186.36 871.987 187.88C873.56 189.4 874.347 191.493 874.347 194.16V199.8C874.347 201.133 874.147 202.333 873.747 203.4C873.347 204.467 872.76 205.373 871.987 206.12C871.24 206.84 870.32 207.4 869.227 207.8C868.134 208.2 866.907 208.4 865.547 208.4C864.187 208.4 862.96 208.2 861.867 207.8C860.8 207.4 859.88 206.827 859.107 206.08C858.36 205.333 857.774 204.427 857.347 203.36C856.947 202.293 856.747 201.107 856.747 199.8V194.2ZM889.851 208.4C888.491 208.4 887.265 208.2 886.171 207.8C885.105 207.4 884.185 206.827 883.411 206.08C882.665 205.333 882.078 204.427 881.651 203.36C881.251 202.293 881.051 201.107 881.051 199.8V194.2C881.051 192.893 881.251 191.707 881.651 190.64C882.078 189.573 882.665 188.667 883.411 187.92C884.185 187.173 885.105 186.6 886.171 186.2C887.265 185.8 888.491 185.6 889.851 185.6C892.278 185.6 894.265 186.267 895.811 187.6C897.385 188.907 898.331 190.707 898.651 193H895.051C894.865 191.72 894.291 190.707 893.331 189.96C892.398 189.187 891.238 188.8 889.851 188.8C888.251 188.8 886.985 189.28 886.051 190.24C885.118 191.2 884.651 192.52 884.651 194.2V199.8C884.651 201.48 885.105 202.8 886.011 203.76C886.945 204.72 888.225 205.2 889.851 205.2C891.238 205.2 892.398 204.827 893.331 204.08C894.291 203.307 894.865 202.28 895.051 201H898.651C898.305 203.32 897.345 205.133 895.771 206.44C894.225 207.747 892.251 208.4 889.851 208.4ZM913.516 208.4C910.769 208.4 908.609 207.653 907.036 206.16C905.489 204.667 904.716 202.613 904.716 200V194C904.716 191.387 905.489 189.333 907.036 187.84C908.609 186.347 910.769 185.6 913.516 185.6C916.262 185.6 918.409 186.347 919.956 187.84C921.529 189.333 922.316 191.387 922.316 194V198.04H908.316V199.8C908.316 201.48 908.769 202.8 909.676 203.76C910.609 204.72 911.889 205.2 913.516 205.2C914.716 205.2 915.756 205.013 916.636 204.64C917.516 204.267 918.169 203.72 918.596 203H922.196C921.742 204.68 920.729 206 919.156 206.96C917.609 207.92 915.729 208.4 913.516 208.4ZM918.716 195.04V194C918.716 192.347 918.262 191.067 917.356 190.16C916.449 189.253 915.169 188.8 913.516 188.8C911.862 188.8 910.582 189.253 909.676 190.16C908.769 191.067 908.316 192.347 908.316 194V195.04H918.716ZM928.7 194.2C928.7 192.867 928.873 191.667 929.22 190.6C929.593 189.533 930.1 188.64 930.74 187.92C931.38 187.173 932.153 186.6 933.06 186.2C933.967 185.8 934.98 185.6 936.1 185.6C937.727 185.6 939.073 185.973 940.14 186.72C941.207 187.44 941.913 188.467 942.26 189.8H942.58C942.553 189.347 942.527 188.893 942.5 188.44C942.447 188.04 942.407 187.627 942.38 187.2C942.38 186.747 942.38 186.347 942.38 186V178.8H945.98V208H942.58V204.2H942.26C941.913 205.533 941.207 206.573 940.14 207.32C939.073 208.04 937.727 208.4 936.1 208.4C934.98 208.4 933.967 208.2 933.06 207.8C932.153 207.4 931.38 206.84 930.74 206.12C930.1 205.373 929.593 204.467 929.22 203.4C928.873 202.333 928.7 201.133 928.7 199.8V194.2ZM937.46 205.28C938.953 205.28 940.14 204.787 941.02 203.8C941.927 202.813 942.38 201.48 942.38 199.8V194.2C942.38 192.52 941.927 191.187 941.02 190.2C940.14 189.213 938.953 188.72 937.46 188.72C935.833 188.72 934.567 189.2 933.66 190.16C932.753 191.12 932.3 192.467 932.3 194.2V199.8C932.3 201.48 932.753 202.813 933.66 203.8C934.593 204.787 935.86 205.28 937.46 205.28ZM953.084 186H956.684V200.24C956.684 203.573 958.271 205.24 961.444 205.24C964.671 205.24 966.284 203.573 966.284 200.24V186H969.884V200.24C969.884 202.853 969.151 204.867 967.684 206.28C966.244 207.693 964.164 208.4 961.444 208.4C958.778 208.4 956.711 207.693 955.244 206.28C953.804 204.84 953.084 202.827 953.084 200.24V186ZM977.949 186H981.349V189.8H981.669C982.015 188.493 982.735 187.467 983.829 186.72C984.922 185.973 986.269 185.6 987.869 185.6C990.189 185.6 992.002 186.333 993.309 187.8C994.642 189.24 995.309 191.227 995.309 193.76V195H991.709V194.2C991.709 192.467 991.269 191.133 990.389 190.2C989.535 189.24 988.309 188.76 986.709 188.76C985.135 188.76 983.882 189.253 982.949 190.24C982.015 191.2 981.549 192.52 981.549 194.2V208H977.949V186ZM999.973 201.6C999.973 200.56 1000.15 199.627 1000.49 198.8C1000.87 197.947 1001.39 197.227 1002.05 196.64C1002.75 196.053 1003.57 195.6 1004.53 195.28C1005.49 194.96 1006.57 194.8 1007.77 194.8H1014.33V193C1014.33 191.64 1013.88 190.587 1012.97 189.84C1012.09 189.067 1010.81 188.68 1009.13 188.68C1007.91 188.68 1006.85 188.907 1005.97 189.36C1005.12 189.813 1004.55 190.44 1004.25 191.24H1000.65C1001.03 189.507 1001.97 188.133 1003.49 187.12C1005.04 186.107 1006.95 185.6 1009.21 185.6C1011.93 185.6 1014.07 186.24 1015.61 187.52C1017.16 188.773 1017.93 190.533 1017.93 192.8V208H1014.65V203.8H1014.33C1013.99 205.213 1013.17 206.333 1011.89 207.16C1010.61 207.987 1009.05 208.4 1007.21 208.4C1005 208.4 1003.24 207.787 1001.93 206.56C1000.63 205.333 999.973 203.68 999.973 201.6ZM1008.01 205.44C1008.92 205.44 1009.76 205.32 1010.53 205.08C1011.31 204.84 1011.97 204.507 1012.53 204.08C1013.09 203.627 1013.53 203.107 1013.85 202.52C1014.17 201.933 1014.33 201.293 1014.33 200.6V197.6H1007.85C1006.52 197.6 1005.47 197.947 1004.69 198.64C1003.95 199.333 1003.57 200.293 1003.57 201.52C1003.57 202.747 1003.96 203.707 1004.73 204.4C1005.51 205.093 1006.6 205.44 1008.01 205.44ZM1033.92 178.8V201.6C1033.92 202.587 1034.18 203.36 1034.72 203.92C1035.25 204.453 1035.98 204.72 1036.92 204.72H1043.44V208H1036.92C1034.86 208 1033.25 207.44 1032.08 206.32C1030.9 205.173 1030.32 203.6 1030.32 201.6V182.08H1023.04V178.8H1033.92ZM816.938 242.2H826.378V248.8C826.378 250.107 826.165 251.293 825.738 252.36C825.338 253.427 824.751 254.333 823.978 255.08C823.231 255.827 822.311 256.4 821.218 256.8C820.151 257.2 818.938 257.4 817.578 257.4C816.245 257.4 815.031 257.2 813.938 256.8C812.845 256.4 811.911 255.827 811.138 255.08C810.391 254.333 809.805 253.427 809.378 252.36C808.978 251.293 808.778 250.107 808.778 248.8V236.4C808.778 235.12 808.991 233.947 809.418 232.88C809.845 231.813 810.431 230.907 811.178 230.16C811.951 229.413 812.885 228.84 813.978 228.44C815.071 228.013 816.271 227.8 817.578 227.8C820.005 227.8 821.991 228.413 823.538 229.64C825.085 230.867 826.098 232.653 826.578 235H822.898C822.631 233.747 822.031 232.773 821.098 232.08C820.165 231.36 818.991 231 817.578 231C815.978 231 814.711 231.48 813.778 232.44C812.845 233.4 812.378 234.72 812.378 236.4V248.8C812.378 250.48 812.845 251.8 813.778 252.76C814.711 253.72 815.978 254.2 817.578 254.2C819.178 254.2 820.445 253.72 821.378 252.76C822.311 251.8 822.778 250.48 822.778 248.8V245.4H816.938V242.2ZM841.563 257.4C838.816 257.4 836.656 256.653 835.083 255.16C833.536 253.667 832.763 251.613 832.763 249V243C832.763 240.387 833.536 238.333 835.083 236.84C836.656 235.347 838.816 234.6 841.563 234.6C844.309 234.6 846.456 235.347 848.003 236.84C849.576 238.333 850.363 240.387 850.363 243V247.04H836.363V248.8C836.363 250.48 836.816 251.8 837.723 252.76C838.656 253.72 839.936 254.2 841.563 254.2C842.763 254.2 843.803 254.013 844.683 253.64C845.563 253.267 846.216 252.72 846.643 252H850.243C849.789 253.68 848.776 255 847.203 255.96C845.656 256.92 843.776 257.4 841.563 257.4ZM846.763 244.04V243C846.763 241.347 846.309 240.067 845.403 239.16C844.496 238.253 843.216 237.8 841.563 237.8C839.909 237.8 838.629 238.253 837.723 239.16C836.816 240.067 836.363 241.347 836.363 243V244.04H846.763ZM857.067 257V235H860.467V238.8H860.787C861.134 237.467 861.827 236.44 862.867 235.72C863.934 234.973 865.254 234.6 866.827 234.6C867.92 234.6 868.907 234.787 869.787 235.16C870.694 235.533 871.454 236.067 872.067 236.76C872.707 237.427 873.2 238.24 873.547 239.2C873.894 240.133 874.067 241.187 874.067 242.36V257H870.467V242.96C870.467 241.28 870.04 239.973 869.187 239.04C868.334 238.107 867.147 237.64 865.627 237.64C864.107 237.64 862.894 238.147 861.987 239.16C861.107 240.147 860.667 241.493 860.667 243.2V257H857.067ZM889.531 257.4C886.785 257.4 884.625 256.653 883.051 255.16C881.505 253.667 880.731 251.613 880.731 249V243C880.731 240.387 881.505 238.333 883.051 236.84C884.625 235.347 886.785 234.6 889.531 234.6C892.278 234.6 894.425 235.347 895.971 236.84C897.545 238.333 898.331 240.387 898.331 243V247.04H884.331V248.8C884.331 250.48 884.785 251.8 885.691 252.76C886.625 253.72 887.905 254.2 889.531 254.2C890.731 254.2 891.771 254.013 892.651 253.64C893.531 253.267 894.185 252.72 894.611 252H898.211C897.758 253.68 896.745 255 895.171 255.96C893.625 256.92 891.745 257.4 889.531 257.4ZM894.731 244.04V243C894.731 241.347 894.278 240.067 893.371 239.16C892.465 238.253 891.185 237.8 889.531 237.8C887.878 237.8 886.598 238.253 885.691 239.16C884.785 240.067 884.331 241.347 884.331 243V244.04H894.731ZM905.996 235H909.396V238.8H909.716C910.062 237.493 910.782 236.467 911.876 235.72C912.969 234.973 914.316 234.6 915.916 234.6C918.236 234.6 920.049 235.333 921.356 236.8C922.689 238.24 923.356 240.227 923.356 242.76V244H919.756V243.2C919.756 241.467 919.316 240.133 918.436 239.2C917.582 238.24 916.356 237.76 914.756 237.76C913.182 237.76 911.929 238.253 910.996 239.24C910.062 240.2 909.596 241.52 909.596 243.2V257H905.996V235ZM928.02 250.6C928.02 249.56 928.193 248.627 928.54 247.8C928.913 246.947 929.433 246.227 930.1 245.64C930.793 245.053 931.62 244.6 932.58 244.28C933.54 243.96 934.62 243.8 935.82 243.8H942.38V242C942.38 240.64 941.927 239.587 941.02 238.84C940.14 238.067 938.86 237.68 937.18 237.68C935.953 237.68 934.9 237.907 934.02 238.36C933.167 238.813 932.593 239.44 932.3 240.24H928.7C929.073 238.507 930.02 237.133 931.54 236.12C933.087 235.107 934.993 234.6 937.26 234.6C939.98 234.6 942.113 235.24 943.66 236.52C945.207 237.773 945.98 239.533 945.98 241.8V257H942.7V252.8H942.38C942.033 254.213 941.22 255.333 939.94 256.16C938.66 256.987 937.1 257.4 935.26 257.4C933.047 257.4 931.287 256.787 929.98 255.56C928.673 254.333 928.02 252.68 928.02 250.6ZM936.06 254.44C936.967 254.44 937.807 254.32 938.58 254.08C939.353 253.84 940.02 253.507 940.58 253.08C941.14 252.627 941.58 252.107 941.9 251.52C942.22 250.933 942.38 250.293 942.38 249.6V246.6H935.9C934.567 246.6 933.513 246.947 932.74 247.64C931.993 248.333 931.62 249.293 931.62 250.52C931.62 251.747 932.007 252.707 932.78 253.4C933.553 254.093 934.647 254.44 936.06 254.44ZM951.884 235H958.284V228.2H961.884V235H970.484V238.28H961.884V251.32C961.884 252.067 962.111 252.653 962.564 253.08C963.044 253.507 963.684 253.72 964.484 253.72H970.084V257H964.484C962.591 257 961.084 256.48 959.964 255.44C958.844 254.4 958.284 253.027 958.284 251.32V238.28H951.884V235ZM977.269 257V253.72H985.269V238.28H978.269V235H988.869V253.72H995.469V257H977.269ZM986.069 226.4H986.869C987.642 226.4 988.269 226.627 988.749 227.08C989.229 227.533 989.469 228.12 989.469 228.84C989.469 229.56 989.229 230.133 988.749 230.56C988.269 230.987 987.642 231.2 986.869 231.2H986.069C985.295 231.2 984.669 231 984.189 230.6C983.709 230.173 983.469 229.587 983.469 228.84C983.469 228.12 983.709 227.533 984.189 227.08C984.669 226.627 985.295 226.4 986.069 226.4ZM1004.25 248.8C1004.25 250.48 1004.71 251.8 1005.61 252.76C1006.55 253.72 1007.83 254.2 1009.45 254.2C1011.05 254.2 1012.32 253.72 1013.25 252.76C1014.19 251.8 1014.65 250.48 1014.65 248.8V243.2C1014.65 241.52 1014.19 240.2 1013.25 239.24C1012.32 238.28 1011.05 237.8 1009.45 237.8C1007.85 237.8 1006.59 238.28 1005.65 239.24C1004.72 240.2 1004.25 241.52 1004.25 243.2V248.8ZM1000.65 243.2C1000.65 241.867 1000.85 240.68 1001.25 239.64C1001.68 238.573 1002.27 237.667 1003.01 236.92C1003.79 236.173 1004.71 235.6 1005.77 235.2C1006.87 234.8 1008.09 234.6 1009.45 234.6C1012.17 234.6 1014.32 235.36 1015.89 236.88C1017.47 238.4 1018.25 240.493 1018.25 243.16V248.8C1018.25 250.133 1018.05 251.333 1017.65 252.4C1017.25 253.467 1016.67 254.373 1015.89 255.12C1015.15 255.84 1014.23 256.4 1013.13 256.8C1012.04 257.2 1010.81 257.4 1009.45 257.4C1008.09 257.4 1006.87 257.2 1005.77 256.8C1004.71 256.4 1003.79 255.827 1003.01 255.08C1002.27 254.333 1001.68 253.427 1001.25 252.36C1000.85 251.293 1000.65 250.107 1000.65 248.8V243.2ZM1024.96 257V235H1028.36V238.8H1028.68C1029.02 237.467 1029.72 236.44 1030.76 235.72C1031.82 234.973 1033.14 234.6 1034.72 234.6C1035.81 234.6 1036.8 234.787 1037.68 235.16C1038.58 235.533 1039.34 236.067 1039.96 236.76C1040.6 237.427 1041.09 238.24 1041.44 239.2C1041.78 240.133 1041.96 241.187 1041.96 242.36V257H1038.36V242.96C1038.36 241.28 1037.93 239.973 1037.08 239.04C1036.22 238.107 1035.04 237.64 1033.52 237.64C1032 237.64 1030.78 238.147 1029.88 239.16C1029 240.147 1028.56 241.493 1028.56 243.2V257H1024.96Z" fill="black"/>
<rect x="1608" y="65" width="323" height="306" rx="10" fill="#CCEAFF"/>
<rect x="1610" y="67" width="319" height="302" rx="8" stroke="#1A356B" stroke-opacity="0.6" stroke-width="4"/>
<path d="M1674.37 155.2C1675.68 155.2 1676.86 155.4 1677.93 155.8C1679 156.2 1679.9 156.773 1680.65 157.52C1681.42 158.267 1682.01 159.16 1682.41 160.2C1682.84 161.213 1683.05 162.347 1683.05 163.6C1683.05 165.6 1682.53 167.307 1681.49 168.72C1680.48 170.107 1679.09 171.067 1677.33 171.6L1683.45 184H1679.21L1673.61 172H1668.77V184H1665.17V155.2H1674.37ZM1668.77 168.8H1674.37C1675.89 168.8 1677.09 168.333 1677.97 167.4C1678.88 166.44 1679.33 165.173 1679.33 163.6C1679.33 162.027 1678.88 160.773 1677.97 159.84C1677.06 158.88 1675.86 158.4 1674.37 158.4H1668.77V168.8ZM1697.55 184.4C1694.81 184.4 1692.65 183.653 1691.07 182.16C1689.53 180.667 1688.75 178.613 1688.75 176V170C1688.75 167.387 1689.53 165.333 1691.07 163.84C1692.65 162.347 1694.81 161.6 1697.55 161.6C1700.3 161.6 1702.45 162.347 1703.99 163.84C1705.57 165.333 1706.35 167.387 1706.35 170V174.04H1692.35V175.8C1692.35 177.48 1692.81 178.8 1693.71 179.76C1694.65 180.72 1695.93 181.2 1697.55 181.2C1698.75 181.2 1699.79 181.013 1700.67 180.64C1701.55 180.267 1702.21 179.72 1702.63 179H1706.23C1705.78 180.68 1704.77 182 1703.19 182.96C1701.65 183.92 1699.77 184.4 1697.55 184.4ZM1702.75 171.04V170C1702.75 168.347 1702.3 167.067 1701.39 166.16C1700.49 165.253 1699.21 164.8 1697.55 164.8C1695.9 164.8 1694.62 165.253 1693.71 166.16C1692.81 167.067 1692.35 168.347 1692.35 170V171.04H1702.75ZM1713.06 184V162H1716.46V165.8H1716.78C1717.13 164.467 1717.82 163.44 1718.86 162.72C1719.93 161.973 1721.25 161.6 1722.82 161.6C1723.91 161.6 1724.9 161.787 1725.78 162.16C1726.69 162.533 1727.45 163.067 1728.06 163.76C1728.7 164.427 1729.19 165.24 1729.54 166.2C1729.89 167.133 1730.06 168.187 1730.06 169.36V184H1726.46V169.96C1726.46 168.28 1726.03 166.973 1725.18 166.04C1724.33 165.107 1723.14 164.64 1721.62 164.64C1720.1 164.64 1718.89 165.147 1717.98 166.16C1717.1 167.147 1716.66 168.493 1716.66 170.2V184H1713.06ZM1736.72 170.2C1736.72 168.867 1736.9 167.667 1737.24 166.6C1737.62 165.533 1738.12 164.64 1738.76 163.92C1739.4 163.173 1740.18 162.6 1741.08 162.2C1741.99 161.8 1743 161.6 1744.12 161.6C1745.75 161.6 1747.1 161.973 1748.16 162.72C1749.23 163.44 1749.94 164.467 1750.28 165.8H1750.6C1750.58 165.347 1750.55 164.893 1750.52 164.44C1750.47 164.04 1750.43 163.627 1750.4 163.2C1750.4 162.747 1750.4 162.347 1750.4 162V154.8H1754V184H1750.6V180.2H1750.28C1749.94 181.533 1749.23 182.573 1748.16 183.32C1747.1 184.04 1745.75 184.4 1744.12 184.4C1743 184.4 1741.99 184.2 1741.08 183.8C1740.18 183.4 1739.4 182.84 1738.76 182.12C1738.12 181.373 1737.62 180.467 1737.24 179.4C1736.9 178.333 1736.72 177.133 1736.72 175.8V170.2ZM1745.48 181.28C1746.98 181.28 1748.16 180.787 1749.04 179.8C1749.95 178.813 1750.4 177.48 1750.4 175.8V170.2C1750.4 168.52 1749.95 167.187 1749.04 166.2C1748.16 165.213 1746.98 164.72 1745.48 164.72C1743.86 164.72 1742.59 165.2 1741.68 166.16C1740.78 167.12 1740.32 168.467 1740.32 170.2V175.8C1740.32 177.48 1740.78 178.813 1741.68 179.8C1742.62 180.787 1743.88 181.28 1745.48 181.28ZM1769.51 184.4C1766.76 184.4 1764.6 183.653 1763.03 182.16C1761.48 180.667 1760.71 178.613 1760.71 176V170C1760.71 167.387 1761.48 165.333 1763.03 163.84C1764.6 162.347 1766.76 161.6 1769.51 161.6C1772.25 161.6 1774.4 162.347 1775.95 163.84C1777.52 165.333 1778.31 167.387 1778.31 170V174.04H1764.31V175.8C1764.31 177.48 1764.76 178.8 1765.67 179.76C1766.6 180.72 1767.88 181.2 1769.51 181.2C1770.71 181.2 1771.75 181.013 1772.63 180.64C1773.51 180.267 1774.16 179.72 1774.59 179H1778.19C1777.73 180.68 1776.72 182 1775.15 182.96C1773.6 183.92 1771.72 184.4 1769.51 184.4ZM1774.71 171.04V170C1774.71 168.347 1774.25 167.067 1773.35 166.16C1772.44 165.253 1771.16 164.8 1769.51 164.8C1767.85 164.8 1766.57 165.253 1765.67 166.16C1764.76 167.067 1764.31 168.347 1764.31 170V171.04H1774.71ZM1785.97 162H1789.37V165.8H1789.69C1790.04 164.493 1790.76 163.467 1791.85 162.72C1792.95 161.973 1794.29 161.6 1795.89 161.6C1798.21 161.6 1800.03 162.333 1801.33 163.8C1802.67 165.24 1803.33 167.227 1803.33 169.76V171H1799.73V170.2C1799.73 168.467 1799.29 167.133 1798.41 166.2C1797.56 165.24 1796.33 164.76 1794.73 164.76C1793.16 164.76 1791.91 165.253 1790.97 166.24C1790.04 167.2 1789.57 168.52 1789.57 170.2V184H1785.97V162ZM1809.28 184V180.72H1817.28V165.28H1810.28V162H1820.88V180.72H1827.48V184H1809.28ZM1818.08 153.4H1818.88C1819.65 153.4 1820.28 153.627 1820.76 154.08C1821.24 154.533 1821.48 155.12 1821.48 155.84C1821.48 156.56 1821.24 157.133 1820.76 157.56C1820.28 157.987 1819.65 158.2 1818.88 158.2H1818.08C1817.3 158.2 1816.68 158 1816.2 157.6C1815.72 157.173 1815.48 156.587 1815.48 155.84C1815.48 155.12 1815.72 154.533 1816.2 154.08C1816.68 153.627 1817.3 153.4 1818.08 153.4ZM1832.98 184V162H1836.38V165.8H1836.7C1837.05 164.467 1837.74 163.44 1838.78 162.72C1839.85 161.973 1841.17 161.6 1842.74 161.6C1843.83 161.6 1844.82 161.787 1845.7 162.16C1846.61 162.533 1847.37 163.067 1847.98 163.76C1848.62 164.427 1849.11 165.24 1849.46 166.2C1849.81 167.133 1849.98 168.187 1849.98 169.36V184H1846.38V169.96C1846.38 168.28 1845.95 166.973 1845.1 166.04C1844.25 165.107 1843.06 164.64 1841.54 164.64C1840.02 164.64 1838.81 165.147 1837.9 166.16C1837.02 167.147 1836.58 168.493 1836.58 170.2V184H1832.98ZM1856.37 170C1856.37 168.72 1856.54 167.56 1856.89 166.52C1857.23 165.48 1857.73 164.6 1858.37 163.88C1859.03 163.16 1859.83 162.6 1860.77 162.2C1861.7 161.8 1862.74 161.6 1863.89 161.6C1865.49 161.6 1866.85 161.987 1867.97 162.76C1869.09 163.507 1869.85 164.587 1870.25 166H1870.53V162H1873.93V182.4C1873.93 184.987 1873.17 187 1871.65 188.44C1870.13 189.88 1867.99 190.6 1865.25 190.6H1859.85V187.32H1865.25C1866.85 187.32 1868.09 186.893 1868.97 186.04C1869.87 185.187 1870.33 183.973 1870.33 182.4V181.6L1870.49 177.6H1870.25C1869.85 179.013 1869.09 180.107 1867.97 180.88C1866.85 181.627 1865.49 182 1863.89 182C1862.74 182 1861.7 181.8 1860.77 181.4C1859.86 181 1859.07 180.44 1858.41 179.72C1857.77 179 1857.26 178.12 1856.89 177.08C1856.54 176.04 1856.37 174.88 1856.37 173.6V170ZM1860.05 173.6C1860.05 175.253 1860.5 176.547 1861.41 177.48C1862.34 178.413 1863.61 178.88 1865.21 178.88C1866.81 178.88 1868.06 178.413 1868.97 177.48C1869.87 176.547 1870.33 175.253 1870.33 173.6V170C1870.33 168.347 1869.87 167.053 1868.97 166.12C1868.06 165.187 1866.81 164.72 1865.21 164.72C1863.61 164.72 1862.34 165.187 1861.41 166.12C1860.5 167.053 1860.05 168.347 1860.05 170V173.6ZM1713.14 211H1716.74V225.24C1716.74 228.573 1718.33 230.24 1721.5 230.24C1724.73 230.24 1726.34 228.573 1726.34 225.24V211H1729.94V225.24C1729.94 227.853 1729.21 229.867 1727.74 231.28C1726.3 232.693 1724.22 233.4 1721.5 233.4C1718.83 233.4 1716.77 232.693 1715.3 231.28C1713.86 229.84 1713.14 227.827 1713.14 225.24V211ZM1744.92 233.4C1742.6 233.4 1740.68 232.88 1739.16 231.84C1737.67 230.773 1736.82 229.36 1736.6 227.6H1740.4C1740.56 228.373 1741.06 229 1741.88 229.48C1742.71 229.96 1743.72 230.2 1744.92 230.2H1746.04C1747.48 230.2 1748.6 229.907 1749.4 229.32C1750.2 228.707 1750.6 227.893 1750.6 226.88C1750.6 225.147 1749.38 224.093 1746.92 223.72L1743.6 223.24C1741.44 222.92 1739.83 222.24 1738.76 221.2C1737.7 220.16 1737.16 218.707 1737.16 216.84C1737.16 214.867 1737.86 213.333 1739.24 212.24C1740.66 211.147 1742.62 210.6 1745.12 210.6H1746.24C1747.31 210.6 1748.3 210.733 1749.2 211C1750.11 211.267 1750.91 211.653 1751.6 212.16C1752.3 212.64 1752.86 213.227 1753.28 213.92C1753.74 214.587 1754.03 215.333 1754.16 216.16H1750.36C1750.2 215.467 1749.75 214.907 1749 214.48C1748.26 214.027 1747.34 213.8 1746.24 213.8H1745.12C1743.76 213.8 1742.7 214.067 1741.92 214.6C1741.18 215.133 1740.8 215.933 1740.8 217C1740.8 217.853 1741.06 218.507 1741.56 218.96C1742.1 219.387 1742.95 219.68 1744.12 219.84L1747.44 220.32C1749.82 220.667 1751.54 221.36 1752.6 222.4C1753.7 223.44 1754.24 224.92 1754.24 226.84C1754.24 228.893 1753.52 230.507 1752.08 231.68C1750.67 232.827 1748.66 233.4 1746.04 233.4H1744.92ZM1761.31 233V229.72H1769.31V214.28H1762.31V211H1772.91V229.72H1779.51V233H1761.31ZM1770.11 202.4H1770.91C1771.68 202.4 1772.31 202.627 1772.79 203.08C1773.27 203.533 1773.51 204.12 1773.51 204.84C1773.51 205.56 1773.27 206.133 1772.79 206.56C1772.31 206.987 1771.68 207.2 1770.91 207.2H1770.11C1769.33 207.2 1768.71 207 1768.23 206.6C1767.75 206.173 1767.51 205.587 1767.51 204.84C1767.51 204.12 1767.75 203.533 1768.23 203.08C1768.71 202.627 1769.33 202.4 1770.11 202.4ZM1785.01 233V211H1788.41V214.8H1788.73C1789.08 213.467 1789.77 212.44 1790.81 211.72C1791.88 210.973 1793.2 210.6 1794.77 210.6C1795.87 210.6 1796.85 210.787 1797.73 211.16C1798.64 211.533 1799.4 212.067 1800.01 212.76C1800.65 213.427 1801.15 214.24 1801.49 215.2C1801.84 216.133 1802.01 217.187 1802.01 218.36V233H1798.41V218.96C1798.41 217.28 1797.99 215.973 1797.13 215.04C1796.28 214.107 1795.09 213.64 1793.57 213.64C1792.05 213.64 1790.84 214.147 1789.93 215.16C1789.05 216.147 1788.61 217.493 1788.61 219.2V233H1785.01ZM1808.4 219C1808.4 217.72 1808.57 216.56 1808.92 215.52C1809.26 214.48 1809.76 213.6 1810.4 212.88C1811.06 212.16 1811.86 211.6 1812.8 211.2C1813.73 210.8 1814.77 210.6 1815.92 210.6C1817.52 210.6 1818.88 210.987 1820 211.76C1821.12 212.507 1821.88 213.587 1822.28 215H1822.56V211H1825.96V231.4C1825.96 233.987 1825.2 236 1823.68 237.44C1822.16 238.88 1820.02 239.6 1817.28 239.6H1811.88V236.32H1817.28C1818.88 236.32 1820.12 235.893 1821 235.04C1821.9 234.187 1822.36 232.973 1822.36 231.4V230.6L1822.52 226.6H1822.28C1821.88 228.013 1821.12 229.107 1820 229.88C1818.88 230.627 1817.52 231 1815.92 231C1814.77 231 1813.73 230.8 1812.8 230.4C1811.89 230 1811.1 229.44 1810.44 228.72C1809.8 228 1809.29 227.12 1808.92 226.08C1808.57 225.04 1808.4 223.88 1808.4 222.6V219ZM1812.08 222.6C1812.08 224.253 1812.53 225.547 1813.44 226.48C1814.37 227.413 1815.64 227.88 1817.24 227.88C1818.84 227.88 1820.09 227.413 1821 226.48C1821.9 225.547 1822.36 224.253 1822.36 222.6V219C1822.36 217.347 1821.9 216.053 1821 215.12C1820.09 214.187 1818.84 213.72 1817.24 213.72C1815.64 213.72 1814.37 214.187 1813.44 215.12C1812.53 216.053 1812.08 217.347 1812.08 219V222.6ZM1650.39 253.2C1651.69 253.2 1652.88 253.4 1653.95 253.8C1655.01 254.2 1655.92 254.773 1656.67 255.52C1657.44 256.267 1658.03 257.16 1658.43 258.2C1658.85 259.213 1659.07 260.347 1659.07 261.6C1659.07 263.6 1658.55 265.307 1657.51 266.72C1656.49 268.107 1655.11 269.067 1653.35 269.6L1659.47 282H1655.23L1649.63 270H1644.79V282H1641.19V253.2H1650.39ZM1644.79 266.8H1650.39C1651.91 266.8 1653.11 266.333 1653.99 265.4C1654.89 264.44 1655.35 263.173 1655.35 261.6C1655.35 260.027 1654.89 258.773 1653.99 257.84C1653.08 256.88 1651.88 256.4 1650.39 256.4H1644.79V266.8ZM1664.09 275.6C1664.09 274.56 1664.26 273.627 1664.61 272.8C1664.98 271.947 1665.5 271.227 1666.17 270.64C1666.86 270.053 1667.69 269.6 1668.65 269.28C1669.61 268.96 1670.69 268.8 1671.89 268.8H1678.45V267C1678.45 265.64 1678 264.587 1677.09 263.84C1676.21 263.067 1674.93 262.68 1673.25 262.68C1672.02 262.68 1670.97 262.907 1670.09 263.36C1669.24 263.813 1668.66 264.44 1668.37 265.24H1664.77C1665.14 263.507 1666.09 262.133 1667.61 261.12C1669.16 260.107 1671.06 259.6 1673.33 259.6C1676.05 259.6 1678.18 260.24 1679.73 261.52C1681.28 262.773 1682.05 264.533 1682.05 266.8V282H1678.77V277.8H1678.45C1678.1 279.213 1677.29 280.333 1676.01 281.16C1674.73 281.987 1673.17 282.4 1671.33 282.4C1669.12 282.4 1667.36 281.787 1666.05 280.56C1664.74 279.333 1664.09 277.68 1664.09 275.6ZM1672.13 279.44C1673.04 279.44 1673.88 279.32 1674.65 279.08C1675.42 278.84 1676.09 278.507 1676.65 278.08C1677.21 277.627 1677.65 277.107 1677.97 276.52C1678.29 275.933 1678.45 275.293 1678.45 274.6V271.6H1671.97C1670.64 271.6 1669.58 271.947 1668.81 272.64C1668.06 273.333 1667.69 274.293 1667.69 275.52C1667.69 276.747 1668.08 277.707 1668.85 278.4C1669.62 279.093 1670.72 279.44 1672.13 279.44ZM1691.55 260L1696.59 272.64C1696.83 273.253 1697.02 273.827 1697.15 274.36C1697.31 274.893 1697.43 275.36 1697.51 275.76C1697.62 276.267 1697.69 276.72 1697.71 277.12H1697.99C1698.02 276.72 1698.09 276.28 1698.19 275.8C1698.27 275.373 1698.38 274.893 1698.51 274.36C1698.65 273.827 1698.82 273.253 1699.03 272.64L1703.67 260H1707.55L1696.87 288.6H1693.03L1696.07 280.4L1687.55 260H1691.55ZM1712.02 260H1714.86V263.24H1715.14C1715.25 262.067 1715.62 261.173 1716.26 260.56C1716.9 259.92 1717.75 259.6 1718.82 259.6C1719.89 259.6 1720.77 259.92 1721.46 260.56C1722.15 261.173 1722.63 262.067 1722.9 263.24H1723.1C1723.21 262.067 1723.58 261.173 1724.22 260.56C1724.86 259.92 1725.71 259.6 1726.78 259.6C1728.14 259.6 1729.19 260.107 1729.94 261.12C1730.69 262.107 1731.06 263.48 1731.06 265.24V282H1727.94V265.24C1727.94 264.307 1727.73 263.6 1727.3 263.12C1726.9 262.613 1726.31 262.36 1725.54 262.36C1723.91 262.36 1723.1 263.387 1723.1 265.44V282H1719.98V265.24C1719.98 264.467 1719.79 263.8 1719.42 263.24C1719.07 262.653 1718.46 262.36 1717.58 262.36C1716.78 262.36 1716.15 262.653 1715.7 263.24C1715.33 263.773 1715.14 264.507 1715.14 265.44V282H1712.02V260ZM1736.04 275.6C1736.04 274.56 1736.22 273.627 1736.56 272.8C1736.94 271.947 1737.46 271.227 1738.12 270.64C1738.82 270.053 1739.64 269.6 1740.6 269.28C1741.56 268.96 1742.64 268.8 1743.84 268.8H1750.4V267C1750.4 265.64 1749.95 264.587 1749.04 263.84C1748.16 263.067 1746.88 262.68 1745.2 262.68C1743.98 262.68 1742.92 262.907 1742.04 263.36C1741.19 263.813 1740.62 264.44 1740.32 265.24H1736.72C1737.1 263.507 1738.04 262.133 1739.56 261.12C1741.11 260.107 1743.02 259.6 1745.28 259.6C1748 259.6 1750.14 260.24 1751.68 261.52C1753.23 262.773 1754 264.533 1754 266.8V282H1750.72V277.8H1750.4C1750.06 279.213 1749.24 280.333 1747.96 281.16C1746.68 281.987 1745.12 282.4 1743.28 282.4C1741.07 282.4 1739.31 281.787 1738 280.56C1736.7 279.333 1736.04 277.68 1736.04 275.6ZM1744.08 279.44C1744.99 279.44 1745.83 279.32 1746.6 279.08C1747.38 278.84 1748.04 278.507 1748.6 278.08C1749.16 277.627 1749.6 277.107 1749.92 276.52C1750.24 275.933 1750.4 275.293 1750.4 274.6V271.6H1743.92C1742.59 271.6 1741.54 271.947 1740.76 272.64C1740.02 273.333 1739.64 274.293 1739.64 275.52C1739.64 276.747 1740.03 277.707 1740.8 278.4C1741.58 279.093 1742.67 279.44 1744.08 279.44ZM1761.99 260H1765.39V263.8H1765.71C1766.05 262.493 1766.77 261.467 1767.87 260.72C1768.96 259.973 1770.31 259.6 1771.91 259.6C1774.23 259.6 1776.04 260.333 1777.35 261.8C1778.68 263.24 1779.35 265.227 1779.35 267.76V269H1775.75V268.2C1775.75 266.467 1775.31 265.133 1774.43 264.2C1773.57 263.24 1772.35 262.76 1770.75 262.76C1769.17 262.76 1767.92 263.253 1766.99 264.24C1766.05 265.2 1765.59 266.52 1765.59 268.2V282H1761.99V260ZM1793.81 282.4C1792.45 282.4 1791.23 282.2 1790.13 281.8C1789.07 281.4 1788.15 280.827 1787.37 280.08C1786.63 279.333 1786.04 278.427 1785.61 277.36C1785.21 276.293 1785.01 275.107 1785.01 273.8V268.2C1785.01 266.893 1785.21 265.707 1785.61 264.64C1786.04 263.573 1786.63 262.667 1787.37 261.92C1788.15 261.173 1789.07 260.6 1790.13 260.2C1791.23 259.8 1792.45 259.6 1793.81 259.6C1796.24 259.6 1798.23 260.267 1799.77 261.6C1801.35 262.907 1802.29 264.707 1802.61 267H1799.01C1798.83 265.72 1798.25 264.707 1797.29 263.96C1796.36 263.187 1795.2 262.8 1793.81 262.8C1792.21 262.8 1790.95 263.28 1790.01 264.24C1789.08 265.2 1788.61 266.52 1788.61 268.2V273.8C1788.61 275.48 1789.07 276.8 1789.97 277.76C1790.91 278.72 1792.19 279.2 1793.81 279.2C1795.2 279.2 1796.36 278.827 1797.29 278.08C1798.25 277.307 1798.83 276.28 1799.01 275H1802.61C1802.27 277.32 1801.31 279.133 1799.73 280.44C1798.19 281.747 1796.21 282.4 1793.81 282.4ZM1809 252.8H1812.6V260C1812.6 260.373 1812.58 260.787 1812.56 261.24C1812.56 261.667 1812.54 262.067 1812.52 262.44C1812.46 262.893 1812.42 263.347 1812.4 263.8H1812.72C1813.06 262.467 1813.76 261.44 1814.8 260.72C1815.86 259.973 1817.18 259.6 1818.76 259.6C1819.85 259.6 1820.84 259.787 1821.72 260.16C1822.62 260.533 1823.38 261.067 1824 261.76C1824.64 262.427 1825.13 263.24 1825.48 264.2C1825.82 265.133 1826 266.187 1826 267.36V282H1822.4V267.96C1822.4 266.28 1821.97 264.973 1821.12 264.04C1820.26 263.107 1819.08 262.64 1817.56 262.64C1816.04 262.64 1814.82 263.147 1813.92 264.16C1813.04 265.147 1812.6 266.493 1812.6 268.2V282H1809V252.8ZM1833.26 282V278.72H1841.26V263.28H1834.26V260H1844.86V278.72H1851.46V282H1833.26ZM1842.06 251.4H1842.86C1843.63 251.4 1844.26 251.627 1844.74 252.08C1845.22 252.533 1845.46 253.12 1845.46 253.84C1845.46 254.56 1845.22 255.133 1844.74 255.56C1844.26 255.987 1843.63 256.2 1842.86 256.2H1842.06C1841.29 256.2 1840.66 256 1840.18 255.6C1839.7 255.173 1839.46 254.587 1839.46 253.84C1839.46 253.12 1839.7 252.533 1840.18 252.08C1840.66 251.627 1841.29 251.4 1842.06 251.4ZM1856.97 282V260H1860.37V263.8H1860.69C1861.03 262.467 1861.73 261.44 1862.77 260.72C1863.83 259.973 1865.15 259.6 1866.73 259.6C1867.82 259.6 1868.81 259.787 1869.69 260.16C1870.59 260.533 1871.35 261.067 1871.97 261.76C1872.61 262.427 1873.1 263.24 1873.45 264.2C1873.79 265.133 1873.97 266.187 1873.97 267.36V282H1870.37V267.96C1870.37 266.28 1869.94 264.973 1869.09 264.04C1868.23 263.107 1867.05 262.64 1865.53 262.64C1864.01 262.64 1862.79 263.147 1861.89 264.16C1861.01 265.147 1860.57 266.493 1860.57 268.2V282H1856.97ZM1880.35 268C1880.35 266.72 1880.52 265.56 1880.87 264.52C1881.22 263.48 1881.71 262.6 1882.35 261.88C1883.02 261.16 1883.82 260.6 1884.75 260.2C1885.68 259.8 1886.72 259.6 1887.87 259.6C1889.47 259.6 1890.83 259.987 1891.95 260.76C1893.07 261.507 1893.83 262.587 1894.23 264H1894.51V260H1897.91V280.4C1897.91 282.987 1897.15 285 1895.63 286.44C1894.11 287.88 1891.98 288.6 1889.23 288.6H1883.83V285.32H1889.23C1890.83 285.32 1892.07 284.893 1892.95 284.04C1893.86 283.187 1894.31 281.973 1894.31 280.4V279.6L1894.47 275.6H1894.23C1893.83 277.013 1893.07 278.107 1891.95 278.88C1890.83 279.627 1889.47 280 1887.87 280C1886.72 280 1885.68 279.8 1884.75 279.4C1883.84 279 1883.06 278.44 1882.39 277.72C1881.75 277 1881.24 276.12 1880.87 275.08C1880.52 274.04 1880.35 272.88 1880.35 271.6V268ZM1884.03 271.6C1884.03 273.253 1884.48 274.547 1885.39 275.48C1886.32 276.413 1887.59 276.88 1889.19 276.88C1890.79 276.88 1892.04 276.413 1892.95 275.48C1893.86 274.547 1894.31 273.253 1894.31 271.6V268C1894.31 266.347 1893.86 265.053 1892.95 264.12C1892.04 263.187 1890.79 262.72 1889.19 262.72C1887.59 262.72 1886.32 263.187 1885.39 264.12C1884.48 265.053 1884.03 266.347 1884.03 268V271.6Z" fill="black"/>
<path d="M337 218H743" stroke="#474747" stroke-width="6"/>
<path d="M741 207.718C741 206.952 741.827 206.47 742.494 206.849L761.47 217.631C762.144 218.014 762.144 218.986 761.47 219.369L742.494 230.151C741.827 230.53 741 230.048 741 229.282V207.718Z" fill="#474747"/>
<path d="M1931 218H1989" stroke="#474747" stroke-width="6"/>
<path d="M1987 207.718C1987 206.952 1987.83 206.47 1988.49 206.849L2007.47 217.631C2008.14 218.014 2008.14 218.986 2007.47 219.369L1988.49 230.151C1987.83 230.53 1987 230.048 1987 229.282V207.718Z" fill="#474747"/>
<path d="M1087 218H1588" stroke="#474747" stroke-width="6"/>
<path d="M1586 207.718C1586 206.952 1586.83 206.47 1587.49 206.849L1606.47 217.631C1607.14 218.014 1607.14 218.986 1606.47 219.369L1587.49 230.151C1586.83 230.53 1586 230.048 1586 229.282V207.718Z" fill="#474747"/>
<rect x="412" y="176" width="273" height="84" rx="40" fill="#FFEAB4"/>
<rect x="414" y="178" width="269" height="80" rx="38" stroke="#845A1C" stroke-opacity="0.6" stroke-width="4"/>
<path d="M441.898 204.2C443.205 204.2 444.391 204.4 445.458 204.8C446.525 205.2 447.431 205.773 448.178 206.52C448.951 207.267 449.538 208.16 449.938 209.2C450.365 210.213 450.578 211.347 450.578 212.6C450.578 213.853 450.365 215 449.938 216.04C449.511 217.053 448.911 217.933 448.138 218.68C447.391 219.427 446.485 220 445.418 220.4C444.351 220.8 443.178 221 441.898 221H435.778V233H432.178V204.2H441.898ZM435.778 207.4V217.8H441.898C443.391 217.8 444.591 217.333 445.498 216.4C446.405 215.44 446.858 214.173 446.858 212.6C446.858 211.027 446.405 209.773 445.498 208.84C444.591 207.88 443.391 207.4 441.898 207.4H435.778ZM455.083 226.6C455.083 225.56 455.256 224.627 455.603 223.8C455.976 222.947 456.496 222.227 457.163 221.64C457.856 221.053 458.683 220.6 459.643 220.28C460.603 219.96 461.683 219.8 462.883 219.8H469.443V218C469.443 216.64 468.989 215.587 468.083 214.84C467.203 214.067 465.923 213.68 464.243 213.68C463.016 213.68 461.963 213.907 461.083 214.36C460.229 214.813 459.656 215.44 459.363 216.24H455.763C456.136 214.507 457.083 213.133 458.603 212.12C460.149 211.107 462.056 210.6 464.322 210.6C467.043 210.6 469.176 211.24 470.723 212.52C472.269 213.773 473.043 215.533 473.043 217.8V233H469.763V228.8H469.443C469.096 230.213 468.283 231.333 467.003 232.16C465.723 232.987 464.163 233.4 462.323 233.4C460.109 233.4 458.349 232.787 457.043 231.56C455.736 230.333 455.083 228.68 455.083 226.6ZM463.122 230.44C464.029 230.44 464.869 230.32 465.643 230.08C466.416 229.84 467.083 229.507 467.643 229.08C468.203 228.627 468.643 228.107 468.963 227.52C469.283 226.933 469.443 226.293 469.443 225.6V222.6H462.963C461.629 222.6 460.576 222.947 459.803 223.64C459.056 224.333 458.683 225.293 458.683 226.52C458.683 227.747 459.069 228.707 459.843 229.4C460.616 230.093 461.709 230.44 463.122 230.44ZM481.027 211H484.427V214.8H484.747C485.094 213.493 485.814 212.467 486.907 211.72C488 210.973 489.347 210.6 490.947 210.6C493.267 210.6 495.08 211.333 496.387 212.8C497.72 214.24 498.387 216.227 498.387 218.76V220H494.787V219.2C494.787 217.467 494.347 216.133 493.467 215.2C492.614 214.24 491.387 213.76 489.787 213.76C488.214 213.76 486.96 214.253 486.027 215.24C485.094 216.2 484.627 217.52 484.627 219.2V233H481.027V211ZM503.051 226.6C503.051 225.56 503.225 224.627 503.571 223.8C503.945 222.947 504.465 222.227 505.131 221.64C505.825 221.053 506.651 220.6 507.611 220.28C508.571 219.96 509.651 219.8 510.851 219.8H517.411V218C517.411 216.64 516.958 215.587 516.051 214.84C515.171 214.067 513.891 213.68 512.211 213.68C510.985 213.68 509.931 213.907 509.051 214.36C508.198 214.813 507.625 215.44 507.331 216.24H503.731C504.105 214.507 505.051 213.133 506.571 212.12C508.118 211.107 510.025 210.6 512.291 210.6C515.011 210.6 517.145 211.24 518.691 212.52C520.238 213.773 521.011 215.533 521.011 217.8V233H517.731V228.8H517.411C517.065 230.213 516.251 231.333 514.971 232.16C513.691 232.987 512.131 233.4 510.291 233.4C508.078 233.4 506.318 232.787 505.011 231.56C503.705 230.333 503.051 228.68 503.051 226.6ZM511.091 230.44C511.998 230.44 512.838 230.32 513.611 230.08C514.385 229.84 515.051 229.507 515.611 229.08C516.171 228.627 516.611 228.107 516.931 227.52C517.251 226.933 517.411 226.293 517.411 225.6V222.6H510.931C509.598 222.6 508.545 222.947 507.771 223.64C507.025 224.333 506.651 225.293 506.651 226.52C506.651 227.747 507.038 228.707 507.811 229.4C508.585 230.093 509.678 230.44 511.091 230.44ZM526.996 211H529.836V214.24H530.116C530.222 213.067 530.596 212.173 531.236 211.56C531.876 210.92 532.729 210.6 533.796 210.6C534.862 210.6 535.742 210.92 536.436 211.56C537.129 212.173 537.609 213.067 537.876 214.24H538.076C538.182 213.067 538.556 212.173 539.196 211.56C539.836 210.92 540.689 210.6 541.756 210.6C543.116 210.6 544.169 211.107 544.916 212.12C545.662 213.107 546.036 214.48 546.036 216.24V233H542.916V216.24C542.916 215.307 542.702 214.6 542.276 214.12C541.876 213.613 541.289 213.36 540.516 213.36C538.889 213.36 538.076 214.387 538.076 216.44V233H534.956V216.24C534.956 215.467 534.769 214.8 534.396 214.24C534.049 213.653 533.436 213.36 532.556 213.36C531.756 213.36 531.129 213.653 530.676 214.24C530.302 214.773 530.116 215.507 530.116 216.44V233H526.996V211ZM560.5 233.4C557.753 233.4 555.593 232.653 554.02 231.16C552.473 229.667 551.7 227.613 551.7 225V219C551.7 216.387 552.473 214.333 554.02 212.84C555.593 211.347 557.753 210.6 560.5 210.6C563.247 210.6 565.393 211.347 566.94 212.84C568.513 214.333 569.3 216.387 569.3 219V223.04H555.3V224.8C555.3 226.48 555.753 227.8 556.66 228.76C557.593 229.72 558.873 230.2 560.5 230.2C561.7 230.2 562.74 230.013 563.62 229.64C564.5 229.267 565.153 228.72 565.58 228H569.18C568.727 229.68 567.713 231 566.14 231.96C564.593 232.92 562.713 233.4 560.5 233.4ZM565.7 220.04V219C565.7 217.347 565.247 216.067 564.34 215.16C563.433 214.253 562.153 213.8 560.5 213.8C558.847 213.8 557.567 214.253 556.66 215.16C555.753 216.067 555.3 217.347 555.3 219V220.04H565.7ZM574.884 211H581.284V204.2H584.884V211H593.484V214.28H584.884V227.32C584.884 228.067 585.111 228.653 585.564 229.08C586.044 229.507 586.684 229.72 587.484 229.72H593.084V233H587.484C585.591 233 584.084 232.48 582.964 231.44C581.844 230.4 581.284 229.027 581.284 227.32V214.28H574.884V211ZM608.469 233.4C605.722 233.4 603.562 232.653 601.989 231.16C600.442 229.667 599.669 227.613 599.669 225V219C599.669 216.387 600.442 214.333 601.989 212.84C603.562 211.347 605.722 210.6 608.469 210.6C611.215 210.6 613.362 211.347 614.909 212.84C616.482 214.333 617.269 216.387 617.269 219V223.04H603.269V224.8C603.269 226.48 603.722 227.8 604.629 228.76C605.562 229.72 606.842 230.2 608.469 230.2C609.669 230.2 610.709 230.013 611.589 229.64C612.469 229.267 613.122 228.72 613.549 228H617.149C616.695 229.68 615.682 231 614.109 231.96C612.562 232.92 610.682 233.4 608.469 233.4ZM613.669 220.04V219C613.669 217.347 613.215 216.067 612.309 215.16C611.402 214.253 610.122 213.8 608.469 213.8C606.815 213.8 605.535 214.253 604.629 215.16C603.722 216.067 603.269 217.347 603.269 219V220.04H613.669ZM624.933 211H628.333V214.8H628.653C629 213.493 629.72 212.467 630.813 211.72C631.906 210.973 633.253 210.6 634.853 210.6C637.173 210.6 638.986 211.333 640.293 212.8C641.626 214.24 642.293 216.227 642.293 218.76V220H638.693V219.2C638.693 217.467 638.253 216.133 637.373 215.2C636.52 214.24 635.293 213.76 633.693 213.76C632.12 213.76 630.866 214.253 629.933 215.24C629 216.2 628.533 217.52 628.533 219.2V233H624.933V211ZM655.838 233.4C653.518 233.4 651.598 232.88 650.078 231.84C648.584 230.773 647.731 229.36 647.518 227.6H651.318C651.478 228.373 651.971 229 652.798 229.48C653.624 229.96 654.638 230.2 655.838 230.2H656.958C658.398 230.2 659.518 229.907 660.318 229.32C661.118 228.707 661.518 227.893 661.518 226.88C661.518 225.147 660.291 224.093 657.838 223.72L654.518 223.24C652.358 222.92 650.744 222.24 649.678 221.2C648.611 220.16 648.078 218.707 648.078 216.84C648.078 214.867 648.771 213.333 650.158 212.24C651.571 211.147 653.531 210.6 656.038 210.6H657.158C658.224 210.6 659.211 210.733 660.118 211C661.024 211.267 661.824 211.653 662.518 212.16C663.211 212.64 663.771 213.227 664.198 213.92C664.651 214.587 664.944 215.333 665.078 216.16H661.278C661.118 215.467 660.664 214.907 659.918 214.48C659.171 214.027 658.251 213.8 657.158 213.8H656.038C654.678 213.8 653.611 214.067 652.838 214.6C652.091 215.133 651.718 215.933 651.718 217C651.718 217.853 651.971 218.507 652.478 218.96C653.011 219.387 653.864 219.68 655.038 219.84L658.358 220.32C660.731 220.667 662.451 221.36 663.518 222.4C664.611 223.44 665.158 224.92 665.158 226.84C665.158 228.893 664.438 230.507 662.998 231.68C661.584 232.827 659.571 233.4 656.958 233.4H655.838Z" fill="black"/>
<rect x="1162" y="134" width="368" height="168" rx="40" fill="#FFEAB4"/>
<rect x="1164" y="136" width="364" height="164" rx="38" stroke="#845A1C" stroke-opacity="0.6" stroke-width="4"/>
<path d="M1260.22 180.84V158.36H1253.86V155.2H1270.26V158.36H1263.9V180.84H1270.26V184H1253.86V180.84H1260.22ZM1276.53 162H1279.37V165.24H1279.65C1279.75 164.067 1280.13 163.173 1280.77 162.56C1281.41 161.92 1282.26 161.6 1283.33 161.6C1284.39 161.6 1285.27 161.92 1285.97 162.56C1286.66 163.173 1287.14 164.067 1287.41 165.24H1287.61C1287.71 164.067 1288.09 163.173 1288.73 162.56C1289.37 161.92 1290.22 161.6 1291.29 161.6C1292.65 161.6 1293.7 162.107 1294.45 163.12C1295.19 164.107 1295.57 165.48 1295.57 167.24V184H1292.45V167.24C1292.45 166.307 1292.23 165.6 1291.81 165.12C1291.41 164.613 1290.82 164.36 1290.05 164.36C1288.42 164.36 1287.61 165.387 1287.61 167.44V184H1284.49V167.24C1284.49 166.467 1284.3 165.8 1283.93 165.24C1283.58 164.653 1282.97 164.36 1282.09 164.36C1281.29 164.36 1280.66 164.653 1280.21 165.24C1279.83 165.773 1279.65 166.507 1279.65 167.44V184H1276.53V162ZM1304.95 162V165.8H1305.27C1305.62 164.467 1306.32 163.44 1307.39 162.72C1308.46 161.973 1309.8 161.6 1311.43 161.6C1312.55 161.6 1313.56 161.8 1314.47 162.2C1315.38 162.6 1316.15 163.173 1316.79 163.92C1317.43 164.64 1317.92 165.533 1318.27 166.6C1318.64 167.667 1318.83 168.867 1318.83 170.2V175.8C1318.83 177.133 1318.64 178.333 1318.27 179.4C1317.92 180.467 1317.43 181.373 1316.79 182.12C1316.15 182.84 1315.38 183.4 1314.47 183.8C1313.56 184.2 1312.55 184.4 1311.43 184.4C1309.8 184.4 1308.46 184.04 1307.39 183.32C1306.32 182.573 1305.62 181.533 1305.27 180.2H1304.95C1304.98 180.653 1305.02 181.107 1305.07 181.56C1305.1 181.96 1305.11 182.373 1305.11 182.8C1305.14 183.227 1305.15 183.627 1305.15 184V190.6H1301.55V162H1304.95ZM1305.15 175.8C1305.15 177.48 1305.59 178.813 1306.47 179.8C1307.38 180.787 1308.58 181.28 1310.07 181.28C1311.67 181.28 1312.92 180.787 1313.83 179.8C1314.76 178.813 1315.23 177.48 1315.23 175.8V170.2C1315.23 168.467 1314.78 167.12 1313.87 166.16C1312.96 165.2 1311.7 164.72 1310.07 164.72C1308.58 164.72 1307.38 165.213 1306.47 166.2C1305.59 167.187 1305.15 168.52 1305.15 170.2V175.8ZM1334.5 154.8V177.6C1334.5 178.587 1334.76 179.36 1335.3 179.92C1335.83 180.453 1336.56 180.72 1337.5 180.72H1344.02V184H1337.5C1335.44 184 1333.83 183.44 1332.66 182.32C1331.48 181.173 1330.9 179.6 1330.9 177.6V158.08H1323.62V154.8H1334.5ZM1349.8 184V180.72H1357.8V165.28H1350.8V162H1361.4V180.72H1368V184H1349.8ZM1358.6 153.4H1359.4C1360.17 153.4 1360.8 153.627 1361.28 154.08C1361.76 154.533 1362 155.12 1362 155.84C1362 156.56 1361.76 157.133 1361.28 157.56C1360.8 157.987 1360.17 158.2 1359.4 158.2H1358.6C1357.83 158.2 1357.2 158 1356.72 157.6C1356.24 157.173 1356 156.587 1356 155.84C1356 155.12 1356.24 154.533 1356.72 154.08C1357.2 153.627 1357.83 153.4 1358.6 153.4ZM1382.3 184.4C1380.94 184.4 1379.72 184.2 1378.62 183.8C1377.56 183.4 1376.64 182.827 1375.86 182.08C1375.12 181.333 1374.53 180.427 1374.1 179.36C1373.7 178.293 1373.5 177.107 1373.5 175.8V170.2C1373.5 168.893 1373.7 167.707 1374.1 166.64C1374.53 165.573 1375.12 164.667 1375.86 163.92C1376.64 163.173 1377.56 162.6 1378.62 162.2C1379.72 161.8 1380.94 161.6 1382.3 161.6C1384.73 161.6 1386.72 162.267 1388.26 163.6C1389.84 164.907 1390.78 166.707 1391.1 169H1387.5C1387.32 167.72 1386.74 166.707 1385.78 165.96C1384.85 165.187 1383.69 164.8 1382.3 164.8C1380.7 164.8 1379.44 165.28 1378.5 166.24C1377.57 167.2 1377.1 168.52 1377.1 170.2V175.8C1377.1 177.48 1377.56 178.8 1378.46 179.76C1379.4 180.72 1380.68 181.2 1382.3 181.2C1383.69 181.2 1384.85 180.827 1385.78 180.08C1386.74 179.307 1387.32 178.28 1387.5 177H1391.1C1390.76 179.32 1389.8 181.133 1388.22 182.44C1386.68 183.747 1384.7 184.4 1382.3 184.4ZM1397.77 184V180.72H1405.77V165.28H1398.77V162H1409.37V180.72H1415.97V184H1397.77ZM1406.57 153.4H1407.37C1408.14 153.4 1408.77 153.627 1409.25 154.08C1409.73 154.533 1409.97 155.12 1409.97 155.84C1409.97 156.56 1409.73 157.133 1409.25 157.56C1408.77 157.987 1408.14 158.2 1407.37 158.2H1406.57C1405.8 158.2 1405.17 158 1404.69 157.6C1404.21 157.173 1403.97 156.587 1403.97 155.84C1403.97 155.12 1404.21 154.533 1404.69 154.08C1405.17 153.627 1405.8 153.4 1406.57 153.4ZM1420.35 162H1426.75V155.2H1430.35V162H1438.95V165.28H1430.35V178.32C1430.35 179.067 1430.58 179.653 1431.03 180.08C1431.51 180.507 1432.15 180.72 1432.95 180.72H1438.55V184H1432.95C1431.06 184 1429.55 183.48 1428.43 182.44C1427.31 181.4 1426.75 180.027 1426.75 178.32V165.28H1420.35V162ZM1190.91 204.2C1192.22 204.2 1193.4 204.4 1194.47 204.8C1195.54 205.2 1196.44 205.773 1197.19 206.52C1197.96 207.267 1198.55 208.16 1198.95 209.2C1199.38 210.213 1199.59 211.347 1199.59 212.6C1199.59 214.6 1199.07 216.307 1198.03 217.72C1197.02 219.107 1195.63 220.067 1193.87 220.6L1199.99 233H1195.75L1190.15 221H1185.31V233H1181.71V204.2H1190.91ZM1185.31 217.8H1190.91C1192.43 217.8 1193.63 217.333 1194.51 216.4C1195.42 215.44 1195.87 214.173 1195.87 212.6C1195.87 211.027 1195.42 209.773 1194.51 208.84C1193.6 207.88 1192.4 207.4 1190.91 207.4H1185.31V217.8ZM1214.09 233.4C1211.35 233.4 1209.19 232.653 1207.61 231.16C1206.07 229.667 1205.29 227.613 1205.29 225V219C1205.29 216.387 1206.07 214.333 1207.61 212.84C1209.19 211.347 1211.35 210.6 1214.09 210.6C1216.84 210.6 1218.99 211.347 1220.53 212.84C1222.11 214.333 1222.89 216.387 1222.89 219V223.04H1208.89V224.8C1208.89 226.48 1209.35 227.8 1210.25 228.76C1211.19 229.72 1212.47 230.2 1214.09 230.2C1215.29 230.2 1216.33 230.013 1217.21 229.64C1218.09 229.267 1218.75 228.72 1219.17 228H1222.77C1222.32 229.68 1221.31 231 1219.73 231.96C1218.19 232.92 1216.31 233.4 1214.09 233.4ZM1219.29 220.04V219C1219.29 217.347 1218.84 216.067 1217.93 215.16C1217.03 214.253 1215.75 213.8 1214.09 213.8C1212.44 213.8 1211.16 214.253 1210.25 215.16C1209.35 216.067 1208.89 217.347 1208.89 219V220.04H1219.29ZM1233 211V214.8H1233.32C1233.66 213.467 1234.37 212.44 1235.44 211.72C1236.5 210.973 1237.85 210.6 1239.48 210.6C1240.6 210.6 1241.61 210.8 1242.52 211.2C1243.42 211.6 1244.2 212.173 1244.84 212.92C1245.48 213.64 1245.97 214.533 1246.32 215.6C1246.69 216.667 1246.88 217.867 1246.88 219.2V224.8C1246.88 226.133 1246.69 227.333 1246.32 228.4C1245.97 229.467 1245.48 230.373 1244.84 231.12C1244.2 231.84 1243.42 232.4 1242.52 232.8C1241.61 233.2 1240.6 233.4 1239.48 233.4C1237.85 233.4 1236.5 233.04 1235.44 232.32C1234.37 231.573 1233.66 230.533 1233.32 229.2H1233C1233.02 229.653 1233.06 230.107 1233.12 230.56C1233.14 230.96 1233.16 231.373 1233.16 231.8C1233.18 232.227 1233.2 232.627 1233.2 233V239.6H1229.6V211H1233ZM1233.2 224.8C1233.2 226.48 1233.64 227.813 1234.52 228.8C1235.42 229.787 1236.62 230.28 1238.12 230.28C1239.72 230.28 1240.97 229.787 1241.88 228.8C1242.81 227.813 1243.28 226.48 1243.28 224.8V219.2C1243.28 217.467 1242.82 216.12 1241.92 215.16C1241.01 214.2 1239.74 213.72 1238.12 213.72C1236.62 213.72 1235.42 214.213 1234.52 215.2C1233.64 216.187 1233.2 217.52 1233.2 219.2V224.8ZM1254.54 211H1257.94V214.8H1258.26C1258.61 213.493 1259.33 212.467 1260.42 211.72C1261.52 210.973 1262.86 210.6 1264.46 210.6C1266.78 210.6 1268.6 211.333 1269.9 212.8C1271.24 214.24 1271.9 216.227 1271.9 218.76V220H1268.3V219.2C1268.3 217.467 1267.86 216.133 1266.98 215.2C1266.13 214.24 1264.9 213.76 1263.3 213.76C1261.73 213.76 1260.48 214.253 1259.54 215.24C1258.61 216.2 1258.14 217.52 1258.14 219.2V233H1254.54V211ZM1286.05 233.4C1283.3 233.4 1281.14 232.653 1279.57 231.16C1278.02 229.667 1277.25 227.613 1277.25 225V219C1277.25 216.387 1278.02 214.333 1279.57 212.84C1281.14 211.347 1283.3 210.6 1286.05 210.6C1288.79 210.6 1290.94 211.347 1292.49 212.84C1294.06 214.333 1294.85 216.387 1294.85 219V223.04H1280.85V224.8C1280.85 226.48 1281.3 227.8 1282.21 228.76C1283.14 229.72 1284.42 230.2 1286.05 230.2C1287.25 230.2 1288.29 230.013 1289.17 229.64C1290.05 229.267 1290.7 228.72 1291.13 228H1294.73C1294.27 229.68 1293.26 231 1291.69 231.96C1290.14 232.92 1288.26 233.4 1286.05 233.4ZM1291.25 220.04V219C1291.25 217.347 1290.79 216.067 1289.89 215.16C1288.98 214.253 1287.7 213.8 1286.05 213.8C1284.39 213.8 1283.11 214.253 1282.21 215.16C1281.3 216.067 1280.85 217.347 1280.85 219V220.04H1291.25ZM1309.43 233.4C1307.11 233.4 1305.19 232.88 1303.67 231.84C1302.18 230.773 1301.32 229.36 1301.11 227.6H1304.91C1305.07 228.373 1305.56 229 1306.39 229.48C1307.22 229.96 1308.23 230.2 1309.43 230.2H1310.55C1311.99 230.2 1313.11 229.907 1313.91 229.32C1314.71 228.707 1315.11 227.893 1315.11 226.88C1315.11 225.147 1313.88 224.093 1311.43 223.72L1308.11 223.24C1305.95 222.92 1304.34 222.24 1303.27 221.2C1302.2 220.16 1301.67 218.707 1301.67 216.84C1301.67 214.867 1302.36 213.333 1303.75 212.24C1305.16 211.147 1307.12 210.6 1309.63 210.6H1310.75C1311.82 210.6 1312.8 210.733 1313.71 211C1314.62 211.267 1315.42 211.653 1316.11 212.16C1316.8 212.64 1317.36 213.227 1317.79 213.92C1318.24 214.587 1318.54 215.333 1318.67 216.16H1314.87C1314.71 215.467 1314.26 214.907 1313.51 214.48C1312.76 214.027 1311.84 213.8 1310.75 213.8H1309.63C1308.27 213.8 1307.2 214.067 1306.43 214.6C1305.68 215.133 1305.31 215.933 1305.31 217C1305.31 217.853 1305.56 218.507 1306.07 218.96C1306.6 219.387 1307.46 219.68 1308.63 219.84L1311.95 220.32C1314.32 220.667 1316.04 221.36 1317.11 222.4C1318.2 223.44 1318.75 224.92 1318.75 226.84C1318.75 228.893 1318.03 230.507 1316.59 231.68C1315.18 232.827 1313.16 233.4 1310.55 233.4H1309.43ZM1334.02 233.4C1331.27 233.4 1329.11 232.653 1327.54 231.16C1325.99 229.667 1325.22 227.613 1325.22 225V219C1325.22 216.387 1325.99 214.333 1327.54 212.84C1329.11 211.347 1331.27 210.6 1334.02 210.6C1336.76 210.6 1338.91 211.347 1340.46 212.84C1342.03 214.333 1342.82 216.387 1342.82 219V223.04H1328.82V224.8C1328.82 226.48 1329.27 227.8 1330.18 228.76C1331.11 229.72 1332.39 230.2 1334.02 230.2C1335.22 230.2 1336.26 230.013 1337.14 229.64C1338.02 229.267 1338.67 228.72 1339.1 228H1342.7C1342.24 229.68 1341.23 231 1339.66 231.96C1338.11 232.92 1336.23 233.4 1334.02 233.4ZM1339.22 220.04V219C1339.22 217.347 1338.76 216.067 1337.86 215.16C1336.95 214.253 1335.67 213.8 1334.02 213.8C1332.36 213.8 1331.08 214.253 1330.18 215.16C1329.27 216.067 1328.82 217.347 1328.82 219V220.04H1339.22ZM1349.52 233V211H1352.92V214.8H1353.24C1353.59 213.467 1354.28 212.44 1355.32 211.72C1356.39 210.973 1357.71 210.6 1359.28 210.6C1360.37 210.6 1361.36 210.787 1362.24 211.16C1363.15 211.533 1363.91 212.067 1364.52 212.76C1365.16 213.427 1365.65 214.24 1366 215.2C1366.35 216.133 1366.52 217.187 1366.52 218.36V233H1362.92V218.96C1362.92 217.28 1362.49 215.973 1361.64 215.04C1360.79 214.107 1359.6 213.64 1358.08 213.64C1356.56 213.64 1355.35 214.147 1354.44 215.16C1353.56 216.147 1353.12 217.493 1353.12 219.2V233H1349.52ZM1372.38 211H1378.78V204.2H1382.38V211H1390.98V214.28H1382.38V227.32C1382.38 228.067 1382.61 228.653 1383.06 229.08C1383.54 229.507 1384.18 229.72 1384.98 229.72H1390.58V233H1384.98C1383.09 233 1381.58 232.48 1380.46 231.44C1379.34 230.4 1378.78 229.027 1378.78 227.32V214.28H1372.38V211ZM1396.49 226.6C1396.49 225.56 1396.66 224.627 1397.01 223.8C1397.38 222.947 1397.9 222.227 1398.57 221.64C1399.26 221.053 1400.09 220.6 1401.05 220.28C1402.01 219.96 1403.09 219.8 1404.29 219.8H1410.85V218C1410.85 216.64 1410.4 215.587 1409.49 214.84C1408.61 214.067 1407.33 213.68 1405.65 213.68C1404.42 213.68 1403.37 213.907 1402.49 214.36C1401.64 214.813 1401.06 215.44 1400.77 216.24H1397.17C1397.54 214.507 1398.49 213.133 1400.01 212.12C1401.56 211.107 1403.46 210.6 1405.73 210.6C1408.45 210.6 1410.58 211.24 1412.13 212.52C1413.68 213.773 1414.45 215.533 1414.45 217.8V233H1411.17V228.8H1410.85C1410.5 230.213 1409.69 231.333 1408.41 232.16C1407.13 232.987 1405.57 233.4 1403.73 233.4C1401.52 233.4 1399.76 232.787 1398.45 231.56C1397.14 230.333 1396.49 228.68 1396.49 226.6ZM1404.53 230.44C1405.44 230.44 1406.28 230.32 1407.05 230.08C1407.82 229.84 1408.49 229.507 1409.05 229.08C1409.61 228.627 1410.05 228.107 1410.37 227.52C1410.69 226.933 1410.85 226.293 1410.85 225.6V222.6H1404.37C1403.04 222.6 1401.98 222.947 1401.21 223.64C1400.46 224.333 1400.09 225.293 1400.09 226.52C1400.09 227.747 1400.48 228.707 1401.25 229.4C1402.02 230.093 1403.12 230.44 1404.53 230.44ZM1420.35 211H1426.75V204.2H1430.35V211H1438.95V214.28H1430.35V227.32C1430.35 228.067 1430.58 228.653 1431.03 229.08C1431.51 229.507 1432.15 229.72 1432.95 229.72H1438.55V233H1432.95C1431.06 233 1429.55 232.48 1428.43 231.44C1427.31 230.4 1426.75 229.027 1426.75 227.32V214.28H1420.35V211ZM1445.74 233V229.72H1453.74V214.28H1446.74V211H1457.34V229.72H1463.94V233H1445.74ZM1454.54 202.4H1455.34C1456.11 202.4 1456.74 202.627 1457.22 203.08C1457.7 203.533 1457.94 204.12 1457.94 204.84C1457.94 205.56 1457.7 206.133 1457.22 206.56C1456.74 206.987 1456.11 207.2 1455.34 207.2H1454.54C1453.76 207.2 1453.14 207 1452.66 206.6C1452.18 206.173 1451.94 205.587 1451.94 204.84C1451.94 204.12 1452.18 203.533 1452.66 203.08C1453.14 202.627 1453.76 202.4 1454.54 202.4ZM1472.72 224.8C1472.72 226.48 1473.18 227.8 1474.08 228.76C1475.02 229.72 1476.3 230.2 1477.92 230.2C1479.52 230.2 1480.79 229.72 1481.72 228.76C1482.66 227.8 1483.12 226.48 1483.12 224.8V219.2C1483.12 217.52 1482.66 216.2 1481.72 215.24C1480.79 214.28 1479.52 213.8 1477.92 213.8C1476.32 213.8 1475.06 214.28 1474.12 215.24C1473.19 216.2 1472.72 217.52 1472.72 219.2V224.8ZM1469.12 219.2C1469.12 217.867 1469.32 216.68 1469.72 215.64C1470.15 214.573 1470.74 213.667 1471.48 212.92C1472.26 212.173 1473.18 211.6 1474.24 211.2C1475.34 210.8 1476.56 210.6 1477.92 210.6C1480.64 210.6 1482.79 211.36 1484.36 212.88C1485.94 214.4 1486.72 216.493 1486.72 219.16V224.8C1486.72 226.133 1486.52 227.333 1486.12 228.4C1485.72 229.467 1485.14 230.373 1484.36 231.12C1483.62 231.84 1482.7 232.4 1481.6 232.8C1480.51 233.2 1479.28 233.4 1477.92 233.4C1476.56 233.4 1475.34 233.2 1474.24 232.8C1473.18 232.4 1472.26 231.827 1471.48 231.08C1470.74 230.333 1470.15 229.427 1469.72 228.36C1469.32 227.293 1469.12 226.107 1469.12 224.8V219.2ZM1493.43 233V211H1496.83V214.8H1497.15C1497.49 213.467 1498.19 212.44 1499.23 211.72C1500.29 210.973 1501.61 210.6 1503.19 210.6C1504.28 210.6 1505.27 210.787 1506.15 211.16C1507.05 211.533 1507.81 212.067 1508.43 212.76C1509.07 213.427 1509.56 214.24 1509.91 215.2C1510.25 216.133 1510.43 217.187 1510.43 218.36V233H1506.83V218.96C1506.83 217.28 1506.4 215.973 1505.55 215.04C1504.69 214.107 1503.51 213.64 1501.99 213.64C1500.47 213.64 1499.25 214.147 1498.35 215.16C1497.47 216.147 1497.03 217.493 1497.03 219.2V233H1493.43ZM1256.86 273.8C1256.86 275.48 1257.32 276.8 1258.22 277.76C1259.16 278.72 1260.44 279.2 1262.06 279.2C1263.66 279.2 1264.93 278.72 1265.86 277.76C1266.8 276.8 1267.26 275.48 1267.26 273.8V268.2C1267.26 266.52 1266.8 265.2 1265.86 264.24C1264.93 263.28 1263.66 262.8 1262.06 262.8C1260.46 262.8 1259.2 263.28 1258.26 264.24C1257.33 265.2 1256.86 266.52 1256.86 268.2V273.8ZM1253.26 268.2C1253.26 266.867 1253.46 265.68 1253.86 264.64C1254.29 263.573 1254.88 262.667 1255.62 261.92C1256.4 261.173 1257.32 260.6 1258.38 260.2C1259.48 259.8 1260.7 259.6 1262.06 259.6C1264.78 259.6 1266.93 260.36 1268.5 261.88C1270.08 263.4 1270.86 265.493 1270.86 268.16V273.8C1270.86 275.133 1270.66 276.333 1270.26 277.4C1269.86 278.467 1269.28 279.373 1268.5 280.12C1267.76 280.84 1266.84 281.4 1265.74 281.8C1264.65 282.2 1263.42 282.4 1262.06 282.4C1260.7 282.4 1259.48 282.2 1258.38 281.8C1257.32 281.4 1256.4 280.827 1255.62 280.08C1254.88 279.333 1254.29 278.427 1253.86 277.36C1253.46 276.293 1253.26 275.107 1253.26 273.8V268.2ZM1276.45 265.48V262.2H1282.85V258.4C1282.85 256.64 1283.39 255.267 1284.49 254.28C1285.58 253.293 1287.09 252.8 1289.01 252.8H1295.45V256.08H1289.01C1287.3 256.08 1286.45 256.853 1286.45 258.4V262.2H1295.45V265.48H1286.45V282H1282.85V265.48H1276.45ZM1334.02 282.4C1332.71 282.4 1331.5 282.227 1330.38 281.88C1329.26 281.507 1328.28 280.987 1327.46 280.32C1326.66 279.627 1326.02 278.8 1325.54 277.84C1325.08 276.88 1324.84 275.8 1324.82 274.6H1328.62C1328.62 275.293 1328.75 275.92 1329.02 276.48C1329.31 277.04 1329.71 277.52 1330.22 277.92C1330.72 278.32 1331.31 278.64 1331.98 278.88C1332.64 279.093 1333.35 279.2 1334.1 279.2C1335.78 279.2 1337.11 278.813 1338.1 278.04C1339.08 277.24 1339.58 276.16 1339.58 274.8C1339.58 273.653 1339.22 272.64 1338.5 271.76C1337.78 270.853 1336.74 270.147 1335.38 269.64L1332.34 268.52C1327.88 266.893 1325.66 264.2 1325.66 260.44C1325.66 258.04 1326.42 256.173 1327.94 254.84C1329.46 253.48 1331.55 252.8 1334.22 252.8C1335.47 252.8 1336.62 252.973 1337.66 253.32C1338.7 253.667 1339.59 254.173 1340.34 254.84C1341.11 255.507 1341.71 256.32 1342.14 257.28C1342.59 258.213 1342.83 259.267 1342.86 260.44H1339.06C1339.06 259.773 1338.92 259.173 1338.66 258.64C1338.39 258.08 1338.03 257.613 1337.58 257.24C1337.15 256.84 1336.64 256.533 1336.06 256.32C1335.47 256.107 1334.84 256 1334.18 256C1332.66 256 1331.46 256.36 1330.58 257.08C1329.72 257.8 1329.3 258.773 1329.3 260C1329.3 261.2 1329.62 262.2 1330.26 263C1330.92 263.773 1331.99 264.427 1333.46 264.96L1336.66 266.12C1338.79 266.893 1340.42 268.013 1341.54 269.48C1342.66 270.947 1343.22 272.68 1343.22 274.68C1343.22 277.08 1342.39 278.973 1340.74 280.36C1339.11 281.72 1336.87 282.4 1334.02 282.4ZM1358.32 282.4C1356.96 282.4 1355.73 282.2 1354.64 281.8C1353.57 281.4 1352.65 280.827 1351.88 280.08C1351.13 279.333 1350.55 278.427 1350.12 277.36C1349.72 276.293 1349.52 275.107 1349.52 273.8V268.2C1349.52 266.893 1349.72 265.707 1350.12 264.64C1350.55 263.573 1351.13 262.667 1351.88 261.92C1352.65 261.173 1353.57 260.6 1354.64 260.2C1355.73 259.8 1356.96 259.6 1358.32 259.6C1360.75 259.6 1362.73 260.267 1364.28 261.6C1365.85 262.907 1366.8 264.707 1367.12 267H1363.52C1363.33 265.72 1362.76 264.707 1361.8 263.96C1360.87 263.187 1359.71 262.8 1358.32 262.8C1356.72 262.8 1355.45 263.28 1354.52 264.24C1353.59 265.2 1353.12 266.52 1353.12 268.2V273.8C1353.12 275.48 1353.57 276.8 1354.48 277.76C1355.41 278.72 1356.69 279.2 1358.32 279.2C1359.71 279.2 1360.87 278.827 1361.8 278.08C1362.76 277.307 1363.33 276.28 1363.52 275H1367.12C1366.77 277.32 1365.81 279.133 1364.24 280.44C1362.69 281.747 1360.72 282.4 1358.32 282.4ZM1381.98 282.4C1379.24 282.4 1377.08 281.653 1375.5 280.16C1373.96 278.667 1373.18 276.613 1373.18 274V268C1373.18 265.387 1373.96 263.333 1375.5 261.84C1377.08 260.347 1379.24 259.6 1381.98 259.6C1384.73 259.6 1386.88 260.347 1388.42 261.84C1390 263.333 1390.78 265.387 1390.78 268V272.04H1376.78V273.8C1376.78 275.48 1377.24 276.8 1378.14 277.76C1379.08 278.72 1380.36 279.2 1381.98 279.2C1383.18 279.2 1384.22 279.013 1385.1 278.64C1385.98 278.267 1386.64 277.72 1387.06 277H1390.66C1390.21 278.68 1389.2 280 1387.62 280.96C1386.08 281.92 1384.2 282.4 1381.98 282.4ZM1387.18 269.04V268C1387.18 266.347 1386.73 265.067 1385.82 264.16C1384.92 263.253 1383.64 262.8 1381.98 262.8C1380.33 262.8 1379.05 263.253 1378.14 264.16C1377.24 265.067 1376.78 266.347 1376.78 268V269.04H1387.18ZM1397.49 282V260H1400.89V263.8H1401.21C1401.56 262.467 1402.25 261.44 1403.29 260.72C1404.36 259.973 1405.68 259.6 1407.25 259.6C1408.34 259.6 1409.33 259.787 1410.21 260.16C1411.12 260.533 1411.88 261.067 1412.49 261.76C1413.13 262.427 1413.62 263.24 1413.97 264.2C1414.32 265.133 1414.49 266.187 1414.49 267.36V282H1410.89V267.96C1410.89 266.28 1410.46 264.973 1409.61 264.04C1408.76 263.107 1407.57 262.64 1406.05 262.64C1404.53 262.64 1403.32 263.147 1402.41 264.16C1401.53 265.147 1401.09 266.493 1401.09 268.2V282H1397.49ZM1429.95 282.4C1427.21 282.4 1425.05 281.653 1423.47 280.16C1421.93 278.667 1421.15 276.613 1421.15 274V268C1421.15 265.387 1421.93 263.333 1423.47 261.84C1425.05 260.347 1427.21 259.6 1429.95 259.6C1432.7 259.6 1434.85 260.347 1436.39 261.84C1437.97 263.333 1438.75 265.387 1438.75 268V272.04H1424.75V273.8C1424.75 275.48 1425.21 276.8 1426.11 277.76C1427.05 278.72 1428.33 279.2 1429.95 279.2C1431.15 279.2 1432.19 279.013 1433.07 278.64C1433.95 278.267 1434.61 277.72 1435.03 277H1438.63C1438.18 278.68 1437.17 280 1435.59 280.96C1434.05 281.92 1432.17 282.4 1429.95 282.4ZM1435.15 269.04V268C1435.15 266.347 1434.7 265.067 1433.79 264.16C1432.89 263.253 1431.61 262.8 1429.95 262.8C1428.3 262.8 1427.02 263.253 1426.11 264.16C1425.21 265.067 1424.75 266.347 1424.75 268V269.04H1435.15Z" fill="black"/>
</svg>
