<svg width="1572" height="820" viewBox="0 0 1572 820" fill="none" xmlns="http://www.w3.org/2000/svg">
<rect opacity="0.5" x="1110" y="2" width="428" height="816" rx="8" fill="#E4E4E4" stroke="#474747" stroke-width="4" stroke-dasharray="8 8"/>
<path opacity="0.5" d="M1129.05 40V19.1992H1136.2C1138.36 19.1992 1140.02 19.7461 1141.19 20.8398C1142.38 21.9336 1142.97 23.4863 1142.97 25.498C1142.97 26.9922 1142.66 28.252 1142.06 29.2773C1141.45 30.293 1140.58 31.04 1139.44 31.5186L1143.73 40H1140.21L1136.45 32.0898C1136.36 32.0898 1136.28 32.0898 1136.2 32.0898H1132.1V40H1129.05ZM1132.1 29.3066H1136.2C1137.36 29.3066 1138.26 28.999 1138.91 28.3838C1139.56 27.7686 1139.89 26.9043 1139.89 25.791C1139.89 24.5703 1139.56 23.6328 1138.91 22.9785C1138.26 22.3145 1137.36 21.9824 1136.2 21.9824H1132.1V29.3066ZM1154.71 40.293C1152.07 40.293 1150.02 39.5996 1148.58 38.2129C1147.14 36.8164 1146.42 34.8145 1146.42 32.207C1146.42 29.668 1147.03 27.6953 1148.25 26.2891C1149.48 24.8828 1151.2 24.1797 1153.43 24.1797C1155.53 24.1797 1157.15 24.8145 1158.29 26.084C1159.44 27.3535 1160.02 29.1992 1160.02 31.6211C1160.02 32.334 1159.99 32.998 1159.93 33.6133H1149.44C1149.71 34.9121 1150.33 35.8984 1151.29 36.5723C1152.24 37.2363 1153.5 37.5684 1155.07 37.5684C1155.71 37.5684 1156.35 37.5342 1156.97 37.4658C1157.6 37.3877 1158.23 37.2852 1158.88 37.1582L1159.26 39.8828C1158.34 40.0586 1157.5 40.1709 1156.74 40.2197C1155.97 40.2686 1155.3 40.293 1154.71 40.293ZM1149.32 31.2402H1157.21C1157.21 29.8438 1156.87 28.7744 1156.21 28.0322C1155.54 27.2803 1154.63 26.9043 1153.46 26.9043C1152.25 26.9043 1151.3 27.2803 1150.58 28.0322C1149.87 28.7842 1149.45 29.8535 1149.32 31.2402ZM1174.17 40V29.8926C1174.17 28.9551 1173.92 28.2324 1173.44 27.7246C1172.95 27.2168 1172.26 26.9629 1171.38 26.9629C1168.94 26.9629 1167.72 28.3984 1167.72 31.2695V40H1164.62V24.4727H1167.43L1167.68 27.2852H1168.02C1168.19 25.2148 1169.56 24.1797 1172.12 24.1797C1173.76 24.1797 1175.03 24.6777 1175.93 25.6738C1176.82 26.6699 1177.27 28.0762 1177.27 29.8926V40H1174.17ZM1187.34 40.293C1185.31 40.293 1183.76 39.624 1182.71 38.2861C1181.66 36.9482 1181.14 34.9805 1181.14 32.3828C1181.14 29.6875 1181.66 27.6465 1182.71 26.2598C1183.76 24.873 1185.31 24.1797 1187.34 24.1797C1188.5 24.1797 1189.44 24.4531 1190.16 25C1190.9 25.5469 1191.33 26.3086 1191.45 27.2852H1191.75V18.0273H1194.85V40L1192.07 40.1465L1191.76 37.1875H1191.45C1191.36 38.1641 1190.94 38.9258 1190.21 39.4727C1189.49 40.0195 1188.53 40.293 1187.34 40.293ZM1191.75 32.7637V31.709C1191.75 28.4473 1190.51 26.8164 1188.03 26.8164C1185.49 26.8164 1184.22 28.6719 1184.22 32.3828C1184.22 35.8984 1185.49 37.6562 1188.03 37.6562C1190.51 37.6562 1191.75 36.0254 1191.75 32.7637ZM1207.45 40.293C1204.8 40.293 1202.76 39.5996 1201.31 38.2129C1199.88 36.8164 1199.16 34.8145 1199.16 32.207C1199.16 29.668 1199.77 27.6953 1200.99 26.2891C1202.21 24.8828 1203.93 24.1797 1206.16 24.1797C1208.26 24.1797 1209.88 24.8145 1211.02 26.084C1212.18 27.3535 1212.75 29.1992 1212.75 31.6211C1212.75 32.334 1212.72 32.998 1212.66 33.6133H1202.18C1202.45 34.9121 1203.06 35.8984 1204.02 36.5723C1204.98 37.2363 1206.24 37.5684 1207.8 37.5684C1208.45 37.5684 1209.08 37.5342 1209.71 37.4658C1210.33 37.3877 1210.96 37.2852 1211.61 37.1582L1211.99 39.8828C1211.07 40.0586 1210.23 40.1709 1209.47 40.2197C1208.71 40.2686 1208.04 40.293 1207.45 40.293ZM1202.06 31.2402H1209.94C1209.94 29.8438 1209.61 28.7744 1208.94 28.0322C1208.28 27.2803 1207.36 26.9043 1206.19 26.9043C1204.99 26.9043 1204.03 27.2803 1203.32 28.0322C1202.61 28.7842 1202.19 29.8535 1202.06 31.2402ZM1222.62 33.3203V37.2754H1226.43V40H1216.06V37.2754H1219.52V27.1973H1216.65V24.4727H1222.04L1222.57 28.457H1222.92C1223.09 25.6055 1224.52 24.1797 1227.2 24.1797C1228.8 24.1797 1229.96 24.6387 1230.68 25.5566C1231.4 26.4746 1231.77 27.959 1231.77 30.0098H1228.69C1228.69 28.877 1228.52 28.0615 1228.18 27.5635C1227.84 27.0654 1227.3 26.8164 1226.55 26.8164C1225.23 26.8164 1224.25 27.3828 1223.59 28.5156C1222.95 29.6387 1222.62 31.2402 1222.62 33.3203ZM1252.39 40V19.1992H1255.44V37.2168H1266.16V40H1252.39ZM1276.41 40.293C1274.27 40.293 1272.6 39.5898 1271.4 38.1836C1270.21 36.7773 1269.62 34.7949 1269.62 32.2363C1269.62 29.668 1270.21 27.6855 1271.4 26.2891C1272.6 24.8828 1274.27 24.1797 1276.41 24.1797C1278.57 24.1797 1280.24 24.8828 1281.42 26.2891C1282.62 27.6855 1283.21 29.668 1283.21 32.2363C1283.21 34.7949 1282.62 36.7773 1281.42 38.1836C1280.24 39.5898 1278.57 40.293 1276.41 40.293ZM1276.41 37.5098C1277.56 37.5098 1278.44 37.0508 1279.05 36.1328C1279.68 35.2148 1279.99 33.916 1279.99 32.2363C1279.99 30.5469 1279.68 29.248 1279.05 28.3398C1278.44 27.4219 1277.56 26.9629 1276.41 26.9629C1275.27 26.9629 1274.39 27.4219 1273.76 28.3398C1273.15 29.248 1272.84 30.5469 1272.84 32.2363C1272.84 33.916 1273.15 35.2148 1273.76 36.1328C1274.39 37.0508 1275.27 37.5098 1276.41 37.5098ZM1293.99 40.293C1291.84 40.293 1290.17 39.5898 1288.98 38.1836C1287.79 36.7773 1287.2 34.7949 1287.2 32.2363C1287.2 29.668 1287.79 27.6855 1288.98 26.2891C1290.17 24.8828 1291.84 24.1797 1293.99 24.1797C1296.15 24.1797 1297.82 24.8828 1299 26.2891C1300.19 27.6855 1300.79 29.668 1300.79 32.2363C1300.79 34.7949 1300.19 36.7773 1299 38.1836C1297.82 39.5898 1296.15 40.293 1293.99 40.293ZM1293.99 37.5098C1295.13 37.5098 1296.01 37.0508 1296.63 36.1328C1297.25 35.2148 1297.57 33.916 1297.57 32.2363C1297.57 30.5469 1297.25 29.248 1296.63 28.3398C1296.01 27.4219 1295.13 26.9629 1293.99 26.9629C1292.85 26.9629 1291.97 27.4219 1291.34 28.3398C1290.73 29.248 1290.42 30.5469 1290.42 32.2363C1290.42 33.916 1290.73 35.2148 1291.34 36.1328C1291.97 37.0508 1292.85 37.5098 1293.99 37.5098ZM1305.24 46.7383V24.4727H1308.05L1308.3 27.2852H1308.49C1308.63 26.3086 1309.07 25.5469 1309.81 25C1310.56 24.4531 1311.55 24.1797 1312.76 24.1797C1314.8 24.1797 1316.34 24.873 1317.39 26.2598C1318.43 27.6465 1318.95 29.6875 1318.95 32.3828C1318.95 34.9805 1318.43 36.9482 1317.39 38.2861C1316.34 39.624 1314.8 40.293 1312.76 40.293C1311.57 40.293 1310.6 40.0195 1309.87 39.4727C1309.15 38.9258 1308.74 38.1641 1308.64 37.1875H1308.35V46.7383H1305.24ZM1308.35 32.7637C1308.35 36.0254 1309.59 37.6562 1312.07 37.6562C1314.61 37.6562 1315.88 35.8984 1315.88 32.3828C1315.88 28.6719 1314.61 26.8164 1312.07 26.8164C1309.59 26.8164 1308.35 28.4473 1308.35 31.709V32.7637Z" fill="#474747"/>
<rect x="635" y="68" width="397" height="184" rx="10" fill="#CCEAFF"/>
<rect x="637" y="70" width="393" height="180" rx="8" stroke="#1A356B" stroke-opacity="0.6" stroke-width="4"/>
<path d="M726.898 97.2C728.205 97.2 729.391 97.4 730.458 97.8C731.525 98.2 732.431 98.7733 733.178 99.52C733.951 100.267 734.538 101.16 734.938 102.2C735.365 103.213 735.578 104.347 735.578 105.6C735.578 106.853 735.365 108 734.938 109.04C734.511 110.053 733.911 110.933 733.138 111.68C732.391 112.427 731.485 113 730.418 113.4C729.351 113.8 728.178 114 726.898 114H720.778V126H717.178V97.2H726.898ZM720.778 100.4V110.8H726.898C728.391 110.8 729.591 110.333 730.498 109.4C731.405 108.44 731.858 107.173 731.858 105.6C731.858 104.027 731.405 102.773 730.498 101.84C729.591 100.88 728.391 100.4 726.898 100.4H720.778ZM742.043 104H745.443V107.8H745.763C746.109 106.493 746.829 105.467 747.923 104.72C749.016 103.973 750.363 103.6 751.963 103.6C754.283 103.6 756.096 104.333 757.403 105.8C758.736 107.24 759.403 109.227 759.403 111.76V113H755.803V112.2C755.803 110.467 755.363 109.133 754.483 108.2C753.629 107.24 752.403 106.76 750.803 106.76C749.229 106.76 747.976 107.253 747.043 108.24C746.109 109.2 745.643 110.52 745.643 112.2V126H742.043V104ZM773.547 126.4C770.8 126.4 768.64 125.653 767.067 124.16C765.52 122.667 764.747 120.613 764.747 118V112C764.747 109.387 765.52 107.333 767.067 105.84C768.64 104.347 770.8 103.6 773.547 103.6C776.294 103.6 778.44 104.347 779.987 105.84C781.56 107.333 782.347 109.387 782.347 112V116.04H768.347V117.8C768.347 119.48 768.8 120.8 769.707 121.76C770.64 122.72 771.92 123.2 773.547 123.2C774.747 123.2 775.787 123.013 776.667 122.64C777.547 122.267 778.2 121.72 778.627 121H782.227C781.774 122.68 780.76 124 779.187 124.96C777.64 125.92 775.76 126.4 773.547 126.4ZM778.747 113.04V112C778.747 110.347 778.294 109.067 777.387 108.16C776.48 107.253 775.2 106.8 773.547 106.8C771.894 106.8 770.614 107.253 769.707 108.16C768.8 109.067 768.347 110.347 768.347 112V113.04H778.747ZM792.451 104V107.8H792.771C793.118 106.467 793.825 105.44 794.891 104.72C795.958 103.973 797.305 103.6 798.931 103.6C800.051 103.6 801.065 103.8 801.971 104.2C802.878 104.6 803.651 105.173 804.291 105.92C804.931 106.64 805.425 107.533 805.771 108.6C806.145 109.667 806.331 110.867 806.331 112.2V117.8C806.331 119.133 806.145 120.333 805.771 121.4C805.425 122.467 804.931 123.373 804.291 124.12C803.651 124.84 802.878 125.4 801.971 125.8C801.065 126.2 800.051 126.4 798.931 126.4C797.305 126.4 795.958 126.04 794.891 125.32C793.825 124.573 793.118 123.533 792.771 122.2H792.451C792.478 122.653 792.518 123.107 792.571 123.56C792.598 123.96 792.611 124.373 792.611 124.8C792.638 125.227 792.651 125.627 792.651 126V132.6H789.051V104H792.451ZM792.651 117.8C792.651 119.48 793.091 120.813 793.971 121.8C794.878 122.787 796.078 123.28 797.571 123.28C799.171 123.28 800.425 122.787 801.331 121.8C802.265 120.813 802.731 119.48 802.731 117.8V112.2C802.731 110.467 802.278 109.12 801.371 108.16C800.465 107.2 799.198 106.72 797.571 106.72C796.078 106.72 794.878 107.213 793.971 108.2C793.091 109.187 792.651 110.52 792.651 112.2V117.8ZM813.996 104H817.396V107.8H817.716C818.062 106.493 818.782 105.467 819.876 104.72C820.969 103.973 822.316 103.6 823.916 103.6C826.236 103.6 828.049 104.333 829.356 105.8C830.689 107.24 831.356 109.227 831.356 111.76V113H827.756V112.2C827.756 110.467 827.316 109.133 826.436 108.2C825.582 107.24 824.356 106.76 822.756 106.76C821.182 106.76 819.929 107.253 818.996 108.24C818.062 109.2 817.596 110.52 817.596 112.2V126H813.996V104ZM840.3 117.8C840.3 119.48 840.753 120.8 841.66 121.76C842.593 122.72 843.873 123.2 845.5 123.2C847.1 123.2 848.367 122.72 849.3 121.76C850.233 120.8 850.7 119.48 850.7 117.8V112.2C850.7 110.52 850.233 109.2 849.3 108.24C848.367 107.28 847.1 106.8 845.5 106.8C843.9 106.8 842.633 107.28 841.7 108.24C840.767 109.2 840.3 110.52 840.3 112.2V117.8ZM836.7 112.2C836.7 110.867 836.9 109.68 837.3 108.64C837.727 107.573 838.313 106.667 839.06 105.92C839.833 105.173 840.753 104.6 841.82 104.2C842.913 103.8 844.14 103.6 845.5 103.6C848.22 103.6 850.367 104.36 851.94 105.88C853.513 107.4 854.3 109.493 854.3 112.16V117.8C854.3 119.133 854.1 120.333 853.7 121.4C853.3 122.467 852.713 123.373 851.94 124.12C851.193 124.84 850.273 125.4 849.18 125.8C848.087 126.2 846.86 126.4 845.5 126.4C844.14 126.4 842.913 126.2 841.82 125.8C840.753 125.4 839.833 124.827 839.06 124.08C838.313 123.333 837.727 122.427 837.3 121.36C836.9 120.293 836.7 119.107 836.7 117.8V112.2ZM869.804 126.4C868.444 126.4 867.218 126.2 866.124 125.8C865.058 125.4 864.138 124.827 863.364 124.08C862.618 123.333 862.031 122.427 861.604 121.36C861.204 120.293 861.004 119.107 861.004 117.8V112.2C861.004 110.893 861.204 109.707 861.604 108.64C862.031 107.573 862.618 106.667 863.364 105.92C864.138 105.173 865.058 104.6 866.124 104.2C867.218 103.8 868.444 103.6 869.804 103.6C872.231 103.6 874.218 104.267 875.764 105.6C877.338 106.907 878.284 108.707 878.604 111H875.004C874.818 109.72 874.244 108.707 873.284 107.96C872.351 107.187 871.191 106.8 869.804 106.8C868.204 106.8 866.938 107.28 866.004 108.24C865.071 109.2 864.604 110.52 864.604 112.2V117.8C864.604 119.48 865.058 120.8 865.964 121.76C866.898 122.72 868.178 123.2 869.804 123.2C871.191 123.2 872.351 122.827 873.284 122.08C874.244 121.307 874.818 120.28 875.004 119H878.604C878.258 121.32 877.298 123.133 875.724 124.44C874.178 125.747 872.204 126.4 869.804 126.4ZM893.469 126.4C890.722 126.4 888.562 125.653 886.989 124.16C885.442 122.667 884.669 120.613 884.669 118V112C884.669 109.387 885.442 107.333 886.989 105.84C888.562 104.347 890.722 103.6 893.469 103.6C896.215 103.6 898.362 104.347 899.909 105.84C901.482 107.333 902.269 109.387 902.269 112V116.04H888.269V117.8C888.269 119.48 888.722 120.8 889.629 121.76C890.562 122.72 891.842 123.2 893.469 123.2C894.669 123.2 895.709 123.013 896.589 122.64C897.469 122.267 898.122 121.72 898.549 121H902.149C901.695 122.68 900.682 124 899.109 124.96C897.562 125.92 895.682 126.4 893.469 126.4ZM898.669 113.04V112C898.669 110.347 898.215 109.067 897.309 108.16C896.402 107.253 895.122 106.8 893.469 106.8C891.815 106.8 890.535 107.253 889.629 108.16C888.722 109.067 888.269 110.347 888.269 112V113.04H898.669ZM916.853 126.4C914.533 126.4 912.613 125.88 911.093 124.84C909.6 123.773 908.746 122.36 908.533 120.6H912.333C912.493 121.373 912.986 122 913.813 122.48C914.64 122.96 915.653 123.2 916.853 123.2H917.973C919.413 123.2 920.533 122.907 921.333 122.32C922.133 121.707 922.533 120.893 922.533 119.88C922.533 118.147 921.306 117.093 918.853 116.72L915.533 116.24C913.373 115.92 911.76 115.24 910.693 114.2C909.626 113.16 909.093 111.707 909.093 109.84C909.093 107.867 909.786 106.333 911.173 105.24C912.586 104.147 914.546 103.6 917.053 103.6H918.173C919.24 103.6 920.226 103.733 921.133 104C922.04 104.267 922.84 104.653 923.533 105.16C924.226 105.64 924.786 106.227 925.213 106.92C925.666 107.587 925.96 108.333 926.093 109.16H922.293C922.133 108.467 921.68 107.907 920.933 107.48C920.186 107.027 919.266 106.8 918.173 106.8H917.053C915.693 106.8 914.626 107.067 913.853 107.6C913.106 108.133 912.733 108.933 912.733 110C912.733 110.853 912.986 111.507 913.493 111.96C914.026 112.387 914.88 112.68 916.053 112.84L919.373 113.32C921.746 113.667 923.466 114.36 924.533 115.4C925.626 116.44 926.173 117.92 926.173 119.84C926.173 121.893 925.453 123.507 924.013 124.68C922.6 125.827 920.586 126.4 917.973 126.4H916.853ZM940.838 126.4C938.518 126.4 936.598 125.88 935.078 124.84C933.584 123.773 932.731 122.36 932.518 120.6H936.318C936.478 121.373 936.971 122 937.798 122.48C938.624 122.96 939.638 123.2 940.838 123.2H941.958C943.398 123.2 944.518 122.907 945.318 122.32C946.118 121.707 946.518 120.893 946.518 119.88C946.518 118.147 945.291 117.093 942.838 116.72L939.518 116.24C937.358 115.92 935.744 115.24 934.678 114.2C933.611 113.16 933.078 111.707 933.078 109.84C933.078 107.867 933.771 106.333 935.158 105.24C936.571 104.147 938.531 103.6 941.038 103.6H942.158C943.224 103.6 944.211 103.733 945.118 104C946.024 104.267 946.824 104.653 947.518 105.16C948.211 105.64 948.771 106.227 949.198 106.92C949.651 107.587 949.944 108.333 950.078 109.16H946.278C946.118 108.467 945.664 107.907 944.918 107.48C944.171 107.027 943.251 106.8 942.158 106.8H941.038C939.678 106.8 938.611 107.067 937.838 107.6C937.091 108.133 936.718 108.933 936.718 110C936.718 110.853 936.971 111.507 937.478 111.96C938.011 112.387 938.864 112.68 940.038 112.84L943.358 113.32C945.731 113.667 947.451 114.36 948.518 115.4C949.611 116.44 950.158 117.92 950.158 119.84C950.158 121.893 949.438 123.507 947.998 124.68C946.584 125.827 944.571 126.4 941.958 126.4H940.838ZM727.77 163.8C727.77 162.387 728.13 161.227 728.85 160.32C729.597 159.387 730.65 158.733 732.01 158.36L731.73 157.96C730.93 156.84 730.37 155.853 730.05 155C729.73 154.12 729.57 153.253 729.57 152.4C729.57 151.44 729.73 150.56 730.05 149.76C730.397 148.933 730.877 148.227 731.49 147.64C732.13 147.053 732.89 146.6 733.77 146.28C734.65 145.96 735.65 145.8 736.77 145.8C739.144 145.8 740.997 146.427 742.33 147.68C743.664 148.907 744.33 150.56 744.33 152.64H740.73C740.73 151.547 740.37 150.653 739.65 149.96C738.957 149.267 737.997 148.92 736.77 148.92C735.65 148.92 734.77 149.267 734.13 149.96C733.49 150.627 733.17 151.467 733.17 152.48C733.17 153.653 733.637 154.893 734.57 156.2L741.45 165.68L744.29 160.6H748.05L743.53 168.56L748.21 175H744.25L741.69 171.52C740.73 172.8 739.664 173.773 738.49 174.44C737.317 175.08 736.077 175.4 734.77 175.4C732.584 175.4 730.864 174.827 729.61 173.68C728.384 172.507 727.77 170.88 727.77 168.8V163.8ZM734.97 172.2C735.877 172.2 736.744 171.907 737.57 171.32C738.424 170.707 739.144 169.88 739.73 168.84L733.53 160.4C732.09 160.853 731.37 161.987 731.37 163.8V168.8C731.37 169.893 731.677 170.733 732.29 171.32C732.93 171.907 733.824 172.2 734.97 172.2ZM785.779 145.8C788.286 145.8 790.299 146.493 791.819 147.88C793.366 149.24 794.286 151.147 794.579 153.6H790.979C790.819 152.16 790.272 151.04 789.339 150.24C788.432 149.413 787.246 149 785.779 149C784.179 149 782.912 149.48 781.979 150.44C781.046 151.4 780.579 152.72 780.579 154.4V166.8C780.579 168.48 781.032 169.8 781.939 170.76C782.872 171.72 784.152 172.2 785.779 172.2C787.246 172.2 788.432 171.8 789.339 171C790.272 170.173 790.819 169.04 790.979 167.6H794.579C794.286 170.053 793.366 171.973 791.819 173.36C790.299 174.72 788.286 175.4 785.779 175.4C784.419 175.4 783.192 175.2 782.099 174.8C781.032 174.4 780.112 173.827 779.339 173.08C778.592 172.333 778.006 171.427 777.579 170.36C777.179 169.293 776.979 168.107 776.979 166.8V154.4C776.979 153.093 777.179 151.907 777.579 150.84C778.006 149.773 778.592 148.867 779.339 148.12C780.112 147.373 781.032 146.8 782.099 146.4C783.192 146 784.419 145.8 785.779 145.8ZM804.323 166.8C804.323 168.48 804.777 169.8 805.683 170.76C806.617 171.72 807.897 172.2 809.523 172.2C811.123 172.2 812.39 171.72 813.323 170.76C814.257 169.8 814.723 168.48 814.723 166.8V161.2C814.723 159.52 814.257 158.2 813.323 157.24C812.39 156.28 811.123 155.8 809.523 155.8C807.923 155.8 806.657 156.28 805.723 157.24C804.79 158.2 804.323 159.52 804.323 161.2V166.8ZM800.723 161.2C800.723 159.867 800.923 158.68 801.323 157.64C801.75 156.573 802.337 155.667 803.083 154.92C803.857 154.173 804.777 153.6 805.843 153.2C806.937 152.8 808.163 152.6 809.523 152.6C812.243 152.6 814.39 153.36 815.963 154.88C817.537 156.4 818.323 158.493 818.323 161.16V166.8C818.323 168.133 818.123 169.333 817.723 170.4C817.323 171.467 816.737 172.373 815.963 173.12C815.217 173.84 814.297 174.4 813.203 174.8C812.11 175.2 810.883 175.4 809.523 175.4C808.163 175.4 806.937 175.2 805.843 174.8C804.777 174.4 803.857 173.827 803.083 173.08C802.337 172.333 801.75 171.427 801.323 170.36C800.923 169.293 800.723 168.107 800.723 166.8V161.2ZM823.988 153H826.828V156.24H827.108C827.214 155.067 827.588 154.173 828.228 153.56C828.868 152.92 829.721 152.6 830.788 152.6C831.854 152.6 832.734 152.92 833.428 153.56C834.121 154.173 834.601 155.067 834.868 156.24H835.068C835.174 155.067 835.548 154.173 836.188 153.56C836.828 152.92 837.681 152.6 838.748 152.6C840.108 152.6 841.161 153.107 841.908 154.12C842.654 155.107 843.028 156.48 843.028 158.24V175H839.908V158.24C839.908 157.307 839.694 156.6 839.268 156.12C838.868 155.613 838.281 155.36 837.508 155.36C835.881 155.36 835.068 156.387 835.068 158.44V175H831.948V158.24C831.948 157.467 831.761 156.8 831.388 156.24C831.041 155.653 830.428 155.36 829.548 155.36C828.748 155.36 828.121 155.653 827.668 156.24C827.294 156.773 827.108 157.507 827.108 158.44V175H823.988V153ZM852.412 153V156.8H852.732C853.079 155.467 853.786 154.44 854.852 153.72C855.919 152.973 857.266 152.6 858.892 152.6C860.012 152.6 861.026 152.8 861.932 153.2C862.839 153.6 863.612 154.173 864.252 154.92C864.892 155.64 865.386 156.533 865.732 157.6C866.106 158.667 866.292 159.867 866.292 161.2V166.8C866.292 168.133 866.106 169.333 865.732 170.4C865.386 171.467 864.892 172.373 864.252 173.12C863.612 173.84 862.839 174.4 861.932 174.8C861.026 175.2 860.012 175.4 858.892 175.4C857.266 175.4 855.919 175.04 854.852 174.32C853.786 173.573 853.079 172.533 852.732 171.2H852.412C852.439 171.653 852.479 172.107 852.532 172.56C852.559 172.96 852.572 173.373 852.572 173.8C852.599 174.227 852.612 174.627 852.612 175V181.6H849.012V153H852.412ZM852.612 166.8C852.612 168.48 853.052 169.813 853.932 170.8C854.839 171.787 856.039 172.28 857.532 172.28C859.132 172.28 860.386 171.787 861.292 170.8C862.226 169.813 862.692 168.48 862.692 166.8V161.2C862.692 159.467 862.239 158.12 861.332 157.16C860.426 156.2 859.159 155.72 857.532 155.72C856.039 155.72 854.839 156.213 853.932 157.2C853.052 158.187 852.612 159.52 852.612 161.2V166.8ZM873.277 175V171.72H881.277V156.28H874.277V153H884.877V171.72H891.477V175H873.277ZM882.077 144.4H882.877C883.65 144.4 884.277 144.627 884.757 145.08C885.237 145.533 885.477 146.12 885.477 146.84C885.477 147.56 885.237 148.133 884.757 148.56C884.277 148.987 883.65 149.2 882.877 149.2H882.077C881.303 149.2 880.677 149 880.197 148.6C879.717 148.173 879.477 147.587 879.477 146.84C879.477 146.12 879.717 145.533 880.197 145.08C880.677 144.627 881.303 144.4 882.077 144.4ZM905.941 145.8V168.6C905.941 169.587 906.208 170.36 906.741 170.92C907.274 171.453 908.008 171.72 908.941 171.72H915.461V175H908.941C906.888 175 905.274 174.44 904.101 173.32C902.928 172.173 902.341 170.6 902.341 168.6V149.08H895.061V145.8H905.941ZM929.445 175.4C926.699 175.4 924.539 174.653 922.965 173.16C921.419 171.667 920.645 169.613 920.645 167V161C920.645 158.387 921.419 156.333 922.965 154.84C924.539 153.347 926.699 152.6 929.445 152.6C932.192 152.6 934.339 153.347 935.885 154.84C937.459 156.333 938.245 158.387 938.245 161V165.04H924.245V166.8C924.245 168.48 924.699 169.8 925.605 170.76C926.539 171.72 927.819 172.2 929.445 172.2C930.645 172.2 931.685 172.013 932.565 171.64C933.445 171.267 934.099 170.72 934.525 170H938.125C937.672 171.68 936.659 173 935.085 173.96C933.539 174.92 931.659 175.4 929.445 175.4ZM934.645 162.04V161C934.645 159.347 934.192 158.067 933.285 157.16C932.379 156.253 931.099 155.8 929.445 155.8C927.792 155.8 926.512 156.253 925.605 157.16C924.699 158.067 924.245 159.347 924.245 161V162.04H934.645ZM761.555 224.4C760.248 224.4 759.035 224.227 757.915 223.88C756.795 223.507 755.821 222.987 754.995 222.32C754.195 221.627 753.555 220.8 753.075 219.84C752.621 218.88 752.381 217.8 752.355 216.6H756.155C756.155 217.293 756.288 217.92 756.555 218.48C756.848 219.04 757.248 219.52 757.755 219.92C758.261 220.32 758.848 220.64 759.515 220.88C760.181 221.093 760.888 221.2 761.635 221.2C763.315 221.2 764.648 220.813 765.635 220.04C766.621 219.24 767.115 218.16 767.115 216.8C767.115 215.653 766.755 214.64 766.035 213.76C765.315 212.853 764.275 212.147 762.915 211.64L759.875 210.52C755.421 208.893 753.195 206.2 753.195 202.44C753.195 200.04 753.955 198.173 755.475 196.84C756.995 195.48 759.088 194.8 761.755 194.8C763.008 194.8 764.155 194.973 765.195 195.32C766.235 195.667 767.128 196.173 767.875 196.84C768.648 197.507 769.248 198.32 769.675 199.28C770.128 200.213 770.368 201.267 770.395 202.44H766.595C766.595 201.773 766.461 201.173 766.195 200.64C765.928 200.08 765.568 199.613 765.115 199.24C764.688 198.84 764.181 198.533 763.595 198.32C763.008 198.107 762.381 198 761.715 198C760.195 198 758.995 198.36 758.115 199.08C757.261 199.8 756.835 200.773 756.835 202C756.835 203.2 757.155 204.2 757.795 205C758.461 205.773 759.528 206.427 760.995 206.96L764.195 208.12C766.328 208.893 767.955 210.013 769.075 211.48C770.195 212.947 770.755 214.68 770.755 216.68C770.755 219.08 769.928 220.973 768.275 222.36C766.648 223.72 764.408 224.4 761.555 224.4ZM777.059 194.8H780.659V202C780.659 202.373 780.646 202.787 780.619 203.24C780.619 203.667 780.606 204.067 780.579 204.44C780.526 204.893 780.486 205.347 780.459 205.8H780.779C781.126 204.467 781.819 203.44 782.859 202.72C783.926 201.973 785.246 201.6 786.819 201.6C787.912 201.6 788.899 201.787 789.779 202.16C790.686 202.533 791.446 203.067 792.059 203.76C792.699 204.427 793.192 205.24 793.539 206.2C793.886 207.133 794.059 208.187 794.059 209.36V224H790.459V209.96C790.459 208.28 790.032 206.973 789.179 206.04C788.326 205.107 787.139 204.64 785.619 204.64C784.099 204.64 782.886 205.147 781.979 206.16C781.099 207.147 780.659 208.493 780.659 210.2V224H777.059V194.8ZM800.043 217.6C800.043 216.56 800.217 215.627 800.563 214.8C800.937 213.947 801.457 213.227 802.123 212.64C802.817 212.053 803.643 211.6 804.603 211.28C805.563 210.96 806.643 210.8 807.843 210.8H814.403V209C814.403 207.64 813.95 206.587 813.043 205.84C812.163 205.067 810.883 204.68 809.203 204.68C807.977 204.68 806.923 204.907 806.043 205.36C805.19 205.813 804.617 206.44 804.323 207.24H800.723C801.097 205.507 802.043 204.133 803.563 203.12C805.11 202.107 807.017 201.6 809.283 201.6C812.003 201.6 814.137 202.24 815.683 203.52C817.23 204.773 818.003 206.533 818.003 208.8V224H814.723V219.8H814.403C814.057 221.213 813.243 222.333 811.963 223.16C810.683 223.987 809.123 224.4 807.283 224.4C805.07 224.4 803.31 223.787 802.003 222.56C800.697 221.333 800.043 219.68 800.043 217.6ZM808.083 221.44C808.99 221.44 809.83 221.32 810.603 221.08C811.377 220.84 812.043 220.507 812.603 220.08C813.163 219.627 813.603 219.107 813.923 218.52C814.243 217.933 814.403 217.293 814.403 216.6V213.6H807.923C806.59 213.6 805.537 213.947 804.763 214.64C804.017 215.333 803.643 216.293 803.643 217.52C803.643 218.747 804.03 219.707 804.803 220.4C805.577 221.093 806.67 221.44 808.083 221.44ZM824.708 210.2C824.708 208.867 824.881 207.667 825.228 206.6C825.601 205.533 826.108 204.64 826.748 203.92C827.388 203.173 828.161 202.6 829.068 202.2C829.974 201.8 830.988 201.6 832.108 201.6C833.734 201.6 835.081 201.973 836.148 202.72C837.214 203.44 837.921 204.467 838.268 205.8H838.588C838.561 205.347 838.534 204.893 838.508 204.44C838.454 204.04 838.414 203.627 838.388 203.2C838.388 202.747 838.388 202.347 838.388 202V194.8H841.988V224H838.588V220.2H838.268C837.921 221.533 837.214 222.573 836.148 223.32C835.081 224.04 833.734 224.4 832.108 224.4C830.988 224.4 829.974 224.2 829.068 223.8C828.161 223.4 827.388 222.84 826.748 222.12C826.108 221.373 825.601 220.467 825.228 219.4C824.881 218.333 824.708 217.133 824.708 215.8V210.2ZM833.468 221.28C834.961 221.28 836.148 220.787 837.028 219.8C837.934 218.813 838.388 217.48 838.388 215.8V210.2C838.388 208.52 837.934 207.187 837.028 206.2C836.148 205.213 834.961 204.72 833.468 204.72C831.841 204.72 830.574 205.2 829.668 206.16C828.761 207.12 828.308 208.467 828.308 210.2V215.8C828.308 217.48 828.761 218.813 829.668 219.8C830.601 220.787 831.868 221.28 833.468 221.28ZM857.492 224.4C854.746 224.4 852.586 223.653 851.012 222.16C849.466 220.667 848.692 218.613 848.692 216V210C848.692 207.387 849.466 205.333 851.012 203.84C852.586 202.347 854.746 201.6 857.492 201.6C860.239 201.6 862.386 202.347 863.932 203.84C865.506 205.333 866.292 207.387 866.292 210V214.04H852.292V215.8C852.292 217.48 852.746 218.8 853.652 219.76C854.586 220.72 855.866 221.2 857.492 221.2C858.692 221.2 859.732 221.013 860.612 220.64C861.492 220.267 862.146 219.72 862.572 219H866.172C865.719 220.68 864.706 222 863.132 222.96C861.586 223.92 859.706 224.4 857.492 224.4ZM862.692 211.04V210C862.692 208.347 862.239 207.067 861.332 206.16C860.426 205.253 859.146 204.8 857.492 204.8C855.839 204.8 854.559 205.253 853.652 206.16C852.746 207.067 852.292 208.347 852.292 210V211.04H862.692ZM873.957 202H877.357V205.8H877.677C878.023 204.493 878.743 203.467 879.837 202.72C880.93 201.973 882.277 201.6 883.877 201.6C886.197 201.6 888.01 202.333 889.317 203.8C890.65 205.24 891.317 207.227 891.317 209.76V211H887.717V210.2C887.717 208.467 887.277 207.133 886.397 206.2C885.543 205.24 884.317 204.76 882.717 204.76C881.143 204.76 879.89 205.253 878.957 206.24C878.023 207.2 877.557 208.52 877.557 210.2V224H873.957V202ZM904.861 224.4C902.541 224.4 900.621 223.88 899.101 222.84C897.608 221.773 896.754 220.36 896.541 218.6H900.341C900.501 219.373 900.994 220 901.821 220.48C902.648 220.96 903.661 221.2 904.861 221.2H905.981C907.421 221.2 908.541 220.907 909.341 220.32C910.141 219.707 910.541 218.893 910.541 217.88C910.541 216.147 909.314 215.093 906.861 214.72L903.541 214.24C901.381 213.92 899.768 213.24 898.701 212.2C897.634 211.16 897.101 209.707 897.101 207.84C897.101 205.867 897.794 204.333 899.181 203.24C900.594 202.147 902.554 201.6 905.061 201.6H906.181C907.248 201.6 908.234 201.733 909.141 202C910.048 202.267 910.848 202.653 911.541 203.16C912.234 203.64 912.794 204.227 913.221 204.92C913.674 205.587 913.968 206.333 914.101 207.16H910.301C910.141 206.467 909.688 205.907 908.941 205.48C908.194 205.027 907.274 204.8 906.181 204.8H905.061C903.701 204.8 902.634 205.067 901.861 205.6C901.114 206.133 900.741 206.933 900.741 208C900.741 208.853 900.994 209.507 901.501 209.96C902.034 210.387 902.888 210.68 904.061 210.84L907.381 211.32C909.754 211.667 911.474 212.36 912.541 213.4C913.634 214.44 914.181 215.92 914.181 217.84C914.181 219.893 913.461 221.507 912.021 222.68C910.608 223.827 908.594 224.4 905.981 224.4H904.861Z" fill="black"/>
<rect x="119" y="68" width="397" height="184" rx="10" fill="#CCEAFF"/>
<rect x="121" y="70" width="393" height="180" rx="8" stroke="#1A356B" stroke-opacity="0.6" stroke-width="4"/>
<path d="M159.769 171.84V149.36H153.409V146.2H169.809V149.36H163.449V171.84H169.809V175H153.409V171.84H159.769ZM177.114 175V153H180.514V156.8H180.834C181.18 155.467 181.874 154.44 182.914 153.72C183.98 152.973 185.3 152.6 186.874 152.6C187.967 152.6 188.954 152.787 189.834 153.16C190.74 153.533 191.5 154.067 192.114 154.76C192.754 155.427 193.247 156.24 193.594 157.2C193.94 158.133 194.114 159.187 194.114 160.36V175H190.514V160.96C190.514 159.28 190.087 157.973 189.234 157.04C188.38 156.107 187.194 155.64 185.674 155.64C184.154 155.64 182.94 156.147 182.034 157.16C181.154 158.147 180.714 159.493 180.714 161.2V175H177.114ZM201.378 175V171.72H209.378V156.28H202.378V153H212.978V171.72H219.578V175H201.378ZM210.178 144.4H210.978C211.751 144.4 212.378 144.627 212.858 145.08C213.338 145.533 213.578 146.12 213.578 146.84C213.578 147.56 213.338 148.133 212.858 148.56C212.378 148.987 211.751 149.2 210.978 149.2H210.178C209.405 149.2 208.778 149 208.298 148.6C207.818 148.173 207.578 147.587 207.578 146.84C207.578 146.12 207.818 145.533 208.298 145.08C208.778 144.627 209.405 144.4 210.178 144.4ZM223.963 153H230.363V146.2H233.963V153H242.563V156.28H233.963V169.32C233.963 170.067 234.189 170.653 234.643 171.08C235.123 171.507 235.763 171.72 236.563 171.72H242.163V175H236.563C234.669 175 233.163 174.48 232.043 173.44C230.923 172.4 230.363 171.027 230.363 169.32V156.28H223.963V153ZM249.347 175V171.72H257.347V156.28H250.347V153H260.947V171.72H267.547V175H249.347ZM258.147 144.4H258.947C259.72 144.4 260.347 144.627 260.827 145.08C261.307 145.533 261.547 146.12 261.547 146.84C261.547 147.56 261.307 148.133 260.827 148.56C260.347 148.987 259.72 149.2 258.947 149.2H258.147C257.374 149.2 256.747 149 256.267 148.6C255.787 148.173 255.547 147.587 255.547 146.84C255.547 146.12 255.787 145.533 256.267 145.08C256.747 144.627 257.374 144.4 258.147 144.4ZM272.051 168.6C272.051 167.56 272.225 166.627 272.571 165.8C272.945 164.947 273.465 164.227 274.131 163.64C274.825 163.053 275.651 162.6 276.611 162.28C277.571 161.96 278.651 161.8 279.851 161.8H286.411V160C286.411 158.64 285.958 157.587 285.051 156.84C284.171 156.067 282.891 155.68 281.211 155.68C279.985 155.68 278.931 155.907 278.051 156.36C277.198 156.813 276.625 157.44 276.331 158.24H272.731C273.105 156.507 274.051 155.133 275.571 154.12C277.118 153.107 279.025 152.6 281.291 152.6C284.011 152.6 286.145 153.24 287.691 154.52C289.238 155.773 290.011 157.533 290.011 159.8V175H286.731V170.8H286.411C286.065 172.213 285.251 173.333 283.971 174.16C282.691 174.987 281.131 175.4 279.291 175.4C277.078 175.4 275.318 174.787 274.011 173.56C272.705 172.333 272.051 170.68 272.051 168.6ZM280.091 172.44C280.998 172.44 281.838 172.32 282.611 172.08C283.385 171.84 284.051 171.507 284.611 171.08C285.171 170.627 285.611 170.107 285.931 169.52C286.251 168.933 286.411 168.293 286.411 167.6V164.6H279.931C278.598 164.6 277.545 164.947 276.771 165.64C276.025 166.333 275.651 167.293 275.651 168.52C275.651 169.747 276.038 170.707 276.811 171.4C277.585 172.093 278.678 172.44 280.091 172.44ZM305.996 145.8V168.6C305.996 169.587 306.262 170.36 306.796 170.92C307.329 171.453 308.062 171.72 308.996 171.72H315.516V175H308.996C306.942 175 305.329 174.44 304.156 173.32C302.982 172.173 302.396 170.6 302.396 168.6V149.08H295.116V145.8H305.996ZM321.3 175V171.72H329.3V156.28H322.3V153H332.9V171.72H339.5V175H321.3ZM330.1 144.4H330.9C331.673 144.4 332.3 144.627 332.78 145.08C333.26 145.533 333.5 146.12 333.5 146.84C333.5 147.56 333.26 148.133 332.78 148.56C332.3 148.987 331.673 149.2 330.9 149.2H330.1C329.327 149.2 328.7 149 328.22 148.6C327.74 148.173 327.5 147.587 327.5 146.84C327.5 146.12 327.74 145.533 328.22 145.08C328.7 144.627 329.327 144.4 330.1 144.4ZM345.004 153H361.844V157.04L348.284 171.96C348.578 171.933 348.898 171.907 349.244 171.88C349.538 171.853 349.858 171.84 350.204 171.84C350.551 171.813 350.911 171.8 351.284 171.8H362.284V175H344.684V171L358.324 156.08C358.004 156.107 357.658 156.12 357.284 156.12C356.991 156.147 356.644 156.173 356.244 156.2C355.871 156.2 355.498 156.2 355.124 156.2H345.004V153ZM367.989 168.6C367.989 167.56 368.162 166.627 368.509 165.8C368.882 164.947 369.402 164.227 370.069 163.64C370.762 163.053 371.589 162.6 372.549 162.28C373.509 161.96 374.589 161.8 375.789 161.8H382.349V160C382.349 158.64 381.895 157.587 380.989 156.84C380.109 156.067 378.829 155.68 377.149 155.68C375.922 155.68 374.869 155.907 373.989 156.36C373.135 156.813 372.562 157.44 372.269 158.24H368.669C369.042 156.507 369.989 155.133 371.509 154.12C373.055 153.107 374.962 152.6 377.229 152.6C379.949 152.6 382.082 153.24 383.629 154.52C385.175 155.773 385.949 157.533 385.949 159.8V175H382.669V170.8H382.349C382.002 172.213 381.189 173.333 379.909 174.16C378.629 174.987 377.069 175.4 375.229 175.4C373.015 175.4 371.255 174.787 369.949 173.56C368.642 172.333 367.989 170.68 367.989 168.6ZM376.029 172.44C376.935 172.44 377.775 172.32 378.549 172.08C379.322 171.84 379.989 171.507 380.549 171.08C381.109 170.627 381.549 170.107 381.869 169.52C382.189 168.933 382.349 168.293 382.349 167.6V164.6H375.869C374.535 164.6 373.482 164.947 372.709 165.64C371.962 166.333 371.589 167.293 371.589 168.52C371.589 169.747 371.975 170.707 372.749 171.4C373.522 172.093 374.615 172.44 376.029 172.44ZM391.853 153H398.253V146.2H401.853V153H410.453V156.28H401.853V169.32C401.853 170.067 402.08 170.653 402.533 171.08C403.013 171.507 403.653 171.72 404.453 171.72H410.053V175H404.453C402.56 175 401.053 174.48 399.933 173.44C398.813 172.4 398.253 171.027 398.253 169.32V156.28H391.853V153ZM417.238 175V171.72H425.238V156.28H418.238V153H428.838V171.72H435.438V175H417.238ZM426.038 144.4H426.838C427.611 144.4 428.238 144.627 428.718 145.08C429.198 145.533 429.438 146.12 429.438 146.84C429.438 147.56 429.198 148.133 428.718 148.56C428.238 148.987 427.611 149.2 426.838 149.2H426.038C425.264 149.2 424.638 149 424.158 148.6C423.678 148.173 423.438 147.587 423.438 146.84C423.438 146.12 423.678 145.533 424.158 145.08C424.638 144.627 425.264 144.4 426.038 144.4ZM444.222 166.8C444.222 168.48 444.675 169.8 445.582 170.76C446.515 171.72 447.795 172.2 449.422 172.2C451.022 172.2 452.289 171.72 453.222 170.76C454.155 169.8 454.622 168.48 454.622 166.8V161.2C454.622 159.52 454.155 158.2 453.222 157.24C452.289 156.28 451.022 155.8 449.422 155.8C447.822 155.8 446.555 156.28 445.622 157.24C444.689 158.2 444.222 159.52 444.222 161.2V166.8ZM440.622 161.2C440.622 159.867 440.822 158.68 441.222 157.64C441.649 156.573 442.235 155.667 442.982 154.92C443.755 154.173 444.675 153.6 445.742 153.2C446.835 152.8 448.062 152.6 449.422 152.6C452.142 152.6 454.289 153.36 455.862 154.88C457.435 156.4 458.222 158.493 458.222 161.16V166.8C458.222 168.133 458.022 169.333 457.622 170.4C457.222 171.467 456.635 172.373 455.862 173.12C455.115 173.84 454.195 174.4 453.102 174.8C452.009 175.2 450.782 175.4 449.422 175.4C448.062 175.4 446.835 175.2 445.742 174.8C444.675 174.4 443.755 173.827 442.982 173.08C442.235 172.333 441.649 171.427 441.222 170.36C440.822 169.293 440.622 168.107 440.622 166.8V161.2ZM464.926 175V153H468.326V156.8H468.646C468.993 155.467 469.686 154.44 470.726 153.72C471.793 152.973 473.113 152.6 474.686 152.6C475.78 152.6 476.766 152.787 477.646 153.16C478.553 153.533 479.313 154.067 479.926 154.76C480.566 155.427 481.06 156.24 481.406 157.2C481.753 158.133 481.926 159.187 481.926 160.36V175H478.326V160.96C478.326 159.28 477.9 157.973 477.046 157.04C476.193 156.107 475.006 155.64 473.486 155.64C471.966 155.64 470.753 156.147 469.846 157.16C468.966 158.147 468.526 159.493 468.526 161.2V175H464.926Z" fill="black"/>
<rect x="1151" y="68" width="346" height="184" rx="10" fill="#FFEAB4"/>
<rect x="1153" y="70" width="342" height="180" rx="8" stroke="#845A1C" stroke-opacity="0.6" stroke-width="4"/>
<path d="M1219.07 97.2H1228.51C1229.95 97.2 1231.26 97.4133 1232.43 97.84C1233.63 98.24 1234.64 98.8133 1235.47 99.56C1236.32 100.307 1236.98 101.213 1237.43 102.28C1237.88 103.347 1238.11 104.533 1238.11 105.84C1238.11 107.76 1237.63 109.4 1236.67 110.76C1235.71 112.12 1234.39 113.107 1232.71 113.72L1238.51 126H1232.99L1227.79 114.48H1224.07V126H1219.07V97.2ZM1224.07 110.44H1228.51C1229.9 110.44 1230.99 110.04 1231.79 109.24C1232.62 108.44 1233.03 107.36 1233.03 106C1233.03 104.613 1232.62 103.507 1231.79 102.68C1230.96 101.853 1229.87 101.44 1228.51 101.44H1224.07V110.44ZM1252.05 126.4C1250.61 126.4 1249.29 126.2 1248.09 125.8C1246.92 125.373 1245.92 124.787 1245.09 124.04C1244.27 123.293 1243.63 122.387 1243.17 121.32C1242.72 120.253 1242.49 119.067 1242.49 117.76V112.2C1242.49 110.893 1242.72 109.707 1243.17 108.64C1243.63 107.573 1244.27 106.667 1245.09 105.92C1245.92 105.173 1246.92 104.6 1248.09 104.2C1249.29 103.8 1250.61 103.6 1252.05 103.6C1253.49 103.6 1254.8 103.813 1255.97 104.24C1257.15 104.64 1258.15 105.213 1258.97 105.96C1259.8 106.707 1260.44 107.613 1260.89 108.68C1261.35 109.747 1261.57 110.933 1261.57 112.24V116.24H1247.45V117.68C1247.45 119.147 1247.85 120.293 1248.65 121.12C1249.48 121.947 1250.61 122.36 1252.05 122.36C1253.15 122.36 1254.07 122.2 1254.81 121.88C1255.59 121.533 1256.13 121.04 1256.45 120.4H1261.37C1261.13 121.307 1260.73 122.133 1260.17 122.88C1259.61 123.627 1258.92 124.267 1258.09 124.8C1257.29 125.307 1256.37 125.707 1255.33 126C1254.32 126.267 1253.23 126.4 1252.05 126.4ZM1256.65 112.88V112.24C1256.65 110.773 1256.25 109.64 1255.45 108.84C1254.65 108.013 1253.52 107.6 1252.05 107.6C1250.61 107.6 1249.48 108.013 1248.65 108.84C1247.85 109.64 1247.45 110.76 1247.45 112.2V112.88H1256.65ZM1266.92 126V104H1271.68V107.8H1272.04C1272.28 106.467 1272.91 105.44 1273.92 104.72C1274.93 103.973 1276.24 103.6 1277.84 103.6C1280.05 103.6 1281.81 104.32 1283.12 105.76C1284.43 107.2 1285.08 109.147 1285.08 111.6V126H1280.08V112.2C1280.08 110.867 1279.72 109.827 1279 109.08C1278.28 108.307 1277.29 107.92 1276.04 107.92C1274.76 107.92 1273.75 108.32 1273 109.12C1272.28 109.893 1271.92 110.96 1271.92 112.32V126H1266.92ZM1290.46 112.2C1290.46 110.867 1290.64 109.68 1290.98 108.64C1291.36 107.573 1291.88 106.667 1292.54 105.92C1293.21 105.173 1294.01 104.6 1294.94 104.2C1295.88 103.8 1296.9 103.6 1298.02 103.6C1299.62 103.6 1300.94 103.973 1301.98 104.72C1303.02 105.467 1303.66 106.493 1303.9 107.8H1304.3C1304.28 107.347 1304.25 106.893 1304.22 106.44C1304.17 106.04 1304.13 105.627 1304.1 105.2C1304.1 104.747 1304.1 104.347 1304.1 104V96.8H1309.1V126H1304.3V122.16H1303.9C1303.66 123.493 1303.02 124.533 1301.98 125.28C1300.94 126.027 1299.62 126.4 1298.02 126.4C1296.9 126.4 1295.88 126.2 1294.94 125.8C1294.01 125.4 1293.21 124.827 1292.54 124.08C1291.88 123.307 1291.36 122.387 1290.98 121.32C1290.64 120.227 1290.46 119.013 1290.46 117.68V112.2ZM1299.82 122.04C1301.13 122.04 1302.17 121.64 1302.94 120.84C1303.72 120.04 1304.1 118.987 1304.1 117.68V112.32C1304.1 110.987 1303.7 109.92 1302.9 109.12C1302.13 108.32 1301.1 107.92 1299.82 107.92C1298.46 107.92 1297.4 108.32 1296.62 109.12C1295.85 109.893 1295.46 110.96 1295.46 112.32V117.56C1295.46 118.92 1295.85 120.013 1296.62 120.84C1297.4 121.64 1298.46 122.04 1299.82 122.04ZM1324.01 126.4C1322.57 126.4 1321.25 126.2 1320.05 125.8C1318.87 125.373 1317.87 124.787 1317.05 124.04C1316.22 123.293 1315.58 122.387 1315.13 121.32C1314.67 120.253 1314.45 119.067 1314.45 117.76V112.2C1314.45 110.893 1314.67 109.707 1315.13 108.64C1315.58 107.573 1316.22 106.667 1317.05 105.92C1317.87 105.173 1318.87 104.6 1320.05 104.2C1321.25 103.8 1322.57 103.6 1324.01 103.6C1325.45 103.6 1326.75 103.813 1327.93 104.24C1329.1 104.64 1330.1 105.213 1330.93 105.96C1331.75 106.707 1332.39 107.613 1332.85 108.68C1333.3 109.747 1333.53 110.933 1333.53 112.24V116.24H1319.41V117.68C1319.41 119.147 1319.81 120.293 1320.61 121.12C1321.43 121.947 1322.57 122.36 1324.01 122.36C1325.1 122.36 1326.02 122.2 1326.77 121.88C1327.54 121.533 1328.09 121.04 1328.41 120.4H1333.33C1333.09 121.307 1332.69 122.133 1332.13 122.88C1331.57 123.627 1330.87 124.267 1330.05 124.8C1329.25 125.307 1328.33 125.707 1327.29 126C1326.27 126.267 1325.18 126.4 1324.01 126.4ZM1328.61 112.88V112.24C1328.61 110.773 1328.21 109.64 1327.41 108.84C1326.61 108.013 1325.47 107.6 1324.01 107.6C1322.57 107.6 1321.43 108.013 1320.61 108.84C1319.81 109.64 1319.41 110.76 1319.41 112.2V112.88H1328.61ZM1339.79 104H1344.51V107.8H1344.87C1345.14 106.467 1345.81 105.44 1346.87 104.72C1347.94 103.973 1349.3 103.6 1350.95 103.6C1353.33 103.6 1355.18 104.333 1356.51 105.8C1357.85 107.267 1358.51 109.293 1358.51 111.88V113.48H1353.27V112.32C1353.27 110.907 1352.89 109.813 1352.11 109.04C1351.34 108.24 1350.27 107.84 1348.91 107.84C1347.63 107.84 1346.62 108.24 1345.87 109.04C1345.15 109.84 1344.79 110.933 1344.79 112.32V126H1339.79V104ZM1363.3 121.44H1371.18V108.52H1364.3V104H1375.98V121.44H1382.34V126H1363.3V121.44ZM1369.74 98.04C1369.74 97.2667 1369.99 96.64 1370.5 96.16C1371.03 95.6533 1371.72 95.4 1372.58 95.4H1373.62C1374.47 95.4 1375.15 95.6533 1375.66 96.16C1376.19 96.64 1376.46 97.2667 1376.46 98.04C1376.46 98.84 1376.19 99.48 1375.66 99.96C1375.12 100.44 1374.43 100.68 1373.58 100.68H1372.58C1371.72 100.68 1371.03 100.44 1370.5 99.96C1369.99 99.48 1369.74 98.84 1369.74 98.04ZM1386.84 126V104H1391.6V107.8H1391.96C1392.2 106.467 1392.83 105.44 1393.84 104.72C1394.85 103.973 1396.16 103.6 1397.76 103.6C1399.97 103.6 1401.73 104.32 1403.04 105.76C1404.35 107.2 1405 109.147 1405 111.6V126H1400V112.2C1400 110.867 1399.64 109.827 1398.92 109.08C1398.2 108.307 1397.21 107.92 1395.96 107.92C1394.68 107.92 1393.67 108.32 1392.92 109.12C1392.2 109.893 1391.84 110.96 1391.84 112.32V126H1386.84ZM1410.27 112.12C1410.27 110.84 1410.44 109.68 1410.79 108.64C1411.16 107.573 1411.68 106.667 1412.35 105.92C1413.01 105.173 1413.81 104.6 1414.75 104.2C1415.68 103.8 1416.72 103.6 1417.87 103.6C1419.52 103.6 1420.88 104 1421.95 104.8C1423.01 105.573 1423.68 106.64 1423.95 108H1424.23V104H1429.03V124.64C1429.03 125.867 1428.81 126.96 1428.39 127.92C1427.96 128.907 1427.35 129.747 1426.55 130.44C1425.75 131.133 1424.77 131.667 1423.63 132.04C1422.51 132.413 1421.25 132.6 1419.87 132.6H1413.99V128.44H1419.87C1421.15 128.44 1422.16 128.107 1422.91 127.44C1423.65 126.773 1424.03 125.84 1424.03 124.64V124.2L1424.19 119.8H1423.95C1423.68 121.16 1423 122.24 1421.91 123.04C1420.84 123.813 1419.49 124.2 1417.87 124.2C1416.72 124.2 1415.68 124 1414.75 123.6C1413.81 123.2 1413.01 122.627 1412.35 121.88C1411.68 121.133 1411.16 120.24 1410.79 119.2C1410.44 118.133 1410.27 116.96 1410.27 115.68V112.12ZM1415.31 115.56C1415.31 116.92 1415.69 117.987 1416.47 118.76C1417.24 119.507 1418.31 119.88 1419.67 119.88C1421 119.88 1422.05 119.493 1422.83 118.72C1423.63 117.947 1424.03 116.893 1424.03 115.56V112.24C1424.03 110.907 1423.63 109.853 1422.83 109.08C1422.05 108.307 1421 107.92 1419.67 107.92C1418.31 107.92 1417.24 108.307 1416.47 109.08C1415.69 109.853 1415.31 110.907 1415.31 112.24V115.56ZM1205.88 153H1211.96V146.2H1216.96V153H1225.32V157.52H1216.96V168.2C1216.96 168.893 1217.16 169.453 1217.56 169.88C1217.98 170.28 1218.57 170.48 1219.32 170.48H1224.92V175H1218.96C1216.8 175 1215.09 174.387 1213.84 173.16C1212.58 171.933 1211.96 170.28 1211.96 168.2V157.52H1205.88V153ZM1230.94 145.8H1235.94V153C1235.94 153.4 1235.93 153.827 1235.9 154.28C1235.88 154.707 1235.84 155.107 1235.78 155.48C1235.76 155.853 1235.73 156.173 1235.7 156.44C1235.68 156.68 1235.66 156.8 1235.66 156.8H1236.06C1236.3 155.467 1236.93 154.44 1237.94 153.72C1238.96 152.973 1240.26 152.6 1241.86 152.6C1244.08 152.6 1245.84 153.32 1247.14 154.76C1248.45 156.2 1249.1 158.147 1249.1 160.6V175H1244.1V161.2C1244.1 159.867 1243.74 158.827 1243.02 158.08C1242.3 157.307 1241.32 156.92 1240.06 156.92C1238.78 156.92 1237.77 157.32 1237.02 158.12C1236.3 158.893 1235.94 159.96 1235.94 161.32V175H1230.94V145.8ZM1264.05 175.4C1262.61 175.4 1261.29 175.2 1260.09 174.8C1258.91 174.373 1257.91 173.787 1257.09 173.04C1256.26 172.293 1255.62 171.387 1255.17 170.32C1254.71 169.253 1254.49 168.067 1254.49 166.76V161.2C1254.49 159.893 1254.71 158.707 1255.17 157.64C1255.62 156.573 1256.26 155.667 1257.09 154.92C1257.91 154.173 1258.91 153.6 1260.09 153.2C1261.29 152.8 1262.61 152.6 1264.05 152.6C1265.49 152.6 1266.79 152.813 1267.97 153.24C1269.14 153.64 1270.14 154.213 1270.97 154.96C1271.79 155.707 1272.43 156.613 1272.89 157.68C1273.34 158.747 1273.57 159.933 1273.57 161.24V165.24H1259.45V166.68C1259.45 168.147 1259.85 169.293 1260.65 170.12C1261.47 170.947 1262.61 171.36 1264.05 171.36C1265.14 171.36 1266.06 171.2 1266.81 170.88C1267.58 170.533 1268.13 170.04 1268.45 169.4H1273.37C1273.13 170.307 1272.73 171.133 1272.17 171.88C1271.61 172.627 1270.91 173.267 1270.09 173.8C1269.29 174.307 1268.37 174.707 1267.33 175C1266.31 175.267 1265.22 175.4 1264.05 175.4ZM1268.65 161.88V161.24C1268.65 159.773 1268.25 158.64 1267.45 157.84C1266.65 157.013 1265.51 156.6 1264.05 156.6C1262.61 156.6 1261.47 157.013 1260.65 157.84C1259.85 158.64 1259.45 159.76 1259.45 161.2V161.88H1268.65ZM1312.02 175.4C1310.6 175.4 1309.3 175.213 1308.1 174.84C1306.92 174.467 1305.91 173.933 1305.06 173.24C1304.2 172.52 1303.52 171.667 1303.02 170.68C1302.54 169.693 1302.27 168.587 1302.22 167.36H1307.34C1307.39 168.507 1307.84 169.413 1308.7 170.08C1309.58 170.72 1310.72 171.04 1312.14 171.04C1313.6 171.04 1314.74 170.707 1315.54 170.04C1316.36 169.373 1316.78 168.48 1316.78 167.36C1316.78 166.373 1316.47 165.52 1315.86 164.8C1315.24 164.08 1314.38 163.547 1313.26 163.2L1310.22 162.32C1305.26 160.96 1302.78 158.107 1302.78 153.76C1302.78 152.56 1302.99 151.467 1303.42 150.48C1303.87 149.493 1304.5 148.653 1305.3 147.96C1306.1 147.24 1307.07 146.693 1308.22 146.32C1309.36 145.947 1310.66 145.76 1312.1 145.76C1314.82 145.76 1317 146.467 1318.66 147.88C1320.34 149.267 1321.24 151.187 1321.38 153.64H1316.3C1316.24 152.547 1315.82 151.693 1315.02 151.08C1314.22 150.467 1313.2 150.16 1311.98 150.16C1310.67 150.16 1309.64 150.467 1308.9 151.08C1308.15 151.693 1307.78 152.507 1307.78 153.52C1307.78 155.44 1308.94 156.733 1311.26 157.4L1314.46 158.28C1316.86 158.947 1318.68 160.04 1319.94 161.56C1321.19 163.053 1321.82 164.907 1321.82 167.12C1321.82 168.373 1321.58 169.507 1321.1 170.52C1320.64 171.533 1319.99 172.4 1319.14 173.12C1318.28 173.84 1317.26 174.4 1316.06 174.8C1314.86 175.2 1313.51 175.4 1312.02 175.4ZM1336.24 175.4C1334.8 175.4 1333.49 175.2 1332.32 174.8C1331.15 174.4 1330.15 173.827 1329.32 173.08C1328.49 172.333 1327.85 171.44 1327.4 170.4C1326.95 169.333 1326.72 168.147 1326.72 166.84V161.2C1326.72 159.893 1326.95 158.72 1327.4 157.68C1327.85 156.613 1328.49 155.707 1329.32 154.96C1330.15 154.213 1331.15 153.64 1332.32 153.24C1333.49 152.813 1334.8 152.6 1336.24 152.6C1337.52 152.6 1338.71 152.787 1339.8 153.16C1340.89 153.507 1341.85 154.027 1342.68 154.72C1343.51 155.387 1344.19 156.2 1344.72 157.16C1345.28 158.093 1345.65 159.16 1345.84 160.36H1340.84C1340.65 159.347 1340.15 158.533 1339.32 157.92C1338.49 157.28 1337.47 156.96 1336.24 156.96C1334.83 156.96 1333.72 157.333 1332.92 158.08C1332.12 158.827 1331.72 159.867 1331.72 161.2V166.84C1331.72 168.147 1332.11 169.173 1332.88 169.92C1333.68 170.667 1334.8 171.04 1336.24 171.04C1337.44 171.04 1338.45 170.733 1339.28 170.12C1340.13 169.48 1340.65 168.653 1340.84 167.64H1345.84C1345.65 168.84 1345.28 169.92 1344.72 170.88C1344.19 171.813 1343.49 172.627 1342.64 173.32C1341.81 173.987 1340.85 174.507 1339.76 174.88C1338.69 175.227 1337.52 175.4 1336.24 175.4ZM1351.78 153H1356.5V156.8H1356.86C1357.13 155.467 1357.8 154.44 1358.86 153.72C1359.93 152.973 1361.29 152.6 1362.94 152.6C1365.32 152.6 1367.17 153.333 1368.5 154.8C1369.84 156.267 1370.5 158.293 1370.5 160.88V162.48H1365.26V161.32C1365.26 159.907 1364.88 158.813 1364.1 158.04C1363.33 157.24 1362.26 156.84 1360.9 156.84C1359.62 156.84 1358.61 157.24 1357.86 158.04C1357.14 158.84 1356.78 159.933 1356.78 161.32V175H1351.78V153ZM1383.97 175.4C1382.53 175.4 1381.21 175.2 1380.01 174.8C1378.84 174.373 1377.84 173.787 1377.01 173.04C1376.18 172.293 1375.54 171.387 1375.09 170.32C1374.64 169.253 1374.41 168.067 1374.41 166.76V161.2C1374.41 159.893 1374.64 158.707 1375.09 157.64C1375.54 156.573 1376.18 155.667 1377.01 154.92C1377.84 154.173 1378.84 153.6 1380.01 153.2C1381.21 152.8 1382.53 152.6 1383.97 152.6C1385.41 152.6 1386.72 152.813 1387.89 153.24C1389.06 153.64 1390.06 154.213 1390.89 154.96C1391.72 155.707 1392.36 156.613 1392.81 157.68C1393.26 158.747 1393.49 159.933 1393.49 161.24V165.24H1379.37V166.68C1379.37 168.147 1379.77 169.293 1380.57 170.12C1381.4 170.947 1382.53 171.36 1383.97 171.36C1385.06 171.36 1385.98 171.2 1386.73 170.88C1387.5 170.533 1388.05 170.04 1388.37 169.4H1393.29C1393.05 170.307 1392.65 171.133 1392.09 171.88C1391.53 172.627 1390.84 173.267 1390.01 173.8C1389.21 174.307 1388.29 174.707 1387.25 175C1386.24 175.267 1385.14 175.4 1383.97 175.4ZM1388.57 161.88V161.24C1388.57 159.773 1388.17 158.64 1387.37 157.84C1386.57 157.013 1385.44 156.6 1383.97 156.6C1382.53 156.6 1381.4 157.013 1380.57 157.84C1379.77 158.64 1379.37 159.76 1379.37 161.2V161.88H1388.57ZM1407.95 175.4C1406.51 175.4 1405.19 175.2 1403.99 174.8C1402.82 174.373 1401.82 173.787 1400.99 173.04C1400.17 172.293 1399.53 171.387 1399.07 170.32C1398.62 169.253 1398.39 168.067 1398.39 166.76V161.2C1398.39 159.893 1398.62 158.707 1399.07 157.64C1399.53 156.573 1400.17 155.667 1400.99 154.92C1401.82 154.173 1402.82 153.6 1403.99 153.2C1405.19 152.8 1406.51 152.6 1407.95 152.6C1409.39 152.6 1410.7 152.813 1411.87 153.24C1413.05 153.64 1414.05 154.213 1414.87 154.96C1415.7 155.707 1416.34 156.613 1416.79 157.68C1417.25 158.747 1417.47 159.933 1417.47 161.24V165.24H1403.35V166.68C1403.35 168.147 1403.75 169.293 1404.55 170.12C1405.38 170.947 1406.51 171.36 1407.95 171.36C1409.05 171.36 1409.97 171.2 1410.71 170.88C1411.49 170.533 1412.03 170.04 1412.35 169.4H1417.27C1417.03 170.307 1416.63 171.133 1416.07 171.88C1415.51 172.627 1414.82 173.267 1413.99 173.8C1413.19 174.307 1412.27 174.707 1411.23 175C1410.22 175.267 1409.13 175.4 1407.95 175.4ZM1412.55 161.88V161.24C1412.55 159.773 1412.15 158.64 1411.35 157.84C1410.55 157.013 1409.42 156.6 1407.95 156.6C1406.51 156.6 1405.38 157.013 1404.55 157.84C1403.75 158.64 1403.35 159.76 1403.35 161.2V161.88H1412.55ZM1422.82 175V153H1427.58V156.8H1427.94C1428.18 155.467 1428.8 154.44 1429.82 153.72C1430.83 152.973 1432.14 152.6 1433.74 152.6C1435.95 152.6 1437.71 153.32 1439.02 154.76C1440.32 156.2 1440.98 158.147 1440.98 160.6V175H1435.98V161.2C1435.98 159.867 1435.62 158.827 1434.9 158.08C1434.18 157.307 1433.19 156.92 1431.94 156.92C1430.66 156.92 1429.64 157.32 1428.9 158.12C1428.18 158.893 1427.82 159.96 1427.82 161.32V175H1422.82ZM1278.47 215.56V203.6C1278.47 202.267 1278.7 201.067 1279.15 200C1279.6 198.907 1280.24 197.973 1281.07 197.2C1281.9 196.427 1282.9 195.84 1284.07 195.44C1285.27 195.013 1286.59 194.8 1288.03 194.8C1289.47 194.8 1290.78 195.013 1291.95 195.44C1293.15 195.84 1294.16 196.427 1294.99 197.2C1295.82 197.973 1296.46 198.907 1296.91 200C1297.36 201.067 1297.59 202.267 1297.59 203.6V215.56C1297.59 217.373 1297.18 218.947 1296.35 220.28C1295.55 221.613 1294.43 222.627 1292.99 223.32L1297.79 230.6H1292.39L1288.27 224.4C1286.88 224.4 1285.59 224.213 1284.39 223.84C1283.22 223.467 1282.19 222.907 1281.31 222.16C1280.43 221.413 1279.74 220.493 1279.23 219.4C1278.72 218.307 1278.47 217.027 1278.47 215.56ZM1288.03 220C1289.42 220 1290.52 219.6 1291.35 218.8C1292.18 218 1292.59 216.92 1292.59 215.56V203.6C1292.59 202.24 1292.18 201.16 1291.35 200.36C1290.52 199.56 1289.42 199.16 1288.03 199.16C1286.64 199.16 1285.54 199.56 1284.71 200.36C1283.88 201.16 1283.47 202.24 1283.47 203.6V215.56C1283.47 216.92 1283.88 218 1284.71 218.8C1285.54 219.6 1286.64 220 1288.03 220ZM1303.02 202H1308.06V215.76C1308.06 218.613 1309.38 220.04 1312.02 220.04C1314.68 220.04 1316.02 218.613 1316.02 215.76V202H1321.02V215.76C1321.02 218.507 1320.22 220.64 1318.62 222.16C1317.04 223.653 1314.84 224.4 1312.02 224.4C1309.16 224.4 1306.95 223.64 1305.38 222.12C1303.8 220.6 1303.02 218.48 1303.02 215.76V202ZM1326.04 217.84C1326.04 216.747 1326.24 215.773 1326.64 214.92C1327.04 214.04 1327.61 213.293 1328.36 212.68C1329.11 212.067 1330 211.6 1331.04 211.28C1332.11 210.933 1333.29 210.76 1334.6 210.76H1340.12V208.88C1340.12 207.867 1339.73 207.067 1338.96 206.48C1338.21 205.867 1337.17 205.56 1335.84 205.56C1334.75 205.56 1333.83 205.76 1333.08 206.16C1332.33 206.56 1331.85 207.107 1331.64 207.8H1326.72C1327.07 205.88 1328.05 204.373 1329.68 203.28C1331.31 202.16 1333.36 201.6 1335.84 201.6C1337.25 201.6 1338.53 201.773 1339.68 202.12C1340.83 202.44 1341.8 202.92 1342.6 203.56C1343.4 204.173 1344.01 204.933 1344.44 205.84C1344.89 206.72 1345.12 207.707 1345.12 208.8V224H1340.4V219.68H1340.08C1339.81 221.12 1339.05 222.267 1337.8 223.12C1336.57 223.973 1335.04 224.4 1333.2 224.4C1331.01 224.4 1329.27 223.813 1327.96 222.64C1326.68 221.44 1326.04 219.84 1326.04 217.84ZM1334.92 220.48C1336.44 220.48 1337.68 220.12 1338.64 219.4C1339.63 218.653 1340.12 217.72 1340.12 216.6V214.04H1334.64C1333.52 214.04 1332.64 214.32 1332 214.88C1331.36 215.44 1331.04 216.227 1331.04 217.24C1331.04 218.253 1331.37 219.053 1332.04 219.64C1332.73 220.2 1333.69 220.48 1334.92 220.48ZM1350.42 210.2C1350.42 208.867 1350.6 207.68 1350.94 206.64C1351.32 205.573 1351.84 204.667 1352.5 203.92C1353.17 203.173 1353.97 202.6 1354.9 202.2C1355.84 201.8 1356.86 201.6 1357.98 201.6C1359.58 201.6 1360.9 201.973 1361.94 202.72C1362.98 203.467 1363.62 204.493 1363.86 205.8H1364.26C1364.24 205.347 1364.21 204.893 1364.18 204.44C1364.13 204.04 1364.09 203.627 1364.06 203.2C1364.06 202.747 1364.06 202.347 1364.06 202V194.8H1369.06V224H1364.26V220.16H1363.86C1363.62 221.493 1362.98 222.533 1361.94 223.28C1360.9 224.027 1359.58 224.4 1357.98 224.4C1356.86 224.4 1355.84 224.2 1354.9 223.8C1353.97 223.4 1353.17 222.827 1352.5 222.08C1351.84 221.307 1351.32 220.387 1350.94 219.32C1350.6 218.227 1350.42 217.013 1350.42 215.68V210.2ZM1359.78 220.04C1361.09 220.04 1362.13 219.64 1362.9 218.84C1363.68 218.04 1364.06 216.987 1364.06 215.68V210.32C1364.06 208.987 1363.66 207.92 1362.86 207.12C1362.09 206.32 1361.06 205.92 1359.78 205.92C1358.42 205.92 1357.36 206.32 1356.58 207.12C1355.81 207.893 1355.42 208.96 1355.42 210.32V215.56C1355.42 216.92 1355.81 218.013 1356.58 218.84C1357.36 219.64 1358.42 220.04 1359.78 220.04Z" fill="black"/>
<rect x="1153" y="311" width="346" height="117" rx="10" fill="#FFEAB4"/>
<rect x="1155" y="313" width="342" height="113" rx="8" stroke="#845A1C" stroke-opacity="0.6" stroke-width="4"/>
<path d="M1177.3 355.2V367.36H1186.9V355.2H1190.5V384H1186.9V370.64H1177.3V384H1173.7V355.2H1177.3ZM1196.61 377.6C1196.61 376.56 1196.78 375.627 1197.13 374.8C1197.5 373.947 1198.02 373.227 1198.69 372.64C1199.38 372.053 1200.21 371.6 1201.17 371.28C1202.13 370.96 1203.21 370.8 1204.41 370.8H1210.97V369C1210.97 367.64 1210.51 366.587 1209.61 365.84C1208.73 365.067 1207.45 364.68 1205.77 364.68C1204.54 364.68 1203.49 364.907 1202.61 365.36C1201.75 365.813 1201.18 366.44 1200.89 367.24H1197.29C1197.66 365.507 1198.61 364.133 1200.13 363.12C1201.67 362.107 1203.58 361.6 1205.85 361.6C1208.57 361.6 1210.7 362.24 1212.25 363.52C1213.79 364.773 1214.57 366.533 1214.57 368.8V384H1211.29V379.8H1210.97C1210.62 381.213 1209.81 382.333 1208.53 383.16C1207.25 383.987 1205.69 384.4 1203.85 384.4C1201.63 384.4 1199.87 383.787 1198.57 382.56C1197.26 381.333 1196.61 379.68 1196.61 377.6ZM1204.65 381.44C1205.55 381.44 1206.39 381.32 1207.17 381.08C1207.94 380.84 1208.61 380.507 1209.17 380.08C1209.73 379.627 1210.17 379.107 1210.49 378.52C1210.81 377.933 1210.97 377.293 1210.97 376.6V373.6H1204.49C1203.15 373.6 1202.1 373.947 1201.33 374.64C1200.58 375.333 1200.21 376.293 1200.21 377.52C1200.21 378.747 1200.59 379.707 1201.37 380.4C1202.14 381.093 1203.23 381.44 1204.65 381.44ZM1221.59 384V362H1224.99V365.8H1225.31C1225.66 364.467 1226.35 363.44 1227.39 362.72C1228.46 361.973 1229.78 361.6 1231.35 361.6C1232.44 361.6 1233.43 361.787 1234.31 362.16C1235.22 362.533 1235.98 363.067 1236.59 363.76C1237.23 364.427 1237.72 365.24 1238.07 366.2C1238.42 367.133 1238.59 368.187 1238.59 369.36V384H1234.99V369.96C1234.99 368.28 1234.56 366.973 1233.71 366.04C1232.86 365.107 1231.67 364.64 1230.15 364.64C1228.63 364.64 1227.42 365.147 1226.51 366.16C1225.63 367.147 1225.19 368.493 1225.19 370.2V384H1221.59ZM1245.25 370.2C1245.25 368.867 1245.43 367.667 1245.77 366.6C1246.15 365.533 1246.65 364.64 1247.29 363.92C1247.93 363.173 1248.71 362.6 1249.61 362.2C1250.52 361.8 1251.53 361.6 1252.65 361.6C1254.28 361.6 1255.63 361.973 1256.69 362.72C1257.76 363.44 1258.47 364.467 1258.81 365.8H1259.13C1259.11 365.347 1259.08 364.893 1259.05 364.44C1259 364.04 1258.96 363.627 1258.93 363.2C1258.93 362.747 1258.93 362.347 1258.93 362V354.8H1262.53V384H1259.13V380.2H1258.81C1258.47 381.533 1257.76 382.573 1256.69 383.32C1255.63 384.04 1254.28 384.4 1252.65 384.4C1251.53 384.4 1250.52 384.2 1249.61 383.8C1248.71 383.4 1247.93 382.84 1247.29 382.12C1246.65 381.373 1246.15 380.467 1245.77 379.4C1245.43 378.333 1245.25 377.133 1245.25 375.8V370.2ZM1254.01 381.28C1255.51 381.28 1256.69 380.787 1257.57 379.8C1258.48 378.813 1258.93 377.48 1258.93 375.8V370.2C1258.93 368.52 1258.48 367.187 1257.57 366.2C1256.69 365.213 1255.51 364.72 1254.01 364.72C1252.39 364.72 1251.12 365.2 1250.21 366.16C1249.31 367.12 1248.85 368.467 1248.85 370.2V375.8C1248.85 377.48 1249.31 378.813 1250.21 379.8C1251.15 380.787 1252.41 381.28 1254.01 381.28ZM1278.52 354.8V377.6C1278.52 378.587 1278.79 379.36 1279.32 379.92C1279.85 380.453 1280.59 380.72 1281.52 380.72H1288.04V384H1281.52C1279.47 384 1277.85 383.44 1276.68 382.32C1275.51 381.173 1274.92 379.6 1274.92 377.6V358.08H1267.64V354.8H1278.52ZM1302.02 384.4C1299.28 384.4 1297.12 383.653 1295.54 382.16C1294 380.667 1293.22 378.613 1293.22 376V370C1293.22 367.387 1294 365.333 1295.54 363.84C1297.12 362.347 1299.28 361.6 1302.02 361.6C1304.77 361.6 1306.92 362.347 1308.46 363.84C1310.04 365.333 1310.82 367.387 1310.82 370V374.04H1296.82V375.8C1296.82 377.48 1297.28 378.8 1298.18 379.76C1299.12 380.72 1300.4 381.2 1302.02 381.2C1303.22 381.2 1304.26 381.013 1305.14 380.64C1306.02 380.267 1306.68 379.72 1307.1 379H1310.7C1310.25 380.68 1309.24 382 1307.66 382.96C1306.12 383.92 1304.24 384.4 1302.02 384.4ZM1307.22 371.04V370C1307.22 368.347 1306.77 367.067 1305.86 366.16C1304.96 365.253 1303.68 364.8 1302.02 364.8C1300.37 364.8 1299.09 365.253 1298.18 366.16C1297.28 367.067 1296.82 368.347 1296.82 370V371.04H1307.22ZM1348.15 380.84V358.36H1341.79V355.2H1358.19V358.36H1351.83V380.84H1358.19V384H1341.79V380.84H1348.15ZM1365.5 384V362H1368.9V365.8H1369.22C1369.56 364.467 1370.26 363.44 1371.3 362.72C1372.36 361.973 1373.68 361.6 1375.26 361.6C1376.35 361.6 1377.34 361.787 1378.22 362.16C1379.12 362.533 1379.88 363.067 1380.5 363.76C1381.14 364.427 1381.63 365.24 1381.98 366.2C1382.32 367.133 1382.5 368.187 1382.5 369.36V384H1378.9V369.96C1378.9 368.28 1378.47 366.973 1377.62 366.04C1376.76 365.107 1375.58 364.64 1374.06 364.64C1372.54 364.64 1371.32 365.147 1370.42 366.16C1369.54 367.147 1369.1 368.493 1369.1 370.2V384H1365.5ZM1392.88 362V365.8H1393.2C1393.55 364.467 1394.25 363.44 1395.32 362.72C1396.39 361.973 1397.73 361.6 1399.36 361.6C1400.48 361.6 1401.49 361.8 1402.4 362.2C1403.31 362.6 1404.08 363.173 1404.72 363.92C1405.36 364.64 1405.85 365.533 1406.2 366.6C1406.57 367.667 1406.76 368.867 1406.76 370.2V375.8C1406.76 377.133 1406.57 378.333 1406.2 379.4C1405.85 380.467 1405.36 381.373 1404.72 382.12C1404.08 382.84 1403.31 383.4 1402.4 383.8C1401.49 384.2 1400.48 384.4 1399.36 384.4C1397.73 384.4 1396.39 384.04 1395.32 383.32C1394.25 382.573 1393.55 381.533 1393.2 380.2H1392.88C1392.91 380.653 1392.95 381.107 1393 381.56C1393.03 381.96 1393.04 382.373 1393.04 382.8C1393.07 383.227 1393.08 383.627 1393.08 384V390.6H1389.48V362H1392.88ZM1393.08 375.8C1393.08 377.48 1393.52 378.813 1394.4 379.8C1395.31 380.787 1396.51 381.28 1398 381.28C1399.6 381.28 1400.85 380.787 1401.76 379.8C1402.69 378.813 1403.16 377.48 1403.16 375.8V370.2C1403.16 368.467 1402.71 367.12 1401.8 366.16C1400.89 365.2 1399.63 364.72 1398 364.72C1396.51 364.72 1395.31 365.213 1394.4 366.2C1393.52 367.187 1393.08 368.52 1393.08 370.2V375.8ZM1413.55 362H1417.15V376.24C1417.15 379.573 1418.73 381.24 1421.91 381.24C1425.13 381.24 1426.75 379.573 1426.75 376.24V362H1430.35V376.24C1430.35 378.853 1429.61 380.867 1428.15 382.28C1426.71 383.693 1424.63 384.4 1421.91 384.4C1419.24 384.4 1417.17 383.693 1415.71 382.28C1414.27 380.84 1413.55 378.827 1413.55 376.24V362ZM1436.33 362H1442.73V355.2H1446.33V362H1454.93V365.28H1446.33V378.32C1446.33 379.067 1446.56 379.653 1447.01 380.08C1447.49 380.507 1448.13 380.72 1448.93 380.72H1454.53V384H1448.93C1447.04 384 1445.53 383.48 1444.41 382.44C1443.29 381.4 1442.73 380.027 1442.73 378.32V365.28H1436.33V362ZM1469.31 384.4C1466.99 384.4 1465.07 383.88 1463.55 382.84C1462.06 381.773 1461.21 380.36 1460.99 378.6H1464.79C1464.95 379.373 1465.45 380 1466.27 380.48C1467.1 380.96 1468.11 381.2 1469.31 381.2H1470.43C1471.87 381.2 1472.99 380.907 1473.79 380.32C1474.59 379.707 1474.99 378.893 1474.99 377.88C1474.99 376.147 1473.77 375.093 1471.31 374.72L1467.99 374.24C1465.83 373.92 1464.22 373.24 1463.15 372.2C1462.09 371.16 1461.55 369.707 1461.55 367.84C1461.55 365.867 1462.25 364.333 1463.63 363.24C1465.05 362.147 1467.01 361.6 1469.51 361.6H1470.63C1471.7 361.6 1472.69 361.733 1473.59 362C1474.5 362.267 1475.3 362.653 1475.99 363.16C1476.69 363.64 1477.25 364.227 1477.67 364.92C1478.13 365.587 1478.42 366.333 1478.55 367.16H1474.75C1474.59 366.467 1474.14 365.907 1473.39 365.48C1472.65 365.027 1471.73 364.8 1470.63 364.8H1469.51C1468.15 364.8 1467.09 365.067 1466.31 365.6C1465.57 366.133 1465.19 366.933 1465.19 368C1465.19 368.853 1465.45 369.507 1465.95 369.96C1466.49 370.387 1467.34 370.68 1468.51 370.84L1471.83 371.32C1474.21 371.667 1475.93 372.36 1476.99 373.4C1478.09 374.44 1478.63 375.92 1478.63 377.84C1478.63 379.893 1477.91 381.507 1476.47 382.68C1475.06 383.827 1473.05 384.4 1470.43 384.4H1469.31Z" fill="black"/>
<rect x="1153" y="488" width="346" height="117" rx="10" fill="#FFEAB4"/>
<rect x="1155" y="490" width="342" height="113" rx="8" stroke="#845A1C" stroke-opacity="0.6" stroke-width="4"/>
<path d="M1230.87 532.2C1232.18 532.2 1233.36 532.4 1234.43 532.8C1235.5 533.2 1236.4 533.773 1237.15 534.52C1237.92 535.267 1238.51 536.16 1238.91 537.2C1239.34 538.213 1239.55 539.347 1239.55 540.6C1239.55 542.6 1239.03 544.307 1237.99 545.72C1236.98 547.107 1235.59 548.067 1233.83 548.6L1239.95 561H1235.71L1230.11 549H1225.27V561H1221.67V532.2H1230.87ZM1225.27 545.8H1230.87C1232.39 545.8 1233.59 545.333 1234.47 544.4C1235.38 543.44 1235.83 542.173 1235.83 540.6C1235.83 539.027 1235.38 537.773 1234.47 536.84C1233.56 535.88 1232.36 535.4 1230.87 535.4H1225.27V545.8ZM1254.05 561.4C1251.31 561.4 1249.15 560.653 1247.57 559.16C1246.03 557.667 1245.25 555.613 1245.25 553V547C1245.25 544.387 1246.03 542.333 1247.57 540.84C1249.15 539.347 1251.31 538.6 1254.05 538.6C1256.8 538.6 1258.95 539.347 1260.49 540.84C1262.07 542.333 1262.85 544.387 1262.85 547V551.04H1248.85V552.8C1248.85 554.48 1249.31 555.8 1250.21 556.76C1251.15 557.72 1252.43 558.2 1254.05 558.2C1255.25 558.2 1256.29 558.013 1257.17 557.64C1258.05 557.267 1258.71 556.72 1259.13 556H1262.73C1262.28 557.68 1261.27 559 1259.69 559.96C1258.15 560.92 1256.27 561.4 1254.05 561.4ZM1259.25 548.04V547C1259.25 545.347 1258.8 544.067 1257.89 543.16C1256.99 542.253 1255.71 541.8 1254.05 541.8C1252.4 541.8 1251.12 542.253 1250.21 543.16C1249.31 544.067 1248.85 545.347 1248.85 547V548.04H1259.25ZM1269.56 561V539H1272.96V542.8H1273.28C1273.63 541.467 1274.32 540.44 1275.36 539.72C1276.43 538.973 1277.75 538.6 1279.32 538.6C1280.41 538.6 1281.4 538.787 1282.28 539.16C1283.19 539.533 1283.95 540.067 1284.56 540.76C1285.2 541.427 1285.69 542.24 1286.04 543.2C1286.39 544.133 1286.56 545.187 1286.56 546.36V561H1282.96V546.96C1282.96 545.28 1282.53 543.973 1281.68 543.04C1280.83 542.107 1279.64 541.64 1278.12 541.64C1276.6 541.64 1275.39 542.147 1274.48 543.16C1273.6 544.147 1273.16 545.493 1273.16 547.2V561H1269.56ZM1293.22 547.2C1293.22 545.867 1293.4 544.667 1293.74 543.6C1294.12 542.533 1294.62 541.64 1295.26 540.92C1295.9 540.173 1296.68 539.6 1297.58 539.2C1298.49 538.8 1299.5 538.6 1300.62 538.6C1302.25 538.6 1303.6 538.973 1304.66 539.72C1305.73 540.44 1306.44 541.467 1306.78 542.8H1307.1C1307.08 542.347 1307.05 541.893 1307.02 541.44C1306.97 541.04 1306.93 540.627 1306.9 540.2C1306.9 539.747 1306.9 539.347 1306.9 539V531.8H1310.5V561H1307.1V557.2H1306.78C1306.44 558.533 1305.73 559.573 1304.66 560.32C1303.6 561.04 1302.25 561.4 1300.62 561.4C1299.5 561.4 1298.49 561.2 1297.58 560.8C1296.68 560.4 1295.9 559.84 1295.26 559.12C1294.62 558.373 1294.12 557.467 1293.74 556.4C1293.4 555.333 1293.22 554.133 1293.22 552.8V547.2ZM1301.98 558.28C1303.48 558.28 1304.66 557.787 1305.54 556.8C1306.45 555.813 1306.9 554.48 1306.9 552.8V547.2C1306.9 545.52 1306.45 544.187 1305.54 543.2C1304.66 542.213 1303.48 541.72 1301.98 541.72C1300.36 541.72 1299.09 542.2 1298.18 543.16C1297.28 544.12 1296.82 545.467 1296.82 547.2V552.8C1296.82 554.48 1297.28 555.813 1298.18 556.8C1299.12 557.787 1300.38 558.28 1301.98 558.28ZM1326.01 561.4C1323.26 561.4 1321.1 560.653 1319.53 559.16C1317.98 557.667 1317.21 555.613 1317.21 553V547C1317.21 544.387 1317.98 542.333 1319.53 540.84C1321.1 539.347 1323.26 538.6 1326.01 538.6C1328.75 538.6 1330.9 539.347 1332.45 540.84C1334.02 542.333 1334.81 544.387 1334.81 547V551.04H1320.81V552.8C1320.81 554.48 1321.26 555.8 1322.17 556.76C1323.1 557.72 1324.38 558.2 1326.01 558.2C1327.21 558.2 1328.25 558.013 1329.13 557.64C1330.01 557.267 1330.66 556.72 1331.09 556H1334.69C1334.23 557.68 1333.22 559 1331.65 559.96C1330.1 560.92 1328.22 561.4 1326.01 561.4ZM1331.21 548.04V547C1331.21 545.347 1330.75 544.067 1329.85 543.16C1328.94 542.253 1327.66 541.8 1326.01 541.8C1324.35 541.8 1323.07 542.253 1322.17 543.16C1321.26 544.067 1320.81 545.347 1320.81 547V548.04H1331.21ZM1342.47 539H1345.87V542.8H1346.19C1346.54 541.493 1347.26 540.467 1348.35 539.72C1349.45 538.973 1350.79 538.6 1352.39 538.6C1354.71 538.6 1356.53 539.333 1357.83 540.8C1359.17 542.24 1359.83 544.227 1359.83 546.76V548H1356.23V547.2C1356.23 545.467 1355.79 544.133 1354.91 543.2C1354.06 542.24 1352.83 541.76 1351.23 541.76C1349.66 541.76 1348.41 542.253 1347.47 543.24C1346.54 544.2 1346.07 545.52 1346.07 547.2V561H1342.47V539ZM1397.96 561.4C1395.21 561.4 1393.09 560.653 1391.6 559.16C1390.11 557.667 1389.36 555.613 1389.36 553V532.2H1392.96V553C1392.96 554.6 1393.39 555.867 1394.24 556.8C1395.09 557.733 1396.33 558.2 1397.96 558.2C1399.56 558.2 1400.79 557.733 1401.64 556.8C1402.52 555.867 1402.96 554.6 1402.96 553V532.2H1406.56V553C1406.56 555.64 1405.81 557.707 1404.32 559.2C1402.83 560.667 1400.71 561.4 1397.96 561.4ZM1420.11 557.84V535.36H1413.75V532.2H1430.15V535.36H1423.79V557.84H1430.15V561H1413.75V557.84H1420.11Z" fill="black"/>
<rect x="1153" y="665" width="346" height="117" rx="10" fill="#FFEAB4"/>
<rect x="1155" y="667" width="342" height="113" rx="8" stroke="#845A1C" stroke-opacity="0.6" stroke-width="4"/>
<path d="M1183.42 709.2C1184.73 709.2 1185.91 709.4 1186.98 709.8C1188.05 710.2 1188.95 710.773 1189.7 711.52C1190.47 712.267 1191.06 713.16 1191.46 714.2C1191.89 715.213 1192.1 716.347 1192.1 717.6C1192.1 718.853 1191.89 720 1191.46 721.04C1191.03 722.053 1190.43 722.933 1189.66 723.68C1188.91 724.427 1188.01 725 1186.94 725.4C1185.87 725.8 1184.7 726 1183.42 726H1177.3V738H1173.7V709.2H1183.42ZM1177.3 712.4V722.8H1183.42C1184.91 722.8 1186.11 722.333 1187.02 721.4C1187.93 720.44 1188.38 719.173 1188.38 717.6C1188.38 716.027 1187.93 714.773 1187.02 713.84C1186.11 712.88 1184.91 712.4 1183.42 712.4H1177.3ZM1196.61 731.6C1196.61 730.56 1196.78 729.627 1197.13 728.8C1197.5 727.947 1198.02 727.227 1198.69 726.64C1199.38 726.053 1200.21 725.6 1201.17 725.28C1202.13 724.96 1203.21 724.8 1204.41 724.8H1210.97V723C1210.97 721.64 1210.51 720.587 1209.61 719.84C1208.73 719.067 1207.45 718.68 1205.77 718.68C1204.54 718.68 1203.49 718.907 1202.61 719.36C1201.75 719.813 1201.18 720.44 1200.89 721.24H1197.29C1197.66 719.507 1198.61 718.133 1200.13 717.12C1201.67 716.107 1203.58 715.6 1205.85 715.6C1208.57 715.6 1210.7 716.24 1212.25 717.52C1213.79 718.773 1214.57 720.533 1214.57 722.8V738H1211.29V733.8H1210.97C1210.62 735.213 1209.81 736.333 1208.53 737.16C1207.25 737.987 1205.69 738.4 1203.85 738.4C1201.63 738.4 1199.87 737.787 1198.57 736.56C1197.26 735.333 1196.61 733.68 1196.61 731.6ZM1204.65 735.44C1205.55 735.44 1206.39 735.32 1207.17 735.08C1207.94 734.84 1208.61 734.507 1209.17 734.08C1209.73 733.627 1210.17 733.107 1210.49 732.52C1210.81 731.933 1210.97 731.293 1210.97 730.6V727.6H1204.49C1203.15 727.6 1202.1 727.947 1201.33 728.64C1200.58 729.333 1200.21 730.293 1200.21 731.52C1200.21 732.747 1200.59 733.707 1201.37 734.4C1202.14 735.093 1203.23 735.44 1204.65 735.44ZM1229.47 738.4C1227.15 738.4 1225.23 737.88 1223.71 736.84C1222.22 735.773 1221.36 734.36 1221.15 732.6H1224.95C1225.11 733.373 1225.6 734 1226.43 734.48C1227.26 734.96 1228.27 735.2 1229.47 735.2H1230.59C1232.03 735.2 1233.15 734.907 1233.95 734.32C1234.75 733.707 1235.15 732.893 1235.15 731.88C1235.15 730.147 1233.92 729.093 1231.47 728.72L1228.15 728.24C1225.99 727.92 1224.38 727.24 1223.31 726.2C1222.24 725.16 1221.71 723.707 1221.71 721.84C1221.71 719.867 1222.4 718.333 1223.79 717.24C1225.2 716.147 1227.16 715.6 1229.67 715.6H1230.79C1231.86 715.6 1232.84 715.733 1233.75 716C1234.66 716.267 1235.46 716.653 1236.15 717.16C1236.84 717.64 1237.4 718.227 1237.83 718.92C1238.28 719.587 1238.58 720.333 1238.71 721.16H1234.91C1234.75 720.467 1234.3 719.907 1233.55 719.48C1232.8 719.027 1231.88 718.8 1230.79 718.8H1229.67C1228.31 718.8 1227.24 719.067 1226.47 719.6C1225.72 720.133 1225.35 720.933 1225.35 722C1225.35 722.853 1225.6 723.507 1226.11 723.96C1226.64 724.387 1227.5 724.68 1228.67 724.84L1231.99 725.32C1234.36 725.667 1236.08 726.36 1237.15 727.4C1238.24 728.44 1238.79 729.92 1238.79 731.84C1238.79 733.893 1238.07 735.507 1236.63 736.68C1235.22 737.827 1233.2 738.4 1230.59 738.4H1229.47ZM1253.45 738.4C1251.13 738.4 1249.21 737.88 1247.69 736.84C1246.2 735.773 1245.35 734.36 1245.13 732.6H1248.93C1249.09 733.373 1249.59 734 1250.41 734.48C1251.24 734.96 1252.25 735.2 1253.45 735.2H1254.57C1256.01 735.2 1257.13 734.907 1257.93 734.32C1258.73 733.707 1259.13 732.893 1259.13 731.88C1259.13 730.147 1257.91 729.093 1255.45 728.72L1252.13 728.24C1249.97 727.92 1248.36 727.24 1247.29 726.2C1246.23 725.16 1245.69 723.707 1245.69 721.84C1245.69 719.867 1246.39 718.333 1247.77 717.24C1249.19 716.147 1251.15 715.6 1253.65 715.6H1254.77C1255.84 715.6 1256.83 715.733 1257.73 716C1258.64 716.267 1259.44 716.653 1260.13 717.16C1260.83 717.64 1261.39 718.227 1261.81 718.92C1262.27 719.587 1262.56 720.333 1262.69 721.16H1258.89C1258.73 720.467 1258.28 719.907 1257.53 719.48C1256.79 719.027 1255.87 718.8 1254.77 718.8H1253.65C1252.29 718.8 1251.23 719.067 1250.45 719.6C1249.71 720.133 1249.33 720.933 1249.33 722C1249.33 722.853 1249.59 723.507 1250.09 723.96C1250.63 724.387 1251.48 724.68 1252.65 724.84L1255.97 725.32C1258.35 725.667 1260.07 726.36 1261.13 727.4C1262.23 728.44 1262.77 729.92 1262.77 731.84C1262.77 733.893 1262.05 735.507 1260.61 736.68C1259.2 737.827 1257.19 738.4 1254.57 738.4H1253.45ZM1302.02 738.4C1299.28 738.4 1297.16 737.653 1295.66 736.16C1294.17 734.667 1293.42 732.613 1293.42 730V709.2H1297.02V730C1297.02 731.6 1297.45 732.867 1298.3 733.8C1299.16 734.733 1300.4 735.2 1302.02 735.2C1303.62 735.2 1304.85 734.733 1305.7 733.8C1306.58 732.867 1307.02 731.6 1307.02 730V709.2H1310.62V730C1310.62 732.64 1309.88 734.707 1308.38 736.2C1306.89 737.667 1304.77 738.4 1302.02 738.4ZM1317.53 738V716H1320.93V719.8H1321.25C1321.59 718.467 1322.29 717.44 1323.33 716.72C1324.39 715.973 1325.71 715.6 1327.29 715.6C1328.38 715.6 1329.37 715.787 1330.25 716.16C1331.15 716.533 1331.91 717.067 1332.53 717.76C1333.17 718.427 1333.66 719.24 1334.01 720.2C1334.35 721.133 1334.53 722.187 1334.53 723.36V738H1330.93V723.96C1330.93 722.28 1330.5 720.973 1329.65 720.04C1328.79 719.107 1327.61 718.64 1326.09 718.64C1324.57 718.64 1323.35 719.147 1322.45 720.16C1321.57 721.147 1321.13 722.493 1321.13 724.2V738H1317.53ZM1341.79 738V734.72H1349.79V719.28H1342.79V716H1353.39V734.72H1359.99V738H1341.79ZM1350.59 707.4H1351.39C1352.17 707.4 1352.79 707.627 1353.27 708.08C1353.75 708.533 1353.99 709.12 1353.99 709.84C1353.99 710.56 1353.75 711.133 1353.27 711.56C1352.79 711.987 1352.17 712.2 1351.39 712.2H1350.59C1349.82 712.2 1349.19 712 1348.71 711.6C1348.23 711.173 1347.99 710.587 1347.99 709.84C1347.99 709.12 1348.23 708.533 1348.71 708.08C1349.19 707.627 1349.82 707.4 1350.59 707.4ZM1364.38 721.48V718.2H1370.78V714.4C1370.78 712.64 1371.32 711.267 1372.42 710.28C1373.51 709.293 1375.02 708.8 1376.94 708.8H1383.38V712.08H1376.94C1375.23 712.08 1374.38 712.853 1374.38 714.4V718.2H1383.38V721.48H1374.38V738H1370.78V721.48H1364.38ZM1392.76 729.8C1392.76 731.48 1393.21 732.8 1394.12 733.76C1395.05 734.72 1396.33 735.2 1397.96 735.2C1399.56 735.2 1400.83 734.72 1401.76 733.76C1402.69 732.8 1403.16 731.48 1403.16 729.8V724.2C1403.16 722.52 1402.69 721.2 1401.76 720.24C1400.83 719.28 1399.56 718.8 1397.96 718.8C1396.36 718.8 1395.09 719.28 1394.16 720.24C1393.23 721.2 1392.76 722.52 1392.76 724.2V729.8ZM1389.16 724.2C1389.16 722.867 1389.36 721.68 1389.76 720.64C1390.19 719.573 1390.77 718.667 1391.52 717.92C1392.29 717.173 1393.21 716.6 1394.28 716.2C1395.37 715.8 1396.6 715.6 1397.96 715.6C1400.68 715.6 1402.83 716.36 1404.4 717.88C1405.97 719.4 1406.76 721.493 1406.76 724.16V729.8C1406.76 731.133 1406.56 732.333 1406.16 733.4C1405.76 734.467 1405.17 735.373 1404.4 736.12C1403.65 736.84 1402.73 737.4 1401.64 737.8C1400.55 738.2 1399.32 738.4 1397.96 738.4C1396.6 738.4 1395.37 738.2 1394.28 737.8C1393.21 737.4 1392.29 736.827 1391.52 736.08C1390.77 735.333 1390.19 734.427 1389.76 733.36C1389.36 732.293 1389.16 731.107 1389.16 729.8V724.2ZM1414.43 716H1417.83V719.8H1418.15C1418.49 718.493 1419.21 717.467 1420.31 716.72C1421.4 715.973 1422.75 715.6 1424.35 715.6C1426.67 715.6 1428.48 716.333 1429.79 717.8C1431.12 719.24 1431.79 721.227 1431.79 723.76V725H1428.19V724.2C1428.19 722.467 1427.75 721.133 1426.87 720.2C1426.01 719.24 1424.79 718.76 1423.19 718.76C1421.61 718.76 1420.36 719.253 1419.43 720.24C1418.49 721.2 1418.03 722.52 1418.03 724.2V738H1414.43V716ZM1436.41 716H1439.25V719.24H1439.53C1439.64 718.067 1440.01 717.173 1440.65 716.56C1441.29 715.92 1442.14 715.6 1443.21 715.6C1444.28 715.6 1445.16 715.92 1445.85 716.56C1446.54 717.173 1447.02 718.067 1447.29 719.24H1447.49C1447.6 718.067 1447.97 717.173 1448.61 716.56C1449.25 715.92 1450.1 715.6 1451.17 715.6C1452.53 715.6 1453.58 716.107 1454.33 717.12C1455.08 718.107 1455.45 719.48 1455.45 721.24V738H1452.33V721.24C1452.33 720.307 1452.12 719.6 1451.69 719.12C1451.29 718.613 1450.7 718.36 1449.93 718.36C1448.3 718.36 1447.49 719.387 1447.49 721.44V738H1444.37V721.24C1444.37 720.467 1444.18 719.8 1443.81 719.24C1443.46 718.653 1442.85 718.36 1441.97 718.36C1441.17 718.36 1440.54 718.653 1440.09 719.24C1439.72 719.773 1439.53 720.507 1439.53 721.44V738H1436.41V716ZM1469.31 738.4C1466.99 738.4 1465.07 737.88 1463.55 736.84C1462.06 735.773 1461.21 734.36 1460.99 732.6H1464.79C1464.95 733.373 1465.45 734 1466.27 734.48C1467.1 734.96 1468.11 735.2 1469.31 735.2H1470.43C1471.87 735.2 1472.99 734.907 1473.79 734.32C1474.59 733.707 1474.99 732.893 1474.99 731.88C1474.99 730.147 1473.77 729.093 1471.31 728.72L1467.99 728.24C1465.83 727.92 1464.22 727.24 1463.15 726.2C1462.09 725.16 1461.55 723.707 1461.55 721.84C1461.55 719.867 1462.25 718.333 1463.63 717.24C1465.05 716.147 1467.01 715.6 1469.51 715.6H1470.63C1471.7 715.6 1472.69 715.733 1473.59 716C1474.5 716.267 1475.3 716.653 1475.99 717.16C1476.69 717.64 1477.25 718.227 1477.67 718.92C1478.13 719.587 1478.42 720.333 1478.55 721.16H1474.75C1474.59 720.467 1474.14 719.907 1473.39 719.48C1472.65 719.027 1471.73 718.8 1470.63 718.8H1469.51C1468.15 718.8 1467.09 719.067 1466.31 719.6C1465.57 720.133 1465.19 720.933 1465.19 722C1465.19 722.853 1465.45 723.507 1465.95 723.96C1466.49 724.387 1467.34 724.68 1468.51 724.84L1471.83 725.32C1474.21 725.667 1475.93 726.36 1476.99 727.4C1478.09 728.44 1478.63 729.92 1478.63 731.84C1478.63 733.893 1477.91 735.507 1476.47 736.68C1475.06 737.827 1473.05 738.4 1470.43 738.4H1469.31Z" fill="black"/>
<path d="M1032 160H1131" stroke="#474747" stroke-width="6"/>
<path d="M1129 149.718C1129 148.952 1129.83 148.47 1130.49 148.849L1149.47 159.631C1150.14 160.014 1150.14 160.986 1149.47 161.369L1130.49 172.151C1129.83 172.53 1129 172.048 1129 171.282V149.718Z" fill="#474747"/>
<path d="M1324 251L1324 291" stroke="#474747" stroke-width="6"/>
<path d="M1334.28 289C1335.05 289 1335.53 289.827 1335.15 290.494L1324.37 309.47C1323.99 310.144 1323.01 310.144 1322.63 309.47L1311.85 290.494C1311.47 289.827 1311.95 289 1312.72 289L1334.28 289Z" fill="#474747"/>
<path d="M1324 428L1324 468" stroke="#474747" stroke-width="6"/>
<path d="M1334.28 466C1335.05 466 1335.53 466.827 1335.15 467.494L1324.37 486.47C1323.99 487.144 1323.01 487.144 1322.63 486.47L1311.85 467.494C1311.47 466.827 1311.95 466 1312.72 466L1334.28 466Z" fill="#474747"/>
<path d="M1324 605L1324 645" stroke="#474747" stroke-width="6"/>
<path d="M1334.28 643C1335.05 643 1335.53 643.827 1335.15 644.494L1324.37 663.47C1323.99 664.144 1323.01 664.144 1322.63 663.47L1311.85 644.494C1311.47 643.827 1311.95 643 1312.72 643L1334.28 643Z" fill="#474747"/>
<path d="M516 160H615" stroke="#474747" stroke-width="6"/>
<path d="M613 149.718C613 148.952 613.827 148.47 614.494 148.849L633.47 159.631C634.144 160.014 634.144 160.986 633.47 161.369L614.494 172.151C613.827 172.53 613 172.048 613 171.282V149.718Z" fill="#474747"/>
<path d="M0 160H99" stroke="#474747" stroke-width="6"/>
<path d="M97 149.718C97 148.952 97.8274 148.47 98.494 148.849L117.47 159.631C118.144 160.014 118.144 160.986 117.47 161.369L98.494 172.151C97.8274 172.53 97 172.048 97 171.282V149.718Z" fill="#474747"/>
<path d="M1521 171.282C1521 172.048 1520.17 172.53 1519.51 172.151L1500.53 161.369C1499.86 160.986 1499.86 160.014 1500.53 159.631L1519.51 148.849C1520.17 148.47 1521 148.952 1521 149.718V171.282Z" fill="#474747"/>
<path d="M1499 727H1523.33C1550.98 727 1568.68 638.459 1568.68 454.568C1568.68 270.676 1550.98 160 1523.33 160H1513.38" stroke="#474747" stroke-width="6"/>
</svg>
