<svg width="651" height="297" viewBox="0 0 651 297" fill="none" xmlns="http://www.w3.org/2000/svg">
<line y1="-2" x2="341.997" y2="-2" transform="matrix(0.923705 0.383104 0.383104 -0.923705 52 83)" stroke="#4675D0" stroke-width="4" stroke-dasharray="6 6"/>
<line x1="352.984" y1="82.7441" x2="369.888" y2="213.764" stroke="#33CE26" stroke-width="4" stroke-dasharray="6 6"/>
<path d="M66 82H314" stroke="#4675D0" stroke-width="6"/>
<path d="M312 71.7183C312 70.9516 312.827 70.4701 313.494 70.8489L332.47 81.6305C333.144 82.0139 333.144 82.9861 332.47 83.3695L313.494 94.1511C312.827 94.5299 312 94.0484 312 93.2817V71.7183Z" fill="#4675D0"/>
<path d="M436 82H465" stroke="#D04646" stroke-width="6"/>
<path d="M463 71.7183C463 70.9516 463.827 70.4701 464.494 70.8489L483.47 81.6305C484.144 82.0139 484.144 82.9861 483.47 83.3695L464.494 94.1511C463.827 94.5299 463 94.0484 463 93.2817V71.7183Z" fill="#D04646"/>
<path d="M351 82H399" stroke="#33CE26" stroke-width="6"/>
<path d="M397 71.7183C397 70.9516 397.827 70.4701 398.494 70.8489L417.47 81.6305C418.144 82.0139 418.144 82.9861 417.47 83.3695L398.494 94.1511C397.827 94.5299 397 94.0484 397 93.2817V71.7183Z" fill="#33CE26"/>
<circle cx="52" cy="83" r="14" fill="#F2F2F2" stroke="#474747" stroke-width="6"/>
<path d="M7.21516 28.1C9.09516 28.1 10.6052 28.62 11.7452 29.66C12.9052 30.68 13.5952 32.11 13.8152 33.95H11.1152C10.9952 32.87 10.5852 32.03 9.88516 31.43C9.20516 30.81 8.31516 30.5 7.21516 30.5C6.01516 30.5 5.06516 30.86 4.36516 31.58C3.66516 32.3 3.31516 33.29 3.31516 34.55V43.85C3.31516 45.11 3.65516 46.1 4.33516 46.82C5.03516 47.54 5.99516 47.9 7.21516 47.9C8.31516 47.9 9.20516 47.6 9.88516 47C10.5852 46.38 10.9952 45.53 11.1152 44.45H13.8152C13.5952 46.29 12.9052 47.73 11.7452 48.77C10.6052 49.79 9.09516 50.3 7.21516 50.3C6.19516 50.3 5.27516 50.15 4.45516 49.85C3.65516 49.55 2.96516 49.12 2.38516 48.56C1.82516 48 1.38516 47.32 1.06516 46.52C0.765156 45.72 0.615156 44.83 0.615156 43.85V34.55C0.615156 33.57 0.765156 32.68 1.06516 31.88C1.38516 31.08 1.82516 30.4 2.38516 29.84C2.96516 29.28 3.65516 28.85 4.45516 28.55C5.27516 28.25 6.19516 28.1 7.21516 28.1ZM17.9134 45.2C17.9134 44.42 18.0434 43.72 18.3034 43.1C18.5834 42.46 18.9734 41.92 19.4734 41.48C19.9934 41.04 20.6134 40.7 21.3334 40.46C22.0534 40.22 22.8634 40.1 23.7634 40.1H28.6834V38.75C28.6834 37.73 28.3434 36.94 27.6634 36.38C27.0034 35.8 26.0434 35.51 24.7834 35.51C23.8634 35.51 23.0734 35.68 22.4134 36.02C21.7734 36.36 21.3434 36.83 21.1234 37.43H18.4234C18.7034 36.13 19.4134 35.1 20.5534 34.34C21.7134 33.58 23.1434 33.2 24.8434 33.2C26.8834 33.2 28.4834 33.68 29.6434 34.64C30.8034 35.58 31.3834 36.9 31.3834 38.6V50H28.9234V46.85H28.6834C28.4234 47.91 27.8134 48.75 26.8534 49.37C25.8934 49.99 24.7234 50.3 23.3434 50.3C21.6834 50.3 20.3634 49.84 19.3834 48.92C18.4034 48 17.9134 46.76 17.9134 45.2ZM23.9434 48.08C24.6234 48.08 25.2534 47.99 25.8334 47.81C26.4134 47.63 26.9134 47.38 27.3334 47.06C27.7534 46.72 28.0834 46.33 28.3234 45.89C28.5634 45.45 28.6834 44.97 28.6834 44.45V42.2H23.8234C22.8234 42.2 22.0334 42.46 21.4534 42.98C20.8934 43.5 20.6134 44.22 20.6134 45.14C20.6134 46.06 20.9034 46.78 21.4834 47.3C22.0634 47.82 22.8834 48.08 23.9434 48.08ZM35.8717 33.5H38.0017V35.93H38.2117C38.2917 35.05 38.5717 34.38 39.0517 33.92C39.5317 33.44 40.1717 33.2 40.9717 33.2C41.7717 33.2 42.4317 33.44 42.9517 33.92C43.4717 34.38 43.8317 35.05 44.0317 35.93H44.1817C44.2617 35.05 44.5417 34.38 45.0217 33.92C45.5017 33.44 46.1417 33.2 46.9417 33.2C47.9617 33.2 48.7517 33.58 49.3117 34.34C49.8717 35.08 50.1517 36.11 50.1517 37.43V50H47.8117V37.43C47.8117 36.73 47.6517 36.2 47.3317 35.84C47.0317 35.46 46.5917 35.27 46.0117 35.27C44.7917 35.27 44.1817 36.04 44.1817 37.58V50H41.8417V37.43C41.8417 36.85 41.7017 36.35 41.4217 35.93C41.1617 35.49 40.7017 35.27 40.0417 35.27C39.4417 35.27 38.9717 35.49 38.6317 35.93C38.3517 36.33 38.2117 36.88 38.2117 37.58V50H35.8717V33.5ZM61 50.3C58.94 50.3 57.32 49.74 56.14 48.62C54.98 47.5 54.4 45.96 54.4 44V39.5C54.4 37.54 54.98 36 56.14 34.88C57.32 33.76 58.94 33.2 61 33.2C63.06 33.2 64.67 33.76 65.83 34.88C67.01 36 67.6 37.54 67.6 39.5V42.53H57.1V43.85C57.1 45.11 57.44 46.1 58.12 46.82C58.82 47.54 59.78 47.9 61 47.9C61.9 47.9 62.68 47.76 63.34 47.48C64 47.2 64.49 46.79 64.81 46.25H67.51C67.17 47.51 66.41 48.5 65.23 49.22C64.07 49.94 62.66 50.3 61 50.3ZM64.9 40.28V39.5C64.9 38.26 64.56 37.3 63.88 36.62C63.2 35.94 62.24 35.6 61 35.6C59.76 35.6 58.8 35.94 58.12 36.62C57.44 37.3 57.1 38.26 57.1 39.5V40.28H64.9ZM73.3483 33.5H75.8983V36.35H76.1383C76.3983 35.37 76.9383 34.6 77.7583 34.04C78.5783 33.48 79.5883 33.2 80.7883 33.2C82.5283 33.2 83.8883 33.75 84.8683 34.85C85.8683 35.93 86.3683 37.42 86.3683 39.32V40.25H83.6683V39.65C83.6683 38.35 83.3383 37.35 82.6783 36.65C82.0383 35.93 81.1183 35.57 79.9183 35.57C78.7383 35.57 77.7983 35.94 77.0983 36.68C76.3983 37.4 76.0483 38.39 76.0483 39.65V50H73.3483V33.5ZM89.8666 45.2C89.8666 44.42 89.9966 43.72 90.2566 43.1C90.5366 42.46 90.9266 41.92 91.4266 41.48C91.9466 41.04 92.5666 40.7 93.2866 40.46C94.0066 40.22 94.8166 40.1 95.7166 40.1H100.637V38.75C100.637 37.73 100.297 36.94 99.6166 36.38C98.9566 35.8 97.9966 35.51 96.7366 35.51C95.8166 35.51 95.0266 35.68 94.3666 36.02C93.7266 36.36 93.2966 36.83 93.0766 37.43H90.3766C90.6566 36.13 91.3666 35.1 92.5066 34.34C93.6666 33.58 95.0966 33.2 96.7966 33.2C98.8366 33.2 100.437 33.68 101.597 34.64C102.757 35.58 103.337 36.9 103.337 38.6V50H100.877V46.85H100.637C100.377 47.91 99.7666 48.75 98.8066 49.37C97.8466 49.99 96.6766 50.3 95.2966 50.3C93.6366 50.3 92.3166 49.84 91.3366 48.92C90.3566 48 89.8666 46.76 89.8666 45.2ZM95.8966 48.08C96.5766 48.08 97.2066 47.99 97.7866 47.81C98.3666 47.63 98.8666 47.38 99.2866 47.06C99.7066 46.72 100.037 46.33 100.277 45.89C100.517 45.45 100.637 44.97 100.637 44.45V42.2H95.7766C94.7766 42.2 93.9866 42.46 93.4066 42.98C92.8466 43.5 92.5666 44.22 92.5666 45.14C92.5666 46.06 92.8566 46.78 93.4366 47.3C94.0166 47.82 94.8366 48.08 95.8966 48.08Z" fill="black"/>
<circle cx="351" cy="83" r="14" fill="#F2F2F2" stroke="#474747" stroke-width="6"/>
<path d="M343.002 28.4C343.982 28.4 344.872 28.55 345.672 28.85C346.472 29.15 347.152 29.58 347.712 30.14C348.292 30.7 348.732 31.37 349.032 32.15C349.352 32.91 349.512 33.76 349.512 34.7C349.512 35.64 349.352 36.5 349.032 37.28C348.712 38.04 348.262 38.7 347.682 39.26C347.122 39.82 346.442 40.25 345.642 40.55C344.842 40.85 343.962 41 343.002 41H338.412V50H335.712V28.4H343.002ZM338.412 30.8V38.6H343.002C344.122 38.6 345.022 38.25 345.702 37.55C346.382 36.83 346.722 35.88 346.722 34.7C346.722 33.52 346.382 32.58 345.702 31.88C345.022 31.16 344.122 30.8 343.002 30.8H338.412ZM353.7 47.6H359.49V32.45C359.49 32.29 359.49 32.11 359.49 31.91C359.51 31.69 359.52 31.49 359.52 31.31C359.52 31.13 359.52 30.98 359.52 30.86C359.54 30.72 359.55 30.65 359.55 30.65H359.49C359.35 30.77 359.21 30.88 359.07 30.98C358.95 31.08 358.82 31.18 358.68 31.28C358.56 31.38 358.44 31.47 358.32 31.55L354.09 34.43V31.7L358.74 28.4H362.19V47.6H367.05V50H353.7V47.6Z" fill="black"/>
<circle cx="436" cy="83" r="14" fill="#F2F2F2" stroke="#474747" stroke-width="6"/>
<path d="M428.002 28.4C428.982 28.4 429.872 28.55 430.672 28.85C431.472 29.15 432.152 29.58 432.712 30.14C433.292 30.7 433.732 31.37 434.032 32.15C434.352 32.91 434.512 33.76 434.512 34.7C434.512 35.64 434.352 36.5 434.032 37.28C433.712 38.04 433.262 38.7 432.682 39.26C432.122 39.82 431.442 40.25 430.642 40.55C429.842 40.85 428.962 41 428.002 41H423.412V50H420.712V28.4H428.002ZM423.412 30.8V38.6H428.002C429.122 38.6 430.022 38.25 430.702 37.55C431.382 36.83 431.722 35.88 431.722 34.7C431.722 33.52 431.382 32.58 430.702 31.88C430.022 31.16 429.122 30.8 428.002 30.8H423.412ZM451.39 34.1C451.39 35.72 450.94 37.29 450.04 38.81C449.16 40.31 447.75 41.9 445.81 43.58L442.18 46.73C442.08 46.81 441.97 46.89 441.85 46.97C441.73 47.05 441.61 47.13 441.49 47.21C441.33 47.31 441.18 47.4 441.04 47.48V47.6C441.36 47.58 441.67 47.57 441.97 47.57C442.25 47.55 442.53 47.54 442.81 47.54C443.11 47.54 443.38 47.54 443.62 47.54H451.6V50H438.1V47L443.8 42.11C444.66 41.37 445.39 40.67 445.99 40.01C446.61 39.35 447.11 38.7 447.49 38.06C447.87 37.42 448.15 36.78 448.33 36.14C448.51 35.5 448.6 34.83 448.6 34.13C448.6 33.01 448.26 32.13 447.58 31.49C446.92 30.83 446.02 30.5 444.88 30.5C443.62 30.5 442.61 30.83 441.85 31.49C441.11 32.15 440.74 33.02 440.74 34.1H437.95C437.99 33.2 438.18 32.38 438.52 31.64C438.86 30.9 439.33 30.27 439.93 29.75C440.55 29.23 441.27 28.83 442.09 28.55C442.93 28.25 443.86 28.1 444.88 28.1C445.88 28.1 446.78 28.24 447.58 28.52C448.38 28.8 449.06 29.2 449.62 29.72C450.18 30.24 450.61 30.87 450.91 31.61C451.23 32.35 451.39 33.18 451.39 34.1Z" fill="black"/>
<circle cx="83" cy="83" r="81" transform="matrix(1 0 0 -1 285 297)" fill="#F2F2F2" stroke="#474747" stroke-width="4"/>
<path d="M332.029 225.3C331.049 225.3 330.139 225.17 329.299 224.91C328.459 224.63 327.729 224.24 327.109 223.74C326.509 223.22 326.029 222.6 325.669 221.88C325.329 221.16 325.149 220.35 325.129 219.45H327.979C327.979 219.97 328.079 220.44 328.279 220.86C328.499 221.28 328.799 221.64 329.179 221.94C329.559 222.24 329.999 222.48 330.499 222.66C330.999 222.82 331.529 222.9 332.089 222.9C333.349 222.9 334.349 222.61 335.089 222.03C335.829 221.43 336.199 220.62 336.199 219.6C336.199 218.74 335.929 217.98 335.389 217.32C334.849 216.64 334.069 216.11 333.049 215.73L330.769 214.89C327.429 213.67 325.759 211.65 325.759 208.83C325.759 207.03 326.329 205.63 327.469 204.63C328.609 203.61 330.179 203.1 332.179 203.1C333.119 203.1 333.979 203.23 334.759 203.49C335.539 203.75 336.209 204.13 336.769 204.63C337.349 205.13 337.799 205.74 338.119 206.46C338.459 207.16 338.639 207.95 338.659 208.83H335.809C335.809 208.33 335.709 207.88 335.509 207.48C335.309 207.06 335.039 206.71 334.699 206.43C334.379 206.13 333.999 205.9 333.559 205.74C333.119 205.58 332.649 205.5 332.149 205.5C331.009 205.5 330.109 205.77 329.449 206.31C328.809 206.85 328.489 207.58 328.489 208.5C328.489 209.4 328.729 210.15 329.209 210.75C329.709 211.33 330.509 211.82 331.609 212.22L334.009 213.09C335.609 213.67 336.829 214.51 337.669 215.61C338.509 216.71 338.929 218.01 338.929 219.51C338.929 221.31 338.309 222.73 337.069 223.77C335.849 224.79 334.169 225.3 332.029 225.3ZM349.688 222.6C350.948 222.6 351.958 222.22 352.718 221.46C353.498 220.68 353.888 219.66 353.888 218.4V209.97C353.888 208.71 353.498 207.7 352.718 206.94C351.958 206.18 350.948 205.8 349.688 205.8H346.358V222.6H349.688ZM343.658 225V203.4H349.688C350.728 203.4 351.668 203.56 352.508 203.88C353.368 204.2 354.098 204.65 354.698 205.23C355.318 205.79 355.788 206.48 356.108 207.3C356.448 208.1 356.618 208.99 356.618 209.97V218.4C356.618 219.38 356.448 220.28 356.108 221.1C355.788 221.92 355.318 222.62 354.698 223.2C354.098 223.76 353.368 224.2 352.508 224.52C351.668 224.84 350.728 225 349.688 225H343.658ZM361.856 203.37H374.756V205.77H364.496V212.76H373.976V215.16H364.556V225H361.856V203.37ZM397.682 222.6H403.472V207.45C403.472 207.29 403.472 207.11 403.472 206.91C403.492 206.69 403.502 206.49 403.502 206.31C403.502 206.13 403.502 205.98 403.502 205.86C403.522 205.72 403.532 205.65 403.532 205.65H403.472C403.332 205.77 403.192 205.88 403.052 205.98C402.932 206.08 402.802 206.18 402.662 206.28C402.542 206.38 402.422 206.47 402.302 206.55L398.072 209.43V206.7L402.722 203.4H406.172V222.6H411.032V225H397.682V222.6Z" fill="black"/>
<circle cx="83" cy="83" r="81" transform="matrix(1 0 0 -1 485 166)" fill="#F2F2F2" stroke="#474747" stroke-width="4"/>
<path d="M532.029 94.3C531.049 94.3 530.139 94.17 529.299 93.91C528.459 93.63 527.729 93.24 527.109 92.74C526.509 92.22 526.029 91.6 525.669 90.88C525.329 90.16 525.149 89.35 525.129 88.45H527.979C527.979 88.97 528.079 89.44 528.279 89.86C528.499 90.28 528.799 90.64 529.179 90.94C529.559 91.24 529.999 91.48 530.499 91.66C530.999 91.82 531.529 91.9 532.089 91.9C533.349 91.9 534.349 91.61 535.089 91.03C535.829 90.43 536.199 89.62 536.199 88.6C536.199 87.74 535.929 86.98 535.389 86.32C534.849 85.64 534.069 85.11 533.049 84.73L530.769 83.89C527.429 82.67 525.759 80.65 525.759 77.83C525.759 76.03 526.329 74.63 527.469 73.63C528.609 72.61 530.179 72.1 532.179 72.1C533.119 72.1 533.979 72.23 534.759 72.49C535.539 72.75 536.209 73.13 536.769 73.63C537.349 74.13 537.799 74.74 538.119 75.46C538.459 76.16 538.639 76.95 538.659 77.83H535.809C535.809 77.33 535.709 76.88 535.509 76.48C535.309 76.06 535.039 75.71 534.699 75.43C534.379 75.13 533.999 74.9 533.559 74.74C533.119 74.58 532.649 74.5 532.149 74.5C531.009 74.5 530.109 74.77 529.449 75.31C528.809 75.85 528.489 76.58 528.489 77.5C528.489 78.4 528.729 79.15 529.209 79.75C529.709 80.33 530.509 80.82 531.609 81.22L534.009 82.09C535.609 82.67 536.829 83.51 537.669 84.61C538.509 85.71 538.929 87.01 538.929 88.51C538.929 90.31 538.309 91.73 537.069 92.77C535.849 93.79 534.169 94.3 532.029 94.3ZM549.688 91.6C550.948 91.6 551.958 91.22 552.718 90.46C553.498 89.68 553.888 88.66 553.888 87.4V78.97C553.888 77.71 553.498 76.7 552.718 75.94C551.958 75.18 550.948 74.8 549.688 74.8H546.358V91.6H549.688ZM543.658 94V72.4H549.688C550.728 72.4 551.668 72.56 552.508 72.88C553.368 73.2 554.098 73.65 554.698 74.23C555.318 74.79 555.788 75.48 556.108 76.3C556.448 77.1 556.618 77.99 556.618 78.97V87.4C556.618 88.38 556.448 89.28 556.108 90.1C555.788 90.92 555.318 91.62 554.698 92.2C554.098 92.76 553.368 93.2 552.508 93.52C551.668 93.84 550.728 94 549.688 94H543.658ZM561.856 72.37H574.756V74.77H564.496V81.76H573.976V84.16H564.556V94H561.856V72.37ZM610.372 78.1C610.372 79.72 609.922 81.29 609.022 82.81C608.142 84.31 606.732 85.9 604.792 87.58L601.162 90.73C601.062 90.81 600.952 90.89 600.832 90.97C600.712 91.05 600.592 91.13 600.472 91.21C600.312 91.31 600.162 91.4 600.022 91.48V91.6C600.342 91.58 600.652 91.57 600.952 91.57C601.232 91.55 601.512 91.54 601.792 91.54C602.092 91.54 602.362 91.54 602.602 91.54H610.582V94H597.082V91L602.782 86.11C603.642 85.37 604.372 84.67 604.972 84.01C605.592 83.35 606.092 82.7 606.472 82.06C606.852 81.42 607.132 80.78 607.312 80.14C607.492 79.5 607.582 78.83 607.582 78.13C607.582 77.01 607.242 76.13 606.562 75.49C605.902 74.83 605.002 74.5 603.862 74.5C602.602 74.5 601.592 74.83 600.832 75.49C600.092 76.15 599.722 77.02 599.722 78.1H596.932C596.972 77.2 597.162 76.38 597.502 75.64C597.842 74.9 598.312 74.27 598.912 73.75C599.532 73.23 600.252 72.83 601.072 72.55C601.912 72.25 602.842 72.1 603.862 72.1C604.862 72.1 605.762 72.24 606.562 72.52C607.362 72.8 608.042 73.2 608.602 73.72C609.162 74.24 609.592 74.87 609.892 75.61C610.212 76.35 610.372 77.18 610.372 78.1Z" fill="black"/>
</svg>
