<svg width="759" height="297" viewBox="0 0 759 297" fill="none" xmlns="http://www.w3.org/2000/svg">
<line x1="444" y1="140" x2="444" y2="252" stroke="#4675D0" stroke-width="4" stroke-dasharray="6 6"/>
<path d="M228 225C171.2 225 115 271.667 94 295H756.5C740.333 199.167 688 6.49999 608 2.49999C508 -2.50001 463 273.5 400.5 271C338 268.5 299 225 228 225Z" fill="#F2F2F2" stroke="#474747" stroke-width="4"/>
<path d="M65.238 104.884L215.663 118.045" stroke="#4675D0" stroke-width="6"/>
<path d="M214.567 107.628C214.634 106.864 215.5 106.456 216.131 106.892L234.095 119.286C234.734 119.727 234.649 120.695 233.944 121.018L214.1 130.105C213.403 130.424 212.621 129.873 212.688 129.109L214.567 107.628Z" fill="#4675D0"/>
<path d="M441.694 139.01L592.12 152.17" stroke="#4675D0" stroke-width="6"/>
<path d="M591.024 141.753C591.09 140.989 591.957 140.582 592.588 141.017L610.552 153.412C611.19 153.853 611.105 154.821 610.4 155.144L590.557 164.231C589.86 164.55 589.077 163.998 589.144 163.235L591.024 141.753Z" fill="#4675D0"/>
<path d="M253.466 121.947L403.892 135.108" stroke="#4675D0" stroke-width="6"/>
<path d="M402.795 124.691C402.862 123.927 403.728 123.519 404.359 123.955L422.323 136.349C422.962 136.79 422.877 137.758 422.172 138.081L402.328 147.168C401.631 147.487 400.849 146.936 400.916 146.172L402.795 124.691Z" fill="#4675D0"/>
<circle cx="52" cy="100" r="14" fill="#F2F2F2" stroke="#474747" stroke-width="6"/>
<path d="M7.21516 45.1C9.09516 45.1 10.6052 45.62 11.7452 46.66C12.9052 47.68 13.5952 49.11 13.8152 50.95H11.1152C10.9952 49.87 10.5852 49.03 9.88516 48.43C9.20516 47.81 8.31516 47.5 7.21516 47.5C6.01516 47.5 5.06516 47.86 4.36516 48.58C3.66516 49.3 3.31516 50.29 3.31516 51.55V60.85C3.31516 62.11 3.65516 63.1 4.33516 63.82C5.03516 64.54 5.99516 64.9 7.21516 64.9C8.31516 64.9 9.20516 64.6 9.88516 64C10.5852 63.38 10.9952 62.53 11.1152 61.45H13.8152C13.5952 63.29 12.9052 64.73 11.7452 65.77C10.6052 66.79 9.09516 67.3 7.21516 67.3C6.19516 67.3 5.27516 67.15 4.45516 66.85C3.65516 66.55 2.96516 66.12 2.38516 65.56C1.82516 65 1.38516 64.32 1.06516 63.52C0.765156 62.72 0.615156 61.83 0.615156 60.85V51.55C0.615156 50.57 0.765156 49.68 1.06516 48.88C1.38516 48.08 1.82516 47.4 2.38516 46.84C2.96516 46.28 3.65516 45.85 4.45516 45.55C5.27516 45.25 6.19516 45.1 7.21516 45.1ZM17.9134 62.2C17.9134 61.42 18.0434 60.72 18.3034 60.1C18.5834 59.46 18.9734 58.92 19.4734 58.48C19.9934 58.04 20.6134 57.7 21.3334 57.46C22.0534 57.22 22.8634 57.1 23.7634 57.1H28.6834V55.75C28.6834 54.73 28.3434 53.94 27.6634 53.38C27.0034 52.8 26.0434 52.51 24.7834 52.51C23.8634 52.51 23.0734 52.68 22.4134 53.02C21.7734 53.36 21.3434 53.83 21.1234 54.43H18.4234C18.7034 53.13 19.4134 52.1 20.5534 51.34C21.7134 50.58 23.1434 50.2 24.8434 50.2C26.8834 50.2 28.4834 50.68 29.6434 51.64C30.8034 52.58 31.3834 53.9 31.3834 55.6V67H28.9234V63.85H28.6834C28.4234 64.91 27.8134 65.75 26.8534 66.37C25.8934 66.99 24.7234 67.3 23.3434 67.3C21.6834 67.3 20.3634 66.84 19.3834 65.92C18.4034 65 17.9134 63.76 17.9134 62.2ZM23.9434 65.08C24.6234 65.08 25.2534 64.99 25.8334 64.81C26.4134 64.63 26.9134 64.38 27.3334 64.06C27.7534 63.72 28.0834 63.33 28.3234 62.89C28.5634 62.45 28.6834 61.97 28.6834 61.45V59.2H23.8234C22.8234 59.2 22.0334 59.46 21.4534 59.98C20.8934 60.5 20.6134 61.22 20.6134 62.14C20.6134 63.06 20.9034 63.78 21.4834 64.3C22.0634 64.82 22.8834 65.08 23.9434 65.08ZM35.8717 50.5H38.0017V52.93H38.2117C38.2917 52.05 38.5717 51.38 39.0517 50.92C39.5317 50.44 40.1717 50.2 40.9717 50.2C41.7717 50.2 42.4317 50.44 42.9517 50.92C43.4717 51.38 43.8317 52.05 44.0317 52.93H44.1817C44.2617 52.05 44.5417 51.38 45.0217 50.92C45.5017 50.44 46.1417 50.2 46.9417 50.2C47.9617 50.2 48.7517 50.58 49.3117 51.34C49.8717 52.08 50.1517 53.11 50.1517 54.43V67H47.8117V54.43C47.8117 53.73 47.6517 53.2 47.3317 52.84C47.0317 52.46 46.5917 52.27 46.0117 52.27C44.7917 52.27 44.1817 53.04 44.1817 54.58V67H41.8417V54.43C41.8417 53.85 41.7017 53.35 41.4217 52.93C41.1617 52.49 40.7017 52.27 40.0417 52.27C39.4417 52.27 38.9717 52.49 38.6317 52.93C38.3517 53.33 38.2117 53.88 38.2117 54.58V67H35.8717V50.5ZM61 67.3C58.94 67.3 57.32 66.74 56.14 65.62C54.98 64.5 54.4 62.96 54.4 61V56.5C54.4 54.54 54.98 53 56.14 51.88C57.32 50.76 58.94 50.2 61 50.2C63.06 50.2 64.67 50.76 65.83 51.88C67.01 53 67.6 54.54 67.6 56.5V59.53H57.1V60.85C57.1 62.11 57.44 63.1 58.12 63.82C58.82 64.54 59.78 64.9 61 64.9C61.9 64.9 62.68 64.76 63.34 64.48C64 64.2 64.49 63.79 64.81 63.25H67.51C67.17 64.51 66.41 65.5 65.23 66.22C64.07 66.94 62.66 67.3 61 67.3ZM64.9 57.28V56.5C64.9 55.26 64.56 54.3 63.88 53.62C63.2 52.94 62.24 52.6 61 52.6C59.76 52.6 58.8 52.94 58.12 53.62C57.44 54.3 57.1 55.26 57.1 56.5V57.28H64.9ZM73.3483 50.5H75.8983V53.35H76.1383C76.3983 52.37 76.9383 51.6 77.7583 51.04C78.5783 50.48 79.5883 50.2 80.7883 50.2C82.5283 50.2 83.8883 50.75 84.8683 51.85C85.8683 52.93 86.3683 54.42 86.3683 56.32V57.25H83.6683V56.65C83.6683 55.35 83.3383 54.35 82.6783 53.65C82.0383 52.93 81.1183 52.57 79.9183 52.57C78.7383 52.57 77.7983 52.94 77.0983 53.68C76.3983 54.4 76.0483 55.39 76.0483 56.65V67H73.3483V50.5ZM89.8666 62.2C89.8666 61.42 89.9966 60.72 90.2566 60.1C90.5366 59.46 90.9266 58.92 91.4266 58.48C91.9466 58.04 92.5666 57.7 93.2866 57.46C94.0066 57.22 94.8166 57.1 95.7166 57.1H100.637V55.75C100.637 54.73 100.297 53.94 99.6166 53.38C98.9566 52.8 97.9966 52.51 96.7366 52.51C95.8166 52.51 95.0266 52.68 94.3666 53.02C93.7266 53.36 93.2966 53.83 93.0766 54.43H90.3766C90.6566 53.13 91.3666 52.1 92.5066 51.34C93.6666 50.58 95.0966 50.2 96.7966 50.2C98.8366 50.2 100.437 50.68 101.597 51.64C102.757 52.58 103.337 53.9 103.337 55.6V67H100.877V63.85H100.637C100.377 64.91 99.7666 65.75 98.8066 66.37C97.8466 66.99 96.6766 67.3 95.2966 67.3C93.6366 67.3 92.3166 66.84 91.3366 65.92C90.3566 65 89.8666 63.76 89.8666 62.2ZM95.8966 65.08C96.5766 65.08 97.2066 64.99 97.7866 64.81C98.3666 64.63 98.8666 64.38 99.2866 64.06C99.7066 63.72 100.037 63.33 100.277 62.89C100.517 62.45 100.637 61.97 100.637 61.45V59.2H95.7766C94.7766 59.2 93.9866 59.46 93.4066 59.98C92.8466 60.5 92.5666 61.22 92.5666 62.14C92.5666 63.06 92.8566 63.78 93.4366 64.3C94.0166 64.82 94.8366 65.08 95.8966 65.08Z" fill="black"/>
<circle cx="253.473" cy="122.682" r="14" transform="rotate(5 253.473 122.682)" fill="#F2F2F2" stroke="#474747" stroke-width="6"/>
<path d="M250.264 67.593C251.24 67.6784 252.114 67.9054 252.885 68.274C253.655 68.6426 254.295 69.1302 254.804 69.7369C255.333 70.3453 255.713 71.0511 255.944 71.8543C256.197 72.6393 256.282 73.5 256.2 74.4364C256.118 75.3728 255.884 76.2156 255.497 76.9648C255.112 77.694 254.606 78.3123 253.98 78.8196C253.373 79.3286 252.658 79.6977 251.835 79.9269C251.012 80.156 250.122 80.2287 249.166 80.1451L244.593 79.745L243.809 88.7108L241.119 88.4755L243.002 66.9576L250.264 67.593ZM245.482 69.5838L244.802 77.3542L249.375 77.7542C250.491 77.8518 251.418 77.5816 252.156 76.9435C252.896 76.2855 253.318 75.3688 253.421 74.1933C253.524 73.0178 253.267 72.0517 252.65 71.2951C252.036 70.5186 251.171 70.0815 250.055 69.9839L245.482 69.5838ZM259.248 87.6524L265.016 88.157L266.337 73.0647C266.351 72.9053 266.366 72.7259 266.384 72.5267C266.423 72.3093 266.45 72.1109 266.466 71.9316C266.482 71.7523 266.495 71.6029 266.505 71.4833C266.537 71.3456 266.553 71.2767 266.553 71.2767L266.493 71.2715C266.344 71.3788 266.194 71.4762 266.046 71.5636C265.918 71.6528 265.78 71.7411 265.632 71.8285C265.503 71.9177 265.376 71.9969 265.249 72.0661L260.785 74.5665L261.022 71.8469L265.942 68.9647L269.379 69.2654L267.706 88.3923L272.547 88.8159L272.338 91.2068L259.039 90.0432L259.248 87.6524Z" fill="black"/>
<circle cx="441.701" cy="139.745" r="14" transform="rotate(5 441.701 139.745)" fill="#F2F2F2" stroke="#474747" stroke-width="6"/>
<path d="M438.492 84.6558C439.469 84.7412 440.342 84.9682 441.113 85.3368C441.884 85.7053 442.524 86.193 443.033 86.7996C443.562 87.4081 443.942 88.1139 444.173 88.917C444.425 89.702 444.51 90.5627 444.428 91.4992C444.347 92.4356 444.112 93.2784 443.725 94.0275C443.34 94.7567 442.835 95.375 442.208 95.8823C441.601 96.3914 440.886 96.7605 440.063 96.9896C439.24 97.2187 438.35 97.2915 437.394 97.2078L432.822 96.8078L432.037 105.774L429.347 105.538L431.23 84.0204L438.492 84.6558ZM433.711 86.6466L433.031 94.4169L437.603 94.8169C438.719 94.9146 439.646 94.6443 440.385 94.0063C441.125 93.3483 441.546 92.4315 441.649 91.256C441.752 90.0805 441.495 89.1144 440.879 88.3578C440.264 87.5813 439.399 87.1442 438.283 87.0466L433.711 86.6466ZM461.295 92.3725C461.154 93.9863 460.568 95.5111 459.539 96.9469C458.532 98.3645 456.989 99.8256 454.91 101.33L451.019 104.152C450.912 104.223 450.796 104.293 450.669 104.362C450.543 104.431 450.416 104.501 450.29 104.57C450.122 104.655 449.964 104.732 449.818 104.8L449.808 104.919C450.128 104.927 450.438 104.944 450.737 104.97C451.017 104.975 451.297 104.989 451.576 105.014C451.875 105.04 452.144 105.063 452.383 105.084L460.333 105.78L460.118 108.23L446.67 107.054L446.931 104.065L453.036 99.6905C453.957 99.0283 454.745 98.3946 455.4 97.7894C456.075 97.1859 456.63 96.582 457.064 95.9775C457.499 95.3731 457.834 94.7599 458.069 94.138C458.304 93.5162 458.452 92.8565 458.513 92.1592C458.61 91.0435 458.348 90.1372 457.727 89.4404C457.127 88.7253 456.259 88.3182 455.123 88.2188C453.868 88.109 452.833 88.3497 452.019 88.941C451.224 89.5339 450.779 90.3684 450.685 91.4443L447.906 91.2011C448.024 90.308 448.285 89.5077 448.688 88.8002C449.091 88.0926 449.614 87.506 450.258 87.0402C450.92 86.5763 451.673 86.2405 452.514 86.0331C453.377 85.8074 454.316 85.739 455.332 85.8279C456.329 85.9151 457.213 86.133 457.986 86.4817C458.758 86.8303 459.401 87.2881 459.913 87.8549C460.426 88.4217 460.799 89.0868 461.034 89.8501C461.288 90.6152 461.375 91.456 461.295 92.3725Z" fill="black"/>
<path d="M498.566 235V231.73H503.186V216.67H498.566V213.4H511.586V216.67H506.966V231.73H511.586V235H498.566ZM516.224 235V218.5H519.794V221.35H520.064C520.244 220.35 520.714 219.58 521.474 219.04C522.234 218.48 523.214 218.2 524.414 218.2C526.074 218.2 527.394 218.74 528.374 219.82C529.354 220.9 529.844 222.36 529.844 224.2V235H526.094V224.65C526.094 223.65 525.824 222.87 525.284 222.31C524.744 221.73 524.004 221.44 523.064 221.44C522.104 221.44 521.344 221.74 520.784 222.34C520.244 222.92 519.974 223.72 519.974 224.74V235H516.224ZM533.403 218.5H537.963V213.4H541.713V218.5H547.983V221.89H541.713V229.9C541.713 230.42 541.863 230.84 542.163 231.16C542.483 231.46 542.923 231.61 543.483 231.61H547.683V235H543.213C541.593 235 540.313 234.54 539.373 233.62C538.433 232.7 537.963 231.46 537.963 229.9V221.89H533.403V218.5ZM559.041 235.3C557.961 235.3 556.971 235.15 556.071 234.85C555.191 234.53 554.441 234.09 553.821 233.53C553.201 232.97 552.721 232.29 552.381 231.49C552.041 230.69 551.871 229.8 551.871 228.82V224.65C551.871 223.67 552.041 222.78 552.381 221.98C552.721 221.18 553.201 220.5 553.821 219.94C554.441 219.38 555.191 218.95 556.071 218.65C556.971 218.35 557.961 218.2 559.041 218.2C560.121 218.2 561.101 218.36 561.981 218.68C562.861 218.98 563.611 219.41 564.231 219.97C564.851 220.53 565.331 221.21 565.671 222.01C566.011 222.81 566.181 223.7 566.181 224.68V227.68H555.591V228.76C555.591 229.86 555.891 230.72 556.491 231.34C557.111 231.96 557.961 232.27 559.041 232.27C559.861 232.27 560.551 232.15 561.111 231.91C561.691 231.65 562.101 231.28 562.341 230.8H566.031C565.851 231.48 565.551 232.1 565.131 232.66C564.711 233.22 564.191 233.7 563.571 234.1C562.971 234.48 562.281 234.78 561.501 235C560.741 235.2 559.921 235.3 559.041 235.3ZM562.491 225.16V224.68C562.491 223.58 562.191 222.73 561.591 222.13C560.991 221.51 560.141 221.2 559.041 221.2C557.961 221.2 557.111 221.51 556.491 222.13C555.891 222.73 555.591 223.57 555.591 224.65V225.16H562.491ZM570.879 218.5H574.419V221.35H574.689C574.889 220.35 575.389 219.58 576.189 219.04C576.989 218.48 578.009 218.2 579.249 218.2C581.029 218.2 582.419 218.75 583.419 219.85C584.419 220.95 584.919 222.47 584.919 224.41V225.61H580.989V224.74C580.989 223.68 580.699 222.86 580.119 222.28C579.539 221.68 578.739 221.38 577.719 221.38C576.759 221.38 575.999 221.68 575.439 222.28C574.899 222.88 574.629 223.7 574.629 224.74V235H570.879V218.5ZM591.838 218.5V221.35H592.108C592.308 220.37 592.788 219.6 593.548 219.04C594.328 218.48 595.318 218.2 596.518 218.2C597.378 218.2 598.158 218.35 598.858 218.65C599.558 218.95 600.148 219.38 600.628 219.94C601.128 220.5 601.508 221.18 601.768 221.98C602.048 222.76 602.188 223.65 602.188 224.65V228.76C602.188 229.76 602.048 230.67 601.768 231.49C601.508 232.29 601.128 232.98 600.628 233.56C600.148 234.12 599.558 234.55 598.858 234.85C598.158 235.15 597.378 235.3 596.518 235.3C595.318 235.3 594.328 235.02 593.548 234.46C592.788 233.9 592.308 233.12 592.108 232.12H591.838C591.838 232.18 591.848 232.31 591.868 232.51C591.888 232.69 591.908 232.92 591.928 233.2C591.948 233.46 591.958 233.75 591.958 234.07C591.978 234.39 591.988 234.7 591.988 235V239.95H588.208V218.5H591.838ZM591.988 228.76C591.988 229.74 592.268 230.53 592.828 231.13C593.408 231.73 594.188 232.03 595.168 232.03C596.188 232.03 596.988 231.73 597.568 231.13C598.148 230.51 598.438 229.69 598.438 228.67V224.74C598.438 223.72 598.148 222.92 597.568 222.34C596.988 221.74 596.188 221.44 595.168 221.44C594.208 221.44 593.438 221.74 592.858 222.34C592.278 222.94 591.988 223.74 591.988 224.74V228.76ZM609.586 228.76C609.586 229.76 609.886 230.55 610.486 231.13C611.106 231.71 611.946 232 613.006 232C614.066 232 614.896 231.71 615.496 231.13C616.116 230.55 616.426 229.76 616.426 228.76V224.71C616.426 223.71 616.116 222.92 615.496 222.34C614.896 221.76 614.066 221.47 613.006 221.47C611.966 221.47 611.136 221.76 610.516 222.34C609.896 222.92 609.586 223.71 609.586 224.71V228.76ZM605.836 224.71C605.836 223.73 606.006 222.84 606.346 222.04C606.686 221.24 607.166 220.56 607.786 220C608.426 219.42 609.186 218.98 610.066 218.68C610.946 218.36 611.926 218.2 613.006 218.2C614.086 218.2 615.066 218.36 615.946 218.68C616.826 218.98 617.576 219.42 618.196 220C618.836 220.56 619.326 221.24 619.666 222.04C620.006 222.84 620.176 223.73 620.176 224.71V228.76C620.176 229.74 620.006 230.64 619.666 231.46C619.326 232.26 618.846 232.95 618.226 233.53C617.606 234.09 616.846 234.53 615.946 234.85C615.066 235.15 614.086 235.3 613.006 235.3C611.926 235.3 610.946 235.14 610.066 234.82C609.186 234.5 608.426 234.06 607.786 233.5C607.166 232.92 606.686 232.23 606.346 231.43C606.006 230.63 605.836 229.74 605.836 228.76V224.71ZM631.924 213.1V229.66C631.924 230.28 632.094 230.76 632.434 231.1C632.794 231.44 633.264 231.61 633.844 231.61H638.764V235H633.574C631.894 235 630.574 234.53 629.614 233.59C628.654 232.65 628.174 231.34 628.174 229.66V216.49H622.924V213.1H631.924ZM641.512 230.38C641.512 229.56 641.662 228.83 641.962 228.19C642.262 227.53 642.692 226.97 643.252 226.51C643.812 226.05 644.482 225.7 645.262 225.46C646.062 225.2 646.952 225.07 647.932 225.07H652.072V223.66C652.072 222.9 651.782 222.3 651.202 221.86C650.642 221.4 649.862 221.17 648.862 221.17C648.042 221.17 647.352 221.32 646.792 221.62C646.232 221.92 645.872 222.33 645.712 222.85H642.022C642.282 221.41 643.022 220.28 644.242 219.46C645.462 218.62 647.002 218.2 648.862 218.2C649.922 218.2 650.882 218.33 651.742 218.59C652.602 218.83 653.332 219.19 653.932 219.67C654.532 220.13 654.992 220.7 655.312 221.38C655.652 222.04 655.822 222.78 655.822 223.6V235H652.282V231.76H652.042C651.842 232.84 651.272 233.7 650.332 234.34C649.412 234.98 648.262 235.3 646.882 235.3C645.242 235.3 643.932 234.86 642.952 233.98C641.992 233.08 641.512 231.88 641.512 230.38ZM648.172 232.36C649.312 232.36 650.242 232.09 650.962 231.55C651.702 230.99 652.072 230.29 652.072 229.45V227.53H647.962C647.122 227.53 646.462 227.74 645.982 228.16C645.502 228.58 645.262 229.17 645.262 229.93C645.262 230.69 645.512 231.29 646.012 231.73C646.532 232.15 647.252 232.36 648.172 232.36ZM659.321 218.5H663.881V213.4H667.631V218.5H673.901V221.89H667.631V229.9C667.631 230.42 667.781 230.84 668.081 231.16C668.401 231.46 668.841 231.61 669.401 231.61H673.601V235H669.131C667.511 235 666.231 234.54 665.291 233.62C664.351 232.7 663.881 231.46 663.881 229.9V221.89H659.321V218.5ZM678.449 231.58H684.359V221.89H679.199V218.5H687.959V231.58H692.729V235H678.449V231.58ZM683.279 214.03C683.279 213.45 683.469 212.98 683.849 212.62C684.249 212.24 684.769 212.05 685.409 212.05H686.189C686.829 212.05 687.339 212.24 687.719 212.62C688.119 212.98 688.319 213.45 688.319 214.03C688.319 214.63 688.119 215.11 687.719 215.47C687.319 215.83 686.799 216.01 686.159 216.01H685.409C684.769 216.01 684.249 215.83 683.849 215.47C683.469 215.11 683.279 214.63 683.279 214.03ZM699.527 228.76C699.527 229.76 699.827 230.55 700.427 231.13C701.047 231.71 701.887 232 702.947 232C704.007 232 704.837 231.71 705.437 231.13C706.057 230.55 706.367 229.76 706.367 228.76V224.71C706.367 223.71 706.057 222.92 705.437 222.34C704.837 221.76 704.007 221.47 702.947 221.47C701.907 221.47 701.077 221.76 700.457 222.34C699.837 222.92 699.527 223.71 699.527 224.71V228.76ZM695.777 224.71C695.777 223.73 695.947 222.84 696.287 222.04C696.627 221.24 697.107 220.56 697.727 220C698.367 219.42 699.127 218.98 700.007 218.68C700.887 218.36 701.867 218.2 702.947 218.2C704.027 218.2 705.007 218.36 705.887 218.68C706.767 218.98 707.517 219.42 708.137 220C708.777 220.56 709.267 221.24 709.607 222.04C709.947 222.84 710.117 223.73 710.117 224.71V228.76C710.117 229.74 709.947 230.64 709.607 231.46C709.267 232.26 708.787 232.95 708.167 233.53C707.547 234.09 706.787 234.53 705.887 234.85C705.007 235.15 704.027 235.3 702.947 235.3C701.867 235.3 700.887 235.14 700.007 234.82C699.127 234.5 698.367 234.06 697.727 233.5C697.107 232.92 696.627 232.23 696.287 231.43C695.947 230.63 695.777 229.74 695.777 228.76V224.71ZM714.096 235V218.5H717.666V221.35H717.936C718.116 220.35 718.586 219.58 719.346 219.04C720.106 218.48 721.086 218.2 722.286 218.2C723.946 218.2 725.266 218.74 726.246 219.82C727.226 220.9 727.716 222.36 727.716 224.2V235H723.966V224.65C723.966 223.65 723.696 222.87 723.156 222.31C722.616 221.73 721.876 221.44 720.936 221.44C719.976 221.44 719.216 221.74 718.656 222.34C718.116 222.92 717.846 223.72 717.846 224.74V235H714.096ZM561.285 250.4H568.365C569.445 250.4 570.425 250.56 571.305 250.88C572.205 251.18 572.965 251.61 573.585 252.17C574.225 252.73 574.715 253.41 575.055 254.21C575.395 255.01 575.565 255.9 575.565 256.88C575.565 258.32 575.205 259.55 574.485 260.57C573.765 261.59 572.775 262.33 571.515 262.79L575.865 272H571.725L567.825 263.36H565.035V272H561.285V250.4ZM565.035 260.33H568.365C569.405 260.33 570.225 260.03 570.825 259.43C571.445 258.83 571.755 258.02 571.755 257C571.755 255.96 571.445 255.13 570.825 254.51C570.205 253.89 569.385 253.58 568.365 253.58H565.035V260.33ZM586.023 272.3C584.943 272.3 583.953 272.15 583.053 271.85C582.173 271.53 581.423 271.09 580.803 270.53C580.183 269.97 579.703 269.29 579.363 268.49C579.023 267.69 578.853 266.8 578.853 265.82V261.65C578.853 260.67 579.023 259.78 579.363 258.98C579.703 258.18 580.183 257.5 580.803 256.94C581.423 256.38 582.173 255.95 583.053 255.65C583.953 255.35 584.943 255.2 586.023 255.2C587.103 255.2 588.083 255.36 588.963 255.68C589.843 255.98 590.593 256.41 591.213 256.97C591.833 257.53 592.313 258.21 592.653 259.01C592.993 259.81 593.163 260.7 593.163 261.68V264.68H582.573V265.76C582.573 266.86 582.873 267.72 583.473 268.34C584.093 268.96 584.943 269.27 586.023 269.27C586.843 269.27 587.533 269.15 588.093 268.91C588.673 268.65 589.083 268.28 589.323 267.8H593.013C592.833 268.48 592.533 269.1 592.113 269.66C591.693 270.22 591.173 270.7 590.553 271.1C589.953 271.48 589.263 271.78 588.483 272C587.723 272.2 586.903 272.3 586.023 272.3ZM589.473 262.16V261.68C589.473 260.58 589.173 259.73 588.573 259.13C587.973 258.51 587.123 258.2 586.023 258.2C584.943 258.2 584.093 258.51 583.473 259.13C582.873 259.73 582.573 260.57 582.573 261.65V262.16H589.473ZM603.382 272.3C601.442 272.3 599.892 271.91 598.732 271.13C597.592 270.33 596.932 269.21 596.752 267.77H600.592C600.712 268.29 601.022 268.7 601.522 269C602.022 269.28 602.642 269.42 603.382 269.42H604.582C605.522 269.42 606.242 269.24 606.742 268.88C607.262 268.5 607.522 267.99 607.522 267.35C607.522 266.25 606.672 265.58 604.972 265.34L602.632 265.07C600.752 264.83 599.362 264.31 598.462 263.51C597.562 262.71 597.112 261.56 597.112 260.06C597.112 258.5 597.652 257.3 598.732 256.46C599.832 255.62 601.402 255.2 603.442 255.2H604.672C606.492 255.2 607.952 255.59 609.052 256.37C610.172 257.13 610.832 258.2 611.032 259.58H607.192C607.092 259.12 606.812 258.76 606.352 258.5C605.912 258.22 605.352 258.08 604.672 258.08H603.442C601.682 258.08 600.802 258.7 600.802 259.94C600.802 261 601.542 261.62 603.022 261.8L605.452 262.13C607.412 262.37 608.862 262.91 609.802 263.75C610.742 264.57 611.212 265.73 611.212 267.23C611.212 268.85 610.642 270.1 609.502 270.98C608.362 271.86 606.722 272.3 604.582 272.3H603.382ZM615.25 255.5H619.03V265.82C619.03 267.96 620.02 269.03 622 269.03C624 269.03 625 267.96 625 265.82V255.5H628.75V265.82C628.75 267.88 628.15 269.48 626.95 270.62C625.77 271.74 624.12 272.3 622 272.3C619.86 272.3 618.2 271.73 617.02 270.59C615.84 269.45 615.25 267.86 615.25 265.82V255.5ZM640.918 250.1V266.66C640.918 267.28 641.088 267.76 641.428 268.1C641.788 268.44 642.258 268.61 642.838 268.61H647.758V272H642.568C640.888 272 639.568 271.53 638.608 270.59C637.648 269.65 637.168 268.34 637.168 266.66V253.49H631.918V250.1H640.918ZM650.327 255.5H654.887V250.4H658.637V255.5H664.907V258.89H658.637V266.9C658.637 267.42 658.787 267.84 659.087 268.16C659.407 268.46 659.847 268.61 660.407 268.61H664.607V272H660.137C658.517 272 657.237 271.54 656.297 270.62C655.357 269.7 654.887 268.46 654.887 266.9V258.89H650.327V255.5Z" fill="#D04646"/>
<line x1="630" y1="8" x2="630" y2="159" stroke="#4675D0" stroke-width="4" stroke-dasharray="6 6"/>
<line x1="629.543" y1="9.27287" x2="445.543" y2="232.273" stroke="#4675D0" stroke-width="4" stroke-dasharray="6 6"/>
<circle cx="629.93" cy="156.808" r="14" transform="rotate(5 629.93 156.808)" fill="#F2F2F2" stroke="#474747" stroke-width="6"/>
<mask id="path-19-outside-1_118_1241" maskUnits="userSpaceOnUse" x="611.363" y="95.2061" width="44.7163" height="36.535" fill="black">
<rect fill="white" x="611.363" y="95.2061" width="44.7163" height="36.535"/>
<path d="M626.72 101.719C627.697 101.804 628.57 102.031 629.341 102.4C630.112 102.768 630.752 103.256 631.261 103.863C631.79 104.471 632.17 105.177 632.401 105.98C632.653 106.765 632.739 107.626 632.657 108.562C632.575 109.499 632.34 110.341 631.954 111.091C631.569 111.82 631.063 112.438 630.436 112.945C629.829 113.454 629.115 113.823 628.291 114.053C627.468 114.282 626.579 114.354 625.622 114.271L621.05 113.871L620.265 122.837L617.576 122.601L619.458 101.083L626.72 101.719ZM621.939 103.71L621.259 111.48L625.831 111.88C626.947 111.978 627.874 111.707 628.613 111.069C629.353 110.411 629.774 109.495 629.877 108.319C629.98 107.143 629.723 106.177 629.107 105.421C628.492 104.644 627.627 104.207 626.511 104.11L621.939 103.71ZM642.537 111.836C643.613 111.93 644.565 112.174 645.394 112.568C646.245 112.943 646.944 113.446 647.491 114.076C648.06 114.688 648.478 115.417 648.745 116.264C649.012 117.11 649.102 118.032 649.015 119.028C648.926 120.044 648.687 120.946 648.296 121.735C647.908 122.504 647.389 123.152 646.741 123.677C646.095 124.183 645.329 124.557 644.444 124.801C643.581 125.027 642.622 125.094 641.566 125.001C640.63 124.919 639.775 124.704 639.003 124.355C638.25 124.008 637.597 123.56 637.042 123.009C636.51 122.441 636.086 121.781 635.77 121.031C635.474 120.282 635.325 119.466 635.322 118.583L638.011 118.818C638.08 119.868 638.455 120.744 639.137 121.446C639.82 122.128 640.699 122.516 641.775 122.61C643.03 122.72 644.07 122.43 644.893 121.739C645.718 121.028 646.186 120.045 646.295 118.79C646.405 117.535 646.105 116.494 645.394 115.669C644.685 114.824 643.683 114.345 642.388 114.232L639.877 114.012L640.126 111.173L644.779 107.214C644.995 107.032 645.221 106.861 645.456 106.701C645.691 106.54 645.914 106.399 646.125 106.277C646.36 106.117 646.604 105.968 646.857 105.829L646.862 105.77C646.641 105.77 646.411 105.77 646.17 105.769C645.949 105.77 645.708 105.769 645.447 105.766C645.208 105.745 644.949 105.723 644.67 105.698L637.169 105.042L637.378 102.651L649.332 103.697L649.071 106.686L643.599 111.055C643.469 111.164 643.34 111.264 643.212 111.353C643.084 111.442 642.966 111.522 642.86 111.593C642.751 111.684 642.644 111.765 642.537 111.836Z"/>
</mask>
<path d="M626.72 101.719C627.697 101.804 628.57 102.031 629.341 102.4C630.112 102.768 630.752 103.256 631.261 103.863C631.79 104.471 632.17 105.177 632.401 105.98C632.653 106.765 632.739 107.626 632.657 108.562C632.575 109.499 632.34 110.341 631.954 111.091C631.569 111.82 631.063 112.438 630.436 112.945C629.829 113.454 629.115 113.823 628.291 114.053C627.468 114.282 626.579 114.354 625.622 114.271L621.05 113.871L620.265 122.837L617.576 122.601L619.458 101.083L626.72 101.719ZM621.939 103.71L621.259 111.48L625.831 111.88C626.947 111.978 627.874 111.707 628.613 111.069C629.353 110.411 629.774 109.495 629.877 108.319C629.98 107.143 629.723 106.177 629.107 105.421C628.492 104.644 627.627 104.207 626.511 104.11L621.939 103.71ZM642.537 111.836C643.613 111.93 644.565 112.174 645.394 112.568C646.245 112.943 646.944 113.446 647.491 114.076C648.06 114.688 648.478 115.417 648.745 116.264C649.012 117.11 649.102 118.032 649.015 119.028C648.926 120.044 648.687 120.946 648.296 121.735C647.908 122.504 647.389 123.152 646.741 123.677C646.095 124.183 645.329 124.557 644.444 124.801C643.581 125.027 642.622 125.094 641.566 125.001C640.63 124.919 639.775 124.704 639.003 124.355C638.25 124.008 637.597 123.56 637.042 123.009C636.51 122.441 636.086 121.781 635.77 121.031C635.474 120.282 635.325 119.466 635.322 118.583L638.011 118.818C638.08 119.868 638.455 120.744 639.137 121.446C639.82 122.128 640.699 122.516 641.775 122.61C643.03 122.72 644.07 122.43 644.893 121.739C645.718 121.028 646.186 120.045 646.295 118.79C646.405 117.535 646.105 116.494 645.394 115.669C644.685 114.824 643.683 114.345 642.388 114.232L639.877 114.012L640.126 111.173L644.779 107.214C644.995 107.032 645.221 106.861 645.456 106.701C645.691 106.54 645.914 106.399 646.125 106.277C646.36 106.117 646.604 105.968 646.857 105.829L646.862 105.77C646.641 105.77 646.411 105.77 646.17 105.769C645.949 105.77 645.708 105.769 645.447 105.766C645.208 105.745 644.949 105.723 644.67 105.698L637.169 105.042L637.378 102.651L649.332 103.697L649.071 106.686L643.599 111.055C643.469 111.164 643.34 111.264 643.212 111.353C643.084 111.442 642.966 111.522 642.86 111.593C642.751 111.684 642.644 111.765 642.537 111.836Z" fill="black"/>
<path d="M631.261 103.863L627.431 107.077L627.459 107.11L627.488 107.143L631.261 103.863ZM632.401 105.98L627.595 107.361L627.617 107.437L627.641 107.511L632.401 105.98ZM631.954 111.091L636.375 113.425L636.386 113.405L636.396 113.384L631.954 111.091ZM630.436 112.945L627.29 109.059L627.256 109.087L627.222 109.115L630.436 112.945ZM628.291 114.053L626.951 109.236L626.951 109.236L628.291 114.053ZM621.05 113.871L621.486 108.89L616.505 108.454L616.069 113.435L621.05 113.871ZM620.265 122.837L619.83 127.817L624.811 128.253L625.246 123.272L620.265 122.837ZM617.576 122.601L612.595 122.165L612.159 127.146L617.14 127.582L617.576 122.601ZM619.458 101.083L619.894 96.1024L614.913 95.6666L614.477 100.648L619.458 101.083ZM621.939 103.71L622.375 98.7286L617.394 98.2928L616.958 103.274L621.939 103.71ZM621.259 111.48L616.278 111.044L615.842 116.025L620.823 116.461L621.259 111.48ZM628.613 111.069L631.882 114.852L631.908 114.829L631.935 114.806L628.613 111.069ZM629.107 105.421L625.186 108.524L625.208 108.552L625.23 108.579L629.107 105.421ZM626.285 106.7C626.75 106.74 627.027 106.836 627.184 106.911L631.498 97.8889C630.113 97.2266 628.643 96.8679 627.156 96.7378L626.285 106.7ZM627.184 106.911C627.362 106.996 627.416 107.059 627.431 107.077L635.091 100.649C634.088 99.4531 632.861 98.5408 631.498 97.8889L627.184 106.911ZM627.488 107.143C627.521 107.181 627.558 107.233 627.595 107.361L637.206 104.599C636.781 103.121 636.059 101.761 635.034 100.582L627.488 107.143ZM627.641 107.511C627.663 107.579 627.708 107.761 627.676 108.126L637.638 108.998C637.769 107.49 637.644 105.951 637.16 104.449L627.641 107.511ZM627.676 108.126C627.644 108.489 627.566 108.689 627.511 108.797L636.396 113.384C637.114 111.994 637.505 110.508 637.638 108.998L627.676 108.126ZM627.532 108.756C627.455 108.901 627.379 108.987 627.29 109.059L633.582 116.831C634.747 115.889 635.682 114.738 636.375 113.425L627.532 108.756ZM627.222 109.115C627.204 109.13 627.141 109.183 626.951 109.236L629.632 118.869C631.088 118.464 632.455 117.779 633.65 116.776L627.222 109.115ZM626.951 109.236C626.772 109.285 626.49 109.328 626.058 109.29L625.187 119.252C626.667 119.381 628.165 119.278 629.632 118.869L626.951 109.236ZM626.058 109.29L621.486 108.89L620.614 118.852L625.187 119.252L626.058 109.29ZM616.069 113.435L615.284 122.401L625.246 123.272L626.031 114.307L616.069 113.435ZM620.701 117.856L618.011 117.62L617.14 127.582L619.83 127.817L620.701 117.856ZM622.557 123.037L624.439 101.519L614.477 100.648L612.595 122.165L622.557 123.037ZM619.022 106.064L626.285 106.7L627.156 96.7378L619.894 96.1024L619.022 106.064ZM616.958 103.274L616.278 111.044L626.24 111.916L626.92 104.145L616.958 103.274ZM620.823 116.461L625.396 116.861L626.267 106.899L621.695 106.499L620.823 116.461ZM625.396 116.861C627.641 117.057 629.967 116.507 631.882 114.852L625.344 107.286C625.512 107.141 625.731 107.018 625.964 106.95C626.183 106.886 626.305 106.902 626.267 106.899L625.396 116.861ZM631.935 114.806C633.807 113.142 634.667 110.943 634.858 108.755L624.896 107.883C624.887 107.994 624.875 107.943 624.941 107.799C625.013 107.642 625.134 107.471 625.291 107.332L631.935 114.806ZM634.858 108.755C635.049 106.571 634.588 104.232 632.983 102.263L625.23 108.579C625.08 108.394 624.979 108.182 624.93 107.997C624.885 107.829 624.906 107.771 624.896 107.883L634.858 108.755ZM633.027 102.318C631.443 100.316 629.236 99.3289 626.947 99.1286L626.075 109.091C626.097 109.092 625.959 109.083 625.742 108.973C625.513 108.858 625.319 108.692 625.186 108.524L633.027 102.318ZM626.947 99.1286L622.375 98.7286L621.503 108.691L626.075 109.091L626.947 99.1286ZM642.537 111.836L639.766 107.674L627.902 115.574L642.101 116.817L642.537 111.836ZM645.394 112.568L643.249 117.084L643.311 117.114L643.375 117.141L645.394 112.568ZM647.491 114.076L643.716 117.354L643.771 117.418L643.829 117.48L647.491 114.076ZM648.745 116.264L653.513 114.758L653.513 114.758L648.745 116.264ZM648.296 121.735L652.759 123.99L652.769 123.971L652.778 123.952L648.296 121.735ZM646.741 123.677L649.821 127.616L649.856 127.589L649.89 127.561L646.741 123.677ZM644.444 124.801L645.709 129.639L645.741 129.63L645.773 129.622L644.444 124.801ZM639.003 124.355L636.91 128.896L636.928 128.905L636.946 128.913L639.003 124.355ZM637.042 123.009L633.393 126.427L633.455 126.493L633.519 126.557L637.042 123.009ZM635.77 121.031L631.12 122.869L631.14 122.92L631.161 122.97L635.77 121.031ZM635.322 118.583L635.757 113.602L630.303 113.124L630.322 118.6L635.322 118.583ZM638.011 118.818L643.001 118.491L642.72 114.211L638.447 113.837L638.011 118.818ZM639.137 121.446L635.549 124.928L635.576 124.956L635.604 124.984L639.137 121.446ZM644.893 121.739L648.107 125.569L648.132 125.548L648.156 125.527L644.893 121.739ZM645.394 115.669L641.564 118.883L641.585 118.908L641.606 118.933L645.394 115.669ZM639.877 114.012L634.896 113.576L634.461 118.557L639.442 118.993L639.877 114.012ZM640.126 111.173L636.885 107.365L635.323 108.694L635.145 110.737L640.126 111.173ZM644.779 107.214L641.565 103.383L641.551 103.394L641.538 103.406L644.779 107.214ZM645.456 106.701L642.639 102.57L642.639 102.57L645.456 106.701ZM646.125 106.277L648.625 110.608L648.787 110.514L648.942 110.408L646.125 106.277ZM646.857 105.829L649.257 110.216L651.605 108.931L651.838 106.265L646.857 105.829ZM646.862 105.77L651.843 106.205L652.32 100.751L646.845 100.77L646.862 105.77ZM646.17 105.769L646.19 100.769L646.172 100.769L646.153 100.769L646.17 105.769ZM645.447 105.766L645.011 110.747L645.203 110.764L645.395 110.766L645.447 105.766ZM637.169 105.042L632.188 104.606L631.752 109.587L636.733 110.023L637.169 105.042ZM637.378 102.651L637.814 97.6702L632.833 97.2344L632.397 102.215L637.378 102.651ZM649.332 103.697L654.313 104.133L654.749 99.1518L649.768 98.7161L649.332 103.697ZM649.071 106.686L652.191 110.593L653.865 109.256L654.052 107.121L649.071 106.686ZM643.599 111.055L640.479 107.148L640.432 107.186L640.385 107.225L643.599 111.055ZM642.86 111.593L640.088 107.431L639.858 107.585L639.646 107.763L642.86 111.593ZM642.101 116.817C642.687 116.868 643.044 116.986 643.249 117.084L647.54 108.051C646.087 107.361 644.539 106.992 642.973 106.855L642.101 116.817ZM643.375 117.141C643.629 117.254 643.704 117.341 643.716 117.354L651.266 110.798C650.184 109.551 648.86 108.632 647.414 107.994L643.375 117.141ZM643.829 117.48C643.861 117.515 643.919 117.584 643.977 117.769L653.513 114.758C653.037 113.25 652.258 111.86 651.153 110.672L643.829 117.48ZM643.977 117.769C644.023 117.914 644.071 118.168 644.034 118.592L653.996 119.463C654.133 117.895 654.002 116.306 653.513 114.758L643.977 117.769ZM644.034 118.592C643.991 119.085 643.889 119.368 643.815 119.519L652.778 123.952C653.484 122.525 653.861 121.002 653.996 119.463L644.034 118.592ZM643.833 119.481C643.752 119.641 643.675 119.727 643.593 119.793L649.89 127.561C651.104 126.577 652.063 125.368 652.759 123.99L643.833 119.481ZM643.661 119.739C643.592 119.792 643.439 119.892 643.116 119.981L645.773 129.622C647.219 129.223 648.597 128.573 649.821 127.616L643.661 119.739ZM643.18 119.964C642.964 120.02 642.592 120.072 642.002 120.02L641.13 129.982C642.652 130.115 644.198 130.034 645.709 129.639L643.18 119.964ZM642.002 120.02C641.565 119.982 641.266 119.891 641.059 119.798L636.946 128.913C638.284 129.517 639.694 129.857 641.13 129.982L642.002 120.02ZM641.096 119.815C640.842 119.697 640.68 119.575 640.566 119.462L633.519 126.557C634.513 127.544 635.658 128.319 636.91 128.896L641.096 119.815ZM640.692 119.592C640.582 119.474 640.475 119.321 640.378 119.091L631.161 122.97C631.696 124.242 632.438 125.407 633.393 126.427L640.692 119.592ZM640.42 119.193C640.375 119.078 640.323 118.887 640.322 118.566L630.322 118.6C630.327 120.046 630.574 121.486 631.12 122.869L640.42 119.193ZM634.886 123.564L637.576 123.799L638.447 113.837L635.757 113.602L634.886 123.564ZM633.022 119.145C633.162 121.283 633.975 123.307 635.549 124.928L642.725 117.964C642.798 118.04 642.881 118.155 642.941 118.294C642.998 118.429 643.002 118.509 643.001 118.491L633.022 119.145ZM635.604 124.984C637.217 126.595 639.242 127.408 641.339 127.591L642.211 117.629C642.153 117.624 642.208 117.621 642.327 117.674C642.454 117.73 642.576 117.815 642.67 117.908L635.604 124.984ZM641.339 127.591C643.67 127.795 646.093 127.259 648.107 125.569L641.679 117.909C641.74 117.857 641.816 117.805 641.904 117.758C641.993 117.712 642.077 117.68 642.15 117.659C642.298 117.618 642.338 117.641 642.211 117.629L641.339 127.591ZM648.156 125.527C650.125 123.831 651.072 121.56 651.276 119.226L641.314 118.354C641.303 118.48 641.288 118.445 641.347 118.321C641.376 118.26 641.417 118.191 641.47 118.121C641.523 118.051 641.579 117.994 641.63 117.951L648.156 125.527ZM651.276 119.226C651.484 116.856 650.913 114.415 649.182 112.406L641.606 118.933C641.495 118.804 641.399 118.631 641.349 118.456C641.303 118.296 641.324 118.241 641.314 118.354L651.276 119.226ZM649.224 112.455C647.512 110.415 645.186 109.458 642.824 109.251L641.952 119.213C642.102 119.226 642.077 119.246 641.954 119.187C641.893 119.158 641.821 119.116 641.747 119.058C641.673 119.001 641.611 118.94 641.564 118.883L649.224 112.455ZM642.824 109.251L640.313 109.031L639.442 118.993L641.952 119.213L642.824 109.251ZM644.858 114.448L645.107 111.609L635.145 110.737L634.896 113.576L644.858 114.448ZM643.366 114.981L648.019 111.021L641.538 103.406L636.885 107.365L643.366 114.981ZM647.992 111.044C648.081 110.969 648.174 110.899 648.273 110.832L642.639 102.57C642.268 102.823 641.909 103.094 641.565 103.383L647.992 111.044ZM648.273 110.832C648.421 110.731 648.537 110.658 648.625 110.608L643.626 101.947C643.29 102.141 642.961 102.35 642.639 102.57L648.273 110.832ZM648.942 110.408C649.04 110.341 649.145 110.277 649.257 110.216L644.457 101.443C644.063 101.659 643.68 101.893 643.308 102.146L648.942 110.408ZM651.838 106.265L651.843 106.205L641.881 105.334L641.876 105.394L651.838 106.265ZM646.845 100.77C646.638 100.77 646.42 100.77 646.19 100.769L646.149 110.769C646.401 110.77 646.645 110.77 646.879 110.77L646.845 100.77ZM646.153 100.769C645.959 100.77 645.741 100.769 645.5 100.767L645.395 110.766C645.675 110.769 645.939 110.77 646.187 110.769L646.153 100.769ZM645.883 100.785C645.883 100.785 645.882 100.785 645.882 100.785C645.881 100.785 645.881 100.785 645.88 100.785C645.88 100.785 645.879 100.785 645.879 100.785C645.878 100.785 645.878 100.785 645.877 100.785C645.877 100.785 645.876 100.785 645.876 100.785C645.876 100.785 645.875 100.785 645.875 100.785C645.874 100.785 645.874 100.785 645.873 100.784C645.873 100.784 645.872 100.784 645.872 100.784C645.871 100.784 645.871 100.784 645.87 100.784C645.87 100.784 645.869 100.784 645.869 100.784C645.868 100.784 645.868 100.784 645.868 100.784C645.867 100.784 645.867 100.784 645.866 100.784C645.866 100.784 645.865 100.784 645.865 100.784C645.864 100.784 645.864 100.784 645.863 100.784C645.863 100.784 645.862 100.784 645.862 100.783C645.861 100.783 645.861 100.783 645.861 100.783C645.86 100.783 645.86 100.783 645.859 100.783C645.859 100.783 645.858 100.783 645.858 100.783C645.857 100.783 645.857 100.783 645.856 100.783C645.856 100.783 645.855 100.783 645.855 100.783C645.854 100.783 645.854 100.783 645.853 100.783C645.853 100.783 645.853 100.783 645.852 100.783C645.852 100.783 645.851 100.783 645.851 100.782C645.85 100.782 645.85 100.782 645.849 100.782C645.849 100.782 645.848 100.782 645.848 100.782C645.847 100.782 645.847 100.782 645.846 100.782C645.846 100.782 645.845 100.782 645.845 100.782C645.845 100.782 645.844 100.782 645.844 100.782C645.843 100.782 645.843 100.782 645.842 100.782C645.842 100.782 645.841 100.782 645.841 100.782C645.84 100.782 645.84 100.782 645.839 100.782C645.839 100.781 645.838 100.781 645.838 100.781C645.837 100.781 645.837 100.781 645.837 100.781C645.836 100.781 645.836 100.781 645.835 100.781C645.835 100.781 645.834 100.781 645.834 100.781C645.833 100.781 645.833 100.781 645.832 100.781C645.832 100.781 645.831 100.781 645.831 100.781C645.83 100.781 645.83 100.781 645.829 100.781C645.829 100.781 645.828 100.781 645.828 100.781C645.828 100.78 645.827 100.78 645.827 100.78C645.826 100.78 645.826 100.78 645.825 100.78C645.825 100.78 645.824 100.78 645.824 100.78C645.823 100.78 645.823 100.78 645.822 100.78C645.822 100.78 645.821 100.78 645.821 100.78C645.82 100.78 645.82 100.78 645.819 100.78C645.819 100.78 645.819 100.78 645.818 100.78C645.818 100.78 645.817 100.78 645.817 100.78C645.816 100.779 645.816 100.779 645.815 100.779C645.815 100.779 645.814 100.779 645.814 100.779C645.813 100.779 645.813 100.779 645.812 100.779C645.812 100.779 645.811 100.779 645.811 100.779C645.81 100.779 645.81 100.779 645.81 100.779C645.809 100.779 645.809 100.779 645.808 100.779C645.808 100.779 645.807 100.779 645.807 100.779C645.806 100.779 645.806 100.779 645.805 100.779C645.805 100.778 645.804 100.778 645.804 100.778C645.803 100.778 645.803 100.778 645.802 100.778C645.802 100.778 645.801 100.778 645.801 100.778C645.801 100.778 645.8 100.778 645.8 100.778C645.799 100.778 645.799 100.778 645.798 100.778C645.798 100.778 645.797 100.778 645.797 100.778C645.796 100.778 645.796 100.778 645.795 100.778C645.795 100.778 645.794 100.778 645.794 100.778C645.793 100.777 645.793 100.777 645.792 100.777C645.792 100.777 645.791 100.777 645.791 100.777C645.79 100.777 645.79 100.777 645.79 100.777C645.789 100.777 645.789 100.777 645.788 100.777C645.788 100.777 645.787 100.777 645.787 100.777C645.786 100.777 645.786 100.777 645.785 100.777C645.785 100.777 645.784 100.777 645.784 100.777C645.783 100.777 645.783 100.777 645.782 100.777C645.782 100.776 645.781 100.776 645.781 100.776C645.78 100.776 645.78 100.776 645.78 100.776C645.779 100.776 645.779 100.776 645.778 100.776C645.778 100.776 645.777 100.776 645.777 100.776C645.776 100.776 645.776 100.776 645.775 100.776C645.775 100.776 645.774 100.776 645.774 100.776C645.773 100.776 645.773 100.776 645.772 100.776C645.772 100.776 645.771 100.776 645.771 100.776C645.77 100.775 645.77 100.775 645.769 100.775C645.769 100.775 645.769 100.775 645.768 100.775C645.768 100.775 645.767 100.775 645.767 100.775C645.766 100.775 645.766 100.775 645.765 100.775C645.765 100.775 645.764 100.775 645.764 100.775C645.763 100.775 645.763 100.775 645.762 100.775C645.762 100.775 645.761 100.775 645.761 100.775C645.76 100.775 645.76 100.775 645.759 100.775C645.759 100.774 645.758 100.774 645.758 100.774C645.757 100.774 645.757 100.774 645.757 100.774C645.756 100.774 645.756 100.774 645.755 100.774C645.755 100.774 645.754 100.774 645.754 100.774C645.753 100.774 645.753 100.774 645.752 100.774C645.752 100.774 645.751 100.774 645.751 100.774C645.75 100.774 645.75 100.774 645.749 100.774C645.749 100.774 645.748 100.774 645.748 100.773C645.747 100.773 645.747 100.773 645.746 100.773C645.746 100.773 645.745 100.773 645.745 100.773C645.744 100.773 645.744 100.773 645.744 100.773C645.743 100.773 645.743 100.773 645.742 100.773C645.742 100.773 645.741 100.773 645.741 100.773C645.74 100.773 645.74 100.773 645.739 100.773C645.739 100.773 645.738 100.773 645.738 100.773C645.737 100.773 645.737 100.773 645.736 100.772C645.736 100.772 645.735 100.772 645.735 100.772C645.734 100.772 645.734 100.772 645.733 100.772C645.733 100.772 645.732 100.772 645.732 100.772C645.731 100.772 645.731 100.772 645.73 100.772C645.73 100.772 645.73 100.772 645.729 100.772C645.729 100.772 645.728 100.772 645.728 100.772C645.727 100.772 645.727 100.772 645.726 100.772C645.726 100.772 645.725 100.772 645.725 100.771C645.724 100.771 645.724 100.771 645.723 100.771C645.723 100.771 645.722 100.771 645.722 100.771C645.721 100.771 645.721 100.771 645.72 100.771C645.72 100.771 645.719 100.771 645.719 100.771C645.718 100.771 645.718 100.771 645.717 100.771C645.717 100.771 645.716 100.771 645.716 100.771C645.715 100.771 645.715 100.771 645.715 100.771C645.714 100.771 645.714 100.77 645.713 100.77C645.713 100.77 645.712 100.77 645.712 100.77C645.711 100.77 645.711 100.77 645.71 100.77C645.71 100.77 645.709 100.77 645.709 100.77C645.708 100.77 645.708 100.77 645.707 100.77C645.707 100.77 645.706 100.77 645.706 100.77C645.705 100.77 645.705 100.77 645.704 100.77C645.704 100.77 645.703 100.77 645.703 100.77C645.702 100.77 645.702 100.769 645.701 100.769C645.701 100.769 645.7 100.769 645.7 100.769C645.699 100.769 645.699 100.769 645.698 100.769C645.698 100.769 645.698 100.769 645.697 100.769C645.697 100.769 645.696 100.769 645.696 100.769C645.695 100.769 645.695 100.769 645.694 100.769C645.694 100.769 645.693 100.769 645.693 100.769C645.692 100.769 645.692 100.769 645.691 100.769C645.691 100.768 645.69 100.768 645.69 100.768C645.689 100.768 645.689 100.768 645.688 100.768C645.688 100.768 645.687 100.768 645.687 100.768C645.686 100.768 645.686 100.768 645.685 100.768C645.685 100.768 645.684 100.768 645.684 100.768C645.683 100.768 645.683 100.768 645.682 100.768C645.682 100.768 645.681 100.768 645.681 100.768C645.68 100.768 645.68 100.768 645.679 100.768C645.679 100.767 645.678 100.767 645.678 100.767C645.678 100.767 645.677 100.767 645.677 100.767C645.676 100.767 645.676 100.767 645.675 100.767C645.675 100.767 645.674 100.767 645.674 100.767C645.673 100.767 645.673 100.767 645.672 100.767C645.672 100.767 645.671 100.767 645.671 100.767C645.67 100.767 645.67 100.767 645.669 100.767C645.669 100.767 645.668 100.767 645.668 100.766C645.667 100.766 645.667 100.766 645.666 100.766C645.666 100.766 645.665 100.766 645.665 100.766C645.664 100.766 645.664 100.766 645.663 100.766C645.663 100.766 645.662 100.766 645.662 100.766C645.661 100.766 645.661 100.766 645.66 100.766C645.66 100.766 645.659 100.766 645.659 100.766C645.658 100.766 645.658 100.766 645.657 100.766C645.657 100.766 645.656 100.766 645.656 100.765C645.655 100.765 645.655 100.765 645.654 100.765C645.654 100.765 645.654 100.765 645.653 100.765C645.653 100.765 645.652 100.765 645.652 100.765C645.651 100.765 645.651 100.765 645.65 100.765C645.65 100.765 645.649 100.765 645.649 100.765C645.648 100.765 645.648 100.765 645.647 100.765C645.647 100.765 645.646 100.765 645.646 100.765C645.645 100.765 645.645 100.764 645.644 100.764C645.644 100.764 645.643 100.764 645.643 100.764C645.642 100.764 645.642 100.764 645.641 100.764C645.641 100.764 645.64 100.764 645.64 100.764C645.639 100.764 645.639 100.764 645.638 100.764C645.638 100.764 645.637 100.764 645.637 100.764C645.636 100.764 645.636 100.764 645.635 100.764C645.635 100.764 645.634 100.764 645.634 100.764C645.633 100.763 645.633 100.763 645.632 100.763C645.632 100.763 645.631 100.763 645.631 100.763C645.63 100.763 645.63 100.763 645.629 100.763C645.629 100.763 645.628 100.763 645.628 100.763C645.627 100.763 645.627 100.763 645.626 100.763C645.626 100.763 645.625 100.763 645.625 100.763C645.624 100.763 645.624 100.763 645.623 100.763C645.623 100.763 645.622 100.763 645.622 100.762C645.621 100.762 645.621 100.762 645.62 100.762C645.62 100.762 645.619 100.762 645.619 100.762C645.619 100.762 645.618 100.762 645.618 100.762C645.617 100.762 645.617 100.762 645.616 100.762C645.616 100.762 645.615 100.762 645.615 100.762C645.614 100.762 645.614 100.762 645.613 100.762C645.613 100.762 645.612 100.762 645.612 100.762C645.611 100.762 645.611 100.761 645.61 100.761C645.61 100.761 645.609 100.761 645.609 100.761C645.608 100.761 645.608 100.761 645.607 100.761C645.607 100.761 645.606 100.761 645.606 100.761C645.605 100.761 645.605 100.761 645.604 100.761C645.604 100.761 645.603 100.761 645.603 100.761C645.602 100.761 645.602 100.761 645.601 100.761C645.601 100.761 645.6 100.761 645.6 100.761C645.599 100.76 645.599 100.76 645.598 100.76C645.598 100.76 645.597 100.76 645.597 100.76C645.596 100.76 645.596 100.76 645.595 100.76C645.595 100.76 645.594 100.76 645.594 100.76C645.593 100.76 645.593 100.76 645.592 100.76C645.592 100.76 645.591 100.76 645.591 100.76C645.59 100.76 645.59 100.76 645.589 100.76C645.589 100.76 645.588 100.76 645.588 100.759C645.587 100.759 645.587 100.759 645.586 100.759C645.586 100.759 645.585 100.759 645.585 100.759C645.584 100.759 645.584 100.759 645.583 100.759C645.583 100.759 645.582 100.759 645.582 100.759C645.581 100.759 645.581 100.759 645.58 100.759C645.58 100.759 645.579 100.759 645.579 100.759C645.578 100.759 645.578 100.759 645.577 100.759C645.577 100.759 645.576 100.758 645.576 100.758C645.575 100.758 645.575 100.758 645.574 100.758C645.574 100.758 645.573 100.758 645.573 100.758C645.572 100.758 645.572 100.758 645.571 100.758C645.571 100.758 645.57 100.758 645.57 100.758C645.569 100.758 645.569 100.758 645.568 100.758C645.568 100.758 645.567 100.758 645.567 100.758C645.566 100.758 645.566 100.758 645.565 100.758C645.565 100.757 645.564 100.757 645.564 100.757C645.563 100.757 645.563 100.757 645.562 100.757C645.562 100.757 645.561 100.757 645.561 100.757C645.56 100.757 645.56 100.757 645.559 100.757C645.559 100.757 645.558 100.757 645.558 100.757C645.557 100.757 645.557 100.757 645.556 100.757C645.556 100.757 645.555 100.757 645.555 100.757C645.554 100.757 645.554 100.757 645.553 100.756C645.553 100.756 645.552 100.756 645.552 100.756C645.551 100.756 645.551 100.756 645.55 100.756C645.55 100.756 645.549 100.756 645.549 100.756C645.548 100.756 645.548 100.756 645.547 100.756C645.547 100.756 645.546 100.756 645.546 100.756C645.545 100.756 645.545 100.756 645.544 100.756C645.544 100.756 645.543 100.756 645.543 100.756C645.542 100.756 645.542 100.755 645.541 100.755C645.541 100.755 645.54 100.755 645.54 100.755C645.539 100.755 645.539 100.755 645.538 100.755C645.538 100.755 645.537 100.755 645.537 100.755C645.536 100.755 645.536 100.755 645.535 100.755C645.535 100.755 645.534 100.755 645.534 100.755C645.533 100.755 645.533 100.755 645.532 100.755C645.532 100.755 645.531 100.755 645.531 100.754C645.53 100.754 645.53 100.754 645.529 100.754C645.529 100.754 645.528 100.754 645.528 100.754C645.527 100.754 645.527 100.754 645.526 100.754C645.526 100.754 645.525 100.754 645.525 100.754C645.524 100.754 645.524 100.754 645.523 100.754C645.523 100.754 645.522 100.754 645.522 100.754C645.521 100.754 645.521 100.754 645.52 100.754C645.52 100.754 645.519 100.753 645.519 100.753C645.518 100.753 645.518 100.753 645.517 100.753C645.517 100.753 645.516 100.753 645.515 100.753C645.515 100.753 645.514 100.753 645.514 100.753C645.513 100.753 645.513 100.753 645.512 100.753C645.512 100.753 645.511 100.753 645.511 100.753C645.51 100.753 645.51 100.753 645.509 100.753C645.509 100.753 645.508 100.753 645.508 100.753C645.507 100.752 645.507 100.752 645.506 100.752C645.506 100.752 645.505 100.752 645.505 100.752C645.504 100.752 645.504 100.752 645.503 100.752C645.503 100.752 645.502 100.752 645.502 100.752C645.501 100.752 645.501 100.752 645.5 100.752C645.5 100.752 645.499 100.752 645.499 100.752C645.498 100.752 645.498 100.752 645.497 100.752C645.497 100.752 645.496 100.751 645.496 100.751C645.495 100.751 645.495 100.751 645.494 100.751C645.494 100.751 645.493 100.751 645.493 100.751C645.492 100.751 645.492 100.751 645.491 100.751C645.491 100.751 645.49 100.751 645.49 100.751C645.489 100.751 645.489 100.751 645.488 100.751C645.488 100.751 645.487 100.751 645.487 100.751C645.486 100.751 645.486 100.751 645.485 100.751C645.485 100.75 645.484 100.75 645.484 100.75C645.483 100.75 645.483 100.75 645.482 100.75C645.482 100.75 645.481 100.75 645.481 100.75C645.48 100.75 645.479 100.75 645.479 100.75C645.478 100.75 645.478 100.75 645.477 100.75C645.477 100.75 645.476 100.75 645.476 100.75C645.475 100.75 645.475 100.75 645.474 100.75C645.474 100.75 645.473 100.749 645.473 100.749C645.472 100.749 645.472 100.749 645.471 100.749C645.471 100.749 645.47 100.749 645.47 100.749C645.469 100.749 645.469 100.749 645.468 100.749C645.468 100.749 645.467 100.749 645.467 100.749C645.466 100.749 645.466 100.749 645.465 100.749C645.465 100.749 645.464 100.749 645.464 100.749C645.463 100.749 645.463 100.749 645.462 100.749C645.462 100.748 645.461 100.748 645.461 100.748C645.46 100.748 645.46 100.748 645.459 100.748C645.459 100.748 645.458 100.748 645.458 100.748C645.457 100.748 645.457 100.748 645.456 100.748C645.456 100.748 645.455 100.748 645.454 100.748C645.454 100.748 645.453 100.748 645.453 100.748C645.452 100.748 645.452 100.748 645.451 100.748C645.451 100.748 645.45 100.747 645.45 100.747C645.449 100.747 645.449 100.747 645.448 100.747C645.448 100.747 645.447 100.747 645.447 100.747C645.446 100.747 645.446 100.747 645.445 100.747C645.445 100.747 645.444 100.747 645.444 100.747C645.443 100.747 645.443 100.747 645.442 100.747C645.442 100.747 645.441 100.747 645.441 100.747C645.44 100.747 645.44 100.747 645.439 100.746C645.439 100.746 645.438 100.746 645.438 100.746C645.437 100.746 645.437 100.746 645.436 100.746C645.436 100.746 645.435 100.746 645.435 100.746C645.434 100.746 645.433 100.746 645.433 100.746C645.432 100.746 645.432 100.746 645.431 100.746C645.431 100.746 645.43 100.746 645.43 100.746C645.429 100.746 645.429 100.746 645.428 100.746C645.428 100.745 645.427 100.745 645.427 100.745C645.426 100.745 645.426 100.745 645.425 100.745C645.425 100.745 645.424 100.745 645.424 100.745C645.423 100.745 645.423 100.745 645.422 100.745C645.422 100.745 645.421 100.745 645.421 100.745C645.42 100.745 645.42 100.745 645.419 100.745C645.419 100.745 645.418 100.745 645.418 100.745C645.417 100.745 645.417 100.745 645.416 100.744C645.415 100.744 645.415 100.744 645.414 100.744C645.414 100.744 645.413 100.744 645.413 100.744C645.412 100.744 645.412 100.744 645.411 100.744C645.411 100.744 645.41 100.744 645.41 100.744C645.409 100.744 645.409 100.744 645.408 100.744C645.408 100.744 645.407 100.744 645.407 100.744C645.406 100.744 645.406 100.744 645.405 100.744C645.405 100.743 645.404 100.743 645.404 100.743C645.403 100.743 645.403 100.743 645.402 100.743C645.402 100.743 645.401 100.743 645.401 100.743C645.4 100.743 645.399 100.743 645.399 100.743C645.398 100.743 645.398 100.743 645.397 100.743C645.397 100.743 645.396 100.743 645.396 100.743C645.395 100.743 645.395 100.743 645.394 100.743C645.394 100.743 645.393 100.742 645.393 100.742C645.392 100.742 645.392 100.742 645.391 100.742C645.391 100.742 645.39 100.742 645.39 100.742C645.389 100.742 645.389 100.742 645.388 100.742C645.388 100.742 645.387 100.742 645.387 100.742C645.386 100.742 645.386 100.742 645.385 100.742C645.384 100.742 645.384 100.742 645.383 100.742C645.383 100.742 645.382 100.742 645.382 100.741C645.381 100.741 645.381 100.741 645.38 100.741C645.38 100.741 645.379 100.741 645.379 100.741C645.378 100.741 645.378 100.741 645.377 100.741C645.377 100.741 645.376 100.741 645.376 100.741C645.375 100.741 645.375 100.741 645.374 100.741C645.374 100.741 645.373 100.741 645.373 100.741C645.372 100.741 645.372 100.741 645.371 100.741C645.37 100.74 645.37 100.74 645.369 100.74C645.369 100.74 645.368 100.74 645.368 100.74C645.367 100.74 645.367 100.74 645.366 100.74C645.366 100.74 645.365 100.74 645.365 100.74C645.364 100.74 645.364 100.74 645.363 100.74C645.363 100.74 645.362 100.74 645.362 100.74C645.361 100.74 645.361 100.74 645.36 100.74C645.36 100.74 645.359 100.739 645.359 100.739C645.358 100.739 645.357 100.739 645.357 100.739C645.356 100.739 645.356 100.739 645.355 100.739C645.355 100.739 645.354 100.739 645.354 100.739C645.353 100.739 645.353 100.739 645.352 100.739C645.352 100.739 645.351 100.739 645.351 100.739C645.35 100.739 645.35 100.739 645.349 100.739C645.349 100.739 645.348 100.739 645.348 100.738C645.347 100.738 645.347 100.738 645.346 100.738C645.345 100.738 645.345 100.738 645.344 100.738C645.344 100.738 645.343 100.738 645.343 100.738C645.342 100.738 645.342 100.738 645.341 100.738C645.341 100.738 645.34 100.738 645.34 100.738C645.339 100.738 645.339 100.738 645.338 100.738C645.338 100.738 645.337 100.738 645.337 100.738C645.336 100.737 645.336 100.737 645.335 100.737C645.334 100.737 645.334 100.737 645.333 100.737C645.333 100.737 645.332 100.737 645.332 100.737C645.331 100.737 645.331 100.737 645.33 100.737C645.33 100.737 645.329 100.737 645.329 100.737C645.328 100.737 645.328 100.737 645.327 100.737C645.327 100.737 645.326 100.737 645.326 100.737C645.325 100.737 645.325 100.736 645.324 100.736C645.324 100.736 645.323 100.736 645.322 100.736C645.322 100.736 645.321 100.736 645.321 100.736C645.32 100.736 645.32 100.736 645.319 100.736C645.319 100.736 645.318 100.736 645.318 100.736C645.317 100.736 645.317 100.736 645.316 100.736C645.316 100.736 645.315 100.736 645.315 100.736C645.314 100.736 645.314 100.735 645.313 100.735C645.312 100.735 645.312 100.735 645.311 100.735C645.311 100.735 645.31 100.735 645.31 100.735C645.309 100.735 645.309 100.735 645.308 100.735C645.308 100.735 645.307 100.735 645.307 100.735C645.306 100.735 645.306 100.735 645.305 100.735C645.305 100.735 645.304 100.735 645.304 100.735C645.303 100.735 645.302 100.735 645.302 100.734C645.301 100.734 645.301 100.734 645.3 100.734C645.3 100.734 645.299 100.734 645.299 100.734C645.298 100.734 645.298 100.734 645.297 100.734C645.297 100.734 645.296 100.734 645.296 100.734C645.295 100.734 645.295 100.734 645.294 100.734C645.294 100.734 645.293 100.734 645.292 100.734C645.292 100.734 645.291 100.734 645.291 100.734C645.29 100.733 645.29 100.733 645.289 100.733C645.289 100.733 645.288 100.733 645.288 100.733C645.287 100.733 645.287 100.733 645.286 100.733C645.286 100.733 645.285 100.733 645.285 100.733C645.284 100.733 645.284 100.733 645.283 100.733C645.282 100.733 645.282 100.733 645.281 100.733C645.281 100.733 645.28 100.733 645.28 100.733C645.279 100.733 645.279 100.732 645.278 100.732C645.278 100.732 645.277 100.732 645.277 100.732C645.276 100.732 645.276 100.732 645.275 100.732C645.275 100.732 645.274 100.732 645.273 100.732C645.273 100.732 645.272 100.732 645.272 100.732C645.271 100.732 645.271 100.732 645.27 100.732C645.27 100.732 645.269 100.732 645.269 100.732C645.268 100.732 645.268 100.731 645.267 100.731C645.267 100.731 645.266 100.731 645.266 100.731C645.265 100.731 645.264 100.731 645.264 100.731C645.263 100.731 645.263 100.731 645.262 100.731C645.262 100.731 645.261 100.731 645.261 100.731C645.26 100.731 645.26 100.731 645.259 100.731C645.259 100.731 645.258 100.731 645.258 100.731C645.257 100.731 645.257 100.731 645.256 100.73C645.255 100.73 645.255 100.73 645.254 100.73C645.254 100.73 645.253 100.73 645.253 100.73C645.252 100.73 645.252 100.73 645.251 100.73C645.251 100.73 645.25 100.73 645.25 100.73C645.249 100.73 645.249 100.73 645.248 100.73C645.247 100.73 645.247 100.73 645.246 100.73C645.246 100.73 645.245 100.73 645.245 100.729C645.244 100.729 645.244 100.729 645.243 100.729C645.243 100.729 645.242 100.729 645.242 100.729C645.241 100.729 645.241 100.729 645.24 100.729C645.24 100.729 645.239 100.729 645.238 100.729C645.238 100.729 645.237 100.729 645.237 100.729C645.236 100.729 645.236 100.729 645.235 100.729C645.235 100.729 645.234 100.729 645.234 100.729C645.233 100.728 645.233 100.728 645.232 100.728C645.232 100.728 645.231 100.728 645.23 100.728C645.23 100.728 645.229 100.728 645.229 100.728C645.228 100.728 645.228 100.728 645.227 100.728C645.227 100.728 645.226 100.728 645.226 100.728C645.225 100.728 645.225 100.728 645.224 100.728C645.224 100.728 645.223 100.728 645.222 100.728C645.222 100.727 645.221 100.727 645.221 100.727C645.22 100.727 645.22 100.727 645.219 100.727C645.219 100.727 645.218 100.727 645.218 100.727C645.217 100.727 645.217 100.727 645.216 100.727C645.216 100.727 645.215 100.727 645.214 100.727C645.214 100.727 645.213 100.727 645.213 100.727C645.212 100.727 645.212 100.727 645.211 100.727C645.211 100.727 645.21 100.726 645.21 100.726C645.209 100.726 645.209 100.726 645.208 100.726C645.207 100.726 645.207 100.726 645.206 100.726C645.206 100.726 645.205 100.726 645.205 100.726C645.204 100.726 645.204 100.726 645.203 100.726C645.203 100.726 645.202 100.726 645.202 100.726C645.201 100.726 645.201 100.726 645.2 100.726C645.199 100.726 645.199 100.725 645.198 100.725C645.198 100.725 645.197 100.725 645.197 100.725C645.196 100.725 645.196 100.725 645.195 100.725C645.195 100.725 645.194 100.725 645.194 100.725C645.193 100.725 645.192 100.725 645.192 100.725C645.191 100.725 645.191 100.725 645.19 100.725C645.19 100.725 645.189 100.725 645.189 100.725C645.188 100.725 645.188 100.724 645.187 100.724C645.187 100.724 645.186 100.724 645.186 100.724C645.185 100.724 645.184 100.724 645.184 100.724C645.183 100.724 645.183 100.724 645.182 100.724C645.182 100.724 645.181 100.724 645.181 100.724C645.18 100.724 645.18 100.724 645.179 100.724C645.179 100.724 645.178 100.724 645.177 100.724C645.177 100.724 645.176 100.723 645.176 100.723C645.175 100.723 645.175 100.723 645.174 100.723C645.174 100.723 645.173 100.723 645.173 100.723C645.172 100.723 645.172 100.723 645.171 100.723C645.17 100.723 645.17 100.723 645.169 100.723C645.169 100.723 645.168 100.723 645.168 100.723C645.167 100.723 645.167 100.723 645.166 100.723C645.166 100.723 645.165 100.723 645.165 100.722C645.164 100.722 645.163 100.722 645.163 100.722C645.162 100.722 645.162 100.722 645.161 100.722C645.161 100.722 645.16 100.722 645.16 100.722C645.159 100.722 645.159 100.722 645.158 100.722C645.157 100.722 645.157 100.722 645.156 100.722C645.156 100.722 645.155 100.722 645.155 100.722C645.154 100.722 645.154 100.722 645.153 100.721C645.153 100.721 645.152 100.721 645.152 100.721C645.151 100.721 645.15 100.721 645.15 100.721C645.149 100.721 645.149 100.721 645.148 100.721C645.148 100.721 645.147 100.721 645.147 100.721C645.146 100.721 645.146 100.721 645.145 100.721C645.145 100.721 645.144 100.721 645.143 100.721C645.143 100.721 645.142 100.721 645.142 100.72C645.141 100.72 645.141 100.72 645.14 100.72C645.14 100.72 645.139 100.72 645.139 100.72C645.138 100.72 645.137 100.72 645.137 100.72C645.136 100.72 645.136 100.72 645.135 100.72C645.135 100.72 645.134 100.72 645.134 100.72C645.133 100.72 645.133 100.72 645.132 100.72C645.132 100.72 645.131 100.72 645.13 100.719C645.13 100.719 645.129 100.719 645.129 100.719C645.128 100.719 645.128 100.719 645.127 100.719C645.127 100.719 645.126 100.719 645.126 100.719C645.125 100.719 645.124 100.719 645.124 100.719C645.123 100.719 645.123 100.719 645.122 100.719C645.122 100.719 645.121 100.719 645.121 100.719C645.12 100.719 645.12 100.719 645.119 100.718C645.118 100.718 645.118 100.718 645.117 100.718C645.117 100.718 645.116 100.718 645.116 100.718C645.115 100.718 645.115 100.718 645.114 100.718C645.114 100.718 645.113 100.718 645.112 100.718C645.112 100.718 645.111 100.718 645.111 100.718C645.11 100.718 645.11 100.718 645.109 100.718C645.109 100.718 645.108 100.718 645.108 100.717C645.107 100.717 645.107 100.717 645.106 100.717L644.234 110.679C644.235 110.679 644.235 110.679 644.236 110.679C644.237 110.679 644.237 110.68 644.238 110.68C644.238 110.68 644.239 110.68 644.239 110.68C644.24 110.68 644.24 110.68 644.241 110.68C644.241 110.68 644.242 110.68 644.243 110.68C644.243 110.68 644.244 110.68 644.244 110.68C644.245 110.68 644.245 110.68 644.246 110.68C644.246 110.68 644.247 110.68 644.247 110.68C644.248 110.68 644.249 110.681 644.249 110.681C644.25 110.681 644.25 110.681 644.251 110.681C644.251 110.681 644.252 110.681 644.252 110.681C644.253 110.681 644.253 110.681 644.254 110.681C644.255 110.681 644.255 110.681 644.256 110.681C644.256 110.681 644.257 110.681 644.257 110.681C644.258 110.681 644.258 110.681 644.259 110.681C644.259 110.681 644.26 110.682 644.261 110.682C644.261 110.682 644.262 110.682 644.262 110.682C644.263 110.682 644.263 110.682 644.264 110.682C644.264 110.682 644.265 110.682 644.265 110.682C644.266 110.682 644.266 110.682 644.267 110.682C644.268 110.682 644.268 110.682 644.269 110.682C644.269 110.682 644.27 110.682 644.27 110.682C644.271 110.682 644.271 110.683 644.272 110.683C644.272 110.683 644.273 110.683 644.274 110.683C644.274 110.683 644.275 110.683 644.275 110.683C644.276 110.683 644.276 110.683 644.277 110.683C644.277 110.683 644.278 110.683 644.278 110.683C644.279 110.683 644.279 110.683 644.28 110.683C644.281 110.683 644.281 110.683 644.282 110.683C644.282 110.683 644.283 110.684 644.283 110.684C644.284 110.684 644.284 110.684 644.285 110.684C644.285 110.684 644.286 110.684 644.286 110.684C644.287 110.684 644.288 110.684 644.288 110.684C644.289 110.684 644.289 110.684 644.29 110.684C644.29 110.684 644.291 110.684 644.291 110.684C644.292 110.684 644.292 110.684 644.293 110.684C644.293 110.684 644.294 110.685 644.295 110.685C644.295 110.685 644.296 110.685 644.296 110.685C644.297 110.685 644.297 110.685 644.298 110.685C644.298 110.685 644.299 110.685 644.299 110.685C644.3 110.685 644.3 110.685 644.301 110.685C644.302 110.685 644.302 110.685 644.303 110.685C644.303 110.685 644.304 110.685 644.304 110.685C644.305 110.685 644.305 110.685 644.306 110.686C644.306 110.686 644.307 110.686 644.307 110.686C644.308 110.686 644.309 110.686 644.309 110.686C644.31 110.686 644.31 110.686 644.311 110.686C644.311 110.686 644.312 110.686 644.312 110.686C644.313 110.686 644.313 110.686 644.314 110.686C644.314 110.686 644.315 110.686 644.316 110.686C644.316 110.686 644.317 110.686 644.317 110.687C644.318 110.687 644.318 110.687 644.319 110.687C644.319 110.687 644.32 110.687 644.32 110.687C644.321 110.687 644.321 110.687 644.322 110.687C644.323 110.687 644.323 110.687 644.324 110.687C644.324 110.687 644.325 110.687 644.325 110.687C644.326 110.687 644.326 110.687 644.327 110.687C644.327 110.687 644.328 110.687 644.328 110.688C644.329 110.688 644.33 110.688 644.33 110.688C644.331 110.688 644.331 110.688 644.332 110.688C644.332 110.688 644.333 110.688 644.333 110.688C644.334 110.688 644.334 110.688 644.335 110.688C644.335 110.688 644.336 110.688 644.336 110.688C644.337 110.688 644.338 110.688 644.338 110.688C644.339 110.688 644.339 110.688 644.34 110.688C644.34 110.689 644.341 110.689 644.341 110.689C644.342 110.689 644.342 110.689 644.343 110.689C644.343 110.689 644.344 110.689 644.344 110.689C644.345 110.689 644.346 110.689 644.346 110.689C644.347 110.689 644.347 110.689 644.348 110.689C644.348 110.689 644.349 110.689 644.349 110.689C644.35 110.689 644.35 110.689 644.351 110.689C644.351 110.69 644.352 110.69 644.353 110.69C644.353 110.69 644.354 110.69 644.354 110.69C644.355 110.69 644.355 110.69 644.356 110.69C644.356 110.69 644.357 110.69 644.357 110.69C644.358 110.69 644.358 110.69 644.359 110.69C644.359 110.69 644.36 110.69 644.361 110.69C644.361 110.69 644.362 110.69 644.362 110.69C644.363 110.691 644.363 110.691 644.364 110.691C644.364 110.691 644.365 110.691 644.365 110.691C644.366 110.691 644.366 110.691 644.367 110.691C644.367 110.691 644.368 110.691 644.368 110.691C644.369 110.691 644.37 110.691 644.37 110.691C644.371 110.691 644.371 110.691 644.372 110.691C644.372 110.691 644.373 110.691 644.373 110.691C644.374 110.691 644.374 110.692 644.375 110.692C644.375 110.692 644.376 110.692 644.376 110.692C644.377 110.692 644.378 110.692 644.378 110.692C644.379 110.692 644.379 110.692 644.38 110.692C644.38 110.692 644.381 110.692 644.381 110.692C644.382 110.692 644.382 110.692 644.383 110.692C644.383 110.692 644.384 110.692 644.384 110.692C644.385 110.692 644.385 110.693 644.386 110.693C644.387 110.693 644.387 110.693 644.388 110.693C644.388 110.693 644.389 110.693 644.389 110.693C644.39 110.693 644.39 110.693 644.391 110.693C644.391 110.693 644.392 110.693 644.392 110.693C644.393 110.693 644.393 110.693 644.394 110.693C644.395 110.693 644.395 110.693 644.396 110.693C644.396 110.693 644.397 110.693 644.397 110.694C644.398 110.694 644.398 110.694 644.399 110.694C644.399 110.694 644.4 110.694 644.4 110.694C644.401 110.694 644.401 110.694 644.402 110.694C644.402 110.694 644.403 110.694 644.404 110.694C644.404 110.694 644.405 110.694 644.405 110.694C644.406 110.694 644.406 110.694 644.407 110.694C644.407 110.694 644.408 110.694 644.408 110.694C644.409 110.695 644.409 110.695 644.41 110.695C644.41 110.695 644.411 110.695 644.411 110.695C644.412 110.695 644.412 110.695 644.413 110.695C644.414 110.695 644.414 110.695 644.415 110.695C644.415 110.695 644.416 110.695 644.416 110.695C644.417 110.695 644.417 110.695 644.418 110.695C644.418 110.695 644.419 110.695 644.419 110.695C644.42 110.696 644.42 110.696 644.421 110.696C644.421 110.696 644.422 110.696 644.423 110.696C644.423 110.696 644.424 110.696 644.424 110.696C644.425 110.696 644.425 110.696 644.426 110.696C644.426 110.696 644.427 110.696 644.427 110.696C644.428 110.696 644.428 110.696 644.429 110.696C644.429 110.696 644.43 110.696 644.43 110.696C644.431 110.696 644.431 110.697 644.432 110.697C644.433 110.697 644.433 110.697 644.434 110.697C644.434 110.697 644.435 110.697 644.435 110.697C644.436 110.697 644.436 110.697 644.437 110.697C644.437 110.697 644.438 110.697 644.438 110.697C644.439 110.697 644.439 110.697 644.44 110.697C644.44 110.697 644.441 110.697 644.441 110.697C644.442 110.697 644.442 110.697 644.443 110.698C644.444 110.698 644.444 110.698 644.445 110.698C644.445 110.698 644.446 110.698 644.446 110.698C644.447 110.698 644.447 110.698 644.448 110.698C644.448 110.698 644.449 110.698 644.449 110.698C644.45 110.698 644.45 110.698 644.451 110.698C644.451 110.698 644.452 110.698 644.452 110.698C644.453 110.698 644.454 110.698 644.454 110.699C644.455 110.699 644.455 110.699 644.456 110.699C644.456 110.699 644.457 110.699 644.457 110.699C644.458 110.699 644.458 110.699 644.459 110.699C644.459 110.699 644.46 110.699 644.46 110.699C644.461 110.699 644.461 110.699 644.462 110.699C644.462 110.699 644.463 110.699 644.463 110.699C644.464 110.699 644.465 110.699 644.465 110.699C644.466 110.7 644.466 110.7 644.467 110.7C644.467 110.7 644.468 110.7 644.468 110.7C644.469 110.7 644.469 110.7 644.47 110.7C644.47 110.7 644.471 110.7 644.471 110.7C644.472 110.7 644.472 110.7 644.473 110.7C644.473 110.7 644.474 110.7 644.474 110.7C644.475 110.7 644.475 110.7 644.476 110.7C644.477 110.7 644.477 110.701 644.478 110.701C644.478 110.701 644.479 110.701 644.479 110.701C644.48 110.701 644.48 110.701 644.481 110.701C644.481 110.701 644.482 110.701 644.482 110.701C644.483 110.701 644.483 110.701 644.484 110.701C644.484 110.701 644.485 110.701 644.485 110.701C644.486 110.701 644.486 110.701 644.487 110.701C644.487 110.701 644.488 110.701 644.489 110.702C644.489 110.702 644.49 110.702 644.49 110.702C644.491 110.702 644.491 110.702 644.492 110.702C644.492 110.702 644.493 110.702 644.493 110.702C644.494 110.702 644.494 110.702 644.495 110.702C644.495 110.702 644.496 110.702 644.496 110.702C644.497 110.702 644.497 110.702 644.498 110.702C644.498 110.702 644.499 110.702 644.499 110.702C644.5 110.703 644.5 110.703 644.501 110.703C644.502 110.703 644.502 110.703 644.503 110.703C644.503 110.703 644.504 110.703 644.504 110.703C644.505 110.703 644.505 110.703 644.506 110.703C644.506 110.703 644.507 110.703 644.507 110.703C644.508 110.703 644.508 110.703 644.509 110.703C644.509 110.703 644.51 110.703 644.51 110.703C644.511 110.703 644.511 110.704 644.512 110.704C644.512 110.704 644.513 110.704 644.513 110.704C644.514 110.704 644.514 110.704 644.515 110.704C644.516 110.704 644.516 110.704 644.517 110.704C644.517 110.704 644.518 110.704 644.518 110.704C644.519 110.704 644.519 110.704 644.52 110.704C644.52 110.704 644.521 110.704 644.521 110.704C644.522 110.704 644.522 110.704 644.523 110.705C644.523 110.705 644.524 110.705 644.524 110.705C644.525 110.705 644.525 110.705 644.526 110.705C644.526 110.705 644.527 110.705 644.527 110.705C644.528 110.705 644.528 110.705 644.529 110.705C644.529 110.705 644.53 110.705 644.531 110.705C644.531 110.705 644.532 110.705 644.532 110.705C644.533 110.705 644.533 110.705 644.534 110.705C644.534 110.706 644.535 110.706 644.535 110.706C644.536 110.706 644.536 110.706 644.537 110.706C644.537 110.706 644.538 110.706 644.538 110.706C644.539 110.706 644.539 110.706 644.54 110.706C644.54 110.706 644.541 110.706 644.541 110.706C644.542 110.706 644.542 110.706 644.543 110.706C644.543 110.706 644.544 110.706 644.544 110.706C644.545 110.706 644.545 110.707 644.546 110.707C644.547 110.707 644.547 110.707 644.548 110.707C644.548 110.707 644.549 110.707 644.549 110.707C644.55 110.707 644.55 110.707 644.551 110.707C644.551 110.707 644.552 110.707 644.552 110.707C644.553 110.707 644.553 110.707 644.554 110.707C644.554 110.707 644.555 110.707 644.555 110.707C644.556 110.707 644.556 110.707 644.557 110.707C644.557 110.708 644.558 110.708 644.558 110.708C644.559 110.708 644.559 110.708 644.56 110.708C644.56 110.708 644.561 110.708 644.561 110.708C644.562 110.708 644.562 110.708 644.563 110.708C644.563 110.708 644.564 110.708 644.564 110.708C644.565 110.708 644.566 110.708 644.566 110.708C644.567 110.708 644.567 110.708 644.568 110.708C644.568 110.708 644.569 110.709 644.569 110.709C644.57 110.709 644.57 110.709 644.571 110.709C644.571 110.709 644.572 110.709 644.572 110.709C644.573 110.709 644.573 110.709 644.574 110.709C644.574 110.709 644.575 110.709 644.575 110.709C644.576 110.709 644.576 110.709 644.577 110.709C644.577 110.709 644.578 110.709 644.578 110.709C644.579 110.709 644.579 110.709 644.58 110.71C644.58 110.71 644.581 110.71 644.581 110.71C644.582 110.71 644.582 110.71 644.583 110.71C644.583 110.71 644.584 110.71 644.584 110.71C644.585 110.71 644.585 110.71 644.586 110.71C644.587 110.71 644.587 110.71 644.588 110.71C644.588 110.71 644.589 110.71 644.589 110.71C644.59 110.71 644.59 110.71 644.591 110.71C644.591 110.71 644.592 110.711 644.592 110.711C644.593 110.711 644.593 110.711 644.594 110.711C644.594 110.711 644.595 110.711 644.595 110.711C644.596 110.711 644.596 110.711 644.597 110.711C644.597 110.711 644.598 110.711 644.598 110.711C644.599 110.711 644.599 110.711 644.6 110.711C644.6 110.711 644.601 110.711 644.601 110.711C644.602 110.711 644.602 110.711 644.603 110.712C644.603 110.712 644.604 110.712 644.604 110.712C644.605 110.712 644.605 110.712 644.606 110.712C644.606 110.712 644.607 110.712 644.607 110.712C644.608 110.712 644.608 110.712 644.609 110.712C644.609 110.712 644.61 110.712 644.61 110.712C644.611 110.712 644.611 110.712 644.612 110.712C644.613 110.712 644.613 110.712 644.614 110.712C644.614 110.712 644.615 110.713 644.615 110.713C644.616 110.713 644.616 110.713 644.617 110.713C644.617 110.713 644.618 110.713 644.618 110.713C644.619 110.713 644.619 110.713 644.62 110.713C644.62 110.713 644.621 110.713 644.621 110.713C644.622 110.713 644.622 110.713 644.623 110.713C644.623 110.713 644.624 110.713 644.624 110.713C644.625 110.713 644.625 110.713 644.626 110.714C644.626 110.714 644.627 110.714 644.627 110.714C644.628 110.714 644.628 110.714 644.629 110.714C644.629 110.714 644.63 110.714 644.63 110.714C644.631 110.714 644.631 110.714 644.632 110.714C644.632 110.714 644.633 110.714 644.633 110.714C644.634 110.714 644.634 110.714 644.635 110.714C644.635 110.714 644.636 110.714 644.636 110.714C644.637 110.714 644.637 110.715 644.638 110.715C644.638 110.715 644.639 110.715 644.639 110.715C644.64 110.715 644.64 110.715 644.641 110.715C644.641 110.715 644.642 110.715 644.642 110.715C644.643 110.715 644.643 110.715 644.644 110.715C644.644 110.715 644.645 110.715 644.645 110.715C644.646 110.715 644.646 110.715 644.647 110.715C644.647 110.715 644.648 110.715 644.648 110.716C644.649 110.716 644.649 110.716 644.65 110.716C644.65 110.716 644.651 110.716 644.652 110.716C644.652 110.716 644.653 110.716 644.653 110.716C644.654 110.716 644.654 110.716 644.655 110.716C644.655 110.716 644.656 110.716 644.656 110.716C644.657 110.716 644.657 110.716 644.658 110.716C644.658 110.716 644.659 110.716 644.659 110.716C644.66 110.716 644.66 110.717 644.661 110.717C644.661 110.717 644.662 110.717 644.662 110.717C644.663 110.717 644.663 110.717 644.664 110.717C644.664 110.717 644.665 110.717 644.665 110.717C644.666 110.717 644.666 110.717 644.667 110.717C644.667 110.717 644.668 110.717 644.668 110.717C644.669 110.717 644.669 110.717 644.67 110.717C644.67 110.717 644.671 110.717 644.671 110.717C644.672 110.718 644.672 110.718 644.673 110.718C644.673 110.718 644.674 110.718 644.674 110.718C644.675 110.718 644.675 110.718 644.676 110.718C644.676 110.718 644.677 110.718 644.677 110.718C644.678 110.718 644.678 110.718 644.679 110.718C644.679 110.718 644.68 110.718 644.68 110.718C644.681 110.718 644.681 110.718 644.682 110.718C644.682 110.718 644.683 110.719 644.683 110.719C644.684 110.719 644.684 110.719 644.685 110.719C644.685 110.719 644.686 110.719 644.686 110.719C644.687 110.719 644.687 110.719 644.688 110.719C644.688 110.719 644.689 110.719 644.689 110.719C644.69 110.719 644.69 110.719 644.691 110.719C644.691 110.719 644.692 110.719 644.692 110.719C644.693 110.719 644.693 110.719 644.694 110.719C644.694 110.72 644.695 110.72 644.695 110.72C644.696 110.72 644.696 110.72 644.697 110.72C644.697 110.72 644.698 110.72 644.698 110.72C644.699 110.72 644.699 110.72 644.7 110.72C644.7 110.72 644.701 110.72 644.701 110.72C644.702 110.72 644.702 110.72 644.703 110.72C644.703 110.72 644.704 110.72 644.704 110.72C644.705 110.72 644.705 110.72 644.706 110.721C644.706 110.721 644.707 110.721 644.707 110.721C644.708 110.721 644.708 110.721 644.709 110.721C644.709 110.721 644.71 110.721 644.71 110.721C644.711 110.721 644.711 110.721 644.712 110.721C644.712 110.721 644.713 110.721 644.713 110.721C644.714 110.721 644.714 110.721 644.715 110.721C644.715 110.721 644.716 110.721 644.716 110.721C644.717 110.721 644.717 110.722 644.718 110.722C644.718 110.722 644.719 110.722 644.719 110.722C644.72 110.722 644.72 110.722 644.721 110.722C644.721 110.722 644.722 110.722 644.722 110.722C644.723 110.722 644.723 110.722 644.724 110.722C644.724 110.722 644.725 110.722 644.725 110.722C644.726 110.722 644.726 110.722 644.727 110.722C644.727 110.722 644.728 110.722 644.728 110.722C644.729 110.723 644.729 110.723 644.73 110.723C644.73 110.723 644.731 110.723 644.731 110.723C644.732 110.723 644.732 110.723 644.733 110.723C644.733 110.723 644.734 110.723 644.734 110.723C644.735 110.723 644.735 110.723 644.736 110.723C644.736 110.723 644.737 110.723 644.737 110.723C644.738 110.723 644.738 110.723 644.739 110.723C644.739 110.723 644.74 110.723 644.74 110.724C644.741 110.724 644.741 110.724 644.741 110.724C644.742 110.724 644.742 110.724 644.743 110.724C644.743 110.724 644.744 110.724 644.744 110.724C644.745 110.724 644.745 110.724 644.746 110.724C644.746 110.724 644.747 110.724 644.747 110.724C644.748 110.724 644.748 110.724 644.749 110.724C644.749 110.724 644.75 110.724 644.75 110.724C644.751 110.724 644.751 110.725 644.752 110.725C644.752 110.725 644.753 110.725 644.753 110.725C644.754 110.725 644.754 110.725 644.755 110.725C644.755 110.725 644.756 110.725 644.756 110.725C644.757 110.725 644.757 110.725 644.758 110.725C644.758 110.725 644.759 110.725 644.759 110.725C644.76 110.725 644.76 110.725 644.761 110.725C644.761 110.725 644.762 110.725 644.762 110.725C644.763 110.726 644.763 110.726 644.764 110.726C644.764 110.726 644.765 110.726 644.765 110.726C644.766 110.726 644.766 110.726 644.767 110.726C644.767 110.726 644.768 110.726 644.768 110.726C644.769 110.726 644.769 110.726 644.77 110.726C644.77 110.726 644.771 110.726 644.771 110.726C644.772 110.726 644.772 110.726 644.773 110.726C644.773 110.726 644.774 110.726 644.774 110.727C644.775 110.727 644.775 110.727 644.776 110.727C644.776 110.727 644.777 110.727 644.777 110.727C644.778 110.727 644.778 110.727 644.779 110.727C644.779 110.727 644.779 110.727 644.78 110.727C644.78 110.727 644.781 110.727 644.781 110.727C644.782 110.727 644.782 110.727 644.783 110.727C644.783 110.727 644.784 110.727 644.784 110.727C644.785 110.727 644.785 110.727 644.786 110.728C644.786 110.728 644.787 110.728 644.787 110.728C644.788 110.728 644.788 110.728 644.789 110.728C644.789 110.728 644.79 110.728 644.79 110.728C644.791 110.728 644.791 110.728 644.792 110.728C644.792 110.728 644.793 110.728 644.793 110.728C644.794 110.728 644.794 110.728 644.795 110.728C644.795 110.728 644.796 110.728 644.796 110.728C644.797 110.728 644.797 110.729 644.798 110.729C644.798 110.729 644.799 110.729 644.799 110.729C644.8 110.729 644.8 110.729 644.801 110.729C644.801 110.729 644.802 110.729 644.802 110.729C644.803 110.729 644.803 110.729 644.804 110.729C644.804 110.729 644.804 110.729 644.805 110.729C644.805 110.729 644.806 110.729 644.806 110.729C644.807 110.729 644.807 110.729 644.808 110.729C644.808 110.73 644.809 110.73 644.809 110.73C644.81 110.73 644.81 110.73 644.811 110.73C644.811 110.73 644.812 110.73 644.812 110.73C644.813 110.73 644.813 110.73 644.814 110.73C644.814 110.73 644.815 110.73 644.815 110.73C644.816 110.73 644.816 110.73 644.817 110.73C644.817 110.73 644.818 110.73 644.818 110.73C644.819 110.73 644.819 110.73 644.82 110.73C644.82 110.731 644.821 110.731 644.821 110.731C644.822 110.731 644.822 110.731 644.823 110.731C644.823 110.731 644.824 110.731 644.824 110.731C644.824 110.731 644.825 110.731 644.825 110.731C644.826 110.731 644.826 110.731 644.827 110.731C644.827 110.731 644.828 110.731 644.828 110.731C644.829 110.731 644.829 110.731 644.83 110.731C644.83 110.731 644.831 110.731 644.831 110.732C644.832 110.732 644.832 110.732 644.833 110.732C644.833 110.732 644.834 110.732 644.834 110.732C644.835 110.732 644.835 110.732 644.836 110.732C644.836 110.732 644.837 110.732 644.837 110.732C644.838 110.732 644.838 110.732 644.839 110.732C644.839 110.732 644.84 110.732 644.84 110.732C644.841 110.732 644.841 110.732 644.842 110.732C644.842 110.732 644.842 110.732 644.843 110.733C644.843 110.733 644.844 110.733 644.844 110.733C644.845 110.733 644.845 110.733 644.846 110.733C644.846 110.733 644.847 110.733 644.847 110.733C644.848 110.733 644.848 110.733 644.849 110.733C644.849 110.733 644.85 110.733 644.85 110.733C644.851 110.733 644.851 110.733 644.852 110.733C644.852 110.733 644.853 110.733 644.853 110.733C644.854 110.733 644.854 110.734 644.855 110.734C644.855 110.734 644.856 110.734 644.856 110.734C644.857 110.734 644.857 110.734 644.857 110.734C644.858 110.734 644.858 110.734 644.859 110.734C644.859 110.734 644.86 110.734 644.86 110.734C644.861 110.734 644.861 110.734 644.862 110.734C644.862 110.734 644.863 110.734 644.863 110.734C644.864 110.734 644.864 110.734 644.865 110.734C644.865 110.734 644.866 110.735 644.866 110.735C644.867 110.735 644.867 110.735 644.868 110.735C644.868 110.735 644.869 110.735 644.869 110.735C644.87 110.735 644.87 110.735 644.871 110.735C644.871 110.735 644.871 110.735 644.872 110.735C644.872 110.735 644.873 110.735 644.873 110.735C644.874 110.735 644.874 110.735 644.875 110.735C644.875 110.735 644.876 110.735 644.876 110.735C644.877 110.735 644.877 110.736 644.878 110.736C644.878 110.736 644.879 110.736 644.879 110.736C644.88 110.736 644.88 110.736 644.881 110.736C644.881 110.736 644.882 110.736 644.882 110.736C644.883 110.736 644.883 110.736 644.884 110.736C644.884 110.736 644.884 110.736 644.885 110.736C644.885 110.736 644.886 110.736 644.886 110.736C644.887 110.736 644.887 110.736 644.888 110.736C644.888 110.736 644.889 110.737 644.889 110.737C644.89 110.737 644.89 110.737 644.891 110.737C644.891 110.737 644.892 110.737 644.892 110.737C644.893 110.737 644.893 110.737 644.894 110.737C644.894 110.737 644.895 110.737 644.895 110.737C644.896 110.737 644.896 110.737 644.896 110.737C644.897 110.737 644.897 110.737 644.898 110.737C644.898 110.737 644.899 110.737 644.899 110.737C644.9 110.738 644.9 110.738 644.901 110.738C644.901 110.738 644.902 110.738 644.902 110.738C644.903 110.738 644.903 110.738 644.904 110.738C644.904 110.738 644.905 110.738 644.905 110.738C644.906 110.738 644.906 110.738 644.907 110.738C644.907 110.738 644.907 110.738 644.908 110.738C644.908 110.738 644.909 110.738 644.909 110.738C644.91 110.738 644.91 110.738 644.911 110.738C644.911 110.739 644.912 110.739 644.912 110.739C644.913 110.739 644.913 110.739 644.914 110.739C644.914 110.739 644.915 110.739 644.915 110.739C644.916 110.739 644.916 110.739 644.917 110.739C644.917 110.739 644.918 110.739 644.918 110.739C644.918 110.739 644.919 110.739 644.919 110.739C644.92 110.739 644.92 110.739 644.921 110.739C644.921 110.739 644.922 110.739 644.922 110.739C644.923 110.74 644.923 110.74 644.924 110.74C644.924 110.74 644.925 110.74 644.925 110.74C644.926 110.74 644.926 110.74 644.927 110.74C644.927 110.74 644.928 110.74 644.928 110.74C644.928 110.74 644.929 110.74 644.929 110.74C644.93 110.74 644.93 110.74 644.931 110.74C644.931 110.74 644.932 110.74 644.932 110.74C644.933 110.74 644.933 110.74 644.934 110.74C644.934 110.741 644.935 110.741 644.935 110.741C644.936 110.741 644.936 110.741 644.937 110.741C644.937 110.741 644.938 110.741 644.938 110.741C644.938 110.741 644.939 110.741 644.939 110.741C644.94 110.741 644.94 110.741 644.941 110.741C644.941 110.741 644.942 110.741 644.942 110.741C644.943 110.741 644.943 110.741 644.944 110.741C644.944 110.741 644.945 110.741 644.945 110.741C644.946 110.742 644.946 110.742 644.947 110.742C644.947 110.742 644.947 110.742 644.948 110.742C644.948 110.742 644.949 110.742 644.949 110.742C644.95 110.742 644.95 110.742 644.951 110.742C644.951 110.742 644.952 110.742 644.952 110.742C644.953 110.742 644.953 110.742 644.954 110.742C644.954 110.742 644.955 110.742 644.955 110.742C644.956 110.742 644.956 110.742 644.956 110.742C644.957 110.742 644.957 110.743 644.958 110.743C644.958 110.743 644.959 110.743 644.959 110.743C644.96 110.743 644.96 110.743 644.961 110.743C644.961 110.743 644.962 110.743 644.962 110.743C644.963 110.743 644.963 110.743 644.964 110.743C644.964 110.743 644.964 110.743 644.965 110.743C644.965 110.743 644.966 110.743 644.966 110.743C644.967 110.743 644.967 110.743 644.968 110.743C644.968 110.743 644.969 110.744 644.969 110.744C644.97 110.744 644.97 110.744 644.971 110.744C644.971 110.744 644.972 110.744 644.972 110.744C644.973 110.744 644.973 110.744 644.973 110.744C644.974 110.744 644.974 110.744 644.975 110.744C644.975 110.744 644.976 110.744 644.976 110.744C644.977 110.744 644.977 110.744 644.978 110.744C644.978 110.744 644.979 110.744 644.979 110.744C644.98 110.744 644.98 110.745 644.981 110.745C644.981 110.745 644.981 110.745 644.982 110.745C644.982 110.745 644.983 110.745 644.983 110.745C644.984 110.745 644.984 110.745 644.985 110.745C644.985 110.745 644.986 110.745 644.986 110.745C644.987 110.745 644.987 110.745 644.988 110.745C644.988 110.745 644.988 110.745 644.989 110.745C644.989 110.745 644.99 110.745 644.99 110.745C644.991 110.745 644.991 110.746 644.992 110.746C644.992 110.746 644.993 110.746 644.993 110.746C644.994 110.746 644.994 110.746 644.995 110.746C644.995 110.746 644.996 110.746 644.996 110.746C644.996 110.746 644.997 110.746 644.997 110.746C644.998 110.746 644.998 110.746 644.999 110.746C644.999 110.746 645 110.746 645 110.746C645.001 110.746 645.001 110.746 645.002 110.746C645.002 110.746 645.003 110.746 645.003 110.747C645.003 110.747 645.004 110.747 645.004 110.747C645.005 110.747 645.005 110.747 645.006 110.747C645.006 110.747 645.007 110.747 645.007 110.747C645.008 110.747 645.008 110.747 645.009 110.747C645.009 110.747 645.01 110.747 645.01 110.747C645.011 110.747 645.011 110.747 645.011 110.747L645.883 100.785ZM645.106 100.717L637.605 100.061L636.733 110.023L644.234 110.679L645.106 100.717ZM642.15 105.478L642.359 103.087L632.397 102.215L632.188 104.606L642.15 105.478ZM636.942 107.632L648.897 108.678L649.768 98.7161L637.814 97.6702L636.942 107.632ZM644.351 103.261L644.09 106.25L654.052 107.121L654.313 104.133L644.351 103.261ZM645.951 102.779L640.479 107.148L646.719 114.962L652.191 110.593L645.951 102.779ZM640.385 107.225C640.361 107.245 640.352 107.251 640.358 107.247L646.066 115.458C646.328 115.276 646.577 115.084 646.813 114.886L640.385 107.225ZM640.358 107.247C640.251 107.321 640.162 107.382 640.088 107.431L645.631 115.755C645.77 115.662 645.916 115.562 646.066 115.458L640.358 107.247ZM639.646 107.763C639.664 107.747 639.704 107.715 639.766 107.674L645.308 115.997C645.583 115.814 645.838 115.621 646.073 115.423L639.646 107.763Z" fill="#F2F2F2" mask="url(#path-19-outside-1_118_1241)"/>
<circle cx="518.31" cy="145.682" r="17" transform="rotate(5 518.31 145.682)" fill="#D04646"/>
<path d="M519 205L519 147" stroke="#D04646" stroke-width="2" stroke-linecap="round"/>
</svg>
