<svg width="901" height="381" viewBox="0 0 901 381" fill="none" xmlns="http://www.w3.org/2000/svg">
<rect opacity="0.5" x="2" y="2" width="897" height="377" rx="8" fill="#E4E4E4" stroke="#474747" stroke-width="4" stroke-dasharray="8 8"/>
<path opacity="0.5" d="M19.6592 40L25.665 19.1992H29.9131L35.9189 40H32.8428L31.4805 34.9316H24.0977L22.7354 40H19.6592ZM24.8447 32.1484H30.7334L27.9209 21.7188H27.6572L24.8447 32.1484ZM48.1797 40.293C45.8262 40.293 44.1221 39.8047 43.0674 38.8281C42.0225 37.8516 41.5 36.2891 41.5 34.1406V27.1973H37.6035V24.4727H41.5V19.7852H44.6055V24.4727H51.666V27.1973H44.6055V33.9941C44.6055 35.2246 44.9033 36.1182 45.499 36.6748C46.1045 37.2314 47.0957 37.5098 48.4727 37.5098C48.9609 37.5098 49.4785 37.4854 50.0254 37.4365C50.5723 37.3779 51.1973 37.3047 51.9004 37.2168L52.252 39.9414C51.5684 40.0586 50.8994 40.1465 50.2451 40.2051C49.6006 40.2637 48.9121 40.293 48.1797 40.293ZM66.9883 40V28.1348C66.9883 27.0605 66.5879 26.5234 65.7871 26.5234C64.7715 26.5234 64.2637 27.2266 64.2637 28.6328V40H61.627V27.8418C61.627 26.9629 61.2168 26.5234 60.3965 26.5234C59.4004 26.5234 58.9023 27.2266 58.9023 28.6328V40H55.7969V24.4727H58.5508L58.7559 26.4062H58.9902C59.1074 24.9219 59.9961 24.1797 61.6562 24.1797C62.3105 24.1797 62.8525 24.3652 63.2822 24.7363C63.7217 25.1074 64.0146 25.6641 64.1611 26.4062H64.4102C64.459 25.8008 64.6982 25.2783 65.1279 24.8389C65.5674 24.3994 66.1973 24.1797 67.0176 24.1797C68.0918 24.1797 68.873 24.4678 69.3613 25.0439C69.8496 25.6201 70.0938 26.5527 70.0938 27.8418V40H66.9883ZM80.5234 40.293C78.375 40.293 76.7051 39.5898 75.5137 38.1836C74.3223 36.7773 73.7266 34.7949 73.7266 32.2363C73.7266 29.668 74.3223 27.6855 75.5137 26.2891C76.7051 24.8828 78.375 24.1797 80.5234 24.1797C82.6816 24.1797 84.3516 24.8828 85.5332 26.2891C86.7246 27.6855 87.3203 29.668 87.3203 32.2363C87.3203 34.7949 86.7246 36.7773 85.5332 38.1836C84.3516 39.5898 82.6816 40.293 80.5234 40.293ZM80.5234 37.5098C81.666 37.5098 82.5449 37.0508 83.1602 36.1328C83.7852 35.2148 84.0977 33.916 84.0977 32.2363C84.0977 30.5469 83.7852 29.248 83.1602 28.3398C82.5449 27.4219 81.666 26.9629 80.5234 26.9629C79.3809 26.9629 78.4971 27.4219 77.8721 28.3398C77.2568 29.248 76.9492 30.5469 76.9492 32.2363C76.9492 33.916 77.2568 35.2148 77.8721 36.1328C78.4971 37.0508 79.3809 37.5098 80.5234 37.5098ZM96.9004 40.293C95.7285 40.293 94.7227 40.2588 93.8828 40.1904C93.0527 40.1221 92.291 40.0098 91.5977 39.8535L91.9492 37.041C92.9746 37.1973 93.8779 37.3145 94.6592 37.3926C95.4502 37.4707 96.1973 37.5098 96.9004 37.5098C98.4727 37.5098 99.6104 37.3584 100.313 37.0557C101.026 36.7432 101.383 36.25 101.383 35.5762C101.383 35.1074 101.256 34.7607 101.002 34.5361C100.758 34.3018 100.377 34.1211 99.8594 33.9941L96.2852 33.0859C94.752 32.6953 93.624 32.2119 92.9014 31.6357C92.1885 31.0596 91.832 30.1855 91.832 29.0137C91.832 27.3145 92.4814 26.084 93.7803 25.3223C95.0889 24.5605 97.1934 24.1797 100.094 24.1797C101.52 24.1797 102.887 24.2773 104.195 24.4727L103.873 27.168C103.082 27.0898 102.384 27.0361 101.778 27.0068C101.173 26.9775 100.582 26.9629 100.006 26.9629C98.2676 26.9629 97.0078 27.1143 96.2266 27.417C95.4453 27.71 95.0547 28.1934 95.0547 28.8672C95.0547 29.3164 95.2158 29.6436 95.5381 29.8486C95.8604 30.0439 96.3535 30.2246 97.0176 30.3906L99.8887 31.0938C101.52 31.4844 102.711 32.0068 103.463 32.6611C104.225 33.3154 104.605 34.2676 104.605 35.5176C104.605 37.1875 103.995 38.4033 102.774 39.165C101.554 39.917 99.5957 40.293 96.9004 40.293ZM109.352 46.7383V24.4727H112.164L112.413 27.2852H112.604C112.74 26.3086 113.18 25.5469 113.922 25C114.674 24.4531 115.655 24.1797 116.866 24.1797C118.907 24.1797 120.45 24.873 121.495 26.2598C122.54 27.6465 123.062 29.6875 123.062 32.3828C123.062 34.9805 122.54 36.9482 121.495 38.2861C120.45 39.624 118.907 40.293 116.866 40.293C115.675 40.293 114.713 40.0195 113.98 39.4727C113.258 38.9258 112.848 38.1641 112.75 37.1875H112.457V46.7383H109.352ZM112.457 32.7637C112.457 36.0254 113.697 37.6562 116.178 37.6562C118.717 37.6562 119.986 35.8984 119.986 32.3828C119.986 28.6719 118.717 26.8164 116.178 26.8164C113.697 26.8164 112.457 28.4473 112.457 31.709V32.7637ZM136.48 40V29.8926C136.48 28.9062 136.236 28.1494 135.748 27.6221C135.26 27.085 134.576 26.8164 133.697 26.8164C131.256 26.8164 130.035 28.3008 130.035 31.2695V40H126.93V18.0273H130.035V27.2852H130.328C130.504 25.2148 131.871 24.1797 134.43 24.1797C136.07 24.1797 137.34 24.6777 138.238 25.6738C139.137 26.6699 139.586 28.0762 139.586 29.8926V40H136.48ZM152.184 40.293C149.537 40.293 147.491 39.5996 146.046 38.2129C144.61 36.8164 143.893 34.8145 143.893 32.207C143.893 29.668 144.503 27.6953 145.724 26.2891C146.944 24.8828 148.668 24.1797 150.895 24.1797C152.994 24.1797 154.615 24.8145 155.758 26.084C156.91 27.3535 157.486 29.1992 157.486 31.6211C157.486 32.334 157.457 32.998 157.398 33.6133H146.91C147.184 34.9121 147.799 35.8984 148.756 36.5723C149.713 37.2363 150.973 37.5684 152.535 37.5684C153.18 37.5684 153.814 37.5342 154.439 37.4658C155.064 37.3877 155.699 37.2852 156.344 37.1582L156.725 39.8828C155.807 40.0586 154.967 40.1709 154.205 40.2197C153.443 40.2686 152.77 40.293 152.184 40.293ZM146.793 31.2402H154.674C154.674 29.8438 154.342 28.7744 153.678 28.0322C153.014 27.2803 152.096 26.9043 150.924 26.9043C149.723 26.9043 148.766 27.2803 148.053 28.0322C147.34 28.7842 146.92 29.8535 146.793 31.2402ZM167.359 33.3203V37.2754H171.168V40H160.797V37.2754H164.254V27.1973H161.383V24.4727H166.773L167.301 28.457H167.652C167.828 25.6055 169.254 24.1797 171.93 24.1797C173.531 24.1797 174.693 24.6387 175.416 25.5566C176.139 26.4746 176.5 27.959 176.5 30.0098H173.424C173.424 28.877 173.253 28.0615 172.911 27.5635C172.579 27.0654 172.037 26.8164 171.285 26.8164C169.967 26.8164 168.98 27.3828 168.326 28.5156C167.682 29.6387 167.359 31.2402 167.359 33.3203ZM187.34 40.293C184.693 40.293 182.647 39.5996 181.202 38.2129C179.767 36.8164 179.049 34.8145 179.049 32.207C179.049 29.668 179.659 27.6953 180.88 26.2891C182.101 24.8828 183.824 24.1797 186.051 24.1797C188.15 24.1797 189.771 24.8145 190.914 26.084C192.066 27.3535 192.643 29.1992 192.643 31.6211C192.643 32.334 192.613 32.998 192.555 33.6133H182.066C182.34 34.9121 182.955 35.8984 183.912 36.5723C184.869 37.2363 186.129 37.5684 187.691 37.5684C188.336 37.5684 188.971 37.5342 189.596 37.4658C190.221 37.3877 190.855 37.2852 191.5 37.1582L191.881 39.8828C190.963 40.0586 190.123 40.1709 189.361 40.2197C188.6 40.2686 187.926 40.293 187.34 40.293ZM181.949 31.2402H189.83C189.83 29.8438 189.498 28.7744 188.834 28.0322C188.17 27.2803 187.252 26.9043 186.08 26.9043C184.879 26.9043 183.922 27.2803 183.209 28.0322C182.496 28.7842 182.076 29.8535 181.949 31.2402Z" fill="#474747"/>
<g opacity="0.15">
<mask id="mask0_118_1238" style="mask-type:alpha" maskUnits="userSpaceOnUse" x="2" y="28" width="879" height="342">
<rect x="2" y="28" width="879" height="342" fill="#D9D9D9"/>
</mask>
<g mask="url(#mask0_118_1238)">
<path d="M342.088 38.0075V36H340.085V38.0075H342.088Z" fill="black"/>
<path d="M296.172 38.0075V36H294.168V38.0075H296.172Z" fill="black"/>
<path d="M250.255 38.0075V36H248.252V38.0075H250.255Z" fill="black"/>
<path d="M204.339 38.0075V36H202.335V38.0075H204.339Z" fill="black"/>
<path d="M158.423 38.0075V36H156.419V38.0075H158.423Z" fill="black"/>
<path d="M112.506 38.0075V36H110.503V38.0075H112.506Z" fill="black"/>
<path d="M66.5897 38.0075V36H64.5861V38.0075H66.5897Z" fill="black"/>
<path d="M20.6733 38.0075V36H18.6697V38.0075H20.6733Z" fill="black"/>
<path d="M365.33 84.2969V81.7206H362.759V84.2969H365.33Z" fill="black"/>
<path d="M319.414 84.2969V81.7206H316.843V84.2969H319.414Z" fill="black"/>
<path d="M273.497 84.2969V81.7206H270.926V84.2969H273.497Z" fill="black"/>
<path d="M227.581 84.2969V81.7206H225.01V84.2969H227.581Z" fill="black"/>
<path d="M181.665 84.2969V81.7206H179.093V84.2969H181.665Z" fill="black"/>
<path d="M135.748 84.2969V81.7206H133.177V84.2969H135.748Z" fill="black"/>
<path d="M89.8318 84.2969V81.7206H87.2605V84.2969H89.8318Z" fill="black"/>
<path d="M43.9154 84.2969V81.7206H41.3441V84.2969H43.9154Z" fill="black"/>
<path d="M342.639 130.57V127.458H339.534V130.57H342.639Z" fill="black"/>
<path d="M296.723 130.57V127.458H293.617V130.57H296.723Z" fill="black"/>
<path d="M250.806 130.57V127.458H247.701V130.57H250.806Z" fill="black"/>
<path d="M204.89 130.57V127.458H201.784V130.57H204.89Z" fill="black"/>
<path d="M158.974 130.57V127.458H155.868V130.57H158.974Z" fill="black"/>
<path d="M113.057 130.57V127.458H109.952V130.57H113.057Z" fill="black"/>
<path d="M67.1407 130.57V127.458H64.0351V130.57H67.1407Z" fill="black"/>
<path d="M21.2243 130.57V127.458H18.1187V130.57H21.2243Z" fill="black"/>
<path d="M365.881 176.859V173.179H362.208V176.859H365.881Z" fill="black"/>
<path d="M319.965 176.859V173.179H316.292V176.859H319.965Z" fill="black"/>
<path d="M274.048 176.859V173.179H270.375V176.859H274.048Z" fill="black"/>
<path d="M228.132 176.859V173.179H224.459V176.859H228.132Z" fill="black"/>
<path d="M182.216 176.859V173.179H178.542V176.859H182.216Z" fill="black"/>
<path d="M136.299 176.859V173.179H132.626V176.859H136.299Z" fill="black"/>
<path d="M90.3828 176.859V173.179H86.7095V176.859H90.3828Z" fill="black"/>
<path d="M44.4664 176.859V173.179H40.7931V176.859H44.4664Z" fill="black"/>
<path d="M343.207 223.148V218.899H338.966V223.148H343.207Z" fill="black"/>
<path d="M297.291 223.148V218.899H293.05V223.148H297.291Z" fill="black"/>
<path d="M251.374 223.148V218.899H247.133V223.148H251.374Z" fill="black"/>
<path d="M205.458 223.148V218.899H201.217V223.148H205.458Z" fill="black"/>
<path d="M159.541 223.148V218.899H155.3V223.148H159.541Z" fill="black"/>
<path d="M113.625 223.148V218.899H109.384V223.148H113.625Z" fill="black"/>
<path d="M67.7084 223.148V218.899H63.4674V223.148H67.7084Z" fill="black"/>
<path d="M21.792 223.148V218.899H17.551V223.148H21.792Z" fill="black"/>
<path d="M366.432 269.421V264.637H361.657V269.421H366.432Z" fill="black"/>
<path d="M320.516 269.421V264.637H315.741V269.421H320.516Z" fill="black"/>
<path d="M274.599 269.421V264.637H269.824V269.421H274.599Z" fill="black"/>
<path d="M228.683 269.421V264.637H223.908V269.421H228.683Z" fill="black"/>
<path d="M182.767 269.421V264.637H177.991V269.421H182.767Z" fill="black"/>
<path d="M136.85 269.421V264.637H132.075V269.421H136.85Z" fill="black"/>
<path d="M90.9338 269.421V264.637H86.1585V269.421H90.9338Z" fill="black"/>
<path d="M45.0174 269.421V264.637H40.2421V269.421H45.0174Z" fill="black"/>
<path d="M343.758 315.711V310.357H338.415V315.711H343.758Z" fill="black"/>
<path d="M297.842 315.711V310.357H292.499V315.711H297.842Z" fill="black"/>
<path d="M251.925 315.711V310.357H246.582V315.711H251.925Z" fill="black"/>
<path d="M206.009 315.711V310.357H200.666V315.711H206.009Z" fill="black"/>
<path d="M160.092 315.711V310.357H154.749V315.711H160.092Z" fill="black"/>
<path d="M114.176 315.711V310.357H108.833V315.711H114.176Z" fill="black"/>
<path d="M68.2594 315.711V310.357H62.9164V315.711H68.2594Z" fill="black"/>
<path d="M22.343 315.711V310.357H17V315.711H22.343Z" fill="black"/>
<path d="M367 362V356.078H361.089V362H367Z" fill="black"/>
<path d="M321.084 362V356.078H315.173V362H321.084Z" fill="black"/>
<path d="M275.167 362V356.078H269.256V362H275.167Z" fill="black"/>
<path d="M229.251 362V356.078H223.34V362H229.251Z" fill="black"/>
<path d="M183.334 362V356.078H177.424V362H183.334Z" fill="black"/>
<path d="M137.418 362V356.078H131.507V362H137.418Z" fill="black"/>
<path d="M91.5015 362V356.078H85.5908V362H91.5015Z" fill="black"/>
<path d="M45.5851 362V356.078H39.6744V362H45.5851Z" fill="black"/>
<path d="M711.088 38.0075V36H709.085V38.0075H711.088Z" fill="black"/>
<path d="M665.172 38.0075V36H663.168V38.0075H665.172Z" fill="black"/>
<path d="M619.255 38.0075V36H617.252V38.0075H619.255Z" fill="black"/>
<path d="M573.339 38.0075V36H571.335V38.0075H573.339Z" fill="black"/>
<path d="M527.423 38.0075V36H525.419V38.0075H527.423Z" fill="black"/>
<path d="M481.506 38.0075V36H479.503V38.0075H481.506Z" fill="black"/>
<path d="M435.59 38.0075V36H433.586V38.0075H435.59Z" fill="black"/>
<path d="M389.673 38.0075V36H387.67V38.0075H389.673Z" fill="black"/>
<path d="M734.33 84.2969V81.7206H731.759V84.2969H734.33Z" fill="black"/>
<path d="M688.414 84.2969V81.7206H685.843V84.2969H688.414Z" fill="black"/>
<path d="M642.497 84.2969V81.7206H639.926V84.2969H642.497Z" fill="black"/>
<path d="M596.581 84.2969V81.7206H594.01V84.2969H596.581Z" fill="black"/>
<path d="M550.665 84.2969V81.7206H548.093V84.2969H550.665Z" fill="black"/>
<path d="M504.748 84.2969V81.7206H502.177V84.2969H504.748Z" fill="black"/>
<path d="M458.832 84.2969V81.7206H456.26V84.2969H458.832Z" fill="black"/>
<path d="M412.915 84.2969V81.7206H410.344V84.2969H412.915Z" fill="black"/>
<path d="M711.639 130.57V127.458H708.534V130.57H711.639Z" fill="black"/>
<path d="M665.723 130.57V127.458H662.617V130.57H665.723Z" fill="black"/>
<path d="M619.806 130.57V127.458H616.701V130.57H619.806Z" fill="black"/>
<path d="M573.89 130.57V127.458H570.784V130.57H573.89Z" fill="black"/>
<path d="M527.974 130.57V127.458H524.868V130.57H527.974Z" fill="black"/>
<path d="M482.057 130.57V127.458H478.952V130.57H482.057Z" fill="black"/>
<path d="M436.141 130.57V127.458H433.035V130.57H436.141Z" fill="black"/>
<path d="M390.224 130.57V127.458H387.119V130.57H390.224Z" fill="black"/>
<path d="M734.881 176.859V173.179H731.208V176.859H734.881Z" fill="black"/>
<path d="M688.965 176.859V173.179H685.292V176.859H688.965Z" fill="black"/>
<path d="M643.048 176.859V173.179H639.375V176.859H643.048Z" fill="black"/>
<path d="M597.132 176.859V173.179H593.459V176.859H597.132Z" fill="black"/>
<path d="M551.216 176.859V173.179H547.542V176.859H551.216Z" fill="black"/>
<path d="M505.299 176.859V173.179H501.626V176.859H505.299Z" fill="black"/>
<path d="M459.383 176.859V173.179H455.709V176.859H459.383Z" fill="black"/>
<path d="M413.466 176.859V173.179H409.793V176.859H413.466Z" fill="black"/>
<path d="M712.207 223.148V218.899H707.966V223.148H712.207Z" fill="black"/>
<path d="M666.291 223.148V218.899H662.05V223.148H666.291Z" fill="black"/>
<path d="M620.374 223.148V218.899H616.133V223.148H620.374Z" fill="black"/>
<path d="M574.458 223.148V218.899H570.217V223.148H574.458Z" fill="black"/>
<path d="M528.541 223.148V218.899H524.3V223.148H528.541Z" fill="black"/>
<path d="M482.625 223.148V218.899H478.384V223.148H482.625Z" fill="black"/>
<path d="M436.708 223.148V218.899H432.467V223.148H436.708Z" fill="black"/>
<path d="M390.792 223.148V218.899H386.551V223.148H390.792Z" fill="black"/>
<path d="M735.432 269.421V264.637H730.657V269.421H735.432Z" fill="black"/>
<path d="M689.516 269.421V264.637H684.741V269.421H689.516Z" fill="black"/>
<path d="M643.599 269.421V264.637H638.824V269.421H643.599Z" fill="black"/>
<path d="M597.683 269.421V264.637H592.908V269.421H597.683Z" fill="black"/>
<path d="M551.767 269.421V264.637H546.991V269.421H551.767Z" fill="black"/>
<path d="M505.85 269.421V264.637H501.075V269.421H505.85Z" fill="black"/>
<path d="M459.934 269.421V264.637H455.158V269.421H459.934Z" fill="black"/>
<path d="M414.017 269.421V264.637H409.242V269.421H414.017Z" fill="black"/>
<path d="M712.758 315.711V310.357H707.415V315.711H712.758Z" fill="black"/>
<path d="M666.842 315.711V310.357H661.499V315.711H666.842Z" fill="black"/>
<path d="M620.925 315.711V310.357H615.582V315.711H620.925Z" fill="black"/>
<path d="M575.009 315.711V310.357H569.666V315.711H575.009Z" fill="black"/>
<path d="M529.092 315.711V310.357H523.749V315.711H529.092Z" fill="black"/>
<path d="M483.176 315.711V310.357H477.833V315.711H483.176Z" fill="black"/>
<path d="M437.259 315.711V310.357H431.916V315.711H437.259Z" fill="black"/>
<path d="M391.343 315.711V310.357H386V315.711H391.343Z" fill="black"/>
<path d="M736 362V356.078H730.089V362H736Z" fill="black"/>
<path d="M690.084 362V356.078H684.173V362H690.084Z" fill="black"/>
<path d="M644.167 362V356.078H638.256V362H644.167Z" fill="black"/>
<path d="M598.251 362V356.078H592.34V362H598.251Z" fill="black"/>
<path d="M552.334 362V356.078H546.424V362H552.334Z" fill="black"/>
<path d="M506.418 362V356.078H500.507V362H506.418Z" fill="black"/>
<path d="M460.501 362V356.078H454.591V362H460.501Z" fill="black"/>
<path d="M414.585 362V356.078H408.674V362H414.585Z" fill="black"/>
<path d="M1080.09 38.0075V36H1078.08V38.0075H1080.09Z" fill="black"/>
<path d="M1034.17 38.0075V36H1032.17V38.0075H1034.17Z" fill="black"/>
<path d="M988.255 38.0075V36H986.252V38.0075H988.255Z" fill="black"/>
<path d="M942.339 38.0075V36H940.335V38.0075H942.339Z" fill="black"/>
<path d="M896.423 38.0075V36H894.419V38.0075H896.423Z" fill="black"/>
<path d="M850.506 38.0075V36H848.503V38.0075H850.506Z" fill="black"/>
<path d="M804.59 38.0075V36H802.586V38.0075H804.59Z" fill="black"/>
<path d="M758.673 38.0075V36H756.67V38.0075H758.673Z" fill="black"/>
<path d="M1103.33 84.2969V81.7206H1100.76V84.2969H1103.33Z" fill="black"/>
<path d="M1057.41 84.2969V81.7206H1054.84V84.2969H1057.41Z" fill="black"/>
<path d="M1011.5 84.2969V81.7206H1008.93V84.2969H1011.5Z" fill="black"/>
<path d="M965.581 84.2969V81.7206H963.01V84.2969H965.581Z" fill="black"/>
<path d="M919.665 84.2969V81.7206H917.093V84.2969H919.665Z" fill="black"/>
<path d="M873.748 84.2969V81.7206H871.177V84.2969H873.748Z" fill="black"/>
<path d="M827.832 84.2969V81.7206H825.26V84.2969H827.832Z" fill="black"/>
<path d="M781.915 84.2969V81.7206H779.344V84.2969H781.915Z" fill="black"/>
<path d="M1080.64 130.57V127.458H1077.53V130.57H1080.64Z" fill="black"/>
<path d="M1034.72 130.57V127.458H1031.62V130.57H1034.72Z" fill="black"/>
<path d="M988.806 130.57V127.458H985.701V130.57H988.806Z" fill="black"/>
<path d="M942.89 130.57V127.458H939.784V130.57H942.89Z" fill="black"/>
<path d="M896.974 130.57V127.458H893.868V130.57H896.974Z" fill="black"/>
<path d="M851.057 130.57V127.458H847.952V130.57H851.057Z" fill="black"/>
<path d="M805.141 130.57V127.458H802.035V130.57H805.141Z" fill="black"/>
<path d="M759.224 130.57V127.458H756.119V130.57H759.224Z" fill="black"/>
<path d="M1103.88 176.859V173.179H1100.21V176.859H1103.88Z" fill="black"/>
<path d="M1057.96 176.859V173.179H1054.29V176.859H1057.96Z" fill="black"/>
<path d="M1012.05 176.859V173.179H1008.38V176.859H1012.05Z" fill="black"/>
<path d="M966.132 176.859V173.179H962.459V176.859H966.132Z" fill="black"/>
<path d="M920.216 176.859V173.179H916.542V176.859H920.216Z" fill="black"/>
<path d="M874.299 176.859V173.179H870.626V176.859H874.299Z" fill="black"/>
<path d="M828.383 176.859V173.179H824.709V176.859H828.383Z" fill="black"/>
<path d="M782.466 176.859V173.179H778.793V176.859H782.466Z" fill="black"/>
<path d="M1081.21 223.148V218.899H1076.97V223.148H1081.21Z" fill="black"/>
<path d="M1035.29 223.148V218.899H1031.05V223.148H1035.29Z" fill="black"/>
<path d="M989.374 223.148V218.899H985.133V223.148H989.374Z" fill="black"/>
<path d="M943.458 223.148V218.899H939.217V223.148H943.458Z" fill="black"/>
<path d="M897.541 223.148V218.899H893.3V223.148H897.541Z" fill="black"/>
<path d="M851.625 223.148V218.899H847.384V223.148H851.625Z" fill="black"/>
<path d="M805.708 223.148V218.899H801.467V223.148H805.708Z" fill="black"/>
<path d="M759.792 223.148V218.899H755.551V223.148H759.792Z" fill="black"/>
<path d="M1104.43 269.421V264.637H1099.66V269.421H1104.43Z" fill="black"/>
<path d="M1058.52 269.421V264.637H1053.74V269.421H1058.52Z" fill="black"/>
<path d="M1012.6 269.421V264.637H1007.82V269.421H1012.6Z" fill="black"/>
<path d="M966.683 269.421V264.637H961.908V269.421H966.683Z" fill="black"/>
<path d="M920.767 269.421V264.637H915.991V269.421H920.767Z" fill="black"/>
<path d="M874.85 269.421V264.637H870.075V269.421H874.85Z" fill="black"/>
<path d="M828.934 269.421V264.637H824.158V269.421H828.934Z" fill="black"/>
<path d="M783.017 269.421V264.637H778.242V269.421H783.017Z" fill="black"/>
<path d="M1081.76 315.711V310.357H1076.41V315.711H1081.76Z" fill="black"/>
<path d="M1035.84 315.711V310.357H1030.5V315.711H1035.84Z" fill="black"/>
<path d="M989.925 315.711V310.357H984.582V315.711H989.925Z" fill="black"/>
<path d="M944.009 315.711V310.357H938.666V315.711H944.009Z" fill="black"/>
<path d="M898.092 315.711V310.357H892.749V315.711H898.092Z" fill="black"/>
<path d="M852.176 315.711V310.357H846.833V315.711H852.176Z" fill="black"/>
<path d="M806.259 315.711V310.357H800.916V315.711H806.259Z" fill="black"/>
<path d="M760.343 315.711V310.357H755V315.711H760.343Z" fill="black"/>
<path d="M1105 362V356.078H1099.09V362H1105Z" fill="black"/>
<path d="M1059.08 362V356.078H1053.17V362H1059.08Z" fill="black"/>
<path d="M1013.17 362V356.078H1007.26V362H1013.17Z" fill="black"/>
<path d="M967.251 362V356.078H961.34V362H967.251Z" fill="black"/>
<path d="M921.334 362V356.078H915.424V362H921.334Z" fill="black"/>
<path d="M875.418 362V356.078H869.507V362H875.418Z" fill="black"/>
<path d="M829.501 362V356.078H823.591V362H829.501Z" fill="black"/>
<path d="M783.585 362V356.078H777.674V362H783.585Z" fill="black"/>
</g>
</g>
<path d="M108.012 213.863C107.951 213.924 107.604 216.055 106.969 220.256C106.334 224.458 105.986 226.604 105.926 226.694V226.83H77V224.019H81.8966V198.811H77V196H105.155V196.181C105.216 196.363 105.442 198.237 105.835 201.803C106.228 205.37 106.47 207.244 106.561 207.425V207.607H103.75V207.425C103.75 207.395 103.72 207.093 103.659 206.519C103.599 205.944 103.463 205.249 103.251 204.433C103.039 203.617 102.783 202.907 102.48 202.302C101.664 200.73 100.546 199.763 99.1252 199.4C97.7046 199.038 95.5133 198.841 92.5511 198.811H92.1884H89.0147V209.42H90.4656C90.526 209.42 90.6922 209.42 90.9643 209.42C91.2363 209.42 91.4479 209.42 91.599 209.42C91.7501 209.42 91.9768 209.39 92.2791 209.33C92.5814 209.269 92.8232 209.209 93.0045 209.148C93.1859 209.088 93.4126 208.982 93.6846 208.831C93.9566 208.68 94.1682 208.529 94.3193 208.378C94.4705 208.226 94.6367 207.985 94.8181 207.652C95.1203 207.017 95.2866 206.126 95.3168 204.977V204.116H98.1278V217.536H95.3168V216.674C95.2866 215.647 95.1657 214.831 94.9541 214.226C94.7425 213.622 94.3798 213.183 93.8659 212.911C93.3521 212.639 92.8836 212.473 92.4605 212.413C92.0373 212.352 91.3723 212.292 90.4656 212.231H89.0147V224.019H92.2338H93.0952C94.1531 224.019 94.9843 224.019 95.5888 224.019C96.1933 224.019 96.9187 223.959 97.7651 223.838C98.6114 223.717 99.2764 223.566 99.76 223.385C100.244 223.203 100.788 222.916 101.392 222.523C101.997 222.13 102.48 221.662 102.843 221.118C103.206 220.574 103.553 219.909 103.886 219.123C104.218 218.337 104.505 217.4 104.747 216.312C105.049 214.649 105.201 213.788 105.201 213.727H108.012V213.863Z" fill="black"/>
<path d="M783 310.855C783 306.107 784.642 302.285 787.927 299.389C791.211 296.493 795.6 295.03 801.094 295C802.109 295 803.08 295.09 804.005 295.269C804.931 295.448 805.722 295.702 806.379 296.03C807.036 296.359 807.588 296.642 808.036 296.881C808.484 297.12 808.842 297.359 809.111 297.598C809.38 297.837 809.529 297.941 809.559 297.911L811.216 296.523C811.485 296.314 811.739 296.105 811.977 295.896C812.216 295.687 812.395 295.538 812.515 295.448C812.634 295.358 812.739 295.284 812.828 295.224C812.918 295.164 812.993 295.119 813.052 295.09C813.112 295.06 813.187 295.045 813.276 295.045C813.366 295.045 813.455 295.03 813.545 295C813.933 295 814.172 295.075 814.262 295.224C814.351 295.373 814.411 295.732 814.441 296.299V298.135V304.316V306.107C814.441 306.734 814.381 307.108 814.262 307.227C814.142 307.346 813.844 307.421 813.366 307.451H812.918H812.38C811.753 307.451 811.41 307.197 811.35 306.69C811.141 304.838 810.544 303.211 809.559 301.808C808.185 299.628 806.319 298.329 803.96 297.911C803.662 297.852 803.124 297.822 802.348 297.822C798.168 297.822 795.033 299.031 792.943 301.449C791.33 303.39 790.524 306.525 790.524 310.855C790.524 315.184 791.33 318.319 792.943 320.26C795.003 322.679 798.153 323.888 802.393 323.888C805.379 323.888 807.663 322.992 809.245 321.201C810.828 319.409 811.634 317.543 811.664 315.602C811.664 315.274 811.739 315.065 811.888 314.975C812.037 314.886 812.336 314.841 812.784 314.841H813.052C813.5 314.841 813.799 314.856 813.948 314.886C814.097 314.915 814.217 314.99 814.306 315.11C814.396 315.229 814.441 315.438 814.441 315.737C814.441 318.663 813.157 321.216 810.589 323.395C808.021 325.575 804.871 326.68 801.139 326.709C795.645 326.709 791.256 325.261 787.971 322.365C784.687 319.469 783.03 315.632 783 310.855Z" fill="black"/>
<circle cx="94" cy="168" r="14" fill="#F2F2F2" stroke="#474747" stroke-width="6"/>
<path d="M59.0193 113.4C59.9993 113.4 60.8893 113.55 61.6893 113.85C62.4893 114.15 63.1693 114.58 63.7293 115.14C64.3093 115.7 64.7493 116.37 65.0493 117.15C65.3693 117.91 65.5293 118.76 65.5293 119.7C65.5293 120.64 65.3693 121.5 65.0493 122.28C64.7293 123.04 64.2793 123.7 63.6993 124.26C63.1393 124.82 62.4593 125.25 61.6593 125.55C60.8593 125.85 59.9793 126 59.0193 126H54.4293V135H51.7293V113.4H59.0193ZM54.4293 115.8V123.6H59.0193C60.1393 123.6 61.0393 123.25 61.7193 122.55C62.3993 121.83 62.7393 120.88 62.7393 119.7C62.7393 118.52 62.3993 117.58 61.7193 116.88C61.0393 116.16 60.1393 115.8 59.0193 115.8H54.4293ZM72.1176 128.85C72.1176 130.11 72.4576 131.1 73.1376 131.82C73.8376 132.54 74.7976 132.9 76.0176 132.9C77.2176 132.9 78.1676 132.54 78.8676 131.82C79.5676 131.1 79.9176 130.11 79.9176 128.85V124.65C79.9176 123.39 79.5676 122.4 78.8676 121.68C78.1676 120.96 77.2176 120.6 76.0176 120.6C74.8176 120.6 73.8676 120.96 73.1676 121.68C72.4676 122.4 72.1176 123.39 72.1176 124.65V128.85ZM69.4176 124.65C69.4176 123.65 69.5676 122.76 69.8676 121.98C70.1876 121.18 70.6276 120.5 71.1876 119.94C71.7676 119.38 72.4576 118.95 73.2576 118.65C74.0776 118.35 74.9976 118.2 76.0176 118.2C78.0576 118.2 79.6676 118.77 80.8476 119.91C82.0276 121.05 82.6176 122.62 82.6176 124.62V128.85C82.6176 129.85 82.4676 130.75 82.1676 131.55C81.8676 132.35 81.4276 133.03 80.8476 133.59C80.2876 134.13 79.5976 134.55 78.7776 134.85C77.9576 135.15 77.0376 135.3 76.0176 135.3C74.9976 135.3 74.0776 135.15 73.2576 134.85C72.4576 134.55 71.7676 134.12 71.1876 133.56C70.6276 133 70.1876 132.32 69.8676 131.52C69.5676 130.72 69.4176 129.83 69.4176 128.85V124.65ZM87.8559 135V132.54H93.8559V120.96H88.6059V118.5H96.5559V132.54H101.506V135H87.8559ZM94.4559 112.05H95.0559C95.6359 112.05 96.1059 112.22 96.4659 112.56C96.8259 112.9 97.0059 113.34 97.0059 113.88C97.0059 114.42 96.8259 114.85 96.4659 115.17C96.1059 115.49 95.6359 115.65 95.0559 115.65H94.4559C93.8759 115.65 93.4059 115.5 93.0459 115.2C92.6859 114.88 92.5059 114.44 92.5059 113.88C92.5059 113.34 92.6859 112.9 93.0459 112.56C93.4059 112.22 93.8759 112.05 94.4559 112.05ZM105.634 135V118.5H108.184V121.35H108.424C108.684 120.35 109.204 119.58 109.984 119.04C110.784 118.48 111.774 118.2 112.954 118.2C113.774 118.2 114.514 118.34 115.174 118.62C115.854 118.9 116.424 119.3 116.884 119.82C117.364 120.32 117.734 120.93 117.994 121.65C118.254 122.35 118.384 123.14 118.384 124.02V135H115.684V124.47C115.684 123.21 115.364 122.23 114.724 121.53C114.084 120.83 113.194 120.48 112.054 120.48C110.914 120.48 110.004 120.86 109.324 121.62C108.664 122.36 108.334 123.37 108.334 124.65V135H105.634ZM122.782 118.5H127.582V113.4H130.282V118.5H136.732V120.96H130.282V130.74C130.282 131.3 130.452 131.74 130.792 132.06C131.152 132.38 131.632 132.54 132.232 132.54H136.432V135H132.232C130.812 135 129.682 134.61 128.842 133.83C128.002 133.05 127.582 132.02 127.582 130.74V120.96H122.782V118.5Z" fill="black"/>
<circle cx="800" cy="270" r="14" fill="#F2F2F2" stroke="#474747" stroke-width="6"/>
<path d="M755.215 215.1C757.095 215.1 758.605 215.62 759.745 216.66C760.905 217.68 761.595 219.11 761.815 220.95H759.115C758.995 219.87 758.585 219.03 757.885 218.43C757.205 217.81 756.315 217.5 755.215 217.5C754.015 217.5 753.065 217.86 752.365 218.58C751.665 219.3 751.315 220.29 751.315 221.55V230.85C751.315 232.11 751.655 233.1 752.335 233.82C753.035 234.54 753.995 234.9 755.215 234.9C756.315 234.9 757.205 234.6 757.885 234C758.585 233.38 758.995 232.53 759.115 231.45H761.815C761.595 233.29 760.905 234.73 759.745 235.77C758.605 236.79 757.095 237.3 755.215 237.3C754.195 237.3 753.275 237.15 752.455 236.85C751.655 236.55 750.965 236.12 750.385 235.56C749.825 235 749.385 234.32 749.065 233.52C748.765 232.72 748.615 231.83 748.615 230.85V221.55C748.615 220.57 748.765 219.68 749.065 218.88C749.385 218.08 749.825 217.4 750.385 216.84C750.965 216.28 751.655 215.85 752.455 215.55C753.275 215.25 754.195 215.1 755.215 215.1ZM765.913 232.2C765.913 231.42 766.043 230.72 766.303 230.1C766.583 229.46 766.973 228.92 767.473 228.48C767.993 228.04 768.613 227.7 769.333 227.46C770.053 227.22 770.863 227.1 771.763 227.1H776.683V225.75C776.683 224.73 776.343 223.94 775.663 223.38C775.003 222.8 774.043 222.51 772.783 222.51C771.863 222.51 771.073 222.68 770.413 223.02C769.773 223.36 769.343 223.83 769.123 224.43H766.423C766.703 223.13 767.413 222.1 768.553 221.34C769.713 220.58 771.143 220.2 772.843 220.2C774.883 220.2 776.483 220.68 777.643 221.64C778.803 222.58 779.383 223.9 779.383 225.6V237H776.923V233.85H776.683C776.423 234.91 775.813 235.75 774.853 236.37C773.893 236.99 772.723 237.3 771.343 237.3C769.683 237.3 768.363 236.84 767.383 235.92C766.403 235 765.913 233.76 765.913 232.2ZM771.943 235.08C772.623 235.08 773.253 234.99 773.833 234.81C774.413 234.63 774.913 234.38 775.333 234.06C775.753 233.72 776.083 233.33 776.323 232.89C776.563 232.45 776.683 231.97 776.683 231.45V229.2H771.823C770.823 229.2 770.033 229.46 769.453 229.98C768.893 230.5 768.613 231.22 768.613 232.14C768.613 233.06 768.903 233.78 769.483 234.3C770.063 234.82 770.883 235.08 771.943 235.08ZM783.872 220.5H786.002V222.93H786.212C786.292 222.05 786.572 221.38 787.052 220.92C787.532 220.44 788.172 220.2 788.972 220.2C789.772 220.2 790.432 220.44 790.952 220.92C791.472 221.38 791.832 222.05 792.032 222.93H792.182C792.262 222.05 792.542 221.38 793.022 220.92C793.502 220.44 794.142 220.2 794.942 220.2C795.962 220.2 796.752 220.58 797.312 221.34C797.872 222.08 798.152 223.11 798.152 224.43V237H795.812V224.43C795.812 223.73 795.652 223.2 795.332 222.84C795.032 222.46 794.592 222.27 794.012 222.27C792.792 222.27 792.182 223.04 792.182 224.58V237H789.842V224.43C789.842 223.85 789.702 223.35 789.422 222.93C789.162 222.49 788.702 222.27 788.042 222.27C787.442 222.27 786.972 222.49 786.632 222.93C786.352 223.33 786.212 223.88 786.212 224.58V237H783.872V220.5ZM809 237.3C806.94 237.3 805.32 236.74 804.14 235.62C802.98 234.5 802.4 232.96 802.4 231V226.5C802.4 224.54 802.98 223 804.14 221.88C805.32 220.76 806.94 220.2 809 220.2C811.06 220.2 812.67 220.76 813.83 221.88C815.01 223 815.6 224.54 815.6 226.5V229.53H805.1V230.85C805.1 232.11 805.44 233.1 806.12 233.82C806.82 234.54 807.78 234.9 809 234.9C809.9 234.9 810.68 234.76 811.34 234.48C812 234.2 812.49 233.79 812.81 233.25H815.51C815.17 234.51 814.41 235.5 813.23 236.22C812.07 236.94 810.66 237.3 809 237.3ZM812.9 227.28V226.5C812.9 225.26 812.56 224.3 811.88 223.62C811.2 222.94 810.24 222.6 809 222.6C807.76 222.6 806.8 222.94 806.12 223.62C805.44 224.3 805.1 225.26 805.1 226.5V227.28H812.9ZM821.348 220.5H823.898V223.35H824.138C824.398 222.37 824.938 221.6 825.758 221.04C826.578 220.48 827.588 220.2 828.788 220.2C830.528 220.2 831.888 220.75 832.868 221.85C833.868 222.93 834.368 224.42 834.368 226.32V227.25H831.668V226.65C831.668 225.35 831.338 224.35 830.678 223.65C830.038 222.93 829.118 222.57 827.918 222.57C826.738 222.57 825.798 222.94 825.098 223.68C824.398 224.4 824.048 225.39 824.048 226.65V237H821.348V220.5ZM837.867 232.2C837.867 231.42 837.997 230.72 838.257 230.1C838.537 229.46 838.927 228.92 839.427 228.48C839.947 228.04 840.567 227.7 841.287 227.46C842.007 227.22 842.817 227.1 843.717 227.1H848.637V225.75C848.637 224.73 848.297 223.94 847.617 223.38C846.957 222.8 845.997 222.51 844.737 222.51C843.817 222.51 843.027 222.68 842.367 223.02C841.727 223.36 841.297 223.83 841.077 224.43H838.377C838.657 223.13 839.367 222.1 840.507 221.34C841.667 220.58 843.097 220.2 844.797 220.2C846.837 220.2 848.437 220.68 849.597 221.64C850.757 222.58 851.337 223.9 851.337 225.6V237H848.877V233.85H848.637C848.377 234.91 847.767 235.75 846.807 236.37C845.847 236.99 844.677 237.3 843.297 237.3C841.637 237.3 840.317 236.84 839.337 235.92C838.357 235 837.867 233.76 837.867 232.2ZM843.897 235.08C844.577 235.08 845.207 234.99 845.787 234.81C846.367 234.63 846.867 234.38 847.287 234.06C847.707 233.72 848.037 233.33 848.277 232.89C848.517 232.45 848.637 231.97 848.637 231.45V229.2H843.777C842.777 229.2 841.987 229.46 841.407 229.98C840.847 230.5 840.567 231.22 840.567 232.14C840.567 233.06 840.857 233.78 841.437 234.3C842.017 234.82 842.837 235.08 843.897 235.08Z" fill="black"/>
<path d="M170.5 180.392L227.658 213.392" stroke="#D04646" stroke-width="6"/>
<path d="M231.066 203.488C231.45 202.824 232.407 202.821 232.795 203.482L243.838 222.307C244.23 222.977 243.744 223.819 242.968 223.813L221.144 223.662C220.377 223.657 219.901 222.827 220.285 222.163L231.066 203.488Z" fill="#D04646"/>
<path d="M614.193 241.485L660.862 288.154" stroke="#D04646" stroke-width="6"/>
<path d="M666.718 279.47C667.26 278.928 668.185 279.172 668.389 279.912L674.183 300.953C674.389 301.701 673.701 302.389 672.953 302.183L651.912 296.389C651.172 296.185 650.928 295.26 651.47 294.718L666.718 279.47Z" fill="#D04646"/>
<path d="M299.536 198.793L354.888 162.847" stroke="#D04646" stroke-width="6"/>
<path d="M347.611 155.313C347.193 154.67 347.625 153.816 348.39 153.77L370.177 152.478C370.951 152.432 371.481 153.247 371.124 153.936L361.082 173.313C360.729 173.994 359.773 174.041 359.355 173.398L347.611 155.313Z" fill="#D04646"/>
<path d="M108.634 170.868L759.24 262.305" stroke="#474747" stroke-width="6"/>
<path d="M758.69 251.845C758.797 251.086 759.683 250.724 760.291 251.192L777.581 264.51C778.196 264.983 778.061 265.946 777.339 266.231L757.047 274.267C756.335 274.55 755.582 273.958 755.689 273.198L758.69 251.845Z" fill="#474747"/>
<path d="M195.193 132.485L241.862 179.154" stroke="#4675D0" stroke-width="6"/>
<path d="M247.718 170.47C248.26 169.928 249.185 170.172 249.389 170.912L255.183 191.953C255.389 192.701 254.701 193.389 253.953 193.183L232.912 187.389C232.172 187.185 231.928 186.26 232.47 185.718L247.718 170.47Z" fill="#4675D0"/>
<path d="M535.258 159L568.258 216.158" stroke="#4675D0" stroke-width="6"/>
<path d="M576.163 209.285C576.827 208.901 577.657 209.377 577.662 210.144L577.813 231.968C577.819 232.744 576.977 233.23 576.307 232.838L557.482 221.795C556.821 221.407 556.824 220.45 557.488 220.066L576.163 209.285Z" fill="#4675D0"/>
<path d="M624.5 209.392L681.658 242.392" stroke="#4675D0" stroke-width="6"/>
<path d="M685.066 232.488C685.45 231.824 686.407 231.821 686.795 232.482L697.838 251.307C698.23 251.977 697.744 252.819 696.968 252.813L675.144 252.662C674.377 252.657 673.901 251.827 674.285 251.163L685.066 232.488Z" fill="#4675D0"/>
<path d="M507.331 269.215L368.693 249.731" stroke="#474747" stroke-width="6"/>
<path d="M369.243 260.191C369.136 260.95 368.25 261.312 367.642 260.844L350.352 247.526C349.737 247.053 349.872 246.09 350.594 245.804L370.885 237.769C371.598 237.486 372.351 238.078 372.244 238.837L369.243 260.191Z" fill="#474747"/>
<rect x="480.556" y="281.118" width="86" height="44" rx="22" transform="rotate(180 480.556 281.118)" fill="#F2F2F2" stroke="#474747" stroke-width="4"/>
<path d="M434.447 264.551H435.145C435.991 264.551 436.414 264.848 436.414 265.44C436.414 265.651 436.266 266.117 435.97 266.836C435.674 267.555 434.997 268.486 433.939 269.628C432.882 270.77 431.57 271.659 430.005 272.293C428.017 272.928 426.092 273.245 424.23 273.245C420.423 273.245 417.229 272.378 414.648 270.643C410.587 268.063 408.556 264.107 408.556 258.777C408.556 254.462 409.868 251.035 412.491 248.497C415.367 245.578 419.281 244.118 424.23 244.118C427.319 244.118 429.963 244.584 432.163 245.514C434.362 246.445 435.483 248.095 435.526 250.464C435.526 251.902 435.124 252.981 434.32 253.7C433.516 254.419 432.459 254.8 431.147 254.842C429.667 254.842 428.567 254.398 427.847 253.51C427.128 252.621 426.747 251.606 426.705 250.464C426.705 249.322 426.98 248.412 427.53 247.735H427.213C426.536 247.651 425.732 247.608 424.801 247.608H424.611C424.103 247.608 423.659 247.63 423.278 247.672C422.898 247.714 422.348 247.862 421.629 248.116C420.909 248.37 420.338 248.729 419.915 249.195C419.492 249.66 419.048 250.4 418.583 251.416C418.117 252.431 417.821 253.594 417.694 254.906C417.652 255.244 417.631 256.344 417.631 258.206C417.631 259.559 417.673 260.638 417.758 261.442C417.842 262.246 418.033 263.261 418.329 264.488C418.625 265.715 419.196 266.709 420.042 267.47C420.888 268.232 421.946 268.824 423.215 269.247C424.019 269.543 425.013 269.692 426.198 269.692H426.769C429.265 269.692 431.126 268.317 432.353 265.567C432.564 265.059 432.755 264.763 432.924 264.678C433.093 264.594 433.601 264.551 434.447 264.551Z" fill="black"/>
<path d="M464.208 254.272C464.208 254.272 463.553 254.272 462.241 254.272C460.93 254.272 459.872 253.87 459.068 253.066C458.265 252.262 457.863 251.226 457.863 249.956C457.863 249.237 458.011 248.539 458.307 247.862C458.434 247.735 458.497 247.63 458.497 247.545C458.074 247.545 457.63 247.651 457.165 247.862C456.699 248.074 456.107 248.476 455.388 249.068C454.669 249.66 454.076 250.633 453.611 251.987C453.146 253.341 452.807 255.033 452.596 257.064C452.553 257.402 452.532 259.517 452.532 263.409V268.93H458.053V272.865H457.419C456.657 272.738 453.759 272.674 448.725 272.674C443.902 272.674 441.3 272.738 440.92 272.865H440.349V268.93H444.727V259.538V253.637C444.727 251.522 444.685 250.253 444.6 249.829C444.516 249.406 444.241 249.131 443.775 249.005C443.183 248.835 442.316 248.751 441.173 248.751H440.349V244.816H440.539L445.996 244.563C449.634 244.393 451.475 244.309 451.517 244.309H451.834V246.593L451.898 248.878C453.421 245.874 455.621 244.372 458.497 244.372H458.878C461.543 244.372 463.489 244.943 464.716 246.086C465.943 247.228 466.556 248.539 466.556 250.02C466.556 251.204 466.176 252.199 465.414 253.002L464.208 254.272Z" fill="black"/>
<circle cx="594" cy="39" r="17" fill="#4675D0"/>
<path d="M633.696 46.63V29.77H628.926V27.4H641.226V29.77H636.456V46.63H641.226V49H628.926V46.63H633.696ZM646.704 49V32.5H649.254V35.35H649.494C649.754 34.35 650.274 33.58 651.054 33.04C651.854 32.48 652.844 32.2 654.024 32.2C654.844 32.2 655.584 32.34 656.244 32.62C656.924 32.9 657.494 33.3 657.954 33.82C658.434 34.32 658.804 34.93 659.064 35.65C659.324 36.35 659.454 37.14 659.454 38.02V49H656.754V38.47C656.754 37.21 656.434 36.23 655.794 35.53C655.154 34.83 654.264 34.48 653.124 34.48C651.984 34.48 651.074 34.86 650.394 35.62C649.734 36.36 649.404 37.37 649.404 38.65V49H646.704ZM665.053 37.9H677.053V40.3H665.053V37.9ZM689.041 49.3C688.061 49.3 687.151 49.17 686.311 48.91C685.471 48.63 684.741 48.24 684.121 47.74C683.521 47.22 683.041 46.6 682.681 45.88C682.341 45.16 682.161 44.35 682.141 43.45H684.991C684.991 43.97 685.091 44.44 685.291 44.86C685.511 45.28 685.811 45.64 686.191 45.94C686.571 46.24 687.011 46.48 687.511 46.66C688.011 46.82 688.541 46.9 689.101 46.9C690.361 46.9 691.361 46.61 692.101 46.03C692.841 45.43 693.211 44.62 693.211 43.6C693.211 42.74 692.941 41.98 692.401 41.32C691.861 40.64 691.081 40.11 690.061 39.73L687.781 38.89C684.441 37.67 682.771 35.65 682.771 32.83C682.771 31.03 683.341 29.63 684.481 28.63C685.621 27.61 687.191 27.1 689.191 27.1C690.131 27.1 690.991 27.23 691.771 27.49C692.551 27.75 693.221 28.13 693.781 28.63C694.361 29.13 694.811 29.74 695.131 30.46C695.471 31.16 695.651 31.95 695.671 32.83H692.821C692.821 32.33 692.721 31.88 692.521 31.48C692.321 31.06 692.051 30.71 691.711 30.43C691.391 30.13 691.011 29.9 690.571 29.74C690.131 29.58 689.661 29.5 689.161 29.5C688.021 29.5 687.121 29.77 686.461 30.31C685.821 30.85 685.501 31.58 685.501 32.5C685.501 33.4 685.741 34.15 686.221 34.75C686.721 35.33 687.521 35.82 688.621 36.22L691.021 37.09C692.621 37.67 693.841 38.51 694.681 39.61C695.521 40.71 695.941 42.01 695.941 43.51C695.941 45.31 695.321 46.73 694.081 47.77C692.861 48.79 691.181 49.3 689.041 49.3ZM707.269 49.3C706.249 49.3 705.329 49.15 704.509 48.85C703.709 48.55 703.019 48.12 702.439 47.56C701.879 47 701.439 46.32 701.119 45.52C700.819 44.72 700.669 43.83 700.669 42.85V38.65C700.669 37.67 700.819 36.78 701.119 35.98C701.439 35.18 701.879 34.5 702.439 33.94C703.019 33.38 703.709 32.95 704.509 32.65C705.329 32.35 706.249 32.2 707.269 32.2C709.089 32.2 710.579 32.7 711.739 33.7C712.919 34.68 713.629 36.03 713.869 37.75H711.169C711.029 36.79 710.599 36.03 709.879 35.47C709.179 34.89 708.309 34.6 707.269 34.6C706.069 34.6 705.119 34.96 704.419 35.68C703.719 36.4 703.369 37.39 703.369 38.65V42.85C703.369 44.11 703.709 45.1 704.389 45.82C705.089 46.54 706.049 46.9 707.269 46.9C708.309 46.9 709.179 46.62 709.879 46.06C710.599 45.48 711.029 44.71 711.169 43.75H713.869C713.609 45.49 712.889 46.85 711.709 47.83C710.549 48.81 709.069 49.3 707.269 49.3ZM717.908 44.2C717.908 43.42 718.038 42.72 718.298 42.1C718.578 41.46 718.968 40.92 719.468 40.48C719.988 40.04 720.608 39.7 721.328 39.46C722.048 39.22 722.858 39.1 723.758 39.1H728.678V37.75C728.678 36.73 728.338 35.94 727.658 35.38C726.998 34.8 726.038 34.51 724.778 34.51C723.858 34.51 723.068 34.68 722.408 35.02C721.768 35.36 721.338 35.83 721.118 36.43H718.418C718.698 35.13 719.408 34.1 720.548 33.34C721.708 32.58 723.138 32.2 724.838 32.2C726.878 32.2 728.478 32.68 729.638 33.64C730.798 34.58 731.378 35.9 731.378 37.6V49H728.918V45.85H728.678C728.418 46.91 727.808 47.75 726.848 48.37C725.888 48.99 724.718 49.3 723.338 49.3C721.678 49.3 720.358 48.84 719.378 47.92C718.398 47 717.908 45.76 717.908 44.2ZM723.938 47.08C724.618 47.08 725.248 46.99 725.828 46.81C726.408 46.63 726.908 46.38 727.328 46.06C727.748 45.72 728.078 45.33 728.318 44.89C728.558 44.45 728.678 43.97 728.678 43.45V41.2H723.818C722.818 41.2 722.028 41.46 721.448 41.98C720.888 42.5 720.608 43.22 720.608 44.14C720.608 45.06 720.898 45.78 721.478 46.3C722.058 46.82 722.878 47.08 723.938 47.08ZM735.806 32.5H740.606V27.4H743.306V32.5H749.756V34.96H743.306V44.74C743.306 45.3 743.476 45.74 743.816 46.06C744.176 46.38 744.656 46.54 745.256 46.54H749.456V49H745.256C743.836 49 742.706 48.61 741.866 47.83C741.026 47.05 740.606 46.02 740.606 44.74V34.96H735.806V32.5ZM753.794 32.5H758.594V27.4H761.294V32.5H767.744V34.96H761.294V44.74C761.294 45.3 761.464 45.74 761.804 46.06C762.164 46.38 762.644 46.54 763.244 46.54H767.444V49H763.244C761.824 49 760.694 48.61 759.854 47.83C759.014 47.05 758.594 46.02 758.594 44.74V34.96H753.794V32.5ZM778.982 49.3C776.922 49.3 775.302 48.74 774.122 47.62C772.962 46.5 772.382 44.96 772.382 43V38.5C772.382 36.54 772.962 35 774.122 33.88C775.302 32.76 776.922 32.2 778.982 32.2C781.042 32.2 782.652 32.76 783.812 33.88C784.992 35 785.582 36.54 785.582 38.5V41.53H775.082V42.85C775.082 44.11 775.422 45.1 776.102 45.82C776.802 46.54 777.762 46.9 778.982 46.9C779.882 46.9 780.662 46.76 781.322 46.48C781.982 46.2 782.472 45.79 782.792 45.25H785.492C785.152 46.51 784.392 47.5 783.212 48.22C782.052 48.94 780.642 49.3 778.982 49.3ZM782.882 39.28V38.5C782.882 37.26 782.542 36.3 781.862 35.62C781.182 34.94 780.222 34.6 778.982 34.6C777.742 34.6 776.782 34.94 776.102 35.62C775.422 36.3 775.082 37.26 775.082 38.5V39.28H782.882ZM791.331 32.5H793.881V35.35H794.121C794.381 34.37 794.921 33.6 795.741 33.04C796.561 32.48 797.571 32.2 798.771 32.2C800.511 32.2 801.871 32.75 802.851 33.85C803.851 34.93 804.351 36.42 804.351 38.32V39.25H801.651V38.65C801.651 37.35 801.321 36.35 800.661 35.65C800.021 34.93 799.101 34.57 797.901 34.57C796.721 34.57 795.781 34.94 795.081 35.68C794.381 36.4 794.031 37.39 794.031 38.65V49H791.331V32.5ZM808.809 49V46.54H814.809V34.96H809.559V32.5H817.509V46.54H822.459V49H808.809ZM815.409 26.05H816.009C816.589 26.05 817.059 26.22 817.419 26.56C817.779 26.9 817.959 27.34 817.959 27.88C817.959 28.42 817.779 28.85 817.419 29.17C817.059 29.49 816.589 29.65 816.009 29.65H815.409C814.829 29.65 814.359 29.5 813.999 29.2C813.639 28.88 813.459 28.44 813.459 27.88C813.459 27.34 813.639 26.9 813.999 26.56C814.359 26.22 814.829 26.05 815.409 26.05ZM826.587 49V32.5H829.137V35.35H829.377C829.637 34.35 830.157 33.58 830.937 33.04C831.737 32.48 832.727 32.2 833.907 32.2C834.727 32.2 835.467 32.34 836.127 32.62C836.807 32.9 837.377 33.3 837.837 33.82C838.317 34.32 838.687 34.93 838.947 35.65C839.207 36.35 839.337 37.14 839.337 38.02V49H836.637V38.47C836.637 37.21 836.317 36.23 835.677 35.53C835.037 34.83 834.147 34.48 833.007 34.48C831.867 34.48 830.957 34.86 830.277 35.62C829.617 36.36 829.287 37.37 829.287 38.65V49H826.587ZM844.126 38.5C844.126 37.54 844.256 36.67 844.516 35.89C844.776 35.11 845.146 34.45 845.626 33.91C846.126 33.37 846.726 32.95 847.426 32.65C848.126 32.35 848.906 32.2 849.766 32.2C850.966 32.2 851.986 32.49 852.826 33.07C853.666 33.63 854.236 34.44 854.536 35.5H854.746V32.5H857.296V47.8C857.296 49.74 856.726 51.25 855.586 52.33C854.446 53.41 852.846 53.95 850.786 53.95H846.736V51.49H850.786C851.986 51.49 852.916 51.17 853.576 50.53C854.256 49.89 854.596 48.98 854.596 47.8V47.2L854.716 44.2H854.536C854.236 45.26 853.666 46.08 852.826 46.66C851.986 47.22 850.966 47.5 849.766 47.5C848.906 47.5 848.126 47.35 847.426 47.05C846.746 46.75 846.156 46.33 845.656 45.79C845.176 45.25 844.796 44.59 844.516 43.81C844.256 43.03 844.126 42.16 844.126 41.2V38.5ZM846.886 41.2C846.886 42.44 847.226 43.41 847.906 44.11C848.606 44.81 849.556 45.16 850.756 45.16C851.956 45.16 852.896 44.81 853.576 44.11C854.256 43.41 854.596 42.44 854.596 41.2V38.5C854.596 37.26 854.256 36.29 853.576 35.59C852.896 34.89 851.956 34.54 850.756 34.54C849.556 34.54 848.606 34.89 847.906 35.59C847.226 36.29 846.886 37.26 846.886 38.5V41.2Z" fill="#4675D0"/>
<circle cx="594" cy="85" r="17" fill="#D04646"/>
<path d="M631.182 88.85C631.182 90.09 631.532 91.08 632.232 91.82C632.932 92.54 633.882 92.9 635.082 92.9C636.282 92.9 637.232 92.54 637.932 91.82C638.632 91.08 638.982 90.09 638.982 88.85V79.55C638.982 78.31 638.632 77.33 637.932 76.61C637.232 75.87 636.282 75.5 635.082 75.5C633.882 75.5 632.932 75.87 632.232 76.61C631.532 77.33 631.182 78.31 631.182 79.55V88.85ZM628.482 79.55C628.482 78.57 628.632 77.68 628.932 76.88C629.252 76.08 629.692 75.4 630.252 74.84C630.832 74.28 631.522 73.85 632.322 73.55C633.142 73.25 634.062 73.1 635.082 73.1C636.102 73.1 637.012 73.25 637.812 73.55C638.632 73.85 639.322 74.28 639.882 74.84C640.462 75.4 640.902 76.08 641.202 76.88C641.522 77.68 641.682 78.57 641.682 79.55V88.85C641.682 89.83 641.522 90.72 641.202 91.52C640.902 92.3 640.462 92.97 639.882 93.53C639.322 94.09 638.632 94.53 637.812 94.85C636.992 95.15 636.082 95.3 635.082 95.3C634.062 95.3 633.142 95.15 632.322 94.85C631.522 94.55 630.832 94.12 630.252 93.56C629.692 93 629.252 92.32 628.932 91.52C628.632 90.72 628.482 89.83 628.482 88.85V79.55ZM646.77 78.5H649.47V89.18C649.47 91.68 650.66 92.93 653.04 92.93C655.46 92.93 656.67 91.68 656.67 89.18V78.5H659.37V89.18C659.37 91.14 658.82 92.65 657.72 93.71C656.64 94.77 655.08 95.3 653.04 95.3C651.04 95.3 649.49 94.77 648.39 93.71C647.31 92.63 646.77 91.12 646.77 89.18V78.5ZM663.859 78.5H668.659V73.4H671.359V78.5H677.809V80.96H671.359V90.74C671.359 91.3 671.529 91.74 671.869 92.06C672.229 92.38 672.709 92.54 673.309 92.54H677.509V95H673.309C671.889 95 670.759 94.61 669.919 93.83C669.079 93.05 668.659 92.02 668.659 90.74V80.96H663.859V78.5ZM683.047 83.9H695.047V86.3H683.047V83.9ZM707.035 95.3C706.055 95.3 705.145 95.17 704.305 94.91C703.465 94.63 702.735 94.24 702.115 93.74C701.515 93.22 701.035 92.6 700.675 91.88C700.335 91.16 700.155 90.35 700.135 89.45H702.985C702.985 89.97 703.085 90.44 703.285 90.86C703.505 91.28 703.805 91.64 704.185 91.94C704.565 92.24 705.005 92.48 705.505 92.66C706.005 92.82 706.535 92.9 707.095 92.9C708.355 92.9 709.355 92.61 710.095 92.03C710.835 91.43 711.205 90.62 711.205 89.6C711.205 88.74 710.935 87.98 710.395 87.32C709.855 86.64 709.075 86.11 708.055 85.73L705.775 84.89C702.435 83.67 700.765 81.65 700.765 78.83C700.765 77.03 701.335 75.63 702.475 74.63C703.615 73.61 705.185 73.1 707.185 73.1C708.125 73.1 708.985 73.23 709.765 73.49C710.545 73.75 711.215 74.13 711.775 74.63C712.355 75.13 712.805 75.74 713.125 76.46C713.465 77.16 713.645 77.95 713.665 78.83H710.815C710.815 78.33 710.715 77.88 710.515 77.48C710.315 77.06 710.045 76.71 709.705 76.43C709.385 76.13 709.005 75.9 708.565 75.74C708.125 75.58 707.655 75.5 707.155 75.5C706.015 75.5 705.115 75.77 704.455 76.31C703.815 76.85 703.495 77.58 703.495 78.5C703.495 79.4 703.735 80.15 704.215 80.75C704.715 81.33 705.515 81.82 706.615 82.22L709.015 83.09C710.615 83.67 711.835 84.51 712.675 85.61C713.515 86.71 713.935 88.01 713.935 89.51C713.935 91.31 713.315 92.73 712.075 93.77C710.855 94.79 709.175 95.3 707.035 95.3ZM725.263 95.3C724.243 95.3 723.323 95.15 722.503 94.85C721.703 94.55 721.013 94.12 720.433 93.56C719.873 93 719.433 92.32 719.113 91.52C718.813 90.72 718.663 89.83 718.663 88.85V84.65C718.663 83.67 718.813 82.78 719.113 81.98C719.433 81.18 719.873 80.5 720.433 79.94C721.013 79.38 721.703 78.95 722.503 78.65C723.323 78.35 724.243 78.2 725.263 78.2C727.083 78.2 728.573 78.7 729.733 79.7C730.913 80.68 731.623 82.03 731.863 83.75H729.163C729.023 82.79 728.593 82.03 727.873 81.47C727.173 80.89 726.303 80.6 725.263 80.6C724.063 80.6 723.113 80.96 722.413 81.68C721.713 82.4 721.363 83.39 721.363 84.65V88.85C721.363 90.11 721.703 91.1 722.383 91.82C723.083 92.54 724.043 92.9 725.263 92.9C726.303 92.9 727.173 92.62 727.873 92.06C728.593 91.48 729.023 90.71 729.163 89.75H731.863C731.603 91.49 730.883 92.85 729.703 93.83C728.543 94.81 727.063 95.3 725.263 95.3ZM735.902 90.2C735.902 89.42 736.032 88.72 736.292 88.1C736.572 87.46 736.962 86.92 737.462 86.48C737.982 86.04 738.602 85.7 739.322 85.46C740.042 85.22 740.852 85.1 741.752 85.1H746.672V83.75C746.672 82.73 746.332 81.94 745.652 81.38C744.992 80.8 744.032 80.51 742.772 80.51C741.852 80.51 741.062 80.68 740.402 81.02C739.762 81.36 739.332 81.83 739.112 82.43H736.412C736.692 81.13 737.402 80.1 738.542 79.34C739.702 78.58 741.132 78.2 742.832 78.2C744.872 78.2 746.472 78.68 747.632 79.64C748.792 80.58 749.372 81.9 749.372 83.6V95H746.912V91.85H746.672C746.412 92.91 745.802 93.75 744.842 94.37C743.882 94.99 742.712 95.3 741.332 95.3C739.672 95.3 738.352 94.84 737.372 93.92C736.392 93 735.902 91.76 735.902 90.2ZM741.932 93.08C742.612 93.08 743.242 92.99 743.822 92.81C744.402 92.63 744.902 92.38 745.322 92.06C745.742 91.72 746.072 91.33 746.312 90.89C746.552 90.45 746.672 89.97 746.672 89.45V87.2H741.812C740.812 87.2 740.022 87.46 739.442 87.98C738.882 88.5 738.602 89.22 738.602 90.14C738.602 91.06 738.892 91.78 739.472 92.3C740.052 92.82 740.872 93.08 741.932 93.08ZM753.8 78.5H758.6V73.4H761.3V78.5H767.75V80.96H761.3V90.74C761.3 91.3 761.47 91.74 761.81 92.06C762.17 92.38 762.65 92.54 763.25 92.54H767.45V95H763.25C761.83 95 760.7 94.61 759.86 93.83C759.02 93.05 758.6 92.02 758.6 90.74V80.96H753.8V78.5ZM771.788 78.5H776.588V73.4H779.288V78.5H785.738V80.96H779.288V90.74C779.288 91.3 779.458 91.74 779.798 92.06C780.158 92.38 780.638 92.54 781.238 92.54H785.438V95H781.238C779.818 95 778.688 94.61 777.848 93.83C777.008 93.05 776.588 92.02 776.588 90.74V80.96H771.788V78.5ZM796.977 95.3C794.917 95.3 793.297 94.74 792.117 93.62C790.957 92.5 790.377 90.96 790.377 89V84.5C790.377 82.54 790.957 81 792.117 79.88C793.297 78.76 794.917 78.2 796.977 78.2C799.037 78.2 800.647 78.76 801.807 79.88C802.987 81 803.577 82.54 803.577 84.5V87.53H793.077V88.85C793.077 90.11 793.417 91.1 794.097 91.82C794.797 92.54 795.757 92.9 796.977 92.9C797.877 92.9 798.657 92.76 799.317 92.48C799.977 92.2 800.467 91.79 800.787 91.25H803.487C803.147 92.51 802.387 93.5 801.207 94.22C800.047 94.94 798.637 95.3 796.977 95.3ZM800.877 85.28V84.5C800.877 83.26 800.537 82.3 799.857 81.62C799.177 80.94 798.217 80.6 796.977 80.6C795.737 80.6 794.777 80.94 794.097 81.62C793.417 82.3 793.077 83.26 793.077 84.5V85.28H800.877ZM809.325 78.5H811.875V81.35H812.115C812.375 80.37 812.915 79.6 813.735 79.04C814.555 78.48 815.565 78.2 816.765 78.2C818.505 78.2 819.865 78.75 820.845 79.85C821.845 80.93 822.345 82.42 822.345 84.32V85.25H819.645V84.65C819.645 83.35 819.315 82.35 818.655 81.65C818.015 80.93 817.095 80.57 815.895 80.57C814.715 80.57 813.775 80.94 813.075 81.68C812.375 82.4 812.025 83.39 812.025 84.65V95H809.325V78.5ZM826.803 95V92.54H832.803V80.96H827.553V78.5H835.503V92.54H840.453V95H826.803ZM833.403 72.05H834.003C834.583 72.05 835.053 72.22 835.413 72.56C835.773 72.9 835.953 73.34 835.953 73.88C835.953 74.42 835.773 74.85 835.413 75.17C835.053 75.49 834.583 75.65 834.003 75.65H833.403C832.823 75.65 832.353 75.5 831.993 75.2C831.633 74.88 831.453 74.44 831.453 73.88C831.453 73.34 831.633 72.9 831.993 72.56C832.353 72.22 832.823 72.05 833.403 72.05ZM844.581 95V78.5H847.131V81.35H847.371C847.631 80.35 848.151 79.58 848.931 79.04C849.731 78.48 850.721 78.2 851.901 78.2C852.721 78.2 853.461 78.34 854.121 78.62C854.801 78.9 855.371 79.3 855.831 79.82C856.311 80.32 856.681 80.93 856.941 81.65C857.201 82.35 857.331 83.14 857.331 84.02V95H854.631V84.47C854.631 83.21 854.311 82.23 853.671 81.53C853.031 80.83 852.141 80.48 851.001 80.48C849.861 80.48 848.951 80.86 848.271 81.62C847.611 82.36 847.281 83.37 847.281 84.65V95H844.581ZM862.12 84.5C862.12 83.54 862.25 82.67 862.51 81.89C862.77 81.11 863.14 80.45 863.62 79.91C864.12 79.37 864.72 78.95 865.42 78.65C866.12 78.35 866.9 78.2 867.76 78.2C868.96 78.2 869.98 78.49 870.82 79.07C871.66 79.63 872.23 80.44 872.53 81.5H872.74V78.5H875.29V93.8C875.29 95.74 874.72 97.25 873.58 98.33C872.44 99.41 870.84 99.95 868.78 99.95H864.73V97.49H868.78C869.98 97.49 870.91 97.17 871.57 96.53C872.25 95.89 872.59 94.98 872.59 93.8V93.2L872.71 90.2H872.53C872.23 91.26 871.66 92.08 870.82 92.66C869.98 93.22 868.96 93.5 867.76 93.5C866.9 93.5 866.12 93.35 865.42 93.05C864.74 92.75 864.15 92.33 863.65 91.79C863.17 91.25 862.79 90.59 862.51 89.81C862.25 89.03 862.12 88.16 862.12 87.2V84.5ZM864.88 87.2C864.88 88.44 865.22 89.41 865.9 90.11C866.6 90.81 867.55 91.16 868.75 91.16C869.95 91.16 870.89 90.81 871.57 90.11C872.25 89.41 872.59 88.44 872.59 87.2V84.5C872.59 83.26 872.25 82.29 871.57 81.59C870.89 80.89 869.95 80.54 868.75 80.54C867.55 80.54 866.6 80.89 865.9 81.59C865.22 82.29 864.88 83.26 864.88 84.5V87.2Z" fill="#D04646"/>
</svg>
