<svg width="587" height="650" viewBox="0 0 587 650" fill="none" xmlns="http://www.w3.org/2000/svg">
<path d="M268 444L227 425" stroke="#474747" stroke-width="2" stroke-linecap="round"/>
<line x1="401.776" y1="158.863" x2="460.776" y2="302.863" stroke="#4675D0" stroke-width="6" stroke-dasharray="6 6"/>
<circle cx="132.5" cy="132.5" r="130.5" transform="matrix(1 0 0 -1 0 650)" fill="#F2F2F2" stroke="#474747" stroke-width="4"/>
<circle cx="110.5" cy="110.5" r="108.5" transform="matrix(1 0 0 -1 348 417)" fill="#F2F2F2" stroke="#474747" stroke-width="4"/>
<path d="M97.2661 386.75L217.438 295.319" stroke="#4675D0" stroke-width="6"/>
<path d="M209.621 288.347C209.157 287.737 209.524 286.853 210.284 286.751L231.914 283.842C232.683 283.738 233.271 284.512 232.967 285.225L224.393 305.296C224.092 306.001 223.142 306.119 222.678 305.509L209.621 288.347Z" fill="#4675D0"/>
<path d="M236.266 420.091L356.438 328.66" stroke="#4675D0" stroke-width="6"/>
<path d="M348.621 321.688C348.157 321.078 348.524 320.194 349.284 320.092L370.914 317.182C371.683 317.079 372.271 317.853 371.967 318.566L363.393 338.637C363.092 339.342 362.142 339.46 361.678 338.849L348.621 321.688Z" fill="#4675D0"/>
<path d="M398.811 158.814L518.983 67.3831" stroke="#4675D0" stroke-width="6"/>
<path d="M511.165 60.4115C510.701 59.8013 511.068 58.9171 511.828 58.8149L533.458 55.9055C534.227 55.8021 534.816 56.5758 534.511 57.2894L525.938 77.3598C525.636 78.0649 524.686 78.1827 524.222 77.5725L511.165 60.4115Z" fill="#4675D0"/>
<path d="M248.039 272.782L368.211 181.351" stroke="#4675D0" stroke-width="6"/>
<path d="M360.393 174.379C359.929 173.769 360.296 172.885 361.056 172.783L382.686 169.874C383.455 169.77 384.044 170.544 383.739 171.257L375.166 191.328C374.864 192.033 373.914 192.151 373.45 191.541L360.393 174.379Z" fill="#4675D0"/>
<circle cx="227" cy="425" r="14" fill="#F2F2F2" stroke="#474747" stroke-width="6"/>
<circle cx="90" cy="390" r="14" fill="#F2F2F2" stroke="#474747" stroke-width="6"/>
<circle cx="248.538" cy="273.322" r="14" transform="rotate(-37.2651 248.538 273.322)" fill="#F2F2F2" stroke="#474747" stroke-width="6"/>
<path d="M209.112 234.712C209.892 234.118 210.691 233.699 211.51 233.453C212.328 233.208 213.13 233.138 213.914 233.245C214.715 233.339 215.471 233.606 216.182 234.045C216.897 234.456 217.539 235.036 218.108 235.784C218.677 236.532 219.071 237.313 219.288 238.128C219.494 238.926 219.535 239.724 219.413 240.521C219.306 241.306 219.025 242.06 218.57 242.783C218.115 243.506 217.506 244.158 216.742 244.739L213.089 247.519L218.538 254.681L216.39 256.316L203.311 239.126L209.112 234.712ZM206.913 239.401L211.636 245.609L215.289 242.829C216.18 242.151 216.684 241.328 216.802 240.359C216.907 239.374 216.602 238.412 215.888 237.473C215.173 236.534 214.333 235.992 213.368 235.846C212.391 235.685 211.457 235.944 210.566 236.622L206.913 239.401ZM229.252 243.514L233.86 240.008L224.687 227.951C224.59 227.824 224.481 227.681 224.36 227.521C224.243 227.334 224.129 227.169 224.02 227.026C223.911 226.883 223.821 226.763 223.748 226.668C223.679 226.544 223.645 226.482 223.645 226.482L223.597 226.519C223.558 226.699 223.513 226.871 223.462 227.036C223.427 227.188 223.385 227.346 223.334 227.511C223.299 227.663 223.258 227.807 223.211 227.943L221.588 232.797L219.935 230.624L221.638 225.182L224.383 223.093L236.009 238.373L239.877 235.431L241.33 237.341L230.705 245.424L229.252 243.514Z" fill="black"/>
<circle cx="399.31" cy="159.353" r="14" transform="rotate(-37.2651 399.31 159.353)" fill="#F2F2F2" stroke="#474747" stroke-width="6"/>
<path d="M359.885 120.743C360.665 120.15 361.464 119.731 362.282 119.485C363.1 119.239 363.902 119.17 364.687 119.276C365.487 119.371 366.243 119.638 366.954 120.077C367.669 120.488 368.311 121.067 368.88 121.815C369.449 122.564 369.843 123.345 370.06 124.159C370.266 124.958 370.307 125.756 370.185 126.553C370.078 127.337 369.798 128.091 369.343 128.814C368.888 129.538 368.278 130.19 367.514 130.771L363.861 133.55L369.311 140.713L367.162 142.348L354.083 125.158L359.885 120.743ZM357.685 125.433L362.408 131.64L366.061 128.861C366.952 128.183 367.456 127.359 367.574 126.391C367.679 125.406 367.374 124.444 366.66 123.505C365.945 122.566 365.106 122.024 364.141 121.878C363.163 121.717 362.229 121.975 361.338 122.654L357.685 125.433ZM381.949 111.118C382.93 112.407 383.523 113.929 383.727 115.684C383.935 117.411 383.775 119.53 383.249 122.041L382.267 126.746C382.236 126.87 382.197 127.001 382.15 127.137C382.103 127.273 382.056 127.41 382.009 127.546C381.942 127.723 381.877 127.885 381.814 128.033L381.887 128.129C382.129 127.919 382.37 127.724 382.609 127.542C382.819 127.356 383.036 127.179 383.259 127.009C383.498 126.828 383.713 126.664 383.904 126.519L390.255 121.687L391.744 123.645L381 131.819L379.184 129.432L380.759 122.089C380.995 120.979 381.153 119.98 381.23 119.091C381.324 118.191 381.329 117.371 381.243 116.631C381.158 115.892 380.994 115.213 380.749 114.594C380.505 113.976 380.171 113.388 379.747 112.831C379.069 111.94 378.266 111.446 377.337 111.348C376.412 111.222 375.496 111.505 374.589 112.195C373.586 112.958 372.982 113.832 372.777 114.817C372.587 115.791 372.82 116.707 373.474 117.567L371.253 119.256C370.74 118.516 370.395 117.748 370.217 116.953C370.04 116.158 370.032 115.372 370.195 114.595C370.374 113.806 370.704 113.052 371.188 112.332C371.674 111.585 372.324 110.902 373.135 110.285C373.931 109.679 374.732 109.246 375.539 108.984C376.345 108.723 377.128 108.629 377.889 108.704C378.649 108.779 379.373 109.02 380.06 109.427C380.762 109.822 381.392 110.386 381.949 111.118Z" fill="black"/>
<path d="M545.246 48.9679C544.774 48.3472 544.589 47.7084 544.693 47.0517C544.768 46.3912 545.116 45.8247 545.737 45.3524C546.358 44.8802 547.005 44.6897 547.677 44.7811C548.322 44.8686 548.88 45.2228 549.353 45.8435C549.837 46.4802 550.048 47.1368 549.984 47.8132C549.893 48.4859 549.537 49.0583 548.916 49.5306C548.295 50.0029 547.657 50.1873 547 50.0839C546.315 49.9766 545.731 49.6046 545.246 48.9679ZM557.16 39.9035C556.688 39.2828 556.503 38.644 556.607 37.9873C556.682 37.3268 557.03 36.7603 557.651 36.2881C558.272 35.8158 558.918 35.6253 559.591 35.7167C560.236 35.8042 560.794 36.1584 561.266 36.7791C561.751 37.4158 561.961 38.0724 561.898 38.7488C561.807 39.4215 561.451 39.9939 560.83 40.4662C560.209 40.9385 559.57 41.1229 558.914 41.0195C558.229 40.9122 557.644 40.5402 557.16 39.9035ZM569.074 30.8391C568.601 30.2184 568.409 29.5857 568.497 28.9411C568.588 28.2684 568.944 27.6959 569.565 27.2237C570.185 26.7514 570.824 26.567 571.481 26.6704C572.141 26.7459 572.708 27.094 573.18 27.7147C573.665 28.3514 573.867 29.014 573.788 29.7026C573.712 30.3631 573.364 30.9295 572.744 31.4018C572.123 31.8741 571.476 32.0646 570.804 31.9732C570.135 31.8538 569.558 31.4758 569.074 30.8391Z" fill="black"/>
<path d="M280 464.3C277.84 464.3 276.15 463.72 274.93 462.56C273.71 461.4 273.1 459.8 273.1 457.76V442.4H276.88V457.73C276.88 458.77 277.14 459.58 277.66 460.16C278.2 460.74 278.98 461.03 280 461.03C281 461.03 281.77 460.74 282.31 460.16C282.87 459.58 283.15 458.77 283.15 457.73V442.4H286.9V457.76C286.9 459.8 286.29 461.4 285.07 462.56C283.85 463.72 282.16 464.3 280 464.3ZM290.458 447.5H293.308V449.9H293.578C293.638 449.06 293.908 448.4 294.388 447.92C294.888 447.44 295.548 447.2 296.368 447.2C297.148 447.2 297.798 447.44 298.318 447.92C298.858 448.4 299.228 449.06 299.428 449.9H299.548C299.608 449.06 299.878 448.4 300.358 447.92C300.858 447.44 301.518 447.2 302.338 447.2C303.338 447.2 304.118 447.58 304.678 448.34C305.258 449.08 305.548 450.1 305.548 451.4V464H302.398V451.7C302.398 450.46 301.918 449.84 300.958 449.84C300.038 449.84 299.578 450.48 299.578 451.76V464H296.428V451.7C296.428 450.68 296.098 450.08 295.438 449.9C295.238 449.86 295.088 449.84 294.988 449.84C294.888 449.84 294.738 449.86 294.538 449.9C293.918 450.08 293.608 450.7 293.608 451.76V464H290.458V447.5ZM309.167 442.1H312.947V447.38C312.947 447.66 312.937 447.98 312.917 448.34C312.917 448.68 312.907 449 312.887 449.3C312.847 449.64 312.817 449.99 312.797 450.35H313.067C313.267 449.37 313.747 448.6 314.507 448.04C315.287 447.48 316.277 447.2 317.477 447.2C318.337 447.2 319.117 447.35 319.817 447.65C320.517 447.95 321.107 448.38 321.587 448.94C322.087 449.5 322.467 450.18 322.727 450.98C323.007 451.76 323.147 452.65 323.147 453.65V457.76C323.147 458.76 323.007 459.67 322.727 460.49C322.467 461.29 322.087 461.98 321.587 462.56C321.107 463.12 320.517 463.55 319.817 463.85C319.117 464.15 318.337 464.3 317.477 464.3C316.277 464.3 315.287 464.02 314.507 463.46C313.747 462.9 313.267 462.12 313.067 461.12H312.797V464H309.167V442.1ZM312.947 457.76C312.947 458.74 313.227 459.53 313.787 460.13C314.367 460.73 315.147 461.03 316.127 461.03C317.147 461.03 317.947 460.73 318.527 460.13C319.107 459.51 319.397 458.69 319.397 457.67V453.74C319.397 452.72 319.107 451.92 318.527 451.34C317.947 450.74 317.147 450.44 316.127 450.44C315.167 450.44 314.397 450.74 313.817 451.34C313.237 451.94 312.947 452.74 312.947 453.74V457.76ZM327.815 447.5H331.355V450.35H331.625C331.825 449.35 332.325 448.58 333.125 448.04C333.925 447.48 334.945 447.2 336.185 447.2C337.965 447.2 339.355 447.75 340.355 448.85C341.355 449.95 341.855 451.47 341.855 453.41V454.61H337.925V453.74C337.925 452.68 337.635 451.86 337.055 451.28C336.475 450.68 335.675 450.38 334.655 450.38C333.695 450.38 332.935 450.68 332.375 451.28C331.835 451.88 331.565 452.7 331.565 453.74V464H327.815V447.5ZM344.483 459.38C344.483 458.56 344.633 457.83 344.933 457.19C345.233 456.53 345.663 455.97 346.223 455.51C346.783 455.05 347.453 454.7 348.233 454.46C349.033 454.2 349.923 454.07 350.903 454.07H355.043V452.66C355.043 451.9 354.753 451.3 354.173 450.86C353.613 450.4 352.833 450.17 351.833 450.17C351.013 450.17 350.323 450.32 349.763 450.62C349.203 450.92 348.843 451.33 348.683 451.85H344.993C345.253 450.41 345.993 449.28 347.213 448.46C348.433 447.62 349.973 447.2 351.833 447.2C352.893 447.2 353.853 447.33 354.713 447.59C355.573 447.83 356.303 448.19 356.903 448.67C357.503 449.13 357.963 449.7 358.283 450.38C358.623 451.04 358.793 451.78 358.793 452.6V464H355.253V460.76H355.013C354.813 461.84 354.243 462.7 353.303 463.34C352.383 463.98 351.233 464.3 349.853 464.3C348.213 464.3 346.903 463.86 345.923 462.98C344.963 462.08 344.483 460.88 344.483 459.38ZM351.143 461.36C352.283 461.36 353.213 461.09 353.933 460.55C354.673 459.99 355.043 459.29 355.043 458.45V456.53H350.933C350.093 456.53 349.433 456.74 348.953 457.16C348.473 457.58 348.233 458.17 348.233 458.93C348.233 459.69 348.483 460.29 348.983 460.73C349.503 461.15 350.223 461.36 351.143 461.36Z" fill="#474747"/>
<path d="M75.69 442.4C76.77 442.4 77.75 442.56 78.63 442.88C79.53 443.18 80.29 443.62 80.91 444.2C81.53 444.76 82.01 445.45 82.35 446.27C82.69 447.07 82.86 447.97 82.86 448.97C82.86 449.95 82.69 450.85 82.35 451.67C82.01 452.47 81.52 453.16 80.88 453.74C80.26 454.3 79.51 454.74 78.63 455.06C77.75 455.36 76.77 455.51 75.69 455.51H71.97V464H68.22V442.4H75.69ZM71.97 445.58V452.33H75.69C76.73 452.33 77.55 452.03 78.15 451.43C78.75 450.81 79.05 449.99 79.05 448.97C79.05 447.95 78.75 447.13 78.15 446.51C77.55 445.89 76.73 445.58 75.69 445.58H71.97ZM92.9883 464.3C91.9083 464.3 90.9183 464.15 90.0183 463.85C89.1383 463.53 88.3883 463.09 87.7683 462.53C87.1483 461.97 86.6683 461.29 86.3283 460.49C85.9883 459.69 85.8183 458.8 85.8183 457.82V453.65C85.8183 452.67 85.9883 451.78 86.3283 450.98C86.6683 450.18 87.1483 449.5 87.7683 448.94C88.3883 448.38 89.1383 447.95 90.0183 447.65C90.9183 447.35 91.9083 447.2 92.9883 447.2C94.0683 447.2 95.0483 447.36 95.9283 447.68C96.8083 447.98 97.5583 448.41 98.1783 448.97C98.7983 449.53 99.2783 450.21 99.6183 451.01C99.9583 451.81 100.128 452.7 100.128 453.68V456.68H89.5383V457.76C89.5383 458.86 89.8383 459.72 90.4383 460.34C91.0583 460.96 91.9083 461.27 92.9883 461.27C93.8083 461.27 94.4983 461.15 95.0583 460.91C95.6383 460.65 96.0483 460.28 96.2883 459.8H99.9783C99.7983 460.48 99.4983 461.1 99.0783 461.66C98.6583 462.22 98.1383 462.7 97.5183 463.1C96.9183 463.48 96.2283 463.78 95.4483 464C94.6883 464.2 93.8683 464.3 92.9883 464.3ZM96.4383 454.16V453.68C96.4383 452.58 96.1383 451.73 95.5383 451.13C94.9383 450.51 94.0883 450.2 92.9883 450.2C91.9083 450.2 91.0583 450.51 90.4383 451.13C89.8383 451.73 89.5383 452.57 89.5383 453.65V454.16H96.4383ZM104.137 464V447.5H107.707V450.35H107.977C108.157 449.35 108.627 448.58 109.387 448.04C110.147 447.48 111.127 447.2 112.327 447.2C113.987 447.2 115.307 447.74 116.287 448.82C117.267 449.9 117.757 451.36 117.757 453.2V464H114.007V453.65C114.007 452.65 113.737 451.87 113.197 451.31C112.657 450.73 111.917 450.44 110.977 450.44C110.017 450.44 109.257 450.74 108.697 451.34C108.157 451.92 107.887 452.72 107.887 453.74V464H104.137ZM122.215 447.5H125.995V457.82C125.995 459.96 126.985 461.03 128.965 461.03C130.965 461.03 131.965 459.96 131.965 457.82V447.5H135.715V457.82C135.715 459.88 135.115 461.48 133.915 462.62C132.735 463.74 131.085 464.3 128.965 464.3C126.825 464.3 125.165 463.73 123.985 462.59C122.805 461.45 122.215 459.86 122.215 457.82V447.5ZM139.423 447.5H142.273V449.9H142.543C142.603 449.06 142.873 448.4 143.353 447.92C143.853 447.44 144.513 447.2 145.333 447.2C146.113 447.2 146.763 447.44 147.283 447.92C147.823 448.4 148.193 449.06 148.393 449.9H148.513C148.573 449.06 148.843 448.4 149.323 447.92C149.823 447.44 150.483 447.2 151.303 447.2C152.303 447.2 153.083 447.58 153.643 448.34C154.223 449.08 154.513 450.1 154.513 451.4V464H151.363V451.7C151.363 450.46 150.883 449.84 149.923 449.84C149.003 449.84 148.543 450.48 148.543 451.76V464H145.393V451.7C145.393 450.68 145.063 450.08 144.403 449.9C144.203 449.86 144.053 449.84 143.953 449.84C143.853 449.84 143.703 449.86 143.503 449.9C142.883 450.08 142.573 450.7 142.573 451.76V464H139.423V447.5ZM158.131 442.1H161.911V447.38C161.911 447.66 161.901 447.98 161.881 448.34C161.881 448.68 161.871 449 161.851 449.3C161.811 449.64 161.781 449.99 161.761 450.35H162.031C162.231 449.37 162.711 448.6 163.471 448.04C164.251 447.48 165.241 447.2 166.441 447.2C167.301 447.2 168.081 447.35 168.781 447.65C169.481 447.95 170.071 448.38 170.551 448.94C171.051 449.5 171.431 450.18 171.691 450.98C171.971 451.76 172.111 452.65 172.111 453.65V457.76C172.111 458.76 171.971 459.67 171.691 460.49C171.431 461.29 171.051 461.98 170.551 462.56C170.071 463.12 169.481 463.55 168.781 463.85C168.081 464.15 167.301 464.3 166.441 464.3C165.241 464.3 164.251 464.02 163.471 463.46C162.711 462.9 162.231 462.12 162.031 461.12H161.761V464H158.131V442.1ZM161.911 457.76C161.911 458.74 162.191 459.53 162.751 460.13C163.331 460.73 164.111 461.03 165.091 461.03C166.111 461.03 166.911 460.73 167.491 460.13C168.071 459.51 168.361 458.69 168.361 457.67V453.74C168.361 452.72 168.071 451.92 167.491 451.34C166.911 450.74 166.111 450.44 165.091 450.44C164.131 450.44 163.361 450.74 162.781 451.34C162.201 451.94 161.911 452.74 161.911 453.74V457.76ZM176.78 447.5H180.32V450.35H180.59C180.79 449.35 181.29 448.58 182.09 448.04C182.89 447.48 183.91 447.2 185.15 447.2C186.93 447.2 188.32 447.75 189.32 448.85C190.32 449.95 190.82 451.47 190.82 453.41V454.61H186.89V453.74C186.89 452.68 186.6 451.86 186.02 451.28C185.44 450.68 184.64 450.38 183.62 450.38C182.66 450.38 181.9 450.68 181.34 451.28C180.8 451.88 180.53 452.7 180.53 453.74V464H176.78V447.5ZM193.448 459.38C193.448 458.56 193.598 457.83 193.898 457.19C194.198 456.53 194.628 455.97 195.188 455.51C195.748 455.05 196.418 454.7 197.198 454.46C197.998 454.2 198.888 454.07 199.868 454.07H204.008V452.66C204.008 451.9 203.718 451.3 203.138 450.86C202.578 450.4 201.798 450.17 200.798 450.17C199.978 450.17 199.288 450.32 198.728 450.62C198.168 450.92 197.808 451.33 197.648 451.85H193.958C194.218 450.41 194.958 449.28 196.178 448.46C197.398 447.62 198.938 447.2 200.798 447.2C201.858 447.2 202.818 447.33 203.678 447.59C204.538 447.83 205.268 448.19 205.868 448.67C206.468 449.13 206.928 449.7 207.248 450.38C207.588 451.04 207.758 451.78 207.758 452.6V464H204.218V460.76H203.978C203.778 461.84 203.208 462.7 202.268 463.34C201.348 463.98 200.198 464.3 198.818 464.3C197.178 464.3 195.868 463.86 194.888 462.98C193.928 462.08 193.448 460.88 193.448 459.38ZM200.108 461.36C201.248 461.36 202.178 461.09 202.898 460.55C203.638 459.99 204.008 459.29 204.008 458.45V456.53H199.898C199.058 456.53 198.398 456.74 197.918 457.16C197.438 457.58 197.198 458.17 197.198 458.93C197.198 459.69 197.448 460.29 197.948 460.73C198.468 461.15 199.188 461.36 200.108 461.36Z" fill="#474747"/>
<path d="M89 437L89 407" stroke="#474747" stroke-width="2" stroke-linecap="round"/>
<circle cx="387.417" cy="307.417" r="17" transform="rotate(5 387.417 307.417)" fill="#D04646"/>
<path d="M453.507 154.548L453.602 154.5H453.956C454.259 154.5 454.749 154.542 455.202 154.844C455.762 155.217 456.007 155.808 456.007 156.367C456.007 156.537 455.974 156.706 455.97 156.727L455.97 156.729C455.957 156.797 455.941 156.878 455.922 156.966C455.885 157.144 455.83 157.388 455.759 157.693C455.618 158.305 455.407 159.191 455.127 160.349C454.567 162.665 453.728 166.082 452.61 170.6C451.493 175.117 450.646 178.528 450.072 180.834C449.785 181.986 449.565 182.864 449.413 183.465C449.291 183.949 449.195 184.328 449.148 184.489C449.148 184.507 449.149 184.539 449.154 184.589L449.163 184.671V184.701C449.246 184.55 449.34 184.358 449.442 184.119C449.716 183.476 450.005 182.603 450.301 181.479L450.307 181.454L450.315 181.43C450.414 181.098 450.524 180.779 450.65 180.515C450.711 180.387 450.802 180.215 450.932 180.049C451.021 179.936 451.266 179.642 451.692 179.488C451.929 179.398 452.142 179.377 452.218 179.369L452.222 179.369C452.368 179.354 452.523 179.35 452.67 179.35H452.854H453.038C453.352 179.35 453.82 179.384 454.26 179.618C454.503 179.748 454.762 179.952 454.955 180.262C455.152 180.576 455.227 180.913 455.227 181.217C455.227 181.586 455.131 181.996 455.038 182.338C454.622 183.936 454.125 185.301 453.526 186.394C453.011 187.333 452.463 188.19 451.874 188.671C451.395 189.063 450.829 189.377 450.21 189.632L450.108 189.674L450.002 189.701C449.574 189.808 449.057 189.837 448.536 189.837C447.273 189.837 446.099 189.557 445.098 188.905C444.62 188.593 444.172 188.234 443.806 187.816C442.125 189.109 440.314 189.837 438.385 189.837C436.293 189.837 434.443 189.061 432.895 187.586C431.19 185.963 430.5 183.537 430.5 180.666C430.5 178.984 430.851 177.294 431.526 175.608C432.181 173.969 432.982 172.525 433.939 171.294L433.953 171.277L433.966 171.26C435.491 169.411 437.098 168.027 438.805 167.227C440.375 166.493 441.897 166.075 443.346 166.075C444.555 166.075 445.649 166.342 446.583 166.886C446.757 166.183 446.968 165.328 447.218 164.321C447.686 162.431 448.035 161.028 448.259 160.151C448.121 160.14 447.968 160.129 447.8 160.118H446.882H446.261L445.822 159.679C445.709 159.566 445.583 159.432 445.476 159.289C445.422 159.217 445.349 159.111 445.282 158.979C445.228 158.871 445.107 158.606 445.107 158.251C445.107 158.126 445.125 157.949 445.137 157.84L445.138 157.83C445.154 157.675 445.178 157.465 445.209 157.203L445.221 157.098L445.248 156.996C445.342 156.639 445.483 156.229 445.725 155.876C445.972 155.515 446.484 155.005 447.296 155.005C447.258 155.005 447.34 155 447.607 154.981C447.718 154.974 447.861 154.964 448.042 154.951C448.592 154.913 449.411 154.856 450.498 154.779C451.583 154.703 452.399 154.642 452.949 154.597C453.192 154.577 453.377 154.561 453.507 154.548ZM449.131 160.257C449.134 160.258 449.135 160.258 449.135 160.258C449.135 160.258 449.134 160.258 449.131 160.257ZM439.245 174.927L439.245 174.927L439.242 174.936C438.403 177.222 437.805 179.596 437.45 182.059V182.059V182.06V182.061V182.062V182.063V182.063V182.064V182.065V182.066V182.067V182.068V182.068V182.069V182.07V182.071V182.072V182.073V182.073V182.074V182.075V182.076V182.077V182.078V182.079V182.079V182.08V182.081V182.082V182.083V182.084V182.085V182.085V182.086V182.087V182.088V182.089V182.09V182.091V182.092V182.092V182.093V182.094V182.095V182.096V182.097V182.098V182.099V182.1V182.1V182.101V182.102V182.103V182.104V182.105V182.106V182.107V182.108V182.109V182.11V182.11V182.111V182.112V182.113V182.114V182.115V182.116V182.117V182.118V182.119V182.12V182.121V182.122V182.123V182.124V182.124V182.125V182.126V182.127V182.128V182.129V182.13V182.131V182.132V182.133V182.134V182.135V182.136V182.137V182.138V182.139V182.14V182.141V182.142V182.143V182.144V182.145V182.146V182.147V182.148V182.149V182.15V182.151V182.152V182.153V182.154V182.155V182.156V182.157V182.158V182.159V182.16V182.161V182.162V182.163V182.164V182.165V182.166V182.167V182.168V182.169V182.17V182.171V182.172V182.173V182.174V182.175V182.176V182.177V182.178V182.179V182.18V182.181V182.182V182.183V182.184V182.185V182.186V182.187V182.189V182.19V182.191V182.192V182.193V182.194V182.195V182.196V182.197V182.198V182.199V182.2V182.201V182.202V182.203V182.205V182.206V182.207V182.208V182.209V182.21V182.211V182.212V182.213V182.214V182.215V182.217V182.218V182.219V182.22V182.221V182.222V182.223V182.224V182.225V182.227V182.228V182.229V182.23V182.231V182.232V182.233V182.234V182.236V182.237V182.238V182.239V182.24V182.241V182.242V182.244V182.245V182.246V182.247V182.248V182.249V182.25V182.252V182.253V182.254V182.255V182.256V182.257V182.259V182.26V182.261V182.262V182.263V182.264V182.266V182.267V182.268V182.269V182.27V182.272V182.273V182.274V182.275V182.276V182.277V182.279V182.28V182.281V182.282V182.283V182.285V182.286V182.287V182.288V182.29V182.291V182.292V182.293V182.294V182.296V182.297V182.298V182.299V182.3V182.302V182.303V182.304V182.305V182.307V182.308V182.309V182.31V182.312V182.313V182.314V182.315V182.317V182.318V182.319V182.32V182.322V182.323V182.324V182.325V182.327V182.328V182.329V182.33V182.332V182.333V182.334V182.336V182.337V182.338V182.339V182.341V182.342V182.343V182.345V182.346V182.347V182.348V182.35V182.351V182.352V182.354V182.355V182.356V182.358V182.359V182.36V182.361V182.363V182.364V182.365V182.367V182.368V182.369V182.371V182.372V182.373V182.375V182.376V182.377V182.379V182.38V182.381V182.383V182.384V182.385V182.387V182.388V182.389V182.391V182.392V182.394V182.395V182.396V182.398V182.399V182.4V182.402V182.403V182.404V182.406V182.407V182.409V182.41V182.411V182.413V182.414V182.415V182.417V182.418V182.42V182.421V182.422V182.424V182.425V182.427V182.428V182.429V182.431V182.432V182.434V182.435V182.436V182.438V182.439V182.441V182.442V182.443V182.445V182.446V182.448V182.449V182.451V182.452V182.453V182.455V182.456V182.458C437.45 182.666 437.442 182.906 437.405 183.143C437.424 184.312 437.681 184.691 437.761 184.766C438.039 185.029 438.343 185.162 438.736 185.183C439.685 185.17 440.981 184.519 442.61 182.469L442.787 182.225L445.096 172.948C444.806 172.082 444.48 171.536 444.175 171.215C443.869 170.892 443.571 170.775 443.208 170.775C442.624 170.775 441.954 171.021 441.174 171.776C440.387 172.538 439.733 173.571 439.245 174.927Z" fill="#4675D0" stroke="#F2F2F2" stroke-width="3"/>
<mask id="path-25-outside-1_118_1243" maskUnits="userSpaceOnUse" x="452.182" y="176.768" width="32" height="21" fill="black">
<rect fill="white" x="452.182" y="176.768" width="32" height="21"/>
<path d="M455.701 193.274H456.156C457 193.274 457.509 193.122 457.682 192.819V192.56C457.682 192.365 457.682 192.116 457.682 191.813C457.682 191.51 457.682 191.174 457.682 190.806C457.682 190.438 457.693 190.016 457.715 189.539C457.736 189.063 457.736 188.608 457.715 188.175C457.715 187.504 457.715 186.79 457.715 186.032C457.715 185.274 457.704 184.636 457.682 184.116V183.369C457.617 182.958 457.466 182.687 457.228 182.557C456.989 182.427 456.502 182.33 455.766 182.265H455.182V181.518C455.182 181.02 455.203 180.771 455.247 180.771L455.571 180.739C455.788 180.717 456.091 180.695 456.481 180.674C456.87 180.652 457.271 180.63 457.682 180.609C458.05 180.587 458.44 180.565 458.851 180.544C459.263 180.522 459.577 180.49 459.793 180.446C460.01 180.403 460.129 180.392 460.15 180.414H460.248V181.713C460.248 182.536 460.259 182.947 460.28 182.947C460.302 182.947 460.356 182.893 460.443 182.785C460.529 182.676 460.659 182.514 460.832 182.297C461.005 182.081 461.211 181.886 461.449 181.713C461.687 181.54 462.001 181.334 462.391 181.096C462.781 180.858 463.192 180.685 463.625 180.576C464.058 180.468 464.61 180.414 465.281 180.414C465.606 180.414 465.909 180.436 466.191 180.479C466.472 180.522 466.721 180.587 466.938 180.674C467.154 180.76 467.36 180.847 467.555 180.933C467.749 181.02 467.912 181.118 468.042 181.226C468.172 181.334 468.291 181.453 468.399 181.583C468.507 181.713 468.605 181.832 468.691 181.94C468.778 182.048 468.854 182.168 468.919 182.297C468.983 182.427 469.027 182.536 469.048 182.622C469.07 182.709 469.103 182.795 469.146 182.882L469.211 183.044L469.308 182.914C469.373 182.828 469.438 182.741 469.503 182.655C469.568 182.568 469.665 182.449 469.795 182.297C469.925 182.146 470.066 182.005 470.218 181.875C470.369 181.745 470.531 181.605 470.705 181.453C470.878 181.302 471.094 181.172 471.354 181.063C471.614 180.955 471.863 180.847 472.101 180.739C472.339 180.63 472.621 180.555 472.945 180.511C473.27 180.468 473.606 180.436 473.952 180.414C476.68 180.414 478.163 181.637 478.401 184.084C478.423 184.235 478.434 185.74 478.434 188.598V191.39C478.434 192.213 478.455 192.7 478.499 192.852C478.542 193.003 478.661 193.112 478.856 193.177C479.311 193.241 479.841 193.274 480.447 193.274H480.967V194.768H480.707L479.96 194.735C479.44 194.714 478.888 194.703 478.304 194.703C477.719 194.703 477.308 194.692 477.07 194.67C474.84 194.67 473.627 194.703 473.433 194.768H473.173V193.274H473.692C475.013 193.274 475.673 193.101 475.673 192.754C475.695 192.711 475.706 191.217 475.706 188.273C475.684 185.35 475.663 183.802 475.641 183.629C475.511 183.023 475.294 182.568 474.991 182.265C474.688 181.962 474.428 181.778 474.212 181.713C473.995 181.648 473.714 181.626 473.368 181.648C472.393 181.648 471.538 182.016 470.802 182.752C470.218 183.337 469.849 183.932 469.698 184.538C469.546 185.144 469.46 186.043 469.438 187.234V189.312V191.261C469.438 191.91 469.449 192.343 469.471 192.56C469.492 192.776 469.525 192.917 469.568 192.982C469.611 193.047 469.709 193.112 469.86 193.177C470.315 193.241 470.845 193.274 471.452 193.274H471.971V194.768H471.711L470.932 194.735C470.434 194.714 469.893 194.703 469.308 194.703C468.724 194.703 468.312 194.692 468.074 194.67C465.844 194.67 464.632 194.703 464.437 194.768H464.177V193.274H464.697C466.017 193.274 466.678 193.101 466.678 192.754C466.699 192.711 466.71 191.217 466.71 188.273C466.689 185.35 466.667 183.802 466.645 183.629C466.515 183.023 466.299 182.568 465.996 182.265C465.693 181.962 465.433 181.778 465.216 181.713C465 181.648 464.718 181.626 464.372 181.648C463.398 181.648 462.543 182.016 461.807 182.752C461.222 183.337 460.854 183.932 460.702 184.538C460.551 185.144 460.464 186.043 460.443 187.234V189.312V191.261C460.443 191.91 460.453 192.343 460.475 192.56C460.497 192.776 460.529 192.917 460.572 192.982C460.616 193.047 460.713 193.112 460.865 193.177C461.319 193.241 461.85 193.274 462.456 193.274H462.976V194.768H462.716L461.969 194.735C461.449 194.714 460.897 194.703 460.313 194.703C459.728 194.703 459.317 194.692 459.079 194.67C456.849 194.67 455.636 194.703 455.441 194.768H455.182V193.274H455.701Z"/>
</mask>
<path d="M455.701 193.274H456.156C457 193.274 457.509 193.122 457.682 192.819V192.56C457.682 192.365 457.682 192.116 457.682 191.813C457.682 191.51 457.682 191.174 457.682 190.806C457.682 190.438 457.693 190.016 457.715 189.539C457.736 189.063 457.736 188.608 457.715 188.175C457.715 187.504 457.715 186.79 457.715 186.032C457.715 185.274 457.704 184.636 457.682 184.116V183.369C457.617 182.958 457.466 182.687 457.228 182.557C456.989 182.427 456.502 182.33 455.766 182.265H455.182V181.518C455.182 181.02 455.203 180.771 455.247 180.771L455.571 180.739C455.788 180.717 456.091 180.695 456.481 180.674C456.87 180.652 457.271 180.63 457.682 180.609C458.05 180.587 458.44 180.565 458.851 180.544C459.263 180.522 459.577 180.49 459.793 180.446C460.01 180.403 460.129 180.392 460.15 180.414H460.248V181.713C460.248 182.536 460.259 182.947 460.28 182.947C460.302 182.947 460.356 182.893 460.443 182.785C460.529 182.676 460.659 182.514 460.832 182.297C461.005 182.081 461.211 181.886 461.449 181.713C461.687 181.54 462.001 181.334 462.391 181.096C462.781 180.858 463.192 180.685 463.625 180.576C464.058 180.468 464.61 180.414 465.281 180.414C465.606 180.414 465.909 180.436 466.191 180.479C466.472 180.522 466.721 180.587 466.938 180.674C467.154 180.76 467.36 180.847 467.555 180.933C467.749 181.02 467.912 181.118 468.042 181.226C468.172 181.334 468.291 181.453 468.399 181.583C468.507 181.713 468.605 181.832 468.691 181.94C468.778 182.048 468.854 182.168 468.919 182.297C468.983 182.427 469.027 182.536 469.048 182.622C469.07 182.709 469.103 182.795 469.146 182.882L469.211 183.044L469.308 182.914C469.373 182.828 469.438 182.741 469.503 182.655C469.568 182.568 469.665 182.449 469.795 182.297C469.925 182.146 470.066 182.005 470.218 181.875C470.369 181.745 470.531 181.605 470.705 181.453C470.878 181.302 471.094 181.172 471.354 181.063C471.614 180.955 471.863 180.847 472.101 180.739C472.339 180.63 472.621 180.555 472.945 180.511C473.27 180.468 473.606 180.436 473.952 180.414C476.68 180.414 478.163 181.637 478.401 184.084C478.423 184.235 478.434 185.74 478.434 188.598V191.39C478.434 192.213 478.455 192.7 478.499 192.852C478.542 193.003 478.661 193.112 478.856 193.177C479.311 193.241 479.841 193.274 480.447 193.274H480.967V194.768H480.707L479.96 194.735C479.44 194.714 478.888 194.703 478.304 194.703C477.719 194.703 477.308 194.692 477.07 194.67C474.84 194.67 473.627 194.703 473.433 194.768H473.173V193.274H473.692C475.013 193.274 475.673 193.101 475.673 192.754C475.695 192.711 475.706 191.217 475.706 188.273C475.684 185.35 475.663 183.802 475.641 183.629C475.511 183.023 475.294 182.568 474.991 182.265C474.688 181.962 474.428 181.778 474.212 181.713C473.995 181.648 473.714 181.626 473.368 181.648C472.393 181.648 471.538 182.016 470.802 182.752C470.218 183.337 469.849 183.932 469.698 184.538C469.546 185.144 469.46 186.043 469.438 187.234V189.312V191.261C469.438 191.91 469.449 192.343 469.471 192.56C469.492 192.776 469.525 192.917 469.568 192.982C469.611 193.047 469.709 193.112 469.86 193.177C470.315 193.241 470.845 193.274 471.452 193.274H471.971V194.768H471.711L470.932 194.735C470.434 194.714 469.893 194.703 469.308 194.703C468.724 194.703 468.312 194.692 468.074 194.67C465.844 194.67 464.632 194.703 464.437 194.768H464.177V193.274H464.697C466.017 193.274 466.678 193.101 466.678 192.754C466.699 192.711 466.71 191.217 466.71 188.273C466.689 185.35 466.667 183.802 466.645 183.629C466.515 183.023 466.299 182.568 465.996 182.265C465.693 181.962 465.433 181.778 465.216 181.713C465 181.648 464.718 181.626 464.372 181.648C463.398 181.648 462.543 182.016 461.807 182.752C461.222 183.337 460.854 183.932 460.702 184.538C460.551 185.144 460.464 186.043 460.443 187.234V189.312V191.261C460.443 191.91 460.453 192.343 460.475 192.56C460.497 192.776 460.529 192.917 460.572 192.982C460.616 193.047 460.713 193.112 460.865 193.177C461.319 193.241 461.85 193.274 462.456 193.274H462.976V194.768H462.716L461.969 194.735C461.449 194.714 460.897 194.703 460.313 194.703C459.728 194.703 459.317 194.692 459.079 194.67C456.849 194.67 455.636 194.703 455.441 194.768H455.182V193.274H455.701Z" fill="#4675D0"/>
<path d="M455.701 193.274H456.156C457 193.274 457.509 193.122 457.682 192.819V192.56C457.682 192.365 457.682 192.116 457.682 191.813C457.682 191.51 457.682 191.174 457.682 190.806C457.682 190.438 457.693 190.016 457.715 189.539C457.736 189.063 457.736 188.608 457.715 188.175C457.715 187.504 457.715 186.79 457.715 186.032C457.715 185.274 457.704 184.636 457.682 184.116V183.369C457.617 182.958 457.466 182.687 457.228 182.557C456.989 182.427 456.502 182.33 455.766 182.265H455.182V181.518C455.182 181.02 455.203 180.771 455.247 180.771L455.571 180.739C455.788 180.717 456.091 180.695 456.481 180.674C456.87 180.652 457.271 180.63 457.682 180.609C458.05 180.587 458.44 180.565 458.851 180.544C459.263 180.522 459.577 180.49 459.793 180.446C460.01 180.403 460.129 180.392 460.15 180.414H460.248V181.713C460.248 182.536 460.259 182.947 460.28 182.947C460.302 182.947 460.356 182.893 460.443 182.785C460.529 182.676 460.659 182.514 460.832 182.297C461.005 182.081 461.211 181.886 461.449 181.713C461.687 181.54 462.001 181.334 462.391 181.096C462.781 180.858 463.192 180.685 463.625 180.576C464.058 180.468 464.61 180.414 465.281 180.414C465.606 180.414 465.909 180.436 466.191 180.479C466.472 180.522 466.721 180.587 466.938 180.674C467.154 180.76 467.36 180.847 467.555 180.933C467.749 181.02 467.912 181.118 468.042 181.226C468.172 181.334 468.291 181.453 468.399 181.583C468.507 181.713 468.605 181.832 468.691 181.94C468.778 182.048 468.854 182.168 468.919 182.297C468.983 182.427 469.027 182.536 469.048 182.622C469.07 182.709 469.103 182.795 469.146 182.882L469.211 183.044L469.308 182.914C469.373 182.828 469.438 182.741 469.503 182.655C469.568 182.568 469.665 182.449 469.795 182.297C469.925 182.146 470.066 182.005 470.218 181.875C470.369 181.745 470.531 181.605 470.705 181.453C470.878 181.302 471.094 181.172 471.354 181.063C471.614 180.955 471.863 180.847 472.101 180.739C472.339 180.63 472.621 180.555 472.945 180.511C473.27 180.468 473.606 180.436 473.952 180.414C476.68 180.414 478.163 181.637 478.401 184.084C478.423 184.235 478.434 185.74 478.434 188.598V191.39C478.434 192.213 478.455 192.7 478.499 192.852C478.542 193.003 478.661 193.112 478.856 193.177C479.311 193.241 479.841 193.274 480.447 193.274H480.967V194.768H480.707L479.96 194.735C479.44 194.714 478.888 194.703 478.304 194.703C477.719 194.703 477.308 194.692 477.07 194.67C474.84 194.67 473.627 194.703 473.433 194.768H473.173V193.274H473.692C475.013 193.274 475.673 193.101 475.673 192.754C475.695 192.711 475.706 191.217 475.706 188.273C475.684 185.35 475.663 183.802 475.641 183.629C475.511 183.023 475.294 182.568 474.991 182.265C474.688 181.962 474.428 181.778 474.212 181.713C473.995 181.648 473.714 181.626 473.368 181.648C472.393 181.648 471.538 182.016 470.802 182.752C470.218 183.337 469.849 183.932 469.698 184.538C469.546 185.144 469.46 186.043 469.438 187.234V189.312V191.261C469.438 191.91 469.449 192.343 469.471 192.56C469.492 192.776 469.525 192.917 469.568 192.982C469.611 193.047 469.709 193.112 469.86 193.177C470.315 193.241 470.845 193.274 471.452 193.274H471.971V194.768H471.711L470.932 194.735C470.434 194.714 469.893 194.703 469.308 194.703C468.724 194.703 468.312 194.692 468.074 194.67C465.844 194.67 464.632 194.703 464.437 194.768H464.177V193.274H464.697C466.017 193.274 466.678 193.101 466.678 192.754C466.699 192.711 466.71 191.217 466.71 188.273C466.689 185.35 466.667 183.802 466.645 183.629C466.515 183.023 466.299 182.568 465.996 182.265C465.693 181.962 465.433 181.778 465.216 181.713C465 181.648 464.718 181.626 464.372 181.648C463.398 181.648 462.543 182.016 461.807 182.752C461.222 183.337 460.854 183.932 460.702 184.538C460.551 185.144 460.464 186.043 460.443 187.234V189.312V191.261C460.443 191.91 460.453 192.343 460.475 192.56C460.497 192.776 460.529 192.917 460.572 192.982C460.616 193.047 460.713 193.112 460.865 193.177C461.319 193.241 461.85 193.274 462.456 193.274H462.976V194.768H462.716L461.969 194.735C461.449 194.714 460.897 194.703 460.313 194.703C459.728 194.703 459.317 194.692 459.079 194.67C456.849 194.67 455.636 194.703 455.441 194.768H455.182V193.274H455.701Z" stroke="#F2F2F2" stroke-width="6" mask="url(#path-25-outside-1_118_1243)"/>
<path d="M482.163 175.041L482.162 175.016V174.991C482.162 174.033 482.487 173.119 483.25 172.441C483.937 171.83 484.777 171.542 485.676 171.542H485.741L485.806 171.548C486.617 171.618 487.354 171.928 487.967 172.469C488.732 173.144 489.027 174.063 489.027 174.991C489.027 175.923 488.754 176.883 487.967 177.577C487.296 178.169 486.477 178.439 485.611 178.439C484.745 178.439 483.925 178.169 483.254 177.577C482.485 176.898 482.194 175.963 482.163 175.041ZM489.443 196.268H489.294L489.149 196.239C489.155 196.24 489.155 196.24 489.147 196.239C489.128 196.237 489.068 196.23 488.949 196.222C488.794 196.211 488.583 196.202 488.312 196.194C487.77 196.178 487.023 196.17 486.065 196.17H486.064H486.063H486.061H486.06H486.058H486.057H486.056H486.054H486.053H486.051H486.05H486.048H486.047H486.046H486.044H486.043H486.041H486.04H486.038H486.037H486.035H486.034H486.032H486.031H486.029H486.028H486.026H486.025H486.023H486.022H486.02H486.019H486.017H486.016H486.014H486.013H486.011H486.01H486.008H486.007H486.005H486.004H486.002H486H485.999H485.997H485.996H485.994H485.993H485.991H485.989H485.988H485.986H485.985H485.983H485.981H485.98H485.978H485.977H485.975H485.973H485.972H485.97H485.969H485.967H485.965H485.964H485.962H485.96H485.959H485.957H485.955H485.954H485.952H485.95H485.949H485.947H485.945H485.944H485.942H485.94H485.939H485.937H485.935H485.933H485.932H485.93H485.928H485.927H485.925H485.923H485.921H485.92H485.918H485.916H485.914H485.913H485.911H485.909H485.907H485.906H485.904H485.902H485.9H485.898H485.897H485.895H485.893H485.891H485.889H485.888H485.886H485.884H485.882H485.88H485.879H485.877H485.875H485.873H485.871H485.869H485.868H485.866H485.864H485.862H485.86H485.858H485.856H485.855H485.853H485.851H485.849H485.847H485.845H485.843H485.841H485.839H485.837H485.836H485.834H485.832H485.83H485.828H485.826H485.824H485.822H485.82H485.818H485.816H485.814H485.812H485.81H485.808H485.806H485.805H485.803H485.801H485.799H485.797H485.795H485.793H485.791H485.789H485.787H485.785H485.783H485.781H485.779H485.777H485.775H485.772H485.77H485.768H485.766H485.764H485.762H485.76H485.758H485.756H485.754H485.752H485.75H485.748H485.746H485.744H485.742H485.74H485.737H485.735H485.733H485.731H485.729H485.727H485.725H485.723H485.721H485.718H485.716H485.714H485.712H485.71H485.708H485.706H485.703H485.701H485.699H485.697H485.695H485.693H485.69H485.688H485.686H485.684H485.682H485.68H485.677H485.675H485.673H485.671H485.669H485.666H485.664H485.662H485.66H485.657H485.655H485.653H485.651H485.648H485.646H485.644H485.642H485.639H485.637H485.635H485.633H485.63H485.628H485.626H485.624H485.621H485.619H485.617H485.614H485.612H485.61H485.607H485.605H485.603H485.6H485.598H485.596H485.593H485.591H485.589H485.586H485.584H485.582H485.579H485.577H485.575H485.572H485.57H485.568H485.565H485.563H485.56H485.558H485.556H485.553H485.551H485.548H485.546H485.544H485.541H485.539H485.536H485.534H485.531H485.529H485.527H485.524H485.522H485.519H485.517H485.514H485.512H485.509H485.507H485.504H485.502H485.5H485.497H485.495H485.492H485.49H485.487H485.485H485.482H485.48H485.477H485.475H485.472H485.47H485.467H485.464H485.462H485.459H485.457H485.454H485.452H485.449H485.447H485.444H485.442H485.439H485.436H485.434H485.431H485.429H485.426H485.423H485.421H485.418H485.416H485.413H485.41H485.408H485.405H485.403H485.4H485.397H485.395H485.392H485.389H485.387H485.384H485.381H485.379H485.376H485.374H485.371H485.368H485.366H485.363H485.36H485.357H485.355H485.352H485.349H485.347H485.344H485.341H485.339H485.336H485.333H485.33H485.328H485.325H485.322H485.32H485.317H485.314H485.311H485.309H485.306H485.303H485.3H485.298H485.295H485.292H485.289H485.286H485.284H485.281H485.278H485.275H485.272H485.27H485.267H485.264H485.261H485.258H485.256H485.253H485.25H485.247H485.244H485.241H485.239H485.236H485.233H485.23H485.227H485.224H485.221H485.219H485.216H485.213H485.21H485.207H485.204H485.201H485.198H485.196H485.193H485.19H485.187H485.184H485.181H485.178H485.175H485.172H485.169H485.166H485.163H485.16H485.157H485.155H485.152H485.149H485.146H485.143H485.14H485.137H485.134H485.131H485.128H485.125H485.122H485.119H485.116H485.113H485.11H485.107H485.104H485.101H485.098H485.095H485.092H485.089H485.086H485.083H485.08H485.077H485.073H485.07H485.067H485.064H485.061H485.058H485.055H485.052H485.049H485.046H485.043H485.04H485.037H485.033H485.03H485.027H485.024H485.021H485.018H485.015H485.012H485.009H485.005H485.002H484.999H484.996H484.993H484.99H484.987H484.983H484.98H484.977H484.974H484.971H484.968H484.964H484.961H484.958H484.955H484.952H484.948H484.945H484.942H484.939H484.936H484.932H484.929H484.926H484.923H484.919H484.916H484.913H484.91H484.906H484.903H484.9H484.897H484.893H484.89H484.887H484.884H484.88H484.877H484.874H484.87H484.867H484.864C484.339 196.17 483.84 196.191 483.365 196.23L483.336 196.233L483.308 196.234L482.594 196.266L482.56 196.268H482.526H482.266H480.766V194.768V193.274V191.774H482.266H482.785C482.967 191.774 483.137 191.771 483.297 191.765C483.298 191.67 483.299 191.567 483.299 191.455V188.11V185.253C483.299 184.587 483.291 184.107 483.279 183.785C483.139 183.773 482.965 183.765 482.753 183.765H482.396H480.896V182.265V181.518C480.896 181.259 480.901 181.02 480.918 180.828C480.925 180.744 480.94 180.596 480.981 180.439C480.998 180.373 481.047 180.196 481.164 180.003C481.247 179.867 481.61 179.327 482.346 179.275L482.636 179.246C482.885 179.221 483.214 179.198 483.612 179.176L484.196 179.144L484.776 179.111C484.777 179.111 484.778 179.111 484.778 179.111C485.149 179.089 485.541 179.068 485.954 179.046C486.344 179.025 486.572 178.997 486.681 178.976C486.805 178.951 486.951 178.925 487.091 178.912C487.155 178.906 487.274 178.897 487.413 178.908C487.43 178.909 487.45 178.911 487.473 178.914H488.929V180.414V191.768C488.956 191.77 488.982 191.772 489.01 191.774H489.703H491.203V193.274V194.768V196.268H489.703H489.443ZM482.578 182.267C482.586 182.266 482.594 182.266 482.602 182.265H482.597L482.578 182.267ZM483.269 192.505C483.268 192.509 483.268 192.512 483.268 192.512C483.268 192.512 483.268 192.51 483.269 192.505Z" fill="#4675D0" stroke="#F2F2F2" stroke-width="3"/>
<path d="M498.763 196.268H498.757V196.268L498.73 196.266L497.986 196.234C497.985 196.234 497.985 196.234 497.984 196.234C497.488 196.213 496.958 196.203 496.392 196.203C495.852 196.203 495.408 196.194 495.096 196.17C494.016 196.171 493.192 196.179 492.616 196.194C492.322 196.202 492.106 196.212 491.961 196.222C491.93 196.224 491.905 196.226 491.885 196.228L491.764 196.268H491.521H491.261H489.761V194.768V193.274V191.774H491.261H491.781H492.235C492.244 191.774 492.253 191.774 492.262 191.774V191.773V191.772V191.77V191.768V191.766V191.764V191.763V191.761V191.759V191.757V191.755V191.754V191.752V191.75V191.748V191.746V191.745V191.743V191.741V191.739V191.737V191.736V191.734V191.732V191.73V191.728V191.726V191.725V191.723V191.721V191.719V191.717V191.716V191.714V191.712V191.71V191.708V191.707V191.705V191.703V191.701V191.699V191.697V191.696V191.694V191.692V191.69V191.688V191.686V191.685V191.683V191.681V191.679V191.677V191.675V191.674V191.672V191.67V191.668V191.666V191.664V191.663V191.661V191.659V191.657V191.655V191.653V191.652V191.65V191.648V191.646V191.644V191.642V191.641V191.639V191.637V191.635V191.633V191.631V191.629V191.628V191.626V191.624V191.622V191.62V191.618V191.616V191.615V191.613V191.611V191.609V191.607V191.605V191.603V191.602V191.6V191.598V191.596V191.594V191.592V191.59V191.589V191.587V191.585V191.583V191.581V191.579V191.577V191.575V191.574V191.572V191.57V191.568V191.566V191.564V191.562V191.56V191.559V191.557V191.555V191.553V191.551V191.549V191.547V191.545V191.544V191.542V191.54V191.538V191.536V191.534V191.532V191.53V191.528V191.527V191.525V191.523V191.521V191.519V191.517V191.515V191.513V191.511V191.509V191.508V191.506V191.504V191.502V191.5V191.498V191.496V191.494V191.492V191.49V191.489V191.487V191.485V191.483V191.481V191.479V191.477V191.475V191.473V191.471V191.469V191.467V191.466V191.464V191.462V191.46V191.458V191.456V191.454V191.452V191.45V191.448V191.446V191.444V191.443V191.441V191.439V191.437V191.435V191.433V191.431V191.429V191.427V191.425V191.423V191.421V191.419V191.417V191.416V191.414V191.412V191.41V191.408V191.406V191.404V191.402V191.4V191.398V191.396V191.394V191.392V191.39V191.388V191.386V191.384V191.383V191.381V191.379V191.377V191.375V191.373V191.371V191.369V191.367V191.365V191.363V191.361V191.359V191.357V191.355V191.353V191.351V191.349V191.347V191.345V191.343V191.341V191.339V191.338V191.336V191.334V191.332V191.33V191.328V191.326V191.324V191.322V191.32V191.318V191.316V191.314V191.312V191.31V191.308V191.306V191.304V191.302V191.3V191.298V191.296V191.294V191.292V191.29V191.288V191.286V191.284V191.282V191.28V191.278V191.276V191.274V191.272V191.27V191.268V191.266V191.264V191.262V191.26V191.258V191.256V191.254V191.252V191.25V191.248V191.246V191.244V191.242V191.24V191.238V191.236V191.234V191.232V191.23V191.228V191.226V191.224V191.222V191.22V191.218V191.216V191.214V191.212V191.21V191.208V191.206V191.204V191.202V191.2V191.198V191.196V191.194V191.192V191.19V191.188V191.186V191.184V191.182V191.18V191.178V191.176V191.174V191.172V191.17V191.168V191.166V191.164V191.162V191.16V191.158V191.156V191.154V191.152V191.15V191.148V191.145V191.143V191.141V191.139V191.137V191.135V191.133V191.131V191.129V191.127V191.125V191.123V191.121V191.119V191.117V191.115V191.113V191.111V191.109V191.107V191.105V191.103V191.101V191.098V191.096V191.094V191.092V191.09V191.088V191.086V191.084V191.082V191.08V191.078V191.076V191.074V191.072V191.07V191.068V191.066V191.063V191.061V191.059V191.057V191.055V191.053V191.051V191.049V191.047V191.045V191.043V191.041V191.039V191.037V191.034V191.032V191.03V191.028V191.026V191.024V191.022V191.02V191.018V191.016V191.014V191.012V191.009V191.007V191.005V191.003V191.001V190.999V190.997V190.995V190.993V190.991V190.989V190.986V190.984V190.982V190.98V190.978V190.976V190.974V190.972V190.97V190.968V190.966V190.963V190.961V190.959V190.957V190.955V190.953V190.951V190.949V190.947V190.944V190.942V190.94V190.938V190.936V190.934V190.932V190.93V190.928V190.925V190.923V190.921V190.919V190.917V190.915V190.913V190.911V190.909V190.906V190.904V190.902V190.9V190.898V190.896V190.894V190.892V190.889V190.887V190.885V190.883V190.881V190.879V190.877V190.875V190.872V190.87V190.868V190.866V190.864V190.862V190.86V190.857V190.855V190.853V190.851V190.849V190.847V190.845V190.842V190.84V190.838V190.836V190.834V190.832V190.83V190.827V190.825V190.823V190.821V190.819V190.817V190.814V190.812V190.81V190.808V190.806C492.262 190.41 492.273 189.964 492.296 189.471C492.315 189.038 492.315 188.631 492.296 188.25L492.294 188.213V188.175V188.171V188.168V188.164V188.16V188.156V188.152V188.148V188.144V188.14V188.136V188.132V188.128V188.124V188.12V188.116V188.112V188.108V188.104V188.101V188.097V188.093V188.089V188.085V188.081V188.077V188.073V188.069V188.065V188.061V188.057V188.053V188.049V188.045V188.041V188.037V188.033V188.029V188.025V188.021V188.017V188.013V188.009V188.005V188.001V187.997V187.993V187.989V187.986V187.982V187.978V187.974V187.97V187.966V187.962V187.958V187.954V187.95V187.946V187.942V187.938V187.934V187.93V187.926V187.922V187.918V187.914V187.91V187.906V187.902V187.898V187.894V187.89V187.886V187.882V187.878V187.874V187.87V187.866V187.862V187.858V187.854V187.85V187.846V187.842V187.838V187.834V187.83V187.826V187.821V187.817V187.813V187.809V187.805V187.801V187.797V187.793V187.789V187.785V187.781V187.777V187.773V187.769V187.765V187.761V187.757V187.753V187.749V187.745V187.741V187.737V187.733V187.729V187.725V187.721V187.717V187.713V187.709V187.704V187.7V187.696V187.692V187.688V187.684V187.68V187.676V187.672V187.668V187.664V187.66V187.656V187.652V187.648V187.644V187.64V187.635V187.631V187.627V187.623V187.619V187.615V187.611V187.607V187.603V187.599V187.595V187.591V187.587V187.583V187.578V187.574V187.57V187.566V187.562V187.558V187.554V187.55V187.546V187.542V187.538V187.534V187.529V187.525V187.521V187.517V187.513V187.509V187.505V187.501V187.497V187.493V187.488V187.484V187.48V187.476V187.472V187.468V187.464V187.46V187.456V187.452V187.447V187.443V187.439V187.435V187.431V187.427V187.423V187.419V187.414V187.41V187.406V187.402V187.398V187.394V187.39V187.386V187.381V187.377V187.373V187.369V187.365V187.361V187.357V187.353V187.348V187.344V187.34V187.336V187.332V187.328V187.324V187.319V187.315V187.311V187.307V187.303V187.299V187.295V187.29V187.286V187.282V187.278V187.274V187.27V187.266V187.261V187.257V187.253V187.249V187.245V187.241V187.236V187.232V187.228V187.224V187.22V187.216V187.211V187.207V187.203V187.199V187.195V187.191V187.186V187.182V187.178V187.174V187.17V187.165V187.161V187.157V187.153V187.149V187.145V187.14V187.136V187.132V187.128V187.124V187.119V187.115V187.111V187.107V187.103V187.098V187.094V187.09V187.086V187.082V187.078V187.073V187.069V187.065V187.061V187.056V187.052V187.048V187.044V187.04V187.035V187.031V187.027V187.023V187.019V187.014V187.01V187.006V187.002V186.998V186.993V186.989V186.985V186.981V186.976V186.972V186.968V186.964V186.96V186.955V186.951V186.947V186.943V186.938V186.934V186.93V186.926V186.921V186.917V186.913V186.909V186.904V186.9V186.896V186.892V186.887V186.883V186.879V186.875V186.871V186.866V186.862V186.858V186.854V186.849V186.845V186.841V186.836V186.832V186.828V186.824V186.819V186.815V186.811V186.807V186.802V186.798V186.794V186.79V186.785V186.781V186.777V186.773V186.768V186.764V186.76V186.755V186.751V186.747V186.743V186.738V186.734V186.73V186.725V186.721V186.717V186.713V186.708V186.704V186.7V186.695V186.691V186.687V186.683V186.678V186.674V186.67V186.665V186.661V186.657V186.653V186.648V186.644V186.64V186.635V186.631V186.627V186.622V186.618V186.614V186.609V186.605V186.601V186.597V186.592V186.588V186.584V186.579V186.575V186.571V186.566V186.562V186.558V186.553V186.549V186.545V186.54V186.536V186.532V186.527V186.523V186.519V186.514V186.51V186.506V186.501V186.497V186.493V186.488V186.484V186.48V186.475V186.471V186.467V186.462V186.458V186.454V186.449V186.445V186.441V186.436V186.432V186.428V186.423V186.419V186.415V186.41V186.406V186.402V186.397V186.393V186.388V186.384V186.38V186.375V186.371V186.367V186.362V186.358V186.354V186.349V186.345V186.34V186.336V186.332V186.327V186.323V186.319V186.314V186.31V186.305V186.301V186.297V186.292V186.288V186.284V186.279V186.275V186.27V186.266V186.262V186.257V186.253V186.248V186.244V186.24V186.235V186.231V186.226V186.222V186.218V186.213V186.209V186.204V186.2V186.196V186.191V186.187V186.182V186.178V186.174V186.169V186.165V186.16V186.156V186.152V186.147V186.143V186.138V186.134V186.13V186.125V186.121V186.116V186.112V186.107V186.103V186.099V186.094V186.09V186.085V186.081V186.076V186.072V186.068V186.063V186.059V186.054V186.05V186.045V186.041V186.037V186.032C492.294 185.287 492.283 184.67 492.263 184.178L492.262 184.147V184.116V183.822C492.129 183.802 491.969 183.783 491.778 183.765H491.261H489.761V182.265V181.518C489.761 181.259 489.766 181.02 489.783 180.828C489.79 180.744 489.805 180.596 489.846 180.439C489.863 180.373 489.912 180.196 490.029 180.003C490.112 179.867 490.476 179.327 491.211 179.275L491.501 179.246C491.751 179.221 492.079 179.198 492.477 179.176C492.867 179.154 493.267 179.133 493.678 179.111C494.048 179.089 494.439 179.068 494.852 179.046C495.241 179.025 495.469 178.997 495.578 178.976C495.703 178.951 495.849 178.925 495.988 178.912C496.053 178.906 496.171 178.897 496.31 178.908C496.327 178.909 496.348 178.911 496.371 178.914H497.827V179.734C498.303 179.459 498.809 179.254 499.341 179.121C499.936 178.972 500.622 178.914 501.361 178.914H501.387L501.413 178.915C502.877 178.966 504.214 179.363 505.24 180.276C506.273 181.195 506.803 182.471 506.974 183.906L506.974 183.906C506.992 184.054 506.996 184.262 506.999 184.406L506.999 184.422C507.003 184.638 507.007 184.937 507.009 185.315C507.015 186.073 507.017 187.168 507.017 188.598V191.39C507.017 191.526 507.018 191.651 507.019 191.765C507.179 191.771 507.35 191.774 507.531 191.774H508.051H509.551V193.274V194.768V196.268H508.051H507.791H507.759L507.728 196.267L506.949 196.234L506.946 196.234C506.473 196.213 505.954 196.203 505.388 196.203C504.848 196.203 504.403 196.194 504.092 196.17C503.011 196.171 502.187 196.179 501.612 196.194C501.317 196.202 501.102 196.212 500.957 196.222C500.926 196.224 500.901 196.226 500.881 196.228L500.76 196.268H500.555H500.516H500.257H499.055H498.795H498.763ZM500.257 191.774H500.555H500.776C500.971 191.774 501.138 191.77 501.28 191.763C501.281 191.708 501.281 191.651 501.282 191.591C501.287 190.85 501.29 189.747 501.29 188.278C501.279 186.821 501.268 185.709 501.257 184.941C501.252 184.556 501.247 184.261 501.241 184.054C501.239 183.95 501.236 183.883 501.235 183.843C501.144 183.477 501.039 183.35 501.014 183.326C500.925 183.236 500.858 183.178 500.813 183.144C500.811 183.144 500.809 183.144 500.807 183.144C500.75 183.139 500.664 183.138 500.545 183.145L500.498 183.148H500.451C499.904 183.148 499.423 183.337 498.947 183.813C498.494 184.265 498.305 184.632 498.237 184.902C498.128 185.338 498.043 186.095 498.022 187.247V189.312V191.261C498.022 191.454 498.023 191.621 498.025 191.765C498.185 191.771 498.355 191.774 498.535 191.774H498.757H499.055H500.257ZM501.907 191.685C501.907 191.685 501.903 191.686 501.896 191.689C501.903 191.687 501.907 191.686 501.907 191.685ZM491.443 182.267C491.451 182.266 491.459 182.266 491.467 182.265H491.462L491.443 182.267ZM507.05 192.551C507.05 192.551 507.049 192.548 507.048 192.543C507.049 192.549 507.05 192.551 507.05 192.551ZM500.825 196.233C500.807 196.235 500.809 196.236 500.827 196.233C500.826 196.233 500.826 196.233 500.825 196.233ZM492.645 183.901C492.646 183.902 492.647 183.902 492.647 183.902C492.647 183.902 492.646 183.902 492.645 183.901ZM492.829 191.72C492.829 191.72 492.828 191.721 492.827 191.721L492.829 191.72ZM491.83 196.233C491.812 196.235 491.814 196.236 491.831 196.233C491.831 196.233 491.83 196.233 491.83 196.233Z" fill="#4675D0" stroke="#F2F2F2" stroke-width="3"/>
</svg>
