<svg width="670" height="552" viewBox="0 0 670 552" fill="none" xmlns="http://www.w3.org/2000/svg">
<line x1="445" y1="160" x2="445" y2="219" stroke="#4675D0" stroke-width="6" stroke-dasharray="6 6"/>
<path d="M139 387.567C82.2 387.567 26 434.234 5 457.567H667.5C651.333 361.734 599 169.067 519 165.067C419 160.067 374 436.067 311.5 433.567C249 431.067 210 387.567 139 387.567Z" fill="#F2F2F2" stroke="#474747" stroke-width="4"/>
<path d="M482.507 169.548L482.602 169.5H482.956C483.259 169.5 483.749 169.542 484.202 169.844C484.762 170.217 485.007 170.808 485.007 171.367C485.007 171.537 484.974 171.706 484.97 171.727L484.97 171.729C484.957 171.797 484.941 171.878 484.922 171.966C484.885 172.144 484.83 172.388 484.759 172.693C484.618 173.305 484.407 174.191 484.127 175.349C483.567 177.665 482.728 181.082 481.61 185.6C480.493 190.117 479.646 193.528 479.072 195.834C478.785 196.986 478.565 197.864 478.413 198.465C478.291 198.949 478.195 199.328 478.148 199.489C478.148 199.507 478.149 199.539 478.154 199.589L478.163 199.671V199.701C478.246 199.55 478.34 199.358 478.442 199.119C478.716 198.476 479.005 197.603 479.301 196.479L479.307 196.454L479.315 196.43C479.414 196.098 479.524 195.779 479.65 195.515C479.711 195.387 479.802 195.215 479.932 195.049C480.021 194.936 480.266 194.642 480.692 194.488C480.929 194.398 481.142 194.377 481.218 194.369L481.222 194.369C481.368 194.354 481.523 194.35 481.67 194.35H481.854H482.038C482.352 194.35 482.82 194.384 483.26 194.618C483.503 194.748 483.762 194.952 483.955 195.262C484.152 195.576 484.227 195.913 484.227 196.217C484.227 196.586 484.131 196.996 484.038 197.338C483.622 198.936 483.125 200.301 482.526 201.394C482.011 202.333 481.463 203.19 480.874 203.671C480.395 204.063 479.829 204.377 479.21 204.632L479.108 204.674L479.002 204.701C478.574 204.808 478.057 204.837 477.536 204.837C476.273 204.837 475.099 204.557 474.098 203.905C473.62 203.593 473.172 203.234 472.806 202.816C471.125 204.109 469.314 204.837 467.385 204.837C465.293 204.837 463.443 204.061 461.895 202.586C460.19 200.963 459.5 198.537 459.5 195.666C459.5 193.984 459.851 192.294 460.526 190.608C461.181 188.969 461.982 187.525 462.939 186.294L462.953 186.277L462.966 186.26C464.491 184.411 466.098 183.027 467.805 182.227C469.375 181.493 470.897 181.075 472.346 181.075C473.555 181.075 474.649 181.342 475.583 181.886C475.757 181.183 475.968 180.328 476.218 179.321C476.686 177.431 477.035 176.028 477.259 175.151C477.121 175.14 476.968 175.129 476.8 175.118H475.882H475.261L474.822 174.679C474.709 174.566 474.583 174.432 474.476 174.289C474.422 174.217 474.349 174.111 474.282 173.979C474.228 173.871 474.107 173.606 474.107 173.251C474.107 173.126 474.125 172.949 474.137 172.84L474.138 172.83C474.154 172.675 474.178 172.465 474.209 172.203L474.221 172.098L474.248 171.996C474.342 171.639 474.483 171.229 474.725 170.876C474.972 170.515 475.484 170.005 476.296 170.005C476.258 170.005 476.34 170 476.607 169.981C476.718 169.974 476.861 169.964 477.042 169.951C477.592 169.913 478.411 169.856 479.498 169.779C480.583 169.703 481.399 169.642 481.949 169.597C482.192 169.577 482.377 169.561 482.507 169.548ZM478.131 175.257C478.134 175.258 478.135 175.258 478.135 175.258C478.135 175.258 478.134 175.258 478.131 175.257ZM468.245 189.927L468.245 189.927L468.242 189.936C467.403 192.222 466.805 194.596 466.45 197.059V197.059V197.06V197.061V197.062V197.063V197.063V197.064V197.065V197.066V197.067V197.068V197.068V197.069V197.07V197.071V197.072V197.073V197.073V197.074V197.075V197.076V197.077V197.078V197.079V197.079V197.08V197.081V197.082V197.083V197.084V197.085V197.085V197.086V197.087V197.088V197.089V197.09V197.091V197.092V197.092V197.093V197.094V197.095V197.096V197.097V197.098V197.099V197.1V197.1V197.101V197.102V197.103V197.104V197.105V197.106V197.107V197.108V197.109V197.11V197.11V197.111V197.112V197.113V197.114V197.115V197.116V197.117V197.118V197.119V197.12V197.121V197.122V197.123V197.124V197.124V197.125V197.126V197.127V197.128V197.129V197.13V197.131V197.132V197.133V197.134V197.135V197.136V197.137V197.138V197.139V197.14V197.141V197.142V197.143V197.144V197.145V197.146V197.147V197.148V197.149V197.15V197.151V197.152V197.153V197.154V197.155V197.156V197.157V197.158V197.159V197.16V197.161V197.162V197.163V197.164V197.165V197.166V197.167V197.168V197.169V197.17V197.171V197.172V197.173V197.174V197.175V197.176V197.177V197.178V197.179V197.18V197.181V197.182V197.183V197.184V197.185V197.186V197.187V197.189V197.19V197.191V197.192V197.193V197.194V197.195V197.196V197.197V197.198V197.199V197.2V197.201V197.202V197.203V197.205V197.206V197.207V197.208V197.209V197.21V197.211V197.212V197.213V197.214V197.215V197.217V197.218V197.219V197.22V197.221V197.222V197.223V197.224V197.225V197.227V197.228V197.229V197.23V197.231V197.232V197.233V197.234V197.236V197.237V197.238V197.239V197.24V197.241V197.242V197.244V197.245V197.246V197.247V197.248V197.249V197.25V197.252V197.253V197.254V197.255V197.256V197.257V197.259V197.26V197.261V197.262V197.263V197.264V197.266V197.267V197.268V197.269V197.27V197.272V197.273V197.274V197.275V197.276V197.277V197.279V197.28V197.281V197.282V197.283V197.285V197.286V197.287V197.288V197.29V197.291V197.292V197.293V197.294V197.296V197.297V197.298V197.299V197.3V197.302V197.303V197.304V197.305V197.307V197.308V197.309V197.31V197.312V197.313V197.314V197.315V197.317V197.318V197.319V197.32V197.322V197.323V197.324V197.325V197.327V197.328V197.329V197.33V197.332V197.333V197.334V197.336V197.337V197.338V197.339V197.341V197.342V197.343V197.345V197.346V197.347V197.348V197.35V197.351V197.352V197.354V197.355V197.356V197.358V197.359V197.36V197.361V197.363V197.364V197.365V197.367V197.368V197.369V197.371V197.372V197.373V197.375V197.376V197.377V197.379V197.38V197.381V197.383V197.384V197.385V197.387V197.388V197.389V197.391V197.392V197.394V197.395V197.396V197.398V197.399V197.4V197.402V197.403V197.404V197.406V197.407V197.409V197.41V197.411V197.413V197.414V197.415V197.417V197.418V197.42V197.421V197.422V197.424V197.425V197.427V197.428V197.429V197.431V197.432V197.434V197.435V197.436V197.438V197.439V197.441V197.442V197.443V197.445V197.446V197.448V197.449V197.451V197.452V197.453V197.455V197.456V197.458C466.45 197.666 466.442 197.906 466.405 198.143C466.424 199.312 466.681 199.691 466.761 199.766C467.039 200.029 467.343 200.162 467.736 200.183C468.685 200.17 469.981 199.519 471.61 197.469L471.787 197.225L474.096 187.948C473.806 187.082 473.48 186.536 473.175 186.215C472.869 185.892 472.571 185.775 472.208 185.775C471.624 185.775 470.954 186.021 470.174 186.776C469.387 187.538 468.733 188.571 468.245 189.927Z" fill="#4675D0" stroke="#F2F2F2" stroke-width="3"/>
<mask id="path-4-outside-1_118_1255" maskUnits="userSpaceOnUse" x="481.182" y="191.768" width="32" height="21" fill="black">
<rect fill="white" x="481.182" y="191.768" width="32" height="21"/>
<path d="M484.701 208.274H485.156C486 208.274 486.509 208.122 486.682 207.819V207.56C486.682 207.365 486.682 207.116 486.682 206.813C486.682 206.51 486.682 206.174 486.682 205.806C486.682 205.438 486.693 205.016 486.715 204.539C486.736 204.063 486.736 203.608 486.715 203.175C486.715 202.504 486.715 201.79 486.715 201.032C486.715 200.274 486.704 199.636 486.682 199.116V198.369C486.617 197.958 486.466 197.687 486.228 197.557C485.989 197.427 485.502 197.33 484.766 197.265H484.182V196.518C484.182 196.02 484.203 195.771 484.247 195.771L484.571 195.739C484.788 195.717 485.091 195.695 485.481 195.674C485.87 195.652 486.271 195.63 486.682 195.609C487.05 195.587 487.44 195.565 487.851 195.544C488.263 195.522 488.577 195.49 488.793 195.446C489.01 195.403 489.129 195.392 489.15 195.414H489.248V196.713C489.248 197.536 489.259 197.947 489.28 197.947C489.302 197.947 489.356 197.893 489.443 197.785C489.529 197.676 489.659 197.514 489.832 197.297C490.005 197.081 490.211 196.886 490.449 196.713C490.687 196.54 491.001 196.334 491.391 196.096C491.781 195.858 492.192 195.685 492.625 195.576C493.058 195.468 493.61 195.414 494.281 195.414C494.606 195.414 494.909 195.436 495.191 195.479C495.472 195.522 495.721 195.587 495.938 195.674C496.154 195.76 496.36 195.847 496.555 195.933C496.749 196.02 496.912 196.118 497.042 196.226C497.172 196.334 497.291 196.453 497.399 196.583C497.507 196.713 497.605 196.832 497.691 196.94C497.778 197.048 497.854 197.168 497.919 197.297C497.983 197.427 498.027 197.536 498.048 197.622C498.07 197.709 498.103 197.795 498.146 197.882L498.211 198.044L498.308 197.914C498.373 197.828 498.438 197.741 498.503 197.655C498.568 197.568 498.665 197.449 498.795 197.297C498.925 197.146 499.066 197.005 499.218 196.875C499.369 196.745 499.531 196.605 499.705 196.453C499.878 196.302 500.094 196.172 500.354 196.063C500.614 195.955 500.863 195.847 501.101 195.739C501.339 195.63 501.621 195.555 501.945 195.511C502.27 195.468 502.606 195.436 502.952 195.414C505.68 195.414 507.163 196.637 507.401 199.084C507.423 199.235 507.434 200.74 507.434 203.598V206.39C507.434 207.213 507.455 207.7 507.499 207.852C507.542 208.003 507.661 208.112 507.856 208.177C508.311 208.241 508.841 208.274 509.447 208.274H509.967V209.768H509.707L508.96 209.735C508.44 209.714 507.888 209.703 507.304 209.703C506.719 209.703 506.308 209.692 506.07 209.67C503.84 209.67 502.627 209.703 502.433 209.768H502.173V208.274H502.692C504.013 208.274 504.673 208.101 504.673 207.754C504.695 207.711 504.706 206.217 504.706 203.273C504.684 200.35 504.663 198.802 504.641 198.629C504.511 198.023 504.294 197.568 503.991 197.265C503.688 196.962 503.428 196.778 503.212 196.713C502.995 196.648 502.714 196.626 502.368 196.648C501.393 196.648 500.538 197.016 499.802 197.752C499.218 198.337 498.849 198.932 498.698 199.538C498.546 200.144 498.46 201.043 498.438 202.234V204.312V206.261C498.438 206.91 498.449 207.343 498.471 207.56C498.492 207.776 498.525 207.917 498.568 207.982C498.611 208.047 498.709 208.112 498.86 208.177C499.315 208.241 499.845 208.274 500.452 208.274H500.971V209.768H500.711L499.932 209.735C499.434 209.714 498.893 209.703 498.308 209.703C497.724 209.703 497.312 209.692 497.074 209.67C494.844 209.67 493.632 209.703 493.437 209.768H493.177V208.274H493.697C495.017 208.274 495.678 208.101 495.678 207.754C495.699 207.711 495.71 206.217 495.71 203.273C495.689 200.35 495.667 198.802 495.645 198.629C495.515 198.023 495.299 197.568 494.996 197.265C494.693 196.962 494.433 196.778 494.216 196.713C494 196.648 493.718 196.626 493.372 196.648C492.398 196.648 491.543 197.016 490.807 197.752C490.222 198.337 489.854 198.932 489.702 199.538C489.551 200.144 489.464 201.043 489.443 202.234V204.312V206.261C489.443 206.91 489.453 207.343 489.475 207.56C489.497 207.776 489.529 207.917 489.572 207.982C489.616 208.047 489.713 208.112 489.865 208.177C490.319 208.241 490.85 208.274 491.456 208.274H491.976V209.768H491.716L490.969 209.735C490.449 209.714 489.897 209.703 489.313 209.703C488.728 209.703 488.317 209.692 488.079 209.67C485.849 209.67 484.636 209.703 484.441 209.768H484.182V208.274H484.701Z"/>
</mask>
<path d="M484.701 208.274H485.156C486 208.274 486.509 208.122 486.682 207.819V207.56C486.682 207.365 486.682 207.116 486.682 206.813C486.682 206.51 486.682 206.174 486.682 205.806C486.682 205.438 486.693 205.016 486.715 204.539C486.736 204.063 486.736 203.608 486.715 203.175C486.715 202.504 486.715 201.79 486.715 201.032C486.715 200.274 486.704 199.636 486.682 199.116V198.369C486.617 197.958 486.466 197.687 486.228 197.557C485.989 197.427 485.502 197.33 484.766 197.265H484.182V196.518C484.182 196.02 484.203 195.771 484.247 195.771L484.571 195.739C484.788 195.717 485.091 195.695 485.481 195.674C485.87 195.652 486.271 195.63 486.682 195.609C487.05 195.587 487.44 195.565 487.851 195.544C488.263 195.522 488.577 195.49 488.793 195.446C489.01 195.403 489.129 195.392 489.15 195.414H489.248V196.713C489.248 197.536 489.259 197.947 489.28 197.947C489.302 197.947 489.356 197.893 489.443 197.785C489.529 197.676 489.659 197.514 489.832 197.297C490.005 197.081 490.211 196.886 490.449 196.713C490.687 196.54 491.001 196.334 491.391 196.096C491.781 195.858 492.192 195.685 492.625 195.576C493.058 195.468 493.61 195.414 494.281 195.414C494.606 195.414 494.909 195.436 495.191 195.479C495.472 195.522 495.721 195.587 495.938 195.674C496.154 195.76 496.36 195.847 496.555 195.933C496.749 196.02 496.912 196.118 497.042 196.226C497.172 196.334 497.291 196.453 497.399 196.583C497.507 196.713 497.605 196.832 497.691 196.94C497.778 197.048 497.854 197.168 497.919 197.297C497.983 197.427 498.027 197.536 498.048 197.622C498.07 197.709 498.103 197.795 498.146 197.882L498.211 198.044L498.308 197.914C498.373 197.828 498.438 197.741 498.503 197.655C498.568 197.568 498.665 197.449 498.795 197.297C498.925 197.146 499.066 197.005 499.218 196.875C499.369 196.745 499.531 196.605 499.705 196.453C499.878 196.302 500.094 196.172 500.354 196.063C500.614 195.955 500.863 195.847 501.101 195.739C501.339 195.63 501.621 195.555 501.945 195.511C502.27 195.468 502.606 195.436 502.952 195.414C505.68 195.414 507.163 196.637 507.401 199.084C507.423 199.235 507.434 200.74 507.434 203.598V206.39C507.434 207.213 507.455 207.7 507.499 207.852C507.542 208.003 507.661 208.112 507.856 208.177C508.311 208.241 508.841 208.274 509.447 208.274H509.967V209.768H509.707L508.96 209.735C508.44 209.714 507.888 209.703 507.304 209.703C506.719 209.703 506.308 209.692 506.07 209.67C503.84 209.67 502.627 209.703 502.433 209.768H502.173V208.274H502.692C504.013 208.274 504.673 208.101 504.673 207.754C504.695 207.711 504.706 206.217 504.706 203.273C504.684 200.35 504.663 198.802 504.641 198.629C504.511 198.023 504.294 197.568 503.991 197.265C503.688 196.962 503.428 196.778 503.212 196.713C502.995 196.648 502.714 196.626 502.368 196.648C501.393 196.648 500.538 197.016 499.802 197.752C499.218 198.337 498.849 198.932 498.698 199.538C498.546 200.144 498.46 201.043 498.438 202.234V204.312V206.261C498.438 206.91 498.449 207.343 498.471 207.56C498.492 207.776 498.525 207.917 498.568 207.982C498.611 208.047 498.709 208.112 498.86 208.177C499.315 208.241 499.845 208.274 500.452 208.274H500.971V209.768H500.711L499.932 209.735C499.434 209.714 498.893 209.703 498.308 209.703C497.724 209.703 497.312 209.692 497.074 209.67C494.844 209.67 493.632 209.703 493.437 209.768H493.177V208.274H493.697C495.017 208.274 495.678 208.101 495.678 207.754C495.699 207.711 495.71 206.217 495.71 203.273C495.689 200.35 495.667 198.802 495.645 198.629C495.515 198.023 495.299 197.568 494.996 197.265C494.693 196.962 494.433 196.778 494.216 196.713C494 196.648 493.718 196.626 493.372 196.648C492.398 196.648 491.543 197.016 490.807 197.752C490.222 198.337 489.854 198.932 489.702 199.538C489.551 200.144 489.464 201.043 489.443 202.234V204.312V206.261C489.443 206.91 489.453 207.343 489.475 207.56C489.497 207.776 489.529 207.917 489.572 207.982C489.616 208.047 489.713 208.112 489.865 208.177C490.319 208.241 490.85 208.274 491.456 208.274H491.976V209.768H491.716L490.969 209.735C490.449 209.714 489.897 209.703 489.313 209.703C488.728 209.703 488.317 209.692 488.079 209.67C485.849 209.67 484.636 209.703 484.441 209.768H484.182V208.274H484.701Z" fill="#4675D0"/>
<path d="M484.701 208.274H485.156C486 208.274 486.509 208.122 486.682 207.819V207.56C486.682 207.365 486.682 207.116 486.682 206.813C486.682 206.51 486.682 206.174 486.682 205.806C486.682 205.438 486.693 205.016 486.715 204.539C486.736 204.063 486.736 203.608 486.715 203.175C486.715 202.504 486.715 201.79 486.715 201.032C486.715 200.274 486.704 199.636 486.682 199.116V198.369C486.617 197.958 486.466 197.687 486.228 197.557C485.989 197.427 485.502 197.33 484.766 197.265H484.182V196.518C484.182 196.02 484.203 195.771 484.247 195.771L484.571 195.739C484.788 195.717 485.091 195.695 485.481 195.674C485.87 195.652 486.271 195.63 486.682 195.609C487.05 195.587 487.44 195.565 487.851 195.544C488.263 195.522 488.577 195.49 488.793 195.446C489.01 195.403 489.129 195.392 489.15 195.414H489.248V196.713C489.248 197.536 489.259 197.947 489.28 197.947C489.302 197.947 489.356 197.893 489.443 197.785C489.529 197.676 489.659 197.514 489.832 197.297C490.005 197.081 490.211 196.886 490.449 196.713C490.687 196.54 491.001 196.334 491.391 196.096C491.781 195.858 492.192 195.685 492.625 195.576C493.058 195.468 493.61 195.414 494.281 195.414C494.606 195.414 494.909 195.436 495.191 195.479C495.472 195.522 495.721 195.587 495.938 195.674C496.154 195.76 496.36 195.847 496.555 195.933C496.749 196.02 496.912 196.118 497.042 196.226C497.172 196.334 497.291 196.453 497.399 196.583C497.507 196.713 497.605 196.832 497.691 196.94C497.778 197.048 497.854 197.168 497.919 197.297C497.983 197.427 498.027 197.536 498.048 197.622C498.07 197.709 498.103 197.795 498.146 197.882L498.211 198.044L498.308 197.914C498.373 197.828 498.438 197.741 498.503 197.655C498.568 197.568 498.665 197.449 498.795 197.297C498.925 197.146 499.066 197.005 499.218 196.875C499.369 196.745 499.531 196.605 499.705 196.453C499.878 196.302 500.094 196.172 500.354 196.063C500.614 195.955 500.863 195.847 501.101 195.739C501.339 195.63 501.621 195.555 501.945 195.511C502.27 195.468 502.606 195.436 502.952 195.414C505.68 195.414 507.163 196.637 507.401 199.084C507.423 199.235 507.434 200.74 507.434 203.598V206.39C507.434 207.213 507.455 207.7 507.499 207.852C507.542 208.003 507.661 208.112 507.856 208.177C508.311 208.241 508.841 208.274 509.447 208.274H509.967V209.768H509.707L508.96 209.735C508.44 209.714 507.888 209.703 507.304 209.703C506.719 209.703 506.308 209.692 506.07 209.67C503.84 209.67 502.627 209.703 502.433 209.768H502.173V208.274H502.692C504.013 208.274 504.673 208.101 504.673 207.754C504.695 207.711 504.706 206.217 504.706 203.273C504.684 200.35 504.663 198.802 504.641 198.629C504.511 198.023 504.294 197.568 503.991 197.265C503.688 196.962 503.428 196.778 503.212 196.713C502.995 196.648 502.714 196.626 502.368 196.648C501.393 196.648 500.538 197.016 499.802 197.752C499.218 198.337 498.849 198.932 498.698 199.538C498.546 200.144 498.46 201.043 498.438 202.234V204.312V206.261C498.438 206.91 498.449 207.343 498.471 207.56C498.492 207.776 498.525 207.917 498.568 207.982C498.611 208.047 498.709 208.112 498.86 208.177C499.315 208.241 499.845 208.274 500.452 208.274H500.971V209.768H500.711L499.932 209.735C499.434 209.714 498.893 209.703 498.308 209.703C497.724 209.703 497.312 209.692 497.074 209.67C494.844 209.67 493.632 209.703 493.437 209.768H493.177V208.274H493.697C495.017 208.274 495.678 208.101 495.678 207.754C495.699 207.711 495.71 206.217 495.71 203.273C495.689 200.35 495.667 198.802 495.645 198.629C495.515 198.023 495.299 197.568 494.996 197.265C494.693 196.962 494.433 196.778 494.216 196.713C494 196.648 493.718 196.626 493.372 196.648C492.398 196.648 491.543 197.016 490.807 197.752C490.222 198.337 489.854 198.932 489.702 199.538C489.551 200.144 489.464 201.043 489.443 202.234V204.312V206.261C489.443 206.91 489.453 207.343 489.475 207.56C489.497 207.776 489.529 207.917 489.572 207.982C489.616 208.047 489.713 208.112 489.865 208.177C490.319 208.241 490.85 208.274 491.456 208.274H491.976V209.768H491.716L490.969 209.735C490.449 209.714 489.897 209.703 489.313 209.703C488.728 209.703 488.317 209.692 488.079 209.67C485.849 209.67 484.636 209.703 484.441 209.768H484.182V208.274H484.701Z" stroke="#F2F2F2" stroke-width="6" mask="url(#path-4-outside-1_118_1255)"/>
<path d="M511.163 190.041L511.162 190.016V189.991C511.162 189.033 511.487 188.119 512.25 187.441C512.937 186.83 513.777 186.542 514.676 186.542H514.741L514.806 186.548C515.617 186.618 516.354 186.928 516.967 187.469C517.732 188.144 518.027 189.063 518.027 189.991C518.027 190.923 517.754 191.883 516.967 192.577C516.296 193.169 515.477 193.439 514.611 193.439C513.745 193.439 512.925 193.169 512.254 192.577C511.485 191.898 511.194 190.963 511.163 190.041ZM518.443 211.268H518.294L518.149 211.239C518.155 211.24 518.155 211.24 518.147 211.239C518.128 211.237 518.068 211.23 517.949 211.222C517.794 211.211 517.583 211.202 517.312 211.194C516.77 211.178 516.023 211.17 515.065 211.17H515.064H515.063H515.061H515.06H515.058H515.057H515.056H515.054H515.053H515.051H515.05H515.048H515.047H515.046H515.044H515.043H515.041H515.04H515.038H515.037H515.035H515.034H515.032H515.031H515.029H515.028H515.026H515.025H515.023H515.022H515.02H515.019H515.017H515.016H515.014H515.013H515.011H515.01H515.008H515.007H515.005H515.004H515.002H515H514.999H514.997H514.996H514.994H514.993H514.991H514.989H514.988H514.986H514.985H514.983H514.981H514.98H514.978H514.977H514.975H514.973H514.972H514.97H514.969H514.967H514.965H514.964H514.962H514.96H514.959H514.957H514.955H514.954H514.952H514.95H514.949H514.947H514.945H514.944H514.942H514.94H514.939H514.937H514.935H514.933H514.932H514.93H514.928H514.927H514.925H514.923H514.921H514.92H514.918H514.916H514.914H514.913H514.911H514.909H514.907H514.906H514.904H514.902H514.9H514.898H514.897H514.895H514.893H514.891H514.889H514.888H514.886H514.884H514.882H514.88H514.879H514.877H514.875H514.873H514.871H514.869H514.868H514.866H514.864H514.862H514.86H514.858H514.856H514.855H514.853H514.851H514.849H514.847H514.845H514.843H514.841H514.839H514.837H514.836H514.834H514.832H514.83H514.828H514.826H514.824H514.822H514.82H514.818H514.816H514.814H514.812H514.81H514.808H514.806H514.805H514.803H514.801H514.799H514.797H514.795H514.793H514.791H514.789H514.787H514.785H514.783H514.781H514.779H514.777H514.775H514.772H514.77H514.768H514.766H514.764H514.762H514.76H514.758H514.756H514.754H514.752H514.75H514.748H514.746H514.744H514.742H514.74H514.737H514.735H514.733H514.731H514.729H514.727H514.725H514.723H514.721H514.718H514.716H514.714H514.712H514.71H514.708H514.706H514.703H514.701H514.699H514.697H514.695H514.693H514.69H514.688H514.686H514.684H514.682H514.68H514.677H514.675H514.673H514.671H514.669H514.666H514.664H514.662H514.66H514.657H514.655H514.653H514.651H514.648H514.646H514.644H514.642H514.639H514.637H514.635H514.633H514.63H514.628H514.626H514.624H514.621H514.619H514.617H514.614H514.612H514.61H514.607H514.605H514.603H514.6H514.598H514.596H514.593H514.591H514.589H514.586H514.584H514.582H514.579H514.577H514.575H514.572H514.57H514.568H514.565H514.563H514.56H514.558H514.556H514.553H514.551H514.548H514.546H514.544H514.541H514.539H514.536H514.534H514.531H514.529H514.527H514.524H514.522H514.519H514.517H514.514H514.512H514.509H514.507H514.504H514.502H514.5H514.497H514.495H514.492H514.49H514.487H514.485H514.482H514.48H514.477H514.475H514.472H514.47H514.467H514.464H514.462H514.459H514.457H514.454H514.452H514.449H514.447H514.444H514.442H514.439H514.436H514.434H514.431H514.429H514.426H514.423H514.421H514.418H514.416H514.413H514.41H514.408H514.405H514.403H514.4H514.397H514.395H514.392H514.389H514.387H514.384H514.381H514.379H514.376H514.374H514.371H514.368H514.366H514.363H514.36H514.357H514.355H514.352H514.349H514.347H514.344H514.341H514.339H514.336H514.333H514.33H514.328H514.325H514.322H514.32H514.317H514.314H514.311H514.309H514.306H514.303H514.3H514.298H514.295H514.292H514.289H514.286H514.284H514.281H514.278H514.275H514.272H514.27H514.267H514.264H514.261H514.258H514.256H514.253H514.25H514.247H514.244H514.241H514.239H514.236H514.233H514.23H514.227H514.224H514.221H514.219H514.216H514.213H514.21H514.207H514.204H514.201H514.198H514.196H514.193H514.19H514.187H514.184H514.181H514.178H514.175H514.172H514.169H514.166H514.163H514.16H514.157H514.155H514.152H514.149H514.146H514.143H514.14H514.137H514.134H514.131H514.128H514.125H514.122H514.119H514.116H514.113H514.11H514.107H514.104H514.101H514.098H514.095H514.092H514.089H514.086H514.083H514.08H514.077H514.073H514.07H514.067H514.064H514.061H514.058H514.055H514.052H514.049H514.046H514.043H514.04H514.037H514.033H514.03H514.027H514.024H514.021H514.018H514.015H514.012H514.009H514.005H514.002H513.999H513.996H513.993H513.99H513.987H513.983H513.98H513.977H513.974H513.971H513.968H513.964H513.961H513.958H513.955H513.952H513.948H513.945H513.942H513.939H513.936H513.932H513.929H513.926H513.923H513.919H513.916H513.913H513.91H513.906H513.903H513.9H513.897H513.893H513.89H513.887H513.884H513.88H513.877H513.874H513.87H513.867H513.864C513.339 211.17 512.84 211.191 512.365 211.23L512.336 211.233L512.308 211.234L511.594 211.266L511.56 211.268H511.526H511.266H509.766V209.768V208.274V206.774H511.266H511.785C511.967 206.774 512.137 206.771 512.297 206.765C512.298 206.67 512.299 206.567 512.299 206.455V203.11V200.253C512.299 199.587 512.291 199.107 512.279 198.785C512.139 198.773 511.965 198.765 511.753 198.765H511.396H509.896V197.265V196.518C509.896 196.259 509.901 196.02 509.918 195.828C509.925 195.744 509.94 195.596 509.981 195.439C509.998 195.373 510.047 195.196 510.164 195.003C510.247 194.867 510.61 194.327 511.346 194.275L511.636 194.246C511.885 194.221 512.214 194.198 512.612 194.176L513.196 194.144L513.776 194.111C513.777 194.111 513.778 194.111 513.778 194.111C514.149 194.089 514.541 194.068 514.954 194.046C515.344 194.025 515.572 193.997 515.681 193.976C515.805 193.951 515.951 193.925 516.091 193.912C516.155 193.906 516.274 193.897 516.413 193.908C516.43 193.909 516.45 193.911 516.473 193.914H517.929V195.414V206.768C517.956 206.77 517.982 206.772 518.01 206.774H518.703H520.203V208.274V209.768V211.268H518.703H518.443ZM511.578 197.267C511.586 197.266 511.594 197.266 511.602 197.265H511.597L511.578 197.267ZM512.269 207.505C512.268 207.509 512.268 207.512 512.268 207.512C512.268 207.512 512.268 207.51 512.269 207.505Z" fill="#4675D0" stroke="#F2F2F2" stroke-width="3"/>
<path d="M527.763 211.268H527.757V211.268L527.73 211.266L526.986 211.234C526.985 211.234 526.985 211.234 526.984 211.234C526.488 211.213 525.958 211.203 525.392 211.203C524.852 211.203 524.408 211.194 524.096 211.17C523.016 211.171 522.192 211.179 521.616 211.194C521.322 211.202 521.106 211.212 520.961 211.222C520.93 211.224 520.905 211.226 520.885 211.228L520.764 211.268H520.521H520.261H518.761V209.768V208.274V206.774H520.261H520.781H521.235C521.244 206.774 521.253 206.774 521.262 206.774V206.773V206.772V206.77V206.768V206.766V206.764V206.763V206.761V206.759V206.757V206.755V206.754V206.752V206.75V206.748V206.746V206.745V206.743V206.741V206.739V206.737V206.736V206.734V206.732V206.73V206.728V206.726V206.725V206.723V206.721V206.719V206.717V206.716V206.714V206.712V206.71V206.708V206.707V206.705V206.703V206.701V206.699V206.697V206.696V206.694V206.692V206.69V206.688V206.686V206.685V206.683V206.681V206.679V206.677V206.675V206.674V206.672V206.67V206.668V206.666V206.664V206.663V206.661V206.659V206.657V206.655V206.653V206.652V206.65V206.648V206.646V206.644V206.642V206.641V206.639V206.637V206.635V206.633V206.631V206.629V206.628V206.626V206.624V206.622V206.62V206.618V206.616V206.615V206.613V206.611V206.609V206.607V206.605V206.603V206.602V206.6V206.598V206.596V206.594V206.592V206.59V206.589V206.587V206.585V206.583V206.581V206.579V206.577V206.575V206.574V206.572V206.57V206.568V206.566V206.564V206.562V206.56V206.559V206.557V206.555V206.553V206.551V206.549V206.547V206.545V206.544V206.542V206.54V206.538V206.536V206.534V206.532V206.53V206.528V206.527V206.525V206.523V206.521V206.519V206.517V206.515V206.513V206.511V206.509V206.508V206.506V206.504V206.502V206.5V206.498V206.496V206.494V206.492V206.49V206.489V206.487V206.485V206.483V206.481V206.479V206.477V206.475V206.473V206.471V206.469V206.467V206.466V206.464V206.462V206.46V206.458V206.456V206.454V206.452V206.45V206.448V206.446V206.444V206.443V206.441V206.439V206.437V206.435V206.433V206.431V206.429V206.427V206.425V206.423V206.421V206.419V206.417V206.416V206.414V206.412V206.41V206.408V206.406V206.404V206.402V206.4V206.398V206.396V206.394V206.392V206.39V206.388V206.386V206.384V206.383V206.381V206.379V206.377V206.375V206.373V206.371V206.369V206.367V206.365V206.363V206.361V206.359V206.357V206.355V206.353V206.351V206.349V206.347V206.345V206.343V206.341V206.339V206.338V206.336V206.334V206.332V206.33V206.328V206.326V206.324V206.322V206.32V206.318V206.316V206.314V206.312V206.31V206.308V206.306V206.304V206.302V206.3V206.298V206.296V206.294V206.292V206.29V206.288V206.286V206.284V206.282V206.28V206.278V206.276V206.274V206.272V206.27V206.268V206.266V206.264V206.262V206.26V206.258V206.256V206.254V206.252V206.25V206.248V206.246V206.244V206.242V206.24V206.238V206.236V206.234V206.232V206.23V206.228V206.226V206.224V206.222V206.22V206.218V206.216V206.214V206.212V206.21V206.208V206.206V206.204V206.202V206.2V206.198V206.196V206.194V206.192V206.19V206.188V206.186V206.184V206.182V206.18V206.178V206.176V206.174V206.172V206.17V206.168V206.166V206.164V206.162V206.16V206.158V206.156V206.154V206.152V206.15V206.148V206.145V206.143V206.141V206.139V206.137V206.135V206.133V206.131V206.129V206.127V206.125V206.123V206.121V206.119V206.117V206.115V206.113V206.111V206.109V206.107V206.105V206.103V206.101V206.098V206.096V206.094V206.092V206.09V206.088V206.086V206.084V206.082V206.08V206.078V206.076V206.074V206.072V206.07V206.068V206.066V206.063V206.061V206.059V206.057V206.055V206.053V206.051V206.049V206.047V206.045V206.043V206.041V206.039V206.037V206.034V206.032V206.03V206.028V206.026V206.024V206.022V206.02V206.018V206.016V206.014V206.012V206.009V206.007V206.005V206.003V206.001V205.999V205.997V205.995V205.993V205.991V205.989V205.986V205.984V205.982V205.98V205.978V205.976V205.974V205.972V205.97V205.968V205.966V205.963V205.961V205.959V205.957V205.955V205.953V205.951V205.949V205.947V205.944V205.942V205.94V205.938V205.936V205.934V205.932V205.93V205.928V205.925V205.923V205.921V205.919V205.917V205.915V205.913V205.911V205.909V205.906V205.904V205.902V205.9V205.898V205.896V205.894V205.892V205.889V205.887V205.885V205.883V205.881V205.879V205.877V205.875V205.872V205.87V205.868V205.866V205.864V205.862V205.86V205.857V205.855V205.853V205.851V205.849V205.847V205.845V205.842V205.84V205.838V205.836V205.834V205.832V205.83V205.827V205.825V205.823V205.821V205.819V205.817V205.814V205.812V205.81V205.808V205.806C521.262 205.41 521.273 204.964 521.296 204.471C521.315 204.038 521.315 203.631 521.296 203.25L521.294 203.213V203.175V203.171V203.168V203.164V203.16V203.156V203.152V203.148V203.144V203.14V203.136V203.132V203.128V203.124V203.12V203.116V203.112V203.108V203.104V203.101V203.097V203.093V203.089V203.085V203.081V203.077V203.073V203.069V203.065V203.061V203.057V203.053V203.049V203.045V203.041V203.037V203.033V203.029V203.025V203.021V203.017V203.013V203.009V203.005V203.001V202.997V202.993V202.989V202.986V202.982V202.978V202.974V202.97V202.966V202.962V202.958V202.954V202.95V202.946V202.942V202.938V202.934V202.93V202.926V202.922V202.918V202.914V202.91V202.906V202.902V202.898V202.894V202.89V202.886V202.882V202.878V202.874V202.87V202.866V202.862V202.858V202.854V202.85V202.846V202.842V202.838V202.834V202.83V202.826V202.821V202.817V202.813V202.809V202.805V202.801V202.797V202.793V202.789V202.785V202.781V202.777V202.773V202.769V202.765V202.761V202.757V202.753V202.749V202.745V202.741V202.737V202.733V202.729V202.725V202.721V202.717V202.713V202.709V202.704V202.7V202.696V202.692V202.688V202.684V202.68V202.676V202.672V202.668V202.664V202.66V202.656V202.652V202.648V202.644V202.64V202.635V202.631V202.627V202.623V202.619V202.615V202.611V202.607V202.603V202.599V202.595V202.591V202.587V202.583V202.578V202.574V202.57V202.566V202.562V202.558V202.554V202.55V202.546V202.542V202.538V202.534V202.529V202.525V202.521V202.517V202.513V202.509V202.505V202.501V202.497V202.493V202.488V202.484V202.48V202.476V202.472V202.468V202.464V202.46V202.456V202.452V202.447V202.443V202.439V202.435V202.431V202.427V202.423V202.419V202.414V202.41V202.406V202.402V202.398V202.394V202.39V202.386V202.381V202.377V202.373V202.369V202.365V202.361V202.357V202.353V202.348V202.344V202.34V202.336V202.332V202.328V202.324V202.319V202.315V202.311V202.307V202.303V202.299V202.295V202.29V202.286V202.282V202.278V202.274V202.27V202.266V202.261V202.257V202.253V202.249V202.245V202.241V202.236V202.232V202.228V202.224V202.22V202.216V202.211V202.207V202.203V202.199V202.195V202.191V202.186V202.182V202.178V202.174V202.17V202.165V202.161V202.157V202.153V202.149V202.145V202.14V202.136V202.132V202.128V202.124V202.119V202.115V202.111V202.107V202.103V202.098V202.094V202.09V202.086V202.082V202.078V202.073V202.069V202.065V202.061V202.056V202.052V202.048V202.044V202.04V202.035V202.031V202.027V202.023V202.019V202.014V202.01V202.006V202.002V201.998V201.993V201.989V201.985V201.981V201.976V201.972V201.968V201.964V201.96V201.955V201.951V201.947V201.943V201.938V201.934V201.93V201.926V201.921V201.917V201.913V201.909V201.904V201.9V201.896V201.892V201.887V201.883V201.879V201.875V201.871V201.866V201.862V201.858V201.854V201.849V201.845V201.841V201.836V201.832V201.828V201.824V201.819V201.815V201.811V201.807V201.802V201.798V201.794V201.79V201.785V201.781V201.777V201.773V201.768V201.764V201.76V201.755V201.751V201.747V201.743V201.738V201.734V201.73V201.725V201.721V201.717V201.713V201.708V201.704V201.7V201.695V201.691V201.687V201.683V201.678V201.674V201.67V201.665V201.661V201.657V201.653V201.648V201.644V201.64V201.635V201.631V201.627V201.622V201.618V201.614V201.609V201.605V201.601V201.597V201.592V201.588V201.584V201.579V201.575V201.571V201.566V201.562V201.558V201.553V201.549V201.545V201.54V201.536V201.532V201.527V201.523V201.519V201.514V201.51V201.506V201.501V201.497V201.493V201.488V201.484V201.48V201.475V201.471V201.467V201.462V201.458V201.454V201.449V201.445V201.441V201.436V201.432V201.428V201.423V201.419V201.415V201.41V201.406V201.402V201.397V201.393V201.388V201.384V201.38V201.375V201.371V201.367V201.362V201.358V201.354V201.349V201.345V201.34V201.336V201.332V201.327V201.323V201.319V201.314V201.31V201.305V201.301V201.297V201.292V201.288V201.284V201.279V201.275V201.27V201.266V201.262V201.257V201.253V201.248V201.244V201.24V201.235V201.231V201.226V201.222V201.218V201.213V201.209V201.204V201.2V201.196V201.191V201.187V201.182V201.178V201.174V201.169V201.165V201.16V201.156V201.152V201.147V201.143V201.138V201.134V201.13V201.125V201.121V201.116V201.112V201.107V201.103V201.099V201.094V201.09V201.085V201.081V201.076V201.072V201.068V201.063V201.059V201.054V201.05V201.045V201.041V201.037V201.032C521.294 200.287 521.283 199.67 521.263 199.178L521.262 199.147V199.116V198.822C521.129 198.802 520.969 198.783 520.778 198.765H520.261H518.761V197.265V196.518C518.761 196.259 518.766 196.02 518.783 195.828C518.79 195.744 518.805 195.596 518.846 195.439C518.863 195.373 518.912 195.196 519.029 195.003C519.112 194.867 519.476 194.327 520.211 194.275L520.501 194.246C520.751 194.221 521.079 194.198 521.477 194.176C521.867 194.154 522.267 194.133 522.678 194.111C523.048 194.089 523.439 194.068 523.852 194.046C524.241 194.025 524.469 193.997 524.578 193.976C524.703 193.951 524.849 193.925 524.988 193.912C525.053 193.906 525.171 193.897 525.31 193.908C525.327 193.909 525.348 193.911 525.371 193.914H526.827V194.734C527.303 194.459 527.809 194.254 528.341 194.121C528.936 193.972 529.622 193.914 530.361 193.914H530.387L530.413 193.915C531.877 193.966 533.214 194.363 534.24 195.276C535.273 196.195 535.803 197.471 535.974 198.906L535.974 198.906C535.992 199.054 535.996 199.262 535.999 199.406L535.999 199.422C536.003 199.638 536.007 199.937 536.009 200.315C536.015 201.073 536.017 202.168 536.017 203.598V206.39C536.017 206.526 536.018 206.651 536.019 206.765C536.179 206.771 536.35 206.774 536.531 206.774H537.051H538.551V208.274V209.768V211.268H537.051H536.791H536.759L536.728 211.267L535.949 211.234L535.946 211.234C535.473 211.213 534.954 211.203 534.388 211.203C533.848 211.203 533.403 211.194 533.092 211.17C532.011 211.171 531.187 211.179 530.612 211.194C530.317 211.202 530.102 211.212 529.957 211.222C529.926 211.224 529.901 211.226 529.881 211.228L529.76 211.268H529.555H529.516H529.257H528.055H527.795H527.763ZM529.257 206.774H529.555H529.776C529.971 206.774 530.138 206.77 530.28 206.763C530.281 206.708 530.281 206.651 530.282 206.591C530.287 205.85 530.29 204.747 530.29 203.278C530.279 201.821 530.268 200.709 530.257 199.941C530.252 199.556 530.247 199.261 530.241 199.054C530.239 198.95 530.236 198.883 530.235 198.843C530.144 198.477 530.039 198.35 530.014 198.326C529.925 198.236 529.858 198.178 529.813 198.144C529.811 198.144 529.809 198.144 529.807 198.144C529.75 198.139 529.664 198.138 529.545 198.145L529.498 198.148H529.451C528.904 198.148 528.423 198.337 527.947 198.813C527.494 199.265 527.305 199.632 527.237 199.902C527.128 200.338 527.043 201.095 527.022 202.247V204.312V206.261C527.022 206.454 527.023 206.621 527.025 206.765C527.185 206.771 527.355 206.774 527.535 206.774H527.757H528.055H529.257ZM530.907 206.685C530.907 206.685 530.903 206.686 530.896 206.689C530.903 206.687 530.907 206.686 530.907 206.685ZM520.443 197.267C520.451 197.266 520.459 197.266 520.467 197.265H520.462L520.443 197.267ZM536.05 207.551C536.05 207.551 536.049 207.548 536.048 207.543C536.049 207.549 536.05 207.551 536.05 207.551ZM529.825 211.233C529.807 211.235 529.809 211.236 529.827 211.233C529.826 211.233 529.826 211.233 529.825 211.233ZM521.645 198.901C521.646 198.902 521.647 198.902 521.647 198.902C521.647 198.902 521.646 198.902 521.645 198.901ZM521.829 206.72C521.829 206.72 521.828 206.721 521.827 206.721L521.829 206.72ZM520.83 211.233C520.812 211.235 520.814 211.236 520.831 211.233C520.831 211.233 520.83 211.233 520.83 211.233Z" fill="#4675D0" stroke="#F2F2F2" stroke-width="3"/>
<path d="M140.266 386.75L260.438 295.319" stroke="#4675D0" stroke-width="6"/>
<path d="M252.621 288.347C252.157 287.737 252.524 286.853 253.284 286.751L274.914 283.842C275.683 283.738 276.271 284.512 275.967 285.225L267.393 305.296C267.092 306.001 266.142 306.119 265.678 305.509L252.621 288.347Z" fill="#4675D0"/>
<path d="M279.266 420.091L399.438 328.66" stroke="#4675D0" stroke-width="6"/>
<path d="M391.621 321.688C391.157 321.078 391.524 320.194 392.284 320.092L413.914 317.182C414.683 317.079 415.271 317.853 414.967 318.566L406.393 338.637C406.092 339.342 405.142 339.46 404.678 338.849L391.621 321.688Z" fill="#4675D0"/>
<path d="M441.811 158.814L561.983 67.3831" stroke="#4675D0" stroke-width="6"/>
<path d="M554.165 60.4115C553.701 59.8013 554.068 58.9171 554.828 58.8149L576.458 55.9055C577.227 55.8021 577.816 56.5758 577.511 57.2894L568.938 77.3598C568.636 78.0649 567.686 78.1827 567.222 77.5725L554.165 60.4115Z" fill="#4675D0"/>
<path d="M291.039 272.782L411.211 181.351" stroke="#4675D0" stroke-width="6"/>
<path d="M403.393 174.379C402.929 173.769 403.296 172.885 404.056 172.783L425.686 169.874C426.455 169.77 427.044 170.544 426.739 171.257L418.166 191.328C417.864 192.033 416.914 192.151 416.45 191.541L403.393 174.379Z" fill="#4675D0"/>
<circle cx="270" cy="425" r="14" fill="#F2F2F2" stroke="#474747" stroke-width="6"/>
<circle cx="133" cy="390" r="14" fill="#F2F2F2" stroke="#474747" stroke-width="6"/>
<circle cx="291.538" cy="273.322" r="14" transform="rotate(-37.2651 291.538 273.322)" fill="#F2F2F2" stroke="#474747" stroke-width="6"/>
<path d="M252.112 234.712C252.892 234.118 253.691 233.699 254.51 233.453C255.328 233.208 256.13 233.138 256.914 233.245C257.715 233.339 258.471 233.606 259.182 234.045C259.897 234.456 260.539 235.036 261.108 235.784C261.677 236.532 262.071 237.313 262.288 238.128C262.494 238.926 262.535 239.724 262.413 240.521C262.306 241.306 262.025 242.06 261.57 242.783C261.115 243.506 260.506 244.158 259.742 244.739L256.089 247.519L261.538 254.681L259.39 256.316L246.311 239.126L252.112 234.712ZM249.913 239.401L254.636 245.609L258.289 242.829C259.18 242.151 259.684 241.328 259.802 240.359C259.907 239.374 259.602 238.412 258.888 237.473C258.173 236.534 257.333 235.992 256.368 235.846C255.391 235.685 254.457 235.944 253.566 236.622L249.913 239.401ZM272.252 243.514L276.86 240.008L267.687 227.951C267.59 227.824 267.481 227.681 267.36 227.521C267.243 227.334 267.129 227.169 267.02 227.026C266.911 226.883 266.821 226.763 266.748 226.668C266.679 226.544 266.645 226.482 266.645 226.482L266.597 226.519C266.558 226.699 266.513 226.871 266.462 227.036C266.427 227.188 266.385 227.346 266.334 227.511C266.299 227.663 266.258 227.807 266.211 227.943L264.588 232.797L262.935 230.624L264.638 225.182L267.383 223.093L279.009 238.373L282.877 235.431L284.33 237.341L273.705 245.424L272.252 243.514Z" fill="black"/>
<circle cx="442.31" cy="159.353" r="14" transform="rotate(-37.2651 442.31 159.353)" fill="#F2F2F2" stroke="#474747" stroke-width="6"/>
<path d="M402.885 120.743C403.665 120.15 404.464 119.731 405.282 119.485C406.1 119.239 406.902 119.17 407.687 119.276C408.487 119.371 409.243 119.638 409.954 120.077C410.669 120.488 411.311 121.067 411.88 121.815C412.449 122.564 412.843 123.345 413.06 124.159C413.266 124.958 413.307 125.756 413.185 126.553C413.078 127.337 412.798 128.091 412.343 128.814C411.888 129.538 411.278 130.19 410.514 130.771L406.861 133.55L412.311 140.713L410.162 142.348L397.083 125.158L402.885 120.743ZM400.685 125.433L405.408 131.64L409.061 128.861C409.952 128.183 410.456 127.359 410.574 126.391C410.679 125.406 410.374 124.444 409.66 123.505C408.945 122.566 408.106 122.024 407.141 121.878C406.163 121.717 405.229 121.975 404.338 122.654L400.685 125.433ZM424.949 111.118C425.93 112.407 426.523 113.929 426.727 115.684C426.935 117.411 426.775 119.53 426.249 122.041L425.267 126.746C425.236 126.87 425.197 127.001 425.15 127.137C425.103 127.273 425.056 127.41 425.009 127.546C424.942 127.723 424.877 127.885 424.814 128.033L424.887 128.129C425.129 127.919 425.37 127.724 425.609 127.542C425.819 127.356 426.036 127.179 426.259 127.009C426.498 126.828 426.713 126.664 426.904 126.519L433.255 121.687L434.744 123.645L424 131.819L422.184 129.432L423.759 122.089C423.995 120.979 424.153 119.98 424.23 119.091C424.324 118.191 424.329 117.371 424.243 116.631C424.158 115.892 423.994 115.213 423.749 114.594C423.505 113.976 423.171 113.388 422.747 112.831C422.069 111.94 421.266 111.446 420.337 111.348C419.412 111.222 418.496 111.505 417.589 112.195C416.586 112.958 415.982 113.832 415.777 114.817C415.587 115.791 415.82 116.707 416.474 117.567L414.253 119.256C413.74 118.516 413.395 117.748 413.217 116.953C413.04 116.158 413.032 115.372 413.195 114.595C413.374 113.806 413.704 113.052 414.188 112.332C414.674 111.585 415.324 110.902 416.135 110.285C416.931 109.679 417.732 109.246 418.539 108.984C419.345 108.723 420.128 108.629 420.889 108.704C421.649 108.779 422.373 109.02 423.06 109.427C423.762 109.822 424.392 110.386 424.949 111.118Z" fill="black"/>
<path d="M588.246 48.9679C587.774 48.3472 587.589 47.7084 587.693 47.0517C587.768 46.3912 588.116 45.8247 588.737 45.3524C589.358 44.8802 590.005 44.6897 590.677 44.7811C591.322 44.8686 591.88 45.2228 592.353 45.8435C592.837 46.4802 593.048 47.1368 592.984 47.8132C592.893 48.4859 592.537 49.0583 591.916 49.5306C591.295 50.0029 590.657 50.1873 590 50.0839C589.315 49.9766 588.731 49.6046 588.246 48.9679ZM600.16 39.9035C599.688 39.2828 599.503 38.644 599.607 37.9873C599.682 37.3268 600.03 36.7603 600.651 36.2881C601.272 35.8158 601.918 35.6253 602.591 35.7167C603.236 35.8042 603.794 36.1584 604.266 36.7791C604.751 37.4158 604.961 38.0724 604.898 38.7488C604.807 39.4215 604.451 39.9939 603.83 40.4662C603.209 40.9385 602.57 41.1229 601.914 41.0195C601.229 40.9122 600.644 40.5402 600.16 39.9035ZM612.074 30.8391C611.601 30.2184 611.409 29.5857 611.497 28.9411C611.588 28.2684 611.944 27.6959 612.565 27.2237C613.185 26.7514 613.824 26.567 614.481 26.6704C615.141 26.7459 615.708 27.094 616.18 27.7147C616.665 28.3514 616.867 29.014 616.788 29.7026C616.712 30.3631 616.364 30.9295 615.744 31.4018C615.123 31.8741 614.476 32.0646 613.804 31.9732C613.135 31.8538 612.558 31.4758 612.074 30.8391Z" fill="black"/>
<path d="M255 499.3C252.84 499.3 251.15 498.72 249.93 497.56C248.71 496.4 248.1 494.8 248.1 492.76V477.4H251.88V492.73C251.88 493.77 252.14 494.58 252.66 495.16C253.2 495.74 253.98 496.03 255 496.03C256 496.03 256.77 495.74 257.31 495.16C257.87 494.58 258.15 493.77 258.15 492.73V477.4H261.9V492.76C261.9 494.8 261.29 496.4 260.07 497.56C258.85 498.72 257.16 499.3 255 499.3ZM265.458 482.5H268.308V484.9H268.578C268.638 484.06 268.908 483.4 269.388 482.92C269.888 482.44 270.548 482.2 271.368 482.2C272.148 482.2 272.798 482.44 273.318 482.92C273.858 483.4 274.228 484.06 274.428 484.9H274.548C274.608 484.06 274.878 483.4 275.358 482.92C275.858 482.44 276.518 482.2 277.338 482.2C278.338 482.2 279.118 482.58 279.678 483.34C280.258 484.08 280.548 485.1 280.548 486.4V499H277.398V486.7C277.398 485.46 276.918 484.84 275.958 484.84C275.038 484.84 274.578 485.48 274.578 486.76V499H271.428V486.7C271.428 485.68 271.098 485.08 270.438 484.9C270.238 484.86 270.088 484.84 269.988 484.84C269.888 484.84 269.738 484.86 269.538 484.9C268.918 485.08 268.608 485.7 268.608 486.76V499H265.458V482.5ZM284.167 477.1H287.947V482.38C287.947 482.66 287.937 482.98 287.917 483.34C287.917 483.68 287.907 484 287.887 484.3C287.847 484.64 287.817 484.99 287.797 485.35H288.067C288.267 484.37 288.747 483.6 289.507 483.04C290.287 482.48 291.277 482.2 292.477 482.2C293.337 482.2 294.117 482.35 294.817 482.65C295.517 482.95 296.107 483.38 296.587 483.94C297.087 484.5 297.467 485.18 297.727 485.98C298.007 486.76 298.147 487.65 298.147 488.65V492.76C298.147 493.76 298.007 494.67 297.727 495.49C297.467 496.29 297.087 496.98 296.587 497.56C296.107 498.12 295.517 498.55 294.817 498.85C294.117 499.15 293.337 499.3 292.477 499.3C291.277 499.3 290.287 499.02 289.507 498.46C288.747 497.9 288.267 497.12 288.067 496.12H287.797V499H284.167V477.1ZM287.947 492.76C287.947 493.74 288.227 494.53 288.787 495.13C289.367 495.73 290.147 496.03 291.127 496.03C292.147 496.03 292.947 495.73 293.527 495.13C294.107 494.51 294.397 493.69 294.397 492.67V488.74C294.397 487.72 294.107 486.92 293.527 486.34C292.947 485.74 292.147 485.44 291.127 485.44C290.167 485.44 289.397 485.74 288.817 486.34C288.237 486.94 287.947 487.74 287.947 488.74V492.76ZM302.815 482.5H306.355V485.35H306.625C306.825 484.35 307.325 483.58 308.125 483.04C308.925 482.48 309.945 482.2 311.185 482.2C312.965 482.2 314.355 482.75 315.355 483.85C316.355 484.95 316.855 486.47 316.855 488.41V489.61H312.925V488.74C312.925 487.68 312.635 486.86 312.055 486.28C311.475 485.68 310.675 485.38 309.655 485.38C308.695 485.38 307.935 485.68 307.375 486.28C306.835 486.88 306.565 487.7 306.565 488.74V499H302.815V482.5ZM319.483 494.38C319.483 493.56 319.633 492.83 319.933 492.19C320.233 491.53 320.663 490.97 321.223 490.51C321.783 490.05 322.453 489.7 323.233 489.46C324.033 489.2 324.923 489.07 325.903 489.07H330.043V487.66C330.043 486.9 329.753 486.3 329.173 485.86C328.613 485.4 327.833 485.17 326.833 485.17C326.013 485.17 325.323 485.32 324.763 485.62C324.203 485.92 323.843 486.33 323.683 486.85H319.993C320.253 485.41 320.993 484.28 322.213 483.46C323.433 482.62 324.973 482.2 326.833 482.2C327.893 482.2 328.853 482.33 329.713 482.59C330.573 482.83 331.303 483.19 331.903 483.67C332.503 484.13 332.963 484.7 333.283 485.38C333.623 486.04 333.793 486.78 333.793 487.6V499H330.253V495.76H330.013C329.813 496.84 329.243 497.7 328.303 498.34C327.383 498.98 326.233 499.3 324.853 499.3C323.213 499.3 321.903 498.86 320.923 497.98C319.963 497.08 319.483 495.88 319.483 494.38ZM326.143 496.36C327.283 496.36 328.213 496.09 328.933 495.55C329.673 494.99 330.043 494.29 330.043 493.45V491.53H325.933C325.093 491.53 324.433 491.74 323.953 492.16C323.473 492.58 323.233 493.17 323.233 493.93C323.233 494.69 323.483 495.29 323.983 495.73C324.503 496.15 325.223 496.36 326.143 496.36Z" fill="#474747"/>
<path d="M269 469L269 442" stroke="#474747" stroke-width="2" stroke-linecap="round"/>
<path d="M132 515L132 407" stroke="#474747" stroke-width="2" stroke-linecap="round"/>
<circle cx="430.417" cy="307.417" r="17" transform="rotate(5 430.417 307.417)" fill="#D04646"/>
<path d="M119.69 523.4C120.77 523.4 121.75 523.56 122.63 523.88C123.53 524.18 124.29 524.62 124.91 525.2C125.53 525.76 126.01 526.45 126.35 527.27C126.69 528.07 126.86 528.97 126.86 529.97C126.86 530.95 126.69 531.85 126.35 532.67C126.01 533.47 125.52 534.16 124.88 534.74C124.26 535.3 123.51 535.74 122.63 536.06C121.75 536.36 120.77 536.51 119.69 536.51H115.97V545H112.22V523.4H119.69ZM115.97 526.58V533.33H119.69C120.73 533.33 121.55 533.03 122.15 532.43C122.75 531.81 123.05 530.99 123.05 529.97C123.05 528.95 122.75 528.13 122.15 527.51C121.55 526.89 120.73 526.58 119.69 526.58H115.97ZM136.988 545.3C135.908 545.3 134.918 545.15 134.018 544.85C133.138 544.53 132.388 544.09 131.768 543.53C131.148 542.97 130.668 542.29 130.328 541.49C129.988 540.69 129.818 539.8 129.818 538.82V534.65C129.818 533.67 129.988 532.78 130.328 531.98C130.668 531.18 131.148 530.5 131.768 529.94C132.388 529.38 133.138 528.95 134.018 528.65C134.918 528.35 135.908 528.2 136.988 528.2C138.068 528.2 139.048 528.36 139.928 528.68C140.808 528.98 141.558 529.41 142.178 529.97C142.798 530.53 143.278 531.21 143.618 532.01C143.958 532.81 144.128 533.7 144.128 534.68V537.68H133.538V538.76C133.538 539.86 133.838 540.72 134.438 541.34C135.058 541.96 135.908 542.27 136.988 542.27C137.808 542.27 138.498 542.15 139.058 541.91C139.638 541.65 140.048 541.28 140.288 540.8H143.978C143.798 541.48 143.498 542.1 143.078 542.66C142.658 543.22 142.138 543.7 141.518 544.1C140.918 544.48 140.228 544.78 139.448 545C138.688 545.2 137.868 545.3 136.988 545.3ZM140.438 535.16V534.68C140.438 533.58 140.138 532.73 139.538 532.13C138.938 531.51 138.088 531.2 136.988 531.2C135.908 531.2 135.058 531.51 134.438 532.13C133.838 532.73 133.538 533.57 133.538 534.65V535.16H140.438ZM148.137 545V528.5H151.707V531.35H151.977C152.157 530.35 152.627 529.58 153.387 529.04C154.147 528.48 155.127 528.2 156.327 528.2C157.987 528.2 159.307 528.74 160.287 529.82C161.267 530.9 161.757 532.36 161.757 534.2V545H158.007V534.65C158.007 533.65 157.737 532.87 157.197 532.31C156.657 531.73 155.917 531.44 154.977 531.44C154.017 531.44 153.257 531.74 152.697 532.34C152.157 532.92 151.887 533.72 151.887 534.74V545H148.137ZM166.215 528.5H169.995V538.82C169.995 540.96 170.985 542.03 172.965 542.03C174.965 542.03 175.965 540.96 175.965 538.82V528.5H179.715V538.82C179.715 540.88 179.115 542.48 177.915 543.62C176.735 544.74 175.085 545.3 172.965 545.3C170.825 545.3 169.165 544.73 167.985 543.59C166.805 542.45 166.215 540.86 166.215 538.82V528.5ZM183.423 528.5H186.273V530.9H186.543C186.603 530.06 186.873 529.4 187.353 528.92C187.853 528.44 188.513 528.2 189.333 528.2C190.113 528.2 190.763 528.44 191.283 528.92C191.823 529.4 192.193 530.06 192.393 530.9H192.513C192.573 530.06 192.843 529.4 193.323 528.92C193.823 528.44 194.483 528.2 195.303 528.2C196.303 528.2 197.083 528.58 197.643 529.34C198.223 530.08 198.513 531.1 198.513 532.4V545H195.363V532.7C195.363 531.46 194.883 530.84 193.923 530.84C193.003 530.84 192.543 531.48 192.543 532.76V545H189.393V532.7C189.393 531.68 189.063 531.08 188.403 530.9C188.203 530.86 188.053 530.84 187.953 530.84C187.853 530.84 187.703 530.86 187.503 530.9C186.883 531.08 186.573 531.7 186.573 532.76V545H183.423V528.5ZM202.131 523.1H205.911V528.38C205.911 528.66 205.901 528.98 205.881 529.34C205.881 529.68 205.871 530 205.851 530.3C205.811 530.64 205.781 530.99 205.761 531.35H206.031C206.231 530.37 206.711 529.6 207.471 529.04C208.251 528.48 209.241 528.2 210.441 528.2C211.301 528.2 212.081 528.35 212.781 528.65C213.481 528.95 214.071 529.38 214.551 529.94C215.051 530.5 215.431 531.18 215.691 531.98C215.971 532.76 216.111 533.65 216.111 534.65V538.76C216.111 539.76 215.971 540.67 215.691 541.49C215.431 542.29 215.051 542.98 214.551 543.56C214.071 544.12 213.481 544.55 212.781 544.85C212.081 545.15 211.301 545.3 210.441 545.3C209.241 545.3 208.251 545.02 207.471 544.46C206.711 543.9 206.231 543.12 206.031 542.12H205.761V545H202.131V523.1ZM205.911 538.76C205.911 539.74 206.191 540.53 206.751 541.13C207.331 541.73 208.111 542.03 209.091 542.03C210.111 542.03 210.911 541.73 211.491 541.13C212.071 540.51 212.361 539.69 212.361 538.67V534.74C212.361 533.72 212.071 532.92 211.491 532.34C210.911 531.74 210.111 531.44 209.091 531.44C208.131 531.44 207.361 531.74 206.781 532.34C206.201 532.94 205.911 533.74 205.911 534.74V538.76ZM220.78 528.5H224.32V531.35H224.59C224.79 530.35 225.29 529.58 226.09 529.04C226.89 528.48 227.91 528.2 229.15 528.2C230.93 528.2 232.32 528.75 233.32 529.85C234.32 530.95 234.82 532.47 234.82 534.41V535.61H230.89V534.74C230.89 533.68 230.6 532.86 230.02 532.28C229.44 531.68 228.64 531.38 227.62 531.38C226.66 531.38 225.9 531.68 225.34 532.28C224.8 532.88 224.53 533.7 224.53 534.74V545H220.78V528.5ZM237.448 540.38C237.448 539.56 237.598 538.83 237.898 538.19C238.198 537.53 238.628 536.97 239.188 536.51C239.748 536.05 240.418 535.7 241.198 535.46C241.998 535.2 242.888 535.07 243.868 535.07H248.008V533.66C248.008 532.9 247.718 532.3 247.138 531.86C246.578 531.4 245.798 531.17 244.798 531.17C243.978 531.17 243.288 531.32 242.728 531.62C242.168 531.92 241.808 532.33 241.648 532.85H237.958C238.218 531.41 238.958 530.28 240.178 529.46C241.398 528.62 242.938 528.2 244.798 528.2C245.858 528.2 246.818 528.33 247.678 528.59C248.538 528.83 249.268 529.19 249.868 529.67C250.468 530.13 250.928 530.7 251.248 531.38C251.588 532.04 251.758 532.78 251.758 533.6V545H248.218V541.76H247.978C247.778 542.84 247.208 543.7 246.268 544.34C245.348 544.98 244.198 545.3 242.818 545.3C241.178 545.3 239.868 544.86 238.888 543.98C237.928 543.08 237.448 541.88 237.448 540.38ZM244.108 542.36C245.248 542.36 246.178 542.09 246.898 541.55C247.638 540.99 248.008 540.29 248.008 539.45V537.53H243.898C243.058 537.53 242.398 537.74 241.918 538.16C241.438 538.58 241.198 539.17 241.198 539.93C241.198 540.69 241.448 541.29 241.948 541.73C242.468 542.15 243.188 542.36 244.108 542.36Z" fill="#474747"/>
</svg>
