<svg width="670" height="461" viewBox="0 0 670 461" fill="none" xmlns="http://www.w3.org/2000/svg">
<line x1="445" y1="115" x2="445" y2="174" stroke="#4675D0" stroke-width="6" stroke-dasharray="6 6"/>
<path d="M139 342.567C82.2 342.567 26 389.234 5 412.567H667.5C651.333 316.734 599 124.067 519 120.067C419 115.067 374 391.067 311.5 388.567C249 386.067 210 342.567 139 342.567Z" fill="#F2F2F2" stroke="#474747" stroke-width="4"/>
<path d="M482.507 124.548L482.602 124.5H482.956C483.259 124.5 483.749 124.542 484.202 124.844C484.762 125.217 485.007 125.808 485.007 126.367C485.007 126.545 484.971 126.722 484.97 126.729C484.957 126.797 484.941 126.878 484.922 126.966C484.885 127.144 484.83 127.388 484.759 127.693C484.618 128.305 484.407 129.191 484.127 130.349C483.567 132.665 482.728 136.082 481.61 140.6C480.493 145.117 479.646 148.528 479.072 150.834C478.785 151.986 478.565 152.864 478.413 153.465C478.291 153.949 478.195 154.328 478.148 154.489C478.148 154.507 478.149 154.539 478.154 154.589L478.163 154.671V154.701C478.246 154.55 478.34 154.358 478.442 154.119C478.716 153.476 479.005 152.603 479.301 151.479L479.307 151.454L479.315 151.43C479.414 151.098 479.524 150.779 479.65 150.515C479.711 150.387 479.802 150.215 479.932 150.049C480.021 149.936 480.266 149.642 480.692 149.488C480.929 149.398 481.142 149.377 481.218 149.369L481.222 149.369C481.368 149.354 481.523 149.35 481.67 149.35H481.854H482.038C482.352 149.35 482.82 149.384 483.26 149.618C483.503 149.748 483.762 149.952 483.955 150.262C484.152 150.576 484.227 150.913 484.227 151.217C484.227 151.586 484.131 151.996 484.038 152.338C483.622 153.936 483.125 155.301 482.526 156.394L481.211 155.673L482.526 156.394C482.011 157.333 481.463 158.19 480.874 158.671C480.395 159.063 479.829 159.377 479.21 159.632L479.108 159.674L479.002 159.701C478.574 159.808 478.057 159.837 477.536 159.837C476.273 159.837 475.099 159.557 474.098 158.905L474.918 157.648L474.098 158.905C473.62 158.593 473.172 158.234 472.806 157.816C471.125 159.109 469.314 159.837 467.385 159.837C465.293 159.837 463.443 159.061 461.895 157.586C460.19 155.963 459.5 153.537 459.5 150.666C459.5 148.984 459.851 147.294 460.526 145.608C461.181 143.969 461.982 142.525 462.939 141.294L462.953 141.277L462.966 141.26C464.491 139.411 466.098 138.027 467.805 137.227C469.375 136.493 470.897 136.075 472.346 136.075C473.555 136.075 474.649 136.342 475.583 136.886C475.757 136.183 475.968 135.328 476.218 134.321C476.686 132.431 477.035 131.028 477.259 130.151C477.121 130.14 476.968 130.129 476.8 130.118H475.882H475.261L474.822 129.679C474.709 129.566 474.583 129.432 474.476 129.289C474.422 129.217 474.349 129.111 474.282 128.979C474.228 128.871 474.107 128.606 474.107 128.251C474.107 128.126 474.125 127.949 474.137 127.84L474.138 127.83C474.154 127.675 474.178 127.465 474.209 127.203L474.221 127.098L474.248 126.996C474.342 126.639 474.483 126.229 474.725 125.876C474.972 125.515 475.484 125.005 476.296 125.005C476.258 125.005 476.34 125 476.607 124.981C476.719 124.974 476.862 124.964 477.042 124.951C477.592 124.913 478.411 124.856 479.498 124.779C480.583 124.703 481.399 124.642 481.949 124.597C482.192 124.577 482.377 124.561 482.507 124.548ZM478.135 130.258C478.135 130.258 478.134 130.258 478.131 130.257C478.134 130.258 478.135 130.258 478.135 130.258ZM468.245 144.927L468.245 144.927L468.242 144.936C467.403 147.222 466.805 149.596 466.45 152.059V152.059V152.06V152.061V152.062V152.063V152.063V152.064V152.065V152.066V152.067V152.068V152.068V152.069V152.07V152.071V152.072V152.073V152.073V152.074V152.075V152.076V152.077V152.078V152.079V152.079V152.08V152.081V152.082V152.083V152.084V152.085V152.085V152.086V152.087V152.088V152.089V152.09V152.091V152.092V152.092V152.093V152.094V152.095V152.096V152.097V152.098V152.099V152.1V152.1V152.101V152.102V152.103V152.104V152.105V152.106V152.107V152.108V152.109V152.11V152.11V152.111V152.112V152.113V152.114V152.115V152.116V152.117V152.118V152.119V152.12V152.121V152.122V152.123V152.124V152.124V152.125V152.126V152.127V152.128V152.129V152.13V152.131V152.132V152.133V152.134V152.135V152.136V152.137V152.138V152.139V152.14V152.141V152.142V152.143V152.144V152.145V152.146V152.147V152.148V152.149V152.15V152.151V152.152V152.153V152.154V152.155V152.156V152.157V152.158V152.159V152.16V152.161V152.162V152.163V152.164V152.165V152.166V152.167V152.168V152.169V152.17V152.171V152.172V152.173V152.174V152.175V152.176V152.177V152.178V152.179V152.18V152.181V152.182V152.183V152.184V152.185V152.186V152.187V152.189V152.19V152.191V152.192V152.193V152.194V152.195V152.196V152.197V152.198V152.199V152.2V152.201V152.202V152.203V152.205V152.206V152.207V152.208V152.209V152.21V152.211V152.212V152.213V152.214V152.215V152.217V152.218V152.219V152.22V152.221V152.222V152.223V152.224V152.225V152.227V152.228V152.229V152.23V152.231V152.232V152.233V152.234V152.236V152.237V152.238V152.239V152.24V152.241V152.242V152.244V152.245V152.246V152.247V152.248V152.249V152.25V152.252V152.253V152.254V152.255V152.256V152.257V152.259V152.26V152.261V152.262V152.263V152.264V152.266V152.267V152.268V152.269V152.27V152.272V152.273V152.274V152.275V152.276V152.277V152.279V152.28V152.281V152.282V152.283V152.285V152.286V152.287V152.288V152.29V152.291V152.292V152.293V152.294V152.296V152.297V152.298V152.299V152.3V152.302V152.303V152.304V152.305V152.307V152.308V152.309V152.31V152.312V152.313V152.314V152.315V152.317V152.318V152.319V152.32V152.322V152.323V152.324V152.325V152.327V152.328V152.329V152.33V152.332V152.333V152.334V152.336V152.337V152.338V152.339V152.341V152.342V152.343V152.345V152.346V152.347V152.348V152.35V152.351V152.352V152.354V152.355V152.356V152.358V152.359V152.36V152.361V152.363V152.364V152.365V152.367V152.368V152.369V152.371V152.372V152.373V152.375V152.376V152.377V152.379V152.38V152.381V152.383V152.384V152.385V152.387V152.388V152.389V152.391V152.392V152.394V152.395V152.396V152.398V152.399V152.4V152.402V152.403V152.404V152.406V152.407V152.409V152.41V152.411V152.413V152.414V152.415V152.417V152.418V152.42V152.421V152.422V152.424V152.425V152.427V152.428V152.429V152.431V152.432V152.434V152.435V152.436V152.438V152.439V152.441V152.442V152.443V152.445V152.446V152.448V152.449V152.451V152.452V152.453V152.455V152.456V152.458C466.45 152.666 466.442 152.906 466.405 153.143C466.424 154.312 466.681 154.691 466.761 154.766C467.039 155.029 467.343 155.162 467.736 155.183C468.685 155.17 469.981 154.519 471.61 152.469L471.787 152.225L474.096 142.948C473.806 142.082 473.48 141.536 473.175 141.215C472.869 140.892 472.571 140.775 472.208 140.775C471.624 140.775 470.954 141.021 470.174 141.776C469.387 142.538 468.733 143.571 468.245 144.927Z" fill="#4675D0" stroke="#F2F2F2" stroke-width="3"/>
<mask id="path-4-outside-1_118_1255" maskUnits="userSpaceOnUse" x="481.182" y="146.768" width="32" height="21" fill="black">
<rect fill="white" x="481.182" y="146.768" width="32" height="21"/>
<path d="M484.701 163.274H485.156C486 163.274 486.509 163.122 486.682 162.819V162.56C486.682 162.365 486.682 162.116 486.682 161.813C486.682 161.51 486.682 161.174 486.682 160.806C486.682 160.438 486.693 160.016 486.715 159.539C486.736 159.063 486.736 158.608 486.715 158.175C486.715 157.504 486.715 156.79 486.715 156.032C486.715 155.274 486.704 154.636 486.682 154.116V153.369C486.617 152.958 486.466 152.687 486.228 152.557C485.989 152.427 485.502 152.33 484.766 152.265H484.182V151.518C484.182 151.02 484.203 150.771 484.247 150.771L484.571 150.739C484.788 150.717 485.091 150.695 485.481 150.674C485.87 150.652 486.271 150.63 486.682 150.609C487.05 150.587 487.44 150.565 487.851 150.544C488.263 150.522 488.577 150.49 488.793 150.446C489.01 150.403 489.129 150.392 489.15 150.414H489.248V151.713C489.248 152.536 489.259 152.947 489.28 152.947C489.302 152.947 489.356 152.893 489.443 152.785C489.529 152.676 489.659 152.514 489.832 152.297C490.005 152.081 490.211 151.886 490.449 151.713C490.687 151.54 491.001 151.334 491.391 151.096C491.781 150.858 492.192 150.685 492.625 150.576C493.058 150.468 493.61 150.414 494.281 150.414C494.606 150.414 494.909 150.436 495.191 150.479C495.472 150.522 495.721 150.587 495.938 150.674C496.154 150.76 496.36 150.847 496.555 150.933C496.749 151.02 496.912 151.118 497.042 151.226C497.172 151.334 497.291 151.453 497.399 151.583C497.507 151.713 497.605 151.832 497.691 151.94C497.778 152.048 497.854 152.168 497.919 152.297C497.983 152.427 498.027 152.536 498.048 152.622C498.07 152.709 498.103 152.795 498.146 152.882L498.211 153.044L498.308 152.914C498.373 152.828 498.438 152.741 498.503 152.655C498.568 152.568 498.665 152.449 498.795 152.297C498.925 152.146 499.066 152.005 499.218 151.875C499.369 151.745 499.531 151.605 499.705 151.453C499.878 151.302 500.094 151.172 500.354 151.063C500.614 150.955 500.863 150.847 501.101 150.739C501.339 150.63 501.621 150.555 501.945 150.511C502.27 150.468 502.606 150.436 502.952 150.414C505.68 150.414 507.163 151.637 507.401 154.084C507.423 154.235 507.434 155.74 507.434 158.598V161.39C507.434 162.213 507.455 162.7 507.499 162.852C507.542 163.003 507.661 163.112 507.856 163.177C508.311 163.241 508.841 163.274 509.447 163.274H509.967V164.768H509.707L508.96 164.735C508.44 164.714 507.888 164.703 507.304 164.703C506.719 164.703 506.308 164.692 506.07 164.67C503.84 164.67 502.627 164.703 502.433 164.768H502.173V163.274H502.692C504.013 163.274 504.673 163.101 504.673 162.754C504.695 162.711 504.706 161.217 504.706 158.273C504.684 155.35 504.663 153.802 504.641 153.629C504.511 153.023 504.294 152.568 503.991 152.265C503.688 151.962 503.428 151.778 503.212 151.713C502.995 151.648 502.714 151.626 502.368 151.648C501.393 151.648 500.538 152.016 499.802 152.752C499.218 153.337 498.849 153.932 498.698 154.538C498.546 155.144 498.46 156.043 498.438 157.234V159.312V161.261C498.438 161.91 498.449 162.343 498.471 162.56C498.492 162.776 498.525 162.917 498.568 162.982C498.611 163.047 498.709 163.112 498.86 163.177C499.315 163.241 499.845 163.274 500.452 163.274H500.971V164.768H500.711L499.932 164.735C499.434 164.714 498.893 164.703 498.308 164.703C497.724 164.703 497.312 164.692 497.074 164.67C494.844 164.67 493.632 164.703 493.437 164.768H493.177V163.274H493.697C495.017 163.274 495.678 163.101 495.678 162.754C495.699 162.711 495.71 161.217 495.71 158.273C495.689 155.35 495.667 153.802 495.645 153.629C495.515 153.023 495.299 152.568 494.996 152.265C494.693 151.962 494.433 151.778 494.216 151.713C494 151.648 493.718 151.626 493.372 151.648C492.398 151.648 491.543 152.016 490.807 152.752C490.222 153.337 489.854 153.932 489.702 154.538C489.551 155.144 489.464 156.043 489.443 157.234V159.312V161.261C489.443 161.91 489.453 162.343 489.475 162.56C489.497 162.776 489.529 162.917 489.572 162.982C489.616 163.047 489.713 163.112 489.865 163.177C490.319 163.241 490.85 163.274 491.456 163.274H491.976V164.768H491.716L490.969 164.735C490.449 164.714 489.897 164.703 489.313 164.703C488.728 164.703 488.317 164.692 488.079 164.67C485.849 164.67 484.636 164.703 484.441 164.768H484.182V163.274H484.701Z"/>
</mask>
<path d="M484.701 163.274H485.156C486 163.274 486.509 163.122 486.682 162.819V162.56C486.682 162.365 486.682 162.116 486.682 161.813C486.682 161.51 486.682 161.174 486.682 160.806C486.682 160.438 486.693 160.016 486.715 159.539C486.736 159.063 486.736 158.608 486.715 158.175C486.715 157.504 486.715 156.79 486.715 156.032C486.715 155.274 486.704 154.636 486.682 154.116V153.369C486.617 152.958 486.466 152.687 486.228 152.557C485.989 152.427 485.502 152.33 484.766 152.265H484.182V151.518C484.182 151.02 484.203 150.771 484.247 150.771L484.571 150.739C484.788 150.717 485.091 150.695 485.481 150.674C485.87 150.652 486.271 150.63 486.682 150.609C487.05 150.587 487.44 150.565 487.851 150.544C488.263 150.522 488.577 150.49 488.793 150.446C489.01 150.403 489.129 150.392 489.15 150.414H489.248V151.713C489.248 152.536 489.259 152.947 489.28 152.947C489.302 152.947 489.356 152.893 489.443 152.785C489.529 152.676 489.659 152.514 489.832 152.297C490.005 152.081 490.211 151.886 490.449 151.713C490.687 151.54 491.001 151.334 491.391 151.096C491.781 150.858 492.192 150.685 492.625 150.576C493.058 150.468 493.61 150.414 494.281 150.414C494.606 150.414 494.909 150.436 495.191 150.479C495.472 150.522 495.721 150.587 495.938 150.674C496.154 150.76 496.36 150.847 496.555 150.933C496.749 151.02 496.912 151.118 497.042 151.226C497.172 151.334 497.291 151.453 497.399 151.583C497.507 151.713 497.605 151.832 497.691 151.94C497.778 152.048 497.854 152.168 497.919 152.297C497.983 152.427 498.027 152.536 498.048 152.622C498.07 152.709 498.103 152.795 498.146 152.882L498.211 153.044L498.308 152.914C498.373 152.828 498.438 152.741 498.503 152.655C498.568 152.568 498.665 152.449 498.795 152.297C498.925 152.146 499.066 152.005 499.218 151.875C499.369 151.745 499.531 151.605 499.705 151.453C499.878 151.302 500.094 151.172 500.354 151.063C500.614 150.955 500.863 150.847 501.101 150.739C501.339 150.63 501.621 150.555 501.945 150.511C502.27 150.468 502.606 150.436 502.952 150.414C505.68 150.414 507.163 151.637 507.401 154.084C507.423 154.235 507.434 155.74 507.434 158.598V161.39C507.434 162.213 507.455 162.7 507.499 162.852C507.542 163.003 507.661 163.112 507.856 163.177C508.311 163.241 508.841 163.274 509.447 163.274H509.967V164.768H509.707L508.96 164.735C508.44 164.714 507.888 164.703 507.304 164.703C506.719 164.703 506.308 164.692 506.07 164.67C503.84 164.67 502.627 164.703 502.433 164.768H502.173V163.274H502.692C504.013 163.274 504.673 163.101 504.673 162.754C504.695 162.711 504.706 161.217 504.706 158.273C504.684 155.35 504.663 153.802 504.641 153.629C504.511 153.023 504.294 152.568 503.991 152.265C503.688 151.962 503.428 151.778 503.212 151.713C502.995 151.648 502.714 151.626 502.368 151.648C501.393 151.648 500.538 152.016 499.802 152.752C499.218 153.337 498.849 153.932 498.698 154.538C498.546 155.144 498.46 156.043 498.438 157.234V159.312V161.261C498.438 161.91 498.449 162.343 498.471 162.56C498.492 162.776 498.525 162.917 498.568 162.982C498.611 163.047 498.709 163.112 498.86 163.177C499.315 163.241 499.845 163.274 500.452 163.274H500.971V164.768H500.711L499.932 164.735C499.434 164.714 498.893 164.703 498.308 164.703C497.724 164.703 497.312 164.692 497.074 164.67C494.844 164.67 493.632 164.703 493.437 164.768H493.177V163.274H493.697C495.017 163.274 495.678 163.101 495.678 162.754C495.699 162.711 495.71 161.217 495.71 158.273C495.689 155.35 495.667 153.802 495.645 153.629C495.515 153.023 495.299 152.568 494.996 152.265C494.693 151.962 494.433 151.778 494.216 151.713C494 151.648 493.718 151.626 493.372 151.648C492.398 151.648 491.543 152.016 490.807 152.752C490.222 153.337 489.854 153.932 489.702 154.538C489.551 155.144 489.464 156.043 489.443 157.234V159.312V161.261C489.443 161.91 489.453 162.343 489.475 162.56C489.497 162.776 489.529 162.917 489.572 162.982C489.616 163.047 489.713 163.112 489.865 163.177C490.319 163.241 490.85 163.274 491.456 163.274H491.976V164.768H491.716L490.969 164.735C490.449 164.714 489.897 164.703 489.313 164.703C488.728 164.703 488.317 164.692 488.079 164.67C485.849 164.67 484.636 164.703 484.441 164.768H484.182V163.274H484.701Z" fill="#4675D0"/>
<path d="M484.701 163.274H485.156C486 163.274 486.509 163.122 486.682 162.819V162.56C486.682 162.365 486.682 162.116 486.682 161.813C486.682 161.51 486.682 161.174 486.682 160.806C486.682 160.438 486.693 160.016 486.715 159.539C486.736 159.063 486.736 158.608 486.715 158.175C486.715 157.504 486.715 156.79 486.715 156.032C486.715 155.274 486.704 154.636 486.682 154.116V153.369C486.617 152.958 486.466 152.687 486.228 152.557C485.989 152.427 485.502 152.33 484.766 152.265H484.182V151.518C484.182 151.02 484.203 150.771 484.247 150.771L484.571 150.739C484.788 150.717 485.091 150.695 485.481 150.674C485.87 150.652 486.271 150.63 486.682 150.609C487.05 150.587 487.44 150.565 487.851 150.544C488.263 150.522 488.577 150.49 488.793 150.446C489.01 150.403 489.129 150.392 489.15 150.414H489.248V151.713C489.248 152.536 489.259 152.947 489.28 152.947C489.302 152.947 489.356 152.893 489.443 152.785C489.529 152.676 489.659 152.514 489.832 152.297C490.005 152.081 490.211 151.886 490.449 151.713C490.687 151.54 491.001 151.334 491.391 151.096C491.781 150.858 492.192 150.685 492.625 150.576C493.058 150.468 493.61 150.414 494.281 150.414C494.606 150.414 494.909 150.436 495.191 150.479C495.472 150.522 495.721 150.587 495.938 150.674C496.154 150.76 496.36 150.847 496.555 150.933C496.749 151.02 496.912 151.118 497.042 151.226C497.172 151.334 497.291 151.453 497.399 151.583C497.507 151.713 497.605 151.832 497.691 151.94C497.778 152.048 497.854 152.168 497.919 152.297C497.983 152.427 498.027 152.536 498.048 152.622C498.07 152.709 498.103 152.795 498.146 152.882L498.211 153.044L498.308 152.914C498.373 152.828 498.438 152.741 498.503 152.655C498.568 152.568 498.665 152.449 498.795 152.297C498.925 152.146 499.066 152.005 499.218 151.875C499.369 151.745 499.531 151.605 499.705 151.453C499.878 151.302 500.094 151.172 500.354 151.063C500.614 150.955 500.863 150.847 501.101 150.739C501.339 150.63 501.621 150.555 501.945 150.511C502.27 150.468 502.606 150.436 502.952 150.414C505.68 150.414 507.163 151.637 507.401 154.084C507.423 154.235 507.434 155.74 507.434 158.598V161.39C507.434 162.213 507.455 162.7 507.499 162.852C507.542 163.003 507.661 163.112 507.856 163.177C508.311 163.241 508.841 163.274 509.447 163.274H509.967V164.768H509.707L508.96 164.735C508.44 164.714 507.888 164.703 507.304 164.703C506.719 164.703 506.308 164.692 506.07 164.67C503.84 164.67 502.627 164.703 502.433 164.768H502.173V163.274H502.692C504.013 163.274 504.673 163.101 504.673 162.754C504.695 162.711 504.706 161.217 504.706 158.273C504.684 155.35 504.663 153.802 504.641 153.629C504.511 153.023 504.294 152.568 503.991 152.265C503.688 151.962 503.428 151.778 503.212 151.713C502.995 151.648 502.714 151.626 502.368 151.648C501.393 151.648 500.538 152.016 499.802 152.752C499.218 153.337 498.849 153.932 498.698 154.538C498.546 155.144 498.46 156.043 498.438 157.234V159.312V161.261C498.438 161.91 498.449 162.343 498.471 162.56C498.492 162.776 498.525 162.917 498.568 162.982C498.611 163.047 498.709 163.112 498.86 163.177C499.315 163.241 499.845 163.274 500.452 163.274H500.971V164.768H500.711L499.932 164.735C499.434 164.714 498.893 164.703 498.308 164.703C497.724 164.703 497.312 164.692 497.074 164.67C494.844 164.67 493.632 164.703 493.437 164.768H493.177V163.274H493.697C495.017 163.274 495.678 163.101 495.678 162.754C495.699 162.711 495.71 161.217 495.71 158.273C495.689 155.35 495.667 153.802 495.645 153.629C495.515 153.023 495.299 152.568 494.996 152.265C494.693 151.962 494.433 151.778 494.216 151.713C494 151.648 493.718 151.626 493.372 151.648C492.398 151.648 491.543 152.016 490.807 152.752C490.222 153.337 489.854 153.932 489.702 154.538C489.551 155.144 489.464 156.043 489.443 157.234V159.312V161.261C489.443 161.91 489.453 162.343 489.475 162.56C489.497 162.776 489.529 162.917 489.572 162.982C489.616 163.047 489.713 163.112 489.865 163.177C490.319 163.241 490.85 163.274 491.456 163.274H491.976V164.768H491.716L490.969 164.735C490.449 164.714 489.897 164.703 489.313 164.703C488.728 164.703 488.317 164.692 488.079 164.67C485.849 164.67 484.636 164.703 484.441 164.768H484.182V163.274H484.701Z" stroke="#F2F2F2" stroke-width="6" mask="url(#path-4-outside-1_118_1255)"/>
<path d="M511.163 145.041L511.162 145.016V144.991C511.162 144.033 511.487 143.119 512.25 142.441C512.937 141.83 513.777 141.542 514.676 141.542H514.741L514.806 141.548C515.617 141.618 516.354 141.928 516.967 142.469C517.732 143.144 518.027 144.063 518.027 144.991C518.027 145.923 517.754 146.883 516.967 147.577C516.296 148.169 515.477 148.439 514.611 148.439C513.745 148.439 512.925 148.169 512.254 147.577C511.485 146.898 511.194 145.963 511.163 145.041ZM518.443 166.268H518.294L518.149 166.239C518.155 166.24 518.155 166.24 518.147 166.239C518.128 166.237 518.068 166.23 517.949 166.222C517.794 166.211 517.583 166.202 517.312 166.194C516.77 166.178 516.023 166.17 515.065 166.17H515.064H515.063H515.061H515.06H515.058H515.057H515.056H515.054H515.053H515.051H515.05H515.048H515.047H515.046H515.044H515.043H515.041H515.04H515.038H515.037H515.035H515.034H515.032H515.031H515.029H515.028H515.026H515.025H515.023H515.022H515.02H515.019H515.017H515.016H515.014H515.013H515.011H515.01H515.008H515.007H515.005H515.004H515.002H515H514.999H514.997H514.996H514.994H514.993H514.991H514.989H514.988H514.986H514.985H514.983H514.981H514.98H514.978H514.977H514.975H514.973H514.972H514.97H514.969H514.967H514.965H514.964H514.962H514.96H514.959H514.957H514.955H514.954H514.952H514.95H514.949H514.947H514.945H514.944H514.942H514.94H514.939H514.937H514.935H514.933H514.932H514.93H514.928H514.927H514.925H514.923H514.921H514.92H514.918H514.916H514.914H514.913H514.911H514.909H514.907H514.906H514.904H514.902H514.9H514.898H514.897H514.895H514.893H514.891H514.889H514.888H514.886H514.884H514.882H514.88H514.879H514.877H514.875H514.873H514.871H514.869H514.868H514.866H514.864H514.862H514.86H514.858H514.856H514.855H514.853H514.851H514.849H514.847H514.845H514.843H514.841H514.839H514.837H514.836H514.834H514.832H514.83H514.828H514.826H514.824H514.822H514.82H514.818H514.816H514.814H514.812H514.81H514.808H514.806H514.805H514.803H514.801H514.799H514.797H514.795H514.793H514.791H514.789H514.787H514.785H514.783H514.781H514.779H514.777H514.775H514.772H514.77H514.768H514.766H514.764H514.762H514.76H514.758H514.756H514.754H514.752H514.75H514.748H514.746H514.744H514.742H514.74H514.737H514.735H514.733H514.731H514.729H514.727H514.725H514.723H514.721H514.718H514.716H514.714H514.712H514.71H514.708H514.706H514.703H514.701H514.699H514.697H514.695H514.693H514.69H514.688H514.686H514.684H514.682H514.68H514.677H514.675H514.673H514.671H514.669H514.666H514.664H514.662H514.66H514.657H514.655H514.653H514.651H514.648H514.646H514.644H514.642H514.639H514.637H514.635H514.633H514.63H514.628H514.626H514.624H514.621H514.619H514.617H514.614H514.612H514.61H514.607H514.605H514.603H514.6H514.598H514.596H514.593H514.591H514.589H514.586H514.584H514.582H514.579H514.577H514.575H514.572H514.57H514.568H514.565H514.563H514.56H514.558H514.556H514.553H514.551H514.548H514.546H514.544H514.541H514.539H514.536H514.534H514.531H514.529H514.527H514.524H514.522H514.519H514.517H514.514H514.512H514.509H514.507H514.504H514.502H514.5H514.497H514.495H514.492H514.49H514.487H514.485H514.482H514.48H514.477H514.475H514.472H514.47H514.467H514.464H514.462H514.459H514.457H514.454H514.452H514.449H514.447H514.444H514.442H514.439H514.436H514.434H514.431H514.429H514.426H514.423H514.421H514.418H514.416H514.413H514.41H514.408H514.405H514.403H514.4H514.397H514.395H514.392H514.389H514.387H514.384H514.381H514.379H514.376H514.374H514.371H514.368H514.366H514.363H514.36H514.357H514.355H514.352H514.349H514.347H514.344H514.341H514.339H514.336H514.333H514.33H514.328H514.325H514.322H514.32H514.317H514.314H514.311H514.309H514.306H514.303H514.3H514.298H514.295H514.292H514.289H514.286H514.284H514.281H514.278H514.275H514.272H514.27H514.267H514.264H514.261H514.258H514.256H514.253H514.25H514.247H514.244H514.241H514.239H514.236H514.233H514.23H514.227H514.224H514.221H514.219H514.216H514.213H514.21H514.207H514.204H514.201H514.198H514.196H514.193H514.19H514.187H514.184H514.181H514.178H514.175H514.172H514.169H514.166H514.163H514.16H514.157H514.155H514.152H514.149H514.146H514.143H514.14H514.137H514.134H514.131H514.128H514.125H514.122H514.119H514.116H514.113H514.11H514.107H514.104H514.101H514.098H514.095H514.092H514.089H514.086H514.083H514.08H514.077H514.073H514.07H514.067H514.064H514.061H514.058H514.055H514.052H514.049H514.046H514.043H514.04H514.037H514.033H514.03H514.027H514.024H514.021H514.018H514.015H514.012H514.009H514.005H514.002H513.999H513.996H513.993H513.99H513.987H513.983H513.98H513.977H513.974H513.971H513.968H513.964H513.961H513.958H513.955H513.952H513.948H513.945H513.942H513.939H513.936H513.932H513.929H513.926H513.923H513.919H513.916H513.913H513.91H513.906H513.903H513.9H513.897H513.893H513.89H513.887H513.884H513.88H513.877H513.874H513.87H513.867H513.864C513.339 166.17 512.84 166.191 512.365 166.23L512.336 166.233L512.308 166.234L511.594 166.266L511.56 166.268H511.526H511.266H509.766V164.768V163.274V161.774H511.266H511.785C511.967 161.774 512.137 161.771 512.297 161.765C512.298 161.67 512.299 161.567 512.299 161.455V158.11V155.253C512.299 154.587 512.291 154.107 512.279 153.785C512.139 153.773 511.965 153.765 511.753 153.765H511.396H509.896V152.265V151.518C509.896 151.259 509.901 151.02 509.918 150.828C509.925 150.744 509.94 150.596 509.981 150.439C509.998 150.373 510.047 150.196 510.164 150.003C510.247 149.867 510.61 149.327 511.346 149.275L511.636 149.246C511.885 149.221 512.214 149.198 512.612 149.176L513.776 149.111C513.777 149.111 513.777 149.111 513.778 149.111C514.149 149.089 514.541 149.068 514.954 149.046C515.344 149.025 515.572 148.997 515.681 148.976C515.805 148.951 515.951 148.925 516.091 148.912C516.155 148.906 516.274 148.897 516.412 148.908C516.43 148.909 516.45 148.911 516.473 148.914H517.929V150.414V161.768C517.956 161.77 517.982 161.772 518.01 161.774H518.703H520.203V163.274V164.768V166.268H518.703H518.443ZM511.578 152.267C511.586 152.266 511.594 152.266 511.602 152.265H511.597L511.578 152.267ZM512.269 162.505C512.268 162.509 512.268 162.512 512.268 162.512C512.268 162.512 512.268 162.51 512.269 162.505Z" fill="#4675D0" stroke="#F2F2F2" stroke-width="3"/>
<path d="M527.763 166.268H527.757V166.268L527.73 166.266L526.986 166.234C526.985 166.234 526.985 166.234 526.984 166.234C526.488 166.213 525.958 166.203 525.392 166.203C524.852 166.203 524.408 166.194 524.096 166.17C523.016 166.171 522.192 166.179 521.616 166.194C521.322 166.202 521.106 166.212 520.961 166.222C520.93 166.224 520.905 166.226 520.885 166.228L520.764 166.268H520.521H520.261H518.761V164.768V163.274V161.774H520.261H520.781H521.235C521.244 161.774 521.253 161.774 521.262 161.774V161.773V161.772V161.77V161.768V161.766V161.764V161.763V161.761V161.759V161.757V161.755V161.754V161.752V161.75V161.748V161.746V161.745V161.743V161.741V161.739V161.737V161.736V161.734V161.732V161.73V161.728V161.726V161.725V161.723V161.721V161.719V161.717V161.716V161.714V161.712V161.71V161.708V161.707V161.705V161.703V161.701V161.699V161.697V161.696V161.694V161.692V161.69V161.688V161.686V161.685V161.683V161.681V161.679V161.677V161.675V161.674V161.672V161.67V161.668V161.666V161.664V161.663V161.661V161.659V161.657V161.655V161.653V161.652V161.65V161.648V161.646V161.644V161.642V161.641V161.639V161.637V161.635V161.633V161.631V161.629V161.628V161.626V161.624V161.622V161.62V161.618V161.616V161.615V161.613V161.611V161.609V161.607V161.605V161.603V161.602V161.6V161.598V161.596V161.594V161.592V161.59V161.589V161.587V161.585V161.583V161.581V161.579V161.577V161.575V161.574V161.572V161.57V161.568V161.566V161.564V161.562V161.56V161.559V161.557V161.555V161.553V161.551V161.549V161.547V161.545V161.544V161.542V161.54V161.538V161.536V161.534V161.532V161.53V161.528V161.527V161.525V161.523V161.521V161.519V161.517V161.515V161.513V161.511V161.509V161.508V161.506V161.504V161.502V161.5V161.498V161.496V161.494V161.492V161.49V161.489V161.487V161.485V161.483V161.481V161.479V161.477V161.475V161.473V161.471V161.469V161.467V161.466V161.464V161.462V161.46V161.458V161.456V161.454V161.452V161.45V161.448V161.446V161.444V161.443V161.441V161.439V161.437V161.435V161.433V161.431V161.429V161.427V161.425V161.423V161.421V161.419V161.417V161.416V161.414V161.412V161.41V161.408V161.406V161.404V161.402V161.4V161.398V161.396V161.394V161.392V161.39V161.388V161.386V161.384V161.383V161.381V161.379V161.377V161.375V161.373V161.371V161.369V161.367V161.365V161.363V161.361V161.359V161.357V161.355V161.353V161.351V161.349V161.347V161.345V161.343V161.341V161.339V161.338V161.336V161.334V161.332V161.33V161.328V161.326V161.324V161.322V161.32V161.318V161.316V161.314V161.312V161.31V161.308V161.306V161.304V161.302V161.3V161.298V161.296V161.294V161.292V161.29V161.288V161.286V161.284V161.282V161.28V161.278V161.276V161.274V161.272V161.27V161.268V161.266V161.264V161.262V161.26V161.258V161.256V161.254V161.252V161.25V161.248V161.246V161.244V161.242V161.24V161.238V161.236V161.234V161.232V161.23V161.228V161.226V161.224V161.222V161.22V161.218V161.216V161.214V161.212V161.21V161.208V161.206V161.204V161.202V161.2V161.198V161.196V161.194V161.192V161.19V161.188V161.186V161.184V161.182V161.18V161.178V161.176V161.174V161.172V161.17V161.168V161.166V161.164V161.162V161.16V161.158V161.156V161.154V161.152V161.15V161.148V161.145V161.143V161.141V161.139V161.137V161.135V161.133V161.131V161.129V161.127V161.125V161.123V161.121V161.119V161.117V161.115V161.113V161.111V161.109V161.107V161.105V161.103V161.101V161.098V161.096V161.094V161.092V161.09V161.088V161.086V161.084V161.082V161.08V161.078V161.076V161.074V161.072V161.07V161.068V161.066V161.063V161.061V161.059V161.057V161.055V161.053V161.051V161.049V161.047V161.045V161.043V161.041V161.039V161.037V161.034V161.032V161.03V161.028V161.026V161.024V161.022V161.02V161.018V161.016V161.014V161.012V161.009V161.007V161.005V161.003V161.001V160.999V160.997V160.995V160.993V160.991V160.989V160.986V160.984V160.982V160.98V160.978V160.976V160.974V160.972V160.97V160.968V160.966V160.963V160.961V160.959V160.957V160.955V160.953V160.951V160.949V160.947V160.944V160.942V160.94V160.938V160.936V160.934V160.932V160.93V160.928V160.925V160.923V160.921V160.919V160.917V160.915V160.913V160.911V160.909V160.906V160.904V160.902V160.9V160.898V160.896V160.894V160.892V160.889V160.887V160.885V160.883V160.881V160.879V160.877V160.875V160.872V160.87V160.868V160.866V160.864V160.862V160.86V160.857V160.855V160.853V160.851V160.849V160.847V160.845V160.842V160.84V160.838V160.836V160.834V160.832V160.83V160.827V160.825V160.823V160.821V160.819V160.817V160.814V160.812V160.81V160.808V160.806C521.262 160.41 521.273 159.964 521.296 159.471C521.315 159.038 521.315 158.631 521.296 158.25L521.294 158.213V158.175V158.171V158.168V158.164V158.16V158.156V158.152V158.148V158.144V158.14V158.136V158.132V158.128V158.124V158.12V158.116V158.112V158.108V158.104V158.101V158.097V158.093V158.089V158.085V158.081V158.077V158.073V158.069V158.065V158.061V158.057V158.053V158.049V158.045V158.041V158.037V158.033V158.029V158.025V158.021V158.017V158.013V158.009V158.005V158.001V157.997V157.993V157.989V157.986V157.982V157.978V157.974V157.97V157.966V157.962V157.958V157.954V157.95V157.946V157.942V157.938V157.934V157.93V157.926V157.922V157.918V157.914V157.91V157.906V157.902V157.898V157.894V157.89V157.886V157.882V157.878V157.874V157.87V157.866V157.862V157.858V157.854V157.85V157.846V157.842V157.838V157.834V157.83V157.826V157.821V157.817V157.813V157.809V157.805V157.801V157.797V157.793V157.789V157.785V157.781V157.777V157.773V157.769V157.765V157.761V157.757V157.753V157.749V157.745V157.741V157.737V157.733V157.729V157.725V157.721V157.717V157.713V157.709V157.704V157.7V157.696V157.692V157.688V157.684V157.68V157.676V157.672V157.668V157.664V157.66V157.656V157.652V157.648V157.644V157.64V157.635V157.631V157.627V157.623V157.619V157.615V157.611V157.607V157.603V157.599V157.595V157.591V157.587V157.583V157.578V157.574V157.57V157.566V157.562V157.558V157.554V157.55V157.546V157.542V157.538V157.534V157.529V157.525V157.521V157.517V157.513V157.509V157.505V157.501V157.497V157.493V157.488V157.484V157.48V157.476V157.472V157.468V157.464V157.46V157.456V157.452V157.447V157.443V157.439V157.435V157.431V157.427V157.423V157.419V157.414V157.41V157.406V157.402V157.398V157.394V157.39V157.386V157.381V157.377V157.373V157.369V157.365V157.361V157.357V157.353V157.348V157.344V157.34V157.336V157.332V157.328V157.324V157.319V157.315V157.311V157.307V157.303V157.299V157.295V157.29V157.286V157.282V157.278V157.274V157.27V157.266V157.261V157.257V157.253V157.249V157.245V157.241V157.236V157.232V157.228V157.224V157.22V157.216V157.211V157.207V157.203V157.199V157.195V157.191V157.186V157.182V157.178V157.174V157.17V157.165V157.161V157.157V157.153V157.149V157.145V157.14V157.136V157.132V157.128V157.124V157.119V157.115V157.111V157.107V157.103V157.098V157.094V157.09V157.086V157.082V157.078V157.073V157.069V157.065V157.061V157.056V157.052V157.048V157.044V157.04V157.035V157.031V157.027V157.023V157.019V157.014V157.01V157.006V157.002V156.998V156.993V156.989V156.985V156.981V156.976V156.972V156.968V156.964V156.96V156.955V156.951V156.947V156.943V156.938V156.934V156.93V156.926V156.921V156.917V156.913V156.909V156.904V156.9V156.896V156.892V156.887V156.883V156.879V156.875V156.871V156.866V156.862V156.858V156.854V156.849V156.845V156.841V156.836V156.832V156.828V156.824V156.819V156.815V156.811V156.807V156.802V156.798V156.794V156.79V156.785V156.781V156.777V156.773V156.768V156.764V156.76V156.755V156.751V156.747V156.743V156.738V156.734V156.73V156.725V156.721V156.717V156.713V156.708V156.704V156.7V156.695V156.691V156.687V156.683V156.678V156.674V156.67V156.665V156.661V156.657V156.653V156.648V156.644V156.64V156.635V156.631V156.627V156.622V156.618V156.614V156.609V156.605V156.601V156.597V156.592V156.588V156.584V156.579V156.575V156.571V156.566V156.562V156.558V156.553V156.549V156.545V156.54V156.536V156.532V156.527V156.523V156.519V156.514V156.51V156.506V156.501V156.497V156.493V156.488V156.484V156.48V156.475V156.471V156.467V156.462V156.458V156.454V156.449V156.445V156.441V156.436V156.432V156.428V156.423V156.419V156.415V156.41V156.406V156.402V156.397V156.393V156.388V156.384V156.38V156.375V156.371V156.367V156.362V156.358V156.354V156.349V156.345V156.34V156.336V156.332V156.327V156.323V156.319V156.314V156.31V156.305V156.301V156.297V156.292V156.288V156.284V156.279V156.275V156.27V156.266V156.262V156.257V156.253V156.248V156.244V156.24V156.235V156.231V156.226V156.222V156.218V156.213V156.209V156.204V156.2V156.196V156.191V156.187V156.182V156.178V156.174V156.169V156.165V156.16V156.156V156.152V156.147V156.143V156.138V156.134V156.13V156.125V156.121V156.116V156.112V156.107V156.103V156.099V156.094V156.09V156.085V156.081V156.076V156.072V156.068V156.063V156.059V156.054V156.05V156.045V156.041V156.037V156.032C521.294 155.287 521.283 154.67 521.263 154.178L521.262 154.147V154.116V153.822C521.129 153.802 520.969 153.783 520.778 153.765H520.261H518.761V152.265V151.518C518.761 151.259 518.766 151.02 518.783 150.828C518.79 150.744 518.805 150.596 518.846 150.439C518.863 150.373 518.912 150.196 519.029 150.003C519.112 149.867 519.476 149.327 520.211 149.275L520.501 149.246C520.751 149.221 521.079 149.198 521.477 149.176C521.867 149.154 522.267 149.133 522.678 149.111C523.048 149.089 523.439 149.068 523.852 149.046C524.241 149.025 524.469 148.997 524.578 148.976C524.703 148.951 524.849 148.925 524.988 148.912C525.053 148.906 525.171 148.897 525.31 148.908C525.327 148.909 525.348 148.911 525.371 148.914H526.827V149.734C527.303 149.459 527.809 149.254 528.341 149.121C528.936 148.972 529.622 148.914 530.361 148.914H530.387L530.413 148.915C531.877 148.966 533.214 149.363 534.24 150.276C535.273 151.195 535.803 152.471 535.974 153.906L535.974 153.906C535.992 154.054 535.996 154.262 535.999 154.406L535.999 154.422C536.003 154.638 536.007 154.937 536.009 155.315C536.015 156.073 536.017 157.168 536.017 158.598V161.39C536.017 161.526 536.018 161.651 536.019 161.765C536.179 161.771 536.35 161.774 536.531 161.774H537.051H538.551V163.274V164.768V166.268H537.051H536.791H536.759L536.728 166.267L535.949 166.234L535.946 166.234C535.473 166.213 534.954 166.203 534.388 166.203C533.848 166.203 533.403 166.194 533.092 166.17C532.011 166.171 531.187 166.179 530.612 166.194C530.317 166.202 530.102 166.212 529.957 166.222C529.926 166.224 529.901 166.226 529.881 166.228L529.76 166.268H529.555H529.516H529.257H528.055H527.795H527.763ZM529.257 161.774H529.555H529.776C529.971 161.774 530.138 161.77 530.28 161.763C530.281 161.708 530.281 161.651 530.282 161.591C530.287 160.85 530.29 159.747 530.29 158.278C530.279 156.821 530.268 155.709 530.257 154.941C530.252 154.556 530.247 154.261 530.241 154.054C530.239 153.95 530.236 153.883 530.235 153.843C530.144 153.477 530.039 153.35 530.014 153.326C529.925 153.236 529.858 153.178 529.813 153.144C529.811 153.144 529.809 153.144 529.807 153.144C529.75 153.139 529.664 153.138 529.545 153.145L529.498 153.148H529.451C528.904 153.148 528.423 153.337 527.947 153.813C527.494 154.265 527.305 154.632 527.237 154.902C527.128 155.338 527.043 156.095 527.022 157.247V159.312V161.261C527.022 161.454 527.023 161.621 527.025 161.765C527.185 161.771 527.355 161.774 527.535 161.774H527.757H528.055H529.257ZM530.907 161.685C530.907 161.685 530.903 161.686 530.896 161.689C530.903 161.687 530.907 161.686 530.907 161.685ZM520.443 152.267C520.451 152.266 520.459 152.266 520.467 152.265H520.462L520.443 152.267ZM536.05 162.551C536.05 162.551 536.049 162.548 536.048 162.543C536.049 162.549 536.05 162.551 536.05 162.551ZM529.825 166.233C529.807 166.235 529.809 166.236 529.827 166.233C529.826 166.233 529.826 166.233 529.825 166.233ZM521.645 153.901C521.646 153.902 521.647 153.902 521.647 153.902C521.647 153.902 521.646 153.902 521.645 153.901ZM521.829 161.72C521.829 161.72 521.828 161.721 521.827 161.721L521.829 161.72ZM520.83 166.233C520.812 166.235 520.814 166.236 520.831 166.233C520.831 166.233 520.83 166.233 520.83 166.233Z" fill="#4675D0" stroke="#F2F2F2" stroke-width="3"/>
<path d="M140.266 341.75L260.438 250.319" stroke="#4675D0" stroke-width="6"/>
<path d="M252.621 243.347C252.157 242.737 252.524 241.853 253.284 241.751L274.914 238.842C275.683 238.738 276.271 239.512 275.967 240.225L267.393 260.296C267.092 261.001 266.142 261.119 265.678 260.509L252.621 243.347Z" fill="#4675D0"/>
<path d="M279.266 375.091L399.438 283.66" stroke="#4675D0" stroke-width="6"/>
<path d="M391.621 276.688C391.157 276.078 391.524 275.194 392.284 275.092L413.914 272.182C414.683 272.079 415.271 272.853 414.967 273.566L406.393 293.637C406.092 294.342 405.142 294.46 404.678 293.849L391.621 276.688Z" fill="#4675D0"/>
<path d="M441.811 113.814L561.983 22.3831" stroke="#4675D0" stroke-width="6"/>
<path d="M554.165 15.4115C553.701 14.8013 554.068 13.9171 554.828 13.8149L576.458 10.9055C577.227 10.8021 577.816 11.5758 577.511 12.2894L568.938 32.3598C568.636 33.0649 567.686 33.1827 567.222 32.5725L554.165 15.4115Z" fill="#4675D0"/>
<path d="M291.039 227.782L411.211 136.351" stroke="#4675D0" stroke-width="6"/>
<path d="M403.393 129.379C402.929 128.769 403.296 127.885 404.056 127.783L425.686 124.874C426.455 124.77 427.044 125.544 426.739 126.257L418.166 146.328C417.864 147.033 416.914 147.151 416.45 146.541L403.393 129.379Z" fill="#4675D0"/>
<circle cx="270" cy="380" r="14" fill="#F2F2F2" stroke="#474747" stroke-width="6"/>
<circle cx="133" cy="345" r="14" fill="#F2F2F2" stroke="#474747" stroke-width="6"/>
<circle cx="291.538" cy="228.322" r="14" transform="rotate(-37.2651 291.538 228.322)" fill="#F2F2F2" stroke="#474747" stroke-width="6"/>
<path d="M252.112 189.712C252.892 189.118 253.691 188.699 254.51 188.453C255.328 188.208 256.13 188.138 256.914 188.245C257.715 188.339 258.471 188.606 259.182 189.045C259.897 189.456 260.539 190.036 261.108 190.784C261.677 191.532 262.071 192.313 262.288 193.128C262.494 193.926 262.535 194.724 262.413 195.521C262.306 196.306 262.025 197.06 261.57 197.783C261.115 198.506 260.506 199.158 259.742 199.739L256.089 202.519L261.538 209.681L259.39 211.316L246.311 194.126L252.112 189.712ZM249.913 194.401L254.636 200.609L258.289 197.829C259.18 197.151 259.684 196.328 259.802 195.359C259.907 194.374 259.602 193.412 258.888 192.473C258.173 191.534 257.333 190.992 256.368 190.846C255.391 190.685 254.457 190.944 253.566 191.622L249.913 194.401ZM272.252 198.514L276.86 195.008L267.687 182.951C267.59 182.824 267.481 182.681 267.36 182.521C267.243 182.334 267.129 182.169 267.02 182.026C266.911 181.883 266.821 181.763 266.748 181.668C266.679 181.544 266.645 181.482 266.645 181.482L266.597 181.519C266.558 181.699 266.513 181.871 266.462 182.036C266.427 182.188 266.385 182.346 266.334 182.511C266.299 182.663 266.258 182.807 266.211 182.943L264.588 187.797L262.935 185.624L264.638 180.182L267.383 178.093L279.009 193.373L282.877 190.431L284.33 192.341L273.705 200.424L272.252 198.514Z" fill="black"/>
<circle cx="442.31" cy="114.353" r="14" transform="rotate(-37.2651 442.31 114.353)" fill="#F2F2F2" stroke="#474747" stroke-width="6"/>
<path d="M402.885 75.7435C403.665 75.1501 404.464 74.7306 405.282 74.4849C406.1 74.2393 406.902 74.1697 407.687 74.2763C408.487 74.3708 409.243 74.6376 409.954 75.0767C410.669 75.4878 411.311 76.0674 411.88 76.8155C412.449 77.5636 412.843 78.3449 413.06 79.1594C413.266 79.958 413.307 80.7557 413.185 81.5526C413.078 82.3373 412.798 83.0913 412.343 83.8144C411.888 84.5376 411.278 85.1898 410.514 85.7711L406.861 88.5504L412.311 95.713L410.162 97.3478L397.083 80.1576L402.885 75.7435ZM400.685 80.4328L405.408 86.6403L409.061 83.8611C409.952 83.1829 410.456 82.3594 410.574 81.3906C410.679 80.4058 410.374 79.4439 409.66 78.5048C408.945 77.5657 408.106 77.0235 407.141 76.8782C406.163 76.7169 405.229 76.9754 404.338 77.6535L400.685 80.4328ZM424.949 66.1181C425.93 67.4074 426.523 68.9293 426.727 70.6839C426.935 72.4105 426.775 74.5297 426.249 77.0414L425.267 81.7463C425.236 81.8705 425.197 82.0008 425.15 82.1371C425.103 82.2734 425.056 82.4097 425.009 82.5461C424.942 82.7225 424.877 82.885 424.814 83.0334L424.887 83.1289C425.129 82.9193 425.37 82.7236 425.609 82.5419C425.819 82.3565 426.036 82.179 426.259 82.0094C426.498 81.8278 426.713 81.6643 426.904 81.519L433.255 76.6871L434.744 78.6448L424 86.8191L422.184 84.4316L423.759 77.0886C423.995 75.9789 424.153 74.9798 424.23 74.0912C424.324 73.1906 424.329 72.3705 424.243 71.6311C424.158 70.8917 423.994 70.2128 423.749 69.5945C423.505 68.9761 423.171 68.3884 422.747 67.8313C422.069 66.94 421.266 66.4455 420.337 66.3479C419.412 66.2223 418.496 66.5046 417.589 67.1949C416.586 67.9578 415.982 68.832 415.777 69.8175C415.587 70.7908 415.82 71.7072 416.474 72.5667L414.253 74.2561C413.74 73.5156 413.395 72.748 413.217 71.9532C413.04 71.1584 413.032 70.3724 413.195 69.5953C413.374 68.806 413.704 68.0517 414.188 67.3324C414.674 66.585 415.324 65.9025 416.135 65.2849C416.931 64.6794 417.732 64.2458 418.539 63.9843C419.345 63.7227 420.128 63.6293 420.889 63.704C421.649 63.7788 422.373 64.0198 423.06 64.4271C423.762 64.8223 424.392 65.3859 424.949 66.1181Z" fill="black"/>
<path d="M255 454.3C252.84 454.3 251.15 453.72 249.93 452.56C248.71 451.4 248.1 449.8 248.1 447.76V432.4H251.88V447.73C251.88 448.77 252.14 449.58 252.66 450.16C253.2 450.74 253.98 451.03 255 451.03C256 451.03 256.77 450.74 257.31 450.16C257.87 449.58 258.15 448.77 258.15 447.73V432.4H261.9V447.76C261.9 449.8 261.29 451.4 260.07 452.56C258.85 453.72 257.16 454.3 255 454.3ZM265.458 437.5H268.308V439.9H268.578C268.638 439.06 268.908 438.4 269.388 437.92C269.888 437.44 270.548 437.2 271.368 437.2C272.148 437.2 272.798 437.44 273.318 437.92C273.858 438.4 274.228 439.06 274.428 439.9H274.548C274.608 439.06 274.878 438.4 275.358 437.92C275.858 437.44 276.518 437.2 277.338 437.2C278.338 437.2 279.118 437.58 279.678 438.34C280.258 439.08 280.548 440.1 280.548 441.4V454H277.398V441.7C277.398 440.46 276.918 439.84 275.958 439.84C275.038 439.84 274.578 440.48 274.578 441.76V454H271.428V441.7C271.428 440.68 271.098 440.08 270.438 439.9C270.238 439.86 270.088 439.84 269.988 439.84C269.888 439.84 269.738 439.86 269.538 439.9C268.918 440.08 268.608 440.7 268.608 441.76V454H265.458V437.5ZM284.167 432.1H287.947V437.38C287.947 437.66 287.937 437.98 287.917 438.34C287.917 438.68 287.907 439 287.887 439.3C287.847 439.64 287.817 439.99 287.797 440.35H288.067C288.267 439.37 288.747 438.6 289.507 438.04C290.287 437.48 291.277 437.2 292.477 437.2C293.337 437.2 294.117 437.35 294.817 437.65C295.517 437.95 296.107 438.38 296.587 438.94C297.087 439.5 297.467 440.18 297.727 440.98C298.007 441.76 298.147 442.65 298.147 443.65V447.76C298.147 448.76 298.007 449.67 297.727 450.49C297.467 451.29 297.087 451.98 296.587 452.56C296.107 453.12 295.517 453.55 294.817 453.85C294.117 454.15 293.337 454.3 292.477 454.3C291.277 454.3 290.287 454.02 289.507 453.46C288.747 452.9 288.267 452.12 288.067 451.12H287.797V454H284.167V432.1ZM287.947 447.76C287.947 448.74 288.227 449.53 288.787 450.13C289.367 450.73 290.147 451.03 291.127 451.03C292.147 451.03 292.947 450.73 293.527 450.13C294.107 449.51 294.397 448.69 294.397 447.67V443.74C294.397 442.72 294.107 441.92 293.527 441.34C292.947 440.74 292.147 440.44 291.127 440.44C290.167 440.44 289.397 440.74 288.817 441.34C288.237 441.94 287.947 442.74 287.947 443.74V447.76ZM302.815 437.5H306.355V440.35H306.625C306.825 439.35 307.325 438.58 308.125 438.04C308.925 437.48 309.945 437.2 311.185 437.2C312.965 437.2 314.355 437.75 315.355 438.85C316.355 439.95 316.855 441.47 316.855 443.41V444.61H312.925V443.74C312.925 442.68 312.635 441.86 312.055 441.28C311.475 440.68 310.675 440.38 309.655 440.38C308.695 440.38 307.935 440.68 307.375 441.28C306.835 441.88 306.565 442.7 306.565 443.74V454H302.815V437.5ZM319.483 449.38C319.483 448.56 319.633 447.83 319.933 447.19C320.233 446.53 320.663 445.97 321.223 445.51C321.783 445.05 322.453 444.7 323.233 444.46C324.033 444.2 324.923 444.07 325.903 444.07H330.043V442.66C330.043 441.9 329.753 441.3 329.173 440.86C328.613 440.4 327.833 440.17 326.833 440.17C326.013 440.17 325.323 440.32 324.763 440.62C324.203 440.92 323.843 441.33 323.683 441.85H319.993C320.253 440.41 320.993 439.28 322.213 438.46C323.433 437.62 324.973 437.2 326.833 437.2C327.893 437.2 328.853 437.33 329.713 437.59C330.573 437.83 331.303 438.19 331.903 438.67C332.503 439.13 332.963 439.7 333.283 440.38C333.623 441.04 333.793 441.78 333.793 442.6V454H330.253V450.76H330.013C329.813 451.84 329.243 452.7 328.303 453.34C327.383 453.98 326.233 454.3 324.853 454.3C323.213 454.3 321.903 453.86 320.923 452.98C319.963 452.08 319.483 450.88 319.483 449.38ZM326.143 451.36C327.283 451.36 328.213 451.09 328.933 450.55C329.673 449.99 330.043 449.29 330.043 448.45V446.53H325.933C325.093 446.53 324.433 446.74 323.953 447.16C323.473 447.58 323.233 448.17 323.233 448.93C323.233 449.69 323.483 450.29 323.983 450.73C324.503 451.15 325.223 451.36 326.143 451.36Z" fill="#474747"/>
<path d="M269 424L269 397" stroke="#474747" stroke-width="2" stroke-linecap="round"/>
<path d="M132 424L132 362" stroke="#474747" stroke-width="2" stroke-linecap="round"/>
<circle cx="430.417" cy="262.417" r="17" transform="rotate(5 430.417 262.417)" fill="#D04646"/>
<path d="M83.69 432.4C84.77 432.4 85.75 432.56 86.63 432.88C87.53 433.18 88.29 433.62 88.91 434.2C89.53 434.76 90.01 435.45 90.35 436.27C90.69 437.07 90.86 437.97 90.86 438.97C90.86 439.95 90.69 440.85 90.35 441.67C90.01 442.47 89.52 443.16 88.88 443.74C88.26 444.3 87.51 444.74 86.63 445.06C85.75 445.36 84.77 445.51 83.69 445.51H79.97V454H76.22V432.4H83.69ZM79.97 435.58V442.33H83.69C84.73 442.33 85.55 442.03 86.15 441.43C86.75 440.81 87.05 439.99 87.05 438.97C87.05 437.95 86.75 437.13 86.15 436.51C85.55 435.89 84.73 435.58 83.69 435.58H79.97ZM100.988 454.3C99.9083 454.3 98.9183 454.15 98.0183 453.85C97.1383 453.53 96.3883 453.09 95.7683 452.53C95.1483 451.97 94.6683 451.29 94.3283 450.49C93.9883 449.69 93.8183 448.8 93.8183 447.82V443.65C93.8183 442.67 93.9883 441.78 94.3283 440.98C94.6683 440.18 95.1483 439.5 95.7683 438.94C96.3883 438.38 97.1383 437.95 98.0183 437.65C98.9183 437.35 99.9083 437.2 100.988 437.2C102.068 437.2 103.048 437.36 103.928 437.68C104.808 437.98 105.558 438.41 106.178 438.97C106.798 439.53 107.278 440.21 107.618 441.01C107.958 441.81 108.128 442.7 108.128 443.68V446.68H97.5383V447.76C97.5383 448.86 97.8383 449.72 98.4383 450.34C99.0583 450.96 99.9083 451.27 100.988 451.27C101.808 451.27 102.498 451.15 103.058 450.91C103.638 450.65 104.048 450.28 104.288 449.8H107.978C107.798 450.48 107.498 451.1 107.078 451.66C106.658 452.22 106.138 452.7 105.518 453.1C104.918 453.48 104.228 453.78 103.448 454C102.688 454.2 101.868 454.3 100.988 454.3ZM104.438 444.16V443.68C104.438 442.58 104.138 441.73 103.538 441.13C102.938 440.51 102.088 440.2 100.988 440.2C99.9083 440.2 99.0583 440.51 98.4383 441.13C97.8383 441.73 97.5383 442.57 97.5383 443.65V444.16H104.438ZM112.137 454V437.5H115.707V440.35H115.977C116.157 439.35 116.627 438.58 117.387 438.04C118.147 437.48 119.127 437.2 120.327 437.2C121.987 437.2 123.307 437.74 124.287 438.82C125.267 439.9 125.757 441.36 125.757 443.2V454H122.007V443.65C122.007 442.65 121.737 441.87 121.197 441.31C120.657 440.73 119.917 440.44 118.977 440.44C118.017 440.44 117.257 440.74 116.697 441.34C116.157 441.92 115.887 442.72 115.887 443.74V454H112.137ZM130.215 437.5H133.995V447.82C133.995 449.96 134.985 451.03 136.965 451.03C138.965 451.03 139.965 449.96 139.965 447.82V437.5H143.715V447.82C143.715 449.88 143.115 451.48 141.915 452.62C140.735 453.74 139.085 454.3 136.965 454.3C134.825 454.3 133.165 453.73 131.985 452.59C130.805 451.45 130.215 449.86 130.215 447.82V437.5ZM147.423 437.5H150.273V439.9H150.543C150.603 439.06 150.873 438.4 151.353 437.92C151.853 437.44 152.513 437.2 153.333 437.2C154.113 437.2 154.763 437.44 155.283 437.92C155.823 438.4 156.193 439.06 156.393 439.9H156.513C156.573 439.06 156.843 438.4 157.323 437.92C157.823 437.44 158.483 437.2 159.303 437.2C160.303 437.2 161.083 437.58 161.643 438.34C162.223 439.08 162.513 440.1 162.513 441.4V454H159.363V441.7C159.363 440.46 158.883 439.84 157.923 439.84C157.003 439.84 156.543 440.48 156.543 441.76V454H153.393V441.7C153.393 440.68 153.063 440.08 152.403 439.9C152.203 439.86 152.053 439.84 151.953 439.84C151.853 439.84 151.703 439.86 151.503 439.9C150.883 440.08 150.573 440.7 150.573 441.76V454H147.423V437.5ZM166.131 432.1H169.911V437.38C169.911 437.66 169.901 437.98 169.881 438.34C169.881 438.68 169.871 439 169.851 439.3C169.811 439.64 169.781 439.99 169.761 440.35H170.031C170.231 439.37 170.711 438.6 171.471 438.04C172.251 437.48 173.241 437.2 174.441 437.2C175.301 437.2 176.081 437.35 176.781 437.65C177.481 437.95 178.071 438.38 178.551 438.94C179.051 439.5 179.431 440.18 179.691 440.98C179.971 441.76 180.111 442.65 180.111 443.65V447.76C180.111 448.76 179.971 449.67 179.691 450.49C179.431 451.29 179.051 451.98 178.551 452.56C178.071 453.12 177.481 453.55 176.781 453.85C176.081 454.15 175.301 454.3 174.441 454.3C173.241 454.3 172.251 454.02 171.471 453.46C170.711 452.9 170.231 452.12 170.031 451.12H169.761V454H166.131V432.1ZM169.911 447.76C169.911 448.74 170.191 449.53 170.751 450.13C171.331 450.73 172.111 451.03 173.091 451.03C174.111 451.03 174.911 450.73 175.491 450.13C176.071 449.51 176.361 448.69 176.361 447.67V443.74C176.361 442.72 176.071 441.92 175.491 441.34C174.911 440.74 174.111 440.44 173.091 440.44C172.131 440.44 171.361 440.74 170.781 441.34C170.201 441.94 169.911 442.74 169.911 443.74V447.76ZM184.78 437.5H188.32V440.35H188.59C188.79 439.35 189.29 438.58 190.09 438.04C190.89 437.48 191.91 437.2 193.15 437.2C194.93 437.2 196.32 437.75 197.32 438.85C198.32 439.95 198.82 441.47 198.82 443.41V444.61H194.89V443.74C194.89 442.68 194.6 441.86 194.02 441.28C193.44 440.68 192.64 440.38 191.62 440.38C190.66 440.38 189.9 440.68 189.34 441.28C188.8 441.88 188.53 442.7 188.53 443.74V454H184.78V437.5ZM201.448 449.38C201.448 448.56 201.598 447.83 201.898 447.19C202.198 446.53 202.628 445.97 203.188 445.51C203.748 445.05 204.418 444.7 205.198 444.46C205.998 444.2 206.888 444.07 207.868 444.07H212.008V442.66C212.008 441.9 211.718 441.3 211.138 440.86C210.578 440.4 209.798 440.17 208.798 440.17C207.978 440.17 207.288 440.32 206.728 440.62C206.168 440.92 205.808 441.33 205.648 441.85H201.958C202.218 440.41 202.958 439.28 204.178 438.46C205.398 437.62 206.938 437.2 208.798 437.2C209.858 437.2 210.818 437.33 211.678 437.59C212.538 437.83 213.268 438.19 213.868 438.67C214.468 439.13 214.928 439.7 215.248 440.38C215.588 441.04 215.758 441.78 215.758 442.6V454H212.218V450.76H211.978C211.778 451.84 211.208 452.7 210.268 453.34C209.348 453.98 208.198 454.3 206.818 454.3C205.178 454.3 203.868 453.86 202.888 452.98C201.928 452.08 201.448 450.88 201.448 449.38ZM208.108 451.36C209.248 451.36 210.178 451.09 210.898 450.55C211.638 449.99 212.008 449.29 212.008 448.45V446.53H207.898C207.058 446.53 206.398 446.74 205.918 447.16C205.438 447.58 205.198 448.17 205.198 448.93C205.198 449.69 205.448 450.29 205.948 450.73C206.468 451.15 207.188 451.36 208.108 451.36Z" fill="#474747"/>
</svg>
