<svg width="1006" height="928" viewBox="0 0 1006 928" fill="none" xmlns="http://www.w3.org/2000/svg">
<rect opacity="0.5" x="2" y="2" width="1002" height="660" rx="8" fill="#E4E4E4" stroke="#474747" stroke-width="4" stroke-dasharray="8 8"/>
<path opacity="0.5" d="M29.957 40.293C23.4922 40.293 20.2598 36.7188 20.2598 29.5703C20.2598 26.1816 21.0752 23.5596 22.7061 21.7041C24.3369 19.8389 26.6367 18.9062 29.6055 18.9062C31.041 18.9062 32.291 19.1357 33.3555 19.5947C34.4199 20.0439 35.1963 20.6885 35.6846 21.5283L33.5166 23.6816C33.0771 23.0176 32.5156 22.5049 31.832 22.1436C31.1582 21.7822 30.4258 21.6016 29.6348 21.6016C27.75 21.6016 26.2363 22.2803 25.0938 23.6377C23.9609 24.9951 23.3945 26.9238 23.3945 29.4238C23.3945 34.873 25.748 37.5977 30.4551 37.5977C31.8711 37.5977 33.2676 37.3047 34.6445 36.7188L35.3184 39.2969C33.6191 39.9609 31.832 40.293 29.957 40.293ZM38.9219 40V19.1992H45.0449C47.6523 19.1992 49.625 19.7803 50.9629 20.9424C52.3105 22.1045 52.9844 23.8184 52.9844 26.084C52.9844 28.5352 52.3105 30.3955 50.9629 31.665C49.625 32.9248 47.6523 33.5547 45.0449 33.5547H41.9688V40H38.9219ZM41.9688 30.7715H45.0449C48.2871 30.7715 49.9082 29.209 49.9082 26.084C49.9082 23.3496 48.2871 21.9824 45.0449 21.9824H41.9688V30.7715ZM62.8867 40.293C58.4336 40.293 56.207 37.9688 56.207 33.3203V19.1992H59.2539V33.3203C59.2539 34.707 59.5518 35.752 60.1475 36.4551C60.7432 37.1582 61.6758 37.5098 62.9453 37.5098C65.4062 37.5098 66.6367 36.1133 66.6367 33.3203V19.1992H69.6836V33.3203C69.6836 35.6445 69.1074 37.3877 67.9551 38.5498C66.8027 39.7119 65.1133 40.293 62.8867 40.293Z" fill="#474747"/>
<rect opacity="0.5" x="2" y="704" width="1002" height="222" rx="8" fill="#E4E4E4" stroke="#474747" stroke-width="4" stroke-dasharray="8 8"/>
<path opacity="0.5" d="M29.2832 742.293C23.0723 742.293 19.9668 738.719 19.9668 731.57C19.9668 728.182 20.7725 725.56 22.3838 723.704C23.9951 721.839 26.2559 720.906 29.166 720.906C30.6211 720.906 31.8955 721.136 32.9893 721.595C34.083 722.044 34.8887 722.684 35.4062 723.514L33.2236 725.682C32.7744 725.018 32.208 724.505 31.5244 724.144C30.8506 723.782 30.123 723.602 29.3418 723.602C27.3691 723.602 25.8359 724.285 24.7422 725.652C23.6484 727.01 23.1016 728.934 23.1016 731.424C23.1016 736.873 25.2793 739.598 29.6348 739.598C30.0938 739.598 30.5234 739.573 30.9238 739.524C31.334 739.476 31.7148 739.412 32.0664 739.334V734.383H27.9355V731.6H34.9668V741.414C34.5566 741.541 33.834 741.722 32.7988 741.956C31.7734 742.181 30.6016 742.293 29.2832 742.293ZM38.9219 742V721.199H45.0449C47.6523 721.199 49.625 721.78 50.9629 722.942C52.3105 724.104 52.9844 725.818 52.9844 728.084C52.9844 730.535 52.3105 732.396 50.9629 733.665C49.625 734.925 47.6523 735.555 45.0449 735.555H41.9688V742H38.9219ZM41.9688 732.771H45.0449C48.2871 732.771 49.9082 731.209 49.9082 728.084C49.9082 725.35 48.2871 723.982 45.0449 723.982H41.9688V732.771ZM62.8867 742.293C58.4336 742.293 56.207 739.969 56.207 735.32V721.199H59.2539V735.32C59.2539 736.707 59.5518 737.752 60.1475 738.455C60.7432 739.158 61.6758 739.51 62.9453 739.51C65.4062 739.51 66.6367 738.113 66.6367 735.32V721.199H69.6836V735.32C69.6836 737.645 69.1074 739.388 67.9551 740.55C66.8027 741.712 65.1133 742.293 62.8867 742.293Z" fill="#474747"/>
<rect x="240" y="257" width="321" height="148" rx="10" fill="#FFEAB4"/>
<rect x="242" y="259" width="317" height="144" rx="8" stroke="#845A1C" stroke-opacity="0.6" stroke-width="4"/>
<path d="M353.859 317.2C355.166 317.2 356.352 317.4 357.419 317.8C358.486 318.2 359.392 318.773 360.139 319.52C360.912 320.267 361.499 321.16 361.899 322.2C362.326 323.213 362.539 324.347 362.539 325.6C362.539 326.853 362.326 328 361.899 329.04C361.472 330.053 360.872 330.933 360.099 331.68C359.352 332.427 358.446 333 357.379 333.4C356.312 333.8 355.139 334 353.859 334H347.739V346H344.139V317.2H353.859ZM347.739 320.4V330.8H353.859C355.352 330.8 356.552 330.333 357.459 329.4C358.366 328.44 358.819 327.173 358.819 325.6C358.819 324.027 358.366 322.773 357.459 321.84C356.552 320.88 355.352 320.4 353.859 320.4H347.739ZM367.043 339.6C367.043 338.56 367.217 337.627 367.563 336.8C367.937 335.947 368.457 335.227 369.123 334.64C369.817 334.053 370.643 333.6 371.603 333.28C372.563 332.96 373.643 332.8 374.843 332.8H381.403V331C381.403 329.64 380.95 328.587 380.043 327.84C379.163 327.067 377.883 326.68 376.203 326.68C374.977 326.68 373.923 326.907 373.043 327.36C372.19 327.813 371.617 328.44 371.323 329.24H367.723C368.097 327.507 369.043 326.133 370.563 325.12C372.11 324.107 374.017 323.6 376.283 323.6C379.003 323.6 381.137 324.24 382.683 325.52C384.23 326.773 385.003 328.533 385.003 330.8V346H381.723V341.8H381.403C381.057 343.213 380.243 344.333 378.963 345.16C377.683 345.987 376.123 346.4 374.283 346.4C372.07 346.4 370.31 345.787 369.003 344.56C367.697 343.333 367.043 341.68 367.043 339.6ZM375.083 343.44C375.99 343.44 376.83 343.32 377.603 343.08C378.377 342.84 379.043 342.507 379.603 342.08C380.163 341.627 380.603 341.107 380.923 340.52C381.243 339.933 381.403 339.293 381.403 338.6V335.6H374.923C373.59 335.6 372.537 335.947 371.763 336.64C371.017 337.333 370.643 338.293 370.643 339.52C370.643 340.747 371.03 341.707 371.803 342.4C372.577 343.093 373.67 343.44 375.083 343.44ZM392.028 346V324H395.428V327.8H395.748C396.094 326.467 396.788 325.44 397.828 324.72C398.894 323.973 400.214 323.6 401.788 323.6C402.881 323.6 403.868 323.787 404.748 324.16C405.654 324.533 406.414 325.067 407.028 325.76C407.668 326.427 408.161 327.24 408.508 328.2C408.854 329.133 409.028 330.187 409.028 331.36V346H405.428V331.96C405.428 330.28 405.001 328.973 404.148 328.04C403.294 327.107 402.108 326.64 400.588 326.64C399.068 326.64 397.854 327.147 396.948 328.16C396.068 329.147 395.628 330.493 395.628 332.2V346H392.028ZM424.492 346.4C421.746 346.4 419.586 345.653 418.012 344.16C416.466 342.667 415.692 340.613 415.692 338V332C415.692 329.387 416.466 327.333 418.012 325.84C419.586 324.347 421.746 323.6 424.492 323.6C427.239 323.6 429.386 324.347 430.932 325.84C432.506 327.333 433.292 329.387 433.292 332V336.04H419.292V337.8C419.292 339.48 419.746 340.8 420.652 341.76C421.586 342.72 422.866 343.2 424.492 343.2C425.692 343.2 426.732 343.013 427.612 342.64C428.492 342.267 429.146 341.72 429.572 341H433.172C432.719 342.68 431.706 344 430.132 344.96C428.586 345.92 426.706 346.4 424.492 346.4ZM429.692 333.04V332C429.692 330.347 429.239 329.067 428.332 328.16C427.426 327.253 426.146 326.8 424.492 326.8C422.839 326.8 421.559 327.253 420.652 328.16C419.746 329.067 419.292 330.347 419.292 332V333.04H429.692ZM448.957 316.8V339.6C448.957 340.587 449.223 341.36 449.757 341.92C450.29 342.453 451.023 342.72 451.957 342.72H458.477V346H451.957C449.903 346 448.29 345.44 447.117 344.32C445.943 343.173 445.357 341.6 445.357 339.6V320.08H438.077V316.8H448.957Z" fill="black"/>
<rect x="19" y="493" width="321" height="148" rx="10" fill="#DFFFCC"/>
<rect x="21" y="495" width="317" height="144" rx="8" stroke="#1A6B22" stroke-opacity="0.6" stroke-width="4"/>
<path d="M96.8825 553.2C98.1892 553.2 99.3758 553.4 100.443 553.8C101.509 554.2 102.416 554.773 103.163 555.52C103.936 556.267 104.523 557.16 104.923 558.2C105.349 559.213 105.563 560.347 105.563 561.6C105.563 562.853 105.349 564 104.923 565.04C104.496 566.053 103.896 566.933 103.123 567.68C102.376 568.427 101.469 569 100.403 569.4C99.3358 569.8 98.1625 570 96.8825 570H90.7625V582H87.1625V553.2H96.8825ZM90.7625 556.4V566.8H96.8825C98.3758 566.8 99.5758 566.333 100.483 565.4C101.389 564.44 101.843 563.173 101.843 561.6C101.843 560.027 101.389 558.773 100.483 557.84C99.5758 556.88 98.3758 556.4 96.8825 556.4H90.7625ZM112.027 560H115.427V563.8H115.747C116.094 562.493 116.814 561.467 117.907 560.72C119 559.973 120.347 559.6 121.947 559.6C124.267 559.6 126.08 560.333 127.387 561.8C128.72 563.24 129.387 565.227 129.387 567.76V569H125.787V568.2C125.787 566.467 125.347 565.133 124.467 564.2C123.614 563.24 122.387 562.76 120.787 562.76C119.214 562.76 117.96 563.253 117.027 564.24C116.094 565.2 115.627 566.52 115.627 568.2V582H112.027V560ZM138.331 573.8C138.331 575.48 138.785 576.8 139.691 577.76C140.625 578.72 141.905 579.2 143.531 579.2C145.131 579.2 146.398 578.72 147.331 577.76C148.265 576.8 148.731 575.48 148.731 573.8V568.2C148.731 566.52 148.265 565.2 147.331 564.24C146.398 563.28 145.131 562.8 143.531 562.8C141.931 562.8 140.665 563.28 139.731 564.24C138.798 565.2 138.331 566.52 138.331 568.2V573.8ZM134.731 568.2C134.731 566.867 134.931 565.68 135.331 564.64C135.758 563.573 136.345 562.667 137.091 561.92C137.865 561.173 138.785 560.6 139.851 560.2C140.945 559.8 142.171 559.6 143.531 559.6C146.251 559.6 148.398 560.36 149.971 561.88C151.545 563.4 152.331 565.493 152.331 568.16V573.8C152.331 575.133 152.131 576.333 151.731 577.4C151.331 578.467 150.745 579.373 149.971 580.12C149.225 580.84 148.305 581.4 147.211 581.8C146.118 582.2 144.891 582.4 143.531 582.4C142.171 582.4 140.945 582.2 139.851 581.8C138.785 581.4 137.865 580.827 137.091 580.08C136.345 579.333 135.758 578.427 135.331 577.36C134.931 576.293 134.731 575.107 134.731 573.8V568.2ZM162.436 560V563.8H162.756C163.102 562.467 163.809 561.44 164.876 560.72C165.942 559.973 167.289 559.6 168.916 559.6C170.036 559.6 171.049 559.8 171.956 560.2C172.862 560.6 173.636 561.173 174.276 561.92C174.916 562.64 175.409 563.533 175.756 564.6C176.129 565.667 176.316 566.867 176.316 568.2V573.8C176.316 575.133 176.129 576.333 175.756 577.4C175.409 578.467 174.916 579.373 174.276 580.12C173.636 580.84 172.862 581.4 171.956 581.8C171.049 582.2 170.036 582.4 168.916 582.4C167.289 582.4 165.942 582.04 164.876 581.32C163.809 580.573 163.102 579.533 162.756 578.2H162.436C162.462 578.653 162.502 579.107 162.556 579.56C162.582 579.96 162.596 580.373 162.596 580.8C162.622 581.227 162.636 581.627 162.636 582V588.6H159.036V560H162.436ZM162.636 573.8C162.636 575.48 163.076 576.813 163.956 577.8C164.862 578.787 166.062 579.28 167.556 579.28C169.156 579.28 170.409 578.787 171.316 577.8C172.249 576.813 172.716 575.48 172.716 573.8V568.2C172.716 566.467 172.262 565.12 171.356 564.16C170.449 563.2 169.182 562.72 167.556 562.72C166.062 562.72 164.862 563.213 163.956 564.2C163.076 565.187 162.636 566.52 162.636 568.2V573.8ZM191.5 582.4C188.753 582.4 186.593 581.653 185.02 580.16C183.473 578.667 182.7 576.613 182.7 574V568C182.7 565.387 183.473 563.333 185.02 561.84C186.593 560.347 188.753 559.6 191.5 559.6C194.247 559.6 196.393 560.347 197.94 561.84C199.513 563.333 200.3 565.387 200.3 568V572.04H186.3V573.8C186.3 575.48 186.753 576.8 187.66 577.76C188.593 578.72 189.873 579.2 191.5 579.2C192.7 579.2 193.74 579.013 194.62 578.64C195.5 578.267 196.153 577.72 196.58 577H200.18C199.727 578.68 198.713 580 197.14 580.96C195.593 581.92 193.713 582.4 191.5 582.4ZM196.7 569.04V568C196.7 566.347 196.247 565.067 195.34 564.16C194.433 563.253 193.153 562.8 191.5 562.8C189.847 562.8 188.567 563.253 187.66 564.16C186.753 565.067 186.3 566.347 186.3 568V569.04H196.7ZM207.964 560H211.364V563.8H211.684C212.031 562.493 212.751 561.467 213.844 560.72C214.938 559.973 216.284 559.6 217.884 559.6C220.204 559.6 222.018 560.333 223.324 561.8C224.658 563.24 225.324 565.227 225.324 567.76V569H221.724V568.2C221.724 566.467 221.284 565.133 220.404 564.2C219.551 563.24 218.324 562.76 216.724 562.76C215.151 562.76 213.898 563.253 212.964 564.24C212.031 565.2 211.564 566.52 211.564 568.2V582H207.964V560ZM229.869 560H236.269V553.2H239.869V560H248.469V563.28H239.869V576.32C239.869 577.067 240.095 577.653 240.549 578.08C241.029 578.507 241.669 578.72 242.469 578.72H248.069V582H242.469C240.575 582 239.069 581.48 237.949 580.44C236.829 579.4 236.269 578.027 236.269 576.32V563.28H229.869V560ZM257.453 560L262.493 572.64C262.733 573.253 262.92 573.827 263.053 574.36C263.213 574.893 263.333 575.36 263.413 575.76C263.52 576.267 263.586 576.72 263.613 577.12H263.893C263.92 576.72 263.986 576.28 264.093 575.8C264.173 575.373 264.28 574.893 264.413 574.36C264.546 573.827 264.72 573.253 264.933 572.64L269.573 560H273.453L262.773 588.6H258.933L261.973 580.4L253.453 560H257.453Z" fill="black"/>
<rect x="19" y="760" width="321" height="148" rx="10" fill="#CCEAFF"/>
<rect x="21" y="762" width="317" height="144" rx="8" stroke="#1A356B" stroke-opacity="0.6" stroke-width="4"/>
<path d="M107.555 849.4C104.808 849.4 102.688 848.653 101.195 847.16C99.7014 845.667 98.9547 843.613 98.9547 841V820.2H102.555V841C102.555 842.6 102.981 843.867 103.835 844.8C104.688 845.733 105.928 846.2 107.555 846.2C109.155 846.2 110.381 845.733 111.235 844.8C112.115 843.867 112.555 842.6 112.555 841V820.2H116.155V841C116.155 843.64 115.408 845.707 113.915 847.2C112.421 848.667 110.301 849.4 107.555 849.4ZM123.059 849V827H126.459V830.8H126.779C127.126 829.467 127.819 828.44 128.859 827.72C129.926 826.973 131.246 826.6 132.819 826.6C133.912 826.6 134.899 826.787 135.779 827.16C136.686 827.533 137.446 828.067 138.059 828.76C138.699 829.427 139.192 830.24 139.539 831.2C139.886 832.133 140.059 833.187 140.059 834.36V849H136.459V834.96C136.459 833.28 136.032 831.973 135.179 831.04C134.326 830.107 133.139 829.64 131.619 829.64C130.099 829.64 128.886 830.147 127.979 831.16C127.099 832.147 126.659 833.493 126.659 835.2V849H123.059ZM147.323 849V845.72H155.323V830.28H148.323V827H158.923V845.72H165.523V849H147.323ZM156.123 818.4H156.923C157.697 818.4 158.323 818.627 158.803 819.08C159.283 819.533 159.523 820.12 159.523 820.84C159.523 821.56 159.283 822.133 158.803 822.56C158.323 822.987 157.697 823.2 156.923 823.2H156.123C155.35 823.2 154.723 823 154.243 822.6C153.763 822.173 153.523 821.587 153.523 820.84C153.523 820.12 153.763 819.533 154.243 819.08C154.723 818.627 155.35 818.4 156.123 818.4ZM169.908 832.48V829.2H176.308V825.4C176.308 823.64 176.854 822.267 177.948 821.28C179.041 820.293 180.548 819.8 182.468 819.8H188.908V823.08H182.468C180.761 823.08 179.908 823.853 179.908 825.4V829.2H188.908V832.48H179.908V849H176.308V832.48H169.908ZM198.292 840.8C198.292 842.48 198.746 843.8 199.652 844.76C200.586 845.72 201.866 846.2 203.492 846.2C205.092 846.2 206.359 845.72 207.292 844.76C208.226 843.8 208.692 842.48 208.692 840.8V835.2C208.692 833.52 208.226 832.2 207.292 831.24C206.359 830.28 205.092 829.8 203.492 829.8C201.892 829.8 200.626 830.28 199.692 831.24C198.759 832.2 198.292 833.52 198.292 835.2V840.8ZM194.692 835.2C194.692 833.867 194.892 832.68 195.292 831.64C195.719 830.573 196.306 829.667 197.052 828.92C197.826 828.173 198.746 827.6 199.812 827.2C200.906 826.8 202.132 826.6 203.492 826.6C206.212 826.6 208.359 827.36 209.932 828.88C211.506 830.4 212.292 832.493 212.292 835.16V840.8C212.292 842.133 212.092 843.333 211.692 844.4C211.292 845.467 210.706 846.373 209.932 847.12C209.186 847.84 208.266 848.4 207.172 848.8C206.079 849.2 204.852 849.4 203.492 849.4C202.132 849.4 200.906 849.2 199.812 848.8C198.746 848.4 197.826 847.827 197.052 847.08C196.306 846.333 195.719 845.427 195.292 844.36C194.892 843.293 194.692 842.107 194.692 840.8V835.2ZM219.957 827H223.357V830.8H223.677C224.023 829.493 224.743 828.467 225.837 827.72C226.93 826.973 228.277 826.6 229.877 826.6C232.197 826.6 234.01 827.333 235.317 828.8C236.65 830.24 237.317 832.227 237.317 834.76V836H233.717V835.2C233.717 833.467 233.277 832.133 232.397 831.2C231.543 830.24 230.317 829.76 228.717 829.76C227.143 829.76 225.89 830.253 224.957 831.24C224.023 832.2 223.557 833.52 223.557 835.2V849H219.957V827ZM241.941 827H244.781V830.24H245.061C245.168 829.067 245.541 828.173 246.181 827.56C246.821 826.92 247.674 826.6 248.741 826.6C249.808 826.6 250.688 826.92 251.381 827.56C252.074 828.173 252.554 829.067 252.821 830.24H253.021C253.128 829.067 253.501 828.173 254.141 827.56C254.781 826.92 255.634 826.6 256.701 826.6C258.061 826.6 259.114 827.107 259.861 828.12C260.608 829.107 260.981 830.48 260.981 832.24V849H257.861V832.24C257.861 831.307 257.648 830.6 257.221 830.12C256.821 829.613 256.234 829.36 255.461 829.36C253.834 829.36 253.021 830.387 253.021 832.44V849H249.901V832.24C249.901 831.467 249.714 830.8 249.341 830.24C248.994 829.653 248.381 829.36 247.501 829.36C246.701 829.36 246.074 829.653 245.621 830.24C245.248 830.773 245.061 831.507 245.061 832.44V849H241.941V827Z" fill="black"/>
<rect x="459" y="760" width="321" height="148" rx="10" fill="#CCEAFF"/>
<rect x="461" y="762" width="317" height="144" rx="8" stroke="#1A356B" stroke-opacity="0.6" stroke-width="4"/>
<path d="M547.555 849.4C544.808 849.4 542.688 848.653 541.195 847.16C539.701 845.667 538.955 843.613 538.955 841V820.2H542.555V841C542.555 842.6 542.981 843.867 543.835 844.8C544.688 845.733 545.928 846.2 547.555 846.2C549.155 846.2 550.381 845.733 551.235 844.8C552.115 843.867 552.555 842.6 552.555 841V820.2H556.155V841C556.155 843.64 555.408 845.707 553.915 847.2C552.421 848.667 550.301 849.4 547.555 849.4ZM563.059 849V827H566.459V830.8H566.779C567.126 829.467 567.819 828.44 568.859 827.72C569.926 826.973 571.246 826.6 572.819 826.6C573.912 826.6 574.899 826.787 575.779 827.16C576.686 827.533 577.446 828.067 578.059 828.76C578.699 829.427 579.192 830.24 579.539 831.2C579.886 832.133 580.059 833.187 580.059 834.36V849H576.459V834.96C576.459 833.28 576.032 831.973 575.179 831.04C574.326 830.107 573.139 829.64 571.619 829.64C570.099 829.64 568.886 830.147 567.979 831.16C567.099 832.147 566.659 833.493 566.659 835.2V849H563.059ZM587.323 849V845.72H595.323V830.28H588.323V827H598.923V845.72H605.523V849H587.323ZM596.123 818.4H596.923C597.697 818.4 598.323 818.627 598.803 819.08C599.283 819.533 599.523 820.12 599.523 820.84C599.523 821.56 599.283 822.133 598.803 822.56C598.323 822.987 597.697 823.2 596.923 823.2H596.123C595.35 823.2 594.723 823 594.243 822.6C593.763 822.173 593.523 821.587 593.523 820.84C593.523 820.12 593.763 819.533 594.243 819.08C594.723 818.627 595.35 818.4 596.123 818.4ZM609.908 832.48V829.2H616.308V825.4C616.308 823.64 616.854 822.267 617.948 821.28C619.041 820.293 620.548 819.8 622.468 819.8H628.908V823.08H622.468C620.761 823.08 619.908 823.853 619.908 825.4V829.2H628.908V832.48H619.908V849H616.308V832.48H609.908ZM638.292 840.8C638.292 842.48 638.746 843.8 639.652 844.76C640.586 845.72 641.866 846.2 643.492 846.2C645.092 846.2 646.359 845.72 647.292 844.76C648.226 843.8 648.692 842.48 648.692 840.8V835.2C648.692 833.52 648.226 832.2 647.292 831.24C646.359 830.28 645.092 829.8 643.492 829.8C641.892 829.8 640.626 830.28 639.692 831.24C638.759 832.2 638.292 833.52 638.292 835.2V840.8ZM634.692 835.2C634.692 833.867 634.892 832.68 635.292 831.64C635.719 830.573 636.306 829.667 637.052 828.92C637.826 828.173 638.746 827.6 639.812 827.2C640.906 826.8 642.132 826.6 643.492 826.6C646.212 826.6 648.359 827.36 649.932 828.88C651.506 830.4 652.292 832.493 652.292 835.16V840.8C652.292 842.133 652.092 843.333 651.692 844.4C651.292 845.467 650.706 846.373 649.932 847.12C649.186 847.84 648.266 848.4 647.172 848.8C646.079 849.2 644.852 849.4 643.492 849.4C642.132 849.4 640.906 849.2 639.812 848.8C638.746 848.4 637.826 847.827 637.052 847.08C636.306 846.333 635.719 845.427 635.292 844.36C634.892 843.293 634.692 842.107 634.692 840.8V835.2ZM659.957 827H663.357V830.8H663.677C664.023 829.493 664.743 828.467 665.837 827.72C666.93 826.973 668.277 826.6 669.877 826.6C672.197 826.6 674.01 827.333 675.317 828.8C676.65 830.24 677.317 832.227 677.317 834.76V836H673.717V835.2C673.717 833.467 673.277 832.133 672.397 831.2C671.543 830.24 670.317 829.76 668.717 829.76C667.143 829.76 665.89 830.253 664.957 831.24C664.023 832.2 663.557 833.52 663.557 835.2V849H659.957V827ZM681.941 827H684.781V830.24H685.061C685.168 829.067 685.541 828.173 686.181 827.56C686.821 826.92 687.674 826.6 688.741 826.6C689.808 826.6 690.688 826.92 691.381 827.56C692.074 828.173 692.554 829.067 692.821 830.24H693.021C693.128 829.067 693.501 828.173 694.141 827.56C694.781 826.92 695.634 826.6 696.701 826.6C698.061 826.6 699.114 827.107 699.861 828.12C700.608 829.107 700.981 830.48 700.981 832.24V849H697.861V832.24C697.861 831.307 697.648 830.6 697.221 830.12C696.821 829.613 696.234 829.36 695.461 829.36C693.834 829.36 693.021 830.387 693.021 832.44V849H689.901V832.24C689.901 831.467 689.714 830.8 689.341 830.24C688.994 829.653 688.381 829.36 687.501 829.36C686.701 829.36 686.074 829.653 685.621 830.24C685.248 830.773 685.061 831.507 685.061 832.44V849H681.941V827Z" fill="black"/>
<rect x="459" y="493" width="321" height="148" rx="10" fill="#DFFFCC"/>
<rect x="461" y="495" width="317" height="144" rx="8" stroke="#1A6B22" stroke-opacity="0.6" stroke-width="4"/>
<path d="M536.883 553.2C538.189 553.2 539.376 553.4 540.443 553.8C541.509 554.2 542.416 554.773 543.163 555.52C543.936 556.267 544.523 557.16 544.923 558.2C545.349 559.213 545.563 560.347 545.563 561.6C545.563 562.853 545.349 564 544.923 565.04C544.496 566.053 543.896 566.933 543.123 567.68C542.376 568.427 541.469 569 540.403 569.4C539.336 569.8 538.163 570 536.883 570H530.763V582H527.163V553.2H536.883ZM530.763 556.4V566.8H536.883C538.376 566.8 539.576 566.333 540.483 565.4C541.389 564.44 541.843 563.173 541.843 561.6C541.843 560.027 541.389 558.773 540.483 557.84C539.576 556.88 538.376 556.4 536.883 556.4H530.763ZM552.027 560H555.427V563.8H555.747C556.094 562.493 556.814 561.467 557.907 560.72C559 559.973 560.347 559.6 561.947 559.6C564.267 559.6 566.08 560.333 567.387 561.8C568.72 563.24 569.387 565.227 569.387 567.76V569H565.787V568.2C565.787 566.467 565.347 565.133 564.467 564.2C563.614 563.24 562.387 562.76 560.787 562.76C559.214 562.76 557.96 563.253 557.027 564.24C556.094 565.2 555.627 566.52 555.627 568.2V582H552.027V560ZM578.331 573.8C578.331 575.48 578.785 576.8 579.691 577.76C580.625 578.72 581.905 579.2 583.531 579.2C585.131 579.2 586.398 578.72 587.331 577.76C588.265 576.8 588.731 575.48 588.731 573.8V568.2C588.731 566.52 588.265 565.2 587.331 564.24C586.398 563.28 585.131 562.8 583.531 562.8C581.931 562.8 580.665 563.28 579.731 564.24C578.798 565.2 578.331 566.52 578.331 568.2V573.8ZM574.731 568.2C574.731 566.867 574.931 565.68 575.331 564.64C575.758 563.573 576.345 562.667 577.091 561.92C577.865 561.173 578.785 560.6 579.851 560.2C580.945 559.8 582.171 559.6 583.531 559.6C586.251 559.6 588.398 560.36 589.971 561.88C591.545 563.4 592.331 565.493 592.331 568.16V573.8C592.331 575.133 592.131 576.333 591.731 577.4C591.331 578.467 590.745 579.373 589.971 580.12C589.225 580.84 588.305 581.4 587.211 581.8C586.118 582.2 584.891 582.4 583.531 582.4C582.171 582.4 580.945 582.2 579.851 581.8C578.785 581.4 577.865 580.827 577.091 580.08C576.345 579.333 575.758 578.427 575.331 577.36C574.931 576.293 574.731 575.107 574.731 573.8V568.2ZM602.436 560V563.8H602.756C603.102 562.467 603.809 561.44 604.876 560.72C605.942 559.973 607.289 559.6 608.916 559.6C610.036 559.6 611.049 559.8 611.956 560.2C612.862 560.6 613.636 561.173 614.276 561.92C614.916 562.64 615.409 563.533 615.756 564.6C616.129 565.667 616.316 566.867 616.316 568.2V573.8C616.316 575.133 616.129 576.333 615.756 577.4C615.409 578.467 614.916 579.373 614.276 580.12C613.636 580.84 612.862 581.4 611.956 581.8C611.049 582.2 610.036 582.4 608.916 582.4C607.289 582.4 605.942 582.04 604.876 581.32C603.809 580.573 603.102 579.533 602.756 578.2H602.436C602.462 578.653 602.502 579.107 602.556 579.56C602.582 579.96 602.596 580.373 602.596 580.8C602.622 581.227 602.636 581.627 602.636 582V588.6H599.036V560H602.436ZM602.636 573.8C602.636 575.48 603.076 576.813 603.956 577.8C604.862 578.787 606.062 579.28 607.556 579.28C609.156 579.28 610.409 578.787 611.316 577.8C612.249 576.813 612.716 575.48 612.716 573.8V568.2C612.716 566.467 612.262 565.12 611.356 564.16C610.449 563.2 609.182 562.72 607.556 562.72C606.062 562.72 604.862 563.213 603.956 564.2C603.076 565.187 602.636 566.52 602.636 568.2V573.8ZM631.5 582.4C628.753 582.4 626.593 581.653 625.02 580.16C623.473 578.667 622.7 576.613 622.7 574V568C622.7 565.387 623.473 563.333 625.02 561.84C626.593 560.347 628.753 559.6 631.5 559.6C634.247 559.6 636.393 560.347 637.94 561.84C639.513 563.333 640.3 565.387 640.3 568V572.04H626.3V573.8C626.3 575.48 626.753 576.8 627.66 577.76C628.593 578.72 629.873 579.2 631.5 579.2C632.7 579.2 633.74 579.013 634.62 578.64C635.5 578.267 636.153 577.72 636.58 577H640.18C639.727 578.68 638.713 580 637.14 580.96C635.593 581.92 633.713 582.4 631.5 582.4ZM636.7 569.04V568C636.7 566.347 636.247 565.067 635.34 564.16C634.433 563.253 633.153 562.8 631.5 562.8C629.847 562.8 628.567 563.253 627.66 564.16C626.753 565.067 626.3 566.347 626.3 568V569.04H636.7ZM647.964 560H651.364V563.8H651.684C652.031 562.493 652.751 561.467 653.844 560.72C654.938 559.973 656.284 559.6 657.884 559.6C660.204 559.6 662.018 560.333 663.324 561.8C664.658 563.24 665.324 565.227 665.324 567.76V569H661.724V568.2C661.724 566.467 661.284 565.133 660.404 564.2C659.551 563.24 658.324 562.76 656.724 562.76C655.151 562.76 653.898 563.253 652.964 564.24C652.031 565.2 651.564 566.52 651.564 568.2V582H647.964V560ZM669.869 560H676.269V553.2H679.869V560H688.469V563.28H679.869V576.32C679.869 577.067 680.095 577.653 680.549 578.08C681.029 578.507 681.669 578.72 682.469 578.72H688.069V582H682.469C680.575 582 679.069 581.48 677.949 580.44C676.829 579.4 676.269 578.027 676.269 576.32V563.28H669.869V560ZM697.453 560L702.493 572.64C702.733 573.253 702.92 573.827 703.053 574.36C703.213 574.893 703.333 575.36 703.413 575.76C703.52 576.267 703.586 576.72 703.613 577.12H703.893C703.92 576.72 703.986 576.28 704.093 575.8C704.173 575.373 704.28 574.893 704.413 574.36C704.546 573.827 704.72 573.253 704.933 572.64L709.573 560H713.453L702.773 588.6H698.933L701.973 580.4L693.453 560H697.453Z" fill="black"/>
<rect x="661" y="255" width="321" height="148" rx="10" fill="#FFEAB4"/>
<rect x="663" y="257" width="317" height="144" rx="8" stroke="#845A1C" stroke-opacity="0.6" stroke-width="4"/>
<path d="M774.859 315.2C776.166 315.2 777.352 315.4 778.419 315.8C779.486 316.2 780.392 316.773 781.139 317.52C781.912 318.267 782.499 319.16 782.899 320.2C783.326 321.213 783.539 322.347 783.539 323.6C783.539 324.853 783.326 326 782.899 327.04C782.472 328.053 781.872 328.933 781.099 329.68C780.352 330.427 779.446 331 778.379 331.4C777.312 331.8 776.139 332 774.859 332H768.739V344H765.139V315.2H774.859ZM768.739 318.4V328.8H774.859C776.352 328.8 777.552 328.333 778.459 327.4C779.366 326.44 779.819 325.173 779.819 323.6C779.819 322.027 779.366 320.773 778.459 319.84C777.552 318.88 776.352 318.4 774.859 318.4H768.739ZM788.043 337.6C788.043 336.56 788.217 335.627 788.563 334.8C788.937 333.947 789.457 333.227 790.123 332.64C790.817 332.053 791.643 331.6 792.603 331.28C793.563 330.96 794.643 330.8 795.843 330.8H802.403V329C802.403 327.64 801.95 326.587 801.043 325.84C800.163 325.067 798.883 324.68 797.203 324.68C795.977 324.68 794.923 324.907 794.043 325.36C793.19 325.813 792.617 326.44 792.323 327.24H788.723C789.097 325.507 790.043 324.133 791.563 323.12C793.11 322.107 795.017 321.6 797.283 321.6C800.003 321.6 802.137 322.24 803.683 323.52C805.23 324.773 806.003 326.533 806.003 328.8V344H802.723V339.8H802.403C802.057 341.213 801.243 342.333 799.963 343.16C798.683 343.987 797.123 344.4 795.283 344.4C793.07 344.4 791.31 343.787 790.003 342.56C788.697 341.333 788.043 339.68 788.043 337.6ZM796.083 341.44C796.99 341.44 797.83 341.32 798.603 341.08C799.377 340.84 800.043 340.507 800.603 340.08C801.163 339.627 801.603 339.107 801.923 338.52C802.243 337.933 802.403 337.293 802.403 336.6V333.6H795.923C794.59 333.6 793.537 333.947 792.763 334.64C792.017 335.333 791.643 336.293 791.643 337.52C791.643 338.747 792.03 339.707 792.803 340.4C793.577 341.093 794.67 341.44 796.083 341.44ZM813.028 344V322H816.428V325.8H816.748C817.094 324.467 817.788 323.44 818.828 322.72C819.894 321.973 821.214 321.6 822.788 321.6C823.881 321.6 824.868 321.787 825.748 322.16C826.654 322.533 827.414 323.067 828.028 323.76C828.668 324.427 829.161 325.24 829.508 326.2C829.854 327.133 830.028 328.187 830.028 329.36V344H826.428V329.96C826.428 328.28 826.001 326.973 825.148 326.04C824.294 325.107 823.108 324.64 821.588 324.64C820.068 324.64 818.854 325.147 817.948 326.16C817.068 327.147 816.628 328.493 816.628 330.2V344H813.028ZM845.492 344.4C842.746 344.4 840.586 343.653 839.012 342.16C837.466 340.667 836.692 338.613 836.692 336V330C836.692 327.387 837.466 325.333 839.012 323.84C840.586 322.347 842.746 321.6 845.492 321.6C848.239 321.6 850.386 322.347 851.932 323.84C853.506 325.333 854.292 327.387 854.292 330V334.04H840.292V335.8C840.292 337.48 840.746 338.8 841.652 339.76C842.586 340.72 843.866 341.2 845.492 341.2C846.692 341.2 847.732 341.013 848.612 340.64C849.492 340.267 850.146 339.72 850.572 339H854.172C853.719 340.68 852.706 342 851.132 342.96C849.586 343.92 847.706 344.4 845.492 344.4ZM850.692 331.04V330C850.692 328.347 850.239 327.067 849.332 326.16C848.426 325.253 847.146 324.8 845.492 324.8C843.839 324.8 842.559 325.253 841.652 326.16C840.746 327.067 840.292 328.347 840.292 330V331.04H850.692ZM869.957 314.8V337.6C869.957 338.587 870.223 339.36 870.757 339.92C871.29 340.453 872.023 340.72 872.957 340.72H879.477V344H872.957C870.903 344 869.29 343.44 868.117 342.32C866.943 341.173 866.357 339.6 866.357 337.6V318.08H859.077V314.8H869.957Z" fill="black"/>
<rect x="451" y="21" width="321" height="148" rx="10" fill="#CCEAFF"/>
<rect x="453" y="23" width="317" height="144" rx="8" stroke="#1A356B" stroke-opacity="0.6" stroke-width="4"/>
<path d="M577.283 110L585.123 81.2H590.163L597.763 110H593.923L591.923 101.88H583.083L581.043 110H577.283ZM583.843 98.88H591.203L588.403 87.48C588.27 86.92 588.15 86.4133 588.043 85.96C587.937 85.48 587.857 85.0533 587.803 84.68C587.75 84.28 587.697 83.92 587.643 83.6H587.483C587.43 83.92 587.363 84.28 587.283 84.68C587.23 85.0533 587.15 85.48 587.043 85.96C586.937 86.4133 586.817 86.92 586.683 87.48L583.843 98.88ZM606.428 88V91.8H606.748C607.094 90.4667 607.801 89.44 608.868 88.72C609.934 87.9733 611.281 87.6 612.908 87.6C614.028 87.6 615.041 87.8 615.948 88.2C616.854 88.6 617.628 89.1733 618.268 89.92C618.908 90.64 619.401 91.5333 619.748 92.6C620.121 93.6667 620.308 94.8667 620.308 96.2V101.8C620.308 103.133 620.121 104.333 619.748 105.4C619.401 106.467 618.908 107.373 618.268 108.12C617.628 108.84 616.854 109.4 615.948 109.8C615.041 110.2 614.028 110.4 612.908 110.4C611.281 110.4 609.934 110.04 608.868 109.32C607.801 108.573 607.094 107.533 606.748 106.2H606.428C606.454 106.653 606.494 107.107 606.548 107.56C606.574 107.96 606.588 108.373 606.588 108.8C606.614 109.227 606.628 109.627 606.628 110V116.6H603.028V88H606.428ZM606.628 101.8C606.628 103.48 607.068 104.813 607.948 105.8C608.854 106.787 610.054 107.28 611.548 107.28C613.148 107.28 614.401 106.787 615.308 105.8C616.241 104.813 616.708 103.48 616.708 101.8V96.2C616.708 94.4667 616.254 93.12 615.348 92.16C614.441 91.2 613.174 90.72 611.548 90.72C610.054 90.72 608.854 91.2133 607.948 92.2C607.068 93.1867 606.628 94.52 606.628 96.2V101.8ZM630.412 88V91.8H630.732C631.079 90.4667 631.786 89.44 632.852 88.72C633.919 87.9733 635.266 87.6 636.892 87.6C638.012 87.6 639.026 87.8 639.932 88.2C640.839 88.6 641.612 89.1733 642.252 89.92C642.892 90.64 643.386 91.5333 643.732 92.6C644.106 93.6667 644.292 94.8667 644.292 96.2V101.8C644.292 103.133 644.106 104.333 643.732 105.4C643.386 106.467 642.892 107.373 642.252 108.12C641.612 108.84 640.839 109.4 639.932 109.8C639.026 110.2 638.012 110.4 636.892 110.4C635.266 110.4 633.919 110.04 632.852 109.32C631.786 108.573 631.079 107.533 630.732 106.2H630.412C630.439 106.653 630.479 107.107 630.532 107.56C630.559 107.96 630.572 108.373 630.572 108.8C630.599 109.227 630.612 109.627 630.612 110V116.6H627.012V88H630.412ZM630.612 101.8C630.612 103.48 631.052 104.813 631.932 105.8C632.839 106.787 634.039 107.28 635.532 107.28C637.132 107.28 638.386 106.787 639.292 105.8C640.226 104.813 640.692 103.48 640.692 101.8V96.2C640.692 94.4667 640.239 93.12 639.332 92.16C638.426 91.2 637.159 90.72 635.532 90.72C634.039 90.72 632.839 91.2133 631.932 92.2C631.052 93.1867 630.612 94.52 630.612 96.2V101.8Z" fill="black"/>
<path d="M410.282 235C411.048 235 411.53 235.827 411.151 236.494L400.369 255.47C399.986 256.144 399.014 256.144 398.631 255.47L387.849 236.494C387.47 235.827 387.952 235 388.718 235L410.282 235Z" fill="#474747"/>
<path d="M833.282 235C834.048 235 834.53 235.827 834.151 236.494L823.369 255.47C822.986 256.144 822.014 256.144 821.631 255.47L810.849 236.494C810.47 235.827 810.952 235 811.718 235L833.282 235Z" fill="#474747"/>
<g clip-path="url(#clip0_118_1270)">
<path d="M823 201.286L823 235" stroke="#474747" stroke-width="6"/>
<path d="M400 201.286L400 235" stroke="#474747" stroke-width="6"/>
<path d="M397 201.286L826 201.286" stroke="#474747" stroke-width="6"/>
<path d="M611.5 168.143L611.5 201.286" stroke="#474747" stroke-width="6"/>
</g>
<path d="M192.282 471C193.048 471 193.53 471.827 193.151 472.494L182.369 491.47C181.986 492.144 181.014 492.144 180.631 491.47L169.849 472.494C169.47 471.827 169.952 471 170.718 471L192.282 471Z" fill="#474747"/>
<path d="M629.282 471C630.048 471 630.53 471.827 630.151 472.494L619.369 491.47C618.986 492.144 618.014 492.144 617.631 491.47L606.849 472.494C606.47 471.827 606.952 471 607.718 471L629.282 471Z" fill="#474747"/>
<g clip-path="url(#clip1_118_1270)">
<path d="M619 437.286L619 471" stroke="#474747" stroke-width="6"/>
<path d="M182 437.286L182 471" stroke="#474747" stroke-width="6"/>
<path d="M179 437.286L622 437.286" stroke="#474747" stroke-width="6"/>
<path d="M400.5 404.143L400.5 437.286" stroke="#474747" stroke-width="6"/>
</g>
<path d="M588.592 332.84C588.592 331.8 588.912 330.973 589.552 330.36C590.166 329.72 590.992 329.4 592.032 329.4C593.072 329.4 593.912 329.72 594.552 330.36C595.166 330.973 595.472 331.8 595.472 332.84C595.472 333.907 595.166 334.773 594.552 335.44C593.912 336.08 593.072 336.4 592.032 336.4C590.992 336.4 590.166 336.08 589.552 335.44C588.912 334.773 588.592 333.907 588.592 332.84ZM608.552 332.84C608.552 331.8 608.872 330.973 609.512 330.36C610.126 329.72 610.952 329.4 611.992 329.4C613.032 329.4 613.872 329.72 614.512 330.36C615.126 330.973 615.432 331.8 615.432 332.84C615.432 333.907 615.126 334.773 614.512 335.44C613.872 336.08 613.032 336.4 611.992 336.4C610.952 336.4 610.126 336.08 609.512 335.44C608.872 334.773 608.552 333.907 608.552 332.84ZM628.512 332.84C628.512 331.8 628.819 330.973 629.432 330.36C630.072 329.72 630.912 329.4 631.952 329.4C632.992 329.4 633.819 329.72 634.432 330.36C635.072 330.973 635.392 331.8 635.392 332.84C635.392 333.907 635.072 334.773 634.432 335.44C633.819 336.08 632.992 336.4 631.952 336.4C630.912 336.4 630.072 336.08 629.432 335.44C628.819 334.773 628.512 333.907 628.512 332.84Z" fill="black"/>
<path d="M376.592 570.84C376.592 569.8 376.912 568.973 377.552 568.36C378.166 567.72 378.992 567.4 380.032 567.4C381.072 567.4 381.912 567.72 382.552 568.36C383.166 568.973 383.472 569.8 383.472 570.84C383.472 571.907 383.166 572.773 382.552 573.44C381.912 574.08 381.072 574.4 380.032 574.4C378.992 574.4 378.166 574.08 377.552 573.44C376.912 572.773 376.592 571.907 376.592 570.84ZM396.552 570.84C396.552 569.8 396.872 568.973 397.512 568.36C398.126 567.72 398.952 567.4 399.992 567.4C401.032 567.4 401.872 567.72 402.512 568.36C403.126 568.973 403.432 569.8 403.432 570.84C403.432 571.907 403.126 572.773 402.512 573.44C401.872 574.08 401.032 574.4 399.992 574.4C398.952 574.4 398.126 574.08 397.512 573.44C396.872 572.773 396.552 571.907 396.552 570.84ZM416.512 570.84C416.512 569.8 416.819 568.973 417.432 568.36C418.072 567.72 418.912 567.4 419.952 567.4C420.992 567.4 421.819 567.72 422.432 568.36C423.072 568.973 423.392 569.8 423.392 570.84C423.392 571.907 423.072 572.773 422.432 573.44C421.819 574.08 420.992 574.4 419.952 574.4C418.912 574.4 418.072 574.08 417.432 573.44C416.819 572.773 416.512 571.907 416.512 570.84Z" fill="black"/>
<path d="M182 641L182 740" stroke="#474747" stroke-width="6"/>
<path d="M192.282 738C193.048 738 193.53 738.827 193.151 739.494L182.369 758.47C181.986 759.144 181.014 759.144 180.631 758.47L169.849 739.494C169.47 738.827 169.952 738 170.718 738L192.282 738Z" fill="#474747"/>
<path d="M622 641L622 740" stroke="#474747" stroke-width="6"/>
<path d="M632.282 738C633.048 738 633.53 738.827 633.151 739.494L622.369 758.47C621.986 759.144 621.014 759.144 620.631 758.47L609.849 739.494C609.47 738.827 609.952 738 610.718 738L632.282 738Z" fill="#474747"/>
<defs>
<clipPath id="clip0_118_1270">
<rect width="68" height="429" fill="white" transform="translate(826 167) rotate(90)"/>
</clipPath>
<clipPath id="clip1_118_1270">
<rect width="68" height="443" fill="white" transform="translate(622 403) rotate(90)"/>
</clipPath>
</defs>
</svg>
